G04 #@! TF.GenerationSoftware,KiCad,Pcbnew,(5.1.5)-3*
G04 #@! TF.CreationDate,2020-05-18T11:13:30-07:00*
G04 #@! TF.ProjectId,Conductivity_Sensor,436f6e64-7563-4746-9976-6974795f5365,rev?*
G04 #@! TF.SameCoordinates,Original*
G04 #@! TF.FileFunction,Soldermask,Bot*
G04 #@! TF.FilePolarity,Negative*
%FSLAX46Y46*%
G04 Gerber Fmt 4.6, Leading zero omitted, Abs format (unit mm)*
G04 Created by KiCad (PCBNEW (5.1.5)-3) date 2020-05-18 11:13:30*
%MOMM*%
%LPD*%
G04 APERTURE LIST*
%ADD10C,0.100000*%
G04 APERTURE END LIST*
D10*
G36*
X163461000Y-75196000D02*
G01*
X161659000Y-75196000D01*
X161659000Y-73394000D01*
X163461000Y-73394000D01*
X163461000Y-75196000D01*
G37*
G36*
X167753512Y-73398927D02*
G01*
X167902812Y-73428624D01*
X168066784Y-73496544D01*
X168214354Y-73595147D01*
X168339853Y-73720646D01*
X168438456Y-73868216D01*
X168506376Y-74032188D01*
X168541000Y-74206259D01*
X168541000Y-74383741D01*
X168506376Y-74557812D01*
X168438456Y-74721784D01*
X168339853Y-74869354D01*
X168214354Y-74994853D01*
X168066784Y-75093456D01*
X167902812Y-75161376D01*
X167753512Y-75191073D01*
X167728742Y-75196000D01*
X167551258Y-75196000D01*
X167526488Y-75191073D01*
X167377188Y-75161376D01*
X167213216Y-75093456D01*
X167065646Y-74994853D01*
X166940147Y-74869354D01*
X166841544Y-74721784D01*
X166773624Y-74557812D01*
X166739000Y-74383741D01*
X166739000Y-74206259D01*
X166773624Y-74032188D01*
X166841544Y-73868216D01*
X166940147Y-73720646D01*
X167065646Y-73595147D01*
X167213216Y-73496544D01*
X167377188Y-73428624D01*
X167526488Y-73398927D01*
X167551258Y-73394000D01*
X167728742Y-73394000D01*
X167753512Y-73398927D01*
G37*
G36*
X118223512Y-73398927D02*
G01*
X118372812Y-73428624D01*
X118536784Y-73496544D01*
X118684354Y-73595147D01*
X118809853Y-73720646D01*
X118908456Y-73868216D01*
X118976376Y-74032188D01*
X119011000Y-74206259D01*
X119011000Y-74383741D01*
X118976376Y-74557812D01*
X118908456Y-74721784D01*
X118809853Y-74869354D01*
X118684354Y-74994853D01*
X118536784Y-75093456D01*
X118372812Y-75161376D01*
X118223512Y-75191073D01*
X118198742Y-75196000D01*
X118021258Y-75196000D01*
X117996488Y-75191073D01*
X117847188Y-75161376D01*
X117683216Y-75093456D01*
X117535646Y-74994853D01*
X117410147Y-74869354D01*
X117311544Y-74721784D01*
X117243624Y-74557812D01*
X117209000Y-74383741D01*
X117209000Y-74206259D01*
X117243624Y-74032188D01*
X117311544Y-73868216D01*
X117410147Y-73720646D01*
X117535646Y-73595147D01*
X117683216Y-73496544D01*
X117847188Y-73428624D01*
X117996488Y-73398927D01*
X118021258Y-73394000D01*
X118198742Y-73394000D01*
X118223512Y-73398927D01*
G37*
G36*
X115683512Y-73398927D02*
G01*
X115832812Y-73428624D01*
X115996784Y-73496544D01*
X116144354Y-73595147D01*
X116269853Y-73720646D01*
X116368456Y-73868216D01*
X116436376Y-74032188D01*
X116471000Y-74206259D01*
X116471000Y-74383741D01*
X116436376Y-74557812D01*
X116368456Y-74721784D01*
X116269853Y-74869354D01*
X116144354Y-74994853D01*
X115996784Y-75093456D01*
X115832812Y-75161376D01*
X115683512Y-75191073D01*
X115658742Y-75196000D01*
X115481258Y-75196000D01*
X115456488Y-75191073D01*
X115307188Y-75161376D01*
X115143216Y-75093456D01*
X114995646Y-74994853D01*
X114870147Y-74869354D01*
X114771544Y-74721784D01*
X114703624Y-74557812D01*
X114669000Y-74383741D01*
X114669000Y-74206259D01*
X114703624Y-74032188D01*
X114771544Y-73868216D01*
X114870147Y-73720646D01*
X114995646Y-73595147D01*
X115143216Y-73496544D01*
X115307188Y-73428624D01*
X115456488Y-73398927D01*
X115481258Y-73394000D01*
X115658742Y-73394000D01*
X115683512Y-73398927D01*
G37*
G36*
X113931000Y-75196000D02*
G01*
X112129000Y-75196000D01*
X112129000Y-73394000D01*
X113931000Y-73394000D01*
X113931000Y-75196000D01*
G37*
G36*
X165213512Y-73398927D02*
G01*
X165362812Y-73428624D01*
X165526784Y-73496544D01*
X165674354Y-73595147D01*
X165799853Y-73720646D01*
X165898456Y-73868216D01*
X165966376Y-74032188D01*
X166001000Y-74206259D01*
X166001000Y-74383741D01*
X165966376Y-74557812D01*
X165898456Y-74721784D01*
X165799853Y-74869354D01*
X165674354Y-74994853D01*
X165526784Y-75093456D01*
X165362812Y-75161376D01*
X165213512Y-75191073D01*
X165188742Y-75196000D01*
X165011258Y-75196000D01*
X164986488Y-75191073D01*
X164837188Y-75161376D01*
X164673216Y-75093456D01*
X164525646Y-74994853D01*
X164400147Y-74869354D01*
X164301544Y-74721784D01*
X164233624Y-74557812D01*
X164199000Y-74383741D01*
X164199000Y-74206259D01*
X164233624Y-74032188D01*
X164301544Y-73868216D01*
X164400147Y-73720646D01*
X164525646Y-73595147D01*
X164673216Y-73496544D01*
X164837188Y-73428624D01*
X164986488Y-73398927D01*
X165011258Y-73394000D01*
X165188742Y-73394000D01*
X165213512Y-73398927D01*
G37*
G36*
X127375256Y-71416298D02*
G01*
X127481579Y-71437447D01*
X127782042Y-71561903D01*
X128052451Y-71742585D01*
X128282415Y-71972549D01*
X128463097Y-72242958D01*
X128587553Y-72543421D01*
X128651000Y-72862391D01*
X128651000Y-73187609D01*
X128587553Y-73506579D01*
X128463097Y-73807042D01*
X128282415Y-74077451D01*
X128052451Y-74307415D01*
X127782042Y-74488097D01*
X127481579Y-74612553D01*
X127375256Y-74633702D01*
X127162611Y-74676000D01*
X126837389Y-74676000D01*
X126624744Y-74633702D01*
X126518421Y-74612553D01*
X126217958Y-74488097D01*
X125947549Y-74307415D01*
X125717585Y-74077451D01*
X125536903Y-73807042D01*
X125412447Y-73506579D01*
X125349000Y-73187609D01*
X125349000Y-72862391D01*
X125412447Y-72543421D01*
X125536903Y-72242958D01*
X125717585Y-71972549D01*
X125947549Y-71742585D01*
X126217958Y-71561903D01*
X126518421Y-71437447D01*
X126624744Y-71416298D01*
X126837389Y-71374000D01*
X127162611Y-71374000D01*
X127375256Y-71416298D01*
G37*
G36*
X119905600Y-56288818D02*
G01*
X119908002Y-56313204D01*
X119915115Y-56336653D01*
X119926666Y-56358264D01*
X119942211Y-56377206D01*
X119961153Y-56392751D01*
X119982764Y-56404302D01*
X120006213Y-56411415D01*
X120030599Y-56413817D01*
X120054985Y-56411415D01*
X120078434Y-56404302D01*
X120100045Y-56392751D01*
X120118987Y-56377206D01*
X120134532Y-56358264D01*
X120196609Y-56265360D01*
X120196610Y-56265358D01*
X120273358Y-56188610D01*
X120363604Y-56128310D01*
X120363605Y-56128309D01*
X120463879Y-56086774D01*
X120570330Y-56065600D01*
X120678870Y-56065600D01*
X120785321Y-56086774D01*
X120885595Y-56128309D01*
X120885596Y-56128310D01*
X120975842Y-56188610D01*
X121052590Y-56265358D01*
X121052591Y-56265360D01*
X121112891Y-56355605D01*
X121144116Y-56430989D01*
X121155667Y-56452600D01*
X121171212Y-56471541D01*
X121190154Y-56487087D01*
X121211765Y-56498638D01*
X121235214Y-56505751D01*
X121259600Y-56508153D01*
X121283986Y-56505751D01*
X121307435Y-56498638D01*
X121329046Y-56487087D01*
X121347987Y-56471542D01*
X121363533Y-56452600D01*
X121375084Y-56430989D01*
X121406309Y-56355605D01*
X121466609Y-56265360D01*
X121466610Y-56265358D01*
X121543358Y-56188610D01*
X121633604Y-56128310D01*
X121633605Y-56128309D01*
X121733879Y-56086774D01*
X121840330Y-56065600D01*
X121948870Y-56065600D01*
X122055321Y-56086774D01*
X122155595Y-56128309D01*
X122155596Y-56128310D01*
X122245842Y-56188610D01*
X122322590Y-56265358D01*
X122322591Y-56265360D01*
X122382891Y-56355605D01*
X122414116Y-56430989D01*
X122425667Y-56452600D01*
X122441212Y-56471541D01*
X122460154Y-56487087D01*
X122481765Y-56498638D01*
X122505214Y-56505751D01*
X122529600Y-56508153D01*
X122553986Y-56505751D01*
X122577435Y-56498638D01*
X122599046Y-56487087D01*
X122617987Y-56471542D01*
X122633533Y-56452600D01*
X122645084Y-56430989D01*
X122676309Y-56355605D01*
X122736609Y-56265360D01*
X122736610Y-56265358D01*
X122813358Y-56188610D01*
X122903604Y-56128310D01*
X122903605Y-56128309D01*
X123003879Y-56086774D01*
X123110330Y-56065600D01*
X123218870Y-56065600D01*
X123325321Y-56086774D01*
X123425595Y-56128309D01*
X123425596Y-56128310D01*
X123515842Y-56188610D01*
X123592590Y-56265358D01*
X123592591Y-56265360D01*
X123652891Y-56355605D01*
X123684116Y-56430989D01*
X123695667Y-56452600D01*
X123711212Y-56471541D01*
X123730154Y-56487087D01*
X123751765Y-56498638D01*
X123775214Y-56505751D01*
X123799600Y-56508153D01*
X123823986Y-56505751D01*
X123847435Y-56498638D01*
X123869046Y-56487087D01*
X123887987Y-56471542D01*
X123903533Y-56452600D01*
X123915084Y-56430989D01*
X123946309Y-56355605D01*
X124006609Y-56265360D01*
X124006610Y-56265358D01*
X124083358Y-56188610D01*
X124173604Y-56128310D01*
X124173605Y-56128309D01*
X124273879Y-56086774D01*
X124380330Y-56065600D01*
X124488870Y-56065600D01*
X124595321Y-56086774D01*
X124695595Y-56128309D01*
X124695596Y-56128310D01*
X124785842Y-56188610D01*
X124862590Y-56265358D01*
X124862591Y-56265360D01*
X124922891Y-56355605D01*
X124954116Y-56430989D01*
X124965667Y-56452600D01*
X124981212Y-56471541D01*
X125000154Y-56487087D01*
X125021765Y-56498638D01*
X125045214Y-56505751D01*
X125069600Y-56508153D01*
X125093986Y-56505751D01*
X125117435Y-56498638D01*
X125139046Y-56487087D01*
X125157987Y-56471542D01*
X125173533Y-56452600D01*
X125185084Y-56430989D01*
X125216309Y-56355605D01*
X125276609Y-56265360D01*
X125276610Y-56265358D01*
X125353358Y-56188610D01*
X125443604Y-56128310D01*
X125443605Y-56128309D01*
X125543879Y-56086774D01*
X125650330Y-56065600D01*
X125758870Y-56065600D01*
X125865321Y-56086774D01*
X125965595Y-56128309D01*
X125965596Y-56128310D01*
X126055842Y-56188610D01*
X126132590Y-56265358D01*
X126132591Y-56265360D01*
X126192891Y-56355605D01*
X126234426Y-56455879D01*
X126255600Y-56562330D01*
X126255600Y-56670870D01*
X126234426Y-56777321D01*
X126192891Y-56877595D01*
X126192890Y-56877596D01*
X126132590Y-56967842D01*
X126055842Y-57044590D01*
X126010412Y-57074945D01*
X125965595Y-57104891D01*
X125865321Y-57146426D01*
X125758870Y-57167600D01*
X125650330Y-57167600D01*
X125543879Y-57146426D01*
X125443605Y-57104891D01*
X125398788Y-57074945D01*
X125353358Y-57044590D01*
X125276610Y-56967842D01*
X125216310Y-56877596D01*
X125216309Y-56877595D01*
X125185084Y-56802211D01*
X125173533Y-56780600D01*
X125157988Y-56761659D01*
X125139046Y-56746113D01*
X125117435Y-56734562D01*
X125093986Y-56727449D01*
X125069600Y-56725047D01*
X125045214Y-56727449D01*
X125021765Y-56734562D01*
X125000154Y-56746113D01*
X124981213Y-56761658D01*
X124965667Y-56780600D01*
X124954116Y-56802211D01*
X124922891Y-56877595D01*
X124922890Y-56877596D01*
X124862590Y-56967842D01*
X124785842Y-57044590D01*
X124740412Y-57074945D01*
X124695595Y-57104891D01*
X124595321Y-57146426D01*
X124488870Y-57167600D01*
X124380330Y-57167600D01*
X124273879Y-57146426D01*
X124173605Y-57104891D01*
X124128788Y-57074945D01*
X124083358Y-57044590D01*
X124006610Y-56967842D01*
X123946310Y-56877596D01*
X123946309Y-56877595D01*
X123915084Y-56802211D01*
X123903533Y-56780600D01*
X123887988Y-56761659D01*
X123869046Y-56746113D01*
X123847435Y-56734562D01*
X123823986Y-56727449D01*
X123799600Y-56725047D01*
X123775214Y-56727449D01*
X123751765Y-56734562D01*
X123730154Y-56746113D01*
X123711213Y-56761658D01*
X123695667Y-56780600D01*
X123684116Y-56802211D01*
X123652891Y-56877595D01*
X123652890Y-56877596D01*
X123592590Y-56967842D01*
X123515842Y-57044590D01*
X123470412Y-57074945D01*
X123425595Y-57104891D01*
X123325321Y-57146426D01*
X123218870Y-57167600D01*
X123110330Y-57167600D01*
X123003879Y-57146426D01*
X122903605Y-57104891D01*
X122858788Y-57074945D01*
X122813358Y-57044590D01*
X122736610Y-56967842D01*
X122676310Y-56877596D01*
X122676309Y-56877595D01*
X122645084Y-56802211D01*
X122633533Y-56780600D01*
X122617988Y-56761659D01*
X122599046Y-56746113D01*
X122577435Y-56734562D01*
X122553986Y-56727449D01*
X122529600Y-56725047D01*
X122505214Y-56727449D01*
X122481765Y-56734562D01*
X122460154Y-56746113D01*
X122441213Y-56761658D01*
X122425667Y-56780600D01*
X122414116Y-56802211D01*
X122382891Y-56877595D01*
X122382890Y-56877596D01*
X122322590Y-56967842D01*
X122245842Y-57044590D01*
X122200412Y-57074945D01*
X122155595Y-57104891D01*
X122055321Y-57146426D01*
X121948870Y-57167600D01*
X121840330Y-57167600D01*
X121733879Y-57146426D01*
X121633605Y-57104891D01*
X121588788Y-57074945D01*
X121543358Y-57044590D01*
X121466610Y-56967842D01*
X121406310Y-56877596D01*
X121406309Y-56877595D01*
X121375084Y-56802211D01*
X121363533Y-56780600D01*
X121347988Y-56761659D01*
X121329046Y-56746113D01*
X121307435Y-56734562D01*
X121283986Y-56727449D01*
X121259600Y-56725047D01*
X121235214Y-56727449D01*
X121211765Y-56734562D01*
X121190154Y-56746113D01*
X121171213Y-56761658D01*
X121155667Y-56780600D01*
X121144116Y-56802211D01*
X121112891Y-56877595D01*
X121112890Y-56877596D01*
X121052590Y-56967842D01*
X120975842Y-57044590D01*
X120930412Y-57074945D01*
X120885595Y-57104891D01*
X120785321Y-57146426D01*
X120678870Y-57167600D01*
X120570330Y-57167600D01*
X120463879Y-57146426D01*
X120363605Y-57104891D01*
X120318788Y-57074945D01*
X120273358Y-57044590D01*
X120196610Y-56967842D01*
X120175612Y-56936416D01*
X120134532Y-56874936D01*
X120118986Y-56855994D01*
X120100044Y-56840449D01*
X120078433Y-56828898D01*
X120054985Y-56821785D01*
X120030598Y-56819383D01*
X120006212Y-56821785D01*
X119982763Y-56828898D01*
X119961153Y-56840449D01*
X119942211Y-56855995D01*
X119926666Y-56874937D01*
X119915115Y-56896548D01*
X119908002Y-56919996D01*
X119905600Y-56944382D01*
X119905600Y-57167600D01*
X118803600Y-57167600D01*
X118803600Y-56065600D01*
X119905600Y-56065600D01*
X119905600Y-56288818D01*
G37*
G36*
X105636905Y-52818789D02*
G01*
X105935350Y-52878153D01*
X106263122Y-53013921D01*
X106558109Y-53211025D01*
X106808975Y-53461891D01*
X107006079Y-53756878D01*
X107141847Y-54084650D01*
X107211060Y-54432611D01*
X107211060Y-54787389D01*
X107141847Y-55135350D01*
X107006079Y-55463122D01*
X106808975Y-55758109D01*
X106558109Y-56008975D01*
X106263122Y-56206079D01*
X105935350Y-56341847D01*
X105636905Y-56401211D01*
X105587390Y-56411060D01*
X105232610Y-56411060D01*
X105183095Y-56401211D01*
X104884650Y-56341847D01*
X104556878Y-56206079D01*
X104261891Y-56008975D01*
X104011025Y-55758109D01*
X103813921Y-55463122D01*
X103678153Y-55135350D01*
X103608940Y-54787389D01*
X103608940Y-54432611D01*
X103678153Y-54084650D01*
X103813921Y-53756878D01*
X104011025Y-53461891D01*
X104261891Y-53211025D01*
X104556878Y-53013921D01*
X104884650Y-52878153D01*
X105183095Y-52818789D01*
X105232610Y-52808940D01*
X105587390Y-52808940D01*
X105636905Y-52818789D01*
G37*
G36*
X113256905Y-52818789D02*
G01*
X113555350Y-52878153D01*
X113883122Y-53013921D01*
X114178109Y-53211025D01*
X114428975Y-53461891D01*
X114626079Y-53756878D01*
X114761847Y-54084650D01*
X114831060Y-54432611D01*
X114831060Y-54787389D01*
X114761847Y-55135350D01*
X114626079Y-55463122D01*
X114428975Y-55758109D01*
X114178109Y-56008975D01*
X113883122Y-56206079D01*
X113555350Y-56341847D01*
X113256905Y-56401211D01*
X113207390Y-56411060D01*
X112852610Y-56411060D01*
X112803095Y-56401211D01*
X112504650Y-56341847D01*
X112176878Y-56206079D01*
X111881891Y-56008975D01*
X111631025Y-55758109D01*
X111433921Y-55463122D01*
X111298153Y-55135350D01*
X111228940Y-54787389D01*
X111228940Y-54432611D01*
X111298153Y-54084650D01*
X111433921Y-53756878D01*
X111631025Y-53461891D01*
X111881891Y-53211025D01*
X112176878Y-53013921D01*
X112504650Y-52878153D01*
X112803095Y-52818789D01*
X112852610Y-52808940D01*
X113207390Y-52808940D01*
X113256905Y-52818789D01*
G37*
G36*
X174216905Y-52818789D02*
G01*
X174515350Y-52878153D01*
X174843122Y-53013921D01*
X175138109Y-53211025D01*
X175388975Y-53461891D01*
X175586079Y-53756878D01*
X175721847Y-54084650D01*
X175791060Y-54432611D01*
X175791060Y-54787389D01*
X175721847Y-55135350D01*
X175586079Y-55463122D01*
X175388975Y-55758109D01*
X175138109Y-56008975D01*
X174843122Y-56206079D01*
X174515350Y-56341847D01*
X174216905Y-56401211D01*
X174167390Y-56411060D01*
X173812610Y-56411060D01*
X173763095Y-56401211D01*
X173464650Y-56341847D01*
X173136878Y-56206079D01*
X172841891Y-56008975D01*
X172591025Y-55758109D01*
X172393921Y-55463122D01*
X172258153Y-55135350D01*
X172188940Y-54787389D01*
X172188940Y-54432611D01*
X172258153Y-54084650D01*
X172393921Y-53756878D01*
X172591025Y-53461891D01*
X172841891Y-53211025D01*
X173136878Y-53013921D01*
X173464650Y-52878153D01*
X173763095Y-52818789D01*
X173812610Y-52808940D01*
X174167390Y-52808940D01*
X174216905Y-52818789D01*
G37*
G36*
X152775256Y-52366298D02*
G01*
X152881579Y-52387447D01*
X153182042Y-52511903D01*
X153452451Y-52692585D01*
X153682415Y-52922549D01*
X153863097Y-53192958D01*
X153974493Y-53461891D01*
X153987553Y-53493422D01*
X154050178Y-53808256D01*
X154051000Y-53812391D01*
X154051000Y-54137609D01*
X153987553Y-54456579D01*
X153863097Y-54757042D01*
X153682415Y-55027451D01*
X153452451Y-55257415D01*
X153182042Y-55438097D01*
X153182041Y-55438098D01*
X153182040Y-55438098D01*
X153094037Y-55474550D01*
X152881579Y-55562553D01*
X152775256Y-55583702D01*
X152562611Y-55626000D01*
X152237389Y-55626000D01*
X152024744Y-55583702D01*
X151918421Y-55562553D01*
X151705963Y-55474550D01*
X151617960Y-55438098D01*
X151617959Y-55438098D01*
X151617958Y-55438097D01*
X151347549Y-55257415D01*
X151117585Y-55027451D01*
X150936903Y-54757042D01*
X150812447Y-54456579D01*
X150749000Y-54137609D01*
X150749000Y-53812391D01*
X150749823Y-53808256D01*
X150812447Y-53493422D01*
X150825508Y-53461891D01*
X150936903Y-53192958D01*
X151117585Y-52922549D01*
X151347549Y-52692585D01*
X151617958Y-52511903D01*
X151918421Y-52387447D01*
X152024744Y-52366298D01*
X152237389Y-52324000D01*
X152562611Y-52324000D01*
X152775256Y-52366298D01*
G37*
G36*
X122160600Y-53910800D02*
G01*
X120358600Y-53910800D01*
X120358600Y-52108800D01*
X122160600Y-52108800D01*
X122160600Y-53910800D01*
G37*
G36*
X123913112Y-52113727D02*
G01*
X124062412Y-52143424D01*
X124226384Y-52211344D01*
X124373954Y-52309947D01*
X124499453Y-52435446D01*
X124598056Y-52583016D01*
X124665976Y-52746988D01*
X124700600Y-52921059D01*
X124700600Y-53098541D01*
X124665976Y-53272612D01*
X124598056Y-53436584D01*
X124499453Y-53584154D01*
X124373954Y-53709653D01*
X124226384Y-53808256D01*
X124062412Y-53876176D01*
X123913112Y-53905873D01*
X123888342Y-53910800D01*
X123710858Y-53910800D01*
X123686088Y-53905873D01*
X123536788Y-53876176D01*
X123372816Y-53808256D01*
X123225246Y-53709653D01*
X123099747Y-53584154D01*
X123001144Y-53436584D01*
X122933224Y-53272612D01*
X122898600Y-53098541D01*
X122898600Y-52921059D01*
X122933224Y-52746988D01*
X123001144Y-52583016D01*
X123099747Y-52435446D01*
X123225246Y-52309947D01*
X123372816Y-52211344D01*
X123536788Y-52143424D01*
X123686088Y-52113727D01*
X123710858Y-52108800D01*
X123888342Y-52108800D01*
X123913112Y-52113727D01*
G37*
M02*
