G04 #@! TF.GenerationSoftware,KiCad,Pcbnew,(5.1.7)-1*
G04 #@! TF.CreationDate,2021-02-01T17:00:47-08:00*
G04 #@! TF.ProjectId,Conductivity_Sensor_v2,436f6e64-7563-4746-9976-6974795f5365,rev?*
G04 #@! TF.SameCoordinates,Original*
G04 #@! TF.FileFunction,Copper,L1,Top*
G04 #@! TF.FilePolarity,Positive*
%FSLAX46Y46*%
G04 Gerber Fmt 4.6, Leading zero omitted, Abs format (unit mm)*
G04 Created by KiCad (PCBNEW (5.1.7)-1) date 2021-02-01 17:00:47*
%MOMM*%
%LPD*%
G01*
G04 APERTURE LIST*
G04 #@! TA.AperFunction,ComponentPad*
%ADD10O,1.700000X1.700000*%
G04 #@! TD*
G04 #@! TA.AperFunction,ComponentPad*
%ADD11R,1.700000X1.700000*%
G04 #@! TD*
G04 #@! TA.AperFunction,SMDPad,CuDef*
%ADD12R,1.200000X0.900000*%
G04 #@! TD*
G04 #@! TA.AperFunction,ViaPad*
%ADD13C,0.800000*%
G04 #@! TD*
G04 #@! TA.AperFunction,Conductor*
%ADD14C,0.250000*%
G04 #@! TD*
G04 #@! TA.AperFunction,Conductor*
%ADD15C,0.254000*%
G04 #@! TD*
G04 APERTURE END LIST*
G04 #@! TA.AperFunction,SMDPad,CuDef*
G36*
G01*
X138499001Y-53917900D02*
X137598999Y-53917900D01*
G75*
G02*
X137349000Y-53667901I0J249999D01*
G01*
X137349000Y-53142899D01*
G75*
G02*
X137598999Y-52892900I249999J0D01*
G01*
X138499001Y-52892900D01*
G75*
G02*
X138749000Y-53142899I0J-249999D01*
G01*
X138749000Y-53667901D01*
G75*
G02*
X138499001Y-53917900I-249999J0D01*
G01*
G37*
G04 #@! TD.AperFunction*
G04 #@! TA.AperFunction,SMDPad,CuDef*
G36*
G01*
X138499001Y-55742900D02*
X137598999Y-55742900D01*
G75*
G02*
X137349000Y-55492901I0J249999D01*
G01*
X137349000Y-54967899D01*
G75*
G02*
X137598999Y-54717900I249999J0D01*
G01*
X138499001Y-54717900D01*
G75*
G02*
X138749000Y-54967899I0J-249999D01*
G01*
X138749000Y-55492901D01*
G75*
G02*
X138499001Y-55742900I-249999J0D01*
G01*
G37*
G04 #@! TD.AperFunction*
D10*
X144602200Y-54038500D03*
X144602200Y-56578500D03*
X144602200Y-59118500D03*
X144602200Y-61658500D03*
X144602200Y-64198500D03*
D11*
X144602200Y-66738500D03*
G04 #@! TA.AperFunction,SMDPad,CuDef*
G36*
G01*
X136304400Y-60025300D02*
X136304400Y-59075300D01*
G75*
G02*
X136554400Y-58825300I250000J0D01*
G01*
X137054400Y-58825300D01*
G75*
G02*
X137304400Y-59075300I0J-250000D01*
G01*
X137304400Y-60025300D01*
G75*
G02*
X137054400Y-60275300I-250000J0D01*
G01*
X136554400Y-60275300D01*
G75*
G02*
X136304400Y-60025300I0J250000D01*
G01*
G37*
G04 #@! TD.AperFunction*
G04 #@! TA.AperFunction,SMDPad,CuDef*
G36*
G01*
X134404400Y-60025300D02*
X134404400Y-59075300D01*
G75*
G02*
X134654400Y-58825300I250000J0D01*
G01*
X135154400Y-58825300D01*
G75*
G02*
X135404400Y-59075300I0J-250000D01*
G01*
X135404400Y-60025300D01*
G75*
G02*
X135154400Y-60275300I-250000J0D01*
G01*
X134654400Y-60275300D01*
G75*
G02*
X134404400Y-60025300I0J250000D01*
G01*
G37*
G04 #@! TD.AperFunction*
G04 #@! TA.AperFunction,SMDPad,CuDef*
G36*
G01*
X124721200Y-67254100D02*
X124721200Y-68204100D01*
G75*
G02*
X124471200Y-68454100I-250000J0D01*
G01*
X123971200Y-68454100D01*
G75*
G02*
X123721200Y-68204100I0J250000D01*
G01*
X123721200Y-67254100D01*
G75*
G02*
X123971200Y-67004100I250000J0D01*
G01*
X124471200Y-67004100D01*
G75*
G02*
X124721200Y-67254100I0J-250000D01*
G01*
G37*
G04 #@! TD.AperFunction*
G04 #@! TA.AperFunction,SMDPad,CuDef*
G36*
G01*
X126621200Y-67254100D02*
X126621200Y-68204100D01*
G75*
G02*
X126371200Y-68454100I-250000J0D01*
G01*
X125871200Y-68454100D01*
G75*
G02*
X125621200Y-68204100I0J250000D01*
G01*
X125621200Y-67254100D01*
G75*
G02*
X125871200Y-67004100I250000J0D01*
G01*
X126371200Y-67004100D01*
G75*
G02*
X126621200Y-67254100I0J-250000D01*
G01*
G37*
G04 #@! TD.AperFunction*
G04 #@! TA.AperFunction,SMDPad,CuDef*
G36*
G01*
X133886400Y-55605700D02*
X133886400Y-54655700D01*
G75*
G02*
X134136400Y-54405700I250000J0D01*
G01*
X134636400Y-54405700D01*
G75*
G02*
X134886400Y-54655700I0J-250000D01*
G01*
X134886400Y-55605700D01*
G75*
G02*
X134636400Y-55855700I-250000J0D01*
G01*
X134136400Y-55855700D01*
G75*
G02*
X133886400Y-55605700I0J250000D01*
G01*
G37*
G04 #@! TD.AperFunction*
G04 #@! TA.AperFunction,SMDPad,CuDef*
G36*
G01*
X131986400Y-55605700D02*
X131986400Y-54655700D01*
G75*
G02*
X132236400Y-54405700I250000J0D01*
G01*
X132736400Y-54405700D01*
G75*
G02*
X132986400Y-54655700I0J-250000D01*
G01*
X132986400Y-55605700D01*
G75*
G02*
X132736400Y-55855700I-250000J0D01*
G01*
X132236400Y-55855700D01*
G75*
G02*
X131986400Y-55605700I0J250000D01*
G01*
G37*
G04 #@! TD.AperFunction*
G04 #@! TA.AperFunction,SMDPad,CuDef*
G36*
G01*
X104314453Y-64828887D02*
X102300184Y-63889618D01*
G75*
G02*
X102223399Y-63678651I67091J143876D01*
G01*
X102357580Y-63390898D01*
G75*
G02*
X102568547Y-63314113I143876J-67091D01*
G01*
X104582816Y-64253382D01*
G75*
G02*
X104659601Y-64464349I-67091J-143876D01*
G01*
X104525420Y-64752102D01*
G75*
G02*
X104314453Y-64828887I-143876J67091D01*
G01*
G37*
G04 #@! TD.AperFunction*
G04 #@! TA.AperFunction,SMDPad,CuDef*
G36*
G01*
X104559710Y-63205294D02*
X102412939Y-62630069D01*
G75*
G02*
X102300686Y-62435640I41088J153341D01*
G01*
X102382861Y-62128959D01*
G75*
G02*
X102577290Y-62016706I153341J-41088D01*
G01*
X104724061Y-62591931D01*
G75*
G02*
X104836314Y-62786360I-41088J-153341D01*
G01*
X104754139Y-63093041D01*
G75*
G02*
X104559710Y-63205294I-153341J41088D01*
G01*
G37*
G04 #@! TD.AperFunction*
G04 #@! TA.AperFunction,SMDPad,CuDef*
G36*
G01*
X104787561Y-57994569D02*
X102640790Y-58569794D01*
G75*
G02*
X102446361Y-58457541I-41088J153341D01*
G01*
X102364186Y-58150860D01*
G75*
G02*
X102476439Y-57956431I153341J41088D01*
G01*
X104623210Y-57381206D01*
G75*
G02*
X104817639Y-57493459I41088J-153341D01*
G01*
X104899814Y-57800140D01*
G75*
G02*
X104787561Y-57994569I-153341J-41088D01*
G01*
G37*
G04 #@! TD.AperFunction*
G04 #@! TA.AperFunction,SMDPad,CuDef*
G36*
G01*
X104519316Y-56396618D02*
X102505047Y-57335887D01*
G75*
G02*
X102294080Y-57259102I-67091J143876D01*
G01*
X102159899Y-56971349D01*
G75*
G02*
X102236684Y-56760382I143876J67091D01*
G01*
X104250953Y-55821113D01*
G75*
G02*
X104461920Y-55897898I67091J-143876D01*
G01*
X104596101Y-56185651D01*
G75*
G02*
X104519316Y-56396618I-143876J-67091D01*
G01*
G37*
G04 #@! TD.AperFunction*
G04 #@! TA.AperFunction,SMDPad,CuDef*
G36*
G01*
X104766693Y-59718940D02*
X102552651Y-59912644D01*
G75*
G02*
X102380669Y-59768334I-13836J158146D01*
G01*
X102352997Y-59452042D01*
G75*
G02*
X102497307Y-59280060I158146J13836D01*
G01*
X104711349Y-59086356D01*
G75*
G02*
X104883331Y-59230666I13836J-158146D01*
G01*
X104911003Y-59546958D01*
G75*
G02*
X104766693Y-59718940I-158146J-13836D01*
G01*
G37*
G04 #@! TD.AperFunction*
G04 #@! TA.AperFunction,SMDPad,CuDef*
G36*
G01*
X104711349Y-61436644D02*
X102497307Y-61242940D01*
G75*
G02*
X102352997Y-61070958I13836J158146D01*
G01*
X102380669Y-60754666D01*
G75*
G02*
X102552651Y-60610356I158146J-13836D01*
G01*
X104766693Y-60804060D01*
G75*
G02*
X104911003Y-60976042I-13836J-158146D01*
G01*
X104883331Y-61292334D01*
G75*
G02*
X104711349Y-61436644I-158146J13836D01*
G01*
G37*
G04 #@! TD.AperFunction*
D10*
X114300000Y-61531500D03*
D11*
X114300000Y-58991500D03*
D12*
X134289800Y-64809100D03*
X134289800Y-68109100D03*
X138430000Y-64757300D03*
X138430000Y-68057300D03*
G04 #@! TA.AperFunction,SMDPad,CuDef*
G36*
G01*
X120174599Y-59111300D02*
X121074601Y-59111300D01*
G75*
G02*
X121324600Y-59361299I0J-249999D01*
G01*
X121324600Y-60011301D01*
G75*
G02*
X121074601Y-60261300I-249999J0D01*
G01*
X120174599Y-60261300D01*
G75*
G02*
X119924600Y-60011301I0J249999D01*
G01*
X119924600Y-59361299D01*
G75*
G02*
X120174599Y-59111300I249999J0D01*
G01*
G37*
G04 #@! TD.AperFunction*
G04 #@! TA.AperFunction,SMDPad,CuDef*
G36*
G01*
X120174150Y-57061300D02*
X121075050Y-57061300D01*
G75*
G02*
X121324600Y-57310850I0J-249550D01*
G01*
X121324600Y-57961750D01*
G75*
G02*
X121075050Y-58211300I-249550J0D01*
G01*
X120174150Y-58211300D01*
G75*
G02*
X119924600Y-57961750I0J249550D01*
G01*
X119924600Y-57310850D01*
G75*
G02*
X120174150Y-57061300I249550J0D01*
G01*
G37*
G04 #@! TD.AperFunction*
G04 #@! TA.AperFunction,SMDPad,CuDef*
G36*
G01*
X120174599Y-62446100D02*
X121074601Y-62446100D01*
G75*
G02*
X121324600Y-62696099I0J-249999D01*
G01*
X121324600Y-63346101D01*
G75*
G02*
X121074601Y-63596100I-249999J0D01*
G01*
X120174599Y-63596100D01*
G75*
G02*
X119924600Y-63346101I0J249999D01*
G01*
X119924600Y-62696099D01*
G75*
G02*
X120174599Y-62446100I249999J0D01*
G01*
G37*
G04 #@! TD.AperFunction*
G04 #@! TA.AperFunction,SMDPad,CuDef*
G36*
G01*
X120174599Y-64496100D02*
X121074601Y-64496100D01*
G75*
G02*
X121324600Y-64746099I0J-249999D01*
G01*
X121324600Y-65396101D01*
G75*
G02*
X121074601Y-65646100I-249999J0D01*
G01*
X120174599Y-65646100D01*
G75*
G02*
X119924600Y-65396101I0J249999D01*
G01*
X119924600Y-64746099D01*
G75*
G02*
X120174599Y-64496100I249999J0D01*
G01*
G37*
G04 #@! TD.AperFunction*
G04 #@! TA.AperFunction,SMDPad,CuDef*
G36*
G01*
X125162400Y-60508301D02*
X125162400Y-59608299D01*
G75*
G02*
X125412399Y-59358300I249999J0D01*
G01*
X126062401Y-59358300D01*
G75*
G02*
X126312400Y-59608299I0J-249999D01*
G01*
X126312400Y-60508301D01*
G75*
G02*
X126062401Y-60758300I-249999J0D01*
G01*
X125412399Y-60758300D01*
G75*
G02*
X125162400Y-60508301I0J249999D01*
G01*
G37*
G04 #@! TD.AperFunction*
G04 #@! TA.AperFunction,SMDPad,CuDef*
G36*
G01*
X127212400Y-60508301D02*
X127212400Y-59608299D01*
G75*
G02*
X127462399Y-59358300I249999J0D01*
G01*
X128112401Y-59358300D01*
G75*
G02*
X128362400Y-59608299I0J-249999D01*
G01*
X128362400Y-60508301D01*
G75*
G02*
X128112401Y-60758300I-249999J0D01*
G01*
X127462399Y-60758300D01*
G75*
G02*
X127212400Y-60508301I0J249999D01*
G01*
G37*
G04 #@! TD.AperFunction*
G04 #@! TA.AperFunction,SMDPad,CuDef*
G36*
G01*
X127053200Y-56703700D02*
X127353200Y-56703700D01*
G75*
G02*
X127503200Y-56853700I0J-150000D01*
G01*
X127503200Y-58303700D01*
G75*
G02*
X127353200Y-58453700I-150000J0D01*
G01*
X127053200Y-58453700D01*
G75*
G02*
X126903200Y-58303700I0J150000D01*
G01*
X126903200Y-56853700D01*
G75*
G02*
X127053200Y-56703700I150000J0D01*
G01*
G37*
G04 #@! TD.AperFunction*
G04 #@! TA.AperFunction,SMDPad,CuDef*
G36*
G01*
X125783200Y-56703700D02*
X126083200Y-56703700D01*
G75*
G02*
X126233200Y-56853700I0J-150000D01*
G01*
X126233200Y-58303700D01*
G75*
G02*
X126083200Y-58453700I-150000J0D01*
G01*
X125783200Y-58453700D01*
G75*
G02*
X125633200Y-58303700I0J150000D01*
G01*
X125633200Y-56853700D01*
G75*
G02*
X125783200Y-56703700I150000J0D01*
G01*
G37*
G04 #@! TD.AperFunction*
G04 #@! TA.AperFunction,SMDPad,CuDef*
G36*
G01*
X124513200Y-56703700D02*
X124813200Y-56703700D01*
G75*
G02*
X124963200Y-56853700I0J-150000D01*
G01*
X124963200Y-58303700D01*
G75*
G02*
X124813200Y-58453700I-150000J0D01*
G01*
X124513200Y-58453700D01*
G75*
G02*
X124363200Y-58303700I0J150000D01*
G01*
X124363200Y-56853700D01*
G75*
G02*
X124513200Y-56703700I150000J0D01*
G01*
G37*
G04 #@! TD.AperFunction*
G04 #@! TA.AperFunction,SMDPad,CuDef*
G36*
G01*
X123243200Y-56703700D02*
X123543200Y-56703700D01*
G75*
G02*
X123693200Y-56853700I0J-150000D01*
G01*
X123693200Y-58303700D01*
G75*
G02*
X123543200Y-58453700I-150000J0D01*
G01*
X123243200Y-58453700D01*
G75*
G02*
X123093200Y-58303700I0J150000D01*
G01*
X123093200Y-56853700D01*
G75*
G02*
X123243200Y-56703700I150000J0D01*
G01*
G37*
G04 #@! TD.AperFunction*
G04 #@! TA.AperFunction,SMDPad,CuDef*
G36*
G01*
X123243200Y-51553700D02*
X123543200Y-51553700D01*
G75*
G02*
X123693200Y-51703700I0J-150000D01*
G01*
X123693200Y-53153700D01*
G75*
G02*
X123543200Y-53303700I-150000J0D01*
G01*
X123243200Y-53303700D01*
G75*
G02*
X123093200Y-53153700I0J150000D01*
G01*
X123093200Y-51703700D01*
G75*
G02*
X123243200Y-51553700I150000J0D01*
G01*
G37*
G04 #@! TD.AperFunction*
G04 #@! TA.AperFunction,SMDPad,CuDef*
G36*
G01*
X124513200Y-51553700D02*
X124813200Y-51553700D01*
G75*
G02*
X124963200Y-51703700I0J-150000D01*
G01*
X124963200Y-53153700D01*
G75*
G02*
X124813200Y-53303700I-150000J0D01*
G01*
X124513200Y-53303700D01*
G75*
G02*
X124363200Y-53153700I0J150000D01*
G01*
X124363200Y-51703700D01*
G75*
G02*
X124513200Y-51553700I150000J0D01*
G01*
G37*
G04 #@! TD.AperFunction*
G04 #@! TA.AperFunction,SMDPad,CuDef*
G36*
G01*
X125783200Y-51553700D02*
X126083200Y-51553700D01*
G75*
G02*
X126233200Y-51703700I0J-150000D01*
G01*
X126233200Y-53153700D01*
G75*
G02*
X126083200Y-53303700I-150000J0D01*
G01*
X125783200Y-53303700D01*
G75*
G02*
X125633200Y-53153700I0J150000D01*
G01*
X125633200Y-51703700D01*
G75*
G02*
X125783200Y-51553700I150000J0D01*
G01*
G37*
G04 #@! TD.AperFunction*
G04 #@! TA.AperFunction,SMDPad,CuDef*
G36*
G01*
X127053200Y-51553700D02*
X127353200Y-51553700D01*
G75*
G02*
X127503200Y-51703700I0J-150000D01*
G01*
X127503200Y-53153700D01*
G75*
G02*
X127353200Y-53303700I-150000J0D01*
G01*
X127053200Y-53303700D01*
G75*
G02*
X126903200Y-53153700I0J150000D01*
G01*
X126903200Y-51703700D01*
G75*
G02*
X127053200Y-51553700I150000J0D01*
G01*
G37*
G04 #@! TD.AperFunction*
G04 #@! TA.AperFunction,SMDPad,CuDef*
G36*
G01*
X128496800Y-62113300D02*
X128496800Y-61813300D01*
G75*
G02*
X128646800Y-61663300I150000J0D01*
G01*
X130096800Y-61663300D01*
G75*
G02*
X130246800Y-61813300I0J-150000D01*
G01*
X130246800Y-62113300D01*
G75*
G02*
X130096800Y-62263300I-150000J0D01*
G01*
X128646800Y-62263300D01*
G75*
G02*
X128496800Y-62113300I0J150000D01*
G01*
G37*
G04 #@! TD.AperFunction*
G04 #@! TA.AperFunction,SMDPad,CuDef*
G36*
G01*
X128496800Y-63383300D02*
X128496800Y-63083300D01*
G75*
G02*
X128646800Y-62933300I150000J0D01*
G01*
X130096800Y-62933300D01*
G75*
G02*
X130246800Y-63083300I0J-150000D01*
G01*
X130246800Y-63383300D01*
G75*
G02*
X130096800Y-63533300I-150000J0D01*
G01*
X128646800Y-63533300D01*
G75*
G02*
X128496800Y-63383300I0J150000D01*
G01*
G37*
G04 #@! TD.AperFunction*
G04 #@! TA.AperFunction,SMDPad,CuDef*
G36*
G01*
X128496800Y-64653300D02*
X128496800Y-64353300D01*
G75*
G02*
X128646800Y-64203300I150000J0D01*
G01*
X130096800Y-64203300D01*
G75*
G02*
X130246800Y-64353300I0J-150000D01*
G01*
X130246800Y-64653300D01*
G75*
G02*
X130096800Y-64803300I-150000J0D01*
G01*
X128646800Y-64803300D01*
G75*
G02*
X128496800Y-64653300I0J150000D01*
G01*
G37*
G04 #@! TD.AperFunction*
G04 #@! TA.AperFunction,SMDPad,CuDef*
G36*
G01*
X128496800Y-65923300D02*
X128496800Y-65623300D01*
G75*
G02*
X128646800Y-65473300I150000J0D01*
G01*
X130096800Y-65473300D01*
G75*
G02*
X130246800Y-65623300I0J-150000D01*
G01*
X130246800Y-65923300D01*
G75*
G02*
X130096800Y-66073300I-150000J0D01*
G01*
X128646800Y-66073300D01*
G75*
G02*
X128496800Y-65923300I0J150000D01*
G01*
G37*
G04 #@! TD.AperFunction*
G04 #@! TA.AperFunction,SMDPad,CuDef*
G36*
G01*
X123346800Y-65923300D02*
X123346800Y-65623300D01*
G75*
G02*
X123496800Y-65473300I150000J0D01*
G01*
X124946800Y-65473300D01*
G75*
G02*
X125096800Y-65623300I0J-150000D01*
G01*
X125096800Y-65923300D01*
G75*
G02*
X124946800Y-66073300I-150000J0D01*
G01*
X123496800Y-66073300D01*
G75*
G02*
X123346800Y-65923300I0J150000D01*
G01*
G37*
G04 #@! TD.AperFunction*
G04 #@! TA.AperFunction,SMDPad,CuDef*
G36*
G01*
X123346800Y-64653300D02*
X123346800Y-64353300D01*
G75*
G02*
X123496800Y-64203300I150000J0D01*
G01*
X124946800Y-64203300D01*
G75*
G02*
X125096800Y-64353300I0J-150000D01*
G01*
X125096800Y-64653300D01*
G75*
G02*
X124946800Y-64803300I-150000J0D01*
G01*
X123496800Y-64803300D01*
G75*
G02*
X123346800Y-64653300I0J150000D01*
G01*
G37*
G04 #@! TD.AperFunction*
G04 #@! TA.AperFunction,SMDPad,CuDef*
G36*
G01*
X123346800Y-63383300D02*
X123346800Y-63083300D01*
G75*
G02*
X123496800Y-62933300I150000J0D01*
G01*
X124946800Y-62933300D01*
G75*
G02*
X125096800Y-63083300I0J-150000D01*
G01*
X125096800Y-63383300D01*
G75*
G02*
X124946800Y-63533300I-150000J0D01*
G01*
X123496800Y-63533300D01*
G75*
G02*
X123346800Y-63383300I0J150000D01*
G01*
G37*
G04 #@! TD.AperFunction*
G04 #@! TA.AperFunction,SMDPad,CuDef*
G36*
G01*
X123346800Y-62113300D02*
X123346800Y-61813300D01*
G75*
G02*
X123496800Y-61663300I150000J0D01*
G01*
X124946800Y-61663300D01*
G75*
G02*
X125096800Y-61813300I0J-150000D01*
G01*
X125096800Y-62113300D01*
G75*
G02*
X124946800Y-62263300I-150000J0D01*
G01*
X123496800Y-62263300D01*
G75*
G02*
X123346800Y-62113300I0J150000D01*
G01*
G37*
G04 #@! TD.AperFunction*
D13*
X128574510Y-56541510D03*
X127431800Y-63284100D03*
X142519400Y-60109100D03*
X140182600Y-56324500D03*
X129844800Y-53225700D03*
X140030200Y-52870100D03*
X129421253Y-67842290D03*
X120763751Y-66919437D03*
X130708400Y-69225000D03*
X131800600Y-59169300D03*
X139293600Y-53987700D03*
X131318000Y-53581300D03*
X135636000Y-61328300D03*
X142798800Y-62369700D03*
X136982200Y-61429900D03*
X139065000Y-63106300D03*
X132525610Y-63766700D03*
X136372600Y-68059300D03*
X129895600Y-54597300D03*
X130962400Y-63538100D03*
X123012200Y-54292500D03*
X140284200Y-66713100D03*
X131699000Y-66840100D03*
X121869200Y-67779900D03*
X138125200Y-61353700D03*
X122594210Y-66955946D03*
X142671800Y-55765700D03*
X118398400Y-57636300D03*
X123506390Y-55816500D03*
D14*
X128411690Y-56378690D02*
X128574510Y-56541510D01*
X125933200Y-57578700D02*
X125933200Y-56703700D01*
X125933200Y-56703700D02*
X126258210Y-56378690D01*
X126258210Y-56378690D02*
X128411690Y-56378690D01*
X129321000Y-63284100D02*
X129371800Y-63233300D01*
X127431800Y-63284100D02*
X129321000Y-63284100D01*
X142519400Y-58661300D02*
X140182600Y-56324500D01*
X142519400Y-60109100D02*
X142519400Y-58661300D01*
X125933200Y-58453700D02*
X125933200Y-57578700D01*
X126887390Y-59407890D02*
X125933200Y-58453700D01*
X126887390Y-62739690D02*
X126887390Y-59407890D01*
X127431800Y-63284100D02*
X126887390Y-62739690D01*
X139727990Y-52567890D02*
X140030200Y-52870100D01*
X130502610Y-52567890D02*
X139727990Y-52567890D01*
X129844800Y-53225700D02*
X130502610Y-52567890D01*
X129371800Y-67792837D02*
X129421253Y-67842290D01*
X129371800Y-65773300D02*
X129371800Y-67792837D01*
X129308063Y-67729100D02*
X129421253Y-67842290D01*
X126121200Y-67729100D02*
X129308063Y-67729100D01*
X120624600Y-65071100D02*
X120624600Y-66780286D01*
X120624600Y-66780286D02*
X120763751Y-66919437D01*
X120763751Y-66919437D02*
X120763751Y-68046051D01*
X126799901Y-69225000D02*
X130708400Y-69225000D01*
X126795780Y-69229121D02*
X126799901Y-69225000D01*
X121946821Y-69229121D02*
X126795780Y-69229121D01*
X120763751Y-68046051D02*
X121946821Y-69229121D01*
X131800600Y-64219500D02*
X131800600Y-59169300D01*
X130246800Y-65773300D02*
X131800600Y-64219500D01*
X129371800Y-65773300D02*
X130246800Y-65773300D01*
X138049000Y-53405400D02*
X138076300Y-53405400D01*
X138658600Y-53987700D02*
X139293600Y-53987700D01*
X138076300Y-53405400D02*
X138658600Y-53987700D01*
X137669900Y-53784500D02*
X138049000Y-53405400D01*
X131318000Y-53581300D02*
X137669900Y-53784500D01*
X132181600Y-59550300D02*
X131800600Y-59169300D01*
X134904400Y-59550300D02*
X132181600Y-59550300D01*
X134904400Y-60596700D02*
X135636000Y-61328300D01*
X134904400Y-59550300D02*
X134904400Y-60596700D01*
X130708400Y-69225000D02*
X139550300Y-69225000D01*
X139550300Y-69225000D02*
X141046200Y-67729100D01*
X144602200Y-64528700D02*
X144602200Y-64198500D01*
X141071600Y-67729100D02*
X144602200Y-64198500D01*
X141046200Y-67729100D02*
X141071600Y-67729100D01*
X142798800Y-62395100D02*
X142798800Y-62369700D01*
X144602200Y-64198500D02*
X142798800Y-62395100D01*
X138658600Y-64528700D02*
X138430000Y-64757300D01*
X136982200Y-61429900D02*
X136982200Y-63309500D01*
X136982200Y-63309500D02*
X138430000Y-64757300D01*
X139065000Y-64122300D02*
X138430000Y-64757300D01*
X139065000Y-63106300D02*
X139065000Y-64122300D01*
X133247400Y-63766700D02*
X132525610Y-63766700D01*
X134289800Y-64809100D02*
X133247400Y-63766700D01*
X134339600Y-68059300D02*
X134289800Y-68109100D01*
X136372600Y-68059300D02*
X134339600Y-68059300D01*
X136374600Y-68057300D02*
X136372600Y-68059300D01*
X138430000Y-68057300D02*
X136374600Y-68057300D01*
D15*
X113792000Y-59499500D02*
X114300000Y-58991500D01*
X103632000Y-59499500D02*
X113792000Y-59499500D01*
X113792000Y-61023500D02*
X114300000Y-61531500D01*
X103632000Y-61023500D02*
X113792000Y-61023500D01*
D14*
X124221800Y-61963300D02*
X124917200Y-61963300D01*
X125737400Y-61143100D02*
X125737400Y-60058300D01*
X124917200Y-61963300D02*
X125737400Y-61143100D01*
X127787400Y-60058300D02*
X127787400Y-61404500D01*
X128346200Y-61963300D02*
X129371800Y-61963300D01*
X127787400Y-61404500D02*
X128346200Y-61963300D01*
X127226800Y-54597300D02*
X129895600Y-54597300D01*
X125933200Y-53303700D02*
X127226800Y-54597300D01*
X125933200Y-52428700D02*
X125933200Y-53303700D01*
X129997200Y-64503300D02*
X129371800Y-64503300D01*
X130962400Y-63538100D02*
X129997200Y-64503300D01*
X124221800Y-67728500D02*
X124221200Y-67729100D01*
X124221800Y-65773300D02*
X124221800Y-67728500D01*
X123393200Y-53911500D02*
X123012200Y-54292500D01*
X123393200Y-52428700D02*
X123393200Y-53911500D01*
X140157200Y-66840100D02*
X140284200Y-66713100D01*
X131699000Y-66840100D02*
X140157200Y-66840100D01*
X124170400Y-67779900D02*
X124221200Y-67729100D01*
X121869200Y-67779900D02*
X124170400Y-67779900D01*
X121869200Y-67779900D02*
X124633810Y-67779900D01*
X129764111Y-68774989D02*
X131699000Y-66840100D01*
X124633810Y-67779900D02*
X125633020Y-68779110D01*
X125633020Y-68779110D02*
X126609380Y-68779110D01*
X126609380Y-68779110D02*
X126613501Y-68774989D01*
X126613501Y-68774989D02*
X129764111Y-68774989D01*
X138125200Y-60871100D02*
X136804400Y-59550300D01*
X138125200Y-61353700D02*
X138125200Y-60871100D01*
X140425001Y-66853901D02*
X140284200Y-66713100D01*
X144602200Y-66738500D02*
X144486799Y-66853901D01*
X138125200Y-61353700D02*
X138811000Y-61353700D01*
X138811000Y-61353700D02*
X140208000Y-62750700D01*
X140208000Y-66636900D02*
X140284200Y-66713100D01*
X140208000Y-62750700D02*
X140208000Y-66636900D01*
X121155250Y-56578500D02*
X103378000Y-56578500D01*
X121649610Y-57072860D02*
X121155250Y-56578500D01*
X121649610Y-58661290D02*
X121649610Y-57072860D01*
X120624600Y-59686300D02*
X121649610Y-58661290D01*
X124221800Y-63233300D02*
X123469400Y-63233300D01*
X120624600Y-60388500D02*
X120624600Y-59686300D01*
X123469400Y-63233300D02*
X120624600Y-60388500D01*
X120585688Y-63060012D02*
X120624600Y-63021100D01*
X104017512Y-63060012D02*
X120585688Y-63060012D01*
X103568500Y-62611000D02*
X104017512Y-63060012D01*
X122806800Y-64503300D02*
X124221800Y-64503300D01*
X120624600Y-63021100D02*
X121324600Y-63021100D01*
X121324600Y-63021100D02*
X122806800Y-64503300D01*
X103441500Y-64071500D02*
X103708200Y-64071500D01*
X103708200Y-64071500D02*
X104038400Y-64401700D01*
X103441500Y-64071500D02*
X121213190Y-64071500D01*
X121213190Y-64071500D02*
X122594210Y-65452520D01*
X122594210Y-65452520D02*
X122594210Y-66955946D01*
X132294798Y-55322302D02*
X126681802Y-55322302D01*
X126681802Y-55322302D02*
X124663200Y-53303700D01*
X132486400Y-55130700D02*
X132294798Y-55322302D01*
X124663200Y-53303700D02*
X124663200Y-52428700D01*
X134486100Y-55230400D02*
X134386400Y-55130700D01*
X138049000Y-55230400D02*
X134486100Y-55230400D01*
X138129913Y-55149487D02*
X142055587Y-55149487D01*
X138049000Y-55230400D02*
X138129913Y-55149487D01*
X142055587Y-55149487D02*
X142671800Y-55765700D01*
X103632000Y-57975500D02*
X104190800Y-57975500D01*
X104190800Y-57975500D02*
X104530000Y-57636300D01*
X118398400Y-57636300D02*
X120624600Y-57636300D01*
X104530000Y-57636300D02*
X118398400Y-57636300D01*
X130251200Y-55816500D02*
X123506390Y-55816500D01*
X124663200Y-56973310D02*
X123506390Y-55816500D01*
X144602200Y-56578500D02*
X141509604Y-56578500D01*
X141509604Y-56578500D02*
X140530602Y-55599498D01*
X138855596Y-56578500D02*
X131013200Y-56578500D01*
X140530602Y-55599498D02*
X139834598Y-55599498D01*
X124663200Y-57578700D02*
X124663200Y-56973310D01*
X139834598Y-55599498D02*
X138855596Y-56578500D01*
X131013200Y-56578500D02*
X130251200Y-55816500D01*
M02*
