M48
; DRILL file {KiCad (5.1.7)-1} date 02/01/21 16:58:10
; FORMAT={-:-/ absolute / inch / decimal}
; #@! TF.CreationDate,2021-02-01T16:58:10-08:00
; #@! TF.GenerationSoftware,Kicad,Pcbnew,(5.1.7)-1
; #@! TF.FileFunction,Plated,1,2,PTH
FMAT,2
INCH
T1C0.0157
T2C0.0394
%
G90
G05
T1
X4.6614Y-2.2691
X4.7545Y-2.6346
X4.798Y-2.6685
X4.8265Y-2.6361
X4.843Y-2.1375
X4.8625Y-2.1975
X5.017Y-2.4915
X5.062Y-2.226
X5.0953Y-2.671
X5.112Y-2.0955
X5.114Y-2.1495
X5.146Y-2.7254
X5.156Y-2.5015
X5.17Y-2.1095
X5.185Y-2.6315
X5.189Y-2.3295
X5.2175Y-2.5105
X5.34Y-2.4145
X5.369Y-2.6795
X5.393Y-2.4185
X5.438Y-2.4155
X5.475Y-2.4845
X5.484Y-2.1255
X5.513Y-2.0815
X5.519Y-2.2175
X5.523Y-2.6265
X5.611Y-2.3665
X5.617Y-2.1955
X5.622Y-2.4555
T2
X4.5Y-2.3225
X4.5Y-2.4225
X5.693Y-2.1275
X5.693Y-2.2275
X5.693Y-2.3275
X5.693Y-2.4275
X5.693Y-2.5275
X5.693Y-2.6275
T0
M30
