G04 #@! TF.GenerationSoftware,KiCad,Pcbnew,(5.1.7)-1*
G04 #@! TF.CreationDate,2021-02-01T17:00:47-08:00*
G04 #@! TF.ProjectId,Conductivity_Sensor_v2,436f6e64-7563-4746-9976-6974795f5365,rev?*
G04 #@! TF.SameCoordinates,Original*
G04 #@! TF.FileFunction,Legend,Bot*
G04 #@! TF.FilePolarity,Positive*
%FSLAX46Y46*%
G04 Gerber Fmt 4.6, Leading zero omitted, Abs format (unit mm)*
G04 Created by KiCad (PCBNEW (5.1.7)-1) date 2021-02-01 17:00:47*
%MOMM*%
%LPD*%
G01*
G04 APERTURE LIST*
%ADD10C,0.152400*%
%ADD11C,0.120000*%
%ADD12C,0.150000*%
G04 APERTURE END LIST*
D10*
X106966657Y-53791757D02*
X107015038Y-53743376D01*
X107063419Y-53598233D01*
X107063419Y-53501471D01*
X107015038Y-53356328D01*
X106918276Y-53259566D01*
X106821514Y-53211185D01*
X106627990Y-53162804D01*
X106482847Y-53162804D01*
X106289323Y-53211185D01*
X106192561Y-53259566D01*
X106095800Y-53356328D01*
X106047419Y-53501471D01*
X106047419Y-53598233D01*
X106095800Y-53743376D01*
X106144180Y-53791757D01*
X107063419Y-54372328D02*
X107015038Y-54275566D01*
X106966657Y-54227185D01*
X106869895Y-54178804D01*
X106579609Y-54178804D01*
X106482847Y-54227185D01*
X106434466Y-54275566D01*
X106386085Y-54372328D01*
X106386085Y-54517471D01*
X106434466Y-54614233D01*
X106482847Y-54662614D01*
X106579609Y-54710995D01*
X106869895Y-54710995D01*
X106966657Y-54662614D01*
X107015038Y-54614233D01*
X107063419Y-54517471D01*
X107063419Y-54372328D01*
X106386085Y-55146423D02*
X107063419Y-55146423D01*
X106482847Y-55146423D02*
X106434466Y-55194804D01*
X106386085Y-55291566D01*
X106386085Y-55436709D01*
X106434466Y-55533471D01*
X106531228Y-55581852D01*
X107063419Y-55581852D01*
X107063419Y-56501090D02*
X106047419Y-56501090D01*
X107015038Y-56501090D02*
X107063419Y-56404328D01*
X107063419Y-56210804D01*
X107015038Y-56114042D01*
X106966657Y-56065661D01*
X106869895Y-56017280D01*
X106579609Y-56017280D01*
X106482847Y-56065661D01*
X106434466Y-56114042D01*
X106386085Y-56210804D01*
X106386085Y-56404328D01*
X106434466Y-56501090D01*
X106386085Y-57420328D02*
X107063419Y-57420328D01*
X106386085Y-56984900D02*
X106918276Y-56984900D01*
X107015038Y-57033280D01*
X107063419Y-57130042D01*
X107063419Y-57275185D01*
X107015038Y-57371947D01*
X106966657Y-57420328D01*
X107015038Y-58339566D02*
X107063419Y-58242804D01*
X107063419Y-58049280D01*
X107015038Y-57952519D01*
X106966657Y-57904138D01*
X106869895Y-57855757D01*
X106579609Y-57855757D01*
X106482847Y-57904138D01*
X106434466Y-57952519D01*
X106386085Y-58049280D01*
X106386085Y-58242804D01*
X106434466Y-58339566D01*
X106386085Y-58629852D02*
X106386085Y-59016900D01*
X106047419Y-58774995D02*
X106918276Y-58774995D01*
X107015038Y-58823376D01*
X107063419Y-58920138D01*
X107063419Y-59016900D01*
X107063419Y-59355566D02*
X106386085Y-59355566D01*
X106047419Y-59355566D02*
X106095800Y-59307185D01*
X106144180Y-59355566D01*
X106095800Y-59403947D01*
X106047419Y-59355566D01*
X106144180Y-59355566D01*
X106386085Y-59742614D02*
X107063419Y-59984519D01*
X106386085Y-60226423D01*
X107063419Y-60613471D02*
X106386085Y-60613471D01*
X106047419Y-60613471D02*
X106095800Y-60565090D01*
X106144180Y-60613471D01*
X106095800Y-60661852D01*
X106047419Y-60613471D01*
X106144180Y-60613471D01*
X106386085Y-60952138D02*
X106386085Y-61339185D01*
X106047419Y-61097280D02*
X106918276Y-61097280D01*
X107015038Y-61145661D01*
X107063419Y-61242423D01*
X107063419Y-61339185D01*
X106386085Y-61581090D02*
X107063419Y-61822995D01*
X106386085Y-62064900D02*
X107063419Y-61822995D01*
X107305323Y-61726233D01*
X107353704Y-61677852D01*
X107402085Y-61581090D01*
X107015038Y-63177661D02*
X107063419Y-63322804D01*
X107063419Y-63564709D01*
X107015038Y-63661471D01*
X106966657Y-63709852D01*
X106869895Y-63758233D01*
X106773133Y-63758233D01*
X106676371Y-63709852D01*
X106627990Y-63661471D01*
X106579609Y-63564709D01*
X106531228Y-63371185D01*
X106482847Y-63274423D01*
X106434466Y-63226042D01*
X106337704Y-63177661D01*
X106240942Y-63177661D01*
X106144180Y-63226042D01*
X106095800Y-63274423D01*
X106047419Y-63371185D01*
X106047419Y-63613090D01*
X106095800Y-63758233D01*
X107015038Y-64580709D02*
X107063419Y-64483947D01*
X107063419Y-64290423D01*
X107015038Y-64193661D01*
X106918276Y-64145280D01*
X106531228Y-64145280D01*
X106434466Y-64193661D01*
X106386085Y-64290423D01*
X106386085Y-64483947D01*
X106434466Y-64580709D01*
X106531228Y-64629090D01*
X106627990Y-64629090D01*
X106724752Y-64145280D01*
X106386085Y-65064519D02*
X107063419Y-65064519D01*
X106482847Y-65064519D02*
X106434466Y-65112900D01*
X106386085Y-65209661D01*
X106386085Y-65354804D01*
X106434466Y-65451566D01*
X106531228Y-65499947D01*
X107063419Y-65499947D01*
X107015038Y-65935376D02*
X107063419Y-66032138D01*
X107063419Y-66225661D01*
X107015038Y-66322423D01*
X106918276Y-66370804D01*
X106869895Y-66370804D01*
X106773133Y-66322423D01*
X106724752Y-66225661D01*
X106724752Y-66080519D01*
X106676371Y-65983757D01*
X106579609Y-65935376D01*
X106531228Y-65935376D01*
X106434466Y-65983757D01*
X106386085Y-66080519D01*
X106386085Y-66225661D01*
X106434466Y-66322423D01*
X107063419Y-66951376D02*
X107015038Y-66854614D01*
X106966657Y-66806233D01*
X106869895Y-66757852D01*
X106579609Y-66757852D01*
X106482847Y-66806233D01*
X106434466Y-66854614D01*
X106386085Y-66951376D01*
X106386085Y-67096519D01*
X106434466Y-67193280D01*
X106482847Y-67241661D01*
X106579609Y-67290042D01*
X106869895Y-67290042D01*
X106966657Y-67241661D01*
X107015038Y-67193280D01*
X107063419Y-67096519D01*
X107063419Y-66951376D01*
X107063419Y-67725471D02*
X106386085Y-67725471D01*
X106579609Y-67725471D02*
X106482847Y-67773852D01*
X106434466Y-67822233D01*
X106386085Y-67918995D01*
X106386085Y-68015757D01*
X108739819Y-54251376D02*
X107723819Y-54251376D01*
X108739819Y-54831947D01*
X107723819Y-54831947D01*
X107723819Y-55509280D02*
X107723819Y-55702804D01*
X107772200Y-55799566D01*
X107868961Y-55896328D01*
X108062485Y-55944709D01*
X108401152Y-55944709D01*
X108594676Y-55896328D01*
X108691438Y-55799566D01*
X108739819Y-55702804D01*
X108739819Y-55509280D01*
X108691438Y-55412519D01*
X108594676Y-55315757D01*
X108401152Y-55267376D01*
X108062485Y-55267376D01*
X107868961Y-55315757D01*
X107772200Y-55412519D01*
X107723819Y-55509280D01*
X108449533Y-56331757D02*
X108449533Y-56815566D01*
X108739819Y-56234995D02*
X107723819Y-56573661D01*
X108739819Y-56912328D01*
X108449533Y-57202614D02*
X108449533Y-57686423D01*
X108739819Y-57105852D02*
X107723819Y-57444519D01*
X108739819Y-57783185D01*
X108739819Y-58895947D02*
X107723819Y-58895947D01*
X107723819Y-59282995D01*
X107772200Y-59379757D01*
X107820580Y-59428138D01*
X107917342Y-59476519D01*
X108062485Y-59476519D01*
X108159247Y-59428138D01*
X108207628Y-59379757D01*
X108256009Y-59282995D01*
X108256009Y-58895947D01*
X108739819Y-59911947D02*
X107723819Y-59911947D01*
X108449533Y-60250614D01*
X107723819Y-60589280D01*
X108739819Y-60589280D01*
X108207628Y-61073090D02*
X108207628Y-61411757D01*
X108739819Y-61556900D02*
X108739819Y-61073090D01*
X107723819Y-61073090D01*
X107723819Y-61556900D01*
X108739819Y-62476138D02*
X108739819Y-61992328D01*
X107723819Y-61992328D01*
X108207628Y-63588900D02*
X108207628Y-63927566D01*
X108739819Y-64072709D02*
X108739819Y-63588900D01*
X107723819Y-63588900D01*
X107723819Y-64072709D01*
X108739819Y-64508138D02*
X107723819Y-64508138D01*
X107723819Y-64750042D01*
X107772200Y-64895185D01*
X107868961Y-64991947D01*
X107965723Y-65040328D01*
X108159247Y-65088709D01*
X108304390Y-65088709D01*
X108497914Y-65040328D01*
X108594676Y-64991947D01*
X108691438Y-64895185D01*
X108739819Y-64750042D01*
X108739819Y-64508138D01*
X108739819Y-65524138D02*
X107723819Y-65524138D01*
X107723819Y-65766042D01*
X107772200Y-65911185D01*
X107868961Y-66007947D01*
X107965723Y-66056328D01*
X108159247Y-66104709D01*
X108304390Y-66104709D01*
X108497914Y-66056328D01*
X108594676Y-66007947D01*
X108691438Y-65911185D01*
X108739819Y-65766042D01*
X108739819Y-65524138D01*
X109884028Y-57613852D02*
X109884028Y-57275185D01*
X110416219Y-57275185D02*
X109400219Y-57275185D01*
X109400219Y-57758995D01*
X110367838Y-58533090D02*
X110416219Y-58436328D01*
X110416219Y-58242804D01*
X110367838Y-58146042D01*
X110271076Y-58097661D01*
X109884028Y-58097661D01*
X109787266Y-58146042D01*
X109738885Y-58242804D01*
X109738885Y-58436328D01*
X109787266Y-58533090D01*
X109884028Y-58581471D01*
X109980790Y-58581471D01*
X110077552Y-58097661D01*
X110416219Y-59016900D02*
X109400219Y-59016900D01*
X109787266Y-59016900D02*
X109738885Y-59113661D01*
X109738885Y-59307185D01*
X109787266Y-59403947D01*
X109835647Y-59452328D01*
X109932409Y-59500709D01*
X110222695Y-59500709D01*
X110319457Y-59452328D01*
X110367838Y-59403947D01*
X110416219Y-59307185D01*
X110416219Y-59113661D01*
X110367838Y-59016900D01*
X110319457Y-59936138D02*
X110367838Y-59984519D01*
X110416219Y-59936138D01*
X110367838Y-59887757D01*
X110319457Y-59936138D01*
X110416219Y-59936138D01*
X109496980Y-60371566D02*
X109448600Y-60419947D01*
X109400219Y-60516709D01*
X109400219Y-60758614D01*
X109448600Y-60855376D01*
X109496980Y-60903757D01*
X109593742Y-60952138D01*
X109690504Y-60952138D01*
X109835647Y-60903757D01*
X110416219Y-60323185D01*
X110416219Y-60952138D01*
X109400219Y-61581090D02*
X109400219Y-61677852D01*
X109448600Y-61774614D01*
X109496980Y-61822995D01*
X109593742Y-61871376D01*
X109787266Y-61919757D01*
X110029171Y-61919757D01*
X110222695Y-61871376D01*
X110319457Y-61822995D01*
X110367838Y-61774614D01*
X110416219Y-61677852D01*
X110416219Y-61581090D01*
X110367838Y-61484328D01*
X110319457Y-61435947D01*
X110222695Y-61387566D01*
X110029171Y-61339185D01*
X109787266Y-61339185D01*
X109593742Y-61387566D01*
X109496980Y-61435947D01*
X109448600Y-61484328D01*
X109400219Y-61581090D01*
X109496980Y-62306804D02*
X109448600Y-62355185D01*
X109400219Y-62451947D01*
X109400219Y-62693852D01*
X109448600Y-62790614D01*
X109496980Y-62838995D01*
X109593742Y-62887376D01*
X109690504Y-62887376D01*
X109835647Y-62838995D01*
X110416219Y-62258423D01*
X110416219Y-62887376D01*
X110416219Y-63854995D02*
X110416219Y-63274423D01*
X110416219Y-63564709D02*
X109400219Y-63564709D01*
X109545361Y-63467947D01*
X109642123Y-63371185D01*
X109690504Y-63274423D01*
D11*
X146042200Y-68068500D02*
X146042200Y-52708500D01*
X146042200Y-52708500D02*
X148702200Y-52708500D01*
X148702200Y-52708500D02*
X148702200Y-68068500D01*
X148702200Y-68068500D02*
X146042200Y-68068500D01*
X148702200Y-67118500D02*
X154702200Y-67118500D01*
X154702200Y-67118500D02*
X154702200Y-66358500D01*
X154702200Y-66358500D02*
X148702200Y-66358500D01*
X148702200Y-67058500D02*
X154702200Y-67058500D01*
X148702200Y-66938500D02*
X154702200Y-66938500D01*
X148702200Y-66818500D02*
X154702200Y-66818500D01*
X148702200Y-66698500D02*
X154702200Y-66698500D01*
X148702200Y-66578500D02*
X154702200Y-66578500D01*
X148702200Y-66458500D02*
X154702200Y-66458500D01*
X145712200Y-67118500D02*
X146042200Y-67118500D01*
X145712200Y-66358500D02*
X146042200Y-66358500D01*
X146042200Y-65468500D02*
X148702200Y-65468500D01*
X148702200Y-64578500D02*
X154702200Y-64578500D01*
X154702200Y-64578500D02*
X154702200Y-63818500D01*
X154702200Y-63818500D02*
X148702200Y-63818500D01*
X145645129Y-64578500D02*
X146042200Y-64578500D01*
X145645129Y-63818500D02*
X146042200Y-63818500D01*
X146042200Y-62928500D02*
X148702200Y-62928500D01*
X148702200Y-62038500D02*
X154702200Y-62038500D01*
X154702200Y-62038500D02*
X154702200Y-61278500D01*
X154702200Y-61278500D02*
X148702200Y-61278500D01*
X145645129Y-62038500D02*
X146042200Y-62038500D01*
X145645129Y-61278500D02*
X146042200Y-61278500D01*
X146042200Y-60388500D02*
X148702200Y-60388500D01*
X148702200Y-59498500D02*
X154702200Y-59498500D01*
X154702200Y-59498500D02*
X154702200Y-58738500D01*
X154702200Y-58738500D02*
X148702200Y-58738500D01*
X145645129Y-59498500D02*
X146042200Y-59498500D01*
X145645129Y-58738500D02*
X146042200Y-58738500D01*
X146042200Y-57848500D02*
X148702200Y-57848500D01*
X148702200Y-56958500D02*
X154702200Y-56958500D01*
X154702200Y-56958500D02*
X154702200Y-56198500D01*
X154702200Y-56198500D02*
X148702200Y-56198500D01*
X145645129Y-56958500D02*
X146042200Y-56958500D01*
X145645129Y-56198500D02*
X146042200Y-56198500D01*
X146042200Y-55308500D02*
X148702200Y-55308500D01*
X148702200Y-54418500D02*
X154702200Y-54418500D01*
X154702200Y-54418500D02*
X154702200Y-53658500D01*
X154702200Y-53658500D02*
X148702200Y-53658500D01*
X145645129Y-54418500D02*
X146042200Y-54418500D01*
X145645129Y-53658500D02*
X146042200Y-53658500D01*
X143332200Y-66738500D02*
X143332200Y-68008500D01*
X143332200Y-68008500D02*
X144602200Y-68008500D01*
X135764600Y-65451048D02*
X135764600Y-65973552D01*
X137234600Y-65451048D02*
X137234600Y-65973552D01*
X130964000Y-61102648D02*
X130964000Y-61625152D01*
X132434000Y-61102648D02*
X132434000Y-61625152D01*
X125610252Y-52338300D02*
X125087748Y-52338300D01*
X125610252Y-53808300D02*
X125087748Y-53808300D01*
X141552600Y-62605552D02*
X141552600Y-62083048D01*
X140082600Y-62605552D02*
X140082600Y-62083048D01*
X141603400Y-58820952D02*
X141603400Y-58298448D01*
X140133400Y-58820952D02*
X140133400Y-58298448D01*
X135669348Y-63587300D02*
X136191852Y-63587300D01*
X135669348Y-62117300D02*
X136191852Y-62117300D01*
X124442548Y-63561900D02*
X124965052Y-63561900D01*
X124442548Y-62091900D02*
X124965052Y-62091900D01*
X129567000Y-65562848D02*
X129567000Y-66085352D01*
X131037000Y-65562848D02*
X131037000Y-66085352D01*
X127789000Y-53386048D02*
X127789000Y-53908552D01*
X129259000Y-53386048D02*
X129259000Y-53908552D01*
X131902600Y-67837900D02*
X131902600Y-66037900D01*
X135122600Y-66037900D02*
X135122600Y-68487900D01*
X126863852Y-69277300D02*
X126341348Y-69277300D01*
X126863852Y-67857300D02*
X126341348Y-67857300D01*
X134593400Y-59517648D02*
X134593400Y-60040152D01*
X133173400Y-59517648D02*
X133173400Y-60040152D01*
X125719000Y-64163300D02*
X128169000Y-64163300D01*
X127519000Y-67383300D02*
X125719000Y-67383300D01*
X139405000Y-57735900D02*
X139405000Y-60185900D01*
X136185000Y-59535900D02*
X136185000Y-57735900D01*
D12*
X149320533Y-68460880D02*
X149320533Y-69175166D01*
X149368152Y-69318023D01*
X149463390Y-69413261D01*
X149606247Y-69460880D01*
X149701485Y-69460880D01*
X148320533Y-69460880D02*
X148891961Y-69460880D01*
X148606247Y-69460880D02*
X148606247Y-68460880D01*
X148701485Y-68603738D01*
X148796723Y-68698976D01*
X148891961Y-68746595D01*
X138812542Y-65069442D02*
X138860161Y-65021823D01*
X138907780Y-64878966D01*
X138907780Y-64783728D01*
X138860161Y-64640871D01*
X138764923Y-64545633D01*
X138669685Y-64498014D01*
X138479209Y-64450395D01*
X138336352Y-64450395D01*
X138145876Y-64498014D01*
X138050638Y-64545633D01*
X137955400Y-64640871D01*
X137907780Y-64783728D01*
X137907780Y-64878966D01*
X137955400Y-65021823D01*
X138003019Y-65069442D01*
X138907780Y-66021823D02*
X138907780Y-65450395D01*
X138907780Y-65736109D02*
X137907780Y-65736109D01*
X138050638Y-65640871D01*
X138145876Y-65545633D01*
X138193495Y-65450395D01*
X138907780Y-66974204D02*
X138907780Y-66402776D01*
X138907780Y-66688490D02*
X137907780Y-66688490D01*
X138050638Y-66593252D01*
X138145876Y-66498014D01*
X138193495Y-66402776D01*
X131167142Y-57561242D02*
X131214761Y-57513623D01*
X131262380Y-57370766D01*
X131262380Y-57275528D01*
X131214761Y-57132671D01*
X131119523Y-57037433D01*
X131024285Y-56989814D01*
X130833809Y-56942195D01*
X130690952Y-56942195D01*
X130500476Y-56989814D01*
X130405238Y-57037433D01*
X130310000Y-57132671D01*
X130262380Y-57275528D01*
X130262380Y-57370766D01*
X130310000Y-57513623D01*
X130357619Y-57561242D01*
X131262380Y-58513623D02*
X131262380Y-57942195D01*
X131262380Y-58227909D02*
X130262380Y-58227909D01*
X130405238Y-58132671D01*
X130500476Y-58037433D01*
X130548095Y-57942195D01*
X130262380Y-59132671D02*
X130262380Y-59227909D01*
X130310000Y-59323147D01*
X130357619Y-59370766D01*
X130452857Y-59418385D01*
X130643333Y-59466004D01*
X130881428Y-59466004D01*
X131071904Y-59418385D01*
X131167142Y-59370766D01*
X131214761Y-59323147D01*
X131262380Y-59227909D01*
X131262380Y-59132671D01*
X131214761Y-59037433D01*
X131167142Y-58989814D01*
X131071904Y-58942195D01*
X130881428Y-58894576D01*
X130643333Y-58894576D01*
X130452857Y-58942195D01*
X130357619Y-58989814D01*
X130310000Y-59037433D01*
X130262380Y-59132671D01*
X125363266Y-55132242D02*
X125410885Y-55179861D01*
X125553742Y-55227480D01*
X125648980Y-55227480D01*
X125791838Y-55179861D01*
X125887076Y-55084623D01*
X125934695Y-54989385D01*
X125982314Y-54798909D01*
X125982314Y-54656052D01*
X125934695Y-54465576D01*
X125887076Y-54370338D01*
X125791838Y-54275100D01*
X125648980Y-54227480D01*
X125553742Y-54227480D01*
X125410885Y-54275100D01*
X125363266Y-54322719D01*
X124791838Y-54656052D02*
X124887076Y-54608433D01*
X124934695Y-54560814D01*
X124982314Y-54465576D01*
X124982314Y-54417957D01*
X124934695Y-54322719D01*
X124887076Y-54275100D01*
X124791838Y-54227480D01*
X124601361Y-54227480D01*
X124506123Y-54275100D01*
X124458504Y-54322719D01*
X124410885Y-54417957D01*
X124410885Y-54465576D01*
X124458504Y-54560814D01*
X124506123Y-54608433D01*
X124601361Y-54656052D01*
X124791838Y-54656052D01*
X124887076Y-54703671D01*
X124934695Y-54751290D01*
X124982314Y-54846528D01*
X124982314Y-55037004D01*
X124934695Y-55132242D01*
X124887076Y-55179861D01*
X124791838Y-55227480D01*
X124601361Y-55227480D01*
X124506123Y-55179861D01*
X124458504Y-55132242D01*
X124410885Y-55037004D01*
X124410885Y-54846528D01*
X124458504Y-54751290D01*
X124506123Y-54703671D01*
X124601361Y-54656052D01*
X141377942Y-65022433D02*
X141425561Y-64974814D01*
X141473180Y-64831957D01*
X141473180Y-64736719D01*
X141425561Y-64593861D01*
X141330323Y-64498623D01*
X141235085Y-64451004D01*
X141044609Y-64403385D01*
X140901752Y-64403385D01*
X140711276Y-64451004D01*
X140616038Y-64498623D01*
X140520800Y-64593861D01*
X140473180Y-64736719D01*
X140473180Y-64831957D01*
X140520800Y-64974814D01*
X140568419Y-65022433D01*
X140473180Y-65879576D02*
X140473180Y-65689100D01*
X140520800Y-65593861D01*
X140568419Y-65546242D01*
X140711276Y-65451004D01*
X140901752Y-65403385D01*
X141282704Y-65403385D01*
X141377942Y-65451004D01*
X141425561Y-65498623D01*
X141473180Y-65593861D01*
X141473180Y-65784338D01*
X141425561Y-65879576D01*
X141377942Y-65927195D01*
X141282704Y-65974814D01*
X141044609Y-65974814D01*
X140949371Y-65927195D01*
X140901752Y-65879576D01*
X140854133Y-65784338D01*
X140854133Y-65593861D01*
X140901752Y-65498623D01*
X140949371Y-65451004D01*
X141044609Y-65403385D01*
X141606542Y-55548233D02*
X141654161Y-55500614D01*
X141701780Y-55357757D01*
X141701780Y-55262519D01*
X141654161Y-55119661D01*
X141558923Y-55024423D01*
X141463685Y-54976804D01*
X141273209Y-54929185D01*
X141130352Y-54929185D01*
X140939876Y-54976804D01*
X140844638Y-55024423D01*
X140749400Y-55119661D01*
X140701780Y-55262519D01*
X140701780Y-55357757D01*
X140749400Y-55500614D01*
X140797019Y-55548233D01*
X140701780Y-56452995D02*
X140701780Y-55976804D01*
X141177971Y-55929185D01*
X141130352Y-55976804D01*
X141082733Y-56072042D01*
X141082733Y-56310138D01*
X141130352Y-56405376D01*
X141177971Y-56452995D01*
X141273209Y-56500614D01*
X141511304Y-56500614D01*
X141606542Y-56452995D01*
X141654161Y-56405376D01*
X141701780Y-56310138D01*
X141701780Y-56072042D01*
X141654161Y-55976804D01*
X141606542Y-55929185D01*
X138952266Y-63387242D02*
X138999885Y-63434861D01*
X139142742Y-63482480D01*
X139237980Y-63482480D01*
X139380838Y-63434861D01*
X139476076Y-63339623D01*
X139523695Y-63244385D01*
X139571314Y-63053909D01*
X139571314Y-62911052D01*
X139523695Y-62720576D01*
X139476076Y-62625338D01*
X139380838Y-62530100D01*
X139237980Y-62482480D01*
X139142742Y-62482480D01*
X138999885Y-62530100D01*
X138952266Y-62577719D01*
X138095123Y-62815814D02*
X138095123Y-63482480D01*
X138333219Y-62434861D02*
X138571314Y-63149147D01*
X137952266Y-63149147D01*
X122162866Y-63133242D02*
X122210485Y-63180861D01*
X122353342Y-63228480D01*
X122448580Y-63228480D01*
X122591438Y-63180861D01*
X122686676Y-63085623D01*
X122734295Y-62990385D01*
X122781914Y-62799909D01*
X122781914Y-62657052D01*
X122734295Y-62466576D01*
X122686676Y-62371338D01*
X122591438Y-62276100D01*
X122448580Y-62228480D01*
X122353342Y-62228480D01*
X122210485Y-62276100D01*
X122162866Y-62323719D01*
X121829533Y-62228480D02*
X121210485Y-62228480D01*
X121543819Y-62609433D01*
X121400961Y-62609433D01*
X121305723Y-62657052D01*
X121258104Y-62704671D01*
X121210485Y-62799909D01*
X121210485Y-63038004D01*
X121258104Y-63133242D01*
X121305723Y-63180861D01*
X121400961Y-63228480D01*
X121686676Y-63228480D01*
X121781914Y-63180861D01*
X121829533Y-63133242D01*
X129998742Y-62787233D02*
X130046361Y-62739614D01*
X130093980Y-62596757D01*
X130093980Y-62501519D01*
X130046361Y-62358661D01*
X129951123Y-62263423D01*
X129855885Y-62215804D01*
X129665409Y-62168185D01*
X129522552Y-62168185D01*
X129332076Y-62215804D01*
X129236838Y-62263423D01*
X129141600Y-62358661D01*
X129093980Y-62501519D01*
X129093980Y-62596757D01*
X129141600Y-62739614D01*
X129189219Y-62787233D01*
X129189219Y-63168185D02*
X129141600Y-63215804D01*
X129093980Y-63311042D01*
X129093980Y-63549138D01*
X129141600Y-63644376D01*
X129189219Y-63691995D01*
X129284457Y-63739614D01*
X129379695Y-63739614D01*
X129522552Y-63691995D01*
X130093980Y-63120566D01*
X130093980Y-63739614D01*
X130659142Y-52017633D02*
X130706761Y-51970014D01*
X130754380Y-51827157D01*
X130754380Y-51731919D01*
X130706761Y-51589061D01*
X130611523Y-51493823D01*
X130516285Y-51446204D01*
X130325809Y-51398585D01*
X130182952Y-51398585D01*
X129992476Y-51446204D01*
X129897238Y-51493823D01*
X129802000Y-51589061D01*
X129754380Y-51731919D01*
X129754380Y-51827157D01*
X129802000Y-51970014D01*
X129849619Y-52017633D01*
X130754380Y-52970014D02*
X130754380Y-52398585D01*
X130754380Y-52684300D02*
X129754380Y-52684300D01*
X129897238Y-52589061D01*
X129992476Y-52493823D01*
X130040095Y-52398585D01*
X136956704Y-68375280D02*
X136956704Y-69184804D01*
X136909085Y-69280042D01*
X136861466Y-69327661D01*
X136766228Y-69375280D01*
X136575752Y-69375280D01*
X136480514Y-69327661D01*
X136432895Y-69280042D01*
X136385276Y-69184804D01*
X136385276Y-68375280D01*
X135480514Y-68708614D02*
X135480514Y-69375280D01*
X135718609Y-68327661D02*
X135956704Y-69041947D01*
X135337657Y-69041947D01*
X123534466Y-69146680D02*
X123867800Y-68670490D01*
X124105895Y-69146680D02*
X124105895Y-68146680D01*
X123724942Y-68146680D01*
X123629704Y-68194300D01*
X123582085Y-68241919D01*
X123534466Y-68337157D01*
X123534466Y-68480014D01*
X123582085Y-68575252D01*
X123629704Y-68622871D01*
X123724942Y-68670490D01*
X124105895Y-68670490D01*
X122677323Y-68480014D02*
X122677323Y-69146680D01*
X122915419Y-68099061D02*
X123153514Y-68813347D01*
X122534466Y-68813347D01*
X134157980Y-56742033D02*
X133681790Y-56408700D01*
X134157980Y-56170604D02*
X133157980Y-56170604D01*
X133157980Y-56551557D01*
X133205600Y-56646795D01*
X133253219Y-56694414D01*
X133348457Y-56742033D01*
X133491314Y-56742033D01*
X133586552Y-56694414D01*
X133634171Y-56646795D01*
X133681790Y-56551557D01*
X133681790Y-56170604D01*
X133157980Y-57646795D02*
X133157980Y-57170604D01*
X133634171Y-57122985D01*
X133586552Y-57170604D01*
X133538933Y-57265842D01*
X133538933Y-57503938D01*
X133586552Y-57599176D01*
X133634171Y-57646795D01*
X133729409Y-57694414D01*
X133967504Y-57694414D01*
X134062742Y-57646795D01*
X134110361Y-57599176D01*
X134157980Y-57503938D01*
X134157980Y-57265842D01*
X134110361Y-57170604D01*
X134062742Y-57122985D01*
X122972580Y-64960595D02*
X123782104Y-64960595D01*
X123877342Y-65008214D01*
X123924961Y-65055833D01*
X123972580Y-65151071D01*
X123972580Y-65341547D01*
X123924961Y-65436785D01*
X123877342Y-65484404D01*
X123782104Y-65532023D01*
X122972580Y-65532023D01*
X122972580Y-65912976D02*
X122972580Y-66532023D01*
X123353533Y-66198690D01*
X123353533Y-66341547D01*
X123401152Y-66436785D01*
X123448771Y-66484404D01*
X123544009Y-66532023D01*
X123782104Y-66532023D01*
X123877342Y-66484404D01*
X123924961Y-66436785D01*
X123972580Y-66341547D01*
X123972580Y-66055833D01*
X123924961Y-65960595D01*
X123877342Y-65912976D01*
X138607704Y-55091080D02*
X138607704Y-55900604D01*
X138560085Y-55995842D01*
X138512466Y-56043461D01*
X138417228Y-56091080D01*
X138226752Y-56091080D01*
X138131514Y-56043461D01*
X138083895Y-55995842D01*
X138036276Y-55900604D01*
X138036276Y-55091080D01*
X137083895Y-55091080D02*
X137560085Y-55091080D01*
X137607704Y-55567271D01*
X137560085Y-55519652D01*
X137464847Y-55472033D01*
X137226752Y-55472033D01*
X137131514Y-55519652D01*
X137083895Y-55567271D01*
X137036276Y-55662509D01*
X137036276Y-55900604D01*
X137083895Y-55995842D01*
X137131514Y-56043461D01*
X137226752Y-56091080D01*
X137464847Y-56091080D01*
X137560085Y-56043461D01*
X137607704Y-55995842D01*
M02*
