G04 #@! TF.GenerationSoftware,KiCad,Pcbnew,(5.1.7)-1*
G04 #@! TF.CreationDate,2021-02-01T17:00:47-08:00*
G04 #@! TF.ProjectId,Conductivity_Sensor_v2,436f6e64-7563-4746-9976-6974795f5365,rev?*
G04 #@! TF.SameCoordinates,Original*
G04 #@! TF.FileFunction,Paste,Top*
G04 #@! TF.FilePolarity,Positive*
%FSLAX46Y46*%
G04 Gerber Fmt 4.6, Leading zero omitted, Abs format (unit mm)*
G04 Created by KiCad (PCBNEW (5.1.7)-1) date 2021-02-01 17:00:47*
%MOMM*%
%LPD*%
G01*
G04 APERTURE LIST*
%ADD10R,1.200000X0.900000*%
G04 APERTURE END LIST*
G36*
G01*
X138499001Y-53917900D02*
X137598999Y-53917900D01*
G75*
G02*
X137349000Y-53667901I0J249999D01*
G01*
X137349000Y-53142899D01*
G75*
G02*
X137598999Y-52892900I249999J0D01*
G01*
X138499001Y-52892900D01*
G75*
G02*
X138749000Y-53142899I0J-249999D01*
G01*
X138749000Y-53667901D01*
G75*
G02*
X138499001Y-53917900I-249999J0D01*
G01*
G37*
G36*
G01*
X138499001Y-55742900D02*
X137598999Y-55742900D01*
G75*
G02*
X137349000Y-55492901I0J249999D01*
G01*
X137349000Y-54967899D01*
G75*
G02*
X137598999Y-54717900I249999J0D01*
G01*
X138499001Y-54717900D01*
G75*
G02*
X138749000Y-54967899I0J-249999D01*
G01*
X138749000Y-55492901D01*
G75*
G02*
X138499001Y-55742900I-249999J0D01*
G01*
G37*
G36*
G01*
X136304400Y-60025300D02*
X136304400Y-59075300D01*
G75*
G02*
X136554400Y-58825300I250000J0D01*
G01*
X137054400Y-58825300D01*
G75*
G02*
X137304400Y-59075300I0J-250000D01*
G01*
X137304400Y-60025300D01*
G75*
G02*
X137054400Y-60275300I-250000J0D01*
G01*
X136554400Y-60275300D01*
G75*
G02*
X136304400Y-60025300I0J250000D01*
G01*
G37*
G36*
G01*
X134404400Y-60025300D02*
X134404400Y-59075300D01*
G75*
G02*
X134654400Y-58825300I250000J0D01*
G01*
X135154400Y-58825300D01*
G75*
G02*
X135404400Y-59075300I0J-250000D01*
G01*
X135404400Y-60025300D01*
G75*
G02*
X135154400Y-60275300I-250000J0D01*
G01*
X134654400Y-60275300D01*
G75*
G02*
X134404400Y-60025300I0J250000D01*
G01*
G37*
G36*
G01*
X124721200Y-67254100D02*
X124721200Y-68204100D01*
G75*
G02*
X124471200Y-68454100I-250000J0D01*
G01*
X123971200Y-68454100D01*
G75*
G02*
X123721200Y-68204100I0J250000D01*
G01*
X123721200Y-67254100D01*
G75*
G02*
X123971200Y-67004100I250000J0D01*
G01*
X124471200Y-67004100D01*
G75*
G02*
X124721200Y-67254100I0J-250000D01*
G01*
G37*
G36*
G01*
X126621200Y-67254100D02*
X126621200Y-68204100D01*
G75*
G02*
X126371200Y-68454100I-250000J0D01*
G01*
X125871200Y-68454100D01*
G75*
G02*
X125621200Y-68204100I0J250000D01*
G01*
X125621200Y-67254100D01*
G75*
G02*
X125871200Y-67004100I250000J0D01*
G01*
X126371200Y-67004100D01*
G75*
G02*
X126621200Y-67254100I0J-250000D01*
G01*
G37*
G36*
G01*
X133886400Y-55605700D02*
X133886400Y-54655700D01*
G75*
G02*
X134136400Y-54405700I250000J0D01*
G01*
X134636400Y-54405700D01*
G75*
G02*
X134886400Y-54655700I0J-250000D01*
G01*
X134886400Y-55605700D01*
G75*
G02*
X134636400Y-55855700I-250000J0D01*
G01*
X134136400Y-55855700D01*
G75*
G02*
X133886400Y-55605700I0J250000D01*
G01*
G37*
G36*
G01*
X131986400Y-55605700D02*
X131986400Y-54655700D01*
G75*
G02*
X132236400Y-54405700I250000J0D01*
G01*
X132736400Y-54405700D01*
G75*
G02*
X132986400Y-54655700I0J-250000D01*
G01*
X132986400Y-55605700D01*
G75*
G02*
X132736400Y-55855700I-250000J0D01*
G01*
X132236400Y-55855700D01*
G75*
G02*
X131986400Y-55605700I0J250000D01*
G01*
G37*
G36*
G01*
X104314453Y-64828887D02*
X102300184Y-63889618D01*
G75*
G02*
X102223399Y-63678651I67091J143876D01*
G01*
X102357580Y-63390898D01*
G75*
G02*
X102568547Y-63314113I143876J-67091D01*
G01*
X104582816Y-64253382D01*
G75*
G02*
X104659601Y-64464349I-67091J-143876D01*
G01*
X104525420Y-64752102D01*
G75*
G02*
X104314453Y-64828887I-143876J67091D01*
G01*
G37*
G36*
G01*
X104559710Y-63205294D02*
X102412939Y-62630069D01*
G75*
G02*
X102300686Y-62435640I41088J153341D01*
G01*
X102382861Y-62128959D01*
G75*
G02*
X102577290Y-62016706I153341J-41088D01*
G01*
X104724061Y-62591931D01*
G75*
G02*
X104836314Y-62786360I-41088J-153341D01*
G01*
X104754139Y-63093041D01*
G75*
G02*
X104559710Y-63205294I-153341J41088D01*
G01*
G37*
G36*
G01*
X104787561Y-57994569D02*
X102640790Y-58569794D01*
G75*
G02*
X102446361Y-58457541I-41088J153341D01*
G01*
X102364186Y-58150860D01*
G75*
G02*
X102476439Y-57956431I153341J41088D01*
G01*
X104623210Y-57381206D01*
G75*
G02*
X104817639Y-57493459I41088J-153341D01*
G01*
X104899814Y-57800140D01*
G75*
G02*
X104787561Y-57994569I-153341J-41088D01*
G01*
G37*
G36*
G01*
X104519316Y-56396618D02*
X102505047Y-57335887D01*
G75*
G02*
X102294080Y-57259102I-67091J143876D01*
G01*
X102159899Y-56971349D01*
G75*
G02*
X102236684Y-56760382I143876J67091D01*
G01*
X104250953Y-55821113D01*
G75*
G02*
X104461920Y-55897898I67091J-143876D01*
G01*
X104596101Y-56185651D01*
G75*
G02*
X104519316Y-56396618I-143876J-67091D01*
G01*
G37*
G36*
G01*
X104766693Y-59718940D02*
X102552651Y-59912644D01*
G75*
G02*
X102380669Y-59768334I-13836J158146D01*
G01*
X102352997Y-59452042D01*
G75*
G02*
X102497307Y-59280060I158146J13836D01*
G01*
X104711349Y-59086356D01*
G75*
G02*
X104883331Y-59230666I13836J-158146D01*
G01*
X104911003Y-59546958D01*
G75*
G02*
X104766693Y-59718940I-158146J-13836D01*
G01*
G37*
G36*
G01*
X104711349Y-61436644D02*
X102497307Y-61242940D01*
G75*
G02*
X102352997Y-61070958I13836J158146D01*
G01*
X102380669Y-60754666D01*
G75*
G02*
X102552651Y-60610356I158146J-13836D01*
G01*
X104766693Y-60804060D01*
G75*
G02*
X104911003Y-60976042I-13836J-158146D01*
G01*
X104883331Y-61292334D01*
G75*
G02*
X104711349Y-61436644I-158146J13836D01*
G01*
G37*
D10*
X134289800Y-64809100D03*
X134289800Y-68109100D03*
X138430000Y-64757300D03*
X138430000Y-68057300D03*
G36*
G01*
X120174599Y-59111300D02*
X121074601Y-59111300D01*
G75*
G02*
X121324600Y-59361299I0J-249999D01*
G01*
X121324600Y-60011301D01*
G75*
G02*
X121074601Y-60261300I-249999J0D01*
G01*
X120174599Y-60261300D01*
G75*
G02*
X119924600Y-60011301I0J249999D01*
G01*
X119924600Y-59361299D01*
G75*
G02*
X120174599Y-59111300I249999J0D01*
G01*
G37*
G36*
G01*
X120174150Y-57061300D02*
X121075050Y-57061300D01*
G75*
G02*
X121324600Y-57310850I0J-249550D01*
G01*
X121324600Y-57961750D01*
G75*
G02*
X121075050Y-58211300I-249550J0D01*
G01*
X120174150Y-58211300D01*
G75*
G02*
X119924600Y-57961750I0J249550D01*
G01*
X119924600Y-57310850D01*
G75*
G02*
X120174150Y-57061300I249550J0D01*
G01*
G37*
G36*
G01*
X120174599Y-62446100D02*
X121074601Y-62446100D01*
G75*
G02*
X121324600Y-62696099I0J-249999D01*
G01*
X121324600Y-63346101D01*
G75*
G02*
X121074601Y-63596100I-249999J0D01*
G01*
X120174599Y-63596100D01*
G75*
G02*
X119924600Y-63346101I0J249999D01*
G01*
X119924600Y-62696099D01*
G75*
G02*
X120174599Y-62446100I249999J0D01*
G01*
G37*
G36*
G01*
X120174599Y-64496100D02*
X121074601Y-64496100D01*
G75*
G02*
X121324600Y-64746099I0J-249999D01*
G01*
X121324600Y-65396101D01*
G75*
G02*
X121074601Y-65646100I-249999J0D01*
G01*
X120174599Y-65646100D01*
G75*
G02*
X119924600Y-65396101I0J249999D01*
G01*
X119924600Y-64746099D01*
G75*
G02*
X120174599Y-64496100I249999J0D01*
G01*
G37*
G36*
G01*
X125162400Y-60508301D02*
X125162400Y-59608299D01*
G75*
G02*
X125412399Y-59358300I249999J0D01*
G01*
X126062401Y-59358300D01*
G75*
G02*
X126312400Y-59608299I0J-249999D01*
G01*
X126312400Y-60508301D01*
G75*
G02*
X126062401Y-60758300I-249999J0D01*
G01*
X125412399Y-60758300D01*
G75*
G02*
X125162400Y-60508301I0J249999D01*
G01*
G37*
G36*
G01*
X127212400Y-60508301D02*
X127212400Y-59608299D01*
G75*
G02*
X127462399Y-59358300I249999J0D01*
G01*
X128112401Y-59358300D01*
G75*
G02*
X128362400Y-59608299I0J-249999D01*
G01*
X128362400Y-60508301D01*
G75*
G02*
X128112401Y-60758300I-249999J0D01*
G01*
X127462399Y-60758300D01*
G75*
G02*
X127212400Y-60508301I0J249999D01*
G01*
G37*
G36*
G01*
X127053200Y-56703700D02*
X127353200Y-56703700D01*
G75*
G02*
X127503200Y-56853700I0J-150000D01*
G01*
X127503200Y-58303700D01*
G75*
G02*
X127353200Y-58453700I-150000J0D01*
G01*
X127053200Y-58453700D01*
G75*
G02*
X126903200Y-58303700I0J150000D01*
G01*
X126903200Y-56853700D01*
G75*
G02*
X127053200Y-56703700I150000J0D01*
G01*
G37*
G36*
G01*
X125783200Y-56703700D02*
X126083200Y-56703700D01*
G75*
G02*
X126233200Y-56853700I0J-150000D01*
G01*
X126233200Y-58303700D01*
G75*
G02*
X126083200Y-58453700I-150000J0D01*
G01*
X125783200Y-58453700D01*
G75*
G02*
X125633200Y-58303700I0J150000D01*
G01*
X125633200Y-56853700D01*
G75*
G02*
X125783200Y-56703700I150000J0D01*
G01*
G37*
G36*
G01*
X124513200Y-56703700D02*
X124813200Y-56703700D01*
G75*
G02*
X124963200Y-56853700I0J-150000D01*
G01*
X124963200Y-58303700D01*
G75*
G02*
X124813200Y-58453700I-150000J0D01*
G01*
X124513200Y-58453700D01*
G75*
G02*
X124363200Y-58303700I0J150000D01*
G01*
X124363200Y-56853700D01*
G75*
G02*
X124513200Y-56703700I150000J0D01*
G01*
G37*
G36*
G01*
X123243200Y-56703700D02*
X123543200Y-56703700D01*
G75*
G02*
X123693200Y-56853700I0J-150000D01*
G01*
X123693200Y-58303700D01*
G75*
G02*
X123543200Y-58453700I-150000J0D01*
G01*
X123243200Y-58453700D01*
G75*
G02*
X123093200Y-58303700I0J150000D01*
G01*
X123093200Y-56853700D01*
G75*
G02*
X123243200Y-56703700I150000J0D01*
G01*
G37*
G36*
G01*
X123243200Y-51553700D02*
X123543200Y-51553700D01*
G75*
G02*
X123693200Y-51703700I0J-150000D01*
G01*
X123693200Y-53153700D01*
G75*
G02*
X123543200Y-53303700I-150000J0D01*
G01*
X123243200Y-53303700D01*
G75*
G02*
X123093200Y-53153700I0J150000D01*
G01*
X123093200Y-51703700D01*
G75*
G02*
X123243200Y-51553700I150000J0D01*
G01*
G37*
G36*
G01*
X124513200Y-51553700D02*
X124813200Y-51553700D01*
G75*
G02*
X124963200Y-51703700I0J-150000D01*
G01*
X124963200Y-53153700D01*
G75*
G02*
X124813200Y-53303700I-150000J0D01*
G01*
X124513200Y-53303700D01*
G75*
G02*
X124363200Y-53153700I0J150000D01*
G01*
X124363200Y-51703700D01*
G75*
G02*
X124513200Y-51553700I150000J0D01*
G01*
G37*
G36*
G01*
X125783200Y-51553700D02*
X126083200Y-51553700D01*
G75*
G02*
X126233200Y-51703700I0J-150000D01*
G01*
X126233200Y-53153700D01*
G75*
G02*
X126083200Y-53303700I-150000J0D01*
G01*
X125783200Y-53303700D01*
G75*
G02*
X125633200Y-53153700I0J150000D01*
G01*
X125633200Y-51703700D01*
G75*
G02*
X125783200Y-51553700I150000J0D01*
G01*
G37*
G36*
G01*
X127053200Y-51553700D02*
X127353200Y-51553700D01*
G75*
G02*
X127503200Y-51703700I0J-150000D01*
G01*
X127503200Y-53153700D01*
G75*
G02*
X127353200Y-53303700I-150000J0D01*
G01*
X127053200Y-53303700D01*
G75*
G02*
X126903200Y-53153700I0J150000D01*
G01*
X126903200Y-51703700D01*
G75*
G02*
X127053200Y-51553700I150000J0D01*
G01*
G37*
G36*
G01*
X128496800Y-62113300D02*
X128496800Y-61813300D01*
G75*
G02*
X128646800Y-61663300I150000J0D01*
G01*
X130096800Y-61663300D01*
G75*
G02*
X130246800Y-61813300I0J-150000D01*
G01*
X130246800Y-62113300D01*
G75*
G02*
X130096800Y-62263300I-150000J0D01*
G01*
X128646800Y-62263300D01*
G75*
G02*
X128496800Y-62113300I0J150000D01*
G01*
G37*
G36*
G01*
X128496800Y-63383300D02*
X128496800Y-63083300D01*
G75*
G02*
X128646800Y-62933300I150000J0D01*
G01*
X130096800Y-62933300D01*
G75*
G02*
X130246800Y-63083300I0J-150000D01*
G01*
X130246800Y-63383300D01*
G75*
G02*
X130096800Y-63533300I-150000J0D01*
G01*
X128646800Y-63533300D01*
G75*
G02*
X128496800Y-63383300I0J150000D01*
G01*
G37*
G36*
G01*
X128496800Y-64653300D02*
X128496800Y-64353300D01*
G75*
G02*
X128646800Y-64203300I150000J0D01*
G01*
X130096800Y-64203300D01*
G75*
G02*
X130246800Y-64353300I0J-150000D01*
G01*
X130246800Y-64653300D01*
G75*
G02*
X130096800Y-64803300I-150000J0D01*
G01*
X128646800Y-64803300D01*
G75*
G02*
X128496800Y-64653300I0J150000D01*
G01*
G37*
G36*
G01*
X128496800Y-65923300D02*
X128496800Y-65623300D01*
G75*
G02*
X128646800Y-65473300I150000J0D01*
G01*
X130096800Y-65473300D01*
G75*
G02*
X130246800Y-65623300I0J-150000D01*
G01*
X130246800Y-65923300D01*
G75*
G02*
X130096800Y-66073300I-150000J0D01*
G01*
X128646800Y-66073300D01*
G75*
G02*
X128496800Y-65923300I0J150000D01*
G01*
G37*
G36*
G01*
X123346800Y-65923300D02*
X123346800Y-65623300D01*
G75*
G02*
X123496800Y-65473300I150000J0D01*
G01*
X124946800Y-65473300D01*
G75*
G02*
X125096800Y-65623300I0J-150000D01*
G01*
X125096800Y-65923300D01*
G75*
G02*
X124946800Y-66073300I-150000J0D01*
G01*
X123496800Y-66073300D01*
G75*
G02*
X123346800Y-65923300I0J150000D01*
G01*
G37*
G36*
G01*
X123346800Y-64653300D02*
X123346800Y-64353300D01*
G75*
G02*
X123496800Y-64203300I150000J0D01*
G01*
X124946800Y-64203300D01*
G75*
G02*
X125096800Y-64353300I0J-150000D01*
G01*
X125096800Y-64653300D01*
G75*
G02*
X124946800Y-64803300I-150000J0D01*
G01*
X123496800Y-64803300D01*
G75*
G02*
X123346800Y-64653300I0J150000D01*
G01*
G37*
G36*
G01*
X123346800Y-63383300D02*
X123346800Y-63083300D01*
G75*
G02*
X123496800Y-62933300I150000J0D01*
G01*
X124946800Y-62933300D01*
G75*
G02*
X125096800Y-63083300I0J-150000D01*
G01*
X125096800Y-63383300D01*
G75*
G02*
X124946800Y-63533300I-150000J0D01*
G01*
X123496800Y-63533300D01*
G75*
G02*
X123346800Y-63383300I0J150000D01*
G01*
G37*
G36*
G01*
X123346800Y-62113300D02*
X123346800Y-61813300D01*
G75*
G02*
X123496800Y-61663300I150000J0D01*
G01*
X124946800Y-61663300D01*
G75*
G02*
X125096800Y-61813300I0J-150000D01*
G01*
X125096800Y-62113300D01*
G75*
G02*
X124946800Y-62263300I-150000J0D01*
G01*
X123496800Y-62263300D01*
G75*
G02*
X123346800Y-62113300I0J150000D01*
G01*
G37*
M02*
