G04 #@! TF.GenerationSoftware,KiCad,Pcbnew,(5.1.5)-3*
G04 #@! TF.CreationDate,2020-05-18T11:13:30-07:00*
G04 #@! TF.ProjectId,Conductivity_Sensor,436f6e64-7563-4746-9976-6974795f5365,rev?*
G04 #@! TF.SameCoordinates,Original*
G04 #@! TF.FileFunction,Legend,Top*
G04 #@! TF.FilePolarity,Positive*
%FSLAX46Y46*%
G04 Gerber Fmt 4.6, Leading zero omitted, Abs format (unit mm)*
G04 Created by KiCad (PCBNEW (5.1.5)-3) date 2020-05-18 11:13:30*
%MOMM*%
%LPD*%
G04 APERTURE LIST*
%ADD10C,0.152400*%
%ADD11C,0.508000*%
%ADD12C,0.203200*%
%ADD13C,0.120000*%
%ADD14C,0.150000*%
%ADD15C,0.127000*%
%ADD16C,0.101600*%
G04 APERTURE END LIST*
D10*
X126189619Y-53520219D02*
X125850952Y-53036409D01*
X125609047Y-53520219D02*
X125609047Y-52504219D01*
X125996095Y-52504219D01*
X126092857Y-52552600D01*
X126141238Y-52600980D01*
X126189619Y-52697742D01*
X126189619Y-52842885D01*
X126141238Y-52939647D01*
X126092857Y-52988028D01*
X125996095Y-53036409D01*
X125609047Y-53036409D01*
X126479904Y-52504219D02*
X127060476Y-52504219D01*
X126770190Y-53520219D02*
X126770190Y-52504219D01*
X127399142Y-53520219D02*
X127399142Y-52504219D01*
X127641047Y-52504219D01*
X127786190Y-52552600D01*
X127882952Y-52649361D01*
X127931333Y-52746123D01*
X127979714Y-52939647D01*
X127979714Y-53084790D01*
X127931333Y-53278314D01*
X127882952Y-53375076D01*
X127786190Y-53471838D01*
X127641047Y-53520219D01*
X127399142Y-53520219D01*
X128366761Y-52600980D02*
X128415142Y-52552600D01*
X128511904Y-52504219D01*
X128753809Y-52504219D01*
X128850571Y-52552600D01*
X128898952Y-52600980D01*
X128947333Y-52697742D01*
X128947333Y-52794504D01*
X128898952Y-52939647D01*
X128318380Y-53520219D01*
X128947333Y-53520219D01*
D11*
X127990600Y-68707000D02*
G75*
G03X127990600Y-68707000I-254000J0D01*
G01*
X109651800Y-61518800D02*
G75*
G03X109651800Y-61518800I-254000J0D01*
G01*
D12*
X167092380Y-72453333D02*
X168092380Y-72120000D01*
X167092380Y-71786666D01*
X167997142Y-70881904D02*
X168044761Y-70929523D01*
X168092380Y-71072380D01*
X168092380Y-71167619D01*
X168044761Y-71310476D01*
X167949523Y-71405714D01*
X167854285Y-71453333D01*
X167663809Y-71500952D01*
X167520952Y-71500952D01*
X167330476Y-71453333D01*
X167235238Y-71405714D01*
X167140000Y-71310476D01*
X167092380Y-71167619D01*
X167092380Y-71072380D01*
X167140000Y-70929523D01*
X167187619Y-70881904D01*
X167997142Y-69881904D02*
X168044761Y-69929523D01*
X168092380Y-70072380D01*
X168092380Y-70167619D01*
X168044761Y-70310476D01*
X167949523Y-70405714D01*
X167854285Y-70453333D01*
X167663809Y-70500952D01*
X167520952Y-70500952D01*
X167330476Y-70453333D01*
X167235238Y-70405714D01*
X167140000Y-70310476D01*
X167092380Y-70167619D01*
X167092380Y-70072380D01*
X167140000Y-69929523D01*
X167187619Y-69881904D01*
X164552380Y-72405714D02*
X165552380Y-72072380D01*
X164552380Y-71739047D01*
X165504761Y-71453333D02*
X165552380Y-71310476D01*
X165552380Y-71072380D01*
X165504761Y-70977142D01*
X165457142Y-70929523D01*
X165361904Y-70881904D01*
X165266666Y-70881904D01*
X165171428Y-70929523D01*
X165123809Y-70977142D01*
X165076190Y-71072380D01*
X165028571Y-71262857D01*
X164980952Y-71358095D01*
X164933333Y-71405714D01*
X164838095Y-71453333D01*
X164742857Y-71453333D01*
X164647619Y-71405714D01*
X164600000Y-71358095D01*
X164552380Y-71262857D01*
X164552380Y-71024761D01*
X164600000Y-70881904D01*
X165504761Y-70500952D02*
X165552380Y-70358095D01*
X165552380Y-70120000D01*
X165504761Y-70024761D01*
X165457142Y-69977142D01*
X165361904Y-69929523D01*
X165266666Y-69929523D01*
X165171428Y-69977142D01*
X165123809Y-70024761D01*
X165076190Y-70120000D01*
X165028571Y-70310476D01*
X164980952Y-70405714D01*
X164933333Y-70453333D01*
X164838095Y-70500952D01*
X164742857Y-70500952D01*
X164647619Y-70453333D01*
X164600000Y-70405714D01*
X164552380Y-70310476D01*
X164552380Y-70072380D01*
X164600000Y-69929523D01*
X162060000Y-71881904D02*
X162012380Y-71977142D01*
X162012380Y-72120000D01*
X162060000Y-72262857D01*
X162155238Y-72358095D01*
X162250476Y-72405714D01*
X162440952Y-72453333D01*
X162583809Y-72453333D01*
X162774285Y-72405714D01*
X162869523Y-72358095D01*
X162964761Y-72262857D01*
X163012380Y-72120000D01*
X163012380Y-72024761D01*
X162964761Y-71881904D01*
X162917142Y-71834285D01*
X162583809Y-71834285D01*
X162583809Y-72024761D01*
X163012380Y-71405714D02*
X162012380Y-71405714D01*
X163012380Y-70834285D01*
X162012380Y-70834285D01*
X163012380Y-70358095D02*
X162012380Y-70358095D01*
X162012380Y-70120000D01*
X162060000Y-69977142D01*
X162155238Y-69881904D01*
X162250476Y-69834285D01*
X162440952Y-69786666D01*
X162583809Y-69786666D01*
X162774285Y-69834285D01*
X162869523Y-69881904D01*
X162964761Y-69977142D01*
X163012380Y-70120000D01*
X163012380Y-70358095D01*
X117562380Y-72453333D02*
X118562380Y-72120000D01*
X117562380Y-71786666D01*
X118467142Y-70881904D02*
X118514761Y-70929523D01*
X118562380Y-71072380D01*
X118562380Y-71167619D01*
X118514761Y-71310476D01*
X118419523Y-71405714D01*
X118324285Y-71453333D01*
X118133809Y-71500952D01*
X117990952Y-71500952D01*
X117800476Y-71453333D01*
X117705238Y-71405714D01*
X117610000Y-71310476D01*
X117562380Y-71167619D01*
X117562380Y-71072380D01*
X117610000Y-70929523D01*
X117657619Y-70881904D01*
X118467142Y-69881904D02*
X118514761Y-69929523D01*
X118562380Y-70072380D01*
X118562380Y-70167619D01*
X118514761Y-70310476D01*
X118419523Y-70405714D01*
X118324285Y-70453333D01*
X118133809Y-70500952D01*
X117990952Y-70500952D01*
X117800476Y-70453333D01*
X117705238Y-70405714D01*
X117610000Y-70310476D01*
X117562380Y-70167619D01*
X117562380Y-70072380D01*
X117610000Y-69929523D01*
X117657619Y-69881904D01*
X115022380Y-72405714D02*
X116022380Y-72072380D01*
X115022380Y-71739047D01*
X115974761Y-71453333D02*
X116022380Y-71310476D01*
X116022380Y-71072380D01*
X115974761Y-70977142D01*
X115927142Y-70929523D01*
X115831904Y-70881904D01*
X115736666Y-70881904D01*
X115641428Y-70929523D01*
X115593809Y-70977142D01*
X115546190Y-71072380D01*
X115498571Y-71262857D01*
X115450952Y-71358095D01*
X115403333Y-71405714D01*
X115308095Y-71453333D01*
X115212857Y-71453333D01*
X115117619Y-71405714D01*
X115070000Y-71358095D01*
X115022380Y-71262857D01*
X115022380Y-71024761D01*
X115070000Y-70881904D01*
X115974761Y-70500952D02*
X116022380Y-70358095D01*
X116022380Y-70120000D01*
X115974761Y-70024761D01*
X115927142Y-69977142D01*
X115831904Y-69929523D01*
X115736666Y-69929523D01*
X115641428Y-69977142D01*
X115593809Y-70024761D01*
X115546190Y-70120000D01*
X115498571Y-70310476D01*
X115450952Y-70405714D01*
X115403333Y-70453333D01*
X115308095Y-70500952D01*
X115212857Y-70500952D01*
X115117619Y-70453333D01*
X115070000Y-70405714D01*
X115022380Y-70310476D01*
X115022380Y-70072380D01*
X115070000Y-69929523D01*
X112522000Y-71894095D02*
X112473619Y-71990857D01*
X112473619Y-72136000D01*
X112522000Y-72281142D01*
X112618761Y-72377904D01*
X112715523Y-72426285D01*
X112909047Y-72474666D01*
X113054190Y-72474666D01*
X113247714Y-72426285D01*
X113344476Y-72377904D01*
X113441238Y-72281142D01*
X113489619Y-72136000D01*
X113489619Y-72039238D01*
X113441238Y-71894095D01*
X113392857Y-71845714D01*
X113054190Y-71845714D01*
X113054190Y-72039238D01*
X113489619Y-71410285D02*
X112473619Y-71410285D01*
X113489619Y-70829714D01*
X112473619Y-70829714D01*
X113489619Y-70345904D02*
X112473619Y-70345904D01*
X112473619Y-70104000D01*
X112522000Y-69958857D01*
X112618761Y-69862095D01*
X112715523Y-69813714D01*
X112909047Y-69765333D01*
X113054190Y-69765333D01*
X113247714Y-69813714D01*
X113344476Y-69862095D01*
X113441238Y-69958857D01*
X113489619Y-70104000D01*
X113489619Y-70345904D01*
D13*
X119929600Y-54339800D02*
X119929600Y-53009800D01*
X121259600Y-54339800D02*
X119929600Y-54339800D01*
X122529600Y-54339800D02*
X122529600Y-51679800D01*
X122529600Y-51679800D02*
X125129600Y-51679800D01*
X122529600Y-54339800D02*
X125129600Y-54339800D01*
X125129600Y-54339800D02*
X125129600Y-51679800D01*
X108931200Y-74440000D02*
X108931200Y-71640000D01*
X108931200Y-71640000D02*
X110931200Y-71640000D01*
X110931200Y-71640000D02*
X110931200Y-74440000D01*
X110931200Y-74440000D02*
X108931200Y-74440000D01*
X158385000Y-75060000D02*
X158385000Y-72260000D01*
X158385000Y-72260000D02*
X160385000Y-72260000D01*
X160385000Y-72260000D02*
X160385000Y-75060000D01*
X160385000Y-75060000D02*
X158385000Y-75060000D01*
X137665000Y-68215000D02*
X140465000Y-68215000D01*
X140465000Y-68215000D02*
X140465000Y-70215000D01*
X140465000Y-70215000D02*
X137665000Y-70215000D01*
X137665000Y-70215000D02*
X137665000Y-68215000D01*
X137650000Y-52340000D02*
X140450000Y-52340000D01*
X140450000Y-52340000D02*
X140450000Y-54340000D01*
X140450000Y-54340000D02*
X137650000Y-54340000D01*
X137650000Y-54340000D02*
X137650000Y-52340000D01*
X137665000Y-73295000D02*
X140465000Y-73295000D01*
X140465000Y-73295000D02*
X140465000Y-75295000D01*
X140465000Y-75295000D02*
X137665000Y-75295000D01*
X137665000Y-75295000D02*
X137665000Y-73295000D01*
X119440000Y-75625000D02*
X119440000Y-72965000D01*
X114300000Y-75625000D02*
X119440000Y-75625000D01*
X114300000Y-72965000D02*
X119440000Y-72965000D01*
X114300000Y-75625000D02*
X114300000Y-72965000D01*
X113030000Y-75625000D02*
X111700000Y-75625000D01*
X111700000Y-75625000D02*
X111700000Y-74295000D01*
X161230000Y-75625000D02*
X161230000Y-74295000D01*
X162560000Y-75625000D02*
X161230000Y-75625000D01*
X163830000Y-75625000D02*
X163830000Y-72965000D01*
X163830000Y-72965000D02*
X168970000Y-72965000D01*
X163830000Y-75625000D02*
X168970000Y-75625000D01*
X168970000Y-75625000D02*
X168970000Y-72965000D01*
X162270000Y-68310000D02*
X158370000Y-68310000D01*
X162270000Y-66310000D02*
X158370000Y-66310000D01*
X162270000Y-68310000D02*
X162270000Y-66310000D01*
X126399600Y-57726600D02*
X126399600Y-56924130D01*
X126399600Y-56309070D02*
X126399600Y-55506600D01*
X120114600Y-57726600D02*
X126399600Y-57726600D01*
X120114600Y-55506600D02*
X126399600Y-55506600D01*
X120114600Y-57726600D02*
X120114600Y-57180071D01*
X120114600Y-56053129D02*
X120114600Y-55506600D01*
X119354600Y-57726600D02*
X118594600Y-57726600D01*
X118594600Y-57726600D02*
X118594600Y-56616600D01*
X107390000Y-71381252D02*
X107390000Y-70858748D01*
X105970000Y-71381252D02*
X105970000Y-70858748D01*
X123173748Y-61520000D02*
X123696252Y-61520000D01*
X123173748Y-62940000D02*
X123696252Y-62940000D01*
X145340000Y-72016252D02*
X145340000Y-71493748D01*
X146760000Y-72016252D02*
X146760000Y-71493748D01*
X154865000Y-70468748D02*
X154865000Y-70991252D01*
X156285000Y-70468748D02*
X156285000Y-70991252D01*
X173280000Y-71381252D02*
X173280000Y-70858748D01*
X174700000Y-71381252D02*
X174700000Y-70858748D01*
X169620000Y-63761252D02*
X169620000Y-63238748D01*
X168200000Y-63761252D02*
X168200000Y-63238748D01*
X164810000Y-65770000D02*
X164810000Y-63770000D01*
X164810000Y-63770000D02*
X160910000Y-63770000D01*
X164810000Y-65770000D02*
X160910000Y-65770000D01*
X113013748Y-65480000D02*
X113536252Y-65480000D01*
X113013748Y-64060000D02*
X113536252Y-64060000D01*
X132063748Y-64695000D02*
X132586252Y-64695000D01*
X132063748Y-66115000D02*
X132586252Y-66115000D01*
X121994452Y-71169600D02*
X121471948Y-71169600D01*
X121994452Y-69749600D02*
X121471948Y-69749600D01*
X144796252Y-59615000D02*
X144273748Y-59615000D01*
X144796252Y-61035000D02*
X144273748Y-61035000D01*
X166876252Y-68020000D02*
X166353748Y-68020000D01*
X166876252Y-66600000D02*
X166353748Y-66600000D01*
X103485000Y-64805000D02*
X103485000Y-66755000D01*
X103485000Y-64805000D02*
X103485000Y-62855000D01*
X108605000Y-64805000D02*
X108605000Y-66755000D01*
X108605000Y-64805000D02*
X108605000Y-61355000D01*
X123190000Y-68600000D02*
X126640000Y-68600000D01*
X123190000Y-68600000D02*
X121240000Y-68600000D01*
X123190000Y-63480000D02*
X125140000Y-63480000D01*
X123190000Y-63480000D02*
X121240000Y-63480000D01*
X143170000Y-65140000D02*
X143170000Y-66940000D01*
X146390000Y-66940000D02*
X146390000Y-64490000D01*
X156550000Y-66940000D02*
X156550000Y-64490000D01*
X153330000Y-65140000D02*
X153330000Y-66940000D01*
X171190000Y-65140000D02*
X171190000Y-66940000D01*
X174410000Y-66940000D02*
X174410000Y-64490000D01*
D14*
X151092066Y-50201980D02*
X150758733Y-49725790D01*
X150520638Y-50201980D02*
X150520638Y-49201980D01*
X150901590Y-49201980D01*
X150996828Y-49249600D01*
X151044447Y-49297219D01*
X151092066Y-49392457D01*
X151092066Y-49535314D01*
X151044447Y-49630552D01*
X150996828Y-49678171D01*
X150901590Y-49725790D01*
X150520638Y-49725790D01*
X151520638Y-49678171D02*
X151853971Y-49678171D01*
X151996828Y-50201980D02*
X151520638Y-50201980D01*
X151520638Y-49201980D01*
X151996828Y-49201980D01*
X152758733Y-49678171D02*
X152425400Y-49678171D01*
X152425400Y-50201980D02*
X152425400Y-49201980D01*
X152901590Y-49201980D01*
X153425400Y-49201980D02*
X153425400Y-49440076D01*
X153187304Y-49344838D02*
X153425400Y-49440076D01*
X153663495Y-49344838D01*
X153282542Y-49630552D02*
X153425400Y-49440076D01*
X153568257Y-49630552D01*
X154187304Y-49201980D02*
X154187304Y-49440076D01*
X153949209Y-49344838D02*
X154187304Y-49440076D01*
X154425400Y-49344838D01*
X154044447Y-49630552D02*
X154187304Y-49440076D01*
X154330161Y-49630552D01*
X126352466Y-81986380D02*
X126019133Y-81510190D01*
X125781038Y-81986380D02*
X125781038Y-80986380D01*
X126161990Y-80986380D01*
X126257228Y-81034000D01*
X126304847Y-81081619D01*
X126352466Y-81176857D01*
X126352466Y-81319714D01*
X126304847Y-81414952D01*
X126257228Y-81462571D01*
X126161990Y-81510190D01*
X125781038Y-81510190D01*
X126781038Y-81462571D02*
X127114371Y-81462571D01*
X127257228Y-81986380D02*
X126781038Y-81986380D01*
X126781038Y-80986380D01*
X127257228Y-80986380D01*
X128019133Y-81462571D02*
X127685800Y-81462571D01*
X127685800Y-81986380D02*
X127685800Y-80986380D01*
X128161990Y-80986380D01*
X128685800Y-80986380D02*
X128685800Y-81224476D01*
X128447704Y-81129238D02*
X128685800Y-81224476D01*
X128923895Y-81129238D01*
X128542942Y-81414952D02*
X128685800Y-81224476D01*
X128828657Y-81414952D01*
X129447704Y-80986380D02*
X129447704Y-81224476D01*
X129209609Y-81129238D02*
X129447704Y-81224476D01*
X129685800Y-81129238D01*
X129304847Y-81414952D02*
X129447704Y-81224476D01*
X129590561Y-81414952D01*
X116833780Y-53360580D02*
X116500447Y-52884390D01*
X116262352Y-53360580D02*
X116262352Y-52360580D01*
X116643304Y-52360580D01*
X116738542Y-52408200D01*
X116786161Y-52455819D01*
X116833780Y-52551057D01*
X116833780Y-52693914D01*
X116786161Y-52789152D01*
X116738542Y-52836771D01*
X116643304Y-52884390D01*
X116262352Y-52884390D01*
X117119495Y-52360580D02*
X117690923Y-52360580D01*
X117405209Y-53360580D02*
X117405209Y-52360580D01*
X118024257Y-53360580D02*
X118024257Y-52360580D01*
X118262352Y-52360580D01*
X118405209Y-52408200D01*
X118500447Y-52503438D01*
X118548066Y-52598676D01*
X118595685Y-52789152D01*
X118595685Y-52932009D01*
X118548066Y-53122485D01*
X118500447Y-53217723D01*
X118405209Y-53312961D01*
X118262352Y-53360580D01*
X118024257Y-53360580D01*
X119548066Y-53360580D02*
X118976638Y-53360580D01*
X119262352Y-53360580D02*
X119262352Y-52360580D01*
X119167114Y-52503438D01*
X119071876Y-52598676D01*
X118976638Y-52646295D01*
D15*
X107750200Y-75072000D02*
X107713914Y-75144571D01*
X107713914Y-75253428D01*
X107750200Y-75362285D01*
X107822771Y-75434857D01*
X107895342Y-75471142D01*
X108040485Y-75507428D01*
X108149342Y-75507428D01*
X108294485Y-75471142D01*
X108367057Y-75434857D01*
X108439628Y-75362285D01*
X108475914Y-75253428D01*
X108475914Y-75180857D01*
X108439628Y-75072000D01*
X108403342Y-75035714D01*
X108149342Y-75035714D01*
X108149342Y-75180857D01*
X108475914Y-74709142D02*
X107713914Y-74709142D01*
X108475914Y-74273714D01*
X107713914Y-74273714D01*
X108475914Y-73910857D02*
X107713914Y-73910857D01*
X107713914Y-73729428D01*
X107750200Y-73620571D01*
X107822771Y-73548000D01*
X107895342Y-73511714D01*
X108040485Y-73475428D01*
X108149342Y-73475428D01*
X108294485Y-73511714D01*
X108367057Y-73548000D01*
X108439628Y-73620571D01*
X108475914Y-73729428D01*
X108475914Y-73910857D01*
X107677628Y-72604571D02*
X108657342Y-73257714D01*
X107713914Y-72459428D02*
X108475914Y-72205428D01*
X107713914Y-71951428D01*
X108439628Y-71733714D02*
X108475914Y-71624857D01*
X108475914Y-71443428D01*
X108439628Y-71370857D01*
X108403342Y-71334571D01*
X108330771Y-71298285D01*
X108258200Y-71298285D01*
X108185628Y-71334571D01*
X108149342Y-71370857D01*
X108113057Y-71443428D01*
X108076771Y-71588571D01*
X108040485Y-71661142D01*
X108004200Y-71697428D01*
X107931628Y-71733714D01*
X107859057Y-71733714D01*
X107786485Y-71697428D01*
X107750200Y-71661142D01*
X107713914Y-71588571D01*
X107713914Y-71407142D01*
X107750200Y-71298285D01*
X108439628Y-71008000D02*
X108475914Y-70899142D01*
X108475914Y-70717714D01*
X108439628Y-70645142D01*
X108403342Y-70608857D01*
X108330771Y-70572571D01*
X108258200Y-70572571D01*
X108185628Y-70608857D01*
X108149342Y-70645142D01*
X108113057Y-70717714D01*
X108076771Y-70862857D01*
X108040485Y-70935428D01*
X108004200Y-70971714D01*
X107931628Y-71008000D01*
X107859057Y-71008000D01*
X107786485Y-70971714D01*
X107750200Y-70935428D01*
X107713914Y-70862857D01*
X107713914Y-70681428D01*
X107750200Y-70572571D01*
D16*
X157099000Y-75347285D02*
X157062714Y-75419857D01*
X157062714Y-75528714D01*
X157099000Y-75637571D01*
X157171571Y-75710142D01*
X157244142Y-75746428D01*
X157389285Y-75782714D01*
X157498142Y-75782714D01*
X157643285Y-75746428D01*
X157715857Y-75710142D01*
X157788428Y-75637571D01*
X157824714Y-75528714D01*
X157824714Y-75456142D01*
X157788428Y-75347285D01*
X157752142Y-75311000D01*
X157498142Y-75311000D01*
X157498142Y-75456142D01*
X157824714Y-74984428D02*
X157062714Y-74984428D01*
X157824714Y-74549000D01*
X157062714Y-74549000D01*
X157824714Y-74186142D02*
X157062714Y-74186142D01*
X157062714Y-74004714D01*
X157099000Y-73895857D01*
X157171571Y-73823285D01*
X157244142Y-73787000D01*
X157389285Y-73750714D01*
X157498142Y-73750714D01*
X157643285Y-73787000D01*
X157715857Y-73823285D01*
X157788428Y-73895857D01*
X157824714Y-74004714D01*
X157824714Y-74186142D01*
X157026428Y-72879857D02*
X158006142Y-73533000D01*
X157062714Y-72734714D02*
X157824714Y-72480714D01*
X157062714Y-72226714D01*
X157788428Y-72009000D02*
X157824714Y-71900142D01*
X157824714Y-71718714D01*
X157788428Y-71646142D01*
X157752142Y-71609857D01*
X157679571Y-71573571D01*
X157607000Y-71573571D01*
X157534428Y-71609857D01*
X157498142Y-71646142D01*
X157461857Y-71718714D01*
X157425571Y-71863857D01*
X157389285Y-71936428D01*
X157353000Y-71972714D01*
X157280428Y-72009000D01*
X157207857Y-72009000D01*
X157135285Y-71972714D01*
X157099000Y-71936428D01*
X157062714Y-71863857D01*
X157062714Y-71682428D01*
X157099000Y-71573571D01*
X157788428Y-71283285D02*
X157824714Y-71174428D01*
X157824714Y-70993000D01*
X157788428Y-70920428D01*
X157752142Y-70884142D01*
X157679571Y-70847857D01*
X157607000Y-70847857D01*
X157534428Y-70884142D01*
X157498142Y-70920428D01*
X157461857Y-70993000D01*
X157425571Y-71138142D01*
X157389285Y-71210714D01*
X157353000Y-71247000D01*
X157280428Y-71283285D01*
X157207857Y-71283285D01*
X157135285Y-71247000D01*
X157099000Y-71210714D01*
X157062714Y-71138142D01*
X157062714Y-70956714D01*
X157099000Y-70847857D01*
D14*
X136469761Y-66915000D02*
X136374523Y-66867380D01*
X136231666Y-66867380D01*
X136088809Y-66915000D01*
X135993571Y-67010238D01*
X135945952Y-67105476D01*
X135898333Y-67295952D01*
X135898333Y-67438809D01*
X135945952Y-67629285D01*
X135993571Y-67724523D01*
X136088809Y-67819761D01*
X136231666Y-67867380D01*
X136326904Y-67867380D01*
X136469761Y-67819761D01*
X136517380Y-67772142D01*
X136517380Y-67438809D01*
X136326904Y-67438809D01*
X136945952Y-67867380D02*
X136945952Y-66867380D01*
X137517380Y-67867380D01*
X137517380Y-66867380D01*
X137993571Y-67867380D02*
X137993571Y-66867380D01*
X138231666Y-66867380D01*
X138374523Y-66915000D01*
X138469761Y-67010238D01*
X138517380Y-67105476D01*
X138565000Y-67295952D01*
X138565000Y-67438809D01*
X138517380Y-67629285D01*
X138469761Y-67724523D01*
X138374523Y-67819761D01*
X138231666Y-67867380D01*
X137993571Y-67867380D01*
X140041190Y-66867380D02*
X140041190Y-67581666D01*
X139993571Y-67724523D01*
X139898333Y-67819761D01*
X139755476Y-67867380D01*
X139660238Y-67867380D01*
X140517380Y-67867380D02*
X140517380Y-66867380D01*
X140850714Y-67581666D01*
X141184047Y-66867380D01*
X141184047Y-67867380D01*
X141660238Y-67867380D02*
X141660238Y-66867380D01*
X142041190Y-66867380D01*
X142136428Y-66915000D01*
X142184047Y-66962619D01*
X142231666Y-67057857D01*
X142231666Y-67200714D01*
X142184047Y-67295952D01*
X142136428Y-67343571D01*
X142041190Y-67391190D01*
X141660238Y-67391190D01*
X135945952Y-55332380D02*
X136279285Y-56332380D01*
X136612619Y-55332380D01*
X136898333Y-56284761D02*
X137041190Y-56332380D01*
X137279285Y-56332380D01*
X137374523Y-56284761D01*
X137422142Y-56237142D01*
X137469761Y-56141904D01*
X137469761Y-56046666D01*
X137422142Y-55951428D01*
X137374523Y-55903809D01*
X137279285Y-55856190D01*
X137088809Y-55808571D01*
X136993571Y-55760952D01*
X136945952Y-55713333D01*
X136898333Y-55618095D01*
X136898333Y-55522857D01*
X136945952Y-55427619D01*
X136993571Y-55380000D01*
X137088809Y-55332380D01*
X137326904Y-55332380D01*
X137469761Y-55380000D01*
X137850714Y-56284761D02*
X137993571Y-56332380D01*
X138231666Y-56332380D01*
X138326904Y-56284761D01*
X138374523Y-56237142D01*
X138422142Y-56141904D01*
X138422142Y-56046666D01*
X138374523Y-55951428D01*
X138326904Y-55903809D01*
X138231666Y-55856190D01*
X138041190Y-55808571D01*
X137945952Y-55760952D01*
X137898333Y-55713333D01*
X137850714Y-55618095D01*
X137850714Y-55522857D01*
X137898333Y-55427619D01*
X137945952Y-55380000D01*
X138041190Y-55332380D01*
X138279285Y-55332380D01*
X138422142Y-55380000D01*
X139898333Y-55332380D02*
X139898333Y-56046666D01*
X139850714Y-56189523D01*
X139755476Y-56284761D01*
X139612619Y-56332380D01*
X139517380Y-56332380D01*
X140374523Y-56332380D02*
X140374523Y-55332380D01*
X140707857Y-56046666D01*
X141041190Y-55332380D01*
X141041190Y-56332380D01*
X141517380Y-56332380D02*
X141517380Y-55332380D01*
X141898333Y-55332380D01*
X141993571Y-55380000D01*
X142041190Y-55427619D01*
X142088809Y-55522857D01*
X142088809Y-55665714D01*
X142041190Y-55760952D01*
X141993571Y-55808571D01*
X141898333Y-55856190D01*
X141517380Y-55856190D01*
X135945952Y-71947380D02*
X136279285Y-72947380D01*
X136612619Y-71947380D01*
X136898333Y-72899761D02*
X137041190Y-72947380D01*
X137279285Y-72947380D01*
X137374523Y-72899761D01*
X137422142Y-72852142D01*
X137469761Y-72756904D01*
X137469761Y-72661666D01*
X137422142Y-72566428D01*
X137374523Y-72518809D01*
X137279285Y-72471190D01*
X137088809Y-72423571D01*
X136993571Y-72375952D01*
X136945952Y-72328333D01*
X136898333Y-72233095D01*
X136898333Y-72137857D01*
X136945952Y-72042619D01*
X136993571Y-71995000D01*
X137088809Y-71947380D01*
X137326904Y-71947380D01*
X137469761Y-71995000D01*
X137850714Y-72899761D02*
X137993571Y-72947380D01*
X138231666Y-72947380D01*
X138326904Y-72899761D01*
X138374523Y-72852142D01*
X138422142Y-72756904D01*
X138422142Y-72661666D01*
X138374523Y-72566428D01*
X138326904Y-72518809D01*
X138231666Y-72471190D01*
X138041190Y-72423571D01*
X137945952Y-72375952D01*
X137898333Y-72328333D01*
X137850714Y-72233095D01*
X137850714Y-72137857D01*
X137898333Y-72042619D01*
X137945952Y-71995000D01*
X138041190Y-71947380D01*
X138279285Y-71947380D01*
X138422142Y-71995000D01*
X139898333Y-71947380D02*
X139898333Y-72661666D01*
X139850714Y-72804523D01*
X139755476Y-72899761D01*
X139612619Y-72947380D01*
X139517380Y-72947380D01*
X140374523Y-72947380D02*
X140374523Y-71947380D01*
X140707857Y-72661666D01*
X141041190Y-71947380D01*
X141041190Y-72947380D01*
X141517380Y-72947380D02*
X141517380Y-71947380D01*
X141898333Y-71947380D01*
X141993571Y-71995000D01*
X142041190Y-72042619D01*
X142088809Y-72137857D01*
X142088809Y-72280714D01*
X142041190Y-72375952D01*
X141993571Y-72423571D01*
X141898333Y-72471190D01*
X141517380Y-72471190D01*
X110555638Y-69127666D02*
X111031828Y-69127666D01*
X110460400Y-69413380D02*
X110793733Y-68413380D01*
X111127066Y-69413380D01*
X111460400Y-69413380D02*
X111460400Y-68413380D01*
X111793733Y-69127666D01*
X112127066Y-68413380D01*
X112127066Y-69413380D01*
X112603257Y-69413380D02*
X112603257Y-68413380D01*
X112984209Y-68413380D01*
X113079447Y-68461000D01*
X113127066Y-68508619D01*
X113174685Y-68603857D01*
X113174685Y-68746714D01*
X113127066Y-68841952D01*
X113079447Y-68889571D01*
X112984209Y-68937190D01*
X112603257Y-68937190D01*
X114365161Y-69413380D02*
X114365161Y-68413380D01*
X114841352Y-69413380D02*
X114841352Y-68413380D01*
X115412780Y-69413380D01*
X115412780Y-68413380D01*
X116650876Y-69413380D02*
X116650876Y-68413380D01*
X117031828Y-68413380D01*
X117127066Y-68461000D01*
X117174685Y-68508619D01*
X117222304Y-68603857D01*
X117222304Y-68746714D01*
X117174685Y-68841952D01*
X117127066Y-68889571D01*
X117031828Y-68937190D01*
X116650876Y-68937190D01*
X117555638Y-68413380D02*
X117793733Y-69413380D01*
X117984209Y-68699095D01*
X118174685Y-69413380D01*
X118412780Y-68413380D01*
X119365161Y-69413380D02*
X119031828Y-68937190D01*
X118793733Y-69413380D02*
X118793733Y-68413380D01*
X119174685Y-68413380D01*
X119269923Y-68461000D01*
X119317542Y-68508619D01*
X119365161Y-68603857D01*
X119365161Y-68746714D01*
X119317542Y-68841952D01*
X119269923Y-68889571D01*
X119174685Y-68937190D01*
X118793733Y-68937190D01*
X151393047Y-57881780D02*
X151393047Y-56881780D01*
X151774000Y-56881780D01*
X151869238Y-56929400D01*
X151916857Y-56977019D01*
X151964476Y-57072257D01*
X151964476Y-57215114D01*
X151916857Y-57310352D01*
X151869238Y-57357971D01*
X151774000Y-57405590D01*
X151393047Y-57405590D01*
X152393047Y-57881780D02*
X152393047Y-57215114D01*
X152393047Y-57405590D02*
X152440666Y-57310352D01*
X152488285Y-57262733D01*
X152583523Y-57215114D01*
X152678761Y-57215114D01*
X153393047Y-57834161D02*
X153297809Y-57881780D01*
X153107333Y-57881780D01*
X153012095Y-57834161D01*
X152964476Y-57738923D01*
X152964476Y-57357971D01*
X153012095Y-57262733D01*
X153107333Y-57215114D01*
X153297809Y-57215114D01*
X153393047Y-57262733D01*
X153440666Y-57357971D01*
X153440666Y-57453209D01*
X152964476Y-57548447D01*
X154297809Y-57834161D02*
X154202571Y-57881780D01*
X154012095Y-57881780D01*
X153916857Y-57834161D01*
X153869238Y-57786542D01*
X153821619Y-57691304D01*
X153821619Y-57405590D01*
X153869238Y-57310352D01*
X153916857Y-57262733D01*
X154012095Y-57215114D01*
X154202571Y-57215114D01*
X154297809Y-57262733D01*
X154726380Y-57881780D02*
X154726380Y-57215114D01*
X154726380Y-56881780D02*
X154678761Y-56929400D01*
X154726380Y-56977019D01*
X154774000Y-56929400D01*
X154726380Y-56881780D01*
X154726380Y-56977019D01*
X155154952Y-57834161D02*
X155250190Y-57881780D01*
X155440666Y-57881780D01*
X155535904Y-57834161D01*
X155583523Y-57738923D01*
X155583523Y-57691304D01*
X155535904Y-57596066D01*
X155440666Y-57548447D01*
X155297809Y-57548447D01*
X155202571Y-57500828D01*
X155154952Y-57405590D01*
X155154952Y-57357971D01*
X155202571Y-57262733D01*
X155297809Y-57215114D01*
X155440666Y-57215114D01*
X155535904Y-57262733D01*
X156012095Y-57881780D02*
X156012095Y-57215114D01*
X156012095Y-56881780D02*
X155964476Y-56929400D01*
X156012095Y-56977019D01*
X156059714Y-56929400D01*
X156012095Y-56881780D01*
X156012095Y-56977019D01*
X156631142Y-57881780D02*
X156535904Y-57834161D01*
X156488285Y-57786542D01*
X156440666Y-57691304D01*
X156440666Y-57405590D01*
X156488285Y-57310352D01*
X156535904Y-57262733D01*
X156631142Y-57215114D01*
X156774000Y-57215114D01*
X156869238Y-57262733D01*
X156916857Y-57310352D01*
X156964476Y-57405590D01*
X156964476Y-57691304D01*
X156916857Y-57786542D01*
X156869238Y-57834161D01*
X156774000Y-57881780D01*
X156631142Y-57881780D01*
X157393047Y-57215114D02*
X157393047Y-57881780D01*
X157393047Y-57310352D02*
X157440666Y-57262733D01*
X157535904Y-57215114D01*
X157678761Y-57215114D01*
X157774000Y-57262733D01*
X157821619Y-57357971D01*
X157821619Y-57881780D01*
X159059714Y-57881780D02*
X159059714Y-56881780D01*
X159440666Y-56881780D01*
X159535904Y-56929400D01*
X159583523Y-56977019D01*
X159631142Y-57072257D01*
X159631142Y-57215114D01*
X159583523Y-57310352D01*
X159535904Y-57357971D01*
X159440666Y-57405590D01*
X159059714Y-57405590D01*
X160440666Y-57834161D02*
X160345428Y-57881780D01*
X160154952Y-57881780D01*
X160059714Y-57834161D01*
X160012095Y-57738923D01*
X160012095Y-57357971D01*
X160059714Y-57262733D01*
X160154952Y-57215114D01*
X160345428Y-57215114D01*
X160440666Y-57262733D01*
X160488285Y-57357971D01*
X160488285Y-57453209D01*
X160012095Y-57548447D01*
X161345428Y-57881780D02*
X161345428Y-57357971D01*
X161297809Y-57262733D01*
X161202571Y-57215114D01*
X161012095Y-57215114D01*
X160916857Y-57262733D01*
X161345428Y-57834161D02*
X161250190Y-57881780D01*
X161012095Y-57881780D01*
X160916857Y-57834161D01*
X160869238Y-57738923D01*
X160869238Y-57643685D01*
X160916857Y-57548447D01*
X161012095Y-57500828D01*
X161250190Y-57500828D01*
X161345428Y-57453209D01*
X161821619Y-57881780D02*
X161821619Y-56881780D01*
X161916857Y-57500828D02*
X162202571Y-57881780D01*
X162202571Y-57215114D02*
X161821619Y-57596066D01*
X163393047Y-57881780D02*
X163393047Y-56881780D01*
X163631142Y-56881780D01*
X163774000Y-56929400D01*
X163869238Y-57024638D01*
X163916857Y-57119876D01*
X163964476Y-57310352D01*
X163964476Y-57453209D01*
X163916857Y-57643685D01*
X163869238Y-57738923D01*
X163774000Y-57834161D01*
X163631142Y-57881780D01*
X163393047Y-57881780D01*
X164774000Y-57834161D02*
X164678761Y-57881780D01*
X164488285Y-57881780D01*
X164393047Y-57834161D01*
X164345428Y-57738923D01*
X164345428Y-57357971D01*
X164393047Y-57262733D01*
X164488285Y-57215114D01*
X164678761Y-57215114D01*
X164774000Y-57262733D01*
X164821619Y-57357971D01*
X164821619Y-57453209D01*
X164345428Y-57548447D01*
X165107333Y-57215114D02*
X165488285Y-57215114D01*
X165250190Y-56881780D02*
X165250190Y-57738923D01*
X165297809Y-57834161D01*
X165393047Y-57881780D01*
X165488285Y-57881780D01*
X166202571Y-57834161D02*
X166107333Y-57881780D01*
X165916857Y-57881780D01*
X165821619Y-57834161D01*
X165774000Y-57738923D01*
X165774000Y-57357971D01*
X165821619Y-57262733D01*
X165916857Y-57215114D01*
X166107333Y-57215114D01*
X166202571Y-57262733D01*
X166250190Y-57357971D01*
X166250190Y-57453209D01*
X165774000Y-57548447D01*
X167107333Y-57834161D02*
X167012095Y-57881780D01*
X166821619Y-57881780D01*
X166726380Y-57834161D01*
X166678761Y-57786542D01*
X166631142Y-57691304D01*
X166631142Y-57405590D01*
X166678761Y-57310352D01*
X166726380Y-57262733D01*
X166821619Y-57215114D01*
X167012095Y-57215114D01*
X167107333Y-57262733D01*
X167393047Y-57215114D02*
X167774000Y-57215114D01*
X167535904Y-56881780D02*
X167535904Y-57738923D01*
X167583523Y-57834161D01*
X167678761Y-57881780D01*
X167774000Y-57881780D01*
X168250190Y-57881780D02*
X168154952Y-57834161D01*
X168107333Y-57786542D01*
X168059714Y-57691304D01*
X168059714Y-57405590D01*
X168107333Y-57310352D01*
X168154952Y-57262733D01*
X168250190Y-57215114D01*
X168393047Y-57215114D01*
X168488285Y-57262733D01*
X168535904Y-57310352D01*
X168583523Y-57405590D01*
X168583523Y-57691304D01*
X168535904Y-57786542D01*
X168488285Y-57834161D01*
X168393047Y-57881780D01*
X168250190Y-57881780D01*
X169012095Y-57881780D02*
X169012095Y-57215114D01*
X169012095Y-57405590D02*
X169059714Y-57310352D01*
X169107333Y-57262733D01*
X169202571Y-57215114D01*
X169297809Y-57215114D01*
X159281904Y-69667380D02*
X159281904Y-68667380D01*
X159520000Y-68667380D01*
X159662857Y-68715000D01*
X159758095Y-68810238D01*
X159805714Y-68905476D01*
X159853333Y-69095952D01*
X159853333Y-69238809D01*
X159805714Y-69429285D01*
X159758095Y-69524523D01*
X159662857Y-69619761D01*
X159520000Y-69667380D01*
X159281904Y-69667380D01*
X160805714Y-69667380D02*
X160234285Y-69667380D01*
X160520000Y-69667380D02*
X160520000Y-68667380D01*
X160424761Y-68810238D01*
X160329523Y-68905476D01*
X160234285Y-68953095D01*
X118124600Y-59100980D02*
X117648409Y-59100980D01*
X117648409Y-58100980D01*
X118791266Y-58577171D02*
X118457933Y-58577171D01*
X118457933Y-59100980D02*
X118457933Y-58100980D01*
X118934123Y-58100980D01*
X119267457Y-59053361D02*
X119410314Y-59100980D01*
X119648409Y-59100980D01*
X119743647Y-59053361D01*
X119791266Y-59005742D01*
X119838885Y-58910504D01*
X119838885Y-58815266D01*
X119791266Y-58720028D01*
X119743647Y-58672409D01*
X119648409Y-58624790D01*
X119457933Y-58577171D01*
X119362695Y-58529552D01*
X119315076Y-58481933D01*
X119267457Y-58386695D01*
X119267457Y-58291457D01*
X119315076Y-58196219D01*
X119362695Y-58148600D01*
X119457933Y-58100980D01*
X119696028Y-58100980D01*
X119838885Y-58148600D01*
X120791266Y-59100980D02*
X120219838Y-59100980D01*
X120505552Y-59100980D02*
X120505552Y-58100980D01*
X120410314Y-58243838D01*
X120315076Y-58339076D01*
X120219838Y-58386695D01*
X121696028Y-58100980D02*
X121219838Y-58100980D01*
X121172219Y-58577171D01*
X121219838Y-58529552D01*
X121315076Y-58481933D01*
X121553171Y-58481933D01*
X121648409Y-58529552D01*
X121696028Y-58577171D01*
X121743647Y-58672409D01*
X121743647Y-58910504D01*
X121696028Y-59005742D01*
X121648409Y-59053361D01*
X121553171Y-59100980D01*
X121315076Y-59100980D01*
X121219838Y-59053361D01*
X121172219Y-59005742D01*
X122362695Y-58100980D02*
X122457933Y-58100980D01*
X122553171Y-58148600D01*
X122600790Y-58196219D01*
X122648409Y-58291457D01*
X122696028Y-58481933D01*
X122696028Y-58720028D01*
X122648409Y-58910504D01*
X122600790Y-59005742D01*
X122553171Y-59053361D01*
X122457933Y-59100980D01*
X122362695Y-59100980D01*
X122267457Y-59053361D01*
X122219838Y-59005742D01*
X122172219Y-58910504D01*
X122124600Y-58720028D01*
X122124600Y-58481933D01*
X122172219Y-58291457D01*
X122219838Y-58196219D01*
X122267457Y-58148600D01*
X122362695Y-58100980D01*
X123600790Y-58100980D02*
X123124600Y-58100980D01*
X123076980Y-58577171D01*
X123124600Y-58529552D01*
X123219838Y-58481933D01*
X123457933Y-58481933D01*
X123553171Y-58529552D01*
X123600790Y-58577171D01*
X123648409Y-58672409D01*
X123648409Y-58910504D01*
X123600790Y-59005742D01*
X123553171Y-59053361D01*
X123457933Y-59100980D01*
X123219838Y-59100980D01*
X123124600Y-59053361D01*
X123076980Y-59005742D01*
X105387142Y-71286666D02*
X105434761Y-71334285D01*
X105482380Y-71477142D01*
X105482380Y-71572380D01*
X105434761Y-71715238D01*
X105339523Y-71810476D01*
X105244285Y-71858095D01*
X105053809Y-71905714D01*
X104910952Y-71905714D01*
X104720476Y-71858095D01*
X104625238Y-71810476D01*
X104530000Y-71715238D01*
X104482380Y-71572380D01*
X104482380Y-71477142D01*
X104530000Y-71334285D01*
X104577619Y-71286666D01*
X105482380Y-70334285D02*
X105482380Y-70905714D01*
X105482380Y-70620000D02*
X104482380Y-70620000D01*
X104625238Y-70715238D01*
X104720476Y-70810476D01*
X104768095Y-70905714D01*
X123268333Y-60937142D02*
X123220714Y-60984761D01*
X123077857Y-61032380D01*
X122982619Y-61032380D01*
X122839761Y-60984761D01*
X122744523Y-60889523D01*
X122696904Y-60794285D01*
X122649285Y-60603809D01*
X122649285Y-60460952D01*
X122696904Y-60270476D01*
X122744523Y-60175238D01*
X122839761Y-60080000D01*
X122982619Y-60032380D01*
X123077857Y-60032380D01*
X123220714Y-60080000D01*
X123268333Y-60127619D01*
X123649285Y-60127619D02*
X123696904Y-60080000D01*
X123792142Y-60032380D01*
X124030238Y-60032380D01*
X124125476Y-60080000D01*
X124173095Y-60127619D01*
X124220714Y-60222857D01*
X124220714Y-60318095D01*
X124173095Y-60460952D01*
X123601666Y-61032380D01*
X124220714Y-61032380D01*
X147788333Y-71477142D02*
X147740714Y-71524761D01*
X147597857Y-71572380D01*
X147502619Y-71572380D01*
X147359761Y-71524761D01*
X147264523Y-71429523D01*
X147216904Y-71334285D01*
X147169285Y-71143809D01*
X147169285Y-71000952D01*
X147216904Y-70810476D01*
X147264523Y-70715238D01*
X147359761Y-70620000D01*
X147502619Y-70572380D01*
X147597857Y-70572380D01*
X147740714Y-70620000D01*
X147788333Y-70667619D01*
X148121666Y-70572380D02*
X148740714Y-70572380D01*
X148407380Y-70953333D01*
X148550238Y-70953333D01*
X148645476Y-71000952D01*
X148693095Y-71048571D01*
X148740714Y-71143809D01*
X148740714Y-71381904D01*
X148693095Y-71477142D01*
X148645476Y-71524761D01*
X148550238Y-71572380D01*
X148264523Y-71572380D01*
X148169285Y-71524761D01*
X148121666Y-71477142D01*
X153503333Y-71332142D02*
X153455714Y-71379761D01*
X153312857Y-71427380D01*
X153217619Y-71427380D01*
X153074761Y-71379761D01*
X152979523Y-71284523D01*
X152931904Y-71189285D01*
X152884285Y-70998809D01*
X152884285Y-70855952D01*
X152931904Y-70665476D01*
X152979523Y-70570238D01*
X153074761Y-70475000D01*
X153217619Y-70427380D01*
X153312857Y-70427380D01*
X153455714Y-70475000D01*
X153503333Y-70522619D01*
X154360476Y-70760714D02*
X154360476Y-71427380D01*
X154122380Y-70379761D02*
X153884285Y-71094047D01*
X154503333Y-71094047D01*
X176363333Y-70842142D02*
X176315714Y-70889761D01*
X176172857Y-70937380D01*
X176077619Y-70937380D01*
X175934761Y-70889761D01*
X175839523Y-70794523D01*
X175791904Y-70699285D01*
X175744285Y-70508809D01*
X175744285Y-70365952D01*
X175791904Y-70175476D01*
X175839523Y-70080238D01*
X175934761Y-69985000D01*
X176077619Y-69937380D01*
X176172857Y-69937380D01*
X176315714Y-69985000D01*
X176363333Y-70032619D01*
X177268095Y-69937380D02*
X176791904Y-69937380D01*
X176744285Y-70413571D01*
X176791904Y-70365952D01*
X176887142Y-70318333D01*
X177125238Y-70318333D01*
X177220476Y-70365952D01*
X177268095Y-70413571D01*
X177315714Y-70508809D01*
X177315714Y-70746904D01*
X177268095Y-70842142D01*
X177220476Y-70889761D01*
X177125238Y-70937380D01*
X176887142Y-70937380D01*
X176791904Y-70889761D01*
X176744285Y-70842142D01*
X170648333Y-62587142D02*
X170600714Y-62634761D01*
X170457857Y-62682380D01*
X170362619Y-62682380D01*
X170219761Y-62634761D01*
X170124523Y-62539523D01*
X170076904Y-62444285D01*
X170029285Y-62253809D01*
X170029285Y-62110952D01*
X170076904Y-61920476D01*
X170124523Y-61825238D01*
X170219761Y-61730000D01*
X170362619Y-61682380D01*
X170457857Y-61682380D01*
X170600714Y-61730000D01*
X170648333Y-61777619D01*
X171505476Y-61682380D02*
X171315000Y-61682380D01*
X171219761Y-61730000D01*
X171172142Y-61777619D01*
X171076904Y-61920476D01*
X171029285Y-62110952D01*
X171029285Y-62491904D01*
X171076904Y-62587142D01*
X171124523Y-62634761D01*
X171219761Y-62682380D01*
X171410238Y-62682380D01*
X171505476Y-62634761D01*
X171553095Y-62587142D01*
X171600714Y-62491904D01*
X171600714Y-62253809D01*
X171553095Y-62158571D01*
X171505476Y-62110952D01*
X171410238Y-62063333D01*
X171219761Y-62063333D01*
X171124523Y-62110952D01*
X171076904Y-62158571D01*
X171029285Y-62253809D01*
X161821904Y-63317380D02*
X161821904Y-62317380D01*
X162060000Y-62317380D01*
X162202857Y-62365000D01*
X162298095Y-62460238D01*
X162345714Y-62555476D01*
X162393333Y-62745952D01*
X162393333Y-62888809D01*
X162345714Y-63079285D01*
X162298095Y-63174523D01*
X162202857Y-63269761D01*
X162060000Y-63317380D01*
X161821904Y-63317380D01*
X162774285Y-62412619D02*
X162821904Y-62365000D01*
X162917142Y-62317380D01*
X163155238Y-62317380D01*
X163250476Y-62365000D01*
X163298095Y-62412619D01*
X163345714Y-62507857D01*
X163345714Y-62603095D01*
X163298095Y-62745952D01*
X162726666Y-63317380D01*
X163345714Y-63317380D01*
X113108333Y-67127380D02*
X112775000Y-66651190D01*
X112536904Y-67127380D02*
X112536904Y-66127380D01*
X112917857Y-66127380D01*
X113013095Y-66175000D01*
X113060714Y-66222619D01*
X113108333Y-66317857D01*
X113108333Y-66460714D01*
X113060714Y-66555952D01*
X113013095Y-66603571D01*
X112917857Y-66651190D01*
X112536904Y-66651190D01*
X114060714Y-67127380D02*
X113489285Y-67127380D01*
X113775000Y-67127380D02*
X113775000Y-66127380D01*
X113679761Y-66270238D01*
X113584523Y-66365476D01*
X113489285Y-66413095D01*
X132158333Y-64207380D02*
X131825000Y-63731190D01*
X131586904Y-64207380D02*
X131586904Y-63207380D01*
X131967857Y-63207380D01*
X132063095Y-63255000D01*
X132110714Y-63302619D01*
X132158333Y-63397857D01*
X132158333Y-63540714D01*
X132110714Y-63635952D01*
X132063095Y-63683571D01*
X131967857Y-63731190D01*
X131586904Y-63731190D01*
X132539285Y-63302619D02*
X132586904Y-63255000D01*
X132682142Y-63207380D01*
X132920238Y-63207380D01*
X133015476Y-63255000D01*
X133063095Y-63302619D01*
X133110714Y-63397857D01*
X133110714Y-63493095D01*
X133063095Y-63635952D01*
X132491666Y-64207380D01*
X133110714Y-64207380D01*
X121566533Y-72561980D02*
X121233200Y-72085790D01*
X120995104Y-72561980D02*
X120995104Y-71561980D01*
X121376057Y-71561980D01*
X121471295Y-71609600D01*
X121518914Y-71657219D01*
X121566533Y-71752457D01*
X121566533Y-71895314D01*
X121518914Y-71990552D01*
X121471295Y-72038171D01*
X121376057Y-72085790D01*
X120995104Y-72085790D01*
X121899866Y-71561980D02*
X122518914Y-71561980D01*
X122185580Y-71942933D01*
X122328438Y-71942933D01*
X122423676Y-71990552D01*
X122471295Y-72038171D01*
X122518914Y-72133409D01*
X122518914Y-72371504D01*
X122471295Y-72466742D01*
X122423676Y-72514361D01*
X122328438Y-72561980D01*
X122042723Y-72561980D01*
X121947485Y-72514361D01*
X121899866Y-72466742D01*
X144613333Y-58872380D02*
X144280000Y-58396190D01*
X144041904Y-58872380D02*
X144041904Y-57872380D01*
X144422857Y-57872380D01*
X144518095Y-57920000D01*
X144565714Y-57967619D01*
X144613333Y-58062857D01*
X144613333Y-58205714D01*
X144565714Y-58300952D01*
X144518095Y-58348571D01*
X144422857Y-58396190D01*
X144041904Y-58396190D01*
X145470476Y-58205714D02*
X145470476Y-58872380D01*
X145232380Y-57824761D02*
X144994285Y-58539047D01*
X145613333Y-58539047D01*
X166448333Y-65857380D02*
X166115000Y-65381190D01*
X165876904Y-65857380D02*
X165876904Y-64857380D01*
X166257857Y-64857380D01*
X166353095Y-64905000D01*
X166400714Y-64952619D01*
X166448333Y-65047857D01*
X166448333Y-65190714D01*
X166400714Y-65285952D01*
X166353095Y-65333571D01*
X166257857Y-65381190D01*
X165876904Y-65381190D01*
X167353095Y-64857380D02*
X166876904Y-64857380D01*
X166829285Y-65333571D01*
X166876904Y-65285952D01*
X166972142Y-65238333D01*
X167210238Y-65238333D01*
X167305476Y-65285952D01*
X167353095Y-65333571D01*
X167400714Y-65428809D01*
X167400714Y-65666904D01*
X167353095Y-65762142D01*
X167305476Y-65809761D01*
X167210238Y-65857380D01*
X166972142Y-65857380D01*
X166876904Y-65809761D01*
X166829285Y-65762142D01*
X109042295Y-63841380D02*
X109042295Y-64650904D01*
X109089914Y-64746142D01*
X109137533Y-64793761D01*
X109232771Y-64841380D01*
X109423247Y-64841380D01*
X109518485Y-64793761D01*
X109566104Y-64746142D01*
X109613723Y-64650904D01*
X109613723Y-63841380D01*
X110613723Y-64841380D02*
X110042295Y-64841380D01*
X110328009Y-64841380D02*
X110328009Y-63841380D01*
X110232771Y-63984238D01*
X110137533Y-64079476D01*
X110042295Y-64127095D01*
X127508095Y-66660780D02*
X127508095Y-67470304D01*
X127555714Y-67565542D01*
X127603333Y-67613161D01*
X127698571Y-67660780D01*
X127889047Y-67660780D01*
X127984285Y-67613161D01*
X128031904Y-67565542D01*
X128079523Y-67470304D01*
X128079523Y-66660780D01*
X128508095Y-66756019D02*
X128555714Y-66708400D01*
X128650952Y-66660780D01*
X128889047Y-66660780D01*
X128984285Y-66708400D01*
X129031904Y-66756019D01*
X129079523Y-66851257D01*
X129079523Y-66946495D01*
X129031904Y-67089352D01*
X128460476Y-67660780D01*
X129079523Y-67660780D01*
X147193095Y-62952380D02*
X147193095Y-63761904D01*
X147240714Y-63857142D01*
X147288333Y-63904761D01*
X147383571Y-63952380D01*
X147574047Y-63952380D01*
X147669285Y-63904761D01*
X147716904Y-63857142D01*
X147764523Y-63761904D01*
X147764523Y-62952380D01*
X148145476Y-62952380D02*
X148764523Y-62952380D01*
X148431190Y-63333333D01*
X148574047Y-63333333D01*
X148669285Y-63380952D01*
X148716904Y-63428571D01*
X148764523Y-63523809D01*
X148764523Y-63761904D01*
X148716904Y-63857142D01*
X148669285Y-63904761D01*
X148574047Y-63952380D01*
X148288333Y-63952380D01*
X148193095Y-63904761D01*
X148145476Y-63857142D01*
X157078095Y-62317380D02*
X157078095Y-63126904D01*
X157125714Y-63222142D01*
X157173333Y-63269761D01*
X157268571Y-63317380D01*
X157459047Y-63317380D01*
X157554285Y-63269761D01*
X157601904Y-63222142D01*
X157649523Y-63126904D01*
X157649523Y-62317380D01*
X158554285Y-62650714D02*
X158554285Y-63317380D01*
X158316190Y-62269761D02*
X158078095Y-62984047D01*
X158697142Y-62984047D01*
X175133095Y-64222380D02*
X175133095Y-65031904D01*
X175180714Y-65127142D01*
X175228333Y-65174761D01*
X175323571Y-65222380D01*
X175514047Y-65222380D01*
X175609285Y-65174761D01*
X175656904Y-65127142D01*
X175704523Y-65031904D01*
X175704523Y-64222380D01*
X176656904Y-64222380D02*
X176180714Y-64222380D01*
X176133095Y-64698571D01*
X176180714Y-64650952D01*
X176275952Y-64603333D01*
X176514047Y-64603333D01*
X176609285Y-64650952D01*
X176656904Y-64698571D01*
X176704523Y-64793809D01*
X176704523Y-65031904D01*
X176656904Y-65127142D01*
X176609285Y-65174761D01*
X176514047Y-65222380D01*
X176275952Y-65222380D01*
X176180714Y-65174761D01*
X176133095Y-65127142D01*
X103814761Y-57237380D02*
X104148095Y-58237380D01*
X104481428Y-57237380D01*
X105195714Y-58189761D02*
X105100476Y-58237380D01*
X104910000Y-58237380D01*
X104814761Y-58189761D01*
X104767142Y-58094523D01*
X104767142Y-57713571D01*
X104814761Y-57618333D01*
X104910000Y-57570714D01*
X105100476Y-57570714D01*
X105195714Y-57618333D01*
X105243333Y-57713571D01*
X105243333Y-57808809D01*
X104767142Y-57904047D01*
X105576666Y-58237380D02*
X106100476Y-57570714D01*
X105576666Y-57570714D02*
X106100476Y-58237380D01*
X106910000Y-58189761D02*
X106814761Y-58237380D01*
X106624285Y-58237380D01*
X106529047Y-58189761D01*
X106481428Y-58142142D01*
X106433809Y-58046904D01*
X106433809Y-57761190D01*
X106481428Y-57665952D01*
X106529047Y-57618333D01*
X106624285Y-57570714D01*
X106814761Y-57570714D01*
X106910000Y-57618333D01*
X110768095Y-57237380D02*
X111101428Y-58237380D01*
X111434761Y-57237380D01*
X111910952Y-58237380D02*
X111815714Y-58189761D01*
X111768095Y-58142142D01*
X111720476Y-58046904D01*
X111720476Y-57761190D01*
X111768095Y-57665952D01*
X111815714Y-57618333D01*
X111910952Y-57570714D01*
X112053809Y-57570714D01*
X112149047Y-57618333D01*
X112196666Y-57665952D01*
X112244285Y-57761190D01*
X112244285Y-58046904D01*
X112196666Y-58142142D01*
X112149047Y-58189761D01*
X112053809Y-58237380D01*
X111910952Y-58237380D01*
X113101428Y-57570714D02*
X113101428Y-58237380D01*
X112672857Y-57570714D02*
X112672857Y-58094523D01*
X112720476Y-58189761D01*
X112815714Y-58237380D01*
X112958571Y-58237380D01*
X113053809Y-58189761D01*
X113101428Y-58142142D01*
X113434761Y-57570714D02*
X113815714Y-57570714D01*
X113577619Y-57237380D02*
X113577619Y-58094523D01*
X113625238Y-58189761D01*
X113720476Y-58237380D01*
X113815714Y-58237380D01*
X114530000Y-58189761D02*
X114434761Y-58237380D01*
X114244285Y-58237380D01*
X114149047Y-58189761D01*
X114101428Y-58094523D01*
X114101428Y-57713571D01*
X114149047Y-57618333D01*
X114244285Y-57570714D01*
X114434761Y-57570714D01*
X114530000Y-57618333D01*
X114577619Y-57713571D01*
X114577619Y-57808809D01*
X114101428Y-57904047D01*
X115006190Y-58237380D02*
X115006190Y-57570714D01*
X115006190Y-57761190D02*
X115053809Y-57665952D01*
X115101428Y-57618333D01*
X115196666Y-57570714D01*
X115291904Y-57570714D01*
X171275714Y-57872380D02*
X171609047Y-58872380D01*
X171942380Y-57872380D01*
X172418571Y-58872380D02*
X172323333Y-58824761D01*
X172275714Y-58777142D01*
X172228095Y-58681904D01*
X172228095Y-58396190D01*
X172275714Y-58300952D01*
X172323333Y-58253333D01*
X172418571Y-58205714D01*
X172561428Y-58205714D01*
X172656666Y-58253333D01*
X172704285Y-58300952D01*
X172751904Y-58396190D01*
X172751904Y-58681904D01*
X172704285Y-58777142D01*
X172656666Y-58824761D01*
X172561428Y-58872380D01*
X172418571Y-58872380D01*
X173609047Y-58205714D02*
X173609047Y-58872380D01*
X173180476Y-58205714D02*
X173180476Y-58729523D01*
X173228095Y-58824761D01*
X173323333Y-58872380D01*
X173466190Y-58872380D01*
X173561428Y-58824761D01*
X173609047Y-58777142D01*
X173942380Y-58205714D02*
X174323333Y-58205714D01*
X174085238Y-57872380D02*
X174085238Y-58729523D01*
X174132857Y-58824761D01*
X174228095Y-58872380D01*
X174323333Y-58872380D01*
X174656666Y-58205714D02*
X174656666Y-59205714D01*
X174656666Y-58253333D02*
X174751904Y-58205714D01*
X174942380Y-58205714D01*
X175037619Y-58253333D01*
X175085238Y-58300952D01*
X175132857Y-58396190D01*
X175132857Y-58681904D01*
X175085238Y-58777142D01*
X175037619Y-58824761D01*
X174942380Y-58872380D01*
X174751904Y-58872380D01*
X174656666Y-58824761D01*
X175990000Y-58205714D02*
X175990000Y-58872380D01*
X175561428Y-58205714D02*
X175561428Y-58729523D01*
X175609047Y-58824761D01*
X175704285Y-58872380D01*
X175847142Y-58872380D01*
X175942380Y-58824761D01*
X175990000Y-58777142D01*
X176323333Y-58205714D02*
X176704285Y-58205714D01*
X176466190Y-57872380D02*
X176466190Y-58729523D01*
X176513809Y-58824761D01*
X176609047Y-58872380D01*
X176704285Y-58872380D01*
M02*
