G04 #@! TF.GenerationSoftware,KiCad,Pcbnew,(5.1.7)-1*
G04 #@! TF.CreationDate,2021-02-01T17:00:47-08:00*
G04 #@! TF.ProjectId,Conductivity_Sensor_v2,436f6e64-7563-4746-9976-6974795f5365,rev?*
G04 #@! TF.SameCoordinates,Original*
G04 #@! TF.FileFunction,Copper,L2,Bot*
G04 #@! TF.FilePolarity,Positive*
%FSLAX46Y46*%
G04 Gerber Fmt 4.6, Leading zero omitted, Abs format (unit mm)*
G04 Created by KiCad (PCBNEW (5.1.7)-1) date 2021-02-01 17:00:47*
%MOMM*%
%LPD*%
G01*
G04 APERTURE LIST*
G04 #@! TA.AperFunction,ComponentPad*
%ADD10O,1.700000X1.700000*%
G04 #@! TD*
G04 #@! TA.AperFunction,ComponentPad*
%ADD11R,1.700000X1.700000*%
G04 #@! TD*
G04 #@! TA.AperFunction,SMDPad,CuDef*
%ADD12R,0.650000X1.560000*%
G04 #@! TD*
G04 #@! TA.AperFunction,SMDPad,CuDef*
%ADD13R,1.560000X0.650000*%
G04 #@! TD*
G04 #@! TA.AperFunction,ViaPad*
%ADD14C,0.800000*%
G04 #@! TD*
G04 #@! TA.AperFunction,Conductor*
%ADD15C,0.250000*%
G04 #@! TD*
G04 APERTURE END LIST*
D10*
X144602200Y-54038500D03*
X144602200Y-56578500D03*
X144602200Y-59118500D03*
X144602200Y-61658500D03*
X144602200Y-64198500D03*
D11*
X144602200Y-66738500D03*
G04 #@! TA.AperFunction,SMDPad,CuDef*
G36*
G01*
X136024600Y-66162300D02*
X136974600Y-66162300D01*
G75*
G02*
X137224600Y-66412300I0J-250000D01*
G01*
X137224600Y-66912300D01*
G75*
G02*
X136974600Y-67162300I-250000J0D01*
G01*
X136024600Y-67162300D01*
G75*
G02*
X135774600Y-66912300I0J250000D01*
G01*
X135774600Y-66412300D01*
G75*
G02*
X136024600Y-66162300I250000J0D01*
G01*
G37*
G04 #@! TD.AperFunction*
G04 #@! TA.AperFunction,SMDPad,CuDef*
G36*
G01*
X136024600Y-64262300D02*
X136974600Y-64262300D01*
G75*
G02*
X137224600Y-64512300I0J-250000D01*
G01*
X137224600Y-65012300D01*
G75*
G02*
X136974600Y-65262300I-250000J0D01*
G01*
X136024600Y-65262300D01*
G75*
G02*
X135774600Y-65012300I0J250000D01*
G01*
X135774600Y-64512300D01*
G75*
G02*
X136024600Y-64262300I250000J0D01*
G01*
G37*
G04 #@! TD.AperFunction*
G04 #@! TA.AperFunction,SMDPad,CuDef*
G36*
G01*
X131224000Y-61813900D02*
X132174000Y-61813900D01*
G75*
G02*
X132424000Y-62063900I0J-250000D01*
G01*
X132424000Y-62563900D01*
G75*
G02*
X132174000Y-62813900I-250000J0D01*
G01*
X131224000Y-62813900D01*
G75*
G02*
X130974000Y-62563900I0J250000D01*
G01*
X130974000Y-62063900D01*
G75*
G02*
X131224000Y-61813900I250000J0D01*
G01*
G37*
G04 #@! TD.AperFunction*
G04 #@! TA.AperFunction,SMDPad,CuDef*
G36*
G01*
X131224000Y-59913900D02*
X132174000Y-59913900D01*
G75*
G02*
X132424000Y-60163900I0J-250000D01*
G01*
X132424000Y-60663900D01*
G75*
G02*
X132174000Y-60913900I-250000J0D01*
G01*
X131224000Y-60913900D01*
G75*
G02*
X130974000Y-60663900I0J250000D01*
G01*
X130974000Y-60163900D01*
G75*
G02*
X131224000Y-59913900I250000J0D01*
G01*
G37*
G04 #@! TD.AperFunction*
G04 #@! TA.AperFunction,SMDPad,CuDef*
G36*
G01*
X124899000Y-52598300D02*
X124899000Y-53548300D01*
G75*
G02*
X124649000Y-53798300I-250000J0D01*
G01*
X124149000Y-53798300D01*
G75*
G02*
X123899000Y-53548300I0J250000D01*
G01*
X123899000Y-52598300D01*
G75*
G02*
X124149000Y-52348300I250000J0D01*
G01*
X124649000Y-52348300D01*
G75*
G02*
X124899000Y-52598300I0J-250000D01*
G01*
G37*
G04 #@! TD.AperFunction*
G04 #@! TA.AperFunction,SMDPad,CuDef*
G36*
G01*
X126799000Y-52598300D02*
X126799000Y-53548300D01*
G75*
G02*
X126549000Y-53798300I-250000J0D01*
G01*
X126049000Y-53798300D01*
G75*
G02*
X125799000Y-53548300I0J250000D01*
G01*
X125799000Y-52598300D01*
G75*
G02*
X126049000Y-52348300I250000J0D01*
G01*
X126549000Y-52348300D01*
G75*
G02*
X126799000Y-52598300I0J-250000D01*
G01*
G37*
G04 #@! TD.AperFunction*
G04 #@! TA.AperFunction,SMDPad,CuDef*
G36*
G01*
X141292600Y-61894300D02*
X140342600Y-61894300D01*
G75*
G02*
X140092600Y-61644300I0J250000D01*
G01*
X140092600Y-61144300D01*
G75*
G02*
X140342600Y-60894300I250000J0D01*
G01*
X141292600Y-60894300D01*
G75*
G02*
X141542600Y-61144300I0J-250000D01*
G01*
X141542600Y-61644300D01*
G75*
G02*
X141292600Y-61894300I-250000J0D01*
G01*
G37*
G04 #@! TD.AperFunction*
G04 #@! TA.AperFunction,SMDPad,CuDef*
G36*
G01*
X141292600Y-63794300D02*
X140342600Y-63794300D01*
G75*
G02*
X140092600Y-63544300I0J250000D01*
G01*
X140092600Y-63044300D01*
G75*
G02*
X140342600Y-62794300I250000J0D01*
G01*
X141292600Y-62794300D01*
G75*
G02*
X141542600Y-63044300I0J-250000D01*
G01*
X141542600Y-63544300D01*
G75*
G02*
X141292600Y-63794300I-250000J0D01*
G01*
G37*
G04 #@! TD.AperFunction*
G04 #@! TA.AperFunction,SMDPad,CuDef*
G36*
G01*
X141343400Y-58109700D02*
X140393400Y-58109700D01*
G75*
G02*
X140143400Y-57859700I0J250000D01*
G01*
X140143400Y-57359700D01*
G75*
G02*
X140393400Y-57109700I250000J0D01*
G01*
X141343400Y-57109700D01*
G75*
G02*
X141593400Y-57359700I0J-250000D01*
G01*
X141593400Y-57859700D01*
G75*
G02*
X141343400Y-58109700I-250000J0D01*
G01*
G37*
G04 #@! TD.AperFunction*
G04 #@! TA.AperFunction,SMDPad,CuDef*
G36*
G01*
X141343400Y-60009700D02*
X140393400Y-60009700D01*
G75*
G02*
X140143400Y-59759700I0J250000D01*
G01*
X140143400Y-59259700D01*
G75*
G02*
X140393400Y-59009700I250000J0D01*
G01*
X141343400Y-59009700D01*
G75*
G02*
X141593400Y-59259700I0J-250000D01*
G01*
X141593400Y-59759700D01*
G75*
G02*
X141343400Y-60009700I-250000J0D01*
G01*
G37*
G04 #@! TD.AperFunction*
G04 #@! TA.AperFunction,SMDPad,CuDef*
G36*
G01*
X136380600Y-63327300D02*
X136380600Y-62377300D01*
G75*
G02*
X136630600Y-62127300I250000J0D01*
G01*
X137130600Y-62127300D01*
G75*
G02*
X137380600Y-62377300I0J-250000D01*
G01*
X137380600Y-63327300D01*
G75*
G02*
X137130600Y-63577300I-250000J0D01*
G01*
X136630600Y-63577300D01*
G75*
G02*
X136380600Y-63327300I0J250000D01*
G01*
G37*
G04 #@! TD.AperFunction*
G04 #@! TA.AperFunction,SMDPad,CuDef*
G36*
G01*
X134480600Y-63327300D02*
X134480600Y-62377300D01*
G75*
G02*
X134730600Y-62127300I250000J0D01*
G01*
X135230600Y-62127300D01*
G75*
G02*
X135480600Y-62377300I0J-250000D01*
G01*
X135480600Y-63327300D01*
G75*
G02*
X135230600Y-63577300I-250000J0D01*
G01*
X134730600Y-63577300D01*
G75*
G02*
X134480600Y-63327300I0J250000D01*
G01*
G37*
G04 #@! TD.AperFunction*
G04 #@! TA.AperFunction,SMDPad,CuDef*
G36*
G01*
X125153800Y-63301900D02*
X125153800Y-62351900D01*
G75*
G02*
X125403800Y-62101900I250000J0D01*
G01*
X125903800Y-62101900D01*
G75*
G02*
X126153800Y-62351900I0J-250000D01*
G01*
X126153800Y-63301900D01*
G75*
G02*
X125903800Y-63551900I-250000J0D01*
G01*
X125403800Y-63551900D01*
G75*
G02*
X125153800Y-63301900I0J250000D01*
G01*
G37*
G04 #@! TD.AperFunction*
G04 #@! TA.AperFunction,SMDPad,CuDef*
G36*
G01*
X123253800Y-63301900D02*
X123253800Y-62351900D01*
G75*
G02*
X123503800Y-62101900I250000J0D01*
G01*
X124003800Y-62101900D01*
G75*
G02*
X124253800Y-62351900I0J-250000D01*
G01*
X124253800Y-63301900D01*
G75*
G02*
X124003800Y-63551900I-250000J0D01*
G01*
X123503800Y-63551900D01*
G75*
G02*
X123253800Y-63301900I0J250000D01*
G01*
G37*
G04 #@! TD.AperFunction*
G04 #@! TA.AperFunction,SMDPad,CuDef*
G36*
G01*
X129827000Y-66274100D02*
X130777000Y-66274100D01*
G75*
G02*
X131027000Y-66524100I0J-250000D01*
G01*
X131027000Y-67024100D01*
G75*
G02*
X130777000Y-67274100I-250000J0D01*
G01*
X129827000Y-67274100D01*
G75*
G02*
X129577000Y-67024100I0J250000D01*
G01*
X129577000Y-66524100D01*
G75*
G02*
X129827000Y-66274100I250000J0D01*
G01*
G37*
G04 #@! TD.AperFunction*
G04 #@! TA.AperFunction,SMDPad,CuDef*
G36*
G01*
X129827000Y-64374100D02*
X130777000Y-64374100D01*
G75*
G02*
X131027000Y-64624100I0J-250000D01*
G01*
X131027000Y-65124100D01*
G75*
G02*
X130777000Y-65374100I-250000J0D01*
G01*
X129827000Y-65374100D01*
G75*
G02*
X129577000Y-65124100I0J250000D01*
G01*
X129577000Y-64624100D01*
G75*
G02*
X129827000Y-64374100I250000J0D01*
G01*
G37*
G04 #@! TD.AperFunction*
G04 #@! TA.AperFunction,SMDPad,CuDef*
G36*
G01*
X128049000Y-54097300D02*
X128999000Y-54097300D01*
G75*
G02*
X129249000Y-54347300I0J-250000D01*
G01*
X129249000Y-54847300D01*
G75*
G02*
X128999000Y-55097300I-250000J0D01*
G01*
X128049000Y-55097300D01*
G75*
G02*
X127799000Y-54847300I0J250000D01*
G01*
X127799000Y-54347300D01*
G75*
G02*
X128049000Y-54097300I250000J0D01*
G01*
G37*
G04 #@! TD.AperFunction*
G04 #@! TA.AperFunction,SMDPad,CuDef*
G36*
G01*
X128049000Y-52197300D02*
X128999000Y-52197300D01*
G75*
G02*
X129249000Y-52447300I0J-250000D01*
G01*
X129249000Y-52947300D01*
G75*
G02*
X128999000Y-53197300I-250000J0D01*
G01*
X128049000Y-53197300D01*
G75*
G02*
X127799000Y-52947300I0J250000D01*
G01*
X127799000Y-52447300D01*
G75*
G02*
X128049000Y-52197300I250000J0D01*
G01*
G37*
G04 #@! TD.AperFunction*
D12*
X134462600Y-65587900D03*
X132562600Y-65587900D03*
X132562600Y-68287900D03*
X133512600Y-68287900D03*
X134462600Y-68287900D03*
D10*
X114300000Y-61531500D03*
D11*
X114300000Y-58991500D03*
G04 #@! TA.AperFunction,SMDPad,CuDef*
G36*
G01*
X128202600Y-68117299D02*
X128202600Y-69017301D01*
G75*
G02*
X127952601Y-69267300I-249999J0D01*
G01*
X127302599Y-69267300D01*
G75*
G02*
X127052600Y-69017301I0J249999D01*
G01*
X127052600Y-68117299D01*
G75*
G02*
X127302599Y-67867300I249999J0D01*
G01*
X127952601Y-67867300D01*
G75*
G02*
X128202600Y-68117299I0J-249999D01*
G01*
G37*
G04 #@! TD.AperFunction*
G04 #@! TA.AperFunction,SMDPad,CuDef*
G36*
G01*
X126152600Y-68117299D02*
X126152600Y-69017301D01*
G75*
G02*
X125902601Y-69267300I-249999J0D01*
G01*
X125252599Y-69267300D01*
G75*
G02*
X125002600Y-69017301I0J249999D01*
G01*
X125002600Y-68117299D01*
G75*
G02*
X125252599Y-67867300I249999J0D01*
G01*
X125902601Y-67867300D01*
G75*
G02*
X126152600Y-68117299I0J-249999D01*
G01*
G37*
G04 #@! TD.AperFunction*
G04 #@! TA.AperFunction,SMDPad,CuDef*
G36*
G01*
X133433399Y-58178900D02*
X134333401Y-58178900D01*
G75*
G02*
X134583400Y-58428899I0J-249999D01*
G01*
X134583400Y-59078901D01*
G75*
G02*
X134333401Y-59328900I-249999J0D01*
G01*
X133433399Y-59328900D01*
G75*
G02*
X133183400Y-59078901I0J249999D01*
G01*
X133183400Y-58428899D01*
G75*
G02*
X133433399Y-58178900I249999J0D01*
G01*
G37*
G04 #@! TD.AperFunction*
G04 #@! TA.AperFunction,SMDPad,CuDef*
G36*
G01*
X133433399Y-60228900D02*
X134333401Y-60228900D01*
G75*
G02*
X134583400Y-60478899I0J-249999D01*
G01*
X134583400Y-61128901D01*
G75*
G02*
X134333401Y-61378900I-249999J0D01*
G01*
X133433399Y-61378900D01*
G75*
G02*
X133183400Y-61128901I0J249999D01*
G01*
X133183400Y-60478899D01*
G75*
G02*
X133433399Y-60228900I249999J0D01*
G01*
G37*
G04 #@! TD.AperFunction*
D13*
X127969000Y-64823300D03*
X127969000Y-65773300D03*
X127969000Y-66723300D03*
X125269000Y-66723300D03*
X125269000Y-64823300D03*
D12*
X138745000Y-59985900D03*
X137795000Y-59985900D03*
X136845000Y-59985900D03*
X136845000Y-57285900D03*
X138745000Y-57285900D03*
D14*
X128574510Y-56541510D03*
X127431800Y-63284100D03*
X142519400Y-60109100D03*
X140182600Y-56324500D03*
X129844800Y-53225700D03*
X140030200Y-52870100D03*
X129421253Y-67842290D03*
X120763751Y-66919437D03*
X130708400Y-69225000D03*
X131800600Y-59169300D03*
X139293600Y-53987700D03*
X131318000Y-53581300D03*
X135636000Y-61328300D03*
X142798800Y-62369700D03*
X136982200Y-61429900D03*
X139065000Y-63106300D03*
X132525610Y-63766700D03*
X136372600Y-68059300D03*
X129895600Y-54597300D03*
X130962400Y-63538100D03*
X123012200Y-54292500D03*
X140284200Y-66713100D03*
X131699000Y-66840100D03*
X121869200Y-67779900D03*
X138125200Y-61353700D03*
X122594210Y-66955946D03*
X142671800Y-55765700D03*
X118398400Y-57636300D03*
X123506390Y-55816500D03*
D15*
X128524000Y-56491000D02*
X128574510Y-56541510D01*
X128524000Y-54597300D02*
X128524000Y-56491000D01*
X128712000Y-63284100D02*
X127431800Y-63284100D01*
X130302000Y-64874100D02*
X128712000Y-63284100D01*
X125269000Y-63211700D02*
X125653800Y-62826900D01*
X125269000Y-64823300D02*
X125269000Y-63211700D01*
X126111000Y-63284100D02*
X125653800Y-62826900D01*
X127431800Y-63284100D02*
X126111000Y-63284100D01*
X134462600Y-63370300D02*
X134980600Y-62852300D01*
X134462600Y-65587900D02*
X134462600Y-63370300D01*
X140544600Y-57285900D02*
X140868400Y-57609700D01*
X138745000Y-57285900D02*
X140544600Y-57285900D01*
X143052800Y-60109100D02*
X142519400Y-60109100D01*
X144602200Y-61658500D02*
X143052800Y-60109100D01*
X140182600Y-56923900D02*
X140868400Y-57609700D01*
X140182600Y-56324500D02*
X140182600Y-56923900D01*
X128524000Y-54597300D02*
X128524000Y-54546500D01*
X128524000Y-54546500D02*
X129844800Y-53225700D01*
X140030200Y-56172100D02*
X140182600Y-56324500D01*
X140030200Y-52870100D02*
X140030200Y-56172100D01*
X140672800Y-65587900D02*
X144602200Y-61658500D01*
X134462600Y-65587900D02*
X140672800Y-65587900D01*
X129489200Y-67586900D02*
X130302000Y-66774100D01*
X128625600Y-66723300D02*
X129489200Y-67586900D01*
X127969000Y-66723300D02*
X128625600Y-66723300D01*
X129489200Y-67586900D02*
X129489200Y-67774343D01*
X129489200Y-67774343D02*
X129421253Y-67842290D01*
X136499600Y-63233300D02*
X136880600Y-62852300D01*
X136499600Y-64762300D02*
X136499600Y-63233300D01*
X128148000Y-53073300D02*
X128524000Y-52697300D01*
X126299000Y-53073300D02*
X128148000Y-53073300D01*
X123753800Y-63929388D02*
X120763751Y-66919437D01*
X123753800Y-62826900D02*
X123753800Y-63929388D01*
X131800600Y-60312300D02*
X131699000Y-60413900D01*
X131800600Y-59169300D02*
X131800600Y-60312300D01*
X131800600Y-54927500D02*
X131800600Y-59169300D01*
X140868400Y-60845700D02*
X140690600Y-61023500D01*
X131800600Y-54902100D02*
X131800600Y-54927500D01*
X131318000Y-53581300D02*
X131800600Y-54902100D01*
X129022829Y-52198471D02*
X128524000Y-52697300D01*
X129935171Y-52198471D02*
X129022829Y-52198471D01*
X131318000Y-53581300D02*
X129935171Y-52198471D01*
X135636000Y-61607700D02*
X136880600Y-62852300D01*
X135636000Y-61328300D02*
X135636000Y-61607700D01*
X140868400Y-61343500D02*
X140817600Y-61394300D01*
X140868400Y-60667900D02*
X140868400Y-61343500D01*
X140868400Y-59509700D02*
X140868400Y-60667900D01*
X140868400Y-60667900D02*
X140868400Y-60845700D01*
X138025242Y-62852300D02*
X136880600Y-62852300D01*
X139483242Y-61394300D02*
X138025242Y-62852300D01*
X140817600Y-61394300D02*
X139483242Y-61394300D01*
X141793000Y-62369700D02*
X140817600Y-61394300D01*
X142798800Y-62369700D02*
X141793000Y-62369700D01*
X136845000Y-61292700D02*
X136982200Y-61429900D01*
X136845000Y-59985900D02*
X136845000Y-61292700D01*
X139253000Y-63294300D02*
X139065000Y-63106300D01*
X140817600Y-63294300D02*
X139253000Y-63294300D01*
X133883400Y-60803900D02*
X133883400Y-62408910D01*
X132562600Y-65587900D02*
X132562600Y-63803690D01*
X132562600Y-63803690D02*
X132525610Y-63766700D01*
X133883400Y-62408910D02*
X132525610Y-63766700D01*
X136144000Y-68287900D02*
X136372600Y-68059300D01*
X134462600Y-68287900D02*
X136144000Y-68287900D01*
X127228998Y-64823300D02*
X127969000Y-64823300D01*
X126863999Y-65188299D02*
X127228998Y-64823300D01*
X126863999Y-67803699D02*
X126863999Y-65188299D01*
X127627600Y-68567300D02*
X126863999Y-67803699D01*
X127627600Y-68567300D02*
X129844800Y-68567300D01*
X130124200Y-68287900D02*
X132562600Y-68287900D01*
X129844800Y-68567300D02*
X130124200Y-68287900D01*
X129895600Y-62471300D02*
X130962400Y-63538100D01*
X129895600Y-54597300D02*
X129895600Y-62471300D01*
X133512600Y-67257900D02*
X133512600Y-68287900D01*
X133609371Y-67161129D02*
X133512600Y-67257900D01*
X136000771Y-67161129D02*
X133609371Y-67161129D01*
X136499600Y-66662300D02*
X136000771Y-67161129D01*
X131699000Y-65112900D02*
X131699000Y-62313900D01*
X127969000Y-65773300D02*
X131038600Y-65773300D01*
X123179800Y-54292500D02*
X124399000Y-53073300D01*
X123012200Y-54292500D02*
X123179800Y-54292500D01*
X136550400Y-66713100D02*
X136499600Y-66662300D01*
X140284200Y-66713100D02*
X136550400Y-66713100D01*
X131521200Y-66662300D02*
X131699000Y-66840100D01*
X131521200Y-65290700D02*
X131521200Y-66662300D01*
X131038600Y-65773300D02*
X131521200Y-65290700D01*
X131521200Y-65290700D02*
X131699000Y-65112900D01*
X123012200Y-54292500D02*
X123367800Y-54292500D01*
X123367800Y-54292500D02*
X124231400Y-55156100D01*
X124231400Y-55156100D02*
X124578810Y-55503510D01*
X124578810Y-55503510D02*
X124578810Y-63901890D01*
X121869200Y-66611500D02*
X121869200Y-67779900D01*
X124578810Y-63901890D02*
X121869200Y-66611500D01*
X137795000Y-59985900D02*
X137795000Y-61023500D01*
X137795000Y-61023500D02*
X138125200Y-61353700D01*
X144602200Y-66249696D02*
X144602200Y-66738500D01*
X144576800Y-66713100D02*
X144602200Y-66738500D01*
X140284200Y-66713100D02*
X144576800Y-66713100D01*
X125577600Y-67031900D02*
X125269000Y-66723300D01*
X125577600Y-68567300D02*
X125577600Y-67031900D01*
X122826856Y-66723300D02*
X122594210Y-66955946D01*
X125269000Y-66723300D02*
X122826856Y-66723300D01*
X142671800Y-57188100D02*
X144602200Y-59118500D01*
X142671800Y-55765700D02*
X142671800Y-57188100D01*
X137075000Y-57285900D02*
X136845000Y-57285900D01*
X138745000Y-58955900D02*
X137075000Y-57285900D01*
X138745000Y-59985900D02*
X138745000Y-58955900D01*
X135351400Y-57285900D02*
X133883400Y-58753900D01*
X136845000Y-57285900D02*
X135351400Y-57285900D01*
X138745000Y-59985900D02*
X140086399Y-58644501D01*
X140086399Y-58644501D02*
X141417189Y-58644501D01*
X141417189Y-58644501D02*
X142069391Y-57992299D01*
X142069391Y-57992299D02*
X142069391Y-56414095D01*
X142069391Y-56414095D02*
X141768998Y-56113702D01*
X141768998Y-56113702D02*
X141768998Y-55417698D01*
X141768998Y-55417698D02*
X143148196Y-54038500D01*
X143148196Y-54038500D02*
X144602200Y-54038500D01*
X121686590Y-57636300D02*
X123506390Y-55816500D01*
X118398400Y-57636300D02*
X121686590Y-57636300D01*
M02*
