G04 #@! TF.GenerationSoftware,KiCad,Pcbnew,(5.1.7)-1*
G04 #@! TF.CreationDate,2021-02-01T17:00:47-08:00*
G04 #@! TF.ProjectId,Conductivity_Sensor_v2,436f6e64-7563-4746-9976-6974795f5365,rev?*
G04 #@! TF.SameCoordinates,Original*
G04 #@! TF.FileFunction,Paste,Bot*
G04 #@! TF.FilePolarity,Positive*
%FSLAX46Y46*%
G04 Gerber Fmt 4.6, Leading zero omitted, Abs format (unit mm)*
G04 Created by KiCad (PCBNEW (5.1.7)-1) date 2021-02-01 17:00:47*
%MOMM*%
%LPD*%
G01*
G04 APERTURE LIST*
%ADD10R,0.650000X1.560000*%
%ADD11R,1.560000X0.650000*%
G04 APERTURE END LIST*
G36*
G01*
X136024600Y-66162300D02*
X136974600Y-66162300D01*
G75*
G02*
X137224600Y-66412300I0J-250000D01*
G01*
X137224600Y-66912300D01*
G75*
G02*
X136974600Y-67162300I-250000J0D01*
G01*
X136024600Y-67162300D01*
G75*
G02*
X135774600Y-66912300I0J250000D01*
G01*
X135774600Y-66412300D01*
G75*
G02*
X136024600Y-66162300I250000J0D01*
G01*
G37*
G36*
G01*
X136024600Y-64262300D02*
X136974600Y-64262300D01*
G75*
G02*
X137224600Y-64512300I0J-250000D01*
G01*
X137224600Y-65012300D01*
G75*
G02*
X136974600Y-65262300I-250000J0D01*
G01*
X136024600Y-65262300D01*
G75*
G02*
X135774600Y-65012300I0J250000D01*
G01*
X135774600Y-64512300D01*
G75*
G02*
X136024600Y-64262300I250000J0D01*
G01*
G37*
G36*
G01*
X131224000Y-61813900D02*
X132174000Y-61813900D01*
G75*
G02*
X132424000Y-62063900I0J-250000D01*
G01*
X132424000Y-62563900D01*
G75*
G02*
X132174000Y-62813900I-250000J0D01*
G01*
X131224000Y-62813900D01*
G75*
G02*
X130974000Y-62563900I0J250000D01*
G01*
X130974000Y-62063900D01*
G75*
G02*
X131224000Y-61813900I250000J0D01*
G01*
G37*
G36*
G01*
X131224000Y-59913900D02*
X132174000Y-59913900D01*
G75*
G02*
X132424000Y-60163900I0J-250000D01*
G01*
X132424000Y-60663900D01*
G75*
G02*
X132174000Y-60913900I-250000J0D01*
G01*
X131224000Y-60913900D01*
G75*
G02*
X130974000Y-60663900I0J250000D01*
G01*
X130974000Y-60163900D01*
G75*
G02*
X131224000Y-59913900I250000J0D01*
G01*
G37*
G36*
G01*
X124899000Y-52598300D02*
X124899000Y-53548300D01*
G75*
G02*
X124649000Y-53798300I-250000J0D01*
G01*
X124149000Y-53798300D01*
G75*
G02*
X123899000Y-53548300I0J250000D01*
G01*
X123899000Y-52598300D01*
G75*
G02*
X124149000Y-52348300I250000J0D01*
G01*
X124649000Y-52348300D01*
G75*
G02*
X124899000Y-52598300I0J-250000D01*
G01*
G37*
G36*
G01*
X126799000Y-52598300D02*
X126799000Y-53548300D01*
G75*
G02*
X126549000Y-53798300I-250000J0D01*
G01*
X126049000Y-53798300D01*
G75*
G02*
X125799000Y-53548300I0J250000D01*
G01*
X125799000Y-52598300D01*
G75*
G02*
X126049000Y-52348300I250000J0D01*
G01*
X126549000Y-52348300D01*
G75*
G02*
X126799000Y-52598300I0J-250000D01*
G01*
G37*
G36*
G01*
X141292600Y-61894300D02*
X140342600Y-61894300D01*
G75*
G02*
X140092600Y-61644300I0J250000D01*
G01*
X140092600Y-61144300D01*
G75*
G02*
X140342600Y-60894300I250000J0D01*
G01*
X141292600Y-60894300D01*
G75*
G02*
X141542600Y-61144300I0J-250000D01*
G01*
X141542600Y-61644300D01*
G75*
G02*
X141292600Y-61894300I-250000J0D01*
G01*
G37*
G36*
G01*
X141292600Y-63794300D02*
X140342600Y-63794300D01*
G75*
G02*
X140092600Y-63544300I0J250000D01*
G01*
X140092600Y-63044300D01*
G75*
G02*
X140342600Y-62794300I250000J0D01*
G01*
X141292600Y-62794300D01*
G75*
G02*
X141542600Y-63044300I0J-250000D01*
G01*
X141542600Y-63544300D01*
G75*
G02*
X141292600Y-63794300I-250000J0D01*
G01*
G37*
G36*
G01*
X141343400Y-58109700D02*
X140393400Y-58109700D01*
G75*
G02*
X140143400Y-57859700I0J250000D01*
G01*
X140143400Y-57359700D01*
G75*
G02*
X140393400Y-57109700I250000J0D01*
G01*
X141343400Y-57109700D01*
G75*
G02*
X141593400Y-57359700I0J-250000D01*
G01*
X141593400Y-57859700D01*
G75*
G02*
X141343400Y-58109700I-250000J0D01*
G01*
G37*
G36*
G01*
X141343400Y-60009700D02*
X140393400Y-60009700D01*
G75*
G02*
X140143400Y-59759700I0J250000D01*
G01*
X140143400Y-59259700D01*
G75*
G02*
X140393400Y-59009700I250000J0D01*
G01*
X141343400Y-59009700D01*
G75*
G02*
X141593400Y-59259700I0J-250000D01*
G01*
X141593400Y-59759700D01*
G75*
G02*
X141343400Y-60009700I-250000J0D01*
G01*
G37*
G36*
G01*
X136380600Y-63327300D02*
X136380600Y-62377300D01*
G75*
G02*
X136630600Y-62127300I250000J0D01*
G01*
X137130600Y-62127300D01*
G75*
G02*
X137380600Y-62377300I0J-250000D01*
G01*
X137380600Y-63327300D01*
G75*
G02*
X137130600Y-63577300I-250000J0D01*
G01*
X136630600Y-63577300D01*
G75*
G02*
X136380600Y-63327300I0J250000D01*
G01*
G37*
G36*
G01*
X134480600Y-63327300D02*
X134480600Y-62377300D01*
G75*
G02*
X134730600Y-62127300I250000J0D01*
G01*
X135230600Y-62127300D01*
G75*
G02*
X135480600Y-62377300I0J-250000D01*
G01*
X135480600Y-63327300D01*
G75*
G02*
X135230600Y-63577300I-250000J0D01*
G01*
X134730600Y-63577300D01*
G75*
G02*
X134480600Y-63327300I0J250000D01*
G01*
G37*
G36*
G01*
X125153800Y-63301900D02*
X125153800Y-62351900D01*
G75*
G02*
X125403800Y-62101900I250000J0D01*
G01*
X125903800Y-62101900D01*
G75*
G02*
X126153800Y-62351900I0J-250000D01*
G01*
X126153800Y-63301900D01*
G75*
G02*
X125903800Y-63551900I-250000J0D01*
G01*
X125403800Y-63551900D01*
G75*
G02*
X125153800Y-63301900I0J250000D01*
G01*
G37*
G36*
G01*
X123253800Y-63301900D02*
X123253800Y-62351900D01*
G75*
G02*
X123503800Y-62101900I250000J0D01*
G01*
X124003800Y-62101900D01*
G75*
G02*
X124253800Y-62351900I0J-250000D01*
G01*
X124253800Y-63301900D01*
G75*
G02*
X124003800Y-63551900I-250000J0D01*
G01*
X123503800Y-63551900D01*
G75*
G02*
X123253800Y-63301900I0J250000D01*
G01*
G37*
G36*
G01*
X129827000Y-66274100D02*
X130777000Y-66274100D01*
G75*
G02*
X131027000Y-66524100I0J-250000D01*
G01*
X131027000Y-67024100D01*
G75*
G02*
X130777000Y-67274100I-250000J0D01*
G01*
X129827000Y-67274100D01*
G75*
G02*
X129577000Y-67024100I0J250000D01*
G01*
X129577000Y-66524100D01*
G75*
G02*
X129827000Y-66274100I250000J0D01*
G01*
G37*
G36*
G01*
X129827000Y-64374100D02*
X130777000Y-64374100D01*
G75*
G02*
X131027000Y-64624100I0J-250000D01*
G01*
X131027000Y-65124100D01*
G75*
G02*
X130777000Y-65374100I-250000J0D01*
G01*
X129827000Y-65374100D01*
G75*
G02*
X129577000Y-65124100I0J250000D01*
G01*
X129577000Y-64624100D01*
G75*
G02*
X129827000Y-64374100I250000J0D01*
G01*
G37*
G36*
G01*
X128049000Y-54097300D02*
X128999000Y-54097300D01*
G75*
G02*
X129249000Y-54347300I0J-250000D01*
G01*
X129249000Y-54847300D01*
G75*
G02*
X128999000Y-55097300I-250000J0D01*
G01*
X128049000Y-55097300D01*
G75*
G02*
X127799000Y-54847300I0J250000D01*
G01*
X127799000Y-54347300D01*
G75*
G02*
X128049000Y-54097300I250000J0D01*
G01*
G37*
G36*
G01*
X128049000Y-52197300D02*
X128999000Y-52197300D01*
G75*
G02*
X129249000Y-52447300I0J-250000D01*
G01*
X129249000Y-52947300D01*
G75*
G02*
X128999000Y-53197300I-250000J0D01*
G01*
X128049000Y-53197300D01*
G75*
G02*
X127799000Y-52947300I0J250000D01*
G01*
X127799000Y-52447300D01*
G75*
G02*
X128049000Y-52197300I250000J0D01*
G01*
G37*
D10*
X134462600Y-65587900D03*
X132562600Y-65587900D03*
X132562600Y-68287900D03*
X133512600Y-68287900D03*
X134462600Y-68287900D03*
G36*
G01*
X128202600Y-68117299D02*
X128202600Y-69017301D01*
G75*
G02*
X127952601Y-69267300I-249999J0D01*
G01*
X127302599Y-69267300D01*
G75*
G02*
X127052600Y-69017301I0J249999D01*
G01*
X127052600Y-68117299D01*
G75*
G02*
X127302599Y-67867300I249999J0D01*
G01*
X127952601Y-67867300D01*
G75*
G02*
X128202600Y-68117299I0J-249999D01*
G01*
G37*
G36*
G01*
X126152600Y-68117299D02*
X126152600Y-69017301D01*
G75*
G02*
X125902601Y-69267300I-249999J0D01*
G01*
X125252599Y-69267300D01*
G75*
G02*
X125002600Y-69017301I0J249999D01*
G01*
X125002600Y-68117299D01*
G75*
G02*
X125252599Y-67867300I249999J0D01*
G01*
X125902601Y-67867300D01*
G75*
G02*
X126152600Y-68117299I0J-249999D01*
G01*
G37*
G36*
G01*
X133433399Y-58178900D02*
X134333401Y-58178900D01*
G75*
G02*
X134583400Y-58428899I0J-249999D01*
G01*
X134583400Y-59078901D01*
G75*
G02*
X134333401Y-59328900I-249999J0D01*
G01*
X133433399Y-59328900D01*
G75*
G02*
X133183400Y-59078901I0J249999D01*
G01*
X133183400Y-58428899D01*
G75*
G02*
X133433399Y-58178900I249999J0D01*
G01*
G37*
G36*
G01*
X133433399Y-60228900D02*
X134333401Y-60228900D01*
G75*
G02*
X134583400Y-60478899I0J-249999D01*
G01*
X134583400Y-61128901D01*
G75*
G02*
X134333401Y-61378900I-249999J0D01*
G01*
X133433399Y-61378900D01*
G75*
G02*
X133183400Y-61128901I0J249999D01*
G01*
X133183400Y-60478899D01*
G75*
G02*
X133433399Y-60228900I249999J0D01*
G01*
G37*
D11*
X127969000Y-64823300D03*
X127969000Y-65773300D03*
X127969000Y-66723300D03*
X125269000Y-66723300D03*
X125269000Y-64823300D03*
D10*
X138745000Y-59985900D03*
X137795000Y-59985900D03*
X136845000Y-59985900D03*
X136845000Y-57285900D03*
X138745000Y-57285900D03*
M02*
