G04 #@! TF.GenerationSoftware,KiCad,Pcbnew,(5.1.5)-3*
G04 #@! TF.CreationDate,2020-05-18T11:13:30-07:00*
G04 #@! TF.ProjectId,Conductivity_Sensor,436f6e64-7563-4746-9976-6974795f5365,rev?*
G04 #@! TF.SameCoordinates,Original*
G04 #@! TF.FileFunction,Paste,Top*
G04 #@! TF.FilePolarity,Positive*
%FSLAX46Y46*%
G04 Gerber Fmt 4.6, Leading zero omitted, Abs format (unit mm)*
G04 Created by KiCad (PCBNEW (5.1.5)-3) date 2020-05-18 11:13:30*
%MOMM*%
%LPD*%
G04 APERTURE LIST*
%ADD10R,0.900000X1.200000*%
%ADD11C,0.100000*%
%ADD12R,0.650000X1.560000*%
G04 APERTURE END LIST*
D10*
X158370000Y-67310000D03*
X161670000Y-67310000D03*
D11*
G36*
X107154505Y-69521204D02*
G01*
X107178773Y-69524804D01*
X107202572Y-69530765D01*
X107225671Y-69539030D01*
X107247850Y-69549520D01*
X107268893Y-69562132D01*
X107288599Y-69576747D01*
X107306777Y-69593223D01*
X107323253Y-69611401D01*
X107337868Y-69631107D01*
X107350480Y-69652150D01*
X107360970Y-69674329D01*
X107369235Y-69697428D01*
X107375196Y-69721227D01*
X107378796Y-69745495D01*
X107380000Y-69769999D01*
X107380000Y-70420001D01*
X107378796Y-70444505D01*
X107375196Y-70468773D01*
X107369235Y-70492572D01*
X107360970Y-70515671D01*
X107350480Y-70537850D01*
X107337868Y-70558893D01*
X107323253Y-70578599D01*
X107306777Y-70596777D01*
X107288599Y-70613253D01*
X107268893Y-70627868D01*
X107247850Y-70640480D01*
X107225671Y-70650970D01*
X107202572Y-70659235D01*
X107178773Y-70665196D01*
X107154505Y-70668796D01*
X107130001Y-70670000D01*
X106229999Y-70670000D01*
X106205495Y-70668796D01*
X106181227Y-70665196D01*
X106157428Y-70659235D01*
X106134329Y-70650970D01*
X106112150Y-70640480D01*
X106091107Y-70627868D01*
X106071401Y-70613253D01*
X106053223Y-70596777D01*
X106036747Y-70578599D01*
X106022132Y-70558893D01*
X106009520Y-70537850D01*
X105999030Y-70515671D01*
X105990765Y-70492572D01*
X105984804Y-70468773D01*
X105981204Y-70444505D01*
X105980000Y-70420001D01*
X105980000Y-69769999D01*
X105981204Y-69745495D01*
X105984804Y-69721227D01*
X105990765Y-69697428D01*
X105999030Y-69674329D01*
X106009520Y-69652150D01*
X106022132Y-69631107D01*
X106036747Y-69611401D01*
X106053223Y-69593223D01*
X106071401Y-69576747D01*
X106091107Y-69562132D01*
X106112150Y-69549520D01*
X106134329Y-69539030D01*
X106157428Y-69530765D01*
X106181227Y-69524804D01*
X106205495Y-69521204D01*
X106229999Y-69520000D01*
X107130001Y-69520000D01*
X107154505Y-69521204D01*
G37*
G36*
X107154505Y-71571204D02*
G01*
X107178773Y-71574804D01*
X107202572Y-71580765D01*
X107225671Y-71589030D01*
X107247850Y-71599520D01*
X107268893Y-71612132D01*
X107288599Y-71626747D01*
X107306777Y-71643223D01*
X107323253Y-71661401D01*
X107337868Y-71681107D01*
X107350480Y-71702150D01*
X107360970Y-71724329D01*
X107369235Y-71747428D01*
X107375196Y-71771227D01*
X107378796Y-71795495D01*
X107380000Y-71819999D01*
X107380000Y-72470001D01*
X107378796Y-72494505D01*
X107375196Y-72518773D01*
X107369235Y-72542572D01*
X107360970Y-72565671D01*
X107350480Y-72587850D01*
X107337868Y-72608893D01*
X107323253Y-72628599D01*
X107306777Y-72646777D01*
X107288599Y-72663253D01*
X107268893Y-72677868D01*
X107247850Y-72690480D01*
X107225671Y-72700970D01*
X107202572Y-72709235D01*
X107178773Y-72715196D01*
X107154505Y-72718796D01*
X107130001Y-72720000D01*
X106229999Y-72720000D01*
X106205495Y-72718796D01*
X106181227Y-72715196D01*
X106157428Y-72709235D01*
X106134329Y-72700970D01*
X106112150Y-72690480D01*
X106091107Y-72677868D01*
X106071401Y-72663253D01*
X106053223Y-72646777D01*
X106036747Y-72628599D01*
X106022132Y-72608893D01*
X106009520Y-72587850D01*
X105999030Y-72565671D01*
X105990765Y-72542572D01*
X105984804Y-72518773D01*
X105981204Y-72494505D01*
X105980000Y-72470001D01*
X105980000Y-71819999D01*
X105981204Y-71795495D01*
X105984804Y-71771227D01*
X105990765Y-71747428D01*
X105999030Y-71724329D01*
X106009520Y-71702150D01*
X106022132Y-71681107D01*
X106036747Y-71661401D01*
X106053223Y-71643223D01*
X106071401Y-71626747D01*
X106091107Y-71612132D01*
X106112150Y-71599520D01*
X106134329Y-71589030D01*
X106157428Y-71580765D01*
X106181227Y-71574804D01*
X106205495Y-71571204D01*
X106229999Y-71570000D01*
X107130001Y-71570000D01*
X107154505Y-71571204D01*
G37*
G36*
X122759505Y-61531204D02*
G01*
X122783773Y-61534804D01*
X122807572Y-61540765D01*
X122830671Y-61549030D01*
X122852850Y-61559520D01*
X122873893Y-61572132D01*
X122893599Y-61586747D01*
X122911777Y-61603223D01*
X122928253Y-61621401D01*
X122942868Y-61641107D01*
X122955480Y-61662150D01*
X122965970Y-61684329D01*
X122974235Y-61707428D01*
X122980196Y-61731227D01*
X122983796Y-61755495D01*
X122985000Y-61779999D01*
X122985000Y-62680001D01*
X122983796Y-62704505D01*
X122980196Y-62728773D01*
X122974235Y-62752572D01*
X122965970Y-62775671D01*
X122955480Y-62797850D01*
X122942868Y-62818893D01*
X122928253Y-62838599D01*
X122911777Y-62856777D01*
X122893599Y-62873253D01*
X122873893Y-62887868D01*
X122852850Y-62900480D01*
X122830671Y-62910970D01*
X122807572Y-62919235D01*
X122783773Y-62925196D01*
X122759505Y-62928796D01*
X122735001Y-62930000D01*
X122084999Y-62930000D01*
X122060495Y-62928796D01*
X122036227Y-62925196D01*
X122012428Y-62919235D01*
X121989329Y-62910970D01*
X121967150Y-62900480D01*
X121946107Y-62887868D01*
X121926401Y-62873253D01*
X121908223Y-62856777D01*
X121891747Y-62838599D01*
X121877132Y-62818893D01*
X121864520Y-62797850D01*
X121854030Y-62775671D01*
X121845765Y-62752572D01*
X121839804Y-62728773D01*
X121836204Y-62704505D01*
X121835000Y-62680001D01*
X121835000Y-61779999D01*
X121836204Y-61755495D01*
X121839804Y-61731227D01*
X121845765Y-61707428D01*
X121854030Y-61684329D01*
X121864520Y-61662150D01*
X121877132Y-61641107D01*
X121891747Y-61621401D01*
X121908223Y-61603223D01*
X121926401Y-61586747D01*
X121946107Y-61572132D01*
X121967150Y-61559520D01*
X121989329Y-61549030D01*
X122012428Y-61540765D01*
X122036227Y-61534804D01*
X122060495Y-61531204D01*
X122084999Y-61530000D01*
X122735001Y-61530000D01*
X122759505Y-61531204D01*
G37*
G36*
X124809505Y-61531204D02*
G01*
X124833773Y-61534804D01*
X124857572Y-61540765D01*
X124880671Y-61549030D01*
X124902850Y-61559520D01*
X124923893Y-61572132D01*
X124943599Y-61586747D01*
X124961777Y-61603223D01*
X124978253Y-61621401D01*
X124992868Y-61641107D01*
X125005480Y-61662150D01*
X125015970Y-61684329D01*
X125024235Y-61707428D01*
X125030196Y-61731227D01*
X125033796Y-61755495D01*
X125035000Y-61779999D01*
X125035000Y-62680001D01*
X125033796Y-62704505D01*
X125030196Y-62728773D01*
X125024235Y-62752572D01*
X125015970Y-62775671D01*
X125005480Y-62797850D01*
X124992868Y-62818893D01*
X124978253Y-62838599D01*
X124961777Y-62856777D01*
X124943599Y-62873253D01*
X124923893Y-62887868D01*
X124902850Y-62900480D01*
X124880671Y-62910970D01*
X124857572Y-62919235D01*
X124833773Y-62925196D01*
X124809505Y-62928796D01*
X124785001Y-62930000D01*
X124134999Y-62930000D01*
X124110495Y-62928796D01*
X124086227Y-62925196D01*
X124062428Y-62919235D01*
X124039329Y-62910970D01*
X124017150Y-62900480D01*
X123996107Y-62887868D01*
X123976401Y-62873253D01*
X123958223Y-62856777D01*
X123941747Y-62838599D01*
X123927132Y-62818893D01*
X123914520Y-62797850D01*
X123904030Y-62775671D01*
X123895765Y-62752572D01*
X123889804Y-62728773D01*
X123886204Y-62704505D01*
X123885000Y-62680001D01*
X123885000Y-61779999D01*
X123886204Y-61755495D01*
X123889804Y-61731227D01*
X123895765Y-61707428D01*
X123904030Y-61684329D01*
X123914520Y-61662150D01*
X123927132Y-61641107D01*
X123941747Y-61621401D01*
X123958223Y-61603223D01*
X123976401Y-61586747D01*
X123996107Y-61572132D01*
X124017150Y-61559520D01*
X124039329Y-61549030D01*
X124062428Y-61540765D01*
X124086227Y-61534804D01*
X124110495Y-61531204D01*
X124134999Y-61530000D01*
X124785001Y-61530000D01*
X124809505Y-61531204D01*
G37*
G36*
X146524505Y-72206204D02*
G01*
X146548773Y-72209804D01*
X146572572Y-72215765D01*
X146595671Y-72224030D01*
X146617850Y-72234520D01*
X146638893Y-72247132D01*
X146658599Y-72261747D01*
X146676777Y-72278223D01*
X146693253Y-72296401D01*
X146707868Y-72316107D01*
X146720480Y-72337150D01*
X146730970Y-72359329D01*
X146739235Y-72382428D01*
X146745196Y-72406227D01*
X146748796Y-72430495D01*
X146750000Y-72454999D01*
X146750000Y-73105001D01*
X146748796Y-73129505D01*
X146745196Y-73153773D01*
X146739235Y-73177572D01*
X146730970Y-73200671D01*
X146720480Y-73222850D01*
X146707868Y-73243893D01*
X146693253Y-73263599D01*
X146676777Y-73281777D01*
X146658599Y-73298253D01*
X146638893Y-73312868D01*
X146617850Y-73325480D01*
X146595671Y-73335970D01*
X146572572Y-73344235D01*
X146548773Y-73350196D01*
X146524505Y-73353796D01*
X146500001Y-73355000D01*
X145599999Y-73355000D01*
X145575495Y-73353796D01*
X145551227Y-73350196D01*
X145527428Y-73344235D01*
X145504329Y-73335970D01*
X145482150Y-73325480D01*
X145461107Y-73312868D01*
X145441401Y-73298253D01*
X145423223Y-73281777D01*
X145406747Y-73263599D01*
X145392132Y-73243893D01*
X145379520Y-73222850D01*
X145369030Y-73200671D01*
X145360765Y-73177572D01*
X145354804Y-73153773D01*
X145351204Y-73129505D01*
X145350000Y-73105001D01*
X145350000Y-72454999D01*
X145351204Y-72430495D01*
X145354804Y-72406227D01*
X145360765Y-72382428D01*
X145369030Y-72359329D01*
X145379520Y-72337150D01*
X145392132Y-72316107D01*
X145406747Y-72296401D01*
X145423223Y-72278223D01*
X145441401Y-72261747D01*
X145461107Y-72247132D01*
X145482150Y-72234520D01*
X145504329Y-72224030D01*
X145527428Y-72215765D01*
X145551227Y-72209804D01*
X145575495Y-72206204D01*
X145599999Y-72205000D01*
X146500001Y-72205000D01*
X146524505Y-72206204D01*
G37*
G36*
X146524505Y-70156204D02*
G01*
X146548773Y-70159804D01*
X146572572Y-70165765D01*
X146595671Y-70174030D01*
X146617850Y-70184520D01*
X146638893Y-70197132D01*
X146658599Y-70211747D01*
X146676777Y-70228223D01*
X146693253Y-70246401D01*
X146707868Y-70266107D01*
X146720480Y-70287150D01*
X146730970Y-70309329D01*
X146739235Y-70332428D01*
X146745196Y-70356227D01*
X146748796Y-70380495D01*
X146750000Y-70404999D01*
X146750000Y-71055001D01*
X146748796Y-71079505D01*
X146745196Y-71103773D01*
X146739235Y-71127572D01*
X146730970Y-71150671D01*
X146720480Y-71172850D01*
X146707868Y-71193893D01*
X146693253Y-71213599D01*
X146676777Y-71231777D01*
X146658599Y-71248253D01*
X146638893Y-71262868D01*
X146617850Y-71275480D01*
X146595671Y-71285970D01*
X146572572Y-71294235D01*
X146548773Y-71300196D01*
X146524505Y-71303796D01*
X146500001Y-71305000D01*
X145599999Y-71305000D01*
X145575495Y-71303796D01*
X145551227Y-71300196D01*
X145527428Y-71294235D01*
X145504329Y-71285970D01*
X145482150Y-71275480D01*
X145461107Y-71262868D01*
X145441401Y-71248253D01*
X145423223Y-71231777D01*
X145406747Y-71213599D01*
X145392132Y-71193893D01*
X145379520Y-71172850D01*
X145369030Y-71150671D01*
X145360765Y-71127572D01*
X145354804Y-71103773D01*
X145351204Y-71079505D01*
X145350000Y-71055001D01*
X145350000Y-70404999D01*
X145351204Y-70380495D01*
X145354804Y-70356227D01*
X145360765Y-70332428D01*
X145369030Y-70309329D01*
X145379520Y-70287150D01*
X145392132Y-70266107D01*
X145406747Y-70246401D01*
X145423223Y-70228223D01*
X145441401Y-70211747D01*
X145461107Y-70197132D01*
X145482150Y-70184520D01*
X145504329Y-70174030D01*
X145527428Y-70165765D01*
X145551227Y-70159804D01*
X145575495Y-70156204D01*
X145599999Y-70155000D01*
X146500001Y-70155000D01*
X146524505Y-70156204D01*
G37*
G36*
X156049505Y-71181204D02*
G01*
X156073773Y-71184804D01*
X156097572Y-71190765D01*
X156120671Y-71199030D01*
X156142850Y-71209520D01*
X156163893Y-71222132D01*
X156183599Y-71236747D01*
X156201777Y-71253223D01*
X156218253Y-71271401D01*
X156232868Y-71291107D01*
X156245480Y-71312150D01*
X156255970Y-71334329D01*
X156264235Y-71357428D01*
X156270196Y-71381227D01*
X156273796Y-71405495D01*
X156275000Y-71429999D01*
X156275000Y-72080001D01*
X156273796Y-72104505D01*
X156270196Y-72128773D01*
X156264235Y-72152572D01*
X156255970Y-72175671D01*
X156245480Y-72197850D01*
X156232868Y-72218893D01*
X156218253Y-72238599D01*
X156201777Y-72256777D01*
X156183599Y-72273253D01*
X156163893Y-72287868D01*
X156142850Y-72300480D01*
X156120671Y-72310970D01*
X156097572Y-72319235D01*
X156073773Y-72325196D01*
X156049505Y-72328796D01*
X156025001Y-72330000D01*
X155124999Y-72330000D01*
X155100495Y-72328796D01*
X155076227Y-72325196D01*
X155052428Y-72319235D01*
X155029329Y-72310970D01*
X155007150Y-72300480D01*
X154986107Y-72287868D01*
X154966401Y-72273253D01*
X154948223Y-72256777D01*
X154931747Y-72238599D01*
X154917132Y-72218893D01*
X154904520Y-72197850D01*
X154894030Y-72175671D01*
X154885765Y-72152572D01*
X154879804Y-72128773D01*
X154876204Y-72104505D01*
X154875000Y-72080001D01*
X154875000Y-71429999D01*
X154876204Y-71405495D01*
X154879804Y-71381227D01*
X154885765Y-71357428D01*
X154894030Y-71334329D01*
X154904520Y-71312150D01*
X154917132Y-71291107D01*
X154931747Y-71271401D01*
X154948223Y-71253223D01*
X154966401Y-71236747D01*
X154986107Y-71222132D01*
X155007150Y-71209520D01*
X155029329Y-71199030D01*
X155052428Y-71190765D01*
X155076227Y-71184804D01*
X155100495Y-71181204D01*
X155124999Y-71180000D01*
X156025001Y-71180000D01*
X156049505Y-71181204D01*
G37*
G36*
X156049505Y-69131204D02*
G01*
X156073773Y-69134804D01*
X156097572Y-69140765D01*
X156120671Y-69149030D01*
X156142850Y-69159520D01*
X156163893Y-69172132D01*
X156183599Y-69186747D01*
X156201777Y-69203223D01*
X156218253Y-69221401D01*
X156232868Y-69241107D01*
X156245480Y-69262150D01*
X156255970Y-69284329D01*
X156264235Y-69307428D01*
X156270196Y-69331227D01*
X156273796Y-69355495D01*
X156275000Y-69379999D01*
X156275000Y-70030001D01*
X156273796Y-70054505D01*
X156270196Y-70078773D01*
X156264235Y-70102572D01*
X156255970Y-70125671D01*
X156245480Y-70147850D01*
X156232868Y-70168893D01*
X156218253Y-70188599D01*
X156201777Y-70206777D01*
X156183599Y-70223253D01*
X156163893Y-70237868D01*
X156142850Y-70250480D01*
X156120671Y-70260970D01*
X156097572Y-70269235D01*
X156073773Y-70275196D01*
X156049505Y-70278796D01*
X156025001Y-70280000D01*
X155124999Y-70280000D01*
X155100495Y-70278796D01*
X155076227Y-70275196D01*
X155052428Y-70269235D01*
X155029329Y-70260970D01*
X155007150Y-70250480D01*
X154986107Y-70237868D01*
X154966401Y-70223253D01*
X154948223Y-70206777D01*
X154931747Y-70188599D01*
X154917132Y-70168893D01*
X154904520Y-70147850D01*
X154894030Y-70125671D01*
X154885765Y-70102572D01*
X154879804Y-70078773D01*
X154876204Y-70054505D01*
X154875000Y-70030001D01*
X154875000Y-69379999D01*
X154876204Y-69355495D01*
X154879804Y-69331227D01*
X154885765Y-69307428D01*
X154894030Y-69284329D01*
X154904520Y-69262150D01*
X154917132Y-69241107D01*
X154931747Y-69221401D01*
X154948223Y-69203223D01*
X154966401Y-69186747D01*
X154986107Y-69172132D01*
X155007150Y-69159520D01*
X155029329Y-69149030D01*
X155052428Y-69140765D01*
X155076227Y-69134804D01*
X155100495Y-69131204D01*
X155124999Y-69130000D01*
X156025001Y-69130000D01*
X156049505Y-69131204D01*
G37*
G36*
X174464505Y-71571204D02*
G01*
X174488773Y-71574804D01*
X174512572Y-71580765D01*
X174535671Y-71589030D01*
X174557850Y-71599520D01*
X174578893Y-71612132D01*
X174598599Y-71626747D01*
X174616777Y-71643223D01*
X174633253Y-71661401D01*
X174647868Y-71681107D01*
X174660480Y-71702150D01*
X174670970Y-71724329D01*
X174679235Y-71747428D01*
X174685196Y-71771227D01*
X174688796Y-71795495D01*
X174690000Y-71819999D01*
X174690000Y-72470001D01*
X174688796Y-72494505D01*
X174685196Y-72518773D01*
X174679235Y-72542572D01*
X174670970Y-72565671D01*
X174660480Y-72587850D01*
X174647868Y-72608893D01*
X174633253Y-72628599D01*
X174616777Y-72646777D01*
X174598599Y-72663253D01*
X174578893Y-72677868D01*
X174557850Y-72690480D01*
X174535671Y-72700970D01*
X174512572Y-72709235D01*
X174488773Y-72715196D01*
X174464505Y-72718796D01*
X174440001Y-72720000D01*
X173539999Y-72720000D01*
X173515495Y-72718796D01*
X173491227Y-72715196D01*
X173467428Y-72709235D01*
X173444329Y-72700970D01*
X173422150Y-72690480D01*
X173401107Y-72677868D01*
X173381401Y-72663253D01*
X173363223Y-72646777D01*
X173346747Y-72628599D01*
X173332132Y-72608893D01*
X173319520Y-72587850D01*
X173309030Y-72565671D01*
X173300765Y-72542572D01*
X173294804Y-72518773D01*
X173291204Y-72494505D01*
X173290000Y-72470001D01*
X173290000Y-71819999D01*
X173291204Y-71795495D01*
X173294804Y-71771227D01*
X173300765Y-71747428D01*
X173309030Y-71724329D01*
X173319520Y-71702150D01*
X173332132Y-71681107D01*
X173346747Y-71661401D01*
X173363223Y-71643223D01*
X173381401Y-71626747D01*
X173401107Y-71612132D01*
X173422150Y-71599520D01*
X173444329Y-71589030D01*
X173467428Y-71580765D01*
X173491227Y-71574804D01*
X173515495Y-71571204D01*
X173539999Y-71570000D01*
X174440001Y-71570000D01*
X174464505Y-71571204D01*
G37*
G36*
X174464505Y-69521204D02*
G01*
X174488773Y-69524804D01*
X174512572Y-69530765D01*
X174535671Y-69539030D01*
X174557850Y-69549520D01*
X174578893Y-69562132D01*
X174598599Y-69576747D01*
X174616777Y-69593223D01*
X174633253Y-69611401D01*
X174647868Y-69631107D01*
X174660480Y-69652150D01*
X174670970Y-69674329D01*
X174679235Y-69697428D01*
X174685196Y-69721227D01*
X174688796Y-69745495D01*
X174690000Y-69769999D01*
X174690000Y-70420001D01*
X174688796Y-70444505D01*
X174685196Y-70468773D01*
X174679235Y-70492572D01*
X174670970Y-70515671D01*
X174660480Y-70537850D01*
X174647868Y-70558893D01*
X174633253Y-70578599D01*
X174616777Y-70596777D01*
X174598599Y-70613253D01*
X174578893Y-70627868D01*
X174557850Y-70640480D01*
X174535671Y-70650970D01*
X174512572Y-70659235D01*
X174488773Y-70665196D01*
X174464505Y-70668796D01*
X174440001Y-70670000D01*
X173539999Y-70670000D01*
X173515495Y-70668796D01*
X173491227Y-70665196D01*
X173467428Y-70659235D01*
X173444329Y-70650970D01*
X173422150Y-70640480D01*
X173401107Y-70627868D01*
X173381401Y-70613253D01*
X173363223Y-70596777D01*
X173346747Y-70578599D01*
X173332132Y-70558893D01*
X173319520Y-70537850D01*
X173309030Y-70515671D01*
X173300765Y-70492572D01*
X173294804Y-70468773D01*
X173291204Y-70444505D01*
X173290000Y-70420001D01*
X173290000Y-69769999D01*
X173291204Y-69745495D01*
X173294804Y-69721227D01*
X173300765Y-69697428D01*
X173309030Y-69674329D01*
X173319520Y-69652150D01*
X173332132Y-69631107D01*
X173346747Y-69611401D01*
X173363223Y-69593223D01*
X173381401Y-69576747D01*
X173401107Y-69562132D01*
X173422150Y-69549520D01*
X173444329Y-69539030D01*
X173467428Y-69530765D01*
X173491227Y-69524804D01*
X173515495Y-69521204D01*
X173539999Y-69520000D01*
X174440001Y-69520000D01*
X174464505Y-69521204D01*
G37*
G36*
X169384505Y-61901204D02*
G01*
X169408773Y-61904804D01*
X169432572Y-61910765D01*
X169455671Y-61919030D01*
X169477850Y-61929520D01*
X169498893Y-61942132D01*
X169518599Y-61956747D01*
X169536777Y-61973223D01*
X169553253Y-61991401D01*
X169567868Y-62011107D01*
X169580480Y-62032150D01*
X169590970Y-62054329D01*
X169599235Y-62077428D01*
X169605196Y-62101227D01*
X169608796Y-62125495D01*
X169610000Y-62149999D01*
X169610000Y-62800001D01*
X169608796Y-62824505D01*
X169605196Y-62848773D01*
X169599235Y-62872572D01*
X169590970Y-62895671D01*
X169580480Y-62917850D01*
X169567868Y-62938893D01*
X169553253Y-62958599D01*
X169536777Y-62976777D01*
X169518599Y-62993253D01*
X169498893Y-63007868D01*
X169477850Y-63020480D01*
X169455671Y-63030970D01*
X169432572Y-63039235D01*
X169408773Y-63045196D01*
X169384505Y-63048796D01*
X169360001Y-63050000D01*
X168459999Y-63050000D01*
X168435495Y-63048796D01*
X168411227Y-63045196D01*
X168387428Y-63039235D01*
X168364329Y-63030970D01*
X168342150Y-63020480D01*
X168321107Y-63007868D01*
X168301401Y-62993253D01*
X168283223Y-62976777D01*
X168266747Y-62958599D01*
X168252132Y-62938893D01*
X168239520Y-62917850D01*
X168229030Y-62895671D01*
X168220765Y-62872572D01*
X168214804Y-62848773D01*
X168211204Y-62824505D01*
X168210000Y-62800001D01*
X168210000Y-62149999D01*
X168211204Y-62125495D01*
X168214804Y-62101227D01*
X168220765Y-62077428D01*
X168229030Y-62054329D01*
X168239520Y-62032150D01*
X168252132Y-62011107D01*
X168266747Y-61991401D01*
X168283223Y-61973223D01*
X168301401Y-61956747D01*
X168321107Y-61942132D01*
X168342150Y-61929520D01*
X168364329Y-61919030D01*
X168387428Y-61910765D01*
X168411227Y-61904804D01*
X168435495Y-61901204D01*
X168459999Y-61900000D01*
X169360001Y-61900000D01*
X169384505Y-61901204D01*
G37*
G36*
X169384505Y-63951204D02*
G01*
X169408773Y-63954804D01*
X169432572Y-63960765D01*
X169455671Y-63969030D01*
X169477850Y-63979520D01*
X169498893Y-63992132D01*
X169518599Y-64006747D01*
X169536777Y-64023223D01*
X169553253Y-64041401D01*
X169567868Y-64061107D01*
X169580480Y-64082150D01*
X169590970Y-64104329D01*
X169599235Y-64127428D01*
X169605196Y-64151227D01*
X169608796Y-64175495D01*
X169610000Y-64199999D01*
X169610000Y-64850001D01*
X169608796Y-64874505D01*
X169605196Y-64898773D01*
X169599235Y-64922572D01*
X169590970Y-64945671D01*
X169580480Y-64967850D01*
X169567868Y-64988893D01*
X169553253Y-65008599D01*
X169536777Y-65026777D01*
X169518599Y-65043253D01*
X169498893Y-65057868D01*
X169477850Y-65070480D01*
X169455671Y-65080970D01*
X169432572Y-65089235D01*
X169408773Y-65095196D01*
X169384505Y-65098796D01*
X169360001Y-65100000D01*
X168459999Y-65100000D01*
X168435495Y-65098796D01*
X168411227Y-65095196D01*
X168387428Y-65089235D01*
X168364329Y-65080970D01*
X168342150Y-65070480D01*
X168321107Y-65057868D01*
X168301401Y-65043253D01*
X168283223Y-65026777D01*
X168266747Y-65008599D01*
X168252132Y-64988893D01*
X168239520Y-64967850D01*
X168229030Y-64945671D01*
X168220765Y-64922572D01*
X168214804Y-64898773D01*
X168211204Y-64874505D01*
X168210000Y-64850001D01*
X168210000Y-64199999D01*
X168211204Y-64175495D01*
X168214804Y-64151227D01*
X168220765Y-64127428D01*
X168229030Y-64104329D01*
X168239520Y-64082150D01*
X168252132Y-64061107D01*
X168266747Y-64041401D01*
X168283223Y-64023223D01*
X168301401Y-64006747D01*
X168321107Y-63992132D01*
X168342150Y-63979520D01*
X168364329Y-63969030D01*
X168387428Y-63960765D01*
X168411227Y-63954804D01*
X168435495Y-63951204D01*
X168459999Y-63950000D01*
X169360001Y-63950000D01*
X169384505Y-63951204D01*
G37*
D10*
X164210000Y-64770000D03*
X160910000Y-64770000D03*
D11*
G36*
X114649505Y-64071204D02*
G01*
X114673773Y-64074804D01*
X114697572Y-64080765D01*
X114720671Y-64089030D01*
X114742850Y-64099520D01*
X114763893Y-64112132D01*
X114783599Y-64126747D01*
X114801777Y-64143223D01*
X114818253Y-64161401D01*
X114832868Y-64181107D01*
X114845480Y-64202150D01*
X114855970Y-64224329D01*
X114864235Y-64247428D01*
X114870196Y-64271227D01*
X114873796Y-64295495D01*
X114875000Y-64319999D01*
X114875000Y-65220001D01*
X114873796Y-65244505D01*
X114870196Y-65268773D01*
X114864235Y-65292572D01*
X114855970Y-65315671D01*
X114845480Y-65337850D01*
X114832868Y-65358893D01*
X114818253Y-65378599D01*
X114801777Y-65396777D01*
X114783599Y-65413253D01*
X114763893Y-65427868D01*
X114742850Y-65440480D01*
X114720671Y-65450970D01*
X114697572Y-65459235D01*
X114673773Y-65465196D01*
X114649505Y-65468796D01*
X114625001Y-65470000D01*
X113974999Y-65470000D01*
X113950495Y-65468796D01*
X113926227Y-65465196D01*
X113902428Y-65459235D01*
X113879329Y-65450970D01*
X113857150Y-65440480D01*
X113836107Y-65427868D01*
X113816401Y-65413253D01*
X113798223Y-65396777D01*
X113781747Y-65378599D01*
X113767132Y-65358893D01*
X113754520Y-65337850D01*
X113744030Y-65315671D01*
X113735765Y-65292572D01*
X113729804Y-65268773D01*
X113726204Y-65244505D01*
X113725000Y-65220001D01*
X113725000Y-64319999D01*
X113726204Y-64295495D01*
X113729804Y-64271227D01*
X113735765Y-64247428D01*
X113744030Y-64224329D01*
X113754520Y-64202150D01*
X113767132Y-64181107D01*
X113781747Y-64161401D01*
X113798223Y-64143223D01*
X113816401Y-64126747D01*
X113836107Y-64112132D01*
X113857150Y-64099520D01*
X113879329Y-64089030D01*
X113902428Y-64080765D01*
X113926227Y-64074804D01*
X113950495Y-64071204D01*
X113974999Y-64070000D01*
X114625001Y-64070000D01*
X114649505Y-64071204D01*
G37*
G36*
X112599505Y-64071204D02*
G01*
X112623773Y-64074804D01*
X112647572Y-64080765D01*
X112670671Y-64089030D01*
X112692850Y-64099520D01*
X112713893Y-64112132D01*
X112733599Y-64126747D01*
X112751777Y-64143223D01*
X112768253Y-64161401D01*
X112782868Y-64181107D01*
X112795480Y-64202150D01*
X112805970Y-64224329D01*
X112814235Y-64247428D01*
X112820196Y-64271227D01*
X112823796Y-64295495D01*
X112825000Y-64319999D01*
X112825000Y-65220001D01*
X112823796Y-65244505D01*
X112820196Y-65268773D01*
X112814235Y-65292572D01*
X112805970Y-65315671D01*
X112795480Y-65337850D01*
X112782868Y-65358893D01*
X112768253Y-65378599D01*
X112751777Y-65396777D01*
X112733599Y-65413253D01*
X112713893Y-65427868D01*
X112692850Y-65440480D01*
X112670671Y-65450970D01*
X112647572Y-65459235D01*
X112623773Y-65465196D01*
X112599505Y-65468796D01*
X112575001Y-65470000D01*
X111924999Y-65470000D01*
X111900495Y-65468796D01*
X111876227Y-65465196D01*
X111852428Y-65459235D01*
X111829329Y-65450970D01*
X111807150Y-65440480D01*
X111786107Y-65427868D01*
X111766401Y-65413253D01*
X111748223Y-65396777D01*
X111731747Y-65378599D01*
X111717132Y-65358893D01*
X111704520Y-65337850D01*
X111694030Y-65315671D01*
X111685765Y-65292572D01*
X111679804Y-65268773D01*
X111676204Y-65244505D01*
X111675000Y-65220001D01*
X111675000Y-64319999D01*
X111676204Y-64295495D01*
X111679804Y-64271227D01*
X111685765Y-64247428D01*
X111694030Y-64224329D01*
X111704520Y-64202150D01*
X111717132Y-64181107D01*
X111731747Y-64161401D01*
X111748223Y-64143223D01*
X111766401Y-64126747D01*
X111786107Y-64112132D01*
X111807150Y-64099520D01*
X111829329Y-64089030D01*
X111852428Y-64080765D01*
X111876227Y-64074804D01*
X111900495Y-64071204D01*
X111924999Y-64070000D01*
X112575001Y-64070000D01*
X112599505Y-64071204D01*
G37*
G36*
X131649505Y-64706204D02*
G01*
X131673773Y-64709804D01*
X131697572Y-64715765D01*
X131720671Y-64724030D01*
X131742850Y-64734520D01*
X131763893Y-64747132D01*
X131783599Y-64761747D01*
X131801777Y-64778223D01*
X131818253Y-64796401D01*
X131832868Y-64816107D01*
X131845480Y-64837150D01*
X131855970Y-64859329D01*
X131864235Y-64882428D01*
X131870196Y-64906227D01*
X131873796Y-64930495D01*
X131875000Y-64954999D01*
X131875000Y-65855001D01*
X131873796Y-65879505D01*
X131870196Y-65903773D01*
X131864235Y-65927572D01*
X131855970Y-65950671D01*
X131845480Y-65972850D01*
X131832868Y-65993893D01*
X131818253Y-66013599D01*
X131801777Y-66031777D01*
X131783599Y-66048253D01*
X131763893Y-66062868D01*
X131742850Y-66075480D01*
X131720671Y-66085970D01*
X131697572Y-66094235D01*
X131673773Y-66100196D01*
X131649505Y-66103796D01*
X131625001Y-66105000D01*
X130974999Y-66105000D01*
X130950495Y-66103796D01*
X130926227Y-66100196D01*
X130902428Y-66094235D01*
X130879329Y-66085970D01*
X130857150Y-66075480D01*
X130836107Y-66062868D01*
X130816401Y-66048253D01*
X130798223Y-66031777D01*
X130781747Y-66013599D01*
X130767132Y-65993893D01*
X130754520Y-65972850D01*
X130744030Y-65950671D01*
X130735765Y-65927572D01*
X130729804Y-65903773D01*
X130726204Y-65879505D01*
X130725000Y-65855001D01*
X130725000Y-64954999D01*
X130726204Y-64930495D01*
X130729804Y-64906227D01*
X130735765Y-64882428D01*
X130744030Y-64859329D01*
X130754520Y-64837150D01*
X130767132Y-64816107D01*
X130781747Y-64796401D01*
X130798223Y-64778223D01*
X130816401Y-64761747D01*
X130836107Y-64747132D01*
X130857150Y-64734520D01*
X130879329Y-64724030D01*
X130902428Y-64715765D01*
X130926227Y-64709804D01*
X130950495Y-64706204D01*
X130974999Y-64705000D01*
X131625001Y-64705000D01*
X131649505Y-64706204D01*
G37*
G36*
X133699505Y-64706204D02*
G01*
X133723773Y-64709804D01*
X133747572Y-64715765D01*
X133770671Y-64724030D01*
X133792850Y-64734520D01*
X133813893Y-64747132D01*
X133833599Y-64761747D01*
X133851777Y-64778223D01*
X133868253Y-64796401D01*
X133882868Y-64816107D01*
X133895480Y-64837150D01*
X133905970Y-64859329D01*
X133914235Y-64882428D01*
X133920196Y-64906227D01*
X133923796Y-64930495D01*
X133925000Y-64954999D01*
X133925000Y-65855001D01*
X133923796Y-65879505D01*
X133920196Y-65903773D01*
X133914235Y-65927572D01*
X133905970Y-65950671D01*
X133895480Y-65972850D01*
X133882868Y-65993893D01*
X133868253Y-66013599D01*
X133851777Y-66031777D01*
X133833599Y-66048253D01*
X133813893Y-66062868D01*
X133792850Y-66075480D01*
X133770671Y-66085970D01*
X133747572Y-66094235D01*
X133723773Y-66100196D01*
X133699505Y-66103796D01*
X133675001Y-66105000D01*
X133024999Y-66105000D01*
X133000495Y-66103796D01*
X132976227Y-66100196D01*
X132952428Y-66094235D01*
X132929329Y-66085970D01*
X132907150Y-66075480D01*
X132886107Y-66062868D01*
X132866401Y-66048253D01*
X132848223Y-66031777D01*
X132831747Y-66013599D01*
X132817132Y-65993893D01*
X132804520Y-65972850D01*
X132794030Y-65950671D01*
X132785765Y-65927572D01*
X132779804Y-65903773D01*
X132776204Y-65879505D01*
X132775000Y-65855001D01*
X132775000Y-64954999D01*
X132776204Y-64930495D01*
X132779804Y-64906227D01*
X132785765Y-64882428D01*
X132794030Y-64859329D01*
X132804520Y-64837150D01*
X132817132Y-64816107D01*
X132831747Y-64796401D01*
X132848223Y-64778223D01*
X132866401Y-64761747D01*
X132886107Y-64747132D01*
X132907150Y-64734520D01*
X132929329Y-64724030D01*
X132952428Y-64715765D01*
X132976227Y-64709804D01*
X133000495Y-64706204D01*
X133024999Y-64705000D01*
X133675001Y-64705000D01*
X133699505Y-64706204D01*
G37*
G36*
X123107705Y-69760804D02*
G01*
X123131973Y-69764404D01*
X123155772Y-69770365D01*
X123178871Y-69778630D01*
X123201050Y-69789120D01*
X123222093Y-69801732D01*
X123241799Y-69816347D01*
X123259977Y-69832823D01*
X123276453Y-69851001D01*
X123291068Y-69870707D01*
X123303680Y-69891750D01*
X123314170Y-69913929D01*
X123322435Y-69937028D01*
X123328396Y-69960827D01*
X123331996Y-69985095D01*
X123333200Y-70009599D01*
X123333200Y-70909601D01*
X123331996Y-70934105D01*
X123328396Y-70958373D01*
X123322435Y-70982172D01*
X123314170Y-71005271D01*
X123303680Y-71027450D01*
X123291068Y-71048493D01*
X123276453Y-71068199D01*
X123259977Y-71086377D01*
X123241799Y-71102853D01*
X123222093Y-71117468D01*
X123201050Y-71130080D01*
X123178871Y-71140570D01*
X123155772Y-71148835D01*
X123131973Y-71154796D01*
X123107705Y-71158396D01*
X123083201Y-71159600D01*
X122433199Y-71159600D01*
X122408695Y-71158396D01*
X122384427Y-71154796D01*
X122360628Y-71148835D01*
X122337529Y-71140570D01*
X122315350Y-71130080D01*
X122294307Y-71117468D01*
X122274601Y-71102853D01*
X122256423Y-71086377D01*
X122239947Y-71068199D01*
X122225332Y-71048493D01*
X122212720Y-71027450D01*
X122202230Y-71005271D01*
X122193965Y-70982172D01*
X122188004Y-70958373D01*
X122184404Y-70934105D01*
X122183200Y-70909601D01*
X122183200Y-70009599D01*
X122184404Y-69985095D01*
X122188004Y-69960827D01*
X122193965Y-69937028D01*
X122202230Y-69913929D01*
X122212720Y-69891750D01*
X122225332Y-69870707D01*
X122239947Y-69851001D01*
X122256423Y-69832823D01*
X122274601Y-69816347D01*
X122294307Y-69801732D01*
X122315350Y-69789120D01*
X122337529Y-69778630D01*
X122360628Y-69770365D01*
X122384427Y-69764404D01*
X122408695Y-69760804D01*
X122433199Y-69759600D01*
X123083201Y-69759600D01*
X123107705Y-69760804D01*
G37*
G36*
X121057705Y-69760804D02*
G01*
X121081973Y-69764404D01*
X121105772Y-69770365D01*
X121128871Y-69778630D01*
X121151050Y-69789120D01*
X121172093Y-69801732D01*
X121191799Y-69816347D01*
X121209977Y-69832823D01*
X121226453Y-69851001D01*
X121241068Y-69870707D01*
X121253680Y-69891750D01*
X121264170Y-69913929D01*
X121272435Y-69937028D01*
X121278396Y-69960827D01*
X121281996Y-69985095D01*
X121283200Y-70009599D01*
X121283200Y-70909601D01*
X121281996Y-70934105D01*
X121278396Y-70958373D01*
X121272435Y-70982172D01*
X121264170Y-71005271D01*
X121253680Y-71027450D01*
X121241068Y-71048493D01*
X121226453Y-71068199D01*
X121209977Y-71086377D01*
X121191799Y-71102853D01*
X121172093Y-71117468D01*
X121151050Y-71130080D01*
X121128871Y-71140570D01*
X121105772Y-71148835D01*
X121081973Y-71154796D01*
X121057705Y-71158396D01*
X121033201Y-71159600D01*
X120383199Y-71159600D01*
X120358695Y-71158396D01*
X120334427Y-71154796D01*
X120310628Y-71148835D01*
X120287529Y-71140570D01*
X120265350Y-71130080D01*
X120244307Y-71117468D01*
X120224601Y-71102853D01*
X120206423Y-71086377D01*
X120189947Y-71068199D01*
X120175332Y-71048493D01*
X120162720Y-71027450D01*
X120152230Y-71005271D01*
X120143965Y-70982172D01*
X120138004Y-70958373D01*
X120134404Y-70934105D01*
X120133200Y-70909601D01*
X120133200Y-70009599D01*
X120134404Y-69985095D01*
X120138004Y-69960827D01*
X120143965Y-69937028D01*
X120152230Y-69913929D01*
X120162720Y-69891750D01*
X120175332Y-69870707D01*
X120189947Y-69851001D01*
X120206423Y-69832823D01*
X120224601Y-69816347D01*
X120244307Y-69801732D01*
X120265350Y-69789120D01*
X120287529Y-69778630D01*
X120310628Y-69770365D01*
X120334427Y-69764404D01*
X120358695Y-69760804D01*
X120383199Y-69759600D01*
X121033201Y-69759600D01*
X121057705Y-69760804D01*
G37*
G36*
X143859505Y-59626204D02*
G01*
X143883773Y-59629804D01*
X143907572Y-59635765D01*
X143930671Y-59644030D01*
X143952850Y-59654520D01*
X143973893Y-59667132D01*
X143993599Y-59681747D01*
X144011777Y-59698223D01*
X144028253Y-59716401D01*
X144042868Y-59736107D01*
X144055480Y-59757150D01*
X144065970Y-59779329D01*
X144074235Y-59802428D01*
X144080196Y-59826227D01*
X144083796Y-59850495D01*
X144085000Y-59874999D01*
X144085000Y-60775001D01*
X144083796Y-60799505D01*
X144080196Y-60823773D01*
X144074235Y-60847572D01*
X144065970Y-60870671D01*
X144055480Y-60892850D01*
X144042868Y-60913893D01*
X144028253Y-60933599D01*
X144011777Y-60951777D01*
X143993599Y-60968253D01*
X143973893Y-60982868D01*
X143952850Y-60995480D01*
X143930671Y-61005970D01*
X143907572Y-61014235D01*
X143883773Y-61020196D01*
X143859505Y-61023796D01*
X143835001Y-61025000D01*
X143184999Y-61025000D01*
X143160495Y-61023796D01*
X143136227Y-61020196D01*
X143112428Y-61014235D01*
X143089329Y-61005970D01*
X143067150Y-60995480D01*
X143046107Y-60982868D01*
X143026401Y-60968253D01*
X143008223Y-60951777D01*
X142991747Y-60933599D01*
X142977132Y-60913893D01*
X142964520Y-60892850D01*
X142954030Y-60870671D01*
X142945765Y-60847572D01*
X142939804Y-60823773D01*
X142936204Y-60799505D01*
X142935000Y-60775001D01*
X142935000Y-59874999D01*
X142936204Y-59850495D01*
X142939804Y-59826227D01*
X142945765Y-59802428D01*
X142954030Y-59779329D01*
X142964520Y-59757150D01*
X142977132Y-59736107D01*
X142991747Y-59716401D01*
X143008223Y-59698223D01*
X143026401Y-59681747D01*
X143046107Y-59667132D01*
X143067150Y-59654520D01*
X143089329Y-59644030D01*
X143112428Y-59635765D01*
X143136227Y-59629804D01*
X143160495Y-59626204D01*
X143184999Y-59625000D01*
X143835001Y-59625000D01*
X143859505Y-59626204D01*
G37*
G36*
X145909505Y-59626204D02*
G01*
X145933773Y-59629804D01*
X145957572Y-59635765D01*
X145980671Y-59644030D01*
X146002850Y-59654520D01*
X146023893Y-59667132D01*
X146043599Y-59681747D01*
X146061777Y-59698223D01*
X146078253Y-59716401D01*
X146092868Y-59736107D01*
X146105480Y-59757150D01*
X146115970Y-59779329D01*
X146124235Y-59802428D01*
X146130196Y-59826227D01*
X146133796Y-59850495D01*
X146135000Y-59874999D01*
X146135000Y-60775001D01*
X146133796Y-60799505D01*
X146130196Y-60823773D01*
X146124235Y-60847572D01*
X146115970Y-60870671D01*
X146105480Y-60892850D01*
X146092868Y-60913893D01*
X146078253Y-60933599D01*
X146061777Y-60951777D01*
X146043599Y-60968253D01*
X146023893Y-60982868D01*
X146002850Y-60995480D01*
X145980671Y-61005970D01*
X145957572Y-61014235D01*
X145933773Y-61020196D01*
X145909505Y-61023796D01*
X145885001Y-61025000D01*
X145234999Y-61025000D01*
X145210495Y-61023796D01*
X145186227Y-61020196D01*
X145162428Y-61014235D01*
X145139329Y-61005970D01*
X145117150Y-60995480D01*
X145096107Y-60982868D01*
X145076401Y-60968253D01*
X145058223Y-60951777D01*
X145041747Y-60933599D01*
X145027132Y-60913893D01*
X145014520Y-60892850D01*
X145004030Y-60870671D01*
X144995765Y-60847572D01*
X144989804Y-60823773D01*
X144986204Y-60799505D01*
X144985000Y-60775001D01*
X144985000Y-59874999D01*
X144986204Y-59850495D01*
X144989804Y-59826227D01*
X144995765Y-59802428D01*
X145004030Y-59779329D01*
X145014520Y-59757150D01*
X145027132Y-59736107D01*
X145041747Y-59716401D01*
X145058223Y-59698223D01*
X145076401Y-59681747D01*
X145096107Y-59667132D01*
X145117150Y-59654520D01*
X145139329Y-59644030D01*
X145162428Y-59635765D01*
X145186227Y-59629804D01*
X145210495Y-59626204D01*
X145234999Y-59625000D01*
X145885001Y-59625000D01*
X145909505Y-59626204D01*
G37*
G36*
X167989505Y-66611204D02*
G01*
X168013773Y-66614804D01*
X168037572Y-66620765D01*
X168060671Y-66629030D01*
X168082850Y-66639520D01*
X168103893Y-66652132D01*
X168123599Y-66666747D01*
X168141777Y-66683223D01*
X168158253Y-66701401D01*
X168172868Y-66721107D01*
X168185480Y-66742150D01*
X168195970Y-66764329D01*
X168204235Y-66787428D01*
X168210196Y-66811227D01*
X168213796Y-66835495D01*
X168215000Y-66859999D01*
X168215000Y-67760001D01*
X168213796Y-67784505D01*
X168210196Y-67808773D01*
X168204235Y-67832572D01*
X168195970Y-67855671D01*
X168185480Y-67877850D01*
X168172868Y-67898893D01*
X168158253Y-67918599D01*
X168141777Y-67936777D01*
X168123599Y-67953253D01*
X168103893Y-67967868D01*
X168082850Y-67980480D01*
X168060671Y-67990970D01*
X168037572Y-67999235D01*
X168013773Y-68005196D01*
X167989505Y-68008796D01*
X167965001Y-68010000D01*
X167314999Y-68010000D01*
X167290495Y-68008796D01*
X167266227Y-68005196D01*
X167242428Y-67999235D01*
X167219329Y-67990970D01*
X167197150Y-67980480D01*
X167176107Y-67967868D01*
X167156401Y-67953253D01*
X167138223Y-67936777D01*
X167121747Y-67918599D01*
X167107132Y-67898893D01*
X167094520Y-67877850D01*
X167084030Y-67855671D01*
X167075765Y-67832572D01*
X167069804Y-67808773D01*
X167066204Y-67784505D01*
X167065000Y-67760001D01*
X167065000Y-66859999D01*
X167066204Y-66835495D01*
X167069804Y-66811227D01*
X167075765Y-66787428D01*
X167084030Y-66764329D01*
X167094520Y-66742150D01*
X167107132Y-66721107D01*
X167121747Y-66701401D01*
X167138223Y-66683223D01*
X167156401Y-66666747D01*
X167176107Y-66652132D01*
X167197150Y-66639520D01*
X167219329Y-66629030D01*
X167242428Y-66620765D01*
X167266227Y-66614804D01*
X167290495Y-66611204D01*
X167314999Y-66610000D01*
X167965001Y-66610000D01*
X167989505Y-66611204D01*
G37*
G36*
X165939505Y-66611204D02*
G01*
X165963773Y-66614804D01*
X165987572Y-66620765D01*
X166010671Y-66629030D01*
X166032850Y-66639520D01*
X166053893Y-66652132D01*
X166073599Y-66666747D01*
X166091777Y-66683223D01*
X166108253Y-66701401D01*
X166122868Y-66721107D01*
X166135480Y-66742150D01*
X166145970Y-66764329D01*
X166154235Y-66787428D01*
X166160196Y-66811227D01*
X166163796Y-66835495D01*
X166165000Y-66859999D01*
X166165000Y-67760001D01*
X166163796Y-67784505D01*
X166160196Y-67808773D01*
X166154235Y-67832572D01*
X166145970Y-67855671D01*
X166135480Y-67877850D01*
X166122868Y-67898893D01*
X166108253Y-67918599D01*
X166091777Y-67936777D01*
X166073599Y-67953253D01*
X166053893Y-67967868D01*
X166032850Y-67980480D01*
X166010671Y-67990970D01*
X165987572Y-67999235D01*
X165963773Y-68005196D01*
X165939505Y-68008796D01*
X165915001Y-68010000D01*
X165264999Y-68010000D01*
X165240495Y-68008796D01*
X165216227Y-68005196D01*
X165192428Y-67999235D01*
X165169329Y-67990970D01*
X165147150Y-67980480D01*
X165126107Y-67967868D01*
X165106401Y-67953253D01*
X165088223Y-67936777D01*
X165071747Y-67918599D01*
X165057132Y-67898893D01*
X165044520Y-67877850D01*
X165034030Y-67855671D01*
X165025765Y-67832572D01*
X165019804Y-67808773D01*
X165016204Y-67784505D01*
X165015000Y-67760001D01*
X165015000Y-66859999D01*
X165016204Y-66835495D01*
X165019804Y-66811227D01*
X165025765Y-66787428D01*
X165034030Y-66764329D01*
X165044520Y-66742150D01*
X165057132Y-66721107D01*
X165071747Y-66701401D01*
X165088223Y-66683223D01*
X165106401Y-66666747D01*
X165126107Y-66652132D01*
X165147150Y-66639520D01*
X165169329Y-66629030D01*
X165192428Y-66620765D01*
X165216227Y-66614804D01*
X165240495Y-66611204D01*
X165264999Y-66610000D01*
X165915001Y-66610000D01*
X165939505Y-66611204D01*
G37*
G36*
X108114703Y-61355722D02*
G01*
X108129264Y-61357882D01*
X108143543Y-61361459D01*
X108157403Y-61366418D01*
X108170710Y-61372712D01*
X108183336Y-61380280D01*
X108195159Y-61389048D01*
X108206066Y-61398934D01*
X108215952Y-61409841D01*
X108224720Y-61421664D01*
X108232288Y-61434290D01*
X108238582Y-61447597D01*
X108243541Y-61461457D01*
X108247118Y-61475736D01*
X108249278Y-61490297D01*
X108250000Y-61505000D01*
X108250000Y-62955000D01*
X108249278Y-62969703D01*
X108247118Y-62984264D01*
X108243541Y-62998543D01*
X108238582Y-63012403D01*
X108232288Y-63025710D01*
X108224720Y-63038336D01*
X108215952Y-63050159D01*
X108206066Y-63061066D01*
X108195159Y-63070952D01*
X108183336Y-63079720D01*
X108170710Y-63087288D01*
X108157403Y-63093582D01*
X108143543Y-63098541D01*
X108129264Y-63102118D01*
X108114703Y-63104278D01*
X108100000Y-63105000D01*
X107800000Y-63105000D01*
X107785297Y-63104278D01*
X107770736Y-63102118D01*
X107756457Y-63098541D01*
X107742597Y-63093582D01*
X107729290Y-63087288D01*
X107716664Y-63079720D01*
X107704841Y-63070952D01*
X107693934Y-63061066D01*
X107684048Y-63050159D01*
X107675280Y-63038336D01*
X107667712Y-63025710D01*
X107661418Y-63012403D01*
X107656459Y-62998543D01*
X107652882Y-62984264D01*
X107650722Y-62969703D01*
X107650000Y-62955000D01*
X107650000Y-61505000D01*
X107650722Y-61490297D01*
X107652882Y-61475736D01*
X107656459Y-61461457D01*
X107661418Y-61447597D01*
X107667712Y-61434290D01*
X107675280Y-61421664D01*
X107684048Y-61409841D01*
X107693934Y-61398934D01*
X107704841Y-61389048D01*
X107716664Y-61380280D01*
X107729290Y-61372712D01*
X107742597Y-61366418D01*
X107756457Y-61361459D01*
X107770736Y-61357882D01*
X107785297Y-61355722D01*
X107800000Y-61355000D01*
X108100000Y-61355000D01*
X108114703Y-61355722D01*
G37*
G36*
X106844703Y-61355722D02*
G01*
X106859264Y-61357882D01*
X106873543Y-61361459D01*
X106887403Y-61366418D01*
X106900710Y-61372712D01*
X106913336Y-61380280D01*
X106925159Y-61389048D01*
X106936066Y-61398934D01*
X106945952Y-61409841D01*
X106954720Y-61421664D01*
X106962288Y-61434290D01*
X106968582Y-61447597D01*
X106973541Y-61461457D01*
X106977118Y-61475736D01*
X106979278Y-61490297D01*
X106980000Y-61505000D01*
X106980000Y-62955000D01*
X106979278Y-62969703D01*
X106977118Y-62984264D01*
X106973541Y-62998543D01*
X106968582Y-63012403D01*
X106962288Y-63025710D01*
X106954720Y-63038336D01*
X106945952Y-63050159D01*
X106936066Y-63061066D01*
X106925159Y-63070952D01*
X106913336Y-63079720D01*
X106900710Y-63087288D01*
X106887403Y-63093582D01*
X106873543Y-63098541D01*
X106859264Y-63102118D01*
X106844703Y-63104278D01*
X106830000Y-63105000D01*
X106530000Y-63105000D01*
X106515297Y-63104278D01*
X106500736Y-63102118D01*
X106486457Y-63098541D01*
X106472597Y-63093582D01*
X106459290Y-63087288D01*
X106446664Y-63079720D01*
X106434841Y-63070952D01*
X106423934Y-63061066D01*
X106414048Y-63050159D01*
X106405280Y-63038336D01*
X106397712Y-63025710D01*
X106391418Y-63012403D01*
X106386459Y-62998543D01*
X106382882Y-62984264D01*
X106380722Y-62969703D01*
X106380000Y-62955000D01*
X106380000Y-61505000D01*
X106380722Y-61490297D01*
X106382882Y-61475736D01*
X106386459Y-61461457D01*
X106391418Y-61447597D01*
X106397712Y-61434290D01*
X106405280Y-61421664D01*
X106414048Y-61409841D01*
X106423934Y-61398934D01*
X106434841Y-61389048D01*
X106446664Y-61380280D01*
X106459290Y-61372712D01*
X106472597Y-61366418D01*
X106486457Y-61361459D01*
X106500736Y-61357882D01*
X106515297Y-61355722D01*
X106530000Y-61355000D01*
X106830000Y-61355000D01*
X106844703Y-61355722D01*
G37*
G36*
X105574703Y-61355722D02*
G01*
X105589264Y-61357882D01*
X105603543Y-61361459D01*
X105617403Y-61366418D01*
X105630710Y-61372712D01*
X105643336Y-61380280D01*
X105655159Y-61389048D01*
X105666066Y-61398934D01*
X105675952Y-61409841D01*
X105684720Y-61421664D01*
X105692288Y-61434290D01*
X105698582Y-61447597D01*
X105703541Y-61461457D01*
X105707118Y-61475736D01*
X105709278Y-61490297D01*
X105710000Y-61505000D01*
X105710000Y-62955000D01*
X105709278Y-62969703D01*
X105707118Y-62984264D01*
X105703541Y-62998543D01*
X105698582Y-63012403D01*
X105692288Y-63025710D01*
X105684720Y-63038336D01*
X105675952Y-63050159D01*
X105666066Y-63061066D01*
X105655159Y-63070952D01*
X105643336Y-63079720D01*
X105630710Y-63087288D01*
X105617403Y-63093582D01*
X105603543Y-63098541D01*
X105589264Y-63102118D01*
X105574703Y-63104278D01*
X105560000Y-63105000D01*
X105260000Y-63105000D01*
X105245297Y-63104278D01*
X105230736Y-63102118D01*
X105216457Y-63098541D01*
X105202597Y-63093582D01*
X105189290Y-63087288D01*
X105176664Y-63079720D01*
X105164841Y-63070952D01*
X105153934Y-63061066D01*
X105144048Y-63050159D01*
X105135280Y-63038336D01*
X105127712Y-63025710D01*
X105121418Y-63012403D01*
X105116459Y-62998543D01*
X105112882Y-62984264D01*
X105110722Y-62969703D01*
X105110000Y-62955000D01*
X105110000Y-61505000D01*
X105110722Y-61490297D01*
X105112882Y-61475736D01*
X105116459Y-61461457D01*
X105121418Y-61447597D01*
X105127712Y-61434290D01*
X105135280Y-61421664D01*
X105144048Y-61409841D01*
X105153934Y-61398934D01*
X105164841Y-61389048D01*
X105176664Y-61380280D01*
X105189290Y-61372712D01*
X105202597Y-61366418D01*
X105216457Y-61361459D01*
X105230736Y-61357882D01*
X105245297Y-61355722D01*
X105260000Y-61355000D01*
X105560000Y-61355000D01*
X105574703Y-61355722D01*
G37*
G36*
X104304703Y-61355722D02*
G01*
X104319264Y-61357882D01*
X104333543Y-61361459D01*
X104347403Y-61366418D01*
X104360710Y-61372712D01*
X104373336Y-61380280D01*
X104385159Y-61389048D01*
X104396066Y-61398934D01*
X104405952Y-61409841D01*
X104414720Y-61421664D01*
X104422288Y-61434290D01*
X104428582Y-61447597D01*
X104433541Y-61461457D01*
X104437118Y-61475736D01*
X104439278Y-61490297D01*
X104440000Y-61505000D01*
X104440000Y-62955000D01*
X104439278Y-62969703D01*
X104437118Y-62984264D01*
X104433541Y-62998543D01*
X104428582Y-63012403D01*
X104422288Y-63025710D01*
X104414720Y-63038336D01*
X104405952Y-63050159D01*
X104396066Y-63061066D01*
X104385159Y-63070952D01*
X104373336Y-63079720D01*
X104360710Y-63087288D01*
X104347403Y-63093582D01*
X104333543Y-63098541D01*
X104319264Y-63102118D01*
X104304703Y-63104278D01*
X104290000Y-63105000D01*
X103990000Y-63105000D01*
X103975297Y-63104278D01*
X103960736Y-63102118D01*
X103946457Y-63098541D01*
X103932597Y-63093582D01*
X103919290Y-63087288D01*
X103906664Y-63079720D01*
X103894841Y-63070952D01*
X103883934Y-63061066D01*
X103874048Y-63050159D01*
X103865280Y-63038336D01*
X103857712Y-63025710D01*
X103851418Y-63012403D01*
X103846459Y-62998543D01*
X103842882Y-62984264D01*
X103840722Y-62969703D01*
X103840000Y-62955000D01*
X103840000Y-61505000D01*
X103840722Y-61490297D01*
X103842882Y-61475736D01*
X103846459Y-61461457D01*
X103851418Y-61447597D01*
X103857712Y-61434290D01*
X103865280Y-61421664D01*
X103874048Y-61409841D01*
X103883934Y-61398934D01*
X103894841Y-61389048D01*
X103906664Y-61380280D01*
X103919290Y-61372712D01*
X103932597Y-61366418D01*
X103946457Y-61361459D01*
X103960736Y-61357882D01*
X103975297Y-61355722D01*
X103990000Y-61355000D01*
X104290000Y-61355000D01*
X104304703Y-61355722D01*
G37*
G36*
X104304703Y-66505722D02*
G01*
X104319264Y-66507882D01*
X104333543Y-66511459D01*
X104347403Y-66516418D01*
X104360710Y-66522712D01*
X104373336Y-66530280D01*
X104385159Y-66539048D01*
X104396066Y-66548934D01*
X104405952Y-66559841D01*
X104414720Y-66571664D01*
X104422288Y-66584290D01*
X104428582Y-66597597D01*
X104433541Y-66611457D01*
X104437118Y-66625736D01*
X104439278Y-66640297D01*
X104440000Y-66655000D01*
X104440000Y-68105000D01*
X104439278Y-68119703D01*
X104437118Y-68134264D01*
X104433541Y-68148543D01*
X104428582Y-68162403D01*
X104422288Y-68175710D01*
X104414720Y-68188336D01*
X104405952Y-68200159D01*
X104396066Y-68211066D01*
X104385159Y-68220952D01*
X104373336Y-68229720D01*
X104360710Y-68237288D01*
X104347403Y-68243582D01*
X104333543Y-68248541D01*
X104319264Y-68252118D01*
X104304703Y-68254278D01*
X104290000Y-68255000D01*
X103990000Y-68255000D01*
X103975297Y-68254278D01*
X103960736Y-68252118D01*
X103946457Y-68248541D01*
X103932597Y-68243582D01*
X103919290Y-68237288D01*
X103906664Y-68229720D01*
X103894841Y-68220952D01*
X103883934Y-68211066D01*
X103874048Y-68200159D01*
X103865280Y-68188336D01*
X103857712Y-68175710D01*
X103851418Y-68162403D01*
X103846459Y-68148543D01*
X103842882Y-68134264D01*
X103840722Y-68119703D01*
X103840000Y-68105000D01*
X103840000Y-66655000D01*
X103840722Y-66640297D01*
X103842882Y-66625736D01*
X103846459Y-66611457D01*
X103851418Y-66597597D01*
X103857712Y-66584290D01*
X103865280Y-66571664D01*
X103874048Y-66559841D01*
X103883934Y-66548934D01*
X103894841Y-66539048D01*
X103906664Y-66530280D01*
X103919290Y-66522712D01*
X103932597Y-66516418D01*
X103946457Y-66511459D01*
X103960736Y-66507882D01*
X103975297Y-66505722D01*
X103990000Y-66505000D01*
X104290000Y-66505000D01*
X104304703Y-66505722D01*
G37*
G36*
X105574703Y-66505722D02*
G01*
X105589264Y-66507882D01*
X105603543Y-66511459D01*
X105617403Y-66516418D01*
X105630710Y-66522712D01*
X105643336Y-66530280D01*
X105655159Y-66539048D01*
X105666066Y-66548934D01*
X105675952Y-66559841D01*
X105684720Y-66571664D01*
X105692288Y-66584290D01*
X105698582Y-66597597D01*
X105703541Y-66611457D01*
X105707118Y-66625736D01*
X105709278Y-66640297D01*
X105710000Y-66655000D01*
X105710000Y-68105000D01*
X105709278Y-68119703D01*
X105707118Y-68134264D01*
X105703541Y-68148543D01*
X105698582Y-68162403D01*
X105692288Y-68175710D01*
X105684720Y-68188336D01*
X105675952Y-68200159D01*
X105666066Y-68211066D01*
X105655159Y-68220952D01*
X105643336Y-68229720D01*
X105630710Y-68237288D01*
X105617403Y-68243582D01*
X105603543Y-68248541D01*
X105589264Y-68252118D01*
X105574703Y-68254278D01*
X105560000Y-68255000D01*
X105260000Y-68255000D01*
X105245297Y-68254278D01*
X105230736Y-68252118D01*
X105216457Y-68248541D01*
X105202597Y-68243582D01*
X105189290Y-68237288D01*
X105176664Y-68229720D01*
X105164841Y-68220952D01*
X105153934Y-68211066D01*
X105144048Y-68200159D01*
X105135280Y-68188336D01*
X105127712Y-68175710D01*
X105121418Y-68162403D01*
X105116459Y-68148543D01*
X105112882Y-68134264D01*
X105110722Y-68119703D01*
X105110000Y-68105000D01*
X105110000Y-66655000D01*
X105110722Y-66640297D01*
X105112882Y-66625736D01*
X105116459Y-66611457D01*
X105121418Y-66597597D01*
X105127712Y-66584290D01*
X105135280Y-66571664D01*
X105144048Y-66559841D01*
X105153934Y-66548934D01*
X105164841Y-66539048D01*
X105176664Y-66530280D01*
X105189290Y-66522712D01*
X105202597Y-66516418D01*
X105216457Y-66511459D01*
X105230736Y-66507882D01*
X105245297Y-66505722D01*
X105260000Y-66505000D01*
X105560000Y-66505000D01*
X105574703Y-66505722D01*
G37*
G36*
X106844703Y-66505722D02*
G01*
X106859264Y-66507882D01*
X106873543Y-66511459D01*
X106887403Y-66516418D01*
X106900710Y-66522712D01*
X106913336Y-66530280D01*
X106925159Y-66539048D01*
X106936066Y-66548934D01*
X106945952Y-66559841D01*
X106954720Y-66571664D01*
X106962288Y-66584290D01*
X106968582Y-66597597D01*
X106973541Y-66611457D01*
X106977118Y-66625736D01*
X106979278Y-66640297D01*
X106980000Y-66655000D01*
X106980000Y-68105000D01*
X106979278Y-68119703D01*
X106977118Y-68134264D01*
X106973541Y-68148543D01*
X106968582Y-68162403D01*
X106962288Y-68175710D01*
X106954720Y-68188336D01*
X106945952Y-68200159D01*
X106936066Y-68211066D01*
X106925159Y-68220952D01*
X106913336Y-68229720D01*
X106900710Y-68237288D01*
X106887403Y-68243582D01*
X106873543Y-68248541D01*
X106859264Y-68252118D01*
X106844703Y-68254278D01*
X106830000Y-68255000D01*
X106530000Y-68255000D01*
X106515297Y-68254278D01*
X106500736Y-68252118D01*
X106486457Y-68248541D01*
X106472597Y-68243582D01*
X106459290Y-68237288D01*
X106446664Y-68229720D01*
X106434841Y-68220952D01*
X106423934Y-68211066D01*
X106414048Y-68200159D01*
X106405280Y-68188336D01*
X106397712Y-68175710D01*
X106391418Y-68162403D01*
X106386459Y-68148543D01*
X106382882Y-68134264D01*
X106380722Y-68119703D01*
X106380000Y-68105000D01*
X106380000Y-66655000D01*
X106380722Y-66640297D01*
X106382882Y-66625736D01*
X106386459Y-66611457D01*
X106391418Y-66597597D01*
X106397712Y-66584290D01*
X106405280Y-66571664D01*
X106414048Y-66559841D01*
X106423934Y-66548934D01*
X106434841Y-66539048D01*
X106446664Y-66530280D01*
X106459290Y-66522712D01*
X106472597Y-66516418D01*
X106486457Y-66511459D01*
X106500736Y-66507882D01*
X106515297Y-66505722D01*
X106530000Y-66505000D01*
X106830000Y-66505000D01*
X106844703Y-66505722D01*
G37*
G36*
X108114703Y-66505722D02*
G01*
X108129264Y-66507882D01*
X108143543Y-66511459D01*
X108157403Y-66516418D01*
X108170710Y-66522712D01*
X108183336Y-66530280D01*
X108195159Y-66539048D01*
X108206066Y-66548934D01*
X108215952Y-66559841D01*
X108224720Y-66571664D01*
X108232288Y-66584290D01*
X108238582Y-66597597D01*
X108243541Y-66611457D01*
X108247118Y-66625736D01*
X108249278Y-66640297D01*
X108250000Y-66655000D01*
X108250000Y-68105000D01*
X108249278Y-68119703D01*
X108247118Y-68134264D01*
X108243541Y-68148543D01*
X108238582Y-68162403D01*
X108232288Y-68175710D01*
X108224720Y-68188336D01*
X108215952Y-68200159D01*
X108206066Y-68211066D01*
X108195159Y-68220952D01*
X108183336Y-68229720D01*
X108170710Y-68237288D01*
X108157403Y-68243582D01*
X108143543Y-68248541D01*
X108129264Y-68252118D01*
X108114703Y-68254278D01*
X108100000Y-68255000D01*
X107800000Y-68255000D01*
X107785297Y-68254278D01*
X107770736Y-68252118D01*
X107756457Y-68248541D01*
X107742597Y-68243582D01*
X107729290Y-68237288D01*
X107716664Y-68229720D01*
X107704841Y-68220952D01*
X107693934Y-68211066D01*
X107684048Y-68200159D01*
X107675280Y-68188336D01*
X107667712Y-68175710D01*
X107661418Y-68162403D01*
X107656459Y-68148543D01*
X107652882Y-68134264D01*
X107650722Y-68119703D01*
X107650000Y-68105000D01*
X107650000Y-66655000D01*
X107650722Y-66640297D01*
X107652882Y-66625736D01*
X107656459Y-66611457D01*
X107661418Y-66597597D01*
X107667712Y-66584290D01*
X107675280Y-66571664D01*
X107684048Y-66559841D01*
X107693934Y-66548934D01*
X107704841Y-66539048D01*
X107716664Y-66530280D01*
X107729290Y-66522712D01*
X107742597Y-66516418D01*
X107756457Y-66511459D01*
X107770736Y-66507882D01*
X107785297Y-66505722D01*
X107800000Y-66505000D01*
X108100000Y-66505000D01*
X108114703Y-66505722D01*
G37*
G36*
X121354703Y-67645722D02*
G01*
X121369264Y-67647882D01*
X121383543Y-67651459D01*
X121397403Y-67656418D01*
X121410710Y-67662712D01*
X121423336Y-67670280D01*
X121435159Y-67679048D01*
X121446066Y-67688934D01*
X121455952Y-67699841D01*
X121464720Y-67711664D01*
X121472288Y-67724290D01*
X121478582Y-67737597D01*
X121483541Y-67751457D01*
X121487118Y-67765736D01*
X121489278Y-67780297D01*
X121490000Y-67795000D01*
X121490000Y-68095000D01*
X121489278Y-68109703D01*
X121487118Y-68124264D01*
X121483541Y-68138543D01*
X121478582Y-68152403D01*
X121472288Y-68165710D01*
X121464720Y-68178336D01*
X121455952Y-68190159D01*
X121446066Y-68201066D01*
X121435159Y-68210952D01*
X121423336Y-68219720D01*
X121410710Y-68227288D01*
X121397403Y-68233582D01*
X121383543Y-68238541D01*
X121369264Y-68242118D01*
X121354703Y-68244278D01*
X121340000Y-68245000D01*
X119890000Y-68245000D01*
X119875297Y-68244278D01*
X119860736Y-68242118D01*
X119846457Y-68238541D01*
X119832597Y-68233582D01*
X119819290Y-68227288D01*
X119806664Y-68219720D01*
X119794841Y-68210952D01*
X119783934Y-68201066D01*
X119774048Y-68190159D01*
X119765280Y-68178336D01*
X119757712Y-68165710D01*
X119751418Y-68152403D01*
X119746459Y-68138543D01*
X119742882Y-68124264D01*
X119740722Y-68109703D01*
X119740000Y-68095000D01*
X119740000Y-67795000D01*
X119740722Y-67780297D01*
X119742882Y-67765736D01*
X119746459Y-67751457D01*
X119751418Y-67737597D01*
X119757712Y-67724290D01*
X119765280Y-67711664D01*
X119774048Y-67699841D01*
X119783934Y-67688934D01*
X119794841Y-67679048D01*
X119806664Y-67670280D01*
X119819290Y-67662712D01*
X119832597Y-67656418D01*
X119846457Y-67651459D01*
X119860736Y-67647882D01*
X119875297Y-67645722D01*
X119890000Y-67645000D01*
X121340000Y-67645000D01*
X121354703Y-67645722D01*
G37*
G36*
X121354703Y-66375722D02*
G01*
X121369264Y-66377882D01*
X121383543Y-66381459D01*
X121397403Y-66386418D01*
X121410710Y-66392712D01*
X121423336Y-66400280D01*
X121435159Y-66409048D01*
X121446066Y-66418934D01*
X121455952Y-66429841D01*
X121464720Y-66441664D01*
X121472288Y-66454290D01*
X121478582Y-66467597D01*
X121483541Y-66481457D01*
X121487118Y-66495736D01*
X121489278Y-66510297D01*
X121490000Y-66525000D01*
X121490000Y-66825000D01*
X121489278Y-66839703D01*
X121487118Y-66854264D01*
X121483541Y-66868543D01*
X121478582Y-66882403D01*
X121472288Y-66895710D01*
X121464720Y-66908336D01*
X121455952Y-66920159D01*
X121446066Y-66931066D01*
X121435159Y-66940952D01*
X121423336Y-66949720D01*
X121410710Y-66957288D01*
X121397403Y-66963582D01*
X121383543Y-66968541D01*
X121369264Y-66972118D01*
X121354703Y-66974278D01*
X121340000Y-66975000D01*
X119890000Y-66975000D01*
X119875297Y-66974278D01*
X119860736Y-66972118D01*
X119846457Y-66968541D01*
X119832597Y-66963582D01*
X119819290Y-66957288D01*
X119806664Y-66949720D01*
X119794841Y-66940952D01*
X119783934Y-66931066D01*
X119774048Y-66920159D01*
X119765280Y-66908336D01*
X119757712Y-66895710D01*
X119751418Y-66882403D01*
X119746459Y-66868543D01*
X119742882Y-66854264D01*
X119740722Y-66839703D01*
X119740000Y-66825000D01*
X119740000Y-66525000D01*
X119740722Y-66510297D01*
X119742882Y-66495736D01*
X119746459Y-66481457D01*
X119751418Y-66467597D01*
X119757712Y-66454290D01*
X119765280Y-66441664D01*
X119774048Y-66429841D01*
X119783934Y-66418934D01*
X119794841Y-66409048D01*
X119806664Y-66400280D01*
X119819290Y-66392712D01*
X119832597Y-66386418D01*
X119846457Y-66381459D01*
X119860736Y-66377882D01*
X119875297Y-66375722D01*
X119890000Y-66375000D01*
X121340000Y-66375000D01*
X121354703Y-66375722D01*
G37*
G36*
X121354703Y-65105722D02*
G01*
X121369264Y-65107882D01*
X121383543Y-65111459D01*
X121397403Y-65116418D01*
X121410710Y-65122712D01*
X121423336Y-65130280D01*
X121435159Y-65139048D01*
X121446066Y-65148934D01*
X121455952Y-65159841D01*
X121464720Y-65171664D01*
X121472288Y-65184290D01*
X121478582Y-65197597D01*
X121483541Y-65211457D01*
X121487118Y-65225736D01*
X121489278Y-65240297D01*
X121490000Y-65255000D01*
X121490000Y-65555000D01*
X121489278Y-65569703D01*
X121487118Y-65584264D01*
X121483541Y-65598543D01*
X121478582Y-65612403D01*
X121472288Y-65625710D01*
X121464720Y-65638336D01*
X121455952Y-65650159D01*
X121446066Y-65661066D01*
X121435159Y-65670952D01*
X121423336Y-65679720D01*
X121410710Y-65687288D01*
X121397403Y-65693582D01*
X121383543Y-65698541D01*
X121369264Y-65702118D01*
X121354703Y-65704278D01*
X121340000Y-65705000D01*
X119890000Y-65705000D01*
X119875297Y-65704278D01*
X119860736Y-65702118D01*
X119846457Y-65698541D01*
X119832597Y-65693582D01*
X119819290Y-65687288D01*
X119806664Y-65679720D01*
X119794841Y-65670952D01*
X119783934Y-65661066D01*
X119774048Y-65650159D01*
X119765280Y-65638336D01*
X119757712Y-65625710D01*
X119751418Y-65612403D01*
X119746459Y-65598543D01*
X119742882Y-65584264D01*
X119740722Y-65569703D01*
X119740000Y-65555000D01*
X119740000Y-65255000D01*
X119740722Y-65240297D01*
X119742882Y-65225736D01*
X119746459Y-65211457D01*
X119751418Y-65197597D01*
X119757712Y-65184290D01*
X119765280Y-65171664D01*
X119774048Y-65159841D01*
X119783934Y-65148934D01*
X119794841Y-65139048D01*
X119806664Y-65130280D01*
X119819290Y-65122712D01*
X119832597Y-65116418D01*
X119846457Y-65111459D01*
X119860736Y-65107882D01*
X119875297Y-65105722D01*
X119890000Y-65105000D01*
X121340000Y-65105000D01*
X121354703Y-65105722D01*
G37*
G36*
X121354703Y-63835722D02*
G01*
X121369264Y-63837882D01*
X121383543Y-63841459D01*
X121397403Y-63846418D01*
X121410710Y-63852712D01*
X121423336Y-63860280D01*
X121435159Y-63869048D01*
X121446066Y-63878934D01*
X121455952Y-63889841D01*
X121464720Y-63901664D01*
X121472288Y-63914290D01*
X121478582Y-63927597D01*
X121483541Y-63941457D01*
X121487118Y-63955736D01*
X121489278Y-63970297D01*
X121490000Y-63985000D01*
X121490000Y-64285000D01*
X121489278Y-64299703D01*
X121487118Y-64314264D01*
X121483541Y-64328543D01*
X121478582Y-64342403D01*
X121472288Y-64355710D01*
X121464720Y-64368336D01*
X121455952Y-64380159D01*
X121446066Y-64391066D01*
X121435159Y-64400952D01*
X121423336Y-64409720D01*
X121410710Y-64417288D01*
X121397403Y-64423582D01*
X121383543Y-64428541D01*
X121369264Y-64432118D01*
X121354703Y-64434278D01*
X121340000Y-64435000D01*
X119890000Y-64435000D01*
X119875297Y-64434278D01*
X119860736Y-64432118D01*
X119846457Y-64428541D01*
X119832597Y-64423582D01*
X119819290Y-64417288D01*
X119806664Y-64409720D01*
X119794841Y-64400952D01*
X119783934Y-64391066D01*
X119774048Y-64380159D01*
X119765280Y-64368336D01*
X119757712Y-64355710D01*
X119751418Y-64342403D01*
X119746459Y-64328543D01*
X119742882Y-64314264D01*
X119740722Y-64299703D01*
X119740000Y-64285000D01*
X119740000Y-63985000D01*
X119740722Y-63970297D01*
X119742882Y-63955736D01*
X119746459Y-63941457D01*
X119751418Y-63927597D01*
X119757712Y-63914290D01*
X119765280Y-63901664D01*
X119774048Y-63889841D01*
X119783934Y-63878934D01*
X119794841Y-63869048D01*
X119806664Y-63860280D01*
X119819290Y-63852712D01*
X119832597Y-63846418D01*
X119846457Y-63841459D01*
X119860736Y-63837882D01*
X119875297Y-63835722D01*
X119890000Y-63835000D01*
X121340000Y-63835000D01*
X121354703Y-63835722D01*
G37*
G36*
X126504703Y-63835722D02*
G01*
X126519264Y-63837882D01*
X126533543Y-63841459D01*
X126547403Y-63846418D01*
X126560710Y-63852712D01*
X126573336Y-63860280D01*
X126585159Y-63869048D01*
X126596066Y-63878934D01*
X126605952Y-63889841D01*
X126614720Y-63901664D01*
X126622288Y-63914290D01*
X126628582Y-63927597D01*
X126633541Y-63941457D01*
X126637118Y-63955736D01*
X126639278Y-63970297D01*
X126640000Y-63985000D01*
X126640000Y-64285000D01*
X126639278Y-64299703D01*
X126637118Y-64314264D01*
X126633541Y-64328543D01*
X126628582Y-64342403D01*
X126622288Y-64355710D01*
X126614720Y-64368336D01*
X126605952Y-64380159D01*
X126596066Y-64391066D01*
X126585159Y-64400952D01*
X126573336Y-64409720D01*
X126560710Y-64417288D01*
X126547403Y-64423582D01*
X126533543Y-64428541D01*
X126519264Y-64432118D01*
X126504703Y-64434278D01*
X126490000Y-64435000D01*
X125040000Y-64435000D01*
X125025297Y-64434278D01*
X125010736Y-64432118D01*
X124996457Y-64428541D01*
X124982597Y-64423582D01*
X124969290Y-64417288D01*
X124956664Y-64409720D01*
X124944841Y-64400952D01*
X124933934Y-64391066D01*
X124924048Y-64380159D01*
X124915280Y-64368336D01*
X124907712Y-64355710D01*
X124901418Y-64342403D01*
X124896459Y-64328543D01*
X124892882Y-64314264D01*
X124890722Y-64299703D01*
X124890000Y-64285000D01*
X124890000Y-63985000D01*
X124890722Y-63970297D01*
X124892882Y-63955736D01*
X124896459Y-63941457D01*
X124901418Y-63927597D01*
X124907712Y-63914290D01*
X124915280Y-63901664D01*
X124924048Y-63889841D01*
X124933934Y-63878934D01*
X124944841Y-63869048D01*
X124956664Y-63860280D01*
X124969290Y-63852712D01*
X124982597Y-63846418D01*
X124996457Y-63841459D01*
X125010736Y-63837882D01*
X125025297Y-63835722D01*
X125040000Y-63835000D01*
X126490000Y-63835000D01*
X126504703Y-63835722D01*
G37*
G36*
X126504703Y-65105722D02*
G01*
X126519264Y-65107882D01*
X126533543Y-65111459D01*
X126547403Y-65116418D01*
X126560710Y-65122712D01*
X126573336Y-65130280D01*
X126585159Y-65139048D01*
X126596066Y-65148934D01*
X126605952Y-65159841D01*
X126614720Y-65171664D01*
X126622288Y-65184290D01*
X126628582Y-65197597D01*
X126633541Y-65211457D01*
X126637118Y-65225736D01*
X126639278Y-65240297D01*
X126640000Y-65255000D01*
X126640000Y-65555000D01*
X126639278Y-65569703D01*
X126637118Y-65584264D01*
X126633541Y-65598543D01*
X126628582Y-65612403D01*
X126622288Y-65625710D01*
X126614720Y-65638336D01*
X126605952Y-65650159D01*
X126596066Y-65661066D01*
X126585159Y-65670952D01*
X126573336Y-65679720D01*
X126560710Y-65687288D01*
X126547403Y-65693582D01*
X126533543Y-65698541D01*
X126519264Y-65702118D01*
X126504703Y-65704278D01*
X126490000Y-65705000D01*
X125040000Y-65705000D01*
X125025297Y-65704278D01*
X125010736Y-65702118D01*
X124996457Y-65698541D01*
X124982597Y-65693582D01*
X124969290Y-65687288D01*
X124956664Y-65679720D01*
X124944841Y-65670952D01*
X124933934Y-65661066D01*
X124924048Y-65650159D01*
X124915280Y-65638336D01*
X124907712Y-65625710D01*
X124901418Y-65612403D01*
X124896459Y-65598543D01*
X124892882Y-65584264D01*
X124890722Y-65569703D01*
X124890000Y-65555000D01*
X124890000Y-65255000D01*
X124890722Y-65240297D01*
X124892882Y-65225736D01*
X124896459Y-65211457D01*
X124901418Y-65197597D01*
X124907712Y-65184290D01*
X124915280Y-65171664D01*
X124924048Y-65159841D01*
X124933934Y-65148934D01*
X124944841Y-65139048D01*
X124956664Y-65130280D01*
X124969290Y-65122712D01*
X124982597Y-65116418D01*
X124996457Y-65111459D01*
X125010736Y-65107882D01*
X125025297Y-65105722D01*
X125040000Y-65105000D01*
X126490000Y-65105000D01*
X126504703Y-65105722D01*
G37*
G36*
X126504703Y-66375722D02*
G01*
X126519264Y-66377882D01*
X126533543Y-66381459D01*
X126547403Y-66386418D01*
X126560710Y-66392712D01*
X126573336Y-66400280D01*
X126585159Y-66409048D01*
X126596066Y-66418934D01*
X126605952Y-66429841D01*
X126614720Y-66441664D01*
X126622288Y-66454290D01*
X126628582Y-66467597D01*
X126633541Y-66481457D01*
X126637118Y-66495736D01*
X126639278Y-66510297D01*
X126640000Y-66525000D01*
X126640000Y-66825000D01*
X126639278Y-66839703D01*
X126637118Y-66854264D01*
X126633541Y-66868543D01*
X126628582Y-66882403D01*
X126622288Y-66895710D01*
X126614720Y-66908336D01*
X126605952Y-66920159D01*
X126596066Y-66931066D01*
X126585159Y-66940952D01*
X126573336Y-66949720D01*
X126560710Y-66957288D01*
X126547403Y-66963582D01*
X126533543Y-66968541D01*
X126519264Y-66972118D01*
X126504703Y-66974278D01*
X126490000Y-66975000D01*
X125040000Y-66975000D01*
X125025297Y-66974278D01*
X125010736Y-66972118D01*
X124996457Y-66968541D01*
X124982597Y-66963582D01*
X124969290Y-66957288D01*
X124956664Y-66949720D01*
X124944841Y-66940952D01*
X124933934Y-66931066D01*
X124924048Y-66920159D01*
X124915280Y-66908336D01*
X124907712Y-66895710D01*
X124901418Y-66882403D01*
X124896459Y-66868543D01*
X124892882Y-66854264D01*
X124890722Y-66839703D01*
X124890000Y-66825000D01*
X124890000Y-66525000D01*
X124890722Y-66510297D01*
X124892882Y-66495736D01*
X124896459Y-66481457D01*
X124901418Y-66467597D01*
X124907712Y-66454290D01*
X124915280Y-66441664D01*
X124924048Y-66429841D01*
X124933934Y-66418934D01*
X124944841Y-66409048D01*
X124956664Y-66400280D01*
X124969290Y-66392712D01*
X124982597Y-66386418D01*
X124996457Y-66381459D01*
X125010736Y-66377882D01*
X125025297Y-66375722D01*
X125040000Y-66375000D01*
X126490000Y-66375000D01*
X126504703Y-66375722D01*
G37*
G36*
X126504703Y-67645722D02*
G01*
X126519264Y-67647882D01*
X126533543Y-67651459D01*
X126547403Y-67656418D01*
X126560710Y-67662712D01*
X126573336Y-67670280D01*
X126585159Y-67679048D01*
X126596066Y-67688934D01*
X126605952Y-67699841D01*
X126614720Y-67711664D01*
X126622288Y-67724290D01*
X126628582Y-67737597D01*
X126633541Y-67751457D01*
X126637118Y-67765736D01*
X126639278Y-67780297D01*
X126640000Y-67795000D01*
X126640000Y-68095000D01*
X126639278Y-68109703D01*
X126637118Y-68124264D01*
X126633541Y-68138543D01*
X126628582Y-68152403D01*
X126622288Y-68165710D01*
X126614720Y-68178336D01*
X126605952Y-68190159D01*
X126596066Y-68201066D01*
X126585159Y-68210952D01*
X126573336Y-68219720D01*
X126560710Y-68227288D01*
X126547403Y-68233582D01*
X126533543Y-68238541D01*
X126519264Y-68242118D01*
X126504703Y-68244278D01*
X126490000Y-68245000D01*
X125040000Y-68245000D01*
X125025297Y-68244278D01*
X125010736Y-68242118D01*
X124996457Y-68238541D01*
X124982597Y-68233582D01*
X124969290Y-68227288D01*
X124956664Y-68219720D01*
X124944841Y-68210952D01*
X124933934Y-68201066D01*
X124924048Y-68190159D01*
X124915280Y-68178336D01*
X124907712Y-68165710D01*
X124901418Y-68152403D01*
X124896459Y-68138543D01*
X124892882Y-68124264D01*
X124890722Y-68109703D01*
X124890000Y-68095000D01*
X124890000Y-67795000D01*
X124890722Y-67780297D01*
X124892882Y-67765736D01*
X124896459Y-67751457D01*
X124901418Y-67737597D01*
X124907712Y-67724290D01*
X124915280Y-67711664D01*
X124924048Y-67699841D01*
X124933934Y-67688934D01*
X124944841Y-67679048D01*
X124956664Y-67670280D01*
X124969290Y-67662712D01*
X124982597Y-67656418D01*
X124996457Y-67651459D01*
X125010736Y-67647882D01*
X125025297Y-67645722D01*
X125040000Y-67645000D01*
X126490000Y-67645000D01*
X126504703Y-67645722D01*
G37*
D12*
X145730000Y-64690000D03*
X144780000Y-64690000D03*
X143830000Y-64690000D03*
X143830000Y-67390000D03*
X145730000Y-67390000D03*
X155890000Y-67390000D03*
X153990000Y-67390000D03*
X153990000Y-64690000D03*
X154940000Y-64690000D03*
X155890000Y-64690000D03*
X173750000Y-64690000D03*
X172800000Y-64690000D03*
X171850000Y-64690000D03*
X171850000Y-67390000D03*
X173750000Y-67390000D03*
M02*
