M48
; DRILL file {KiCad (5.1.5)-3} date 5/18/2020 11:13:32 AM
; FORMAT={-:-/ absolute / inch / decimal}
; #@! TF.CreationDate,2020-05-18T11:13:32-07:00
; #@! TF.GenerationSoftware,Kicad,Pcbnew,(5.1.5)-3
; #@! TF.FileFunction,Plated,1,2,PTH
FMAT,2
INCH
T1C0.0157
T2C0.0160
T3C0.0256
T4C0.0394
T5C0.0472
%
G90
G05
T1
X4.25Y-2.375
X4.3Y-2.75
X4.475Y-2.4811
X4.55Y-2.45
X4.55Y-2.625
X4.8Y-2.35
X4.928Y-2.324
X4.975Y-2.425
X5.1Y-2.175
X5.25Y-2.475
X5.25Y-2.65
X5.35Y-2.1
X5.35Y-2.725
X5.4Y-2.275
X5.4Y-2.45
X5.6Y-2.1
X5.7Y-2.475
X5.75Y-2.725
X5.75Y-2.925
X5.925Y-2.625
X6.05Y-2.775
X6.1Y-2.475
X6.125Y-2.9
X6.625Y-2.4
X6.75Y-2.775
X6.8Y-2.45
X6.85Y-2.925
X6.95Y-2.35
T2
X4.075Y-2.35
X4.2Y-2.925
X4.6Y-2.55
X4.875Y-2.625
X5.025Y-2.475
T3
X4.699Y-2.229
X4.749Y-2.229
X4.799Y-2.229
X4.849Y-2.229
X4.899Y-2.229
X4.949Y-2.229
T4
X4.774Y-2.087
X4.874Y-2.087
X6.4Y-2.925
X6.5Y-2.925
X6.6Y-2.925
X4.45Y-2.925
X4.55Y-2.925
X4.65Y-2.925
T5
X4.15Y-2.15
X4.45Y-2.15
X6.85Y-2.15
T0
M30
