M48
; DRILL file {KiCad (5.1.5)-3} date 6/25/2020 2:03:05 PM
; FORMAT={-:-/ absolute / inch / decimal}
; #@! TF.CreationDate,2020-06-25T14:03:05-07:00
; #@! TF.GenerationSoftware,Kicad,Pcbnew,(5.1.5)-3
; #@! TF.FileFunction,Plated,1,2,PTH
FMAT,2
INCH
T1C0.0315
T2C0.0394
T3C0.0550
T4C0.0551
%
G90
G05
T1
X3.785Y-4.6663
X3.4955Y-4.1093
X4.1331Y-4.1316
X4.1331Y-2.892
X4.2384Y-5.1005
X3.785Y-2.3573
X3.4955Y-2.9143
X3.9816Y-3.5118
X4.2384Y-1.9231
T2
X4.7073Y-1.8863
X4.8073Y-1.8863
T3
X3.4277Y-3.9232
X3.5628Y-4.2943
X4.0771Y-2.036
X4.4006Y-1.8095
X4.0347Y-3.9611
X4.2321Y-4.3031
X4.0341Y-3.0635
X4.2315Y-2.7215
X3.6721Y-4.505
X3.8986Y-4.8285
X4.0761Y-4.9869
X4.3996Y-5.2134
X3.6714Y-2.5195
X3.8979Y-2.196
X3.4281Y-3.0993
X3.5632Y-2.7282
X3.9816Y-3.3138
X3.9816Y-3.7086
T4
X4.5239Y-1.6887
X5.0069Y-1.5593
T0
M30
