G04 #@! TF.GenerationSoftware,KiCad,Pcbnew,(5.1.5)-3*
G04 #@! TF.CreationDate,2020-06-25T14:03:02-07:00*
G04 #@! TF.ProjectId,LCP_Battery,4c43505f-4261-4747-9465-72792e6b6963,rev?*
G04 #@! TF.SameCoordinates,Original*
G04 #@! TF.FileFunction,Profile,NP*
%FSLAX46Y46*%
G04 Gerber Fmt 4.6, Leading zero omitted, Abs format (unit mm)*
G04 Created by KiCad (PCBNEW (5.1.5)-3) date 2020-06-25 14:03:02*
%MOMM*%
%LPD*%
G04 APERTURE LIST*
%ADD10C,0.254000*%
G04 APERTURE END LIST*
D10*
X82869368Y-77805872D02*
G75*
G02X130931691Y-35755358I52395068J-11393734D01*
G01*
X94683646Y-94033791D02*
G75*
G02X92206236Y-97078556I-1618645J-1213240D01*
G01*
X124291495Y-51725228D02*
G75*
G02X131904843Y-42888369I10972941J-1755628D01*
G01*
X116023275Y-109801664D02*
G75*
G02X116023275Y-68597548I19241161J20602058D01*
G01*
X109682453Y-116291803D02*
G75*
G03X109682453Y-116291803I-1206500J0D01*
G01*
X121850275Y-125599315D02*
G75*
G02X124291496Y-126673984I873658J-1325473D01*
G01*
X92206235Y-81320656D02*
G75*
G02X94683647Y-84365420I858766J-1831525D01*
G01*
X94683647Y-94033792D02*
G75*
G02X94683647Y-84365420I6449539J4834186D01*
G01*
X92206236Y-81320656D02*
G75*
G02X83771680Y-80334625I-3421777J7297765D01*
G01*
X115447203Y-65933152D02*
G75*
G02X116023275Y-68597548I-507486J-1504199D01*
G01*
X83771680Y-80334625D02*
G75*
G02X82869368Y-77805873I1579681J1989022D01*
G01*
X133676937Y-40467230D02*
G75*
G02X131904843Y-42888369I-2540000J1D01*
G01*
X116023276Y-109801665D02*
G75*
G02X115447202Y-112466060I-1083559J-1160196D01*
G01*
X115447201Y-65933152D02*
G75*
G02X121851239Y-52800531I2354735J6979483D01*
G01*
X124291495Y-51725228D02*
G75*
G02X121851239Y-52800531I-1567562J250804D01*
G01*
X121851238Y-125598681D02*
G75*
G02X115447202Y-112466060I-4049302J6153138D01*
G01*
X133676936Y-40467229D02*
X133676936Y-38287052D01*
X130931692Y-35755358D02*
G75*
G02X133676937Y-38287052I205245J-2531694D01*
G01*
X131904843Y-135510842D02*
G75*
G02X124291496Y-126673984I3359593J10592486D01*
G01*
X131904844Y-135510844D02*
G75*
G02X133676936Y-137931983I-767907J-2421139D01*
G01*
X133676936Y-140112160D02*
X133676936Y-137931983D01*
X133676937Y-140112161D02*
G75*
G02X130931691Y-142643854I-2540000J1D01*
G01*
X130931690Y-142643854D02*
G75*
G02X82869368Y-100593339I4332746J53444248D01*
G01*
X82869367Y-100593339D02*
G75*
G02X83771680Y-98064587I2481994J539730D01*
G01*
X83771680Y-98064587D02*
G75*
G02X92206236Y-97078556I5012779J-6311734D01*
G01*
M02*
