G04 #@! TF.GenerationSoftware,KiCad,Pcbnew,(5.1.5)-3*
G04 #@! TF.CreationDate,2020-06-25T14:03:02-07:00*
G04 #@! TF.ProjectId,LCP_Battery,4c43505f-4261-4747-9465-72792e6b6963,rev?*
G04 #@! TF.SameCoordinates,Original*
G04 #@! TF.FileFunction,Legend,Bot*
G04 #@! TF.FilePolarity,Positive*
%FSLAX46Y46*%
G04 Gerber Fmt 4.6, Leading zero omitted, Abs format (unit mm)*
G04 Created by KiCad (PCBNEW (5.1.5)-3) date 2020-06-25 14:03:02*
%MOMM*%
%LPD*%
G04 APERTURE LIST*
%ADD10C,0.150000*%
%ADD11C,0.300000*%
%ADD12C,0.120000*%
%ADD13C,0.100000*%
%ADD14C,0.254000*%
G04 APERTURE END LIST*
D10*
X123391893Y-50334871D02*
X123249036Y-50382490D01*
X123201417Y-50430109D01*
X123153798Y-50525347D01*
X123153798Y-50668204D01*
X123201417Y-50763442D01*
X123249036Y-50811061D01*
X123344274Y-50858680D01*
X123725226Y-50858680D01*
X123725226Y-49858680D01*
X123391893Y-49858680D01*
X123296655Y-49906300D01*
X123249036Y-49953919D01*
X123201417Y-50049157D01*
X123201417Y-50144395D01*
X123249036Y-50239633D01*
X123296655Y-50287252D01*
X123391893Y-50334871D01*
X123725226Y-50334871D01*
X122296655Y-50858680D02*
X122296655Y-50334871D01*
X122344274Y-50239633D01*
X122439512Y-50192014D01*
X122629988Y-50192014D01*
X122725226Y-50239633D01*
X122296655Y-50811061D02*
X122391893Y-50858680D01*
X122629988Y-50858680D01*
X122725226Y-50811061D01*
X122772845Y-50715823D01*
X122772845Y-50620585D01*
X122725226Y-50525347D01*
X122629988Y-50477728D01*
X122391893Y-50477728D01*
X122296655Y-50430109D01*
X121963321Y-50192014D02*
X121582369Y-50192014D01*
X121820464Y-49858680D02*
X121820464Y-50715823D01*
X121772845Y-50811061D01*
X121677607Y-50858680D01*
X121582369Y-50858680D01*
X120629988Y-49858680D02*
X120058560Y-49858680D01*
X120344274Y-50858680D02*
X120344274Y-49858680D01*
X119344274Y-50811061D02*
X119439512Y-50858680D01*
X119629988Y-50858680D01*
X119725226Y-50811061D01*
X119772845Y-50715823D01*
X119772845Y-50334871D01*
X119725226Y-50239633D01*
X119629988Y-50192014D01*
X119439512Y-50192014D01*
X119344274Y-50239633D01*
X119296655Y-50334871D01*
X119296655Y-50430109D01*
X119772845Y-50525347D01*
X118868083Y-50858680D02*
X118868083Y-50192014D01*
X118868083Y-50382490D02*
X118820464Y-50287252D01*
X118772845Y-50239633D01*
X118677607Y-50192014D01*
X118582369Y-50192014D01*
X118249036Y-50858680D02*
X118249036Y-50192014D01*
X118249036Y-50287252D02*
X118201417Y-50239633D01*
X118106179Y-50192014D01*
X117963321Y-50192014D01*
X117868083Y-50239633D01*
X117820464Y-50334871D01*
X117820464Y-50858680D01*
X117820464Y-50334871D02*
X117772845Y-50239633D01*
X117677607Y-50192014D01*
X117534750Y-50192014D01*
X117439512Y-50239633D01*
X117391893Y-50334871D01*
X117391893Y-50858680D01*
D11*
X115775811Y-48240142D02*
X116918668Y-48240142D01*
X123962231Y-47445122D02*
X125105088Y-47445122D01*
X124533660Y-48016551D02*
X124533660Y-46873694D01*
D12*
X105578186Y-89199606D02*
G75*
G03X105578186Y-89199606I-4445000J0D01*
G01*
X112099426Y-129553147D02*
G75*
G03X112099426Y-129553147I-4445000J0D01*
G01*
D13*
X97330318Y-110810785D02*
X94987543Y-112451214D01*
X103811732Y-120067204D02*
X97330318Y-110810785D01*
X101468957Y-121707632D02*
X103811732Y-120067204D01*
X88483476Y-117005411D02*
X90826251Y-115364982D01*
X94964889Y-126261829D02*
X88483476Y-117005411D01*
X97307664Y-124621400D02*
X94964889Y-126261829D01*
D12*
X93229459Y-104376321D02*
G75*
G03X93229459Y-104376321I-4445000J0D01*
G01*
D13*
X106839674Y-97362287D02*
X104362842Y-98792287D01*
X112489674Y-107148374D02*
X106839674Y-97362287D01*
X110012842Y-108578374D02*
X112489674Y-107148374D01*
X97486600Y-102762287D02*
X99963432Y-101332287D01*
X103136600Y-112548374D02*
X97486600Y-102762287D01*
X105613432Y-111118374D02*
X103136600Y-112548374D01*
X112474674Y-71276819D02*
X109997842Y-69846819D01*
X106824674Y-81062906D02*
X112474674Y-71276819D01*
X104347842Y-79632906D02*
X106824674Y-81062906D01*
X103121600Y-65876819D02*
X105598432Y-67306819D01*
X97471600Y-75662906D02*
X103121600Y-65876819D01*
X99948432Y-77092906D02*
X97471600Y-75662906D01*
D12*
X93229459Y-74022891D02*
G75*
G03X93229459Y-74022891I-4445000J0D01*
G01*
D13*
X103794524Y-58356583D02*
X101451749Y-56716154D01*
X97313111Y-67613001D02*
X103794524Y-58356583D01*
X94970336Y-65972572D02*
X97313111Y-67613001D01*
X94947682Y-52161957D02*
X97290457Y-53802386D01*
X88466268Y-61418376D02*
X94947682Y-52161957D01*
X90809043Y-63058804D02*
X88466268Y-61418376D01*
D12*
X112099426Y-48846065D02*
G75*
G03X112099426Y-48846065I-4445000J0D01*
G01*
D10*
X127779923Y-41903436D02*
X127808760Y-42930986D01*
X127439903Y-42290338D01*
X127440788Y-43029583D01*
X126951987Y-42125281D01*
X126842834Y-43189805D02*
X126670288Y-42545854D01*
X126584015Y-42223879D02*
X126642336Y-42257551D01*
X126608664Y-42315872D01*
X126550343Y-42282200D01*
X126584015Y-42223879D01*
X126608664Y-42315872D01*
X126382869Y-43313052D02*
X126210323Y-42669101D01*
X126259622Y-42853087D02*
X126188976Y-42773419D01*
X126130655Y-42739747D01*
X126026337Y-42718400D01*
X125934344Y-42743050D01*
X125404619Y-43525875D02*
X125508936Y-43547222D01*
X125692922Y-43497923D01*
X125772591Y-43427277D01*
X125793938Y-43322959D01*
X125695340Y-42954987D01*
X125624694Y-42875319D01*
X125520376Y-42853972D01*
X125336390Y-42903271D01*
X125256722Y-42973917D01*
X125235375Y-43078235D01*
X125260025Y-43170227D01*
X125744639Y-43138973D01*
X124221035Y-43892314D02*
X123962216Y-42926388D01*
X123594245Y-43024986D01*
X123514576Y-43095631D01*
X123480905Y-43153953D01*
X123459558Y-43258270D01*
X123496532Y-43396260D01*
X123567178Y-43475928D01*
X123625499Y-43509600D01*
X123729816Y-43530947D01*
X124097788Y-43432349D01*
X122841141Y-44262055D02*
X122705569Y-43756094D01*
X122726916Y-43651776D01*
X122806585Y-43581130D01*
X122990571Y-43531832D01*
X123094888Y-43553179D01*
X122828817Y-44216059D02*
X122933134Y-44237406D01*
X123163117Y-44175782D01*
X123242785Y-44105136D01*
X123264132Y-44000819D01*
X123239482Y-43908826D01*
X123168836Y-43829157D01*
X123064519Y-43807810D01*
X122834537Y-43869434D01*
X122730219Y-43848087D01*
X122414848Y-44326981D02*
X122335180Y-44397627D01*
X122151194Y-44446926D01*
X122046877Y-44425579D01*
X121976231Y-44345911D01*
X121963906Y-44299914D01*
X121985253Y-44195596D01*
X122064921Y-44124951D01*
X122202911Y-44087976D01*
X122282579Y-44017331D01*
X122303926Y-43913013D01*
X122291601Y-43867016D01*
X122220955Y-43787348D01*
X122116638Y-43766001D01*
X121978648Y-43802975D01*
X121898980Y-43873621D01*
X121632908Y-44536501D02*
X121553240Y-44607147D01*
X121369254Y-44656446D01*
X121264937Y-44635099D01*
X121194291Y-44555431D01*
X121181966Y-44509434D01*
X121203313Y-44405117D01*
X121282981Y-44334471D01*
X121420971Y-44297497D01*
X121500639Y-44226851D01*
X121521986Y-44122533D01*
X121509661Y-44076537D01*
X121439015Y-43996868D01*
X121334698Y-43975521D01*
X121196708Y-44012495D01*
X121117040Y-44083141D01*
X120696467Y-43801443D02*
X120144509Y-43949339D01*
X120679307Y-44841317D02*
X120420488Y-43875391D01*
X120081353Y-45001538D02*
X119822534Y-44035612D01*
X119667385Y-45112461D02*
X119531813Y-44606499D01*
X119553160Y-44502182D01*
X119632828Y-44431536D01*
X119770818Y-44394562D01*
X119875135Y-44415909D01*
X119933457Y-44449580D01*
X119207420Y-45235708D02*
X119034874Y-44591757D01*
X119084173Y-44775743D02*
X119013527Y-44696075D01*
X118955206Y-44662403D01*
X118850888Y-44641056D01*
X118758895Y-44665705D01*
X118471477Y-45432903D02*
X118551145Y-45362257D01*
X118584817Y-45303936D01*
X118606164Y-45199618D01*
X118532216Y-44923640D01*
X118461570Y-44843971D01*
X118403248Y-44810300D01*
X118298931Y-44788953D01*
X118160941Y-44825927D01*
X118081273Y-44896573D01*
X118047601Y-44954894D01*
X118026254Y-45059212D01*
X118100203Y-45335190D01*
X118170849Y-45414859D01*
X118229170Y-45448530D01*
X118333487Y-45469877D01*
X118471477Y-45432903D01*
X117149019Y-45097071D02*
X117321565Y-45741021D01*
X117562987Y-44986148D02*
X117698559Y-45492109D01*
X117677212Y-45596427D01*
X117597544Y-45667073D01*
X117459555Y-45704047D01*
X117355237Y-45682700D01*
X117296916Y-45649028D01*
X116275086Y-45331240D02*
X116484606Y-46113180D01*
X116555252Y-46192848D01*
X116613573Y-46226520D01*
X116717891Y-46247867D01*
X116855881Y-46210893D01*
X116935549Y-46140247D01*
X116435308Y-45929194D02*
X116539625Y-45950541D01*
X116723611Y-45901242D01*
X116803279Y-45830596D01*
X116836951Y-45772275D01*
X116858298Y-45667958D01*
X116784350Y-45391979D01*
X116713704Y-45312311D01*
X116655383Y-45278639D01*
X116551065Y-45257292D01*
X116367079Y-45306591D01*
X116287411Y-45377237D01*
X115987668Y-46098438D02*
X115728849Y-45132512D01*
X115573699Y-46209360D02*
X115438127Y-45703399D01*
X115459475Y-45599082D01*
X115539143Y-45528436D01*
X115677132Y-45491461D01*
X115781450Y-45512808D01*
X115839771Y-45546480D01*
D14*
X72801840Y-123641521D02*
X72687910Y-123795123D01*
X72673058Y-123879350D01*
X72692895Y-124013116D01*
X72796958Y-124161734D01*
X72915872Y-124226124D01*
X73000099Y-124240976D01*
X73133865Y-124221139D01*
X73530179Y-123943638D01*
X72801737Y-122903315D01*
X72454963Y-123146129D01*
X72390572Y-123265043D01*
X72375720Y-123349270D01*
X72395557Y-123483036D01*
X72464932Y-123582115D01*
X72583847Y-123646505D01*
X72668074Y-123661357D01*
X72801840Y-123641521D01*
X73148614Y-123398707D01*
X72331269Y-124340157D02*
X71835877Y-124687034D01*
X72638474Y-124568017D02*
X71563257Y-123770508D01*
X71944925Y-125053645D01*
X71018326Y-124152072D02*
X70423856Y-124568325D01*
X71449533Y-125400522D02*
X70721091Y-124360199D01*
X70240653Y-125361055D02*
X70305044Y-125242140D01*
X70319895Y-125157913D01*
X70300059Y-125024147D01*
X70265371Y-124974608D01*
X70146457Y-124910217D01*
X70062230Y-124895366D01*
X69928464Y-124915202D01*
X69730307Y-125053953D01*
X69665916Y-125172868D01*
X69651065Y-125257095D01*
X69670901Y-125390861D01*
X69705589Y-125440400D01*
X69824503Y-125504791D01*
X69908730Y-125519642D01*
X70042496Y-125499806D01*
X70240653Y-125361055D01*
X70374419Y-125341219D01*
X70458646Y-125356070D01*
X70577561Y-125420461D01*
X70716312Y-125618618D01*
X70736148Y-125752384D01*
X70721296Y-125836611D01*
X70656906Y-125955525D01*
X70458749Y-126094276D01*
X70324983Y-126114112D01*
X70240756Y-126099261D01*
X70121841Y-126034870D01*
X69983090Y-125836714D01*
X69963254Y-125702947D01*
X69978106Y-125618720D01*
X70042496Y-125499806D01*
X69368887Y-126857406D02*
X68987322Y-126312475D01*
X68967485Y-126178709D01*
X69031876Y-126059794D01*
X69230033Y-125921043D01*
X69363799Y-125901207D01*
X69334199Y-126807867D02*
X69467965Y-126788031D01*
X69715661Y-126614592D01*
X69780052Y-126495677D01*
X69760215Y-126361911D01*
X69690840Y-126262833D01*
X69571925Y-126198442D01*
X69438159Y-126218278D01*
X69190463Y-126391717D01*
X69056697Y-126411553D01*
X129966289Y-92769445D02*
X129839406Y-92912533D01*
X129817270Y-92995146D01*
X129825372Y-93130131D01*
X129916087Y-93287253D01*
X130028937Y-93361763D01*
X130111549Y-93383899D01*
X130246535Y-93375796D01*
X130665526Y-93133892D01*
X130030526Y-92034039D01*
X129663909Y-92245706D01*
X129589399Y-92358556D01*
X129567263Y-92441168D01*
X129575365Y-92576154D01*
X129635841Y-92680902D01*
X129748692Y-92755412D01*
X129831304Y-92777548D01*
X129966289Y-92769445D01*
X130332907Y-92557779D01*
X129436619Y-93424410D02*
X128912880Y-93726791D01*
X129722795Y-93678177D02*
X128721178Y-92789992D01*
X128989561Y-94101511D01*
X128145065Y-93122611D02*
X127516578Y-93485468D01*
X128465821Y-94403892D02*
X127830821Y-93304039D01*
X126678595Y-93969278D02*
X126888091Y-93848325D01*
X127023077Y-93840223D01*
X127105689Y-93862359D01*
X127301151Y-93959004D01*
X127474477Y-94138262D01*
X127716382Y-94557253D01*
X127724484Y-94692239D01*
X127702348Y-94774851D01*
X127627839Y-94887701D01*
X127418343Y-95008654D01*
X127283357Y-95016756D01*
X127200745Y-94994620D01*
X127087895Y-94920110D01*
X126936705Y-94658241D01*
X126928602Y-94523255D01*
X126950738Y-94440643D01*
X127025248Y-94327793D01*
X127234743Y-94206840D01*
X127369729Y-94198738D01*
X127452341Y-94220874D01*
X127565192Y-94295384D01*
X126266117Y-95673892D02*
X125933498Y-95097779D01*
X125925396Y-94962793D01*
X125999905Y-94849943D01*
X126209401Y-94728990D01*
X126344387Y-94720888D01*
X126235879Y-95621518D02*
X126370865Y-95613416D01*
X126632734Y-95462225D01*
X126707244Y-95349375D01*
X126699142Y-95214389D01*
X126638666Y-95109641D01*
X126525815Y-95035131D01*
X126390830Y-95043234D01*
X126128960Y-95194424D01*
X125993974Y-95202526D01*
X127199504Y-75787852D02*
X127012144Y-75749512D01*
X126929532Y-75771647D01*
X126816682Y-75846157D01*
X126725967Y-76003279D01*
X126717865Y-76138265D01*
X126740001Y-76220877D01*
X126814511Y-76333727D01*
X127233502Y-76575632D01*
X127868502Y-75475779D01*
X127501885Y-75264113D01*
X127366899Y-75256011D01*
X127284287Y-75278146D01*
X127171437Y-75352656D01*
X127110960Y-75457404D01*
X127102858Y-75592390D01*
X127124994Y-75675002D01*
X127199504Y-75787852D01*
X127566121Y-75999519D01*
X126367452Y-75656626D02*
X125843713Y-75354245D01*
X126290772Y-76031346D02*
X126559154Y-74719827D01*
X125557537Y-75608013D01*
X125983041Y-74387208D02*
X125354554Y-74024351D01*
X125033798Y-75305632D02*
X125668798Y-74205779D01*
X124304905Y-73907159D02*
X123881571Y-74640394D01*
X124808679Y-73639358D02*
X124616977Y-74576157D01*
X123936116Y-74183062D01*
X122834093Y-74035632D02*
X123166712Y-73459519D01*
X123279562Y-73385009D01*
X123414548Y-73393111D01*
X123624044Y-73514064D01*
X123698554Y-73626914D01*
X122864331Y-73983258D02*
X122938841Y-74096108D01*
X123200710Y-74247298D01*
X123335696Y-74255401D01*
X123448547Y-74180891D01*
X123509023Y-74076143D01*
X123517125Y-73941157D01*
X123442615Y-73828307D01*
X123180746Y-73677117D01*
X123106236Y-73564266D01*
X76093603Y-55899621D02*
X75910298Y-55845097D01*
X75826071Y-55859948D01*
X75707156Y-55924339D01*
X75603093Y-56072957D01*
X75583257Y-56206723D01*
X75598108Y-56290950D01*
X75662499Y-56409864D01*
X76058812Y-56687366D01*
X76787254Y-55647043D01*
X76440480Y-55404229D01*
X76306714Y-55384393D01*
X76222487Y-55399244D01*
X76103572Y-55463635D01*
X76034197Y-55562713D01*
X76014361Y-55696479D01*
X76029212Y-55780706D01*
X76093603Y-55899621D01*
X76440377Y-56142435D01*
X75276155Y-55696376D02*
X74780763Y-55349499D01*
X75167107Y-56062987D02*
X75548775Y-54779850D01*
X74473558Y-55577359D01*
X75003843Y-54398285D02*
X74409373Y-53982032D01*
X73978166Y-55230482D02*
X74706608Y-54190159D01*
X74042762Y-53872985D02*
X74027911Y-53788758D01*
X73963520Y-53669843D01*
X73715824Y-53496404D01*
X73582058Y-53476568D01*
X73497831Y-53491420D01*
X73378917Y-53555810D01*
X73309541Y-53654889D01*
X73255017Y-53838194D01*
X73433235Y-54848917D01*
X72789225Y-54397977D01*
X71897520Y-53773598D02*
X72279085Y-53228667D01*
X72398000Y-53164276D01*
X72531766Y-53184112D01*
X72729922Y-53322863D01*
X72794313Y-53441778D01*
X71932208Y-53724059D02*
X71996598Y-53842973D01*
X72244294Y-54016412D01*
X72378060Y-54036248D01*
X72496975Y-53971857D01*
X72566351Y-53872779D01*
X72586187Y-53739013D01*
X72521796Y-53620098D01*
X72274100Y-53446660D01*
X72209709Y-53327745D01*
M02*
