G04 #@! TF.GenerationSoftware,KiCad,Pcbnew,(5.1.5)-3*
G04 #@! TF.CreationDate,2020-06-25T14:03:02-07:00*
G04 #@! TF.ProjectId,LCP_Battery,4c43505f-4261-4747-9465-72792e6b6963,rev?*
G04 #@! TF.SameCoordinates,Original*
G04 #@! TF.FileFunction,Copper,L1,Top*
G04 #@! TF.FilePolarity,Positive*
%FSLAX46Y46*%
G04 Gerber Fmt 4.6, Leading zero omitted, Abs format (unit mm)*
G04 Created by KiCad (PCBNEW (5.1.5)-3) date 2020-06-25 14:03:02*
%MOMM*%
%LPD*%
G04 APERTURE LIST*
%ADD10O,1.700000X1.700000*%
%ADD11R,1.700000X1.700000*%
%ADD12C,2.400000*%
%ADD13C,2.655001*%
%ADD14C,1.524000*%
%ADD15C,2.800000*%
%ADD16C,0.100000*%
%ADD17C,1.524000*%
%ADD18C,1.016000*%
G04 APERTURE END LIST*
D10*
X122105420Y-47912020D03*
D11*
X119565420Y-47912020D03*
D12*
X101133186Y-84169606D03*
D13*
X101133186Y-94199606D03*
D14*
X101133186Y-89199606D03*
D15*
X114908002Y-42893222D02*
X114908002Y-42893222D01*
G04 #@! TA.AperFunction,ComponentPad*
D16*
G36*
X128165209Y-37891577D02*
G01*
X128889903Y-40596169D01*
X126185311Y-41320863D01*
X125460617Y-38616271D01*
X128165209Y-37891577D01*
G37*
G04 #@! TD.AperFunction*
D12*
X103534091Y-126668058D03*
D13*
X111750186Y-132421029D03*
D14*
X107654426Y-129553147D03*
D12*
X99024089Y-122644355D03*
D13*
X93271118Y-114428260D03*
D14*
X96139000Y-118524020D03*
D12*
X87064098Y-99649667D03*
D13*
X90494560Y-109074784D03*
D14*
X88784459Y-104376321D03*
D12*
X107495637Y-109298448D03*
D13*
X102480637Y-100612213D03*
D14*
X104980637Y-104942340D03*
D12*
X102465637Y-77812980D03*
D13*
X107480637Y-69126745D03*
D14*
X104980637Y-73456872D03*
D12*
X90504820Y-69296237D03*
D13*
X87074358Y-78721354D03*
D14*
X88784459Y-74022891D03*
D12*
X93253911Y-63995527D03*
D13*
X99006882Y-55779432D03*
D14*
X96139000Y-59875192D03*
X107654426Y-48846065D03*
D13*
X103558666Y-51713947D03*
D12*
X111774761Y-45960976D03*
D17*
X114842515Y-42893222D02*
X111774761Y-45960976D01*
D18*
X114908002Y-42893222D02*
X114842515Y-42893222D01*
X106195184Y-45960976D02*
X111774761Y-45960976D01*
X103558666Y-51713947D02*
X103558666Y-48597494D01*
X103558666Y-48597494D02*
X106195184Y-45960976D01*
X96139000Y-60952822D02*
X96939100Y-61752922D01*
X96139000Y-59875192D02*
X96139000Y-60952822D01*
X96939100Y-61752922D02*
X96939100Y-66075560D01*
X93718423Y-69296237D02*
X90504820Y-69296237D01*
X96939100Y-66075560D02*
X93718423Y-69296237D01*
X85928200Y-72175801D02*
X85928200Y-77575196D01*
X90504820Y-69296237D02*
X88807764Y-69296237D01*
X85928200Y-77575196D02*
X87074358Y-78721354D01*
X88807764Y-69296237D02*
X85928200Y-72175801D01*
X100848193Y-109074784D02*
X90494560Y-109074784D01*
X104980637Y-104942340D02*
X100848193Y-109074784D01*
X88617192Y-109074784D02*
X86164420Y-106622012D01*
X90494560Y-109074784D02*
X88617192Y-109074784D01*
X86164420Y-106622012D02*
X86164420Y-101163120D01*
X85864099Y-100849666D02*
X87064098Y-99649667D01*
X85864099Y-100862799D02*
X85864099Y-100849666D01*
X86164420Y-101163120D02*
X85864099Y-100862799D01*
X104200960Y-125354080D02*
X103534091Y-126020949D01*
X103534091Y-126020949D02*
X103534091Y-126668058D01*
X104200960Y-122737880D02*
X104200960Y-125354080D01*
X96139000Y-118524020D02*
X99987100Y-118524020D01*
X99987100Y-118524020D02*
X104200960Y-122737880D01*
X110993935Y-133177280D02*
X111750186Y-132421029D01*
X103534091Y-128365114D02*
X103474520Y-128424685D01*
X103534091Y-126668058D02*
X103534091Y-128365114D01*
X107106720Y-133177280D02*
X110993935Y-133177280D01*
X103474520Y-128424685D02*
X103474520Y-129545080D01*
X103474520Y-129545080D02*
X107106720Y-133177280D01*
X101133186Y-84169606D02*
X99933187Y-85369605D01*
X99933187Y-85369605D02*
X99862435Y-85369605D01*
X99862435Y-85369605D02*
X97772220Y-87459820D01*
X97772220Y-87459820D02*
X97772220Y-90838640D01*
X97772220Y-90838640D02*
X101133186Y-94199606D01*
X102765788Y-73456872D02*
X104980637Y-73456872D01*
X100335080Y-75887580D02*
X102765788Y-73456872D01*
X101133186Y-84169606D02*
X100844706Y-84169606D01*
X100844706Y-84169606D02*
X100335080Y-83659980D01*
D17*
X123992640Y-42788840D02*
X127175260Y-39606220D01*
X115641120Y-47912020D02*
X119565420Y-47912020D01*
X103558666Y-63096466D02*
X103558666Y-59994474D01*
X106359960Y-65897760D02*
X103558666Y-63096466D01*
X108196380Y-65897760D02*
X106359960Y-65897760D01*
X110683040Y-68384420D02*
X108196380Y-65897760D01*
X106530140Y-112560100D02*
X108640880Y-112560100D01*
X104559100Y-117835680D02*
X104559100Y-114531140D01*
X103558666Y-59994474D02*
X115641120Y-47912020D01*
X107654426Y-129553147D02*
X107654426Y-120931006D01*
X110512860Y-110688120D02*
X110512860Y-106453940D01*
X108640880Y-112560100D02*
X110512860Y-110688120D01*
X107654426Y-120931006D02*
X104559100Y-117835680D01*
X110512860Y-106453940D02*
X105476040Y-101417120D01*
X105476040Y-77165200D02*
X110683040Y-71958200D01*
X105476040Y-101417120D02*
X105476040Y-77165200D01*
X104559100Y-114531140D02*
X106530140Y-112560100D01*
X110683040Y-71958200D02*
X110683040Y-68384420D01*
X123307501Y-47912020D02*
X123992640Y-47226881D01*
X123992640Y-47226881D02*
X123992640Y-42788840D01*
X122105420Y-47912020D02*
X123307501Y-47912020D01*
D18*
X100335080Y-83659980D02*
X100335080Y-75887580D01*
M02*
