G04 #@! TF.GenerationSoftware,KiCad,Pcbnew,(5.1.7)-1*
G04 #@! TF.CreationDate,2021-09-16T14:59:04-07:00*
G04 #@! TF.ProjectId,LCP_Controller,4c43505f-436f-46e7-9472-6f6c6c65722e,rev?*
G04 #@! TF.SameCoordinates,Original*
G04 #@! TF.FileFunction,Copper,L4,Bot*
G04 #@! TF.FilePolarity,Positive*
%FSLAX46Y46*%
G04 Gerber Fmt 4.6, Leading zero omitted, Abs format (unit mm)*
G04 Created by KiCad (PCBNEW (5.1.7)-1) date 2021-09-16 14:59:04*
%MOMM*%
%LPD*%
G01*
G04 APERTURE LIST*
G04 #@! TA.AperFunction,EtchedComponent*
%ADD10C,0.100000*%
G04 #@! TD*
G04 #@! TA.AperFunction,ComponentPad*
%ADD11C,2.250000*%
G04 #@! TD*
G04 #@! TA.AperFunction,ComponentPad*
%ADD12C,2.050000*%
G04 #@! TD*
G04 #@! TA.AperFunction,ComponentPad*
%ADD13C,2.000000*%
G04 #@! TD*
G04 #@! TA.AperFunction,SMDPad,CuDef*
%ADD14R,0.630000X0.830000*%
G04 #@! TD*
G04 #@! TA.AperFunction,SMDPad,CuDef*
%ADD15R,0.400000X0.600000*%
G04 #@! TD*
G04 #@! TA.AperFunction,SMDPad,CuDef*
%ADD16R,0.600000X0.600000*%
G04 #@! TD*
G04 #@! TA.AperFunction,SMDPad,CuDef*
%ADD17R,0.600000X0.400000*%
G04 #@! TD*
G04 #@! TA.AperFunction,SMDPad,CuDef*
%ADD18C,0.100000*%
G04 #@! TD*
G04 #@! TA.AperFunction,SMDPad,CuDef*
%ADD19R,0.500000X0.400000*%
G04 #@! TD*
G04 #@! TA.AperFunction,SMDPad,CuDef*
%ADD20R,0.500000X0.300000*%
G04 #@! TD*
G04 #@! TA.AperFunction,ComponentPad*
%ADD21C,1.948180*%
G04 #@! TD*
G04 #@! TA.AperFunction,ComponentPad*
%ADD22C,0.500000*%
G04 #@! TD*
G04 #@! TA.AperFunction,ComponentPad*
%ADD23C,1.600000*%
G04 #@! TD*
G04 #@! TA.AperFunction,ComponentPad*
%ADD24R,1.600000X1.600000*%
G04 #@! TD*
G04 #@! TA.AperFunction,SMDPad,CuDef*
%ADD25R,7.875000X2.000000*%
G04 #@! TD*
G04 #@! TA.AperFunction,SMDPad,CuDef*
%ADD26R,1.800000X1.000000*%
G04 #@! TD*
G04 #@! TA.AperFunction,SMDPad,CuDef*
%ADD27R,5.150000X5.150000*%
G04 #@! TD*
G04 #@! TA.AperFunction,SMDPad,CuDef*
%ADD28R,1.220000X0.650000*%
G04 #@! TD*
G04 #@! TA.AperFunction,SMDPad,CuDef*
%ADD29R,1.560000X0.650000*%
G04 #@! TD*
G04 #@! TA.AperFunction,SMDPad,CuDef*
%ADD30R,1.230000X1.230000*%
G04 #@! TD*
G04 #@! TA.AperFunction,SMDPad,CuDef*
%ADD31R,0.900000X0.400000*%
G04 #@! TD*
G04 #@! TA.AperFunction,SMDPad,CuDef*
%ADD32R,0.900000X0.800000*%
G04 #@! TD*
G04 #@! TA.AperFunction,SMDPad,CuDef*
%ADD33R,0.800000X0.900000*%
G04 #@! TD*
G04 #@! TA.AperFunction,SMDPad,CuDef*
%ADD34R,1.000000X1.400000*%
G04 #@! TD*
G04 #@! TA.AperFunction,SMDPad,CuDef*
%ADD35R,1.000000X1.500000*%
G04 #@! TD*
G04 #@! TA.AperFunction,ComponentPad*
%ADD36C,0.100000*%
G04 #@! TD*
G04 #@! TA.AperFunction,ViaPad*
%ADD37C,0.508000*%
G04 #@! TD*
G04 #@! TA.AperFunction,ViaPad*
%ADD38C,0.800000*%
G04 #@! TD*
G04 #@! TA.AperFunction,ViaPad*
%ADD39C,1.016000*%
G04 #@! TD*
G04 #@! TA.AperFunction,Conductor*
%ADD40C,0.508000*%
G04 #@! TD*
G04 #@! TA.AperFunction,Conductor*
%ADD41C,0.250000*%
G04 #@! TD*
G04 #@! TA.AperFunction,Conductor*
%ADD42C,0.203200*%
G04 #@! TD*
G04 #@! TA.AperFunction,Conductor*
%ADD43C,0.152400*%
G04 #@! TD*
G04 #@! TA.AperFunction,Conductor*
%ADD44C,0.381000*%
G04 #@! TD*
G04 #@! TA.AperFunction,Conductor*
%ADD45C,0.762000*%
G04 #@! TD*
G04 #@! TA.AperFunction,Conductor*
%ADD46C,0.635000*%
G04 #@! TD*
G04 #@! TA.AperFunction,Conductor*
%ADD47C,1.270000*%
G04 #@! TD*
G04 APERTURE END LIST*
D10*
G36*
X138627139Y-109601386D02*
G01*
X138931520Y-109204709D01*
X138614178Y-108961205D01*
X138309798Y-109357881D01*
X138627139Y-109601386D01*
G37*
G36*
X139261822Y-110088395D02*
G01*
X139566202Y-109691719D01*
X139248861Y-109448214D01*
X138944480Y-109844891D01*
X139261822Y-110088395D01*
G37*
G36*
X173620000Y-97490000D02*
G01*
X173120000Y-97490000D01*
X173120000Y-98090000D01*
X173620000Y-98090000D01*
X173620000Y-97490000D01*
G37*
G36*
X173620000Y-94315000D02*
G01*
X173120000Y-94315000D01*
X173120000Y-94915000D01*
X173620000Y-94915000D01*
X173620000Y-94315000D01*
G37*
D11*
X144037530Y-173123762D03*
X139876238Y-176037530D03*
X136962470Y-171876238D03*
X141123762Y-168962470D03*
D12*
X140500000Y-172500000D03*
D13*
X148500000Y-184000000D03*
D14*
X142614000Y-159131000D03*
X144914000Y-159131000D03*
D15*
X233324579Y-139218517D03*
X232824579Y-140018517D03*
X232324579Y-139218517D03*
X231824579Y-140018517D03*
X231324579Y-139218517D03*
X230824579Y-140018517D03*
X230324579Y-139218517D03*
X229824579Y-140018517D03*
X229324579Y-139218517D03*
X228824579Y-140018517D03*
X228324579Y-139218517D03*
X227824579Y-140018517D03*
X227324579Y-139218517D03*
X226824579Y-140018517D03*
X226324579Y-139218517D03*
X225824579Y-140018517D03*
X225324579Y-139218517D03*
X224824579Y-140018517D03*
X224324579Y-139218517D03*
X223824579Y-140018517D03*
X223324579Y-139218517D03*
D16*
X222324579Y-139218517D03*
D17*
X222324579Y-140218517D03*
X223124579Y-140718517D03*
X222324579Y-141218517D03*
X223124579Y-141718517D03*
X222324579Y-142218517D03*
X223124579Y-142718517D03*
X222324579Y-143218517D03*
X223124579Y-143718517D03*
X222324579Y-144218517D03*
X223124579Y-144718517D03*
X222324579Y-145218517D03*
X223124579Y-145718517D03*
X222324579Y-146218517D03*
X223124579Y-146718517D03*
X222324579Y-147218517D03*
D16*
X222324579Y-148218517D03*
D15*
X223324579Y-148218517D03*
X223824579Y-147418517D03*
X224324579Y-148218517D03*
X224824579Y-147418517D03*
X225324579Y-148218517D03*
X225824579Y-147418517D03*
X226324579Y-148218517D03*
X226824579Y-147418517D03*
X227324579Y-148218517D03*
X227824579Y-147418517D03*
X228324579Y-148218517D03*
X228824579Y-147418517D03*
X229324579Y-148218517D03*
X229824579Y-147418517D03*
X230324579Y-148218517D03*
X230824579Y-147418517D03*
X231324579Y-148218517D03*
X231824579Y-147418517D03*
X232324579Y-148218517D03*
X232824579Y-147418517D03*
X233324579Y-148218517D03*
G04 #@! TA.AperFunction,SMDPad,CuDef*
D18*
G36*
X219401979Y-125689376D02*
G01*
X219393335Y-125693996D01*
X219383955Y-125696842D01*
X219374201Y-125697802D01*
X219364447Y-125696842D01*
X219355067Y-125693996D01*
X219346423Y-125689376D01*
X219338846Y-125683158D01*
X215567138Y-121911450D01*
X215560920Y-121903873D01*
X215556300Y-121895229D01*
X215553454Y-121885849D01*
X215552494Y-121876095D01*
X215553454Y-121866341D01*
X215556300Y-121856961D01*
X215560920Y-121848317D01*
X215567138Y-121840740D01*
X217632597Y-119775281D01*
X217640174Y-119769062D01*
X217648818Y-119764442D01*
X217658199Y-119761597D01*
X217667952Y-119760637D01*
X217677706Y-119761597D01*
X217687087Y-119764442D01*
X217695730Y-119769062D01*
X217703308Y-119775281D01*
X218431274Y-120503247D01*
X218800030Y-120134491D01*
X218807608Y-120128273D01*
X218816251Y-120123652D01*
X218825632Y-120120807D01*
X218835386Y-120119847D01*
X218845139Y-120120807D01*
X218854520Y-120123652D01*
X218863164Y-120128273D01*
X218870741Y-120134491D01*
X221115805Y-122379555D01*
X221122023Y-122387132D01*
X221126644Y-122395776D01*
X221129489Y-122405157D01*
X221130449Y-122414910D01*
X221129489Y-122424664D01*
X221126644Y-122434045D01*
X221122023Y-122442688D01*
X221115805Y-122450266D01*
X220747049Y-122819022D01*
X221475015Y-123546988D01*
X221481234Y-123554566D01*
X221485854Y-123563209D01*
X221488699Y-123572590D01*
X221489659Y-123582344D01*
X221488699Y-123592097D01*
X221485854Y-123601478D01*
X221481234Y-123610122D01*
X221475015Y-123617699D01*
X219409556Y-125683158D01*
X219401979Y-125689376D01*
G37*
G04 #@! TD.AperFunction*
G04 #@! TA.AperFunction,SMDPad,CuDef*
G36*
X212576984Y-132514372D02*
G01*
X212568340Y-132518992D01*
X212558959Y-132521837D01*
X212549206Y-132522797D01*
X212539452Y-132521837D01*
X212530071Y-132518992D01*
X212521428Y-132514372D01*
X212513850Y-132508153D01*
X211785884Y-131780187D01*
X211417128Y-132148943D01*
X211409550Y-132155161D01*
X211400907Y-132159782D01*
X211391526Y-132162627D01*
X211381772Y-132163587D01*
X211372019Y-132162627D01*
X211362638Y-132159782D01*
X211353994Y-132155161D01*
X211346417Y-132148943D01*
X209101353Y-129903879D01*
X209095135Y-129896302D01*
X209090514Y-129887658D01*
X209087669Y-129878277D01*
X209086709Y-129868524D01*
X209087669Y-129858770D01*
X209090514Y-129849389D01*
X209095135Y-129840746D01*
X209101353Y-129833168D01*
X209470109Y-129464412D01*
X208742143Y-128736446D01*
X208735924Y-128728868D01*
X208731304Y-128720225D01*
X208728459Y-128710844D01*
X208727499Y-128701090D01*
X208728459Y-128691337D01*
X208731304Y-128681956D01*
X208735924Y-128673312D01*
X208742143Y-128665735D01*
X210762700Y-126645177D01*
X210770278Y-126638959D01*
X210778921Y-126634339D01*
X210788302Y-126631493D01*
X210798056Y-126630533D01*
X210807810Y-126631493D01*
X210817190Y-126634339D01*
X210825834Y-126638959D01*
X210833411Y-126645177D01*
X214605119Y-130416885D01*
X214611337Y-130424462D01*
X214615957Y-130433106D01*
X214618803Y-130442486D01*
X214619763Y-130452240D01*
X214618803Y-130461994D01*
X214615957Y-130471375D01*
X214611337Y-130480018D01*
X214605119Y-130487596D01*
X212584561Y-132508153D01*
X212576984Y-132514372D01*
G37*
G04 #@! TD.AperFunction*
D19*
X196342000Y-121801000D03*
D20*
X196342000Y-122301000D03*
D19*
X196342000Y-123301000D03*
D20*
X196342000Y-122801000D03*
D19*
X195342000Y-121801000D03*
D20*
X195342000Y-122801000D03*
X195342000Y-122301000D03*
D19*
X195342000Y-123301000D03*
D13*
X160934400Y-178574700D03*
X195580000Y-153543000D03*
D21*
X153787899Y-141813517D03*
X133790479Y-141813517D03*
D22*
X157178200Y-169936800D03*
X158278200Y-171036800D03*
X158278200Y-169936800D03*
X158278200Y-168836800D03*
X159378200Y-169936800D03*
D23*
X204059579Y-180858517D03*
D24*
X204059579Y-184358517D03*
D14*
X142614000Y-157226000D03*
X144914000Y-157226000D03*
D25*
X144081500Y-127127000D03*
X155956500Y-127127000D03*
D26*
X219138500Y-141986000D03*
X219138500Y-139486000D03*
D27*
X142621000Y-117157500D03*
G04 #@! TA.AperFunction,SMDPad,CuDef*
G36*
G01*
X139746000Y-120970000D02*
X139746000Y-120220000D01*
G75*
G02*
X139808500Y-120157500I62500J0D01*
G01*
X139933500Y-120157500D01*
G75*
G02*
X139996000Y-120220000I0J-62500D01*
G01*
X139996000Y-120970000D01*
G75*
G02*
X139933500Y-121032500I-62500J0D01*
G01*
X139808500Y-121032500D01*
G75*
G02*
X139746000Y-120970000I0J62500D01*
G01*
G37*
G04 #@! TD.AperFunction*
G04 #@! TA.AperFunction,SMDPad,CuDef*
G36*
G01*
X140246000Y-120970000D02*
X140246000Y-120220000D01*
G75*
G02*
X140308500Y-120157500I62500J0D01*
G01*
X140433500Y-120157500D01*
G75*
G02*
X140496000Y-120220000I0J-62500D01*
G01*
X140496000Y-120970000D01*
G75*
G02*
X140433500Y-121032500I-62500J0D01*
G01*
X140308500Y-121032500D01*
G75*
G02*
X140246000Y-120970000I0J62500D01*
G01*
G37*
G04 #@! TD.AperFunction*
G04 #@! TA.AperFunction,SMDPad,CuDef*
G36*
G01*
X140746000Y-120970000D02*
X140746000Y-120220000D01*
G75*
G02*
X140808500Y-120157500I62500J0D01*
G01*
X140933500Y-120157500D01*
G75*
G02*
X140996000Y-120220000I0J-62500D01*
G01*
X140996000Y-120970000D01*
G75*
G02*
X140933500Y-121032500I-62500J0D01*
G01*
X140808500Y-121032500D01*
G75*
G02*
X140746000Y-120970000I0J62500D01*
G01*
G37*
G04 #@! TD.AperFunction*
G04 #@! TA.AperFunction,SMDPad,CuDef*
G36*
G01*
X141246000Y-120970000D02*
X141246000Y-120220000D01*
G75*
G02*
X141308500Y-120157500I62500J0D01*
G01*
X141433500Y-120157500D01*
G75*
G02*
X141496000Y-120220000I0J-62500D01*
G01*
X141496000Y-120970000D01*
G75*
G02*
X141433500Y-121032500I-62500J0D01*
G01*
X141308500Y-121032500D01*
G75*
G02*
X141246000Y-120970000I0J62500D01*
G01*
G37*
G04 #@! TD.AperFunction*
G04 #@! TA.AperFunction,SMDPad,CuDef*
G36*
G01*
X141746000Y-120970000D02*
X141746000Y-120220000D01*
G75*
G02*
X141808500Y-120157500I62500J0D01*
G01*
X141933500Y-120157500D01*
G75*
G02*
X141996000Y-120220000I0J-62500D01*
G01*
X141996000Y-120970000D01*
G75*
G02*
X141933500Y-121032500I-62500J0D01*
G01*
X141808500Y-121032500D01*
G75*
G02*
X141746000Y-120970000I0J62500D01*
G01*
G37*
G04 #@! TD.AperFunction*
G04 #@! TA.AperFunction,SMDPad,CuDef*
G36*
G01*
X142246000Y-120970000D02*
X142246000Y-120220000D01*
G75*
G02*
X142308500Y-120157500I62500J0D01*
G01*
X142433500Y-120157500D01*
G75*
G02*
X142496000Y-120220000I0J-62500D01*
G01*
X142496000Y-120970000D01*
G75*
G02*
X142433500Y-121032500I-62500J0D01*
G01*
X142308500Y-121032500D01*
G75*
G02*
X142246000Y-120970000I0J62500D01*
G01*
G37*
G04 #@! TD.AperFunction*
G04 #@! TA.AperFunction,SMDPad,CuDef*
G36*
G01*
X142746000Y-120970000D02*
X142746000Y-120220000D01*
G75*
G02*
X142808500Y-120157500I62500J0D01*
G01*
X142933500Y-120157500D01*
G75*
G02*
X142996000Y-120220000I0J-62500D01*
G01*
X142996000Y-120970000D01*
G75*
G02*
X142933500Y-121032500I-62500J0D01*
G01*
X142808500Y-121032500D01*
G75*
G02*
X142746000Y-120970000I0J62500D01*
G01*
G37*
G04 #@! TD.AperFunction*
G04 #@! TA.AperFunction,SMDPad,CuDef*
G36*
G01*
X143246000Y-120970000D02*
X143246000Y-120220000D01*
G75*
G02*
X143308500Y-120157500I62500J0D01*
G01*
X143433500Y-120157500D01*
G75*
G02*
X143496000Y-120220000I0J-62500D01*
G01*
X143496000Y-120970000D01*
G75*
G02*
X143433500Y-121032500I-62500J0D01*
G01*
X143308500Y-121032500D01*
G75*
G02*
X143246000Y-120970000I0J62500D01*
G01*
G37*
G04 #@! TD.AperFunction*
G04 #@! TA.AperFunction,SMDPad,CuDef*
G36*
G01*
X143746000Y-120970000D02*
X143746000Y-120220000D01*
G75*
G02*
X143808500Y-120157500I62500J0D01*
G01*
X143933500Y-120157500D01*
G75*
G02*
X143996000Y-120220000I0J-62500D01*
G01*
X143996000Y-120970000D01*
G75*
G02*
X143933500Y-121032500I-62500J0D01*
G01*
X143808500Y-121032500D01*
G75*
G02*
X143746000Y-120970000I0J62500D01*
G01*
G37*
G04 #@! TD.AperFunction*
G04 #@! TA.AperFunction,SMDPad,CuDef*
G36*
G01*
X144246000Y-120970000D02*
X144246000Y-120220000D01*
G75*
G02*
X144308500Y-120157500I62500J0D01*
G01*
X144433500Y-120157500D01*
G75*
G02*
X144496000Y-120220000I0J-62500D01*
G01*
X144496000Y-120970000D01*
G75*
G02*
X144433500Y-121032500I-62500J0D01*
G01*
X144308500Y-121032500D01*
G75*
G02*
X144246000Y-120970000I0J62500D01*
G01*
G37*
G04 #@! TD.AperFunction*
G04 #@! TA.AperFunction,SMDPad,CuDef*
G36*
G01*
X144746000Y-120970000D02*
X144746000Y-120220000D01*
G75*
G02*
X144808500Y-120157500I62500J0D01*
G01*
X144933500Y-120157500D01*
G75*
G02*
X144996000Y-120220000I0J-62500D01*
G01*
X144996000Y-120970000D01*
G75*
G02*
X144933500Y-121032500I-62500J0D01*
G01*
X144808500Y-121032500D01*
G75*
G02*
X144746000Y-120970000I0J62500D01*
G01*
G37*
G04 #@! TD.AperFunction*
G04 #@! TA.AperFunction,SMDPad,CuDef*
G36*
G01*
X145246000Y-120970000D02*
X145246000Y-120220000D01*
G75*
G02*
X145308500Y-120157500I62500J0D01*
G01*
X145433500Y-120157500D01*
G75*
G02*
X145496000Y-120220000I0J-62500D01*
G01*
X145496000Y-120970000D01*
G75*
G02*
X145433500Y-121032500I-62500J0D01*
G01*
X145308500Y-121032500D01*
G75*
G02*
X145246000Y-120970000I0J62500D01*
G01*
G37*
G04 #@! TD.AperFunction*
G04 #@! TA.AperFunction,SMDPad,CuDef*
G36*
G01*
X145621000Y-119970000D02*
X145621000Y-119845000D01*
G75*
G02*
X145683500Y-119782500I62500J0D01*
G01*
X146433500Y-119782500D01*
G75*
G02*
X146496000Y-119845000I0J-62500D01*
G01*
X146496000Y-119970000D01*
G75*
G02*
X146433500Y-120032500I-62500J0D01*
G01*
X145683500Y-120032500D01*
G75*
G02*
X145621000Y-119970000I0J62500D01*
G01*
G37*
G04 #@! TD.AperFunction*
G04 #@! TA.AperFunction,SMDPad,CuDef*
G36*
G01*
X145621000Y-119470000D02*
X145621000Y-119345000D01*
G75*
G02*
X145683500Y-119282500I62500J0D01*
G01*
X146433500Y-119282500D01*
G75*
G02*
X146496000Y-119345000I0J-62500D01*
G01*
X146496000Y-119470000D01*
G75*
G02*
X146433500Y-119532500I-62500J0D01*
G01*
X145683500Y-119532500D01*
G75*
G02*
X145621000Y-119470000I0J62500D01*
G01*
G37*
G04 #@! TD.AperFunction*
G04 #@! TA.AperFunction,SMDPad,CuDef*
G36*
G01*
X145621000Y-118970000D02*
X145621000Y-118845000D01*
G75*
G02*
X145683500Y-118782500I62500J0D01*
G01*
X146433500Y-118782500D01*
G75*
G02*
X146496000Y-118845000I0J-62500D01*
G01*
X146496000Y-118970000D01*
G75*
G02*
X146433500Y-119032500I-62500J0D01*
G01*
X145683500Y-119032500D01*
G75*
G02*
X145621000Y-118970000I0J62500D01*
G01*
G37*
G04 #@! TD.AperFunction*
G04 #@! TA.AperFunction,SMDPad,CuDef*
G36*
G01*
X145621000Y-118470000D02*
X145621000Y-118345000D01*
G75*
G02*
X145683500Y-118282500I62500J0D01*
G01*
X146433500Y-118282500D01*
G75*
G02*
X146496000Y-118345000I0J-62500D01*
G01*
X146496000Y-118470000D01*
G75*
G02*
X146433500Y-118532500I-62500J0D01*
G01*
X145683500Y-118532500D01*
G75*
G02*
X145621000Y-118470000I0J62500D01*
G01*
G37*
G04 #@! TD.AperFunction*
G04 #@! TA.AperFunction,SMDPad,CuDef*
G36*
G01*
X145621000Y-117970000D02*
X145621000Y-117845000D01*
G75*
G02*
X145683500Y-117782500I62500J0D01*
G01*
X146433500Y-117782500D01*
G75*
G02*
X146496000Y-117845000I0J-62500D01*
G01*
X146496000Y-117970000D01*
G75*
G02*
X146433500Y-118032500I-62500J0D01*
G01*
X145683500Y-118032500D01*
G75*
G02*
X145621000Y-117970000I0J62500D01*
G01*
G37*
G04 #@! TD.AperFunction*
G04 #@! TA.AperFunction,SMDPad,CuDef*
G36*
G01*
X145621000Y-117470000D02*
X145621000Y-117345000D01*
G75*
G02*
X145683500Y-117282500I62500J0D01*
G01*
X146433500Y-117282500D01*
G75*
G02*
X146496000Y-117345000I0J-62500D01*
G01*
X146496000Y-117470000D01*
G75*
G02*
X146433500Y-117532500I-62500J0D01*
G01*
X145683500Y-117532500D01*
G75*
G02*
X145621000Y-117470000I0J62500D01*
G01*
G37*
G04 #@! TD.AperFunction*
G04 #@! TA.AperFunction,SMDPad,CuDef*
G36*
G01*
X145621000Y-116970000D02*
X145621000Y-116845000D01*
G75*
G02*
X145683500Y-116782500I62500J0D01*
G01*
X146433500Y-116782500D01*
G75*
G02*
X146496000Y-116845000I0J-62500D01*
G01*
X146496000Y-116970000D01*
G75*
G02*
X146433500Y-117032500I-62500J0D01*
G01*
X145683500Y-117032500D01*
G75*
G02*
X145621000Y-116970000I0J62500D01*
G01*
G37*
G04 #@! TD.AperFunction*
G04 #@! TA.AperFunction,SMDPad,CuDef*
G36*
G01*
X145621000Y-116470000D02*
X145621000Y-116345000D01*
G75*
G02*
X145683500Y-116282500I62500J0D01*
G01*
X146433500Y-116282500D01*
G75*
G02*
X146496000Y-116345000I0J-62500D01*
G01*
X146496000Y-116470000D01*
G75*
G02*
X146433500Y-116532500I-62500J0D01*
G01*
X145683500Y-116532500D01*
G75*
G02*
X145621000Y-116470000I0J62500D01*
G01*
G37*
G04 #@! TD.AperFunction*
G04 #@! TA.AperFunction,SMDPad,CuDef*
G36*
G01*
X145621000Y-115970000D02*
X145621000Y-115845000D01*
G75*
G02*
X145683500Y-115782500I62500J0D01*
G01*
X146433500Y-115782500D01*
G75*
G02*
X146496000Y-115845000I0J-62500D01*
G01*
X146496000Y-115970000D01*
G75*
G02*
X146433500Y-116032500I-62500J0D01*
G01*
X145683500Y-116032500D01*
G75*
G02*
X145621000Y-115970000I0J62500D01*
G01*
G37*
G04 #@! TD.AperFunction*
G04 #@! TA.AperFunction,SMDPad,CuDef*
G36*
G01*
X145621000Y-115470000D02*
X145621000Y-115345000D01*
G75*
G02*
X145683500Y-115282500I62500J0D01*
G01*
X146433500Y-115282500D01*
G75*
G02*
X146496000Y-115345000I0J-62500D01*
G01*
X146496000Y-115470000D01*
G75*
G02*
X146433500Y-115532500I-62500J0D01*
G01*
X145683500Y-115532500D01*
G75*
G02*
X145621000Y-115470000I0J62500D01*
G01*
G37*
G04 #@! TD.AperFunction*
G04 #@! TA.AperFunction,SMDPad,CuDef*
G36*
G01*
X145621000Y-114970000D02*
X145621000Y-114845000D01*
G75*
G02*
X145683500Y-114782500I62500J0D01*
G01*
X146433500Y-114782500D01*
G75*
G02*
X146496000Y-114845000I0J-62500D01*
G01*
X146496000Y-114970000D01*
G75*
G02*
X146433500Y-115032500I-62500J0D01*
G01*
X145683500Y-115032500D01*
G75*
G02*
X145621000Y-114970000I0J62500D01*
G01*
G37*
G04 #@! TD.AperFunction*
G04 #@! TA.AperFunction,SMDPad,CuDef*
G36*
G01*
X145621000Y-114470000D02*
X145621000Y-114345000D01*
G75*
G02*
X145683500Y-114282500I62500J0D01*
G01*
X146433500Y-114282500D01*
G75*
G02*
X146496000Y-114345000I0J-62500D01*
G01*
X146496000Y-114470000D01*
G75*
G02*
X146433500Y-114532500I-62500J0D01*
G01*
X145683500Y-114532500D01*
G75*
G02*
X145621000Y-114470000I0J62500D01*
G01*
G37*
G04 #@! TD.AperFunction*
G04 #@! TA.AperFunction,SMDPad,CuDef*
G36*
G01*
X145246000Y-114095000D02*
X145246000Y-113345000D01*
G75*
G02*
X145308500Y-113282500I62500J0D01*
G01*
X145433500Y-113282500D01*
G75*
G02*
X145496000Y-113345000I0J-62500D01*
G01*
X145496000Y-114095000D01*
G75*
G02*
X145433500Y-114157500I-62500J0D01*
G01*
X145308500Y-114157500D01*
G75*
G02*
X145246000Y-114095000I0J62500D01*
G01*
G37*
G04 #@! TD.AperFunction*
G04 #@! TA.AperFunction,SMDPad,CuDef*
G36*
G01*
X144746000Y-114095000D02*
X144746000Y-113345000D01*
G75*
G02*
X144808500Y-113282500I62500J0D01*
G01*
X144933500Y-113282500D01*
G75*
G02*
X144996000Y-113345000I0J-62500D01*
G01*
X144996000Y-114095000D01*
G75*
G02*
X144933500Y-114157500I-62500J0D01*
G01*
X144808500Y-114157500D01*
G75*
G02*
X144746000Y-114095000I0J62500D01*
G01*
G37*
G04 #@! TD.AperFunction*
G04 #@! TA.AperFunction,SMDPad,CuDef*
G36*
G01*
X144246000Y-114095000D02*
X144246000Y-113345000D01*
G75*
G02*
X144308500Y-113282500I62500J0D01*
G01*
X144433500Y-113282500D01*
G75*
G02*
X144496000Y-113345000I0J-62500D01*
G01*
X144496000Y-114095000D01*
G75*
G02*
X144433500Y-114157500I-62500J0D01*
G01*
X144308500Y-114157500D01*
G75*
G02*
X144246000Y-114095000I0J62500D01*
G01*
G37*
G04 #@! TD.AperFunction*
G04 #@! TA.AperFunction,SMDPad,CuDef*
G36*
G01*
X143746000Y-114095000D02*
X143746000Y-113345000D01*
G75*
G02*
X143808500Y-113282500I62500J0D01*
G01*
X143933500Y-113282500D01*
G75*
G02*
X143996000Y-113345000I0J-62500D01*
G01*
X143996000Y-114095000D01*
G75*
G02*
X143933500Y-114157500I-62500J0D01*
G01*
X143808500Y-114157500D01*
G75*
G02*
X143746000Y-114095000I0J62500D01*
G01*
G37*
G04 #@! TD.AperFunction*
G04 #@! TA.AperFunction,SMDPad,CuDef*
G36*
G01*
X143246000Y-114095000D02*
X143246000Y-113345000D01*
G75*
G02*
X143308500Y-113282500I62500J0D01*
G01*
X143433500Y-113282500D01*
G75*
G02*
X143496000Y-113345000I0J-62500D01*
G01*
X143496000Y-114095000D01*
G75*
G02*
X143433500Y-114157500I-62500J0D01*
G01*
X143308500Y-114157500D01*
G75*
G02*
X143246000Y-114095000I0J62500D01*
G01*
G37*
G04 #@! TD.AperFunction*
G04 #@! TA.AperFunction,SMDPad,CuDef*
G36*
G01*
X142746000Y-114095000D02*
X142746000Y-113345000D01*
G75*
G02*
X142808500Y-113282500I62500J0D01*
G01*
X142933500Y-113282500D01*
G75*
G02*
X142996000Y-113345000I0J-62500D01*
G01*
X142996000Y-114095000D01*
G75*
G02*
X142933500Y-114157500I-62500J0D01*
G01*
X142808500Y-114157500D01*
G75*
G02*
X142746000Y-114095000I0J62500D01*
G01*
G37*
G04 #@! TD.AperFunction*
G04 #@! TA.AperFunction,SMDPad,CuDef*
G36*
G01*
X142246000Y-114095000D02*
X142246000Y-113345000D01*
G75*
G02*
X142308500Y-113282500I62500J0D01*
G01*
X142433500Y-113282500D01*
G75*
G02*
X142496000Y-113345000I0J-62500D01*
G01*
X142496000Y-114095000D01*
G75*
G02*
X142433500Y-114157500I-62500J0D01*
G01*
X142308500Y-114157500D01*
G75*
G02*
X142246000Y-114095000I0J62500D01*
G01*
G37*
G04 #@! TD.AperFunction*
G04 #@! TA.AperFunction,SMDPad,CuDef*
G36*
G01*
X141746000Y-114095000D02*
X141746000Y-113345000D01*
G75*
G02*
X141808500Y-113282500I62500J0D01*
G01*
X141933500Y-113282500D01*
G75*
G02*
X141996000Y-113345000I0J-62500D01*
G01*
X141996000Y-114095000D01*
G75*
G02*
X141933500Y-114157500I-62500J0D01*
G01*
X141808500Y-114157500D01*
G75*
G02*
X141746000Y-114095000I0J62500D01*
G01*
G37*
G04 #@! TD.AperFunction*
G04 #@! TA.AperFunction,SMDPad,CuDef*
G36*
G01*
X141246000Y-114095000D02*
X141246000Y-113345000D01*
G75*
G02*
X141308500Y-113282500I62500J0D01*
G01*
X141433500Y-113282500D01*
G75*
G02*
X141496000Y-113345000I0J-62500D01*
G01*
X141496000Y-114095000D01*
G75*
G02*
X141433500Y-114157500I-62500J0D01*
G01*
X141308500Y-114157500D01*
G75*
G02*
X141246000Y-114095000I0J62500D01*
G01*
G37*
G04 #@! TD.AperFunction*
G04 #@! TA.AperFunction,SMDPad,CuDef*
G36*
G01*
X140746000Y-114095000D02*
X140746000Y-113345000D01*
G75*
G02*
X140808500Y-113282500I62500J0D01*
G01*
X140933500Y-113282500D01*
G75*
G02*
X140996000Y-113345000I0J-62500D01*
G01*
X140996000Y-114095000D01*
G75*
G02*
X140933500Y-114157500I-62500J0D01*
G01*
X140808500Y-114157500D01*
G75*
G02*
X140746000Y-114095000I0J62500D01*
G01*
G37*
G04 #@! TD.AperFunction*
G04 #@! TA.AperFunction,SMDPad,CuDef*
G36*
G01*
X140246000Y-114095000D02*
X140246000Y-113345000D01*
G75*
G02*
X140308500Y-113282500I62500J0D01*
G01*
X140433500Y-113282500D01*
G75*
G02*
X140496000Y-113345000I0J-62500D01*
G01*
X140496000Y-114095000D01*
G75*
G02*
X140433500Y-114157500I-62500J0D01*
G01*
X140308500Y-114157500D01*
G75*
G02*
X140246000Y-114095000I0J62500D01*
G01*
G37*
G04 #@! TD.AperFunction*
G04 #@! TA.AperFunction,SMDPad,CuDef*
G36*
G01*
X139746000Y-114095000D02*
X139746000Y-113345000D01*
G75*
G02*
X139808500Y-113282500I62500J0D01*
G01*
X139933500Y-113282500D01*
G75*
G02*
X139996000Y-113345000I0J-62500D01*
G01*
X139996000Y-114095000D01*
G75*
G02*
X139933500Y-114157500I-62500J0D01*
G01*
X139808500Y-114157500D01*
G75*
G02*
X139746000Y-114095000I0J62500D01*
G01*
G37*
G04 #@! TD.AperFunction*
G04 #@! TA.AperFunction,SMDPad,CuDef*
G36*
G01*
X138746000Y-114470000D02*
X138746000Y-114345000D01*
G75*
G02*
X138808500Y-114282500I62500J0D01*
G01*
X139558500Y-114282500D01*
G75*
G02*
X139621000Y-114345000I0J-62500D01*
G01*
X139621000Y-114470000D01*
G75*
G02*
X139558500Y-114532500I-62500J0D01*
G01*
X138808500Y-114532500D01*
G75*
G02*
X138746000Y-114470000I0J62500D01*
G01*
G37*
G04 #@! TD.AperFunction*
G04 #@! TA.AperFunction,SMDPad,CuDef*
G36*
G01*
X138746000Y-114970000D02*
X138746000Y-114845000D01*
G75*
G02*
X138808500Y-114782500I62500J0D01*
G01*
X139558500Y-114782500D01*
G75*
G02*
X139621000Y-114845000I0J-62500D01*
G01*
X139621000Y-114970000D01*
G75*
G02*
X139558500Y-115032500I-62500J0D01*
G01*
X138808500Y-115032500D01*
G75*
G02*
X138746000Y-114970000I0J62500D01*
G01*
G37*
G04 #@! TD.AperFunction*
G04 #@! TA.AperFunction,SMDPad,CuDef*
G36*
G01*
X138746000Y-115470000D02*
X138746000Y-115345000D01*
G75*
G02*
X138808500Y-115282500I62500J0D01*
G01*
X139558500Y-115282500D01*
G75*
G02*
X139621000Y-115345000I0J-62500D01*
G01*
X139621000Y-115470000D01*
G75*
G02*
X139558500Y-115532500I-62500J0D01*
G01*
X138808500Y-115532500D01*
G75*
G02*
X138746000Y-115470000I0J62500D01*
G01*
G37*
G04 #@! TD.AperFunction*
G04 #@! TA.AperFunction,SMDPad,CuDef*
G36*
G01*
X138746000Y-115970000D02*
X138746000Y-115845000D01*
G75*
G02*
X138808500Y-115782500I62500J0D01*
G01*
X139558500Y-115782500D01*
G75*
G02*
X139621000Y-115845000I0J-62500D01*
G01*
X139621000Y-115970000D01*
G75*
G02*
X139558500Y-116032500I-62500J0D01*
G01*
X138808500Y-116032500D01*
G75*
G02*
X138746000Y-115970000I0J62500D01*
G01*
G37*
G04 #@! TD.AperFunction*
G04 #@! TA.AperFunction,SMDPad,CuDef*
G36*
G01*
X138746000Y-116470000D02*
X138746000Y-116345000D01*
G75*
G02*
X138808500Y-116282500I62500J0D01*
G01*
X139558500Y-116282500D01*
G75*
G02*
X139621000Y-116345000I0J-62500D01*
G01*
X139621000Y-116470000D01*
G75*
G02*
X139558500Y-116532500I-62500J0D01*
G01*
X138808500Y-116532500D01*
G75*
G02*
X138746000Y-116470000I0J62500D01*
G01*
G37*
G04 #@! TD.AperFunction*
G04 #@! TA.AperFunction,SMDPad,CuDef*
G36*
G01*
X138746000Y-116970000D02*
X138746000Y-116845000D01*
G75*
G02*
X138808500Y-116782500I62500J0D01*
G01*
X139558500Y-116782500D01*
G75*
G02*
X139621000Y-116845000I0J-62500D01*
G01*
X139621000Y-116970000D01*
G75*
G02*
X139558500Y-117032500I-62500J0D01*
G01*
X138808500Y-117032500D01*
G75*
G02*
X138746000Y-116970000I0J62500D01*
G01*
G37*
G04 #@! TD.AperFunction*
G04 #@! TA.AperFunction,SMDPad,CuDef*
G36*
G01*
X138746000Y-117470000D02*
X138746000Y-117345000D01*
G75*
G02*
X138808500Y-117282500I62500J0D01*
G01*
X139558500Y-117282500D01*
G75*
G02*
X139621000Y-117345000I0J-62500D01*
G01*
X139621000Y-117470000D01*
G75*
G02*
X139558500Y-117532500I-62500J0D01*
G01*
X138808500Y-117532500D01*
G75*
G02*
X138746000Y-117470000I0J62500D01*
G01*
G37*
G04 #@! TD.AperFunction*
G04 #@! TA.AperFunction,SMDPad,CuDef*
G36*
G01*
X138746000Y-117970000D02*
X138746000Y-117845000D01*
G75*
G02*
X138808500Y-117782500I62500J0D01*
G01*
X139558500Y-117782500D01*
G75*
G02*
X139621000Y-117845000I0J-62500D01*
G01*
X139621000Y-117970000D01*
G75*
G02*
X139558500Y-118032500I-62500J0D01*
G01*
X138808500Y-118032500D01*
G75*
G02*
X138746000Y-117970000I0J62500D01*
G01*
G37*
G04 #@! TD.AperFunction*
G04 #@! TA.AperFunction,SMDPad,CuDef*
G36*
G01*
X138746000Y-118470000D02*
X138746000Y-118345000D01*
G75*
G02*
X138808500Y-118282500I62500J0D01*
G01*
X139558500Y-118282500D01*
G75*
G02*
X139621000Y-118345000I0J-62500D01*
G01*
X139621000Y-118470000D01*
G75*
G02*
X139558500Y-118532500I-62500J0D01*
G01*
X138808500Y-118532500D01*
G75*
G02*
X138746000Y-118470000I0J62500D01*
G01*
G37*
G04 #@! TD.AperFunction*
G04 #@! TA.AperFunction,SMDPad,CuDef*
G36*
G01*
X138746000Y-118970000D02*
X138746000Y-118845000D01*
G75*
G02*
X138808500Y-118782500I62500J0D01*
G01*
X139558500Y-118782500D01*
G75*
G02*
X139621000Y-118845000I0J-62500D01*
G01*
X139621000Y-118970000D01*
G75*
G02*
X139558500Y-119032500I-62500J0D01*
G01*
X138808500Y-119032500D01*
G75*
G02*
X138746000Y-118970000I0J62500D01*
G01*
G37*
G04 #@! TD.AperFunction*
G04 #@! TA.AperFunction,SMDPad,CuDef*
G36*
G01*
X138746000Y-119470000D02*
X138746000Y-119345000D01*
G75*
G02*
X138808500Y-119282500I62500J0D01*
G01*
X139558500Y-119282500D01*
G75*
G02*
X139621000Y-119345000I0J-62500D01*
G01*
X139621000Y-119470000D01*
G75*
G02*
X139558500Y-119532500I-62500J0D01*
G01*
X138808500Y-119532500D01*
G75*
G02*
X138746000Y-119470000I0J62500D01*
G01*
G37*
G04 #@! TD.AperFunction*
G04 #@! TA.AperFunction,SMDPad,CuDef*
G36*
G01*
X138746000Y-119970000D02*
X138746000Y-119845000D01*
G75*
G02*
X138808500Y-119782500I62500J0D01*
G01*
X139558500Y-119782500D01*
G75*
G02*
X139621000Y-119845000I0J-62500D01*
G01*
X139621000Y-119970000D01*
G75*
G02*
X139558500Y-120032500I-62500J0D01*
G01*
X138808500Y-120032500D01*
G75*
G02*
X138746000Y-119970000I0J62500D01*
G01*
G37*
G04 #@! TD.AperFunction*
D28*
X210409579Y-181823517D03*
X210409579Y-182773517D03*
X210409579Y-183723517D03*
X213029579Y-183723517D03*
X213029579Y-182773517D03*
X213029579Y-181823517D03*
D29*
X221288600Y-114681000D03*
X221288600Y-115631000D03*
X221288600Y-113731000D03*
X218588600Y-113731000D03*
X218588600Y-114681000D03*
X218588600Y-115631000D03*
D30*
X183959500Y-91059000D03*
G04 #@! TA.AperFunction,SMDPad,CuDef*
G36*
G01*
X183084500Y-92846500D02*
X183084500Y-92146500D01*
G75*
G02*
X183147000Y-92084000I62500J0D01*
G01*
X183272000Y-92084000D01*
G75*
G02*
X183334500Y-92146500I0J-62500D01*
G01*
X183334500Y-92846500D01*
G75*
G02*
X183272000Y-92909000I-62500J0D01*
G01*
X183147000Y-92909000D01*
G75*
G02*
X183084500Y-92846500I0J62500D01*
G01*
G37*
G04 #@! TD.AperFunction*
G04 #@! TA.AperFunction,SMDPad,CuDef*
G36*
G01*
X183584500Y-92846500D02*
X183584500Y-92146500D01*
G75*
G02*
X183647000Y-92084000I62500J0D01*
G01*
X183772000Y-92084000D01*
G75*
G02*
X183834500Y-92146500I0J-62500D01*
G01*
X183834500Y-92846500D01*
G75*
G02*
X183772000Y-92909000I-62500J0D01*
G01*
X183647000Y-92909000D01*
G75*
G02*
X183584500Y-92846500I0J62500D01*
G01*
G37*
G04 #@! TD.AperFunction*
G04 #@! TA.AperFunction,SMDPad,CuDef*
G36*
G01*
X184084500Y-92846500D02*
X184084500Y-92146500D01*
G75*
G02*
X184147000Y-92084000I62500J0D01*
G01*
X184272000Y-92084000D01*
G75*
G02*
X184334500Y-92146500I0J-62500D01*
G01*
X184334500Y-92846500D01*
G75*
G02*
X184272000Y-92909000I-62500J0D01*
G01*
X184147000Y-92909000D01*
G75*
G02*
X184084500Y-92846500I0J62500D01*
G01*
G37*
G04 #@! TD.AperFunction*
G04 #@! TA.AperFunction,SMDPad,CuDef*
G36*
G01*
X184584500Y-92846500D02*
X184584500Y-92146500D01*
G75*
G02*
X184647000Y-92084000I62500J0D01*
G01*
X184772000Y-92084000D01*
G75*
G02*
X184834500Y-92146500I0J-62500D01*
G01*
X184834500Y-92846500D01*
G75*
G02*
X184772000Y-92909000I-62500J0D01*
G01*
X184647000Y-92909000D01*
G75*
G02*
X184584500Y-92846500I0J62500D01*
G01*
G37*
G04 #@! TD.AperFunction*
G04 #@! TA.AperFunction,SMDPad,CuDef*
G36*
G01*
X184984500Y-91871500D02*
X184984500Y-91746500D01*
G75*
G02*
X185047000Y-91684000I62500J0D01*
G01*
X185747000Y-91684000D01*
G75*
G02*
X185809500Y-91746500I0J-62500D01*
G01*
X185809500Y-91871500D01*
G75*
G02*
X185747000Y-91934000I-62500J0D01*
G01*
X185047000Y-91934000D01*
G75*
G02*
X184984500Y-91871500I0J62500D01*
G01*
G37*
G04 #@! TD.AperFunction*
G04 #@! TA.AperFunction,SMDPad,CuDef*
G36*
G01*
X184984500Y-91371500D02*
X184984500Y-91246500D01*
G75*
G02*
X185047000Y-91184000I62500J0D01*
G01*
X185747000Y-91184000D01*
G75*
G02*
X185809500Y-91246500I0J-62500D01*
G01*
X185809500Y-91371500D01*
G75*
G02*
X185747000Y-91434000I-62500J0D01*
G01*
X185047000Y-91434000D01*
G75*
G02*
X184984500Y-91371500I0J62500D01*
G01*
G37*
G04 #@! TD.AperFunction*
G04 #@! TA.AperFunction,SMDPad,CuDef*
G36*
G01*
X184984500Y-90871500D02*
X184984500Y-90746500D01*
G75*
G02*
X185047000Y-90684000I62500J0D01*
G01*
X185747000Y-90684000D01*
G75*
G02*
X185809500Y-90746500I0J-62500D01*
G01*
X185809500Y-90871500D01*
G75*
G02*
X185747000Y-90934000I-62500J0D01*
G01*
X185047000Y-90934000D01*
G75*
G02*
X184984500Y-90871500I0J62500D01*
G01*
G37*
G04 #@! TD.AperFunction*
G04 #@! TA.AperFunction,SMDPad,CuDef*
G36*
G01*
X184984500Y-90371500D02*
X184984500Y-90246500D01*
G75*
G02*
X185047000Y-90184000I62500J0D01*
G01*
X185747000Y-90184000D01*
G75*
G02*
X185809500Y-90246500I0J-62500D01*
G01*
X185809500Y-90371500D01*
G75*
G02*
X185747000Y-90434000I-62500J0D01*
G01*
X185047000Y-90434000D01*
G75*
G02*
X184984500Y-90371500I0J62500D01*
G01*
G37*
G04 #@! TD.AperFunction*
G04 #@! TA.AperFunction,SMDPad,CuDef*
G36*
G01*
X184584500Y-89971500D02*
X184584500Y-89271500D01*
G75*
G02*
X184647000Y-89209000I62500J0D01*
G01*
X184772000Y-89209000D01*
G75*
G02*
X184834500Y-89271500I0J-62500D01*
G01*
X184834500Y-89971500D01*
G75*
G02*
X184772000Y-90034000I-62500J0D01*
G01*
X184647000Y-90034000D01*
G75*
G02*
X184584500Y-89971500I0J62500D01*
G01*
G37*
G04 #@! TD.AperFunction*
G04 #@! TA.AperFunction,SMDPad,CuDef*
G36*
G01*
X184084500Y-89971500D02*
X184084500Y-89271500D01*
G75*
G02*
X184147000Y-89209000I62500J0D01*
G01*
X184272000Y-89209000D01*
G75*
G02*
X184334500Y-89271500I0J-62500D01*
G01*
X184334500Y-89971500D01*
G75*
G02*
X184272000Y-90034000I-62500J0D01*
G01*
X184147000Y-90034000D01*
G75*
G02*
X184084500Y-89971500I0J62500D01*
G01*
G37*
G04 #@! TD.AperFunction*
G04 #@! TA.AperFunction,SMDPad,CuDef*
G36*
G01*
X183584500Y-89971500D02*
X183584500Y-89271500D01*
G75*
G02*
X183647000Y-89209000I62500J0D01*
G01*
X183772000Y-89209000D01*
G75*
G02*
X183834500Y-89271500I0J-62500D01*
G01*
X183834500Y-89971500D01*
G75*
G02*
X183772000Y-90034000I-62500J0D01*
G01*
X183647000Y-90034000D01*
G75*
G02*
X183584500Y-89971500I0J62500D01*
G01*
G37*
G04 #@! TD.AperFunction*
G04 #@! TA.AperFunction,SMDPad,CuDef*
G36*
G01*
X183084500Y-89971500D02*
X183084500Y-89271500D01*
G75*
G02*
X183147000Y-89209000I62500J0D01*
G01*
X183272000Y-89209000D01*
G75*
G02*
X183334500Y-89271500I0J-62500D01*
G01*
X183334500Y-89971500D01*
G75*
G02*
X183272000Y-90034000I-62500J0D01*
G01*
X183147000Y-90034000D01*
G75*
G02*
X183084500Y-89971500I0J62500D01*
G01*
G37*
G04 #@! TD.AperFunction*
G04 #@! TA.AperFunction,SMDPad,CuDef*
G36*
G01*
X182109500Y-90371500D02*
X182109500Y-90246500D01*
G75*
G02*
X182172000Y-90184000I62500J0D01*
G01*
X182872000Y-90184000D01*
G75*
G02*
X182934500Y-90246500I0J-62500D01*
G01*
X182934500Y-90371500D01*
G75*
G02*
X182872000Y-90434000I-62500J0D01*
G01*
X182172000Y-90434000D01*
G75*
G02*
X182109500Y-90371500I0J62500D01*
G01*
G37*
G04 #@! TD.AperFunction*
G04 #@! TA.AperFunction,SMDPad,CuDef*
G36*
G01*
X182109500Y-90871500D02*
X182109500Y-90746500D01*
G75*
G02*
X182172000Y-90684000I62500J0D01*
G01*
X182872000Y-90684000D01*
G75*
G02*
X182934500Y-90746500I0J-62500D01*
G01*
X182934500Y-90871500D01*
G75*
G02*
X182872000Y-90934000I-62500J0D01*
G01*
X182172000Y-90934000D01*
G75*
G02*
X182109500Y-90871500I0J62500D01*
G01*
G37*
G04 #@! TD.AperFunction*
G04 #@! TA.AperFunction,SMDPad,CuDef*
G36*
G01*
X182109500Y-91371500D02*
X182109500Y-91246500D01*
G75*
G02*
X182172000Y-91184000I62500J0D01*
G01*
X182872000Y-91184000D01*
G75*
G02*
X182934500Y-91246500I0J-62500D01*
G01*
X182934500Y-91371500D01*
G75*
G02*
X182872000Y-91434000I-62500J0D01*
G01*
X182172000Y-91434000D01*
G75*
G02*
X182109500Y-91371500I0J62500D01*
G01*
G37*
G04 #@! TD.AperFunction*
G04 #@! TA.AperFunction,SMDPad,CuDef*
G36*
G01*
X182109500Y-91871500D02*
X182109500Y-91746500D01*
G75*
G02*
X182172000Y-91684000I62500J0D01*
G01*
X182872000Y-91684000D01*
G75*
G02*
X182934500Y-91746500I0J-62500D01*
G01*
X182934500Y-91871500D01*
G75*
G02*
X182872000Y-91934000I-62500J0D01*
G01*
X182172000Y-91934000D01*
G75*
G02*
X182109500Y-91871500I0J62500D01*
G01*
G37*
G04 #@! TD.AperFunction*
D13*
X128079500Y-141922500D03*
X141566900Y-106959400D03*
X171094400Y-124206000D03*
X174142400Y-119710200D03*
X129095500Y-153035000D03*
X195707000Y-163830000D03*
X211963000Y-155321000D03*
X157403800Y-178485800D03*
X192557400Y-155371800D03*
X197358000Y-191236600D03*
X216000000Y-183500000D03*
X199999600Y-159689800D03*
X200660000Y-147472400D03*
X217678000Y-176720500D03*
X207645000Y-155321000D03*
X225171000Y-159321500D03*
X218414600Y-162153600D03*
X176326800Y-113055400D03*
X226758500Y-113728500D03*
X231013000Y-121475500D03*
X190246000Y-91694000D03*
X216789000Y-108839000D03*
X176479200Y-107238800D03*
X179146200Y-120294400D03*
X176072800Y-103022400D03*
X177800000Y-94615000D03*
X177800000Y-90805000D03*
X204152500Y-157734000D03*
X169367200Y-127914400D03*
X183896000Y-120396000D03*
X216204800Y-140766800D03*
X224612200Y-110109000D03*
X181610000Y-114300000D03*
D31*
X156273500Y-161963000D03*
X156273500Y-161163000D03*
X154573500Y-161163000D03*
X154573500Y-161963000D03*
X149428200Y-148856600D03*
X149428200Y-148056600D03*
X147728200Y-148056600D03*
X147728200Y-148856600D03*
X199810000Y-94342000D03*
X199810000Y-95142000D03*
X201510000Y-95142000D03*
X201510000Y-94342000D03*
G04 #@! TA.AperFunction,SMDPad,CuDef*
G36*
G01*
X208362500Y-159073002D02*
X208362500Y-158172998D01*
G75*
G02*
X208612498Y-157923000I249998J0D01*
G01*
X209137502Y-157923000D01*
G75*
G02*
X209387500Y-158172998I0J-249998D01*
G01*
X209387500Y-159073002D01*
G75*
G02*
X209137502Y-159323000I-249998J0D01*
G01*
X208612498Y-159323000D01*
G75*
G02*
X208362500Y-159073002I0J249998D01*
G01*
G37*
G04 #@! TD.AperFunction*
G04 #@! TA.AperFunction,SMDPad,CuDef*
G36*
G01*
X206537500Y-159073002D02*
X206537500Y-158172998D01*
G75*
G02*
X206787498Y-157923000I249998J0D01*
G01*
X207312502Y-157923000D01*
G75*
G02*
X207562500Y-158172998I0J-249998D01*
G01*
X207562500Y-159073002D01*
G75*
G02*
X207312502Y-159323000I-249998J0D01*
G01*
X206787498Y-159323000D01*
G75*
G02*
X206537500Y-159073002I0J249998D01*
G01*
G37*
G04 #@! TD.AperFunction*
G04 #@! TA.AperFunction,SMDPad,CuDef*
G36*
G01*
X233040500Y-135451002D02*
X233040500Y-134550998D01*
G75*
G02*
X233290498Y-134301000I249998J0D01*
G01*
X233815502Y-134301000D01*
G75*
G02*
X234065500Y-134550998I0J-249998D01*
G01*
X234065500Y-135451002D01*
G75*
G02*
X233815502Y-135701000I-249998J0D01*
G01*
X233290498Y-135701000D01*
G75*
G02*
X233040500Y-135451002I0J249998D01*
G01*
G37*
G04 #@! TD.AperFunction*
G04 #@! TA.AperFunction,SMDPad,CuDef*
G36*
G01*
X231215500Y-135451002D02*
X231215500Y-134550998D01*
G75*
G02*
X231465498Y-134301000I249998J0D01*
G01*
X231990502Y-134301000D01*
G75*
G02*
X232240500Y-134550998I0J-249998D01*
G01*
X232240500Y-135451002D01*
G75*
G02*
X231990502Y-135701000I-249998J0D01*
G01*
X231465498Y-135701000D01*
G75*
G02*
X231215500Y-135451002I0J249998D01*
G01*
G37*
G04 #@! TD.AperFunction*
G04 #@! TA.AperFunction,SMDPad,CuDef*
G36*
G01*
X229150500Y-117036002D02*
X229150500Y-116135998D01*
G75*
G02*
X229400498Y-115886000I249998J0D01*
G01*
X229925502Y-115886000D01*
G75*
G02*
X230175500Y-116135998I0J-249998D01*
G01*
X230175500Y-117036002D01*
G75*
G02*
X229925502Y-117286000I-249998J0D01*
G01*
X229400498Y-117286000D01*
G75*
G02*
X229150500Y-117036002I0J249998D01*
G01*
G37*
G04 #@! TD.AperFunction*
G04 #@! TA.AperFunction,SMDPad,CuDef*
G36*
G01*
X227325500Y-117036002D02*
X227325500Y-116135998D01*
G75*
G02*
X227575498Y-115886000I249998J0D01*
G01*
X228100502Y-115886000D01*
G75*
G02*
X228350500Y-116135998I0J-249998D01*
G01*
X228350500Y-117036002D01*
G75*
G02*
X228100502Y-117286000I-249998J0D01*
G01*
X227575498Y-117286000D01*
G75*
G02*
X227325500Y-117036002I0J249998D01*
G01*
G37*
G04 #@! TD.AperFunction*
G04 #@! TA.AperFunction,SMDPad,CuDef*
G36*
G01*
X224858000Y-119374498D02*
X224858000Y-120274502D01*
G75*
G02*
X224608002Y-120524500I-249998J0D01*
G01*
X224082998Y-120524500D01*
G75*
G02*
X223833000Y-120274502I0J249998D01*
G01*
X223833000Y-119374498D01*
G75*
G02*
X224082998Y-119124500I249998J0D01*
G01*
X224608002Y-119124500D01*
G75*
G02*
X224858000Y-119374498I0J-249998D01*
G01*
G37*
G04 #@! TD.AperFunction*
G04 #@! TA.AperFunction,SMDPad,CuDef*
G36*
G01*
X226683000Y-119374498D02*
X226683000Y-120274502D01*
G75*
G02*
X226433002Y-120524500I-249998J0D01*
G01*
X225907998Y-120524500D01*
G75*
G02*
X225658000Y-120274502I0J249998D01*
G01*
X225658000Y-119374498D01*
G75*
G02*
X225907998Y-119124500I249998J0D01*
G01*
X226433002Y-119124500D01*
G75*
G02*
X226683000Y-119374498I0J-249998D01*
G01*
G37*
G04 #@! TD.AperFunction*
G04 #@! TA.AperFunction,SMDPad,CuDef*
G36*
G01*
X226500000Y-126180002D02*
X226500000Y-125279998D01*
G75*
G02*
X226749998Y-125030000I249998J0D01*
G01*
X227275002Y-125030000D01*
G75*
G02*
X227525000Y-125279998I0J-249998D01*
G01*
X227525000Y-126180002D01*
G75*
G02*
X227275002Y-126430000I-249998J0D01*
G01*
X226749998Y-126430000D01*
G75*
G02*
X226500000Y-126180002I0J249998D01*
G01*
G37*
G04 #@! TD.AperFunction*
G04 #@! TA.AperFunction,SMDPad,CuDef*
G36*
G01*
X224675000Y-126180002D02*
X224675000Y-125279998D01*
G75*
G02*
X224924998Y-125030000I249998J0D01*
G01*
X225450002Y-125030000D01*
G75*
G02*
X225700000Y-125279998I0J-249998D01*
G01*
X225700000Y-126180002D01*
G75*
G02*
X225450002Y-126430000I-249998J0D01*
G01*
X224924998Y-126430000D01*
G75*
G02*
X224675000Y-126180002I0J249998D01*
G01*
G37*
G04 #@! TD.AperFunction*
G04 #@! TA.AperFunction,SMDPad,CuDef*
G36*
G01*
X229367502Y-124354000D02*
X228467498Y-124354000D01*
G75*
G02*
X228217500Y-124104002I0J249998D01*
G01*
X228217500Y-123578998D01*
G75*
G02*
X228467498Y-123329000I249998J0D01*
G01*
X229367502Y-123329000D01*
G75*
G02*
X229617500Y-123578998I0J-249998D01*
G01*
X229617500Y-124104002D01*
G75*
G02*
X229367502Y-124354000I-249998J0D01*
G01*
G37*
G04 #@! TD.AperFunction*
G04 #@! TA.AperFunction,SMDPad,CuDef*
G36*
G01*
X229367502Y-126179000D02*
X228467498Y-126179000D01*
G75*
G02*
X228217500Y-125929002I0J249998D01*
G01*
X228217500Y-125403998D01*
G75*
G02*
X228467498Y-125154000I249998J0D01*
G01*
X229367502Y-125154000D01*
G75*
G02*
X229617500Y-125403998I0J-249998D01*
G01*
X229617500Y-125929002D01*
G75*
G02*
X229367502Y-126179000I-249998J0D01*
G01*
G37*
G04 #@! TD.AperFunction*
G04 #@! TA.AperFunction,SMDPad,CuDef*
G36*
G01*
X135060000Y-124656002D02*
X135060000Y-123755998D01*
G75*
G02*
X135309998Y-123506000I249998J0D01*
G01*
X135835002Y-123506000D01*
G75*
G02*
X136085000Y-123755998I0J-249998D01*
G01*
X136085000Y-124656002D01*
G75*
G02*
X135835002Y-124906000I-249998J0D01*
G01*
X135309998Y-124906000D01*
G75*
G02*
X135060000Y-124656002I0J249998D01*
G01*
G37*
G04 #@! TD.AperFunction*
G04 #@! TA.AperFunction,SMDPad,CuDef*
G36*
G01*
X133235000Y-124656002D02*
X133235000Y-123755998D01*
G75*
G02*
X133484998Y-123506000I249998J0D01*
G01*
X134010002Y-123506000D01*
G75*
G02*
X134260000Y-123755998I0J-249998D01*
G01*
X134260000Y-124656002D01*
G75*
G02*
X134010002Y-124906000I-249998J0D01*
G01*
X133484998Y-124906000D01*
G75*
G02*
X133235000Y-124656002I0J249998D01*
G01*
G37*
G04 #@! TD.AperFunction*
G04 #@! TA.AperFunction,SMDPad,CuDef*
G36*
G01*
X223904177Y-163981317D02*
X224804181Y-163981317D01*
G75*
G02*
X225054179Y-164231315I0J-249998D01*
G01*
X225054179Y-164756319D01*
G75*
G02*
X224804181Y-165006317I-249998J0D01*
G01*
X223904177Y-165006317D01*
G75*
G02*
X223654179Y-164756319I0J249998D01*
G01*
X223654179Y-164231315D01*
G75*
G02*
X223904177Y-163981317I249998J0D01*
G01*
G37*
G04 #@! TD.AperFunction*
G04 #@! TA.AperFunction,SMDPad,CuDef*
G36*
G01*
X223904177Y-162156317D02*
X224804181Y-162156317D01*
G75*
G02*
X225054179Y-162406315I0J-249998D01*
G01*
X225054179Y-162931319D01*
G75*
G02*
X224804181Y-163181317I-249998J0D01*
G01*
X223904177Y-163181317D01*
G75*
G02*
X223654179Y-162931319I0J249998D01*
G01*
X223654179Y-162406315D01*
G75*
G02*
X223904177Y-162156317I249998J0D01*
G01*
G37*
G04 #@! TD.AperFunction*
G04 #@! TA.AperFunction,SMDPad,CuDef*
G36*
G01*
X169474200Y-152065400D02*
X169474200Y-151515400D01*
G75*
G02*
X169674200Y-151315400I200000J0D01*
G01*
X170074200Y-151315400D01*
G75*
G02*
X170274200Y-151515400I0J-200000D01*
G01*
X170274200Y-152065400D01*
G75*
G02*
X170074200Y-152265400I-200000J0D01*
G01*
X169674200Y-152265400D01*
G75*
G02*
X169474200Y-152065400I0J200000D01*
G01*
G37*
G04 #@! TD.AperFunction*
G04 #@! TA.AperFunction,SMDPad,CuDef*
G36*
G01*
X167824200Y-152065400D02*
X167824200Y-151515400D01*
G75*
G02*
X168024200Y-151315400I200000J0D01*
G01*
X168424200Y-151315400D01*
G75*
G02*
X168624200Y-151515400I0J-200000D01*
G01*
X168624200Y-152065400D01*
G75*
G02*
X168424200Y-152265400I-200000J0D01*
G01*
X168024200Y-152265400D01*
G75*
G02*
X167824200Y-152065400I0J200000D01*
G01*
G37*
G04 #@! TD.AperFunction*
G04 #@! TA.AperFunction,SMDPad,CuDef*
G36*
G01*
X141829200Y-147948600D02*
X141279200Y-147948600D01*
G75*
G02*
X141079200Y-147748600I0J200000D01*
G01*
X141079200Y-147348600D01*
G75*
G02*
X141279200Y-147148600I200000J0D01*
G01*
X141829200Y-147148600D01*
G75*
G02*
X142029200Y-147348600I0J-200000D01*
G01*
X142029200Y-147748600D01*
G75*
G02*
X141829200Y-147948600I-200000J0D01*
G01*
G37*
G04 #@! TD.AperFunction*
G04 #@! TA.AperFunction,SMDPad,CuDef*
G36*
G01*
X141829200Y-149598600D02*
X141279200Y-149598600D01*
G75*
G02*
X141079200Y-149398600I0J200000D01*
G01*
X141079200Y-148998600D01*
G75*
G02*
X141279200Y-148798600I200000J0D01*
G01*
X141829200Y-148798600D01*
G75*
G02*
X142029200Y-148998600I0J-200000D01*
G01*
X142029200Y-149398600D01*
G75*
G02*
X141829200Y-149598600I-200000J0D01*
G01*
G37*
G04 #@! TD.AperFunction*
G04 #@! TA.AperFunction,SMDPad,CuDef*
G36*
G01*
X167898400Y-154564400D02*
X168448400Y-154564400D01*
G75*
G02*
X168648400Y-154764400I0J-200000D01*
G01*
X168648400Y-155164400D01*
G75*
G02*
X168448400Y-155364400I-200000J0D01*
G01*
X167898400Y-155364400D01*
G75*
G02*
X167698400Y-155164400I0J200000D01*
G01*
X167698400Y-154764400D01*
G75*
G02*
X167898400Y-154564400I200000J0D01*
G01*
G37*
G04 #@! TD.AperFunction*
G04 #@! TA.AperFunction,SMDPad,CuDef*
G36*
G01*
X167898400Y-152914400D02*
X168448400Y-152914400D01*
G75*
G02*
X168648400Y-153114400I0J-200000D01*
G01*
X168648400Y-153514400D01*
G75*
G02*
X168448400Y-153714400I-200000J0D01*
G01*
X167898400Y-153714400D01*
G75*
G02*
X167698400Y-153514400I0J200000D01*
G01*
X167698400Y-153114400D01*
G75*
G02*
X167898400Y-152914400I200000J0D01*
G01*
G37*
G04 #@! TD.AperFunction*
G04 #@! TA.AperFunction,SMDPad,CuDef*
G36*
G01*
X169701800Y-154615200D02*
X170251800Y-154615200D01*
G75*
G02*
X170451800Y-154815200I0J-200000D01*
G01*
X170451800Y-155215200D01*
G75*
G02*
X170251800Y-155415200I-200000J0D01*
G01*
X169701800Y-155415200D01*
G75*
G02*
X169501800Y-155215200I0J200000D01*
G01*
X169501800Y-154815200D01*
G75*
G02*
X169701800Y-154615200I200000J0D01*
G01*
G37*
G04 #@! TD.AperFunction*
G04 #@! TA.AperFunction,SMDPad,CuDef*
G36*
G01*
X169701800Y-152965200D02*
X170251800Y-152965200D01*
G75*
G02*
X170451800Y-153165200I0J-200000D01*
G01*
X170451800Y-153565200D01*
G75*
G02*
X170251800Y-153765200I-200000J0D01*
G01*
X169701800Y-153765200D01*
G75*
G02*
X169501800Y-153565200I0J200000D01*
G01*
X169501800Y-153165200D01*
G75*
G02*
X169701800Y-152965200I200000J0D01*
G01*
G37*
G04 #@! TD.AperFunction*
G04 #@! TA.AperFunction,SMDPad,CuDef*
G36*
G01*
X144380000Y-149271400D02*
X144380000Y-148721400D01*
G75*
G02*
X144580000Y-148521400I200000J0D01*
G01*
X144980000Y-148521400D01*
G75*
G02*
X145180000Y-148721400I0J-200000D01*
G01*
X145180000Y-149271400D01*
G75*
G02*
X144980000Y-149471400I-200000J0D01*
G01*
X144580000Y-149471400D01*
G75*
G02*
X144380000Y-149271400I0J200000D01*
G01*
G37*
G04 #@! TD.AperFunction*
G04 #@! TA.AperFunction,SMDPad,CuDef*
G36*
G01*
X142730000Y-149271400D02*
X142730000Y-148721400D01*
G75*
G02*
X142930000Y-148521400I200000J0D01*
G01*
X143330000Y-148521400D01*
G75*
G02*
X143530000Y-148721400I0J-200000D01*
G01*
X143530000Y-149271400D01*
G75*
G02*
X143330000Y-149471400I-200000J0D01*
G01*
X142930000Y-149471400D01*
G75*
G02*
X142730000Y-149271400I0J200000D01*
G01*
G37*
G04 #@! TD.AperFunction*
G04 #@! TA.AperFunction,SMDPad,CuDef*
G36*
G01*
X144430800Y-147772800D02*
X144430800Y-147222800D01*
G75*
G02*
X144630800Y-147022800I200000J0D01*
G01*
X145030800Y-147022800D01*
G75*
G02*
X145230800Y-147222800I0J-200000D01*
G01*
X145230800Y-147772800D01*
G75*
G02*
X145030800Y-147972800I-200000J0D01*
G01*
X144630800Y-147972800D01*
G75*
G02*
X144430800Y-147772800I0J200000D01*
G01*
G37*
G04 #@! TD.AperFunction*
G04 #@! TA.AperFunction,SMDPad,CuDef*
G36*
G01*
X142780800Y-147772800D02*
X142780800Y-147222800D01*
G75*
G02*
X142980800Y-147022800I200000J0D01*
G01*
X143380800Y-147022800D01*
G75*
G02*
X143580800Y-147222800I0J-200000D01*
G01*
X143580800Y-147772800D01*
G75*
G02*
X143380800Y-147972800I-200000J0D01*
G01*
X142980800Y-147972800D01*
G75*
G02*
X142780800Y-147772800I0J200000D01*
G01*
G37*
G04 #@! TD.AperFunction*
G04 #@! TA.AperFunction,SMDPad,CuDef*
G36*
G01*
X204986200Y-187292402D02*
X204986200Y-186392398D01*
G75*
G02*
X205236198Y-186142400I249998J0D01*
G01*
X205761202Y-186142400D01*
G75*
G02*
X206011200Y-186392398I0J-249998D01*
G01*
X206011200Y-187292402D01*
G75*
G02*
X205761202Y-187542400I-249998J0D01*
G01*
X205236198Y-187542400D01*
G75*
G02*
X204986200Y-187292402I0J249998D01*
G01*
G37*
G04 #@! TD.AperFunction*
G04 #@! TA.AperFunction,SMDPad,CuDef*
G36*
G01*
X203161200Y-187292402D02*
X203161200Y-186392398D01*
G75*
G02*
X203411198Y-186142400I249998J0D01*
G01*
X203936202Y-186142400D01*
G75*
G02*
X204186200Y-186392398I0J-249998D01*
G01*
X204186200Y-187292402D01*
G75*
G02*
X203936202Y-187542400I-249998J0D01*
G01*
X203411198Y-187542400D01*
G75*
G02*
X203161200Y-187292402I0J249998D01*
G01*
G37*
G04 #@! TD.AperFunction*
G04 #@! TA.AperFunction,SMDPad,CuDef*
G36*
G01*
X201379400Y-186593902D02*
X201379400Y-185693898D01*
G75*
G02*
X201629398Y-185443900I249998J0D01*
G01*
X202154402Y-185443900D01*
G75*
G02*
X202404400Y-185693898I0J-249998D01*
G01*
X202404400Y-186593902D01*
G75*
G02*
X202154402Y-186843900I-249998J0D01*
G01*
X201629398Y-186843900D01*
G75*
G02*
X201379400Y-186593902I0J249998D01*
G01*
G37*
G04 #@! TD.AperFunction*
G04 #@! TA.AperFunction,SMDPad,CuDef*
G36*
G01*
X199554400Y-186593902D02*
X199554400Y-185693898D01*
G75*
G02*
X199804398Y-185443900I249998J0D01*
G01*
X200329402Y-185443900D01*
G75*
G02*
X200579400Y-185693898I0J-249998D01*
G01*
X200579400Y-186593902D01*
G75*
G02*
X200329402Y-186843900I-249998J0D01*
G01*
X199804398Y-186843900D01*
G75*
G02*
X199554400Y-186593902I0J249998D01*
G01*
G37*
G04 #@! TD.AperFunction*
G04 #@! TA.AperFunction,SMDPad,CuDef*
G36*
G01*
X206444578Y-177056517D02*
X209294580Y-177056517D01*
G75*
G02*
X209544579Y-177306516I0J-249999D01*
G01*
X209544579Y-178031518D01*
G75*
G02*
X209294580Y-178281517I-249999J0D01*
G01*
X206444578Y-178281517D01*
G75*
G02*
X206194579Y-178031518I0J249999D01*
G01*
X206194579Y-177306516D01*
G75*
G02*
X206444578Y-177056517I249999J0D01*
G01*
G37*
G04 #@! TD.AperFunction*
G04 #@! TA.AperFunction,SMDPad,CuDef*
G36*
G01*
X206444578Y-171131517D02*
X209294580Y-171131517D01*
G75*
G02*
X209544579Y-171381516I0J-249999D01*
G01*
X209544579Y-172106518D01*
G75*
G02*
X209294580Y-172356517I-249999J0D01*
G01*
X206444578Y-172356517D01*
G75*
G02*
X206194579Y-172106518I0J249999D01*
G01*
X206194579Y-171381516D01*
G75*
G02*
X206444578Y-171131517I249999J0D01*
G01*
G37*
G04 #@! TD.AperFunction*
G04 #@! TA.AperFunction,SMDPad,CuDef*
G36*
G01*
X211406579Y-185178515D02*
X211406579Y-186078519D01*
G75*
G02*
X211156581Y-186328517I-249998J0D01*
G01*
X210631577Y-186328517D01*
G75*
G02*
X210381579Y-186078519I0J249998D01*
G01*
X210381579Y-185178515D01*
G75*
G02*
X210631577Y-184928517I249998J0D01*
G01*
X211156581Y-184928517D01*
G75*
G02*
X211406579Y-185178515I0J-249998D01*
G01*
G37*
G04 #@! TD.AperFunction*
G04 #@! TA.AperFunction,SMDPad,CuDef*
G36*
G01*
X213231579Y-185178515D02*
X213231579Y-186078519D01*
G75*
G02*
X212981581Y-186328517I-249998J0D01*
G01*
X212456577Y-186328517D01*
G75*
G02*
X212206579Y-186078519I0J249998D01*
G01*
X212206579Y-185178515D01*
G75*
G02*
X212456577Y-184928517I249998J0D01*
G01*
X212981581Y-184928517D01*
G75*
G02*
X213231579Y-185178515I0J-249998D01*
G01*
G37*
G04 #@! TD.AperFunction*
G04 #@! TA.AperFunction,SMDPad,CuDef*
G36*
G01*
X218421800Y-111291400D02*
X218051800Y-111291400D01*
G75*
G02*
X217916800Y-111156400I0J135000D01*
G01*
X217916800Y-110886400D01*
G75*
G02*
X218051800Y-110751400I135000J0D01*
G01*
X218421800Y-110751400D01*
G75*
G02*
X218556800Y-110886400I0J-135000D01*
G01*
X218556800Y-111156400D01*
G75*
G02*
X218421800Y-111291400I-135000J0D01*
G01*
G37*
G04 #@! TD.AperFunction*
G04 #@! TA.AperFunction,SMDPad,CuDef*
G36*
G01*
X218421800Y-112311400D02*
X218051800Y-112311400D01*
G75*
G02*
X217916800Y-112176400I0J135000D01*
G01*
X217916800Y-111906400D01*
G75*
G02*
X218051800Y-111771400I135000J0D01*
G01*
X218421800Y-111771400D01*
G75*
G02*
X218556800Y-111906400I0J-135000D01*
G01*
X218556800Y-112176400D01*
G75*
G02*
X218421800Y-112311400I-135000J0D01*
G01*
G37*
G04 #@! TD.AperFunction*
G04 #@! TA.AperFunction,SMDPad,CuDef*
G36*
G01*
X216059695Y-114503814D02*
X215670786Y-114114905D01*
G75*
G02*
X215670786Y-113832063I141421J141421D01*
G01*
X215953629Y-113549220D01*
G75*
G02*
X216236471Y-113549220I141421J-141421D01*
G01*
X216625380Y-113938129D01*
G75*
G02*
X216625380Y-114220971I-141421J-141421D01*
G01*
X216342537Y-114503814D01*
G75*
G02*
X216059695Y-114503814I-141421J141421D01*
G01*
G37*
G04 #@! TD.AperFunction*
G04 #@! TA.AperFunction,SMDPad,CuDef*
G36*
G01*
X214892969Y-115670540D02*
X214504060Y-115281631D01*
G75*
G02*
X214504060Y-114998789I141421J141421D01*
G01*
X214786903Y-114715946D01*
G75*
G02*
X215069745Y-114715946I141421J-141421D01*
G01*
X215458654Y-115104855D01*
G75*
G02*
X215458654Y-115387697I-141421J-141421D01*
G01*
X215175811Y-115670540D01*
G75*
G02*
X214892969Y-115670540I-141421J141421D01*
G01*
G37*
G04 #@! TD.AperFunction*
D32*
X229790500Y-119253000D03*
X227790500Y-118303000D03*
X227790500Y-120203000D03*
D33*
X225742500Y-121936000D03*
X224792500Y-123936000D03*
X226692500Y-123936000D03*
X134620000Y-120031000D03*
X133670000Y-122031000D03*
X135570000Y-122031000D03*
X230378000Y-130648200D03*
X229428000Y-132648200D03*
X231328000Y-132648200D03*
D34*
X207676579Y-169032517D03*
X208626579Y-166832517D03*
X206726579Y-166832517D03*
G04 #@! TA.AperFunction,SMDPad,CuDef*
D18*
G36*
X139624329Y-109862368D02*
G01*
X138434299Y-108949226D01*
X139043061Y-108155872D01*
X140233091Y-109069014D01*
X139624329Y-109862368D01*
G37*
G04 #@! TD.AperFunction*
G04 #@! TA.AperFunction,SMDPad,CuDef*
G36*
X138832939Y-110893728D02*
G01*
X137642909Y-109980586D01*
X138251671Y-109187232D01*
X139441701Y-110100374D01*
X138832939Y-110893728D01*
G37*
G04 #@! TD.AperFunction*
G04 #@! TA.AperFunction,SMDPad,CuDef*
G36*
X173470000Y-97040000D02*
G01*
X174020000Y-97040000D01*
X174020000Y-97040602D01*
X174044534Y-97040602D01*
X174093365Y-97045412D01*
X174141490Y-97054984D01*
X174188445Y-97069228D01*
X174233778Y-97088005D01*
X174277051Y-97111136D01*
X174317850Y-97138396D01*
X174355779Y-97169524D01*
X174390476Y-97204221D01*
X174421604Y-97242150D01*
X174448864Y-97282949D01*
X174471995Y-97326222D01*
X174490772Y-97371555D01*
X174505016Y-97418510D01*
X174514588Y-97466635D01*
X174519398Y-97515466D01*
X174519398Y-97540000D01*
X174520000Y-97540000D01*
X174520000Y-98040000D01*
X174519398Y-98040000D01*
X174519398Y-98064534D01*
X174514588Y-98113365D01*
X174505016Y-98161490D01*
X174490772Y-98208445D01*
X174471995Y-98253778D01*
X174448864Y-98297051D01*
X174421604Y-98337850D01*
X174390476Y-98375779D01*
X174355779Y-98410476D01*
X174317850Y-98441604D01*
X174277051Y-98468864D01*
X174233778Y-98491995D01*
X174188445Y-98510772D01*
X174141490Y-98525016D01*
X174093365Y-98534588D01*
X174044534Y-98539398D01*
X174020000Y-98539398D01*
X174020000Y-98540000D01*
X173470000Y-98540000D01*
X173470000Y-97040000D01*
G37*
G04 #@! TD.AperFunction*
D35*
X172720000Y-97790000D03*
G04 #@! TA.AperFunction,SMDPad,CuDef*
D18*
G36*
X171420000Y-98539398D02*
G01*
X171395466Y-98539398D01*
X171346635Y-98534588D01*
X171298510Y-98525016D01*
X171251555Y-98510772D01*
X171206222Y-98491995D01*
X171162949Y-98468864D01*
X171122150Y-98441604D01*
X171084221Y-98410476D01*
X171049524Y-98375779D01*
X171018396Y-98337850D01*
X170991136Y-98297051D01*
X170968005Y-98253778D01*
X170949228Y-98208445D01*
X170934984Y-98161490D01*
X170925412Y-98113365D01*
X170920602Y-98064534D01*
X170920602Y-98040000D01*
X170920000Y-98040000D01*
X170920000Y-97540000D01*
X170920602Y-97540000D01*
X170920602Y-97515466D01*
X170925412Y-97466635D01*
X170934984Y-97418510D01*
X170949228Y-97371555D01*
X170968005Y-97326222D01*
X170991136Y-97282949D01*
X171018396Y-97242150D01*
X171049524Y-97204221D01*
X171084221Y-97169524D01*
X171122150Y-97138396D01*
X171162949Y-97111136D01*
X171206222Y-97088005D01*
X171251555Y-97069228D01*
X171298510Y-97054984D01*
X171346635Y-97045412D01*
X171395466Y-97040602D01*
X171420000Y-97040602D01*
X171420000Y-97040000D01*
X171970000Y-97040000D01*
X171970000Y-98540000D01*
X171420000Y-98540000D01*
X171420000Y-98539398D01*
G37*
G04 #@! TD.AperFunction*
G04 #@! TA.AperFunction,SMDPad,CuDef*
G36*
X173470000Y-93865000D02*
G01*
X174020000Y-93865000D01*
X174020000Y-93865602D01*
X174044534Y-93865602D01*
X174093365Y-93870412D01*
X174141490Y-93879984D01*
X174188445Y-93894228D01*
X174233778Y-93913005D01*
X174277051Y-93936136D01*
X174317850Y-93963396D01*
X174355779Y-93994524D01*
X174390476Y-94029221D01*
X174421604Y-94067150D01*
X174448864Y-94107949D01*
X174471995Y-94151222D01*
X174490772Y-94196555D01*
X174505016Y-94243510D01*
X174514588Y-94291635D01*
X174519398Y-94340466D01*
X174519398Y-94365000D01*
X174520000Y-94365000D01*
X174520000Y-94865000D01*
X174519398Y-94865000D01*
X174519398Y-94889534D01*
X174514588Y-94938365D01*
X174505016Y-94986490D01*
X174490772Y-95033445D01*
X174471995Y-95078778D01*
X174448864Y-95122051D01*
X174421604Y-95162850D01*
X174390476Y-95200779D01*
X174355779Y-95235476D01*
X174317850Y-95266604D01*
X174277051Y-95293864D01*
X174233778Y-95316995D01*
X174188445Y-95335772D01*
X174141490Y-95350016D01*
X174093365Y-95359588D01*
X174044534Y-95364398D01*
X174020000Y-95364398D01*
X174020000Y-95365000D01*
X173470000Y-95365000D01*
X173470000Y-93865000D01*
G37*
G04 #@! TD.AperFunction*
D35*
X172720000Y-94615000D03*
G04 #@! TA.AperFunction,SMDPad,CuDef*
D18*
G36*
X171420000Y-95364398D02*
G01*
X171395466Y-95364398D01*
X171346635Y-95359588D01*
X171298510Y-95350016D01*
X171251555Y-95335772D01*
X171206222Y-95316995D01*
X171162949Y-95293864D01*
X171122150Y-95266604D01*
X171084221Y-95235476D01*
X171049524Y-95200779D01*
X171018396Y-95162850D01*
X170991136Y-95122051D01*
X170968005Y-95078778D01*
X170949228Y-95033445D01*
X170934984Y-94986490D01*
X170925412Y-94938365D01*
X170920602Y-94889534D01*
X170920602Y-94865000D01*
X170920000Y-94865000D01*
X170920000Y-94365000D01*
X170920602Y-94365000D01*
X170920602Y-94340466D01*
X170925412Y-94291635D01*
X170934984Y-94243510D01*
X170949228Y-94196555D01*
X170968005Y-94151222D01*
X170991136Y-94107949D01*
X171018396Y-94067150D01*
X171049524Y-94029221D01*
X171084221Y-93994524D01*
X171122150Y-93963396D01*
X171162949Y-93936136D01*
X171206222Y-93913005D01*
X171251555Y-93894228D01*
X171298510Y-93879984D01*
X171346635Y-93870412D01*
X171395466Y-93865602D01*
X171420000Y-93865602D01*
X171420000Y-93865000D01*
X171970000Y-93865000D01*
X171970000Y-95365000D01*
X171420000Y-95365000D01*
X171420000Y-95364398D01*
G37*
G04 #@! TD.AperFunction*
G04 #@! TA.AperFunction,ComponentPad*
G36*
G01*
X157730705Y-190791622D02*
X157730705Y-190791622D01*
G75*
G02*
X157419583Y-189630500I425000J736122D01*
G01*
X157419583Y-189630500D01*
G75*
G02*
X158580705Y-189319378I736122J-425000D01*
G01*
X158580705Y-189319378D01*
G75*
G02*
X158891827Y-190480500I-425000J-736122D01*
G01*
X158891827Y-190480500D01*
G75*
G02*
X157730705Y-190791622I-736122J425000D01*
G01*
G37*
G04 #@! TD.AperFunction*
G04 #@! TA.AperFunction,ComponentPad*
G36*
G01*
X155531000Y-189521622D02*
X155531000Y-189521622D01*
G75*
G02*
X155219878Y-188360500I425000J736122D01*
G01*
X155219878Y-188360500D01*
G75*
G02*
X156381000Y-188049378I736122J-425000D01*
G01*
X156381000Y-188049378D01*
G75*
G02*
X156692122Y-189210500I-425000J-736122D01*
G01*
X156692122Y-189210500D01*
G75*
G02*
X155531000Y-189521622I-736122J425000D01*
G01*
G37*
G04 #@! TD.AperFunction*
G04 #@! TA.AperFunction,ComponentPad*
G36*
G01*
X153331296Y-188251622D02*
X153331296Y-188251622D01*
G75*
G02*
X153020174Y-187090500I425000J736122D01*
G01*
X153020174Y-187090500D01*
G75*
G02*
X154181296Y-186779378I736122J-425000D01*
G01*
X154181296Y-186779378D01*
G75*
G02*
X154492418Y-187940500I-425000J-736122D01*
G01*
X154492418Y-187940500D01*
G75*
G02*
X153331296Y-188251622I-736122J425000D01*
G01*
G37*
G04 #@! TD.AperFunction*
G04 #@! TA.AperFunction,ComponentPad*
D36*
G36*
X151867713Y-187406622D02*
G01*
X150395469Y-186556622D01*
X151245469Y-185084378D01*
X152717713Y-185934378D01*
X151867713Y-187406622D01*
G37*
G04 #@! TD.AperFunction*
G04 #@! TA.AperFunction,ComponentPad*
G36*
G01*
X170040907Y-194604338D02*
X170040907Y-194604338D01*
G75*
G02*
X169439866Y-193563305I219996J821037D01*
G01*
X169439866Y-193563305D01*
G75*
G02*
X170480899Y-192962264I821037J-219996D01*
G01*
X170480899Y-192962264D01*
G75*
G02*
X171081940Y-194003297I-219996J-821037D01*
G01*
X171081940Y-194003297D01*
G75*
G02*
X170040907Y-194604338I-821037J219996D01*
G01*
G37*
G04 #@! TD.AperFunction*
G04 #@! TA.AperFunction,ComponentPad*
G36*
G01*
X167587455Y-193946938D02*
X167587455Y-193946938D01*
G75*
G02*
X166986414Y-192905905I219996J821037D01*
G01*
X166986414Y-192905905D01*
G75*
G02*
X168027447Y-192304864I821037J-219996D01*
G01*
X168027447Y-192304864D01*
G75*
G02*
X168628488Y-193345897I-219996J-821037D01*
G01*
X168628488Y-193345897D01*
G75*
G02*
X167587455Y-193946938I-821037J219996D01*
G01*
G37*
G04 #@! TD.AperFunction*
G04 #@! TA.AperFunction,ComponentPad*
G36*
G01*
X165134004Y-193289537D02*
X165134004Y-193289537D01*
G75*
G02*
X164532963Y-192248504I219996J821037D01*
G01*
X164532963Y-192248504D01*
G75*
G02*
X165573996Y-191647463I821037J-219996D01*
G01*
X165573996Y-191647463D01*
G75*
G02*
X166175037Y-192688496I-219996J-821037D01*
G01*
X166175037Y-192688496D01*
G75*
G02*
X165134004Y-193289537I-821037J219996D01*
G01*
G37*
G04 #@! TD.AperFunction*
G04 #@! TA.AperFunction,ComponentPad*
G36*
X163501589Y-192852133D02*
G01*
X161859515Y-192412141D01*
X162299507Y-190770067D01*
X163941581Y-191210059D01*
X163501589Y-192852133D01*
G37*
G04 #@! TD.AperFunction*
G04 #@! TA.AperFunction,ComponentPad*
G36*
G01*
X233538764Y-132507899D02*
X233538764Y-132507899D01*
G75*
G02*
X234139805Y-131466866I821037J219996D01*
G01*
X234139805Y-131466866D01*
G75*
G02*
X235180838Y-132067907I219996J-821037D01*
G01*
X235180838Y-132067907D01*
G75*
G02*
X234579797Y-133108940I-821037J-219996D01*
G01*
X234579797Y-133108940D01*
G75*
G02*
X233538764Y-132507899I-219996J821037D01*
G01*
G37*
G04 #@! TD.AperFunction*
G04 #@! TA.AperFunction,ComponentPad*
G36*
G01*
X232881364Y-130054447D02*
X232881364Y-130054447D01*
G75*
G02*
X233482405Y-129013414I821037J219996D01*
G01*
X233482405Y-129013414D01*
G75*
G02*
X234523438Y-129614455I219996J-821037D01*
G01*
X234523438Y-129614455D01*
G75*
G02*
X233922397Y-130655488I-821037J-219996D01*
G01*
X233922397Y-130655488D01*
G75*
G02*
X232881364Y-130054447I-219996J821037D01*
G01*
G37*
G04 #@! TD.AperFunction*
G04 #@! TA.AperFunction,ComponentPad*
G36*
G01*
X232223963Y-127600996D02*
X232223963Y-127600996D01*
G75*
G02*
X232825004Y-126559963I821037J219996D01*
G01*
X232825004Y-126559963D01*
G75*
G02*
X233866037Y-127161004I219996J-821037D01*
G01*
X233866037Y-127161004D01*
G75*
G02*
X233264996Y-128202037I-821037J-219996D01*
G01*
X233264996Y-128202037D01*
G75*
G02*
X232223963Y-127600996I-219996J821037D01*
G01*
G37*
G04 #@! TD.AperFunction*
G04 #@! TA.AperFunction,ComponentPad*
G36*
X231786559Y-125968581D02*
G01*
X231346567Y-124326507D01*
X232988641Y-123886515D01*
X233428633Y-125528589D01*
X231786559Y-125968581D01*
G37*
G04 #@! TD.AperFunction*
G04 #@! TA.AperFunction,ComponentPad*
G36*
G01*
X195154636Y-195322488D02*
X195154636Y-195322488D01*
G75*
G02*
X194169948Y-194633002I-147601J837087D01*
G01*
X194169948Y-194633002D01*
G75*
G02*
X194859434Y-193648314I837087J147601D01*
G01*
X194859434Y-193648314D01*
G75*
G02*
X195844122Y-194337800I147601J-837087D01*
G01*
X195844122Y-194337800D01*
G75*
G02*
X195154636Y-195322488I-837087J-147601D01*
G01*
G37*
G04 #@! TD.AperFunction*
G04 #@! TA.AperFunction,ComponentPad*
G36*
G01*
X192653224Y-195763554D02*
X192653224Y-195763554D01*
G75*
G02*
X191668536Y-195074068I-147601J837087D01*
G01*
X191668536Y-195074068D01*
G75*
G02*
X192358022Y-194089380I837087J147601D01*
G01*
X192358022Y-194089380D01*
G75*
G02*
X193342710Y-194778866I147601J-837087D01*
G01*
X193342710Y-194778866D01*
G75*
G02*
X192653224Y-195763554I-837087J-147601D01*
G01*
G37*
G04 #@! TD.AperFunction*
G04 #@! TA.AperFunction,ComponentPad*
G36*
G01*
X190151813Y-196204621D02*
X190151813Y-196204621D01*
G75*
G02*
X189167125Y-195515135I-147601J837087D01*
G01*
X189167125Y-195515135D01*
G75*
G02*
X189856611Y-194530447I837087J147601D01*
G01*
X189856611Y-194530447D01*
G75*
G02*
X190841299Y-195219933I147601J-837087D01*
G01*
X190841299Y-195219933D01*
G75*
G02*
X190151813Y-196204621I-837087J-147601D01*
G01*
G37*
G04 #@! TD.AperFunction*
G04 #@! TA.AperFunction,ComponentPad*
G36*
X188487488Y-196498086D02*
G01*
X186813314Y-196793288D01*
X186518112Y-195119114D01*
X188192286Y-194823912D01*
X188487488Y-196498086D01*
G37*
G04 #@! TD.AperFunction*
G04 #@! TA.AperFunction,ComponentPad*
G36*
G01*
X208299647Y-190044512D02*
X208299647Y-190044512D01*
G75*
G02*
X207170059Y-189633376I-359226J770362D01*
G01*
X207170059Y-189633376D01*
G75*
G02*
X207581195Y-188503788I770362J359226D01*
G01*
X207581195Y-188503788D01*
G75*
G02*
X208710783Y-188914924I359226J-770362D01*
G01*
X208710783Y-188914924D01*
G75*
G02*
X208299647Y-190044512I-770362J-359226D01*
G01*
G37*
G04 #@! TD.AperFunction*
G04 #@! TA.AperFunction,ComponentPad*
G36*
G01*
X205997626Y-191117962D02*
X205997626Y-191117962D01*
G75*
G02*
X204868038Y-190706826I-359226J770362D01*
G01*
X204868038Y-190706826D01*
G75*
G02*
X205279174Y-189577238I770362J359226D01*
G01*
X205279174Y-189577238D01*
G75*
G02*
X206408762Y-189988374I359226J-770362D01*
G01*
X206408762Y-189988374D01*
G75*
G02*
X205997626Y-191117962I-770362J-359226D01*
G01*
G37*
G04 #@! TD.AperFunction*
G04 #@! TA.AperFunction,ComponentPad*
G36*
G01*
X203695604Y-192191413D02*
X203695604Y-192191413D01*
G75*
G02*
X202566016Y-191780277I-359226J770362D01*
G01*
X202566016Y-191780277D01*
G75*
G02*
X202977152Y-190650689I770362J359226D01*
G01*
X202977152Y-190650689D01*
G75*
G02*
X204106740Y-191061825I359226J-770362D01*
G01*
X204106740Y-191061825D01*
G75*
G02*
X203695604Y-192191413I-770362J-359226D01*
G01*
G37*
G04 #@! TD.AperFunction*
G04 #@! TA.AperFunction,ComponentPad*
G36*
X202163943Y-192905637D02*
G01*
X200623220Y-193624088D01*
X199904769Y-192083365D01*
X201445492Y-191364914D01*
X202163943Y-192905637D01*
G37*
G04 #@! TD.AperFunction*
G04 #@! TA.AperFunction,ComponentPad*
G36*
G01*
X228404146Y-164812257D02*
X228404146Y-164812257D01*
G75*
G02*
X229493602Y-164304235I798739J-290717D01*
G01*
X229493602Y-164304235D01*
G75*
G02*
X230001624Y-165393691I-290717J-798739D01*
G01*
X230001624Y-165393691D01*
G75*
G02*
X228912168Y-165901713I-798739J290717D01*
G01*
X228912168Y-165901713D01*
G75*
G02*
X228404146Y-164812257I290717J798739D01*
G01*
G37*
G04 #@! TD.AperFunction*
G04 #@! TA.AperFunction,ComponentPad*
G36*
G01*
X229272877Y-162425438D02*
X229272877Y-162425438D01*
G75*
G02*
X230362333Y-161917416I798739J-290717D01*
G01*
X230362333Y-161917416D01*
G75*
G02*
X230870355Y-163006872I-290717J-798739D01*
G01*
X230870355Y-163006872D01*
G75*
G02*
X229780899Y-163514894I-798739J290717D01*
G01*
X229780899Y-163514894D01*
G75*
G02*
X229272877Y-162425438I290717J798739D01*
G01*
G37*
G04 #@! TD.AperFunction*
G04 #@! TA.AperFunction,ComponentPad*
G36*
G01*
X230141609Y-160038619D02*
X230141609Y-160038619D01*
G75*
G02*
X231231065Y-159530597I798739J-290717D01*
G01*
X231231065Y-159530597D01*
G75*
G02*
X231739087Y-160620053I-290717J-798739D01*
G01*
X231739087Y-160620053D01*
G75*
G02*
X230649631Y-161128075I-798739J290717D01*
G01*
X230649631Y-161128075D01*
G75*
G02*
X230141609Y-160038619I290717J798739D01*
G01*
G37*
G04 #@! TD.AperFunction*
G04 #@! TA.AperFunction,ComponentPad*
G36*
G01*
X231010340Y-157651800D02*
X231010340Y-157651800D01*
G75*
G02*
X232099796Y-157143778I798739J-290717D01*
G01*
X232099796Y-157143778D01*
G75*
G02*
X232607818Y-158233234I-290717J-798739D01*
G01*
X232607818Y-158233234D01*
G75*
G02*
X231518362Y-158741256I-798739J290717D01*
G01*
X231518362Y-158741256D01*
G75*
G02*
X231010340Y-157651800I290717J798739D01*
G01*
G37*
G04 #@! TD.AperFunction*
G04 #@! TA.AperFunction,ComponentPad*
G36*
G01*
X231879071Y-155264980D02*
X231879071Y-155264980D01*
G75*
G02*
X232968527Y-154756958I798739J-290717D01*
G01*
X232968527Y-154756958D01*
G75*
G02*
X233476549Y-155846414I-290717J-798739D01*
G01*
X233476549Y-155846414D01*
G75*
G02*
X232387093Y-156354436I-798739J290717D01*
G01*
X232387093Y-156354436D01*
G75*
G02*
X231879071Y-155264980I290717J798739D01*
G01*
G37*
G04 #@! TD.AperFunction*
G04 #@! TA.AperFunction,ComponentPad*
G36*
X232457085Y-153676900D02*
G01*
X233038519Y-152079422D01*
X234635997Y-152660856D01*
X234054563Y-154258334D01*
X232457085Y-153676900D01*
G37*
G04 #@! TD.AperFunction*
G04 #@! TA.AperFunction,ComponentPad*
G36*
G01*
X214904836Y-99402754D02*
X214904836Y-99402754D01*
G75*
G02*
X214904836Y-100604836I-601041J-601041D01*
G01*
X214904836Y-100604836D01*
G75*
G02*
X213702754Y-100604836I-601041J601041D01*
G01*
X213702754Y-100604836D01*
G75*
G02*
X213702754Y-99402754I601041J601041D01*
G01*
X213702754Y-99402754D01*
G75*
G02*
X214904836Y-99402754I601041J-601041D01*
G01*
G37*
G04 #@! TD.AperFunction*
G04 #@! TA.AperFunction,ComponentPad*
G36*
G01*
X216700887Y-101198805D02*
X216700887Y-101198805D01*
G75*
G02*
X216700887Y-102400887I-601041J-601041D01*
G01*
X216700887Y-102400887D01*
G75*
G02*
X215498805Y-102400887I-601041J601041D01*
G01*
X215498805Y-102400887D01*
G75*
G02*
X215498805Y-101198805I601041J601041D01*
G01*
X215498805Y-101198805D01*
G75*
G02*
X216700887Y-101198805I601041J-601041D01*
G01*
G37*
G04 #@! TD.AperFunction*
G04 #@! TA.AperFunction,ComponentPad*
G36*
G01*
X218496939Y-102994857D02*
X218496939Y-102994857D01*
G75*
G02*
X218496939Y-104196939I-601041J-601041D01*
G01*
X218496939Y-104196939D01*
G75*
G02*
X217294857Y-104196939I-601041J601041D01*
G01*
X217294857Y-104196939D01*
G75*
G02*
X217294857Y-102994857I601041J601041D01*
G01*
X217294857Y-102994857D01*
G75*
G02*
X218496939Y-102994857I601041J-601041D01*
G01*
G37*
G04 #@! TD.AperFunction*
G04 #@! TA.AperFunction,ComponentPad*
G36*
G01*
X220292990Y-104790908D02*
X220292990Y-104790908D01*
G75*
G02*
X220292990Y-105992990I-601041J-601041D01*
G01*
X220292990Y-105992990D01*
G75*
G02*
X219090908Y-105992990I-601041J601041D01*
G01*
X219090908Y-105992990D01*
G75*
G02*
X219090908Y-104790908I601041J601041D01*
G01*
X219090908Y-104790908D01*
G75*
G02*
X220292990Y-104790908I601041J-601041D01*
G01*
G37*
G04 #@! TD.AperFunction*
G04 #@! TA.AperFunction,ComponentPad*
G36*
X221488000Y-105985918D02*
G01*
X222690082Y-107188000D01*
X221488000Y-108390082D01*
X220285918Y-107188000D01*
X221488000Y-105985918D01*
G37*
G04 #@! TD.AperFunction*
D32*
X159918400Y-147370800D03*
X161918400Y-148320800D03*
X161918400Y-146420800D03*
X137785600Y-148539200D03*
X139785600Y-149489200D03*
X139785600Y-147589200D03*
G04 #@! TA.AperFunction,SMDPad,CuDef*
G36*
G01*
X234563500Y-150554500D02*
X234563500Y-150054500D01*
G75*
G02*
X234788500Y-149829500I225000J0D01*
G01*
X235238500Y-149829500D01*
G75*
G02*
X235463500Y-150054500I0J-225000D01*
G01*
X235463500Y-150554500D01*
G75*
G02*
X235238500Y-150779500I-225000J0D01*
G01*
X234788500Y-150779500D01*
G75*
G02*
X234563500Y-150554500I0J225000D01*
G01*
G37*
G04 #@! TD.AperFunction*
G04 #@! TA.AperFunction,SMDPad,CuDef*
G36*
G01*
X233013500Y-150554500D02*
X233013500Y-150054500D01*
G75*
G02*
X233238500Y-149829500I225000J0D01*
G01*
X233688500Y-149829500D01*
G75*
G02*
X233913500Y-150054500I0J-225000D01*
G01*
X233913500Y-150554500D01*
G75*
G02*
X233688500Y-150779500I-225000J0D01*
G01*
X233238500Y-150779500D01*
G75*
G02*
X233013500Y-150554500I0J225000D01*
G01*
G37*
G04 #@! TD.AperFunction*
G04 #@! TA.AperFunction,SMDPad,CuDef*
G36*
G01*
X137637500Y-123576500D02*
X138587500Y-123576500D01*
G75*
G02*
X138837500Y-123826500I0J-250000D01*
G01*
X138837500Y-124326500D01*
G75*
G02*
X138587500Y-124576500I-250000J0D01*
G01*
X137637500Y-124576500D01*
G75*
G02*
X137387500Y-124326500I0J250000D01*
G01*
X137387500Y-123826500D01*
G75*
G02*
X137637500Y-123576500I250000J0D01*
G01*
G37*
G04 #@! TD.AperFunction*
G04 #@! TA.AperFunction,SMDPad,CuDef*
G36*
G01*
X137637500Y-121676500D02*
X138587500Y-121676500D01*
G75*
G02*
X138837500Y-121926500I0J-250000D01*
G01*
X138837500Y-122426500D01*
G75*
G02*
X138587500Y-122676500I-250000J0D01*
G01*
X137637500Y-122676500D01*
G75*
G02*
X137387500Y-122426500I0J250000D01*
G01*
X137387500Y-121926500D01*
G75*
G02*
X137637500Y-121676500I250000J0D01*
G01*
G37*
G04 #@! TD.AperFunction*
G04 #@! TA.AperFunction,SMDPad,CuDef*
G36*
G01*
X136018362Y-114554188D02*
X135195638Y-114079188D01*
G75*
G02*
X135104132Y-113737682I125000J216506D01*
G01*
X135354132Y-113304670D01*
G75*
G02*
X135695638Y-113213164I216506J-125000D01*
G01*
X136518362Y-113688164D01*
G75*
G02*
X136609868Y-114029670I-125000J-216506D01*
G01*
X136359868Y-114462682D01*
G75*
G02*
X136018362Y-114554188I-216506J125000D01*
G01*
G37*
G04 #@! TD.AperFunction*
G04 #@! TA.AperFunction,SMDPad,CuDef*
G36*
G01*
X135068362Y-116199636D02*
X134245638Y-115724636D01*
G75*
G02*
X134154132Y-115383130I125000J216506D01*
G01*
X134404132Y-114950118D01*
G75*
G02*
X134745638Y-114858612I216506J-125000D01*
G01*
X135568362Y-115333612D01*
G75*
G02*
X135659868Y-115675118I-125000J-216506D01*
G01*
X135409868Y-116108130D01*
G75*
G02*
X135068362Y-116199636I-216506J125000D01*
G01*
G37*
G04 #@! TD.AperFunction*
G04 #@! TA.AperFunction,SMDPad,CuDef*
G36*
G01*
X145346000Y-153322000D02*
X145346000Y-154272000D01*
G75*
G02*
X145096000Y-154522000I-250000J0D01*
G01*
X144596000Y-154522000D01*
G75*
G02*
X144346000Y-154272000I0J250000D01*
G01*
X144346000Y-153322000D01*
G75*
G02*
X144596000Y-153072000I250000J0D01*
G01*
X145096000Y-153072000D01*
G75*
G02*
X145346000Y-153322000I0J-250000D01*
G01*
G37*
G04 #@! TD.AperFunction*
G04 #@! TA.AperFunction,SMDPad,CuDef*
G36*
G01*
X147246000Y-153322000D02*
X147246000Y-154272000D01*
G75*
G02*
X146996000Y-154522000I-250000J0D01*
G01*
X146496000Y-154522000D01*
G75*
G02*
X146246000Y-154272000I0J250000D01*
G01*
X146246000Y-153322000D01*
G75*
G02*
X146496000Y-153072000I250000J0D01*
G01*
X146996000Y-153072000D01*
G75*
G02*
X147246000Y-153322000I0J-250000D01*
G01*
G37*
G04 #@! TD.AperFunction*
G04 #@! TA.AperFunction,SMDPad,CuDef*
G36*
G01*
X151580000Y-156431000D02*
X151580000Y-155481000D01*
G75*
G02*
X151830000Y-155231000I250000J0D01*
G01*
X152330000Y-155231000D01*
G75*
G02*
X152580000Y-155481000I0J-250000D01*
G01*
X152580000Y-156431000D01*
G75*
G02*
X152330000Y-156681000I-250000J0D01*
G01*
X151830000Y-156681000D01*
G75*
G02*
X151580000Y-156431000I0J250000D01*
G01*
G37*
G04 #@! TD.AperFunction*
G04 #@! TA.AperFunction,SMDPad,CuDef*
G36*
G01*
X149680000Y-156431000D02*
X149680000Y-155481000D01*
G75*
G02*
X149930000Y-155231000I250000J0D01*
G01*
X150430000Y-155231000D01*
G75*
G02*
X150680000Y-155481000I0J-250000D01*
G01*
X150680000Y-156431000D01*
G75*
G02*
X150430000Y-156681000I-250000J0D01*
G01*
X149930000Y-156681000D01*
G75*
G02*
X149680000Y-156431000I0J250000D01*
G01*
G37*
G04 #@! TD.AperFunction*
G04 #@! TA.AperFunction,SMDPad,CuDef*
G36*
G01*
X216781500Y-137608500D02*
X216781500Y-138108500D01*
G75*
G02*
X216556500Y-138333500I-225000J0D01*
G01*
X216106500Y-138333500D01*
G75*
G02*
X215881500Y-138108500I0J225000D01*
G01*
X215881500Y-137608500D01*
G75*
G02*
X216106500Y-137383500I225000J0D01*
G01*
X216556500Y-137383500D01*
G75*
G02*
X216781500Y-137608500I0J-225000D01*
G01*
G37*
G04 #@! TD.AperFunction*
G04 #@! TA.AperFunction,SMDPad,CuDef*
G36*
G01*
X218331500Y-137608500D02*
X218331500Y-138108500D01*
G75*
G02*
X218106500Y-138333500I-225000J0D01*
G01*
X217656500Y-138333500D01*
G75*
G02*
X217431500Y-138108500I0J225000D01*
G01*
X217431500Y-137608500D01*
G75*
G02*
X217656500Y-137383500I225000J0D01*
G01*
X218106500Y-137383500D01*
G75*
G02*
X218331500Y-137608500I0J-225000D01*
G01*
G37*
G04 #@! TD.AperFunction*
G04 #@! TA.AperFunction,SMDPad,CuDef*
G36*
G01*
X215905500Y-142879000D02*
X215905500Y-143379000D01*
G75*
G02*
X215680500Y-143604000I-225000J0D01*
G01*
X215230500Y-143604000D01*
G75*
G02*
X215005500Y-143379000I0J225000D01*
G01*
X215005500Y-142879000D01*
G75*
G02*
X215230500Y-142654000I225000J0D01*
G01*
X215680500Y-142654000D01*
G75*
G02*
X215905500Y-142879000I0J-225000D01*
G01*
G37*
G04 #@! TD.AperFunction*
G04 #@! TA.AperFunction,SMDPad,CuDef*
G36*
G01*
X217455500Y-142879000D02*
X217455500Y-143379000D01*
G75*
G02*
X217230500Y-143604000I-225000J0D01*
G01*
X216780500Y-143604000D01*
G75*
G02*
X216555500Y-143379000I0J225000D01*
G01*
X216555500Y-142879000D01*
G75*
G02*
X216780500Y-142654000I225000J0D01*
G01*
X217230500Y-142654000D01*
G75*
G02*
X217455500Y-142879000I0J-225000D01*
G01*
G37*
G04 #@! TD.AperFunction*
G04 #@! TA.AperFunction,SMDPad,CuDef*
G36*
G01*
X226063579Y-164082117D02*
X227013579Y-164082117D01*
G75*
G02*
X227263579Y-164332117I0J-250000D01*
G01*
X227263579Y-164832117D01*
G75*
G02*
X227013579Y-165082117I-250000J0D01*
G01*
X226063579Y-165082117D01*
G75*
G02*
X225813579Y-164832117I0J250000D01*
G01*
X225813579Y-164332117D01*
G75*
G02*
X226063579Y-164082117I250000J0D01*
G01*
G37*
G04 #@! TD.AperFunction*
G04 #@! TA.AperFunction,SMDPad,CuDef*
G36*
G01*
X226063579Y-162182117D02*
X227013579Y-162182117D01*
G75*
G02*
X227263579Y-162432117I0J-250000D01*
G01*
X227263579Y-162932117D01*
G75*
G02*
X227013579Y-163182117I-250000J0D01*
G01*
X226063579Y-163182117D01*
G75*
G02*
X225813579Y-162932117I0J250000D01*
G01*
X225813579Y-162432117D01*
G75*
G02*
X226063579Y-162182117I250000J0D01*
G01*
G37*
G04 #@! TD.AperFunction*
G04 #@! TA.AperFunction,SMDPad,CuDef*
G36*
G01*
X165362000Y-156634200D02*
X165362000Y-155684200D01*
G75*
G02*
X165612000Y-155434200I250000J0D01*
G01*
X166112000Y-155434200D01*
G75*
G02*
X166362000Y-155684200I0J-250000D01*
G01*
X166362000Y-156634200D01*
G75*
G02*
X166112000Y-156884200I-250000J0D01*
G01*
X165612000Y-156884200D01*
G75*
G02*
X165362000Y-156634200I0J250000D01*
G01*
G37*
G04 #@! TD.AperFunction*
G04 #@! TA.AperFunction,SMDPad,CuDef*
G36*
G01*
X163462000Y-156634200D02*
X163462000Y-155684200D01*
G75*
G02*
X163712000Y-155434200I250000J0D01*
G01*
X164212000Y-155434200D01*
G75*
G02*
X164462000Y-155684200I0J-250000D01*
G01*
X164462000Y-156634200D01*
G75*
G02*
X164212000Y-156884200I-250000J0D01*
G01*
X163712000Y-156884200D01*
G75*
G02*
X163462000Y-156634200I0J250000D01*
G01*
G37*
G04 #@! TD.AperFunction*
G04 #@! TA.AperFunction,SMDPad,CuDef*
G36*
G01*
X157309800Y-156594000D02*
X158259800Y-156594000D01*
G75*
G02*
X158509800Y-156844000I0J-250000D01*
G01*
X158509800Y-157344000D01*
G75*
G02*
X158259800Y-157594000I-250000J0D01*
G01*
X157309800Y-157594000D01*
G75*
G02*
X157059800Y-157344000I0J250000D01*
G01*
X157059800Y-156844000D01*
G75*
G02*
X157309800Y-156594000I250000J0D01*
G01*
G37*
G04 #@! TD.AperFunction*
G04 #@! TA.AperFunction,SMDPad,CuDef*
G36*
G01*
X157309800Y-154694000D02*
X158259800Y-154694000D01*
G75*
G02*
X158509800Y-154944000I0J-250000D01*
G01*
X158509800Y-155444000D01*
G75*
G02*
X158259800Y-155694000I-250000J0D01*
G01*
X157309800Y-155694000D01*
G75*
G02*
X157059800Y-155444000I0J250000D01*
G01*
X157059800Y-154944000D01*
G75*
G02*
X157309800Y-154694000I250000J0D01*
G01*
G37*
G04 #@! TD.AperFunction*
G04 #@! TA.AperFunction,SMDPad,CuDef*
G36*
G01*
X166032200Y-152595200D02*
X165082200Y-152595200D01*
G75*
G02*
X164832200Y-152345200I0J250000D01*
G01*
X164832200Y-151845200D01*
G75*
G02*
X165082200Y-151595200I250000J0D01*
G01*
X166032200Y-151595200D01*
G75*
G02*
X166282200Y-151845200I0J-250000D01*
G01*
X166282200Y-152345200D01*
G75*
G02*
X166032200Y-152595200I-250000J0D01*
G01*
G37*
G04 #@! TD.AperFunction*
G04 #@! TA.AperFunction,SMDPad,CuDef*
G36*
G01*
X166032200Y-154495200D02*
X165082200Y-154495200D01*
G75*
G02*
X164832200Y-154245200I0J250000D01*
G01*
X164832200Y-153745200D01*
G75*
G02*
X165082200Y-153495200I250000J0D01*
G01*
X166032200Y-153495200D01*
G75*
G02*
X166282200Y-153745200I0J-250000D01*
G01*
X166282200Y-154245200D01*
G75*
G02*
X166032200Y-154495200I-250000J0D01*
G01*
G37*
G04 #@! TD.AperFunction*
G04 #@! TA.AperFunction,SMDPad,CuDef*
G36*
G01*
X161755200Y-156634200D02*
X161755200Y-155684200D01*
G75*
G02*
X162005200Y-155434200I250000J0D01*
G01*
X162505200Y-155434200D01*
G75*
G02*
X162755200Y-155684200I0J-250000D01*
G01*
X162755200Y-156634200D01*
G75*
G02*
X162505200Y-156884200I-250000J0D01*
G01*
X162005200Y-156884200D01*
G75*
G02*
X161755200Y-156634200I0J250000D01*
G01*
G37*
G04 #@! TD.AperFunction*
G04 #@! TA.AperFunction,SMDPad,CuDef*
G36*
G01*
X159855200Y-156634200D02*
X159855200Y-155684200D01*
G75*
G02*
X160105200Y-155434200I250000J0D01*
G01*
X160605200Y-155434200D01*
G75*
G02*
X160855200Y-155684200I0J-250000D01*
G01*
X160855200Y-156634200D01*
G75*
G02*
X160605200Y-156884200I-250000J0D01*
G01*
X160105200Y-156884200D01*
G75*
G02*
X159855200Y-156634200I0J250000D01*
G01*
G37*
G04 #@! TD.AperFunction*
G04 #@! TA.AperFunction,SMDPad,CuDef*
G36*
G01*
X156278600Y-152712000D02*
X155328600Y-152712000D01*
G75*
G02*
X155078600Y-152462000I0J250000D01*
G01*
X155078600Y-151962000D01*
G75*
G02*
X155328600Y-151712000I250000J0D01*
G01*
X156278600Y-151712000D01*
G75*
G02*
X156528600Y-151962000I0J-250000D01*
G01*
X156528600Y-152462000D01*
G75*
G02*
X156278600Y-152712000I-250000J0D01*
G01*
G37*
G04 #@! TD.AperFunction*
G04 #@! TA.AperFunction,SMDPad,CuDef*
G36*
G01*
X156278600Y-154612000D02*
X155328600Y-154612000D01*
G75*
G02*
X155078600Y-154362000I0J250000D01*
G01*
X155078600Y-153862000D01*
G75*
G02*
X155328600Y-153612000I250000J0D01*
G01*
X156278600Y-153612000D01*
G75*
G02*
X156528600Y-153862000I0J-250000D01*
G01*
X156528600Y-154362000D01*
G75*
G02*
X156278600Y-154612000I-250000J0D01*
G01*
G37*
G04 #@! TD.AperFunction*
G04 #@! TA.AperFunction,SMDPad,CuDef*
G36*
G01*
X164076400Y-170253200D02*
X163126400Y-170253200D01*
G75*
G02*
X162876400Y-170003200I0J250000D01*
G01*
X162876400Y-169503200D01*
G75*
G02*
X163126400Y-169253200I250000J0D01*
G01*
X164076400Y-169253200D01*
G75*
G02*
X164326400Y-169503200I0J-250000D01*
G01*
X164326400Y-170003200D01*
G75*
G02*
X164076400Y-170253200I-250000J0D01*
G01*
G37*
G04 #@! TD.AperFunction*
G04 #@! TA.AperFunction,SMDPad,CuDef*
G36*
G01*
X164076400Y-172153200D02*
X163126400Y-172153200D01*
G75*
G02*
X162876400Y-171903200I0J250000D01*
G01*
X162876400Y-171403200D01*
G75*
G02*
X163126400Y-171153200I250000J0D01*
G01*
X164076400Y-171153200D01*
G75*
G02*
X164326400Y-171403200I0J-250000D01*
G01*
X164326400Y-171903200D01*
G75*
G02*
X164076400Y-172153200I-250000J0D01*
G01*
G37*
G04 #@! TD.AperFunction*
G04 #@! TA.AperFunction,SMDPad,CuDef*
G36*
G01*
X162593000Y-174694000D02*
X163543000Y-174694000D01*
G75*
G02*
X163793000Y-174944000I0J-250000D01*
G01*
X163793000Y-175444000D01*
G75*
G02*
X163543000Y-175694000I-250000J0D01*
G01*
X162593000Y-175694000D01*
G75*
G02*
X162343000Y-175444000I0J250000D01*
G01*
X162343000Y-174944000D01*
G75*
G02*
X162593000Y-174694000I250000J0D01*
G01*
G37*
G04 #@! TD.AperFunction*
G04 #@! TA.AperFunction,SMDPad,CuDef*
G36*
G01*
X162593000Y-172794000D02*
X163543000Y-172794000D01*
G75*
G02*
X163793000Y-173044000I0J-250000D01*
G01*
X163793000Y-173544000D01*
G75*
G02*
X163543000Y-173794000I-250000J0D01*
G01*
X162593000Y-173794000D01*
G75*
G02*
X162343000Y-173544000I0J250000D01*
G01*
X162343000Y-173044000D01*
G75*
G02*
X162593000Y-172794000I250000J0D01*
G01*
G37*
G04 #@! TD.AperFunction*
G04 #@! TA.AperFunction,SMDPad,CuDef*
G36*
G01*
X200542700Y-187751700D02*
X200542700Y-188701700D01*
G75*
G02*
X200292700Y-188951700I-250000J0D01*
G01*
X199792700Y-188951700D01*
G75*
G02*
X199542700Y-188701700I0J250000D01*
G01*
X199542700Y-187751700D01*
G75*
G02*
X199792700Y-187501700I250000J0D01*
G01*
X200292700Y-187501700D01*
G75*
G02*
X200542700Y-187751700I0J-250000D01*
G01*
G37*
G04 #@! TD.AperFunction*
G04 #@! TA.AperFunction,SMDPad,CuDef*
G36*
G01*
X202442700Y-187751700D02*
X202442700Y-188701700D01*
G75*
G02*
X202192700Y-188951700I-250000J0D01*
G01*
X201692700Y-188951700D01*
G75*
G02*
X201442700Y-188701700I0J250000D01*
G01*
X201442700Y-187751700D01*
G75*
G02*
X201692700Y-187501700I250000J0D01*
G01*
X202192700Y-187501700D01*
G75*
G02*
X202442700Y-187751700I0J-250000D01*
G01*
G37*
G04 #@! TD.AperFunction*
G04 #@! TA.AperFunction,SMDPad,CuDef*
G36*
G01*
X214415579Y-180388517D02*
X214415579Y-179438517D01*
G75*
G02*
X214665579Y-179188517I250000J0D01*
G01*
X215165579Y-179188517D01*
G75*
G02*
X215415579Y-179438517I0J-250000D01*
G01*
X215415579Y-180388517D01*
G75*
G02*
X215165579Y-180638517I-250000J0D01*
G01*
X214665579Y-180638517D01*
G75*
G02*
X214415579Y-180388517I0J250000D01*
G01*
G37*
G04 #@! TD.AperFunction*
G04 #@! TA.AperFunction,SMDPad,CuDef*
G36*
G01*
X212515579Y-180388517D02*
X212515579Y-179438517D01*
G75*
G02*
X212765579Y-179188517I250000J0D01*
G01*
X213265579Y-179188517D01*
G75*
G02*
X213515579Y-179438517I0J-250000D01*
G01*
X213515579Y-180388517D01*
G75*
G02*
X213265579Y-180638517I-250000J0D01*
G01*
X212765579Y-180638517D01*
G75*
G02*
X212515579Y-180388517I0J250000D01*
G01*
G37*
G04 #@! TD.AperFunction*
G04 #@! TA.AperFunction,SMDPad,CuDef*
G36*
G01*
X206642578Y-183783517D02*
X208842580Y-183783517D01*
G75*
G02*
X209092579Y-184033516I0J-249999D01*
G01*
X209092579Y-184683518D01*
G75*
G02*
X208842580Y-184933517I-249999J0D01*
G01*
X206642578Y-184933517D01*
G75*
G02*
X206392579Y-184683518I0J249999D01*
G01*
X206392579Y-184033516D01*
G75*
G02*
X206642578Y-183783517I249999J0D01*
G01*
G37*
G04 #@! TD.AperFunction*
G04 #@! TA.AperFunction,SMDPad,CuDef*
G36*
G01*
X206642578Y-180833517D02*
X208842580Y-180833517D01*
G75*
G02*
X209092579Y-181083516I0J-249999D01*
G01*
X209092579Y-181733518D01*
G75*
G02*
X208842580Y-181983517I-249999J0D01*
G01*
X206642578Y-181983517D01*
G75*
G02*
X206392579Y-181733518I0J249999D01*
G01*
X206392579Y-181083516D01*
G75*
G02*
X206642578Y-180833517I249999J0D01*
G01*
G37*
G04 #@! TD.AperFunction*
D23*
X204059579Y-171968517D03*
D24*
X204059579Y-175468517D03*
G04 #@! TA.AperFunction,SMDPad,CuDef*
G36*
G01*
X219586200Y-117203400D02*
X219586200Y-117543400D01*
G75*
G02*
X219446200Y-117683400I-140000J0D01*
G01*
X219166200Y-117683400D01*
G75*
G02*
X219026200Y-117543400I0J140000D01*
G01*
X219026200Y-117203400D01*
G75*
G02*
X219166200Y-117063400I140000J0D01*
G01*
X219446200Y-117063400D01*
G75*
G02*
X219586200Y-117203400I0J-140000D01*
G01*
G37*
G04 #@! TD.AperFunction*
G04 #@! TA.AperFunction,SMDPad,CuDef*
G36*
G01*
X220546200Y-117203400D02*
X220546200Y-117543400D01*
G75*
G02*
X220406200Y-117683400I-140000J0D01*
G01*
X220126200Y-117683400D01*
G75*
G02*
X219986200Y-117543400I0J140000D01*
G01*
X219986200Y-117203400D01*
G75*
G02*
X220126200Y-117063400I140000J0D01*
G01*
X220406200Y-117063400D01*
G75*
G02*
X220546200Y-117203400I0J-140000D01*
G01*
G37*
G04 #@! TD.AperFunction*
G04 #@! TA.AperFunction,SMDPad,CuDef*
G36*
G01*
X220324800Y-111687800D02*
X220324800Y-112187800D01*
G75*
G02*
X220099800Y-112412800I-225000J0D01*
G01*
X219649800Y-112412800D01*
G75*
G02*
X219424800Y-112187800I0J225000D01*
G01*
X219424800Y-111687800D01*
G75*
G02*
X219649800Y-111462800I225000J0D01*
G01*
X220099800Y-111462800D01*
G75*
G02*
X220324800Y-111687800I0J-225000D01*
G01*
G37*
G04 #@! TD.AperFunction*
G04 #@! TA.AperFunction,SMDPad,CuDef*
G36*
G01*
X221874800Y-111687800D02*
X221874800Y-112187800D01*
G75*
G02*
X221649800Y-112412800I-225000J0D01*
G01*
X221199800Y-112412800D01*
G75*
G02*
X220974800Y-112187800I0J225000D01*
G01*
X220974800Y-111687800D01*
G75*
G02*
X221199800Y-111462800I225000J0D01*
G01*
X221649800Y-111462800D01*
G75*
G02*
X221874800Y-111687800I0J-225000D01*
G01*
G37*
G04 #@! TD.AperFunction*
G04 #@! TA.AperFunction,SMDPad,CuDef*
G36*
G01*
X223897000Y-113136800D02*
X223397000Y-113136800D01*
G75*
G02*
X223172000Y-112911800I0J225000D01*
G01*
X223172000Y-112461800D01*
G75*
G02*
X223397000Y-112236800I225000J0D01*
G01*
X223897000Y-112236800D01*
G75*
G02*
X224122000Y-112461800I0J-225000D01*
G01*
X224122000Y-112911800D01*
G75*
G02*
X223897000Y-113136800I-225000J0D01*
G01*
G37*
G04 #@! TD.AperFunction*
G04 #@! TA.AperFunction,SMDPad,CuDef*
G36*
G01*
X223897000Y-114686800D02*
X223397000Y-114686800D01*
G75*
G02*
X223172000Y-114461800I0J225000D01*
G01*
X223172000Y-114011800D01*
G75*
G02*
X223397000Y-113786800I225000J0D01*
G01*
X223897000Y-113786800D01*
G75*
G02*
X224122000Y-114011800I0J-225000D01*
G01*
X224122000Y-114461800D01*
G75*
G02*
X223897000Y-114686800I-225000J0D01*
G01*
G37*
G04 #@! TD.AperFunction*
G04 #@! TA.AperFunction,SMDPad,CuDef*
G36*
G01*
X228063237Y-159518402D02*
X228955945Y-159843321D01*
G75*
G02*
X229105363Y-160163749I-85505J-234923D01*
G01*
X228934353Y-160633596D01*
G75*
G02*
X228613925Y-160783014I-234923J85505D01*
G01*
X227721217Y-160458095D01*
G75*
G02*
X227571799Y-160137667I85505J234923D01*
G01*
X227742809Y-159667820D01*
G75*
G02*
X228063237Y-159518402I234923J-85505D01*
G01*
G37*
G04 #@! TD.AperFunction*
G04 #@! TA.AperFunction,SMDPad,CuDef*
G36*
G01*
X228713075Y-157732986D02*
X229605783Y-158057905D01*
G75*
G02*
X229755201Y-158378333I-85505J-234923D01*
G01*
X229584191Y-158848180D01*
G75*
G02*
X229263763Y-158997598I-234923J85505D01*
G01*
X228371055Y-158672679D01*
G75*
G02*
X228221637Y-158352251I85505J234923D01*
G01*
X228392647Y-157882404D01*
G75*
G02*
X228713075Y-157732986I234923J-85505D01*
G01*
G37*
G04 #@! TD.AperFunction*
G04 #@! TA.AperFunction,SMDPad,CuDef*
G36*
G01*
X188780000Y-88374200D02*
X188780000Y-89324200D01*
G75*
G02*
X188530000Y-89574200I-250000J0D01*
G01*
X188030000Y-89574200D01*
G75*
G02*
X187780000Y-89324200I0J250000D01*
G01*
X187780000Y-88374200D01*
G75*
G02*
X188030000Y-88124200I250000J0D01*
G01*
X188530000Y-88124200D01*
G75*
G02*
X188780000Y-88374200I0J-250000D01*
G01*
G37*
G04 #@! TD.AperFunction*
G04 #@! TA.AperFunction,SMDPad,CuDef*
G36*
G01*
X190680000Y-88374200D02*
X190680000Y-89324200D01*
G75*
G02*
X190430000Y-89574200I-250000J0D01*
G01*
X189930000Y-89574200D01*
G75*
G02*
X189680000Y-89324200I0J250000D01*
G01*
X189680000Y-88374200D01*
G75*
G02*
X189930000Y-88124200I250000J0D01*
G01*
X190430000Y-88124200D01*
G75*
G02*
X190680000Y-88374200I0J-250000D01*
G01*
G37*
G04 #@! TD.AperFunction*
G04 #@! TA.AperFunction,SMDPad,CuDef*
G36*
G01*
X178620800Y-88613000D02*
X178620800Y-87663000D01*
G75*
G02*
X178870800Y-87413000I250000J0D01*
G01*
X179370800Y-87413000D01*
G75*
G02*
X179620800Y-87663000I0J-250000D01*
G01*
X179620800Y-88613000D01*
G75*
G02*
X179370800Y-88863000I-250000J0D01*
G01*
X178870800Y-88863000D01*
G75*
G02*
X178620800Y-88613000I0J250000D01*
G01*
G37*
G04 #@! TD.AperFunction*
G04 #@! TA.AperFunction,SMDPad,CuDef*
G36*
G01*
X176720800Y-88613000D02*
X176720800Y-87663000D01*
G75*
G02*
X176970800Y-87413000I250000J0D01*
G01*
X177470800Y-87413000D01*
G75*
G02*
X177720800Y-87663000I0J-250000D01*
G01*
X177720800Y-88613000D01*
G75*
G02*
X177470800Y-88863000I-250000J0D01*
G01*
X176970800Y-88863000D01*
G75*
G02*
X176720800Y-88613000I0J250000D01*
G01*
G37*
G04 #@! TD.AperFunction*
D37*
X136271000Y-164211000D03*
X137414000Y-170053000D03*
X135509000Y-166116000D03*
X138430000Y-169037000D03*
X143764000Y-170815000D03*
X135001000Y-160020000D03*
X136144000Y-159893000D03*
X142748000Y-169926000D03*
X134747000Y-169418000D03*
D38*
X221839579Y-176103517D03*
D37*
X210409579Y-179405517D03*
D38*
X215870579Y-175595517D03*
X175064840Y-92905160D03*
X195255000Y-92335000D03*
X219456000Y-110236000D03*
X175615600Y-88341200D03*
D37*
X160274000Y-151638000D03*
X160274000Y-150622000D03*
X160274000Y-152654000D03*
X161290000Y-151638000D03*
X159258000Y-151638000D03*
X168351200Y-91440000D03*
X137993010Y-114449395D03*
X139258435Y-125688791D03*
X223997266Y-138293987D03*
D39*
X216399362Y-115913918D03*
D37*
X226123500Y-168148000D03*
X202057000Y-160210500D03*
X208153000Y-160210500D03*
D38*
X192530660Y-92953340D03*
D37*
X212699600Y-142443200D03*
X213106000Y-138938000D03*
D38*
X191820800Y-89103200D03*
D37*
X206121000Y-183235600D03*
X210234453Y-177303514D03*
X159359600Y-173710600D03*
X161264600Y-173837600D03*
X141579600Y-125095000D03*
X164445979Y-139773543D03*
X165699800Y-162763800D03*
X166624000Y-162763200D03*
X164820600Y-162763200D03*
X167109790Y-156218026D03*
X149758400Y-151536400D03*
X149758400Y-152374600D03*
X136677400Y-148361400D03*
X149752406Y-150756237D03*
X168711344Y-160395393D03*
X164668200Y-164852379D03*
X199434421Y-188504938D03*
X169621200Y-191935100D03*
X171958000Y-195211700D03*
X137807966Y-111087166D03*
X164407798Y-137687021D03*
X220608510Y-139272981D03*
X217106500Y-138811000D03*
X216154000Y-142430500D03*
D39*
X212852000Y-127127000D03*
X216344500Y-130365500D03*
D37*
X228600000Y-161353500D03*
X224155000Y-166052500D03*
D38*
X224967800Y-112369600D03*
X209473800Y-186131200D03*
X207441800Y-185775600D03*
D37*
X218631792Y-142943041D03*
X227787200Y-141427200D03*
D38*
X224468063Y-143489936D03*
D37*
X221602300Y-148831300D03*
X230263700Y-125361700D03*
X157949900Y-137096500D03*
X160845118Y-160381921D03*
X157861000Y-146812000D03*
X146304000Y-147637500D03*
X157217010Y-152871755D03*
D38*
X158034618Y-140115990D03*
X165989000Y-167894000D03*
D37*
X210409579Y-178643517D03*
D38*
X212356700Y-159346900D03*
D37*
X216782145Y-135494909D03*
D38*
X219492924Y-133762195D03*
X223863738Y-123866068D03*
D37*
X233038645Y-136441622D03*
X233127580Y-149161500D03*
D38*
X135325232Y-164915454D03*
D37*
X135382000Y-163449000D03*
X138557000Y-165735000D03*
X139573000Y-164084000D03*
X138303000Y-162560000D03*
X140335000Y-164719000D03*
X141097000Y-165608000D03*
X141732000Y-166624000D03*
X142748000Y-167640000D03*
X143637000Y-168529000D03*
X144526000Y-169418000D03*
X145415000Y-170307000D03*
X146304000Y-171196000D03*
X147320000Y-172720000D03*
X145669000Y-172847000D03*
X145669000Y-174371000D03*
X147447000Y-173990000D03*
X148717000Y-174879000D03*
X149352000Y-176403000D03*
X148209000Y-177673000D03*
X147193000Y-178435000D03*
X147500000Y-179500000D03*
X145000000Y-180500000D03*
X143000000Y-178500000D03*
X143000000Y-176500000D03*
X144399000Y-176530000D03*
X145288000Y-175768000D03*
X135763000Y-169545000D03*
X134620000Y-168402000D03*
X134239000Y-167132000D03*
X134239000Y-160909000D03*
X148510610Y-149780322D03*
X152400000Y-153876390D03*
D38*
X142494000Y-153797000D03*
D37*
X158635924Y-157838790D03*
D38*
X151247485Y-157861533D03*
D37*
X234953783Y-135296386D03*
D38*
X214500000Y-182000000D03*
D37*
X131996699Y-161419052D03*
X204724000Y-144145000D03*
X164846000Y-123190000D03*
X203930597Y-122763124D03*
X156972000Y-137414000D03*
X167132000Y-135509000D03*
X168148000Y-123571000D03*
X198374000Y-148717000D03*
X223807472Y-146271444D03*
X220856543Y-149705334D03*
X200738343Y-124736202D03*
X225653676Y-145496225D03*
X228354789Y-138109054D03*
X158073964Y-137793557D03*
X165376210Y-126365000D03*
X225333533Y-142301765D03*
X223077168Y-129009168D03*
X222075879Y-129506973D03*
X208557558Y-121918227D03*
D38*
X162264790Y-143564705D03*
D37*
X166741308Y-145165288D03*
X168697307Y-157054862D03*
X160185100Y-134366000D03*
X165862000Y-121945354D03*
X166018200Y-133458985D03*
D39*
X190813886Y-159908287D03*
D38*
X163830000Y-141097000D03*
X158623000Y-141097000D03*
X153924000Y-143790992D03*
D39*
X152991932Y-158461177D03*
D37*
X139319000Y-167767000D03*
D38*
X145415000Y-163830000D03*
D39*
X172720000Y-158899210D03*
D38*
X133985000Y-156210000D03*
X186690000Y-91186000D03*
X184150000Y-87884000D03*
X180848000Y-88138000D03*
X185166000Y-103632000D03*
X174752000Y-89662000D03*
D37*
X202692000Y-95059500D03*
D38*
X183959500Y-91059000D03*
X175895000Y-96520000D03*
X175942912Y-93630170D03*
X187960000Y-91338400D03*
X212576579Y-178143517D03*
X211552579Y-180929517D03*
X131755516Y-123984819D03*
D37*
X206502000Y-93726000D03*
X184912000Y-111061500D03*
D38*
X218163499Y-159851790D03*
X221098103Y-161391192D03*
D37*
X230632000Y-133832600D03*
X217474800Y-154838400D03*
X231038400Y-128625600D03*
D38*
X162064700Y-181305200D03*
X157685798Y-180952710D03*
D37*
X220522800Y-140208000D03*
X197866000Y-122174000D03*
X214058500Y-139509500D03*
D39*
X208089500Y-129857500D03*
X209359500Y-131826000D03*
X212026500Y-129286000D03*
D37*
X206083166Y-158204166D03*
X195008500Y-156591000D03*
D38*
X210058000Y-187807600D03*
X204724000Y-162965618D03*
X198006711Y-163282889D03*
D37*
X209902747Y-136086821D03*
D39*
X211455000Y-132946790D03*
X214091965Y-116582077D03*
D38*
X141478000Y-158242000D03*
X212187579Y-176234790D03*
X207834031Y-179853376D03*
D37*
X158673800Y-174091600D03*
X161391600Y-170484800D03*
X161489630Y-169093615D03*
X161318324Y-169780590D03*
X140208000Y-122110500D03*
X142557500Y-122110500D03*
D38*
X133769353Y-120602327D03*
X134189359Y-116758568D03*
D37*
X138528410Y-120689397D03*
X142214600Y-131648200D03*
X156887817Y-134428399D03*
X160078096Y-173131590D03*
X154178000Y-135586907D03*
X155140463Y-130070023D03*
X156913083Y-129336622D03*
X146950876Y-148832124D03*
X152120069Y-151688269D03*
X158664605Y-133705148D03*
X169221416Y-133407416D03*
X167819677Y-157105379D03*
X161802035Y-157308580D03*
X157225881Y-152125278D03*
X159867600Y-154482800D03*
X161645600Y-154736800D03*
X160782000Y-154787600D03*
X163604590Y-152146000D03*
X163169600Y-153111200D03*
X157394228Y-153920810D03*
X152069800Y-133248400D03*
X158318200Y-149275800D03*
X160605871Y-132864268D03*
X162458400Y-154584400D03*
X233837302Y-159859802D03*
X233426000Y-146050000D03*
X234442000Y-151384000D03*
X136779000Y-165481000D03*
D38*
X148082000Y-154178000D03*
D37*
X144270148Y-163067074D03*
D38*
X173130875Y-160712033D03*
X213487000Y-158813500D03*
D37*
X230949500Y-143727420D03*
X230379297Y-155003500D03*
X203009500Y-161544000D03*
X207942000Y-161587000D03*
X196364210Y-134789281D03*
X195834000Y-135890000D03*
X216447075Y-144395276D03*
X216540384Y-147757506D03*
X195961000Y-136906000D03*
X220625266Y-145243626D03*
X225863743Y-141807076D03*
X215990117Y-146366284D03*
X215823224Y-145305873D03*
X152106886Y-124206000D03*
X143560800Y-150037800D03*
X164795200Y-146278600D03*
X144322800Y-145829232D03*
X162712400Y-177266600D03*
X164058600Y-166751000D03*
X153909529Y-174757296D03*
X166059197Y-123650390D03*
X153644177Y-169316134D03*
X143256000Y-146558000D03*
X143535400Y-143357600D03*
X149901852Y-142968690D03*
X166395400Y-188341000D03*
X151231600Y-174726600D03*
X156972000Y-146151600D03*
X163963388Y-147046988D03*
X150444200Y-183997600D03*
X164265539Y-143378518D03*
X159063854Y-161511024D03*
X150849172Y-124243430D03*
X151330010Y-125506437D03*
X151729922Y-166913078D03*
X160348002Y-126441200D03*
X164350700Y-149999700D03*
X172010401Y-161850506D03*
X167216673Y-129363673D03*
X167997239Y-150782083D03*
X152667806Y-167804247D03*
X159613600Y-125320589D03*
X163400110Y-148695158D03*
X172126829Y-161152132D03*
X166660643Y-125404029D03*
X171206550Y-153991394D03*
X153144573Y-167274037D03*
X227863400Y-137515600D03*
X221361000Y-105079800D03*
X218444855Y-147720021D03*
X218313000Y-132969000D03*
X223392800Y-127247849D03*
X224651799Y-144323949D03*
X145440400Y-140360400D03*
X157406410Y-139509087D03*
X184277000Y-195275200D03*
X171119800Y-191897000D03*
X158648400Y-188569600D03*
X158546800Y-166547800D03*
X155369341Y-171936421D03*
X172797720Y-194503691D03*
X191325500Y-192697100D03*
X145262600Y-139547600D03*
X156432192Y-139088188D03*
X156819600Y-166484300D03*
X154355800Y-170967400D03*
X154825700Y-184861200D03*
X165823900Y-187718700D03*
X168452800Y-195313300D03*
X183959500Y-195999100D03*
D38*
X198005700Y-189166500D03*
D37*
X139929424Y-141631224D03*
X157364621Y-142493114D03*
X167852969Y-188737890D03*
X157627180Y-166072317D03*
X155013010Y-171324613D03*
X157549840Y-187995050D03*
X169159722Y-195691282D03*
X146456400Y-141122400D03*
X140335000Y-139649200D03*
X180009800Y-197078600D03*
X155694285Y-166823862D03*
X153668895Y-170782415D03*
X155360547Y-155681268D03*
X145542000Y-151638000D03*
D38*
X161975112Y-190153938D03*
D37*
X208809705Y-136654048D03*
X210769200Y-139242800D03*
X213626700Y-142417800D03*
X214693500Y-151549100D03*
X211923536Y-149599621D03*
X211034622Y-150881650D03*
X228806390Y-150291067D03*
X232346500Y-150241000D03*
D38*
X198628000Y-93472000D03*
D37*
X229108000Y-167132000D03*
X221361000Y-167386000D03*
X227533529Y-150324327D03*
X219646500Y-165700032D03*
X158191120Y-160029510D03*
X190848356Y-157423603D03*
X157755889Y-161182417D03*
X153035000Y-159766000D03*
D38*
X197749083Y-94268990D03*
D37*
X228663500Y-168021000D03*
X220726000Y-168084500D03*
X227297055Y-152352474D03*
X219483656Y-166389062D03*
X189967498Y-157781610D03*
X152273000Y-160528000D03*
X231528510Y-149606000D03*
D38*
X236000000Y-137000000D03*
D37*
X231881039Y-146106939D03*
X231724452Y-131595755D03*
X230761817Y-142974357D03*
X230379317Y-154178000D03*
X211582000Y-157416500D03*
X232543379Y-141118880D03*
X211944749Y-163649010D03*
X220863043Y-162683810D03*
X218593737Y-144727695D03*
X213868000Y-164893610D03*
X230990256Y-156594384D03*
X232911688Y-146536584D03*
X214820500Y-164893610D03*
X228806390Y-147246689D03*
X229496510Y-157418998D03*
X153035000Y-157226000D03*
D38*
X130021490Y-126428500D03*
D37*
X133197600Y-118313200D03*
X224917794Y-135414688D03*
X226349779Y-138087043D03*
X199334918Y-135222840D03*
X199875054Y-136969614D03*
D38*
X132613134Y-123470510D03*
D37*
X130200400Y-130860800D03*
X149710790Y-121870219D03*
X148838781Y-136655251D03*
X156367141Y-135027525D03*
X156424753Y-122228410D03*
X147894757Y-122244399D03*
X147497076Y-135662124D03*
X155295600Y-133731000D03*
X156871112Y-136642785D03*
X157830186Y-133369950D03*
X147315747Y-122758620D03*
X160581331Y-123247179D03*
X157066683Y-123247179D03*
X157416500Y-132334000D03*
X158242000Y-129336631D03*
X151373940Y-118017131D03*
X151199737Y-118911159D03*
X153479567Y-133826220D03*
X151513780Y-133779020D03*
X151790400Y-120294400D03*
X147642140Y-115384039D03*
X138491179Y-131064000D03*
X148768245Y-130508390D03*
X137464772Y-131215897D03*
X147574891Y-116114403D03*
X148257504Y-130018060D03*
X141840790Y-111607600D03*
X144675202Y-110109000D03*
X150240281Y-116676412D03*
X150190200Y-149682200D03*
X157984810Y-150051318D03*
X147672897Y-117360314D03*
X149225000Y-147015200D03*
X157502210Y-147675600D03*
X157720778Y-150906987D03*
X149135755Y-115693037D03*
X149402800Y-149656800D03*
X157225881Y-151413305D03*
X136550400Y-131927600D03*
X145135600Y-109270800D03*
X141376400Y-109499400D03*
X138986423Y-111691255D03*
X145463275Y-131422790D03*
X155832190Y-172669200D03*
X139402678Y-156844748D03*
X138658600Y-112318800D03*
X155939828Y-173407192D03*
X139374990Y-157727676D03*
X137414000Y-112928400D03*
X140893800Y-135610600D03*
X132308600Y-136093200D03*
X156128774Y-174414983D03*
X131953000Y-157099000D03*
D38*
X186690000Y-92456000D03*
D37*
X229438200Y-127838200D03*
D38*
X187318667Y-124701135D03*
D37*
X221205250Y-130881086D03*
X206966400Y-123255385D03*
X230667924Y-141200245D03*
D38*
X183515000Y-94615000D03*
D37*
X194391221Y-122648389D03*
X193493703Y-122024790D03*
X190373000Y-121412000D03*
D39*
X142621000Y-117157500D03*
X144068800Y-118618000D03*
X141122400Y-118618000D03*
X144068800Y-115722400D03*
X141122400Y-115722400D03*
D38*
X141605000Y-123825000D03*
D39*
X140970000Y-112166400D03*
D37*
X232410400Y-133730600D03*
X181792871Y-125537782D03*
X219958084Y-132589435D03*
X205144472Y-125077312D03*
X232190968Y-137508653D03*
X224104200Y-142392400D03*
X215900000Y-111252000D03*
X205209790Y-126363356D03*
X221325140Y-142762202D03*
X220568289Y-148003266D03*
X205740000Y-148717000D03*
X206416267Y-163667228D03*
X217577399Y-151094097D03*
X173373976Y-157396740D03*
X187089595Y-157727573D03*
X160460347Y-157838790D03*
X217152116Y-144478314D03*
X159766000Y-180581300D03*
X154063700Y-180251100D03*
X217902519Y-145576968D03*
X218409803Y-150741686D03*
X190653438Y-158923772D03*
X153106010Y-168856072D03*
X197421821Y-145514078D03*
X154660600Y-128984211D03*
X154889200Y-125552200D03*
X226940585Y-141233505D03*
X227920839Y-126957032D03*
X223415864Y-127955485D03*
X208215393Y-121298385D03*
X210997800Y-163703000D03*
X208690010Y-179860583D03*
X212916753Y-177250710D03*
X229574710Y-143160624D03*
X230073222Y-155870338D03*
X209905600Y-164541200D03*
X209683131Y-180410069D03*
X206968146Y-178850346D03*
X221823070Y-162683810D03*
X223078591Y-148513798D03*
X226822000Y-150622000D03*
X207899000Y-152146000D03*
X228495543Y-146185523D03*
X207102867Y-187079612D03*
X147172590Y-149631400D03*
X146557297Y-150077725D03*
X170462590Y-156286200D03*
X165411817Y-164852379D03*
X169924591Y-162659707D03*
X169772542Y-156444676D03*
X224850648Y-145449852D03*
D38*
X225300461Y-133888798D03*
D37*
X226745800Y-117703600D03*
X226714088Y-145685989D03*
D38*
X228427977Y-132942904D03*
X181102000Y-92456000D03*
D37*
X145491200Y-136423400D03*
X154668901Y-137123000D03*
X145211800Y-137769600D03*
X153499351Y-137806148D03*
X140355915Y-136648810D03*
D38*
X155511234Y-137263750D03*
D37*
X153983683Y-154881592D03*
X140893800Y-152323800D03*
X161555453Y-128450990D03*
X151582733Y-128252664D03*
X162505926Y-129373776D03*
X151671531Y-129336622D03*
X162201355Y-133216679D03*
X158759329Y-133003501D03*
X164050446Y-129962517D03*
X159739092Y-129387424D03*
X150780781Y-149207688D03*
X152818846Y-149922911D03*
X151735186Y-148289614D03*
X166592221Y-135972280D03*
X158669637Y-136096768D03*
X168286124Y-135567159D03*
X167598471Y-160233171D03*
X159207200Y-135636000D03*
X164500185Y-160161543D03*
X159040943Y-134854735D03*
X168363367Y-134863374D03*
X166649125Y-160000920D03*
X165178796Y-159959632D03*
X211771604Y-139159738D03*
X227619879Y-143489635D03*
X221035322Y-146280706D03*
X215128936Y-147342210D03*
X133553200Y-130860800D03*
X136323820Y-116793649D03*
X224255358Y-134390293D03*
X225551190Y-138087043D03*
X184245531Y-124936531D03*
X220385020Y-132024629D03*
X206058069Y-124544716D03*
X136734598Y-116216984D03*
X138470210Y-132483210D03*
X224883532Y-140958316D03*
X223123085Y-134280668D03*
X220953094Y-131602051D03*
X206356346Y-123865439D03*
D38*
X146177000Y-158115000D03*
D40*
X219874800Y-114367002D02*
X219874800Y-111937800D01*
X219560802Y-114681000D02*
X219874800Y-114367002D01*
X218588600Y-114681000D02*
X219560802Y-114681000D01*
D41*
X179257002Y-91309000D02*
X177660842Y-92905160D01*
X182522000Y-91309000D02*
X179257002Y-91309000D01*
X177660842Y-92905160D02*
X175064840Y-92905160D01*
X218236800Y-111021400D02*
X218236800Y-110794800D01*
X219874800Y-110654800D02*
X219456000Y-110236000D01*
X219874800Y-111937800D02*
X219874800Y-110654800D01*
X175818800Y-88138000D02*
X175615600Y-88341200D01*
X177220800Y-88138000D02*
X175818800Y-88138000D01*
X222324579Y-139218517D02*
X223324579Y-139218517D01*
X137427291Y-113883676D02*
X137993010Y-114449395D01*
X137993010Y-115011805D02*
X137993010Y-114449395D01*
X139183500Y-115407500D02*
X138388705Y-115407500D01*
X135857000Y-113883676D02*
X137427291Y-113883676D01*
X138388705Y-115407500D02*
X137993010Y-115011805D01*
X139258435Y-125222435D02*
X139258435Y-125688791D01*
X138112500Y-124076500D02*
X139258435Y-125222435D01*
X218670600Y-111021400D02*
X219456000Y-110236000D01*
X218236800Y-111021400D02*
X218670600Y-111021400D01*
X223324579Y-138966674D02*
X223997266Y-138293987D01*
X223324579Y-139218517D02*
X223324579Y-138966674D01*
D40*
X218588600Y-114681000D02*
X217632280Y-114681000D01*
X217632280Y-114681000D02*
X216399362Y-115913918D01*
D41*
X207243917Y-184358517D02*
X206121000Y-183235600D01*
X207742579Y-184358517D02*
X207243917Y-184358517D01*
D42*
X167050964Y-156159200D02*
X167109790Y-156218026D01*
X165862000Y-156159200D02*
X167050964Y-156159200D01*
X136855200Y-148539200D02*
X136677400Y-148361400D01*
X137785600Y-148539200D02*
X136855200Y-148539200D01*
D41*
X199712659Y-188226700D02*
X199434421Y-188504938D01*
X200042700Y-188226700D02*
X199712659Y-188226700D01*
D42*
X162900548Y-191811100D02*
X163594570Y-191117078D01*
X163594570Y-191117078D02*
X168803178Y-191117078D01*
X168803178Y-191117078D02*
X169621200Y-191935100D01*
D41*
X138542305Y-110040480D02*
X137807966Y-110774819D01*
X137807966Y-110774819D02*
X137807966Y-111087166D01*
X222324579Y-139218517D02*
X220662974Y-139218517D01*
X220662974Y-139218517D02*
X220608510Y-139272981D01*
D43*
X216331500Y-138036000D02*
X217106500Y-138811000D01*
X216331500Y-137858500D02*
X216331500Y-138036000D01*
X215455500Y-143129000D02*
X216154000Y-142430500D01*
X228084581Y-160838081D02*
X228600000Y-161353500D01*
X228084581Y-160404708D02*
X228338581Y-160150708D01*
X228084581Y-160838081D02*
X228084581Y-160404708D01*
D42*
X224354179Y-165853321D02*
X224155000Y-166052500D01*
X224354179Y-164493817D02*
X224354179Y-165853321D01*
D44*
X224650600Y-112686800D02*
X224967800Y-112369600D01*
X223647000Y-112686800D02*
X224650600Y-112686800D01*
X210391396Y-186131200D02*
X210894079Y-185628517D01*
X209473800Y-186131200D02*
X210391396Y-186131200D01*
X207742579Y-185474821D02*
X207441800Y-185775600D01*
X207742579Y-184358517D02*
X207742579Y-185474821D01*
D43*
X222142293Y-148218517D02*
X221484641Y-148876169D01*
X222324579Y-148218517D02*
X222142293Y-148218517D01*
X227324579Y-140866213D02*
X227324579Y-139218517D01*
X227631335Y-141172969D02*
X227324579Y-140866213D01*
X227631335Y-141271335D02*
X227631335Y-141172969D01*
X227787200Y-141427200D02*
X227631335Y-141271335D01*
X221557431Y-148876169D02*
X221602300Y-148831300D01*
X221484641Y-148876169D02*
X221557431Y-148876169D01*
X229958900Y-125666500D02*
X230263700Y-125361700D01*
X228917500Y-125666500D02*
X229958900Y-125666500D01*
D42*
X158192981Y-147370800D02*
X159918400Y-147370800D01*
X157861000Y-146812000D02*
X158192981Y-147370800D01*
D43*
X147442037Y-148056600D02*
X147728200Y-148056600D01*
X146304000Y-147637500D02*
X147442037Y-148056600D01*
D41*
X159359600Y-173710600D02*
X161137600Y-173710600D01*
X161137600Y-173710600D02*
X161264600Y-173837600D01*
D44*
X223933670Y-123936000D02*
X223863738Y-123866068D01*
X224792500Y-123936000D02*
X223933670Y-123936000D01*
D43*
X233324579Y-136727556D02*
X233038645Y-136441622D01*
X233324579Y-139218517D02*
X233324579Y-136727556D01*
D42*
X233324579Y-148964501D02*
X233127580Y-149161500D01*
X233324579Y-148218517D02*
X233324579Y-148964501D01*
D44*
X144846000Y-153797000D02*
X142494000Y-153797000D01*
D42*
X157784800Y-157094000D02*
X158529590Y-157838790D01*
X158529590Y-157838790D02*
X158635924Y-157838790D01*
D44*
X152080000Y-155956000D02*
X152080000Y-157029018D01*
X152080000Y-157029018D02*
X151247485Y-157861533D01*
D42*
X234658397Y-135001000D02*
X234953783Y-135296386D01*
X233553000Y-135001000D02*
X234658397Y-135001000D01*
X213726483Y-182773517D02*
X214500000Y-182000000D01*
X213029579Y-182773517D02*
X213726483Y-182773517D01*
X214915579Y-181584421D02*
X214500000Y-182000000D01*
X214915579Y-179913517D02*
X214915579Y-181584421D01*
D43*
X165560436Y-122475564D02*
X191563564Y-122475564D01*
X164846000Y-123190000D02*
X165560436Y-122475564D01*
X202748102Y-123945619D02*
X203930597Y-122763124D01*
X193033619Y-123945619D02*
X202748102Y-123945619D01*
X191563564Y-122475564D02*
X193033619Y-123945619D01*
X218770505Y-145300758D02*
X218416968Y-145300758D01*
X220074030Y-143997234D02*
X218770505Y-145300758D01*
X215976489Y-144709388D02*
X205288388Y-144709388D01*
X222324579Y-144218517D02*
X221380345Y-144218517D01*
X221380345Y-144218517D02*
X221159061Y-143997233D01*
X216192578Y-144925477D02*
X215976489Y-144709388D01*
X218416968Y-145300758D02*
X218124734Y-145008524D01*
X205288388Y-144709388D02*
X204724000Y-144145000D01*
X216510177Y-144925477D02*
X216192578Y-144925477D01*
X216593224Y-145008524D02*
X216510177Y-144925477D01*
X218124734Y-145008524D02*
X216593224Y-145008524D01*
X221159061Y-143997233D02*
X220074030Y-143997234D01*
X223824579Y-147418517D02*
X223824579Y-146288551D01*
X223824579Y-146288551D02*
X223807472Y-146271444D01*
X198374000Y-148717000D02*
X199355023Y-149698023D01*
X199355023Y-149698023D02*
X211237238Y-149698023D01*
X211669038Y-150129823D02*
X212167971Y-150129823D01*
X220509463Y-149358254D02*
X220856543Y-149705334D01*
X212167971Y-150129823D02*
X212939540Y-149358254D01*
X212939540Y-149358254D02*
X220509463Y-149358254D01*
X211237238Y-149698023D02*
X211669038Y-150129823D01*
D42*
X167385999Y-135762999D02*
X167132000Y-135509000D01*
X167385999Y-136000792D02*
X167385999Y-135762999D01*
X158216589Y-136540899D02*
X158336591Y-136660901D01*
X156972000Y-137414000D02*
X157394299Y-136991701D01*
X166725890Y-136660901D02*
X167385999Y-136000792D01*
X157394299Y-136991701D02*
X157394299Y-136829811D01*
X158336591Y-136660901D02*
X166725890Y-136660901D01*
X157683211Y-136540899D02*
X158216589Y-136540899D01*
X157394299Y-136829811D02*
X157683211Y-136540899D01*
D43*
X168891026Y-122827974D02*
X191417590Y-122827974D01*
X168148000Y-123571000D02*
X168891026Y-122827974D01*
X191417590Y-122827974D02*
X193325818Y-124736202D01*
X193325818Y-124736202D02*
X200738343Y-124736202D01*
D42*
X185432840Y-128191478D02*
X185514599Y-128191478D01*
X186343779Y-128464546D02*
X186344822Y-128466488D01*
X184997791Y-127756429D02*
X185432840Y-128191478D01*
X186344822Y-128466488D02*
X190856897Y-128466488D01*
X185791853Y-128301285D02*
X185795317Y-128299424D01*
X185558336Y-128235215D02*
X185791853Y-128301285D01*
X190856897Y-128466488D02*
X197481811Y-135091402D01*
X197481811Y-135091402D02*
X197481811Y-135860508D01*
X185514599Y-128191478D02*
X185558336Y-128235215D01*
X185795317Y-128299424D02*
X186343779Y-128464546D01*
X175462626Y-128079500D02*
X175785697Y-127756429D01*
X175785697Y-127756429D02*
X184997791Y-127756429D01*
X197481811Y-135860508D02*
X199617245Y-137995942D01*
D43*
X223846580Y-137531433D02*
X219573433Y-137531433D01*
X219573433Y-137531433D02*
X219138500Y-137096500D01*
X215909682Y-137096500D02*
X215010240Y-137995942D01*
X215010240Y-137995942D02*
X199617245Y-137995942D01*
X219138500Y-137096500D02*
X215909682Y-137096500D01*
X225324579Y-148218517D02*
X225324579Y-145825322D01*
X225324579Y-145825322D02*
X225653676Y-145496225D01*
D42*
X223846580Y-137531433D02*
X227025275Y-137531433D01*
X227025275Y-137531433D02*
X227596710Y-136959998D01*
X227596710Y-136959998D02*
X228130090Y-136959998D01*
X228130090Y-136959998D02*
X228608788Y-137438696D01*
X228608788Y-137438696D02*
X228608788Y-137855055D01*
X228608788Y-137855055D02*
X228354789Y-138109054D01*
D43*
X158710710Y-137156811D02*
X158073964Y-137793557D01*
X168928148Y-135480242D02*
X168675205Y-135970581D01*
X167488975Y-137156811D02*
X158710710Y-137156811D01*
X168675205Y-135970581D02*
X167488975Y-137156811D01*
X168928148Y-134613978D02*
X168928148Y-135480242D01*
X175462626Y-128079500D02*
X168928148Y-134613978D01*
X225824579Y-147418517D02*
X226183886Y-147059210D01*
X226183886Y-143152118D02*
X225333533Y-142301765D01*
X226183886Y-147059210D02*
X226183886Y-143152118D01*
X222573684Y-129009168D02*
X222075879Y-129506973D01*
X223077168Y-129009168D02*
X222573684Y-129009168D01*
X202323110Y-125618822D02*
X204959106Y-122982826D01*
X180600380Y-124707620D02*
X181482999Y-123825001D01*
X191417849Y-123825001D02*
X193211672Y-125618822D01*
X193211672Y-125618822D02*
X202323110Y-125618822D01*
X204959106Y-122982826D02*
X206092490Y-122982826D01*
X174566011Y-124707620D02*
X180600380Y-124707620D01*
X206092490Y-122982826D02*
X207157089Y-121918227D01*
X181482999Y-123825001D02*
X191417849Y-123825001D01*
X207157089Y-121918227D02*
X208557558Y-121918227D01*
X165376210Y-126365000D02*
X172908631Y-126365000D01*
X172908631Y-126365000D02*
X174566011Y-124707620D01*
D41*
X162264790Y-143564705D02*
X162830475Y-143564705D01*
X162830475Y-143564705D02*
X164431058Y-145165288D01*
X164431058Y-145165288D02*
X166741308Y-145165288D01*
X222287912Y-149092808D02*
X221095439Y-150285282D01*
X213115790Y-149759465D02*
X212344221Y-150531034D01*
X195035966Y-150099234D02*
X189170820Y-155964380D01*
X188028838Y-155964380D02*
X186810237Y-157182981D01*
X212344221Y-150531034D02*
X211502851Y-150531034D01*
X189170820Y-155964380D02*
X188028838Y-155964380D01*
X173651898Y-156817738D02*
X170741016Y-156817738D01*
X170741016Y-156817738D02*
X170503892Y-157054862D01*
X220579567Y-150285282D02*
X220053750Y-149759465D01*
X211502851Y-150531034D02*
X211071051Y-150099234D01*
X226324579Y-148218517D02*
X225450288Y-149092808D01*
X220053750Y-149759465D02*
X213115790Y-149759465D01*
X211071051Y-150099234D02*
X195035966Y-150099234D01*
X170503892Y-157054862D02*
X168697307Y-157054862D01*
X221095439Y-150285282D02*
X220579567Y-150285282D01*
X186810237Y-157182981D02*
X174017141Y-157182981D01*
X174017141Y-157182981D02*
X173651898Y-156817738D01*
X225450288Y-149092808D02*
X222287912Y-149092808D01*
D43*
X171907246Y-121945354D02*
X165862000Y-121945354D01*
X174142400Y-119710200D02*
X171907246Y-121945354D01*
X163517815Y-133458985D02*
X166018200Y-133458985D01*
X160185100Y-134366000D02*
X160451800Y-134099300D01*
X160451800Y-134099300D02*
X162877500Y-134099300D01*
X162877500Y-134099300D02*
X163517815Y-133458985D01*
D45*
X208626579Y-166832517D02*
X208626579Y-166486715D01*
X196019467Y-159908287D02*
X190813886Y-159908287D01*
X207542124Y-165402260D02*
X201513440Y-165402260D01*
X201513440Y-165402260D02*
X196019467Y-159908287D01*
X208626579Y-166486715D02*
X207542124Y-165402260D01*
D44*
X163830000Y-141097000D02*
X158623000Y-141097000D01*
D45*
X158623000Y-141097000D02*
X156019500Y-141097000D01*
D40*
X156019500Y-141097000D02*
X156019500Y-141695492D01*
X156019500Y-141695492D02*
X153924000Y-143790992D01*
X153924000Y-143790992D02*
X153924000Y-143827500D01*
D41*
X142041999Y-167203001D02*
X145415000Y-163830000D01*
X139319000Y-167767000D02*
X139882999Y-167203001D01*
X139882999Y-167203001D02*
X142041999Y-167203001D01*
D45*
X152991932Y-158461177D02*
X153556966Y-159026211D01*
X162832225Y-159026211D02*
X163086225Y-158772211D01*
X172593001Y-158772211D02*
X172720000Y-158899210D01*
X153556966Y-159026211D02*
X162832225Y-159026211D01*
X163086225Y-158772211D02*
X172593001Y-158772211D01*
D42*
X133681496Y-141922500D02*
X133790479Y-141813517D01*
X128079500Y-141922500D02*
X133681496Y-141922500D01*
D44*
X142614000Y-157226000D02*
X141582111Y-156194111D01*
X134000889Y-156194111D02*
X133985000Y-156210000D01*
X141582111Y-156194111D02*
X134000889Y-156194111D01*
D41*
X171420000Y-94615000D02*
X171420000Y-97790000D01*
X201510000Y-95142000D02*
X201510000Y-94342000D01*
X185397000Y-90809000D02*
X185397000Y-91309000D01*
X186567000Y-91309000D02*
X186690000Y-91186000D01*
X185397000Y-91309000D02*
X186567000Y-91309000D01*
X186690000Y-91186000D02*
X188280000Y-89596000D01*
X188280000Y-89596000D02*
X188280000Y-88849200D01*
X184209500Y-87943500D02*
X184209500Y-89621500D01*
X184150000Y-87884000D02*
X184209500Y-87943500D01*
X179120800Y-88138000D02*
X180848000Y-88138000D01*
X171420000Y-92994000D02*
X174752000Y-89662000D01*
X171420000Y-94615000D02*
X171420000Y-92994000D01*
X201592500Y-95059500D02*
X201510000Y-95142000D01*
X202692000Y-95059500D02*
X201592500Y-95059500D01*
X182522000Y-90809000D02*
X183709500Y-90809000D01*
X183709500Y-90809000D02*
X183959500Y-91059000D01*
X183709500Y-89621500D02*
X183709500Y-90809000D01*
X174625000Y-97790000D02*
X175895000Y-96520000D01*
X174020000Y-97790000D02*
X174625000Y-97790000D01*
X174020000Y-94615000D02*
X175004830Y-93630170D01*
X175004830Y-93630170D02*
X175942912Y-93630170D01*
X187960000Y-91069200D02*
X187960000Y-91338400D01*
X190180000Y-88849200D02*
X187960000Y-91069200D01*
X174020000Y-97790000D02*
X174020000Y-102930602D01*
X174020000Y-102930602D02*
X176479200Y-105389802D01*
X176479200Y-105389802D02*
X176479200Y-107238800D01*
X231449804Y-158301792D02*
X231809079Y-157942517D01*
D43*
X231386304Y-158365292D02*
X231809079Y-157942517D01*
X228988419Y-158365292D02*
X231386304Y-158365292D01*
D45*
X221424800Y-113594800D02*
X221288600Y-113731000D01*
X221424800Y-111937800D02*
X221424800Y-113594800D01*
D46*
X221288600Y-113731000D02*
X221288600Y-114681000D01*
D44*
X222146502Y-114681000D02*
X221288600Y-114681000D01*
X226201000Y-118735498D02*
X222146502Y-114681000D01*
X226201000Y-119700000D02*
X226201000Y-118735498D01*
D45*
X221424800Y-110492438D02*
X221424800Y-111937800D01*
X214303795Y-103371433D02*
X221424800Y-110492438D01*
X214303795Y-100003795D02*
X214303795Y-103371433D01*
X221501000Y-112014000D02*
X221424800Y-111937800D01*
D44*
X226170500Y-118765998D02*
X226201000Y-118735498D01*
X226170500Y-119824500D02*
X226170500Y-118765998D01*
X227692000Y-118303000D02*
X226170500Y-119824500D01*
X227790500Y-118303000D02*
X227692000Y-118303000D01*
X223202800Y-114681000D02*
X223647000Y-114236800D01*
X221288600Y-114681000D02*
X223202800Y-114681000D01*
X224228762Y-110492438D02*
X224612200Y-110109000D01*
X221424800Y-110492438D02*
X224228762Y-110492438D01*
D40*
X218588600Y-116655800D02*
X219306200Y-117373400D01*
X218588600Y-115631000D02*
X218588600Y-116655800D01*
X221288600Y-116351000D02*
X220266200Y-117373400D01*
X221288600Y-115631000D02*
X221288600Y-116351000D01*
D45*
X220266200Y-120984096D02*
X220266200Y-117373400D01*
X219033022Y-122217274D02*
X220266200Y-120984096D01*
D47*
X211184136Y-129887064D02*
X211353400Y-129717800D01*
X211184136Y-130066160D02*
X211184136Y-129887064D01*
D41*
X133747500Y-122108500D02*
X133670000Y-122031000D01*
X133747500Y-124206000D02*
X133747500Y-122108500D01*
D40*
X133670000Y-123677566D02*
X132962748Y-124384818D01*
X132155515Y-124384818D02*
X131755516Y-123984819D01*
X132962748Y-124384818D02*
X132155515Y-124384818D01*
X133670000Y-122031000D02*
X133670000Y-123677566D01*
D41*
X222624579Y-140218517D02*
X223124579Y-140718517D01*
X222324579Y-140218517D02*
X222624579Y-140218517D01*
D43*
X229447600Y-132648200D02*
X230632000Y-133832600D01*
X229428000Y-132648200D02*
X229447600Y-132648200D01*
D41*
X222324579Y-140218517D02*
X220533317Y-140218517D01*
X220533317Y-140218517D02*
X220522800Y-140208000D01*
D42*
X196342000Y-121801000D02*
X196342000Y-122301000D01*
X196342000Y-122801000D02*
X196342000Y-122301000D01*
X196342000Y-123301000D02*
X196342000Y-122801000D01*
X197493000Y-121801000D02*
X197866000Y-122174000D01*
D43*
X196342000Y-121801000D02*
X197493000Y-121801000D01*
D45*
X208298160Y-130066160D02*
X208089500Y-129857500D01*
X211184136Y-130066160D02*
X208298160Y-130066160D01*
X211119340Y-130066160D02*
X209359500Y-131826000D01*
X211184136Y-130066160D02*
X211119340Y-130066160D01*
X211246340Y-130066160D02*
X212026500Y-129286000D01*
X211184136Y-130066160D02*
X211246340Y-130066160D01*
D43*
X206502000Y-158623000D02*
X206083166Y-158204166D01*
X207050000Y-158623000D02*
X206502000Y-158623000D01*
D45*
X211184136Y-132675926D02*
X211455000Y-132946790D01*
X211184136Y-130066160D02*
X211184136Y-132675926D01*
D40*
X214981357Y-115193243D02*
X214981357Y-115692685D01*
X214981357Y-115692685D02*
X214091965Y-116582077D01*
D44*
X142367000Y-159131000D02*
X141478000Y-158242000D01*
X142614000Y-159131000D02*
X142367000Y-159131000D01*
D40*
X207869579Y-178839832D02*
X207742579Y-178966832D01*
X207869579Y-177669017D02*
X207869579Y-178839832D01*
X208157579Y-181823517D02*
X207742579Y-181408517D01*
X210409579Y-181823517D02*
X208157579Y-181823517D01*
X207742579Y-181408517D02*
X207742579Y-179944828D01*
X207742579Y-178966832D02*
X207742579Y-179761924D01*
X207742579Y-178747546D02*
X210255335Y-176234790D01*
X207742579Y-178966832D02*
X207742579Y-178747546D01*
X207869579Y-177669017D02*
X209303806Y-176234790D01*
X207742579Y-179944828D02*
X207834031Y-179853376D01*
X209303806Y-176234790D02*
X212187579Y-176234790D01*
X207742579Y-179761924D02*
X207834031Y-179853376D01*
X210255335Y-176234790D02*
X212187579Y-176234790D01*
D43*
X212673289Y-176720500D02*
X212187579Y-176234790D01*
X217678000Y-176720500D02*
X212673289Y-176720500D01*
D44*
X213029579Y-179927517D02*
X213015579Y-179913517D01*
X213029579Y-181823517D02*
X213029579Y-179927517D01*
D41*
X204114400Y-188226700D02*
X205498700Y-186842400D01*
X201942700Y-188226700D02*
X204114400Y-188226700D01*
D42*
X159801600Y-175219400D02*
X163576000Y-175219400D01*
X158673800Y-174091600D02*
X159801600Y-175219400D01*
X163576000Y-173132898D02*
X163576000Y-173319400D01*
X161391600Y-170948498D02*
X163576000Y-173132898D01*
X161391600Y-170484800D02*
X161391600Y-170948498D01*
X162941815Y-169093615D02*
X161489630Y-169093615D01*
X163601400Y-169753200D02*
X162941815Y-169093615D01*
X161728790Y-169780590D02*
X161318324Y-169780590D01*
X163601400Y-171653200D02*
X161728790Y-169780590D01*
D41*
X139183500Y-119907500D02*
X139183500Y-119407500D01*
X140371000Y-121947500D02*
X140208000Y-122110500D01*
X140371000Y-120595000D02*
X140371000Y-121947500D01*
X142371000Y-121924000D02*
X142557500Y-122110500D01*
X142371000Y-120595000D02*
X142371000Y-121924000D01*
X134048673Y-120602327D02*
X133769353Y-120602327D01*
X134620000Y-120031000D02*
X134048673Y-120602327D01*
X134189359Y-116246765D02*
X134189359Y-116758568D01*
X134907000Y-115529124D02*
X134189359Y-116246765D01*
X134202291Y-116771500D02*
X134189359Y-116758568D01*
X134371000Y-116771500D02*
X134202291Y-116771500D01*
X139183500Y-115907500D02*
X137903900Y-115907500D01*
X137525524Y-115529124D02*
X134907000Y-115529124D01*
X137903900Y-115907500D02*
X137525524Y-115529124D01*
D40*
X134620000Y-120031000D02*
X137870013Y-120031000D01*
X137870013Y-120031000D02*
X138528410Y-120689397D01*
D41*
X139183500Y-119907500D02*
X138528410Y-120562590D01*
X138528410Y-120562590D02*
X138528410Y-120689397D01*
D43*
X154178000Y-135586907D02*
X155023059Y-135586907D01*
X156818893Y-134497323D02*
X156887817Y-134428399D01*
X155023059Y-135586907D02*
X156112643Y-134497323D01*
X156112643Y-134497323D02*
X156818893Y-134497323D01*
X156233074Y-129336622D02*
X156913083Y-129336622D01*
X150472979Y-130070023D02*
X155140463Y-130070023D01*
X142519401Y-131953001D02*
X148590001Y-131953001D01*
X142214600Y-131648200D02*
X142519401Y-131953001D01*
X155499673Y-130070023D02*
X156233074Y-129336622D01*
X148590001Y-131953001D02*
X150472979Y-130070023D01*
X155140463Y-130070023D02*
X155499673Y-130070023D01*
X146975352Y-148856600D02*
X146950876Y-148832124D01*
X147728200Y-148856600D02*
X146975352Y-148856600D01*
D42*
X152120069Y-151688269D02*
X150773338Y-153035000D01*
X149120210Y-152567016D02*
X149120210Y-152105984D01*
X149120210Y-152105984D02*
X147728200Y-150713974D01*
X150773338Y-153035000D02*
X149588194Y-153035000D01*
X149588194Y-153035000D02*
X149120210Y-152567016D01*
X147728200Y-150713974D02*
X147728200Y-148856600D01*
D43*
X168742784Y-132928784D02*
X169221416Y-133407416D01*
X165763703Y-132928784D02*
X168742784Y-132928784D01*
X165644097Y-133048390D02*
X165763703Y-132928784D01*
X163430026Y-133048390D02*
X165644097Y-133048390D01*
X162731527Y-133746889D02*
X163430026Y-133048390D01*
X158706346Y-133746889D02*
X162731527Y-133746889D01*
X158664605Y-133705148D02*
X158706346Y-133746889D01*
D42*
X161852837Y-157257778D02*
X161802035Y-157308580D01*
X167667278Y-157257778D02*
X161852837Y-157257778D01*
X167819677Y-157105379D02*
X167667278Y-157257778D01*
X155803600Y-152212000D02*
X157139159Y-152212000D01*
X157139159Y-152212000D02*
X157225881Y-152125278D01*
X159867600Y-154842010D02*
X159867600Y-154482800D01*
X155803600Y-154112000D02*
X155803600Y-154717898D01*
X155803600Y-154717898D02*
X157081312Y-155995610D01*
X157081312Y-155995610D02*
X158714000Y-155995610D01*
X158714000Y-155995610D02*
X159867600Y-154842010D01*
X161645600Y-155549600D02*
X162255200Y-156159200D01*
X161645600Y-154736800D02*
X161645600Y-155549600D01*
X160355200Y-155214400D02*
X160782000Y-154787600D01*
X160355200Y-156159200D02*
X160355200Y-155214400D01*
X163655390Y-152095200D02*
X163604590Y-152146000D01*
X165557200Y-152095200D02*
X163655390Y-152095200D01*
X164053600Y-153995200D02*
X163169600Y-153111200D01*
X165557200Y-153995200D02*
X164053600Y-153995200D01*
X157784800Y-155194000D02*
X157784800Y-154311382D01*
X157784800Y-154311382D02*
X157394228Y-153920810D01*
D43*
X156895809Y-132689609D02*
X156895799Y-132689598D01*
X156895809Y-132689609D02*
X156870389Y-132689609D01*
X156870389Y-132689609D02*
X156359200Y-133200798D01*
X152117402Y-133200798D02*
X152069800Y-133248400D01*
X156359200Y-133200798D02*
X152117402Y-133200798D01*
X158572199Y-152742839D02*
X157394228Y-153920810D01*
X158318200Y-149275800D02*
X158572199Y-149529799D01*
X158572199Y-149529799D02*
X158572199Y-152742839D01*
X158061907Y-132473291D02*
X160214894Y-132473291D01*
X157670997Y-132864201D02*
X158061907Y-132473291D01*
X157070401Y-132864201D02*
X157670997Y-132864201D01*
X156895809Y-132689609D02*
X157070401Y-132864201D01*
X160214894Y-132473291D02*
X160605871Y-132864268D01*
D42*
X163962000Y-156088000D02*
X163962000Y-156159200D01*
X162458400Y-154584400D02*
X163962000Y-156088000D01*
D41*
X227059436Y-165102974D02*
X226538579Y-164582117D01*
X229202885Y-165102974D02*
X227059436Y-165102974D01*
X226525279Y-162668817D02*
X226538579Y-162682117D01*
X224354179Y-162668817D02*
X226525279Y-162668817D01*
X230635617Y-163891156D02*
X227747618Y-163891156D01*
X227747618Y-163891156D02*
X226538579Y-162682117D01*
X233837302Y-160689471D02*
X230635617Y-163891156D01*
X233837302Y-159859802D02*
X233837302Y-160689471D01*
D42*
X235331000Y-150622000D02*
X235013500Y-150304500D01*
D43*
X230324579Y-148218517D02*
X230324579Y-146357421D01*
X230324579Y-146357421D02*
X231394000Y-145288000D01*
X233426000Y-145288000D02*
X233657790Y-145519790D01*
X231394000Y-145288000D02*
X233426000Y-145288000D01*
X233657790Y-145519790D02*
X233657790Y-145796000D01*
X234442000Y-150876000D02*
X235013500Y-150304500D01*
X234442000Y-151384000D02*
X234442000Y-150876000D01*
X233657790Y-145818210D02*
X233426000Y-146050000D01*
X233657790Y-145519790D02*
X233657790Y-145818210D01*
X218738599Y-142043001D02*
X218744800Y-142036800D01*
X219405983Y-141718517D02*
X223124579Y-141718517D01*
X219138500Y-141986000D02*
X219405983Y-141718517D01*
D42*
X218148500Y-141986000D02*
X219138500Y-141986000D01*
X217005500Y-143129000D02*
X218148500Y-141986000D01*
D43*
X219138500Y-139486000D02*
X219138500Y-140652500D01*
X220268179Y-141218517D02*
X222324579Y-141218517D01*
X219702162Y-140652500D02*
X220268179Y-141218517D01*
X219138500Y-140652500D02*
X219702162Y-140652500D01*
X217881500Y-138229000D02*
X219138500Y-139486000D01*
X217881500Y-137858500D02*
X217881500Y-138229000D01*
D41*
X154573500Y-161963000D02*
X154573500Y-161163000D01*
D44*
X147127000Y-154178000D02*
X146746000Y-153797000D01*
X148082000Y-154178000D02*
X147127000Y-154178000D01*
X148402000Y-154178000D02*
X150180000Y-155956000D01*
X148082000Y-154178000D02*
X148402000Y-154178000D01*
D41*
X136779000Y-165481000D02*
X139192926Y-163067074D01*
X139192926Y-163067074D02*
X144270148Y-163067074D01*
D44*
X158065250Y-161826918D02*
X158400390Y-161491778D01*
X157832454Y-161826918D02*
X158065250Y-161826918D01*
X158937674Y-160721698D02*
X159287962Y-160721698D01*
X170833889Y-161392314D02*
X171723669Y-160502534D01*
X159958578Y-161392314D02*
X170833889Y-161392314D01*
X159287962Y-160721698D02*
X159958578Y-161392314D01*
X154573500Y-161963000D02*
X155164001Y-162553501D01*
X157105871Y-162553501D02*
X157832454Y-161826918D01*
X171723669Y-160502534D02*
X172921376Y-160502534D01*
X158400390Y-161258982D02*
X158937674Y-160721698D01*
X158400390Y-161491778D02*
X158400390Y-161258982D01*
X155164001Y-162553501D02*
X157105871Y-162553501D01*
X172921376Y-160502534D02*
X173130875Y-160712033D01*
X154573500Y-161963000D02*
X152184000Y-161963000D01*
X150180000Y-159959000D02*
X150180000Y-155956000D01*
X152184000Y-161963000D02*
X150180000Y-159959000D01*
D41*
X138289500Y-122176500D02*
X139871000Y-120595000D01*
X138112500Y-122176500D02*
X138289500Y-122176500D01*
D42*
X213296500Y-158623000D02*
X213487000Y-158813500D01*
X208875000Y-158623000D02*
X213296500Y-158623000D01*
D43*
X207899000Y-161544000D02*
X207942000Y-161587000D01*
X203009500Y-161544000D02*
X207899000Y-161544000D01*
D41*
X227397484Y-144124162D02*
X230552758Y-144124162D01*
X227040878Y-143767556D02*
X227397484Y-144124162D01*
X228824579Y-141716519D02*
X227814185Y-142726913D01*
X227040878Y-143213904D02*
X227040878Y-143767556D01*
X227527869Y-142726913D02*
X227040878Y-143213904D01*
X227814185Y-142726913D02*
X227527869Y-142726913D01*
X228824579Y-140018517D02*
X228824579Y-141716519D01*
X230552758Y-144124162D02*
X230949500Y-143727420D01*
D43*
X229627936Y-155003500D02*
X226833936Y-157797500D01*
X230379297Y-155003500D02*
X229627936Y-155003500D01*
X214503000Y-157797500D02*
X213487000Y-158813500D01*
X226833936Y-157797500D02*
X214503000Y-157797500D01*
D42*
X230949500Y-154622500D02*
X230379297Y-155003500D01*
X230949500Y-153543000D02*
X230949500Y-154622500D01*
X233463500Y-150304500D02*
X230949500Y-153543000D01*
D43*
X200542622Y-139700000D02*
X196364210Y-135521588D01*
X207645000Y-139700000D02*
X200542622Y-139700000D01*
X196364210Y-135521588D02*
X196364210Y-134789281D01*
X219518970Y-142805694D02*
X220515805Y-142805694D01*
X207645000Y-139700000D02*
X211825210Y-143880210D01*
X211825210Y-143880210D02*
X216101018Y-143880210D01*
X216101018Y-143880210D02*
X216217280Y-143763948D01*
X216217280Y-143763948D02*
X216456630Y-143763948D01*
X218479582Y-143845082D02*
X219518970Y-142805694D01*
X221102982Y-142218517D02*
X222324579Y-142218517D01*
X220515805Y-142805694D02*
X221102982Y-142218517D01*
X218193266Y-143845082D02*
X218479582Y-143845082D01*
X218158138Y-143880210D02*
X218193266Y-143845082D01*
X216572892Y-143880210D02*
X218158138Y-143880210D01*
X216456630Y-143763948D02*
X216572892Y-143880210D01*
X203098400Y-143154400D02*
X195834000Y-135890000D01*
X207733900Y-143154400D02*
X203098400Y-143154400D01*
X217033100Y-148250222D02*
X216540384Y-147757506D01*
X219549335Y-148250222D02*
X217033100Y-148250222D01*
X221880593Y-146718517D02*
X221126046Y-147473064D01*
X223124579Y-146718517D02*
X221880593Y-146718517D01*
X220326493Y-147473064D02*
X219549335Y-148250222D01*
X207733900Y-143154400D02*
X208896887Y-144317387D01*
X221126046Y-147473064D02*
X220326493Y-147473064D01*
X216369186Y-144317387D02*
X216447075Y-144395276D01*
X208896887Y-144317387D02*
X216369186Y-144317387D01*
X225824579Y-140018517D02*
X225863743Y-140057681D01*
X220322790Y-145243626D02*
X220625266Y-145243626D01*
X225863743Y-140057681D02*
X225863743Y-141807076D01*
X219106825Y-146459589D02*
X220322790Y-145243626D01*
X217519173Y-146459589D02*
X219106825Y-146459589D01*
X204360873Y-145305873D02*
X215823224Y-145305873D01*
X195961000Y-136906000D02*
X204360873Y-145305873D01*
X217425868Y-146366284D02*
X217519173Y-146459589D01*
X215990117Y-146366284D02*
X217425868Y-146366284D01*
D42*
X141263600Y-149489200D02*
X141554200Y-149198600D01*
X139785600Y-149489200D02*
X141263600Y-149489200D01*
X141756400Y-148996400D02*
X141554200Y-149198600D01*
X143130000Y-148996400D02*
X141756400Y-148996400D01*
D43*
X143130000Y-149607000D02*
X143560800Y-150037800D01*
X143130000Y-148996400D02*
X143130000Y-149607000D01*
D42*
X162610800Y-177165000D02*
X162712400Y-177266600D01*
X156164834Y-177012601D02*
X153909529Y-174757296D01*
X162458401Y-177012601D02*
X156164834Y-177012601D01*
X162712400Y-177266600D02*
X162458401Y-177012601D01*
X152106886Y-124206000D02*
X152510097Y-123802789D01*
X152510097Y-123802789D02*
X165906798Y-123802789D01*
X165906798Y-123802789D02*
X166059197Y-123650390D01*
D43*
X147223274Y-146377514D02*
X146674992Y-145829232D01*
X154182976Y-146377514D02*
X147223274Y-146377514D01*
X163908788Y-145392188D02*
X155168302Y-145392188D01*
X164795200Y-146278600D02*
X163908788Y-145392188D01*
X155168302Y-145392188D02*
X154182976Y-146377514D01*
X146674992Y-145829232D02*
X144322800Y-145829232D01*
X155164084Y-166569365D02*
X155164084Y-167107127D01*
X155164084Y-167107127D02*
X153644177Y-168627034D01*
X153644177Y-168627034D02*
X153644177Y-169316134D01*
X155439788Y-166293661D02*
X155164084Y-166569365D01*
X156225541Y-166293661D02*
X155439788Y-166293661D01*
X157042404Y-165476798D02*
X156225541Y-166293661D01*
X158298598Y-165476798D02*
X157042404Y-165476798D01*
X159572800Y-166751000D02*
X158298598Y-165476798D01*
X164058600Y-166751000D02*
X159572800Y-166751000D01*
D42*
X141513600Y-147589200D02*
X141554200Y-147548600D01*
X139785600Y-147589200D02*
X141513600Y-147589200D01*
X141605000Y-147497800D02*
X141554200Y-147548600D01*
X143180800Y-147497800D02*
X141605000Y-147497800D01*
D43*
X143180800Y-146633200D02*
X143256000Y-146558000D01*
X143180800Y-147497800D02*
X143180800Y-146633200D01*
X143535400Y-143357600D02*
X149512942Y-143357600D01*
X149512942Y-143357600D02*
X149901852Y-142968690D01*
X160840438Y-146151600D02*
X161247439Y-145744599D01*
X156972000Y-146151600D02*
X160840438Y-146151600D01*
X161247439Y-145744599D02*
X163422999Y-145744599D01*
X163874412Y-146196012D02*
X163887188Y-146196012D01*
X163422999Y-145744599D02*
X163874412Y-146196012D01*
X163874412Y-146958012D02*
X163963388Y-147046988D01*
X163874412Y-146196012D02*
X163874412Y-146958012D01*
X162887500Y-183997600D02*
X150444200Y-183997600D01*
X166395400Y-187505500D02*
X162887500Y-183997600D01*
X166395400Y-188341000D02*
X166395400Y-187505500D01*
D42*
X149901852Y-142968690D02*
X152063328Y-142968690D01*
X152063328Y-142968690D02*
X153587231Y-144492593D01*
X153587231Y-144492593D02*
X154260769Y-144492593D01*
X154260769Y-144492593D02*
X156816678Y-141936684D01*
X156816678Y-141936684D02*
X162823705Y-141936684D01*
X162823705Y-141936684D02*
X164265539Y-143378518D01*
X150849172Y-124243430D02*
X150849172Y-125025599D01*
X150849172Y-125025599D02*
X151330010Y-125506437D01*
D43*
X159063854Y-161511024D02*
X159041173Y-161511024D01*
X158072518Y-162293629D02*
X156621799Y-163744348D01*
X156621799Y-163744348D02*
X154898652Y-163744348D01*
X154898652Y-163744348D02*
X151729922Y-166913078D01*
X158258568Y-162293629D02*
X158072518Y-162293629D01*
X159041173Y-161511024D02*
X158258568Y-162293629D01*
D42*
X168224200Y-151790400D02*
X168224200Y-151765000D01*
X168224200Y-151765000D02*
X166192200Y-149733000D01*
X164617400Y-149733000D02*
X164350700Y-149999700D01*
X166192200Y-149733000D02*
X164617400Y-149733000D01*
X161918400Y-148320800D02*
X162240000Y-148320800D01*
X163918900Y-149999700D02*
X164350700Y-149999700D01*
X162240000Y-148320800D02*
X163918900Y-149999700D01*
X168224200Y-153263600D02*
X168173400Y-153314400D01*
X168224200Y-151790400D02*
X168224200Y-153263600D01*
D43*
X164294200Y-126441200D02*
X167216673Y-129363673D01*
X160348002Y-126441200D02*
X164294200Y-126441200D01*
X168224200Y-151009044D02*
X167997239Y-150782083D01*
X168224200Y-151790400D02*
X168224200Y-151009044D01*
X154459262Y-166815181D02*
X153470196Y-167804247D01*
X159201157Y-165382589D02*
X158547144Y-164728576D01*
X154459262Y-166277419D02*
X154459262Y-166815181D01*
X158547144Y-164728576D02*
X156793858Y-164728576D01*
X168002027Y-165382589D02*
X159201157Y-165382589D01*
X155147840Y-165588841D02*
X154459262Y-166277419D01*
X156793858Y-164728576D02*
X155933593Y-165588841D01*
X172010401Y-161850506D02*
X171534110Y-161850506D01*
X155933593Y-165588841D02*
X155147840Y-165588841D01*
X171534110Y-161850506D02*
X168002027Y-165382589D01*
X153470196Y-167804247D02*
X152667806Y-167804247D01*
D42*
X161918400Y-146420800D02*
X163400110Y-147902510D01*
X163400110Y-147902510D02*
X163400110Y-148695158D01*
X169874200Y-151790400D02*
X169874200Y-151315400D01*
X169874200Y-151315400D02*
X167253958Y-148695158D01*
X167253958Y-148695158D02*
X163400110Y-148695158D01*
X169874200Y-153262600D02*
X169976800Y-153365200D01*
X169874200Y-151790400D02*
X169874200Y-153262600D01*
X159613600Y-125320589D02*
X159697040Y-125404029D01*
X159697040Y-125404029D02*
X166660643Y-125404029D01*
D43*
X169976800Y-153365200D02*
X170580356Y-153365200D01*
X170580356Y-153365200D02*
X171206550Y-153991394D01*
X158222544Y-162646040D02*
X155632154Y-165236430D01*
X153144573Y-166914827D02*
X153144573Y-167274037D01*
X172126829Y-161152132D02*
X171734100Y-161152132D01*
X158954207Y-162096374D02*
X158404541Y-162646040D01*
X154822970Y-165236430D02*
X153144573Y-166914827D01*
X171734100Y-161152132D02*
X170789858Y-162096374D01*
X170789858Y-162096374D02*
X158954207Y-162096374D01*
X158404541Y-162646040D02*
X158222544Y-162646040D01*
X155632154Y-165236430D02*
X154822970Y-165236430D01*
X227824579Y-137554421D02*
X227863400Y-137515600D01*
X227824579Y-140018517D02*
X227824579Y-137554421D01*
X218081046Y-101799846D02*
X216099846Y-101799846D01*
X221361000Y-105079800D02*
X218081046Y-101799846D01*
X220970042Y-147120654D02*
X220167817Y-147120654D01*
X221872179Y-146218517D02*
X220970042Y-147120654D01*
X222324579Y-146218517D02*
X221872179Y-146218517D01*
X220167817Y-147120654D02*
X219568450Y-147720021D01*
X219568450Y-147720021D02*
X218444855Y-147720021D01*
X222882123Y-127712710D02*
X222882123Y-127639982D01*
X222468859Y-128125974D02*
X222882123Y-127712710D01*
X222468859Y-128397000D02*
X222468859Y-128125974D01*
X222406251Y-128397000D02*
X222468859Y-128397000D01*
X218313000Y-132969000D02*
X218313000Y-132490251D01*
X218313000Y-132490251D02*
X222406251Y-128397000D01*
X223274256Y-127247849D02*
X223392800Y-127247849D01*
X222882123Y-127639982D02*
X223274256Y-127247849D01*
X224155001Y-145834273D02*
X224155001Y-144820747D01*
X224337674Y-148205422D02*
X224337674Y-146016946D01*
X224324579Y-148218517D02*
X224337674Y-148205422D01*
X224155001Y-144820747D02*
X224651799Y-144323949D01*
X224337674Y-146016946D02*
X224155001Y-145834273D01*
D41*
X198330619Y-193197880D02*
X200957447Y-190571052D01*
X200957447Y-190571052D02*
X202486379Y-190571052D01*
X202486379Y-190571052D02*
X203336378Y-191421051D01*
D42*
X158546800Y-166547800D02*
X155568612Y-169525988D01*
X155568612Y-169525988D02*
X155568612Y-171737150D01*
X155568612Y-171737150D02*
X155369341Y-171936421D01*
X184277000Y-195275200D02*
X181215026Y-195275200D01*
X181167415Y-195227589D02*
X173521618Y-195227589D01*
X173521618Y-195227589D02*
X172797720Y-194503691D01*
X181215026Y-195275200D02*
X181167415Y-195227589D01*
X159372300Y-189293500D02*
X158648400Y-188569600D01*
X170450092Y-191141599D02*
X170446537Y-191141876D01*
X170446537Y-191141876D02*
X170045250Y-190798487D01*
X171119800Y-191783886D02*
X170611224Y-191275310D01*
X171119800Y-191897000D02*
X171119800Y-191783886D01*
X170611224Y-191275310D02*
X170450092Y-191141599D01*
X168371500Y-189293500D02*
X159372300Y-189293500D01*
X169876487Y-190798487D02*
X168371500Y-189293500D01*
X170045250Y-190798487D02*
X169876487Y-190798487D01*
X191909700Y-192620900D02*
X198330619Y-193197880D01*
X191325500Y-192697100D02*
X191909700Y-192620900D01*
D41*
X155359440Y-139438490D02*
X155684036Y-139763086D01*
X145440400Y-140360400D02*
X153535150Y-140360400D01*
X157152411Y-139763086D02*
X157406410Y-139509087D01*
X155684036Y-139763086D02*
X157152411Y-139763086D01*
X153535150Y-140360400D02*
X154457060Y-139438490D01*
X154457060Y-139438490D02*
X155359440Y-139438490D01*
D42*
X159116505Y-187718700D02*
X165823900Y-187718700D01*
X156259005Y-184861200D02*
X159116505Y-187718700D01*
X154825700Y-184861200D02*
X156259005Y-184861200D01*
X169350033Y-195059301D02*
X170289832Y-195999100D01*
X168706799Y-195059301D02*
X169350033Y-195059301D01*
X168452800Y-195313300D02*
X168706799Y-195059301D01*
X170289832Y-195999100D02*
X183959500Y-195999100D01*
D41*
X145262600Y-139547600D02*
X145313716Y-139598716D01*
X156268983Y-138924979D02*
X156432192Y-139088188D01*
X145313716Y-139598716D02*
X153660423Y-139598716D01*
X154334160Y-138924979D02*
X156268983Y-138924979D01*
X153660423Y-139598716D02*
X154334160Y-138924979D01*
D42*
X154552189Y-170771011D02*
X154355800Y-170967400D01*
X156819600Y-166484300D02*
X154552189Y-168751711D01*
X154552189Y-168751711D02*
X154552189Y-170771011D01*
D44*
X207773370Y-189107099D02*
X207940421Y-189274150D01*
X205042959Y-189107099D02*
X207773370Y-189107099D01*
X198462899Y-189445899D02*
X204704159Y-189445899D01*
X198005700Y-189166500D02*
X198462899Y-189445899D01*
X204704159Y-189445899D02*
X205042959Y-189107099D01*
D41*
X189022878Y-194386200D02*
X190004212Y-195367534D01*
X186414313Y-194687287D02*
X187365409Y-194386200D01*
X184433313Y-196668287D02*
X186414313Y-194687287D01*
X181065096Y-196668287D02*
X184433313Y-196668287D01*
X187365409Y-194386200D02*
X189022878Y-194386200D01*
D43*
X155013010Y-169045697D02*
X155013010Y-171324613D01*
X157627180Y-166072317D02*
X157627180Y-166431527D01*
X157627180Y-166431527D02*
X155013010Y-169045697D01*
X167700569Y-188890290D02*
X159753790Y-188890290D01*
X159753790Y-188890290D02*
X158858550Y-187995050D01*
X167852969Y-188737890D02*
X167700569Y-188890290D01*
X158858550Y-187995050D02*
X157549840Y-187995050D01*
X169845351Y-196376911D02*
X169159722Y-195691282D01*
X180773720Y-196376911D02*
X169845351Y-196376911D01*
X181065096Y-196668287D02*
X180773720Y-196376911D01*
D41*
X142234801Y-143936601D02*
X152427920Y-143936601D01*
X152427920Y-143936601D02*
X153410523Y-144919204D01*
X153410523Y-144919204D02*
X154437477Y-144919204D01*
X139929424Y-141631224D02*
X142234801Y-143936601D01*
X154437477Y-144919204D02*
X156863567Y-142493114D01*
X156863567Y-142493114D02*
X157364621Y-142493114D01*
X190447507Y-196984582D02*
X192505623Y-194926467D01*
X190187737Y-197025467D02*
X190447507Y-196984582D01*
X189553558Y-197118298D02*
X189725251Y-197094248D01*
X189725251Y-197094248D02*
X190187737Y-197025467D01*
X141808200Y-141122400D02*
X140335000Y-139649200D01*
X146456400Y-141122400D02*
X141808200Y-141122400D01*
D43*
X155694285Y-167075310D02*
X154174378Y-168595217D01*
X154174378Y-168595217D02*
X154174378Y-170276932D01*
X154174378Y-170276932D02*
X153668895Y-170782415D01*
X155694285Y-166823862D02*
X155694285Y-167075310D01*
D42*
X155360547Y-155174045D02*
X155360547Y-155681268D01*
X154491502Y-154305000D02*
X155360547Y-155174045D01*
X153781481Y-154305000D02*
X154491502Y-154305000D01*
X150495000Y-154432000D02*
X153654481Y-154432000D01*
X149501209Y-153438209D02*
X150495000Y-154432000D01*
X149421179Y-153438209D02*
X149501209Y-153438209D01*
X153654481Y-154432000D02*
X153781481Y-154305000D01*
X147620968Y-151638000D02*
X149421179Y-153438209D01*
X145542000Y-151638000D02*
X147620968Y-151638000D01*
X180049498Y-197118298D02*
X180009800Y-197078600D01*
D41*
X181251496Y-197118298D02*
X181381702Y-197118298D01*
D42*
X181381702Y-197118298D02*
X180049498Y-197118298D01*
D41*
X181381702Y-197118298D02*
X189553558Y-197118298D01*
D44*
X169672647Y-191290597D02*
X168535988Y-190153938D01*
X169863438Y-191290598D02*
X169672647Y-191290597D01*
X170265702Y-193778502D02*
X170265702Y-191634824D01*
X170265702Y-191634824D02*
X169863438Y-191290598D01*
X170260903Y-193783301D02*
X170265702Y-193778502D01*
X168535988Y-190153938D02*
X161975112Y-190153938D01*
D41*
X151110845Y-187731632D02*
X148500000Y-185120787D01*
X151547182Y-187731632D02*
X151110845Y-187731632D01*
X153871050Y-190055500D02*
X151547182Y-187731632D01*
X148500000Y-185120787D02*
X148500000Y-184000000D01*
X158155705Y-190055500D02*
X153871050Y-190055500D01*
D43*
X231324579Y-138170079D02*
X229743000Y-136588500D01*
X231324579Y-139218517D02*
X231324579Y-138170079D01*
D42*
X208806621Y-136650964D02*
X208809705Y-136654048D01*
X208806621Y-136619290D02*
X208806621Y-136650964D01*
D43*
X220239952Y-136448800D02*
X226576835Y-136448800D01*
X208806621Y-136619290D02*
X214751241Y-136619290D01*
X214751241Y-136619290D02*
X215334510Y-136036021D01*
X227148270Y-135877365D02*
X229031865Y-135877365D01*
X219827173Y-136036021D02*
X220239952Y-136448800D01*
X229031865Y-135877365D02*
X229743000Y-136588500D01*
X215334510Y-136036021D02*
X219827173Y-136036021D01*
X226576835Y-136448800D02*
X227148270Y-135877365D01*
X210769200Y-139242800D02*
X213569401Y-142043001D01*
X213569401Y-142360501D02*
X213626700Y-142417800D01*
X213569401Y-142043001D02*
X213569401Y-142360501D01*
X222621114Y-149897230D02*
X226762072Y-149897230D01*
X227824579Y-148834723D02*
X227824579Y-147418517D01*
X214768698Y-151624298D02*
X220894046Y-151624298D01*
X226762072Y-149897230D02*
X227824579Y-148834723D01*
X214693500Y-151549100D02*
X214768698Y-151624298D01*
X220894046Y-151624298D02*
X222621114Y-149897230D01*
D42*
X222138791Y-147218517D02*
X220376865Y-148980443D01*
X220376865Y-148980443D02*
X212783046Y-148980443D01*
X222324579Y-147218517D02*
X222138791Y-147218517D01*
X212783046Y-148980443D02*
X212163868Y-149599621D01*
X212163868Y-149599621D02*
X211923536Y-149599621D01*
X222464620Y-149519419D02*
X221272147Y-150711893D01*
X212520929Y-150957645D02*
X211110617Y-150957645D01*
X227324579Y-148218517D02*
X226023677Y-149519419D01*
X220027026Y-150711893D02*
X219501209Y-150186076D01*
X221272147Y-150711893D02*
X220027026Y-150711893D01*
X211110617Y-150957645D02*
X211034622Y-150881650D01*
X219501209Y-150186076D02*
X213292498Y-150186076D01*
X226023677Y-149519419D02*
X222464620Y-149519419D01*
X213292498Y-150186076D02*
X212520929Y-150957645D01*
D43*
X229324579Y-148218517D02*
X229324579Y-149772878D01*
X229324579Y-149772878D02*
X228806390Y-150291067D01*
X232346500Y-148240438D02*
X232324579Y-148218517D01*
X232346500Y-150241000D02*
X232346500Y-148240438D01*
D41*
X199498000Y-94342000D02*
X198628000Y-93472000D01*
X199810000Y-94342000D02*
X199498000Y-94342000D01*
X184709500Y-92496500D02*
X186049971Y-93836971D01*
X186049971Y-93836971D02*
X197129934Y-93836971D01*
X197129934Y-93836971D02*
X197494905Y-93472000D01*
X197494905Y-93472000D02*
X198628000Y-93472000D01*
X229108000Y-167132000D02*
X221615000Y-167132000D01*
X221615000Y-167132000D02*
X221361000Y-167386000D01*
D43*
X228324579Y-149533277D02*
X227533529Y-150324327D01*
X228324579Y-148218517D02*
X228324579Y-149533277D01*
D41*
X209314003Y-165342423D02*
X208217818Y-164246238D01*
X213993289Y-165875823D02*
X213459889Y-165342423D01*
X219646500Y-165700032D02*
X219287290Y-165700032D01*
X208217818Y-164246238D02*
X202514087Y-164246238D01*
X219111499Y-165875823D02*
X213993289Y-165875823D01*
X219287290Y-165700032D02*
X219111499Y-165875823D01*
X202514087Y-164246238D02*
X196257767Y-157989918D01*
X213459889Y-165342423D02*
X209314003Y-165342423D01*
X196257767Y-157989918D02*
X191168342Y-157989918D01*
X190991962Y-157813538D02*
X190904922Y-157726498D01*
X191168342Y-157989918D02*
X190991962Y-157813538D01*
D42*
X188006124Y-158370964D02*
X189207484Y-157169604D01*
X190991962Y-157813538D02*
X190991962Y-157567209D01*
X190991962Y-157567209D02*
X190848356Y-157423603D01*
X190594357Y-157169604D02*
X190848356Y-157423603D01*
X189207484Y-157169604D02*
X190594357Y-157169604D01*
D43*
X156273500Y-161963000D02*
X156975306Y-161963000D01*
X156975306Y-161963000D02*
X157755889Y-161182417D01*
X154162674Y-160029510D02*
X158191120Y-160029510D01*
D42*
X153899164Y-159766000D02*
X154162674Y-160029510D01*
X153035000Y-159766000D02*
X153899164Y-159766000D01*
D43*
X158410209Y-159810421D02*
X158191120Y-160029510D01*
X172343582Y-159683412D02*
X172089592Y-159429422D01*
X162977451Y-159810421D02*
X158410209Y-159810421D01*
X172089592Y-159429422D02*
X163358450Y-159429422D01*
X173997818Y-158782012D02*
X173096418Y-159683412D01*
X187595076Y-158782012D02*
X173997818Y-158782012D01*
X188006124Y-158370964D02*
X187595076Y-158782012D01*
X173096418Y-159683412D02*
X172343582Y-159683412D01*
X163358450Y-159429422D02*
X162977451Y-159810421D01*
D41*
X197349084Y-94668989D02*
X197749083Y-94268990D01*
X199810000Y-95142000D02*
X198622093Y-95142000D01*
X184209500Y-93405911D02*
X185472578Y-94668989D01*
X184209500Y-92496500D02*
X184209500Y-93405911D01*
X185472578Y-94668989D02*
X197349084Y-94668989D01*
X198622093Y-95142000D02*
X197749083Y-94268990D01*
D43*
X230824579Y-150991305D02*
X229209411Y-152606473D01*
X229209411Y-152606473D02*
X227551054Y-152606473D01*
X227551054Y-152606473D02*
X227297055Y-152352474D01*
X230824579Y-147418517D02*
X230824579Y-150991305D01*
D42*
X225856811Y-167592399D02*
X225364710Y-168084500D01*
X228663500Y-168021000D02*
X228234899Y-167592399D01*
X228234899Y-167592399D02*
X225856811Y-167592399D01*
X225364710Y-168084500D02*
X220726000Y-168084500D01*
D41*
X200348800Y-95142000D02*
X200348800Y-95216991D01*
X199810000Y-95142000D02*
X200348800Y-95142000D01*
X208933460Y-165795146D02*
X207834563Y-164696249D01*
X207834563Y-164696249D02*
X201805879Y-164696249D01*
X213276201Y-165795146D02*
X208933460Y-165795146D01*
X213870117Y-166389062D02*
X213276201Y-165795146D01*
X201805879Y-164696249D02*
X195599636Y-158490006D01*
X219483656Y-166389062D02*
X213870117Y-166389062D01*
D42*
X188979518Y-159128800D02*
X189967498Y-158140820D01*
X189967498Y-158140820D02*
X189967498Y-157781610D01*
X188331522Y-159143174D02*
X188345896Y-159128800D01*
X188345896Y-159128800D02*
X188979518Y-159128800D01*
X190991634Y-158416526D02*
X190992026Y-158416526D01*
X190356718Y-157781610D02*
X190991634Y-158416526D01*
X189967498Y-157781610D02*
X190356718Y-157781610D01*
X191065506Y-158490006D02*
X195599636Y-158490006D01*
X190992026Y-158416526D02*
X191065506Y-158490006D01*
D43*
X156273500Y-161163000D02*
X155540869Y-160430369D01*
X155540869Y-160430369D02*
X154065149Y-160430369D01*
D42*
X153967518Y-160528000D02*
X154065149Y-160430369D01*
X152273000Y-160528000D02*
X153967518Y-160528000D01*
D43*
X170321997Y-160035823D02*
X174136193Y-160035823D01*
X169432217Y-160925603D02*
X170321997Y-160035823D01*
X175028842Y-159143174D02*
X188331522Y-159143174D01*
X156273500Y-161163000D02*
X156876788Y-160559712D01*
X158418486Y-160559712D02*
X158723211Y-160254987D01*
X174136193Y-160035823D02*
X175028842Y-159143174D01*
X156876788Y-160559712D02*
X158418486Y-160559712D01*
X159481280Y-160254987D02*
X160151896Y-160925603D01*
X160151896Y-160925603D02*
X169432217Y-160925603D01*
X158723211Y-160254987D02*
X159481280Y-160254987D01*
X231324579Y-149402069D02*
X231528510Y-149606000D01*
X231324579Y-148218517D02*
X231324579Y-149402069D01*
X236000000Y-137000000D02*
X236288637Y-135846540D01*
X236288637Y-135846540D02*
X235244622Y-134802525D01*
X235244622Y-134802525D02*
X235182941Y-134802525D01*
X235182941Y-134802525D02*
X232254654Y-131874238D01*
X232254654Y-131874238D02*
X232254654Y-128171346D01*
X232254654Y-128171346D02*
X233045000Y-127381000D01*
X231824579Y-147418517D02*
X231824579Y-146163399D01*
X231824579Y-146163399D02*
X231881039Y-146106939D01*
X230776897Y-130648200D02*
X231724452Y-131595755D01*
X230378000Y-130648200D02*
X230776897Y-130648200D01*
X211680411Y-157318089D02*
X211582000Y-157416500D01*
X226814963Y-157318089D02*
X211680411Y-157318089D01*
X230379317Y-154178000D02*
X229955052Y-154178000D01*
X229955052Y-154178000D02*
X226814963Y-157318089D01*
D41*
X230761817Y-142974357D02*
X232543379Y-141192795D01*
X232543379Y-141192795D02*
X232543379Y-141118880D01*
D43*
X211944749Y-163649010D02*
X219897843Y-163649010D01*
X219897843Y-163649010D02*
X220863043Y-162683810D01*
X221378727Y-143718517D02*
X221305034Y-143644824D01*
X219676608Y-143644824D02*
X218593737Y-144727695D01*
X221305034Y-143644824D02*
X219676608Y-143644824D01*
X223124579Y-143718517D02*
X221378727Y-143718517D01*
D42*
X215087190Y-165449212D02*
X214423602Y-165449212D01*
X215391980Y-165144422D02*
X215087190Y-165449212D01*
X220752044Y-165144422D02*
X215391980Y-165144422D01*
X214423602Y-165449212D02*
X213868000Y-164893610D01*
X222781881Y-163114585D02*
X220752044Y-165144422D01*
X222781882Y-162748517D02*
X222781881Y-163114585D01*
X224221377Y-161309022D02*
X224134200Y-161396200D01*
X224134200Y-161396200D02*
X222781882Y-162748517D01*
D43*
X228409002Y-161947202D02*
X229044998Y-161947202D01*
X224134200Y-161396200D02*
X227858000Y-161396200D01*
X227858000Y-161396200D02*
X228409002Y-161947202D01*
X229044998Y-161947202D02*
X229480083Y-161512117D01*
D42*
X232960680Y-157389748D02*
X232165316Y-156594384D01*
X232960680Y-158495286D02*
X232960680Y-157389748D01*
X232361848Y-159094118D02*
X232960680Y-158495286D01*
X232165316Y-156594384D02*
X230990256Y-156594384D01*
D41*
X229480083Y-161512117D02*
X229487863Y-161504337D01*
X229487863Y-161504337D02*
X231504349Y-161504337D01*
X231504349Y-161504337D02*
X232361848Y-160646838D01*
X232361848Y-160646838D02*
X232361848Y-159094118D01*
D43*
X232824579Y-147418517D02*
X232824579Y-146623693D01*
X232824579Y-146623693D02*
X232911688Y-146536584D01*
D42*
X224054361Y-160905811D02*
X222378671Y-162581501D01*
X220569701Y-164741211D02*
X214972899Y-164741211D01*
X222378671Y-162581501D02*
X222378671Y-162932241D01*
X214972899Y-164741211D02*
X214820500Y-164893610D01*
X222378671Y-162932241D02*
X220569701Y-164741211D01*
D43*
X228824579Y-147418517D02*
X228824579Y-147264878D01*
X228824579Y-147264878D02*
X228806390Y-147246689D01*
X228209206Y-157418998D02*
X229496510Y-157418998D01*
X227125883Y-158502321D02*
X228209206Y-157418998D01*
X227125883Y-159753779D02*
X227125883Y-158502321D01*
X225929551Y-160950111D02*
X227125883Y-159753779D01*
X224368149Y-160905811D02*
X224412450Y-160950112D01*
X224054361Y-160905811D02*
X224368149Y-160905811D01*
X224412450Y-160950112D02*
X225929551Y-160950111D01*
X229824579Y-147418517D02*
X229824579Y-150667421D01*
X229824579Y-150667421D02*
X229235000Y-151257000D01*
X229235000Y-151257000D02*
X225298000Y-151257000D01*
X224740653Y-150699653D02*
X222934347Y-150699653D01*
X225298000Y-151257000D02*
X224740653Y-150699653D01*
X222934347Y-150699653D02*
X221107000Y-152527000D01*
X208550222Y-152527000D02*
X205248222Y-155829000D01*
X221107000Y-152527000D02*
X208550222Y-152527000D01*
X205248222Y-155829000D02*
X203708000Y-155829000D01*
X202127208Y-157409792D02*
X193985792Y-157409792D01*
X203708000Y-155829000D02*
X202127208Y-157409792D01*
X193985792Y-157409792D02*
X193294000Y-156718000D01*
X193294000Y-156718000D02*
X188849000Y-156718000D01*
X188849000Y-156718000D02*
X187198000Y-158369000D01*
X187198000Y-158369000D02*
X173863000Y-158369000D01*
X173863000Y-158369000D02*
X173482000Y-157988000D01*
X173482000Y-157988000D02*
X162432998Y-157988000D01*
X162222610Y-158198389D02*
X161460611Y-158198389D01*
X162432998Y-157988000D02*
X162222610Y-158198389D01*
X161460611Y-158198389D02*
X161290000Y-158369000D01*
X154178000Y-158369000D02*
X153035000Y-157226000D01*
X161290000Y-158369000D02*
X154178000Y-158369000D01*
D41*
X139183500Y-117907500D02*
X137846500Y-117907500D01*
D43*
X225298000Y-139191938D02*
X225324579Y-139218517D01*
D41*
X134619300Y-117907500D02*
X134170819Y-118355981D01*
X137846500Y-117907500D02*
X134619300Y-117907500D01*
X134170819Y-118355981D02*
X133499425Y-118355981D01*
X133499425Y-118355981D02*
X133456644Y-118313200D01*
X133456644Y-118313200D02*
X133197600Y-118313200D01*
X186350898Y-127227187D02*
X186156172Y-127032461D01*
X199172041Y-135878807D02*
X198664044Y-135370811D01*
X198664044Y-135370811D02*
X198664044Y-134601706D01*
X198664044Y-134601706D02*
X191289525Y-127227187D01*
X191289525Y-127227187D02*
X186350898Y-127227187D01*
X186156172Y-127032461D02*
X186074426Y-127032461D01*
X184702795Y-126572903D02*
X175285169Y-126572903D01*
X175285169Y-126572903D02*
X170086119Y-131771953D01*
X170086119Y-131771953D02*
X165254854Y-131771953D01*
X208084251Y-135878807D02*
X199172041Y-135878807D01*
X130296489Y-126703499D02*
X130021490Y-126428500D01*
X130296489Y-129205700D02*
X130296489Y-126703499D01*
X135053022Y-133962233D02*
X130296489Y-129205700D01*
X184869781Y-126483212D02*
X184702795Y-126572903D01*
X139378921Y-133704244D02*
X139120932Y-133962233D01*
X139120932Y-133962233D02*
X135053022Y-133962233D01*
X149691632Y-133704244D02*
X139378921Y-133704244D01*
X185807578Y-126765613D02*
X184869781Y-126483212D01*
X186074426Y-127032461D02*
X185807578Y-126765613D01*
X225324579Y-139218517D02*
X226349779Y-138193317D01*
X226349779Y-138193317D02*
X226349779Y-138087043D01*
D43*
X160960169Y-131365258D02*
X158364565Y-131365258D01*
X158364565Y-131365258D02*
X157983985Y-130984677D01*
X155949419Y-131740233D02*
X151655643Y-131740233D01*
X161366864Y-131771953D02*
X160960169Y-131365258D01*
X151655643Y-131740233D02*
X149691632Y-133704244D01*
X157983985Y-130984677D02*
X156704975Y-130984677D01*
X165254854Y-131771953D02*
X161366864Y-131771953D01*
X156704975Y-130984677D02*
X155949419Y-131740233D01*
X222626492Y-135668687D02*
X224663795Y-135668687D01*
X224663795Y-135668687D02*
X224917794Y-135414688D01*
D42*
X221444902Y-134536098D02*
X221457985Y-134536098D01*
D43*
X221493903Y-134536098D02*
X222626492Y-135668687D01*
X221444902Y-134536098D02*
X221493903Y-134536098D01*
D42*
X220200808Y-134536098D02*
X220332311Y-134667601D01*
X208084251Y-135878807D02*
X209426960Y-134536098D01*
X209426960Y-134536098D02*
X220200808Y-134536098D01*
X220332311Y-134667601D02*
X221313399Y-134667601D01*
X221313399Y-134667601D02*
X221444902Y-134536098D01*
D41*
X139133509Y-118457491D02*
X139183500Y-118407500D01*
X134369923Y-118805989D02*
X134718421Y-118457491D01*
X133685826Y-118805990D02*
X134369923Y-118805989D01*
X131699000Y-120792816D02*
X133685826Y-118805990D01*
X130746500Y-123254910D02*
X131699000Y-121475500D01*
X134718421Y-118457491D02*
X139133509Y-118457491D01*
X130746500Y-125222000D02*
X130746500Y-123254910D01*
X131699000Y-121475500D02*
X131699000Y-120792816D01*
X230324579Y-139218517D02*
X230324579Y-138244203D01*
X135239422Y-133512222D02*
X138934532Y-133512222D01*
X130746500Y-125222000D02*
X130746500Y-129019300D01*
X130746500Y-129019300D02*
X135239422Y-133512222D01*
X138934532Y-133512222D02*
X139192521Y-133254233D01*
X139192521Y-133254233D02*
X149505232Y-133254233D01*
X165068454Y-131321942D02*
X169899719Y-131321942D01*
X169899719Y-131321942D02*
X175098769Y-126122892D01*
X175098769Y-126122892D02*
X184589591Y-126122892D01*
X184589591Y-126122892D02*
X184821055Y-125998568D01*
X186115818Y-126388463D02*
X186145376Y-126443494D01*
X199334918Y-134636169D02*
X199334918Y-135222840D01*
X186284334Y-126582452D02*
X186391549Y-126582452D01*
X191472911Y-126774162D02*
X199334918Y-134636169D01*
X186583259Y-126774162D02*
X191472911Y-126774162D01*
X186391549Y-126582452D02*
X186583259Y-126774162D01*
X186145376Y-126443494D02*
X186284334Y-126582452D01*
X184821055Y-125998568D02*
X186115818Y-126388463D01*
D43*
X151371643Y-131387822D02*
X155803446Y-131387822D01*
X156559002Y-130632266D02*
X158129958Y-130632266D01*
X158510537Y-131012847D02*
X161106142Y-131012847D01*
X155803446Y-131387822D02*
X156559002Y-130632266D01*
X161106142Y-131012847D02*
X161415237Y-131321942D01*
X158129958Y-130632266D02*
X158510537Y-131012847D01*
X161415237Y-131321942D02*
X165068454Y-131321942D01*
X149505232Y-133254233D02*
X151371643Y-131387822D01*
X230324579Y-138121798D02*
X228432557Y-136229776D01*
X227294243Y-136229776D02*
X226722808Y-136801211D01*
X215480483Y-136388432D02*
X214645302Y-137223613D01*
X228432557Y-136229776D02*
X227294243Y-136229776D01*
X219681200Y-136388432D02*
X215480483Y-136388432D01*
X200129053Y-137223613D02*
X199875054Y-136969614D01*
X226722808Y-136801211D02*
X220093979Y-136801211D01*
X230324579Y-138244203D02*
X230324579Y-138121798D01*
X220093979Y-136801211D02*
X219681200Y-136388432D01*
X214645302Y-137223613D02*
X200129053Y-137223613D01*
D41*
X132442791Y-119396798D02*
X131248989Y-120590600D01*
X139183500Y-117407500D02*
X139133511Y-117457489D01*
X132442791Y-118211085D02*
X132442791Y-119396798D01*
X129243874Y-129055631D02*
X129601961Y-129413718D01*
X129243874Y-125651624D02*
X129243874Y-129055631D01*
X130296490Y-124599008D02*
X129243874Y-125651624D01*
X134382100Y-117457489D02*
X134105391Y-117734198D01*
X130296490Y-123068510D02*
X130296490Y-124599008D01*
X131248989Y-121167255D02*
X130296490Y-123068510D01*
X131248989Y-120590600D02*
X131248989Y-121167255D01*
X132919678Y-117734198D02*
X132442791Y-118211085D01*
X134105391Y-117734198D02*
X132919678Y-117734198D01*
X139133511Y-117457489D02*
X134382100Y-117457489D01*
D42*
X231698800Y-137210800D02*
X230226476Y-135738476D01*
D43*
X230226476Y-135738476D02*
X229974790Y-135486790D01*
X225609226Y-135486790D02*
X225025027Y-136070989D01*
X229974790Y-135486790D02*
X225609226Y-135486790D01*
X222444598Y-136021097D02*
X224975135Y-136021097D01*
X224975135Y-136021097D02*
X225025027Y-136070989D01*
D42*
X139297640Y-134388844D02*
X134577087Y-134388844D01*
X134577087Y-134388844D02*
X129601961Y-129413718D01*
D43*
X151658808Y-132340387D02*
X149868340Y-134130855D01*
X156027610Y-132340387D02*
X151658808Y-132340387D01*
D42*
X175460584Y-127000807D02*
X184807706Y-127000807D01*
X184915973Y-126942655D02*
X185515366Y-127123152D01*
X198237433Y-134778414D02*
X198237433Y-135547519D01*
X185655873Y-127259722D02*
X185954321Y-127558170D01*
X185954321Y-127558170D02*
X186261954Y-127650788D01*
X160803675Y-131743069D02*
X161259168Y-132198562D01*
X186409252Y-127695118D02*
X191154137Y-127695118D01*
X170262829Y-132198562D02*
X175460584Y-127000807D01*
X157827491Y-131362488D02*
X158208072Y-131743069D01*
X208199213Y-136414013D02*
X209673917Y-134939309D01*
X161259168Y-132198562D02*
X170262829Y-132198562D01*
X184807706Y-127000807D02*
X184915973Y-126942655D01*
X158208072Y-131743069D02*
X160803675Y-131743069D01*
X220814452Y-136021097D02*
X222444598Y-136021097D01*
X186261954Y-127650788D02*
X186261992Y-127650768D01*
X157005509Y-131362488D02*
X157827491Y-131362488D01*
X185588720Y-127259722D02*
X185655873Y-127259722D01*
X198237433Y-135547519D02*
X199103927Y-136414013D01*
X156027610Y-132340387D02*
X157005509Y-131362488D01*
X219732664Y-134939309D02*
X220814452Y-136021097D01*
X199103927Y-136414013D02*
X208199213Y-136414013D01*
X209673917Y-134939309D02*
X219732664Y-134939309D01*
X186261992Y-127650768D02*
X186409252Y-127695118D01*
X185515366Y-127123152D02*
X185588720Y-127259722D01*
X191154137Y-127695118D02*
X198237433Y-134778414D01*
X139555629Y-134130855D02*
X139297640Y-134388844D01*
D43*
X139555629Y-134130855D02*
X149868340Y-134130855D01*
X231824579Y-137926964D02*
X231660766Y-137763151D01*
X231660766Y-137248834D02*
X231698800Y-137210800D01*
X231660766Y-137763151D02*
X231660766Y-137248834D01*
X231824579Y-140018517D02*
X231824579Y-137926964D01*
D41*
X134556323Y-119255999D02*
X133872227Y-119255999D01*
X133872227Y-119255999D02*
X132613134Y-120515092D01*
X132613134Y-120515092D02*
X132613134Y-123470510D01*
X139183500Y-118907500D02*
X134904822Y-118907500D01*
X134904822Y-118907500D02*
X134556323Y-119255999D01*
D43*
X186405882Y-128088677D02*
X191013391Y-128088677D01*
X214749168Y-137618131D02*
X215626456Y-136740843D01*
X186302885Y-128057657D02*
X186405882Y-128088677D01*
X185806890Y-127908347D02*
X186302867Y-128057667D01*
X185748057Y-127890632D02*
X185806890Y-127908347D01*
X197859622Y-134934908D02*
X197859622Y-135704014D01*
X185304294Y-127528627D02*
X185413200Y-127637533D01*
X185413200Y-127637533D02*
X185494958Y-127637533D01*
X185256578Y-127439790D02*
X185304294Y-127528627D01*
X228286584Y-136582187D02*
X229824579Y-138120182D01*
X185494958Y-127637533D02*
X185748057Y-127890632D01*
X184956882Y-127349542D02*
X185256578Y-127439790D01*
X156184104Y-132718198D02*
X157162003Y-131740299D01*
X191013391Y-128088677D02*
X197859622Y-134934908D01*
X184902748Y-127378618D02*
X184956882Y-127349542D01*
X199773739Y-137618131D02*
X214749168Y-137618131D01*
X130200400Y-130860800D02*
X134106255Y-134766655D01*
X186302867Y-128057667D02*
X186302885Y-128057657D01*
X134106255Y-134766655D02*
X139454136Y-134766655D01*
X158051578Y-132120880D02*
X160647181Y-132120880D01*
X229824579Y-138120182D02*
X229824579Y-140018517D01*
X139712124Y-134508666D02*
X150024834Y-134508666D01*
X197859622Y-135704014D02*
X199773739Y-137618131D01*
X139454136Y-134766655D02*
X139712124Y-134508666D01*
X151815302Y-132718198D02*
X156184104Y-132718198D01*
X150024834Y-134508666D02*
X151815302Y-132718198D01*
X170419323Y-132576373D02*
X175617078Y-127378618D01*
X157162003Y-131740299D02*
X157670997Y-131740299D01*
X219535227Y-136740843D02*
X219948006Y-137153622D01*
X157670997Y-131740299D02*
X158051578Y-132120880D01*
X160647181Y-132120880D02*
X161102674Y-132576373D01*
X175617078Y-127378618D02*
X184902748Y-127378618D01*
X161102674Y-132576373D02*
X170419323Y-132576373D01*
X215626456Y-136740843D02*
X219535227Y-136740843D01*
X219948006Y-137153622D02*
X226868781Y-137153622D01*
X226868781Y-137153622D02*
X227440216Y-136582187D01*
X227440216Y-136582187D02*
X228286584Y-136582187D01*
D41*
X144371000Y-120595000D02*
X144371000Y-121080522D01*
X144371000Y-121080522D02*
X144837186Y-121546708D01*
X149387279Y-121546708D02*
X149710790Y-121870219D01*
X144837186Y-121546708D02*
X149387279Y-121546708D01*
D43*
X148838781Y-136655251D02*
X149376914Y-136117118D01*
X149376914Y-136117118D02*
X155277548Y-136117118D01*
X155277548Y-136117118D02*
X156367141Y-135027525D01*
D41*
X144287878Y-121997400D02*
X147647758Y-121997400D01*
X156424753Y-122228410D02*
X156170754Y-122482409D01*
X143371000Y-120595000D02*
X143371000Y-121080522D01*
X147647758Y-121997400D02*
X147894757Y-122244399D01*
X156170754Y-122482409D02*
X148132767Y-122482409D01*
X148132767Y-122482409D02*
X147894757Y-122244399D01*
X143371000Y-121080522D02*
X144287878Y-121997400D01*
D43*
X156697853Y-136469526D02*
X156871112Y-136642785D01*
X152909154Y-136469526D02*
X156697853Y-136469526D01*
X147497076Y-135662124D02*
X147497076Y-136070209D01*
X152193227Y-137185453D02*
X152909154Y-136469526D01*
X147497076Y-136070209D02*
X148612320Y-137185453D01*
X148612320Y-137185453D02*
X152193227Y-137185453D01*
X155295600Y-133731000D02*
X156327382Y-133731000D01*
X156327382Y-133731000D02*
X156688432Y-133369950D01*
X156688432Y-133369950D02*
X157830186Y-133369950D01*
D41*
X142871000Y-120595000D02*
X142871000Y-121216933D01*
X144412687Y-122758620D02*
X147315747Y-122758620D01*
X142871000Y-121216933D02*
X144412687Y-122758620D01*
D43*
X156832123Y-123012619D02*
X157066683Y-123247179D01*
X147315747Y-122758620D02*
X147569746Y-123012619D01*
X147569746Y-123012619D02*
X156832123Y-123012619D01*
X160581331Y-123247179D02*
X157066683Y-123247179D01*
X151014730Y-118017131D02*
X150551004Y-118480857D01*
X147719952Y-118303058D02*
X147897751Y-118480857D01*
X147224041Y-118303058D02*
X147719952Y-118303058D01*
X146772210Y-117704700D02*
X146772210Y-117851227D01*
X146058500Y-117407500D02*
X146475010Y-117407500D01*
X151373940Y-118017131D02*
X151014730Y-118017131D01*
X146772210Y-117851227D02*
X147224041Y-118303058D01*
X150551004Y-118480857D02*
X147897751Y-118480857D01*
X146475010Y-117407500D02*
X146772210Y-117704700D01*
X146058500Y-118407500D02*
X146823292Y-118407500D01*
X147660659Y-119244867D02*
X150866029Y-119244867D01*
X147406660Y-118990868D02*
X147660659Y-119244867D01*
X146823292Y-118407500D02*
X147406660Y-118990868D01*
X150866029Y-119244867D02*
X151199737Y-118911159D01*
X151513780Y-133779020D02*
X153457347Y-133804000D01*
X153457347Y-133804000D02*
X153479567Y-133826220D01*
X149953342Y-120294400D02*
X149710790Y-120536952D01*
X151790400Y-120294400D02*
X149953342Y-120294400D01*
X146496000Y-118907500D02*
X148125452Y-120536952D01*
X146058500Y-118907500D02*
X146496000Y-118907500D01*
X148125452Y-120536952D02*
X149710790Y-120536952D01*
X146665601Y-114407500D02*
X147642140Y-115384039D01*
X146058500Y-114407500D02*
X146665601Y-114407500D01*
X138945189Y-130609990D02*
X148666645Y-130609990D01*
X148666645Y-130609990D02*
X148768245Y-130508390D01*
X138491179Y-131064000D02*
X138945189Y-130609990D01*
X147112071Y-115523571D02*
X147112071Y-115651583D01*
X147112071Y-115651583D02*
X147574891Y-116114403D01*
X146058500Y-114907500D02*
X146496000Y-114907500D01*
X146496000Y-114907500D02*
X147112071Y-115523571D01*
X137464772Y-131215897D02*
X138662609Y-130018060D01*
X138662609Y-130018060D02*
X148257504Y-130018060D01*
X141871000Y-113720000D02*
X141871000Y-111637810D01*
X141871000Y-111637810D02*
X141840790Y-111607600D01*
X142371000Y-110490000D02*
X142371000Y-113720000D01*
X142367000Y-110172500D02*
X142371000Y-110490000D01*
X142367000Y-110172500D02*
X144611702Y-110172500D01*
X144611702Y-110172500D02*
X144675202Y-110109000D01*
D42*
X147091324Y-117487894D02*
X147091324Y-117489509D01*
X146510930Y-116907500D02*
X147091324Y-117487894D01*
X147150021Y-117548206D02*
X147150021Y-117694731D01*
X147380535Y-117925247D02*
X148991446Y-117925247D01*
X147150021Y-117694731D02*
X147380535Y-117925247D01*
X147091324Y-117489509D02*
X147150021Y-117548206D01*
X148991446Y-117925247D02*
X150240281Y-116676412D01*
X146058500Y-116907500D02*
X146510930Y-116907500D01*
D43*
X156944063Y-150732855D02*
X157625600Y-150051318D01*
X150190200Y-149682200D02*
X151240855Y-150732855D01*
X151240855Y-150732855D02*
X156944063Y-150732855D01*
X157625600Y-150051318D02*
X157984810Y-150051318D01*
D42*
X146581156Y-116407500D02*
X147533970Y-117360314D01*
X147533970Y-117360314D02*
X147672897Y-117360314D01*
X146058500Y-116407500D02*
X146581156Y-116407500D01*
D43*
X149225000Y-147015200D02*
X156841810Y-147015200D01*
X156841810Y-147015200D02*
X157502210Y-147675600D01*
X148184188Y-116644604D02*
X149135755Y-115693037D01*
X146615460Y-115907500D02*
X147352564Y-116644604D01*
X146058500Y-115907500D02*
X146615460Y-115907500D01*
X147352564Y-116644604D02*
X148184188Y-116644604D01*
X149402800Y-149656800D02*
X150904068Y-151158068D01*
X150904068Y-151158068D02*
X156970644Y-151158068D01*
X156970644Y-151158068D02*
X157225881Y-151413305D01*
D42*
X141605000Y-109270800D02*
X141376400Y-109499400D01*
X145135600Y-109270800D02*
X141605000Y-109270800D01*
D41*
X140371000Y-113720000D02*
X140371000Y-113075832D01*
X140371000Y-113075832D02*
X138986423Y-111691255D01*
D42*
X136550400Y-131927600D02*
X141112908Y-131927600D01*
X141112908Y-131927600D02*
X141947910Y-131092598D01*
X141947910Y-131092598D02*
X145133083Y-131092598D01*
X145133083Y-131092598D02*
X145463275Y-131422790D01*
D41*
X144077826Y-160020000D02*
X141986000Y-160020000D01*
X139954000Y-157396070D02*
X139402678Y-156844748D01*
X147040024Y-163042023D02*
X147040024Y-162982198D01*
X139954000Y-157988000D02*
X139954000Y-157396070D01*
X154508200Y-172669200D02*
X152527000Y-170688000D01*
X155832190Y-172669200D02*
X154508200Y-172669200D01*
X152527000Y-170688000D02*
X152527000Y-168528998D01*
X147040024Y-162982198D02*
X144077826Y-160020000D01*
X152527000Y-168528998D02*
X147040024Y-163042023D01*
X141986000Y-160020000D02*
X139954000Y-157988000D01*
X139871000Y-113720000D02*
X138332667Y-112181667D01*
D42*
X138521467Y-112181667D02*
X138658600Y-112318800D01*
X138332667Y-112181667D02*
X138521467Y-112181667D01*
D41*
X155939828Y-173407192D02*
X154609781Y-173407192D01*
X154609781Y-173407192D02*
X152076989Y-170874400D01*
X152076989Y-170874400D02*
X152076989Y-168715398D01*
X152076989Y-168715398D02*
X146590013Y-163228423D01*
X146590013Y-163168598D02*
X143891426Y-160470011D01*
X141758115Y-160470011D02*
X139374990Y-158086886D01*
X143891426Y-160470011D02*
X141758115Y-160470011D01*
X146590013Y-163228423D02*
X146590013Y-163168598D01*
X139374990Y-158086886D02*
X139374990Y-157727676D01*
X139183500Y-113668910D02*
X139183500Y-114407500D01*
X138146265Y-112631675D02*
X139183500Y-113668910D01*
X137710725Y-112631675D02*
X137414000Y-112928400D01*
X138146265Y-112631675D02*
X137710725Y-112631675D01*
D42*
X140411200Y-136093200D02*
X132308600Y-136093200D01*
X140893800Y-135610600D02*
X140411200Y-136093200D01*
D41*
X131953000Y-157099000D02*
X134493000Y-157099000D01*
X151626978Y-168901798D02*
X151626978Y-171440388D01*
X146140002Y-163354998D02*
X146140002Y-163414822D01*
X146140002Y-163414822D02*
X151626978Y-168901798D01*
X139700000Y-162306000D02*
X145091004Y-162306000D01*
X154601573Y-174414983D02*
X156128774Y-174414983D01*
X151626978Y-171440388D02*
X154601573Y-174414983D01*
X134493000Y-157099000D02*
X139700000Y-162306000D01*
X145091004Y-162306000D02*
X146140002Y-163354998D01*
X186043000Y-91809000D02*
X185397000Y-91809000D01*
X186690000Y-92456000D02*
X186043000Y-91809000D01*
D43*
X229438200Y-127838200D02*
X229436747Y-127839653D01*
X225494899Y-127839653D02*
X222453466Y-130881086D01*
X222453466Y-130881086D02*
X221205250Y-130881086D01*
X229436747Y-127839653D02*
X225494899Y-127839653D01*
X206886548Y-123335237D02*
X206966400Y-123255385D01*
X191795599Y-124701135D02*
X193065699Y-125971233D01*
X193065699Y-125971233D02*
X202469083Y-125971233D01*
X205105079Y-123335237D02*
X206886548Y-123335237D01*
X202469083Y-125971233D02*
X205105079Y-123335237D01*
X187318667Y-124701135D02*
X191795599Y-124701135D01*
D41*
X230824579Y-141043590D02*
X230667924Y-141200245D01*
X230824579Y-140018517D02*
X230824579Y-141043590D01*
X175530000Y-90805000D02*
X177800000Y-90805000D01*
X172720000Y-93615000D02*
X175530000Y-90805000D01*
X172720000Y-94615000D02*
X172720000Y-93615000D01*
X183699989Y-94430011D02*
X183515000Y-94615000D01*
X183709500Y-92496500D02*
X183699989Y-92506011D01*
X183699989Y-92506011D02*
X183699989Y-94430011D01*
X175435364Y-94615000D02*
X177800000Y-94615000D01*
X172720000Y-97330364D02*
X175435364Y-94615000D01*
X172720000Y-97790000D02*
X172720000Y-97330364D01*
X177800000Y-94615000D02*
X182245000Y-94615000D01*
X183209500Y-93650500D02*
X183209500Y-92496500D01*
X182245000Y-94615000D02*
X183209500Y-93650500D01*
D43*
X195342000Y-122801000D02*
X194543832Y-122801000D01*
D42*
X194543832Y-122801000D02*
X194391221Y-122648389D01*
X194589912Y-122024790D02*
X193493703Y-122024790D01*
D43*
X194866122Y-122301000D02*
X194589912Y-122024790D01*
X195342000Y-122301000D02*
X194866122Y-122301000D01*
D42*
X190373000Y-121412000D02*
X194953000Y-121412000D01*
X194953000Y-121412000D02*
X195342000Y-121801000D01*
D41*
X142621000Y-117157500D02*
X143827500Y-118364000D01*
X142621000Y-117157500D02*
X141414500Y-118364000D01*
X142621000Y-117157500D02*
X143764000Y-116014500D01*
X142621000Y-117157500D02*
X141351000Y-115887500D01*
X140871000Y-118844000D02*
X141287500Y-118427500D01*
X140871000Y-120595000D02*
X140871000Y-118844000D01*
X140871000Y-123091000D02*
X141605000Y-123825000D01*
X140871000Y-120595000D02*
X140871000Y-123091000D01*
D44*
X140970000Y-110645425D02*
X140970000Y-112166400D01*
X139333695Y-109009120D02*
X140970000Y-110645425D01*
D43*
X232516710Y-137266710D02*
X232600500Y-137350500D01*
X232410400Y-133730600D02*
X232516710Y-133836910D01*
X231328000Y-132648200D02*
X232410400Y-133730600D01*
X230134487Y-134884487D02*
X224663297Y-134884487D01*
X232600500Y-137350500D02*
X230134487Y-134884487D01*
X224257816Y-135289968D02*
X222746157Y-135289968D01*
X220045624Y-132589435D02*
X219958084Y-132589435D01*
X222746157Y-135289968D02*
X220045624Y-132589435D01*
X224663297Y-134884487D02*
X224257816Y-135289968D01*
X191654691Y-126331433D02*
X192815308Y-127492050D01*
X185919871Y-125537782D02*
X186713519Y-126331431D01*
X186713519Y-126331431D02*
X191654691Y-126331433D01*
X181792871Y-125537782D02*
X185919871Y-125537782D01*
X192815308Y-127492050D02*
X202729734Y-127492050D01*
X202729734Y-127492050D02*
X205144472Y-125077312D01*
X232600500Y-137350500D02*
X232442347Y-137508653D01*
X232824579Y-138142264D02*
X232190968Y-137508653D01*
X232442347Y-137508653D02*
X232190968Y-137508653D01*
X232824579Y-140018517D02*
X232824579Y-138142264D01*
D41*
X225462532Y-140656470D02*
X224824579Y-140018517D01*
X224277429Y-142536466D02*
X225462532Y-141351363D01*
X224104200Y-142392400D02*
X224277429Y-142536466D01*
X225462532Y-141351363D02*
X225462532Y-140656470D01*
D43*
X214169271Y-114765032D02*
X214169271Y-115395729D01*
X215900000Y-113034303D02*
X214169271Y-114765032D01*
X205209790Y-126142826D02*
X205209790Y-126363356D01*
X214169271Y-115395729D02*
X213466880Y-116098120D01*
X206657589Y-124568027D02*
X206657589Y-124695027D01*
X213106000Y-116678937D02*
X213106000Y-118119616D01*
X213106000Y-118119616D02*
X206657589Y-124568027D01*
X213466880Y-116098120D02*
X213106000Y-116678937D01*
X215900000Y-111252000D02*
X215900000Y-113034303D01*
X206657589Y-124695027D02*
X205209790Y-126142826D01*
D40*
X207676579Y-171551017D02*
X207869579Y-171744017D01*
X207676579Y-169032517D02*
X207676579Y-171551017D01*
D41*
X205869569Y-173744027D02*
X207869579Y-171744017D01*
X205869569Y-181773697D02*
X205869569Y-173744027D01*
X206869389Y-182773517D02*
X205869569Y-181773697D01*
X210409579Y-182773517D02*
X206869389Y-182773517D01*
X205869569Y-171823529D02*
X205869569Y-167689527D01*
X204599580Y-173093518D02*
X205869569Y-171823529D01*
X205869569Y-167689527D02*
X206726579Y-166832517D01*
X204249576Y-173093518D02*
X204599580Y-173093518D01*
X201091910Y-176251184D02*
X204249576Y-173093518D01*
X201091910Y-185118890D02*
X201091910Y-176251184D01*
X200066900Y-186143900D02*
X201091910Y-185118890D01*
D43*
X221368825Y-142718517D02*
X221325140Y-142762202D01*
X223124579Y-142718517D02*
X221368825Y-142718517D01*
X219968922Y-148602633D02*
X220568289Y-148003266D01*
X200660000Y-147472400D02*
X202434802Y-149247202D01*
X206172289Y-149069411D02*
X212159773Y-149069411D01*
X202434802Y-149247202D02*
X205994498Y-149247202D01*
X212626551Y-148602633D02*
X219968922Y-148602633D01*
X205994498Y-149247202D02*
X206172289Y-149069411D01*
X212159773Y-149069411D02*
X212626551Y-148602633D01*
D42*
X199999600Y-159689800D02*
X203977028Y-163667228D01*
X203977028Y-163667228D02*
X206416267Y-163667228D01*
D43*
X220879764Y-145773828D02*
X220290970Y-145773828D01*
X220290970Y-145773828D02*
X219252798Y-146812000D01*
X223124579Y-145718517D02*
X220935075Y-145718517D01*
X220935075Y-145718517D02*
X220879764Y-145773828D01*
X219252798Y-146812000D02*
X216329099Y-146812000D01*
X215651135Y-146812000D02*
X207645000Y-146812000D01*
X215735620Y-146896485D02*
X215651135Y-146812000D01*
X216329099Y-146812000D02*
X216244614Y-146896485D01*
X216244614Y-146896485D02*
X215735620Y-146896485D01*
X207645000Y-146812000D02*
X205740000Y-148717000D01*
X217502192Y-151018890D02*
X217577399Y-151094097D01*
X192557400Y-155371800D02*
X194678431Y-155371800D01*
X214439012Y-151018890D02*
X217502192Y-151018890D01*
X213693640Y-151764262D02*
X214439012Y-151018890D01*
X210466979Y-151597089D02*
X210634152Y-151764262D01*
X207134551Y-151597089D02*
X210466979Y-151597089D01*
X210634152Y-151764262D02*
X213693640Y-151764262D01*
X201674260Y-157057380D02*
X207134551Y-151597089D01*
X196364011Y-157057380D02*
X201674260Y-157057380D01*
X194678431Y-155371800D02*
X196364011Y-157057380D01*
X188451579Y-156365589D02*
X187089595Y-157727573D01*
X191563611Y-156365589D02*
X188451579Y-156365589D01*
X192557400Y-155371800D02*
X191563611Y-156365589D01*
X162083826Y-157838790D02*
X160460347Y-157838790D01*
X173373976Y-157396740D02*
X173135127Y-157635589D01*
X162287027Y-157635589D02*
X162083826Y-157838790D01*
X173135127Y-157635589D02*
X162287027Y-157635589D01*
X218058418Y-144478314D02*
X217152116Y-144478314D01*
X218339239Y-144197493D02*
X218058418Y-144478314D01*
X218625555Y-144197493D02*
X218339239Y-144197493D01*
X219530634Y-143292414D02*
X218625555Y-144197493D01*
X222250682Y-143292414D02*
X219530634Y-143292414D01*
X222324579Y-143218517D02*
X222250682Y-143292414D01*
X173812200Y-160858200D02*
X173837600Y-160858200D01*
D42*
X159766000Y-180581300D02*
X159435800Y-180251100D01*
X159435800Y-180251100D02*
X154063700Y-180251100D01*
D43*
X220220004Y-144349644D02*
X218916480Y-145653167D01*
X217978718Y-145653167D02*
X217902519Y-145576968D01*
X218916480Y-145653167D02*
X217978718Y-145653167D01*
X221381961Y-144718517D02*
X221013087Y-144349643D01*
X223124579Y-144718517D02*
X221381961Y-144718517D01*
X221013087Y-144349643D02*
X220220004Y-144349644D01*
X213547667Y-151411851D02*
X214395631Y-150563887D01*
X198423347Y-150699653D02*
X210067927Y-150699653D01*
X214395631Y-150563887D02*
X218232004Y-150563887D01*
X210067927Y-150699653D02*
X210780125Y-151411851D01*
X195580000Y-153543000D02*
X198423347Y-150699653D01*
X210780125Y-151411851D02*
X213547667Y-151411851D01*
X218232004Y-150563887D02*
X218409803Y-150741686D01*
X173812200Y-160858200D02*
X175138390Y-159532010D01*
X175138390Y-159532010D02*
X188975088Y-159532010D01*
D42*
X188975088Y-159532010D02*
X190045200Y-159532010D01*
X190045200Y-159532010D02*
X190653438Y-158923772D01*
D43*
X173812200Y-160858200D02*
X173812200Y-161031486D01*
X173282166Y-161388234D02*
X172500018Y-162170382D01*
X154811673Y-166961154D02*
X153106010Y-168666817D01*
X173812200Y-161031486D02*
X173455452Y-161388234D01*
X172500018Y-162170382D02*
X171832734Y-162585400D01*
X156079568Y-165941250D02*
X155293814Y-165941251D01*
X158444571Y-165124387D02*
X156896430Y-165124388D01*
X173455452Y-161388234D02*
X173282166Y-161388234D01*
X156896430Y-165124388D02*
X156079568Y-165941250D01*
X171832734Y-162585400D02*
X171297600Y-162585400D01*
X153106010Y-168666817D02*
X153106010Y-168856072D01*
X154811673Y-166423392D02*
X154811673Y-166961154D01*
X159144237Y-165824053D02*
X158444571Y-165124387D01*
X168058947Y-165824053D02*
X159144237Y-165824053D01*
X171297600Y-162585400D02*
X168058947Y-165824053D01*
X155293814Y-165941251D02*
X154811673Y-166423392D01*
D41*
X197449743Y-145542000D02*
X197421821Y-145514078D01*
D43*
X197743817Y-145836074D02*
X197421821Y-145514078D01*
X217288170Y-145730202D02*
X216183593Y-145730202D01*
X216183593Y-145730202D02*
X216077721Y-145836074D01*
X221383577Y-145218517D02*
X220867114Y-144702054D01*
X218960852Y-146107178D02*
X217665146Y-146107178D01*
X217665146Y-146107178D02*
X217288170Y-145730202D01*
X220365978Y-144702054D02*
X218960852Y-146107178D01*
X216077721Y-145836074D02*
X197743817Y-145836074D01*
X222324579Y-145218517D02*
X221383577Y-145218517D01*
X220867114Y-144702054D02*
X220365978Y-144702054D01*
D41*
X135572500Y-122033500D02*
X135570000Y-122031000D01*
X135572500Y-124206000D02*
X135572500Y-122033500D01*
D43*
X154581389Y-128905000D02*
X154660600Y-128984211D01*
D42*
X171094400Y-124206000D02*
X156235400Y-124206000D01*
X156235400Y-124206000D02*
X154889200Y-125552200D01*
X171218209Y-124329809D02*
X171094400Y-124206000D01*
X175051635Y-124329809D02*
X171218209Y-124329809D01*
X175296134Y-124085310D02*
X175051635Y-124329809D01*
D43*
X226824579Y-140018517D02*
X226824579Y-141117499D01*
X226824579Y-141117499D02*
X226940585Y-141233505D01*
X152479211Y-128984211D02*
X154660600Y-128984211D01*
X152301412Y-128806412D02*
X152479211Y-128984211D01*
X151621225Y-128806412D02*
X152301412Y-128806412D01*
X151618213Y-128803400D02*
X151621225Y-128806412D01*
X139867799Y-128347961D02*
X140323238Y-128803400D01*
X140323238Y-128803400D02*
X151618213Y-128803400D01*
X139867799Y-127988799D02*
X139867799Y-128347961D01*
X136085000Y-124206000D02*
X139867799Y-127988799D01*
X135572500Y-124206000D02*
X136085000Y-124206000D01*
X224474668Y-126957032D02*
X223476215Y-127955485D01*
X223476215Y-127955485D02*
X223415864Y-127955485D01*
X227920839Y-126957032D02*
X224474668Y-126957032D01*
X204813133Y-122630415D02*
X205946515Y-122630415D01*
X175296134Y-124085310D02*
X175908854Y-123472590D01*
X205946515Y-122630415D02*
X207011116Y-121565816D01*
X191563823Y-123472591D02*
X193357644Y-125266411D01*
X193357644Y-125266411D02*
X202177137Y-125266411D01*
X202177137Y-125266411D02*
X204813133Y-122630415D01*
X207947962Y-121565816D02*
X208215393Y-121298385D01*
X207011116Y-121565816D02*
X207947962Y-121565816D01*
X175908854Y-123472590D02*
X191563823Y-123472591D01*
D44*
X226078500Y-121600000D02*
X225742500Y-121936000D01*
X225742500Y-121221500D02*
X224345500Y-119824500D01*
X225742500Y-121936000D02*
X225742500Y-121221500D01*
X227475500Y-120203000D02*
X225742500Y-121936000D01*
X227790500Y-120203000D02*
X227475500Y-120203000D01*
X225187500Y-125441000D02*
X226692500Y-123936000D01*
X225187500Y-125730000D02*
X225187500Y-125441000D01*
D43*
X229663000Y-119125500D02*
X229790500Y-119253000D01*
X229663000Y-116586000D02*
X229663000Y-119125500D01*
D41*
X218236800Y-113379200D02*
X218588600Y-113731000D01*
X218236800Y-112041400D02*
X218236800Y-113379200D01*
X216443600Y-113731000D02*
X216148083Y-114026517D01*
X218588600Y-113731000D02*
X216443600Y-113731000D01*
D43*
X211582000Y-163118800D02*
X217449400Y-163118800D01*
X217449400Y-163118800D02*
X218414600Y-162153600D01*
X210997800Y-163703000D02*
X211582000Y-163118800D01*
X218414600Y-162153600D02*
X222272268Y-162153600D01*
X222272268Y-162153600D02*
X223835934Y-160589934D01*
X223835934Y-160589934D02*
X223897868Y-160528000D01*
X211299883Y-177250710D02*
X212916753Y-177250710D01*
X229324579Y-139218517D02*
X229324579Y-142910493D01*
X229324579Y-142910493D02*
X229574710Y-143160624D01*
X229259482Y-155870338D02*
X230073222Y-155870338D01*
X225783577Y-160597701D02*
X226447201Y-159934077D01*
X224558423Y-160597701D02*
X225783577Y-160597701D01*
X223835934Y-160589934D02*
X223897866Y-160528002D01*
X223897866Y-160528002D02*
X224488724Y-160528002D01*
X226447201Y-158682619D02*
X229259482Y-155870338D01*
X226447201Y-159934077D02*
X226447201Y-158682619D01*
X224488724Y-160528002D02*
X224558423Y-160597701D01*
X208690010Y-179501373D02*
X209829400Y-178361983D01*
X208690010Y-179860583D02*
X208690010Y-179501373D01*
X209829400Y-178361983D02*
X209864317Y-178361983D01*
X209864317Y-178361983D02*
X210350100Y-177876200D01*
X210674393Y-177876200D02*
X211299883Y-177250710D01*
X210350100Y-177876200D02*
X210674393Y-177876200D01*
X209905600Y-164541200D02*
X210159599Y-164287201D01*
X220219679Y-164287201D02*
X221823070Y-162683810D01*
X210159599Y-164287201D02*
X220219679Y-164287201D01*
X223324579Y-148218517D02*
X223078591Y-148464505D01*
X223078591Y-148464505D02*
X223078591Y-148513798D01*
D44*
X212719079Y-184034017D02*
X213029579Y-183723517D01*
X212719079Y-185628517D02*
X212719079Y-184034017D01*
D43*
X228324579Y-141649121D02*
X227647998Y-142325702D01*
X226639667Y-143970437D02*
X228495543Y-145826313D01*
X227647998Y-142325702D02*
X227361682Y-142325702D01*
X228495543Y-145826313D02*
X228495543Y-146185523D01*
X226639667Y-143047717D02*
X226639667Y-143970437D01*
X228324579Y-139218517D02*
X228324579Y-141649121D01*
X227361682Y-142325702D02*
X226639667Y-143047717D01*
X212719079Y-185628517D02*
X211267984Y-187079612D01*
X211267984Y-187079612D02*
X207102867Y-187079612D01*
X226449641Y-150249641D02*
X222767087Y-150249641D01*
X220870728Y-152146000D02*
X207899000Y-152146000D01*
X226822000Y-150622000D02*
X226449641Y-150249641D01*
X222767087Y-150249641D02*
X220870728Y-152146000D01*
D41*
X202975200Y-186143900D02*
X203673700Y-186842400D01*
X201891900Y-186143900D02*
X202975200Y-186143900D01*
X207042998Y-186500602D02*
X207789802Y-186500602D01*
X210409579Y-184298517D02*
X210409579Y-183723517D01*
X209301897Y-185406199D02*
X210409579Y-184298517D01*
X206331798Y-185789402D02*
X207042998Y-186500602D01*
X207789802Y-186500602D02*
X208884205Y-185406199D01*
X204726698Y-185789402D02*
X206331798Y-185789402D01*
X208884205Y-185406199D02*
X209301897Y-185406199D01*
X203673700Y-186842400D02*
X204726698Y-185789402D01*
D42*
X144830800Y-147497800D02*
X146964400Y-149631400D01*
X146964400Y-149631400D02*
X147172590Y-149631400D01*
X144780000Y-148996400D02*
X145475972Y-148996400D01*
X145475972Y-148996400D02*
X146557297Y-150077725D01*
X169976800Y-155015200D02*
X169976800Y-155800410D01*
X169976800Y-155800410D02*
X170462590Y-156286200D01*
X167731919Y-164852379D02*
X169924591Y-162659707D01*
X165411817Y-164852379D02*
X167731919Y-164852379D01*
X168173400Y-154964400D02*
X168292266Y-154964400D01*
X168292266Y-154964400D02*
X169772542Y-156444676D01*
D44*
X228901000Y-123841500D02*
X227012500Y-125730000D01*
X228917500Y-123841500D02*
X228901000Y-123841500D01*
D41*
X224824579Y-147418517D02*
X224824579Y-145475921D01*
X224824579Y-145475921D02*
X224850648Y-145449852D01*
D42*
X228917500Y-123571000D02*
X228917500Y-123841500D01*
X231013000Y-121475500D02*
X228917500Y-123571000D01*
D43*
X229617500Y-123841500D02*
X228917500Y-123841500D01*
X228193443Y-130995816D02*
X228193443Y-130035457D01*
X228193443Y-130035457D02*
X230793902Y-127434998D01*
X225300461Y-133888798D02*
X228193443Y-130995816D01*
X230793902Y-127434998D02*
X230793902Y-125017902D01*
X230793902Y-125017902D02*
X229617500Y-123841500D01*
X226771200Y-117729000D02*
X226745800Y-117703600D01*
X227838000Y-116611400D02*
X226745800Y-117703600D01*
X227838000Y-116586000D02*
X227838000Y-116611400D01*
D41*
X226824579Y-147418517D02*
X226824579Y-145796480D01*
X226824579Y-145796480D02*
X226714088Y-145685989D01*
X230818398Y-135001000D02*
X229240599Y-133423201D01*
X228427977Y-133083179D02*
X228427977Y-132942904D01*
X228767999Y-133423201D02*
X228427977Y-133083179D01*
X229240599Y-133423201D02*
X228767999Y-133423201D01*
X231728000Y-135001000D02*
X230818398Y-135001000D01*
X181102000Y-92456000D02*
X181102000Y-92202000D01*
X181495000Y-91809000D02*
X182522000Y-91809000D01*
X181102000Y-92202000D02*
X181495000Y-91809000D01*
D42*
X154393237Y-136847336D02*
X154668901Y-137123000D01*
X152349719Y-137563264D02*
X153065647Y-136847336D01*
X148427789Y-137563264D02*
X152349719Y-137563264D01*
X145491200Y-136423400D02*
X147287925Y-136423400D01*
X147287925Y-136423400D02*
X148427789Y-137563264D01*
X153065647Y-136847336D02*
X154393237Y-136847336D01*
X148093760Y-138369685D02*
X152935814Y-138369685D01*
X152935814Y-138369685D02*
X153499351Y-137806148D01*
X147493675Y-137769600D02*
X148093760Y-138369685D01*
X145211800Y-137769600D02*
X147493675Y-137769600D01*
X153232662Y-137250547D02*
X153766040Y-137250547D01*
X154202505Y-137687012D02*
X155087972Y-137687012D01*
X140355915Y-136648810D02*
X140921104Y-137213999D01*
X152516734Y-137966475D02*
X153232662Y-137250547D01*
X140921104Y-137213999D02*
X147508298Y-137213999D01*
X153766040Y-137250547D02*
X154202505Y-137687012D01*
X148260774Y-137966475D02*
X152516734Y-137966475D01*
X147508298Y-137213999D02*
X148260774Y-137966475D01*
X155087972Y-137687012D02*
X155511234Y-137263750D01*
X153983683Y-154881592D02*
X149993366Y-154881592D01*
X149993366Y-154881592D02*
X147435574Y-152323800D01*
X147435574Y-152323800D02*
X140893800Y-152323800D01*
X151758670Y-128428601D02*
X151582733Y-128252664D01*
X161533064Y-128428601D02*
X151758670Y-128428601D01*
X161555453Y-128450990D02*
X161533064Y-128428601D01*
X162505926Y-129373776D02*
X162481940Y-129349790D01*
D43*
X155531501Y-129539813D02*
X156087101Y-128984212D01*
X154927290Y-129539813D02*
X155531501Y-129539813D01*
X156087101Y-128984212D02*
X156480795Y-128984212D01*
X156480795Y-128984212D02*
X156658586Y-128806421D01*
X156658586Y-128806421D02*
X158778421Y-128806421D01*
X159993589Y-128857223D02*
X160117566Y-128981200D01*
X158829223Y-128857223D02*
X159993589Y-128857223D01*
X158778421Y-128806421D02*
X158829223Y-128857223D01*
X160117566Y-128981200D02*
X162113350Y-128981200D01*
X162113350Y-128981200D02*
X162505926Y-129373776D01*
D42*
X151874722Y-129539813D02*
X151671531Y-129336622D01*
X154927290Y-129539813D02*
X151874722Y-129539813D01*
D43*
X162201355Y-133216679D02*
X162023556Y-133394478D01*
X159150306Y-133394478D02*
X158759329Y-133003501D01*
X162023556Y-133394478D02*
X159150306Y-133394478D01*
D42*
X164050446Y-129962517D02*
X162138994Y-129962517D01*
X160463879Y-129753001D02*
X160098302Y-129387424D01*
X162138994Y-129962517D02*
X161929478Y-129753001D01*
X161929478Y-129753001D02*
X160463879Y-129753001D01*
X160098302Y-129387424D02*
X159739092Y-129387424D01*
D43*
X150429693Y-148856600D02*
X150780781Y-149207688D01*
X149428200Y-148856600D02*
X150429693Y-148856600D01*
X152103623Y-149207688D02*
X152818846Y-149922911D01*
X150780781Y-149207688D02*
X152103623Y-149207688D01*
X151502172Y-148056600D02*
X151735186Y-148289614D01*
X149428200Y-148056600D02*
X151502172Y-148056600D01*
X158799148Y-136226279D02*
X158669637Y-136096768D01*
X166338222Y-136226279D02*
X158799148Y-136226279D01*
X166592221Y-135972280D02*
X166338222Y-136226279D01*
X166601798Y-135279531D02*
X166902531Y-134978798D01*
X160657308Y-135816498D02*
X161194275Y-135279531D01*
X161194275Y-135279531D02*
X166601798Y-135279531D01*
X167697763Y-134978798D02*
X168286124Y-135567159D01*
X166902531Y-134978798D02*
X167697763Y-134978798D01*
X159387698Y-135816498D02*
X160657308Y-135816498D01*
X159207200Y-135636000D02*
X159387698Y-135816498D01*
X164869764Y-160531122D02*
X164500185Y-160161543D01*
X167300520Y-160531122D02*
X164869764Y-160531122D01*
X167598471Y-160233171D02*
X167300520Y-160531122D01*
X160629211Y-135346211D02*
X161048301Y-134927121D01*
X159727509Y-135346211D02*
X160629211Y-135346211D01*
X166748541Y-134609375D02*
X168109368Y-134609375D01*
X168109368Y-134609375D02*
X168363367Y-134863374D01*
X159236033Y-134854735D02*
X159727509Y-135346211D01*
X161048301Y-134927121D02*
X166430796Y-134927120D01*
X159040943Y-134854735D02*
X159236033Y-134854735D01*
X166430796Y-134927120D02*
X166748541Y-134609375D01*
X165220084Y-160000920D02*
X165178796Y-159959632D01*
X166649125Y-160000920D02*
X165220084Y-160000920D01*
X216204800Y-140766800D02*
X213378666Y-140766800D01*
X213378666Y-140766800D02*
X211771604Y-139159738D01*
X232324579Y-139218517D02*
X232324579Y-140509357D01*
X232324579Y-140509357D02*
X230104912Y-142729024D01*
X230104912Y-142729024D02*
X230104912Y-143415122D01*
X230104912Y-143415122D02*
X229829208Y-143690826D01*
X229829208Y-143690826D02*
X227821070Y-143690826D01*
X227821070Y-143690826D02*
X227619879Y-143489635D01*
X219625676Y-147164411D02*
X216475072Y-147164411D01*
X221035322Y-146280706D02*
X220509381Y-146280706D01*
X215222250Y-147248896D02*
X215128936Y-147342210D01*
X216390587Y-147248896D02*
X215222250Y-147248896D01*
X216475072Y-147164411D02*
X216390587Y-147248896D01*
X220509381Y-146280706D02*
X219625676Y-147164411D01*
D41*
X136437671Y-116907500D02*
X136323820Y-116793649D01*
X139183500Y-116907500D02*
X136437671Y-116907500D01*
X225456053Y-138087043D02*
X225551190Y-138087043D01*
X224324579Y-139218517D02*
X225456053Y-138087043D01*
X175026408Y-125558842D02*
X180952967Y-125558842D01*
X180952967Y-125558842D02*
X181575278Y-124936531D01*
X135754611Y-133062211D02*
X138748132Y-133062211D01*
X138748132Y-133062211D02*
X139006121Y-132804222D01*
X133553200Y-130860800D02*
X135754611Y-133062211D01*
X164882054Y-130871931D02*
X169713319Y-130871931D01*
X139006121Y-132804222D02*
X149318832Y-132804222D01*
X169713319Y-130871931D02*
X175026408Y-125558842D01*
X181575278Y-124936531D02*
X184245531Y-124936531D01*
X186879708Y-125930222D02*
X191820878Y-125930222D01*
X185886018Y-124936531D02*
X186879708Y-125930222D01*
X191820878Y-125930222D02*
X192713111Y-126822455D01*
X184245531Y-124936531D02*
X185886018Y-124936531D01*
D43*
X155657473Y-131035411D02*
X151087643Y-131035411D01*
X158275931Y-130279855D02*
X156413029Y-130279855D01*
X158656509Y-130660436D02*
X158275931Y-130279855D01*
X161252110Y-130660436D02*
X158656509Y-130660436D01*
X151087643Y-131035411D02*
X149318832Y-132804222D01*
X161463605Y-130871931D02*
X161252110Y-130660436D01*
X164882054Y-130871931D02*
X161463605Y-130871931D01*
X156413029Y-130279855D02*
X155657473Y-131035411D01*
D41*
X222912343Y-134888757D02*
X223756894Y-134888757D01*
X223756894Y-134888757D02*
X224255358Y-134390293D01*
X221505092Y-133325936D02*
X221505092Y-133481504D01*
X221505092Y-133481504D02*
X222912343Y-134888757D01*
D43*
X220385020Y-132205864D02*
X220385020Y-132024629D01*
X221505092Y-133325936D02*
X220385020Y-132205864D01*
X192713111Y-126822455D02*
X202614629Y-126822455D01*
X204892368Y-124544716D02*
X206058069Y-124544716D01*
X202614629Y-126822455D02*
X204892368Y-124544716D01*
D41*
X136925114Y-116407500D02*
X136734598Y-116216984D01*
X139183500Y-116407500D02*
X136925114Y-116407500D01*
D42*
X170548419Y-129095619D02*
X170853219Y-129095619D01*
X169367200Y-127914400D02*
X170548419Y-129095619D01*
D41*
X169526918Y-130421920D02*
X164695654Y-130421920D01*
X138599209Y-132354211D02*
X138470210Y-132483210D01*
X170853219Y-129095619D02*
X169526918Y-130421920D01*
X149132432Y-132354211D02*
X138599209Y-132354211D01*
X192007277Y-125480211D02*
X192899511Y-126372444D01*
X187066108Y-125480211D02*
X192007277Y-125480211D01*
X181517868Y-124357530D02*
X185943427Y-124357530D01*
X185943427Y-124357530D02*
X187066108Y-125480211D01*
X180766567Y-125108831D02*
X181517868Y-124357530D01*
X174840008Y-125108831D02*
X180766567Y-125108831D01*
X170853219Y-129095619D02*
X174840008Y-125108831D01*
X223824579Y-140018517D02*
X224764378Y-140958316D01*
X224764378Y-140958316D02*
X224883532Y-140958316D01*
D43*
X161582776Y-130492718D02*
X164624856Y-130492718D01*
X149132432Y-132354211D02*
X150886418Y-130600225D01*
X159927298Y-130308029D02*
X161398087Y-130308029D01*
X161398087Y-130308029D02*
X161582776Y-130492718D01*
X159546713Y-129927444D02*
X159927298Y-130308029D01*
X150886418Y-130600225D02*
X155594275Y-130600225D01*
X156267056Y-129927444D02*
X159546713Y-129927444D01*
X155594275Y-130600225D02*
X156267056Y-129927444D01*
X164624856Y-130492718D02*
X164695654Y-130421920D01*
D41*
X222956332Y-134280668D02*
X223123085Y-134280668D01*
X221955103Y-133279439D02*
X222956332Y-134280668D01*
X221955103Y-133139537D02*
X221955103Y-133279439D01*
D43*
X220953094Y-132137528D02*
X220953094Y-131602051D01*
X221955103Y-133139537D02*
X220953094Y-132137528D01*
X202566256Y-126372444D02*
X205073261Y-123865439D01*
X192899511Y-126372444D02*
X202566256Y-126372444D01*
X205073261Y-123865439D02*
X206356346Y-123865439D01*
D44*
X145803000Y-158115000D02*
X144914000Y-157226000D01*
X146177000Y-158115000D02*
X145803000Y-158115000D01*
X145161000Y-159131000D02*
X146177000Y-158115000D01*
X144914000Y-159131000D02*
X145161000Y-159131000D01*
D42*
X129095500Y-153035000D02*
X132080000Y-153035000D01*
X132080000Y-153035000D02*
X134747000Y-155702000D01*
X143390000Y-155702000D02*
X144914000Y-157226000D01*
X134747000Y-155702000D02*
X143390000Y-155702000D01*
D41*
X141371000Y-122512910D02*
X142815600Y-123957510D01*
X141371000Y-120595000D02*
X141371000Y-122512910D01*
X142815600Y-123957510D02*
X148657600Y-123957510D01*
X148657600Y-123957510D02*
X149536990Y-124836900D01*
X149536990Y-124836900D02*
X149536990Y-125672010D01*
X148082000Y-127127000D02*
X144081500Y-127127000D01*
X149536990Y-125672010D02*
X148082000Y-127127000D01*
X155956500Y-127127000D02*
X151511000Y-127127000D01*
X151511000Y-127127000D02*
X149987000Y-125603000D01*
X149987000Y-125603000D02*
X149987000Y-124650500D01*
X149987000Y-124650500D02*
X148844000Y-123507500D01*
X148844000Y-123507500D02*
X143002000Y-123507500D01*
X141871000Y-122376500D02*
X141871000Y-120595000D01*
X143002000Y-123507500D02*
X141871000Y-122376500D01*
M02*
