M48
; DRILL file {KiCad (5.1.7)-1} date 09/16/21 14:59:07
; FORMAT={-:-/ absolute / inch / decimal}
; #@! TF.CreationDate,2021-09-16T14:59:07-07:00
; #@! TF.GenerationSoftware,Kicad,Pcbnew,(5.1.7)-1
; #@! TF.FileFunction,Plated,1,4,PTH
FMAT,2
INCH
T1C0.0079
T2C0.0120
T3C0.0157
T4C0.0250
T5C0.0315
T6C0.0394
T7C0.0511
T8C0.0591
T9C0.0669
%
G90
G05
T1
X6.1881Y-6.6904
X6.2314Y-6.6471
X6.2314Y-6.6904
X6.2314Y-6.7337
X6.2747Y-6.6904
T2
X5.126Y-5.152
X5.195Y-6.185
X5.1967Y-6.3551
X5.209Y-5.358
X5.244Y-4.658
X5.258Y-5.152
X5.285Y-6.335
X5.285Y-6.58
X5.3Y-6.63
X5.305Y-6.67
X5.315Y-6.3
X5.33Y-6.435
X5.335Y-6.54
X5.345Y-6.675
X5.36Y-6.295
X5.365Y-6.465
X5.3671Y-4.5982
X5.376Y-5.194
X5.381Y-5.841
X5.3833Y-4.5755
X5.385Y-6.515
X5.41Y-4.446
X5.41Y-6.695
X5.412Y-5.166
X5.4255Y-4.3735
X5.4328Y-4.5059
X5.445Y-6.4
X5.45Y-6.655
X5.4516Y-5.2159
X5.4524Y-5.16
X5.4539Y-4.7516
X5.455Y-6.525
X5.459Y-4.422
X5.4719Y-4.3973
X5.4826Y-4.9484
X5.485Y-6.605
X5.4872Y-6.2098
X5.4883Y-6.175
X5.495Y-6.46
X5.509Y-5.576
X5.52Y-4.8075
X5.525Y-5.498
X5.525Y-6.485
X5.5258Y-5.3799
X5.547Y-5.339
X5.547Y-5.997
X5.555Y-6.52
X5.566Y-4.311
X5.574Y-4.925
X5.58Y-6.56
X5.5843Y-4.394
X5.599Y-5.183
X5.6125Y-4.8075
X5.62Y-6.6
X5.62Y-6.69
X5.6299Y-6.9488
X5.6299Y-7.0276
X5.64Y-5.77
X5.651Y-5.644
X5.652Y-5.907
X5.655Y-6.635
X5.66Y-6.725
X5.6799Y-6.42
X5.682Y-5.7413
X5.685Y-6.95
X5.69Y-6.67
X5.6959Y-4.335
X5.7087Y-7.1063
X5.714Y-4.302
X5.717Y-5.424
X5.719Y-5.494
X5.72Y-6.92
X5.725Y-6.705
X5.726Y-5.526
X5.7269Y-5.1741
X5.728Y-5.371
X5.73Y-5.97
X5.735Y-6.805
X5.735Y-6.865
X5.76Y-5.8125
X5.76Y-6.74
X5.766Y-5.556
X5.77Y-5.9086
X5.7855Y-5.8595
X5.7942Y-5.891
X5.795Y-7.025
X5.7998Y-4.833
X5.8Y-6.8
X5.805Y-6.85
X5.807Y-5.341
X5.8071Y-7.0669
X5.81Y-4.5714
X5.8127Y-4.5427
X5.8139Y-4.6205
X5.8226Y-4.8128
X5.835Y-6.995
X5.8369Y-5.1188
X5.8469Y-5.8969
X5.855Y-6.885
X5.857Y-5.1381
X5.8598Y-5.3801
X5.8715Y-4.5548
X5.875Y-5.788
X5.88Y-6.945
X5.882Y-5.892
X5.8941Y-4.798
X5.8958Y-5.9353
X5.896Y-5.966
X5.896Y-5.999
X5.9016Y-5.6287
X5.913Y-5.893
X5.915Y-4.5936
X5.923Y-7.244
X5.9363Y-5.8743
X5.9389Y-4.8915
X5.9527Y-4.6815
X5.954Y-6.879
X5.9579Y-4.9412
X5.9596Y-4.6463
X5.9651Y-5.2669
X5.9678Y-5.0493
X5.9713Y-5.092
X5.9736Y-6.5714
X5.9738Y-5.8382
X5.976Y-4.736
X5.987Y-5.246
X5.9885Y-4.89
X5.989Y-5.972
X5.995Y-6.32
X6.0Y-6.0581
X6.0105Y-6.6065
X6.0165Y-5.9025
X6.025Y-6.19
X6.025Y-6.29
X6.0278Y-6.6479
X6.0293Y-6.5856
X6.0425Y-5.2687
X6.0433Y-5.4254
X6.049Y-6.666
X6.05Y-6.7237
X6.0594Y-6.8802
X6.0623Y-6.0977
X6.0655Y-7.0965
X6.07Y-5.3381
X6.077Y-6.731
X6.089Y-5.0781
X6.0893Y-5.3985
X6.0955Y-7.278
X6.098Y-4.943
X6.1029Y-6.7451
X6.1079Y-5.1209
X6.114Y-5.265
X6.1166Y-6.1292
X6.1169Y-6.7692
X6.1297Y-6.5679
X6.1351Y-6.798
X6.1394Y-6.8271
X6.1468Y-6.8667
X6.1562Y-5.316
X6.1585Y-4.8121
X6.1587Y-5.4759
X6.174Y-6.5545
X6.176Y-5.3796
X6.1767Y-5.2925
X6.1777Y-5.092
X6.18Y-5.41
X6.18Y-5.754
X6.1837Y-4.8523
X6.1896Y-6.0186
X6.19Y-5.9612
X6.19Y-5.9892
X6.1955Y-5.61
X6.1966Y-6.0599
X6.1971Y-5.4925
X6.1975Y-5.21
X6.2009Y-5.814
X6.2027Y-7.4014
X6.2058Y-6.5383
X6.2095Y-5.9412
X6.2109Y-6.3458
X6.2138Y-5.2508
X6.215Y-5.78
X6.2185Y-5.3975
X6.2199Y-5.9075
X6.2234Y-5.4249
X6.228Y-6.3004
X6.23Y-5.092
X6.233Y-5.877
X6.242Y-6.557
X6.2455Y-6.2141
X6.246Y-7.424
X6.2466Y-5.264
X6.2468Y-5.3581
X6.247Y-6.854
X6.2504Y-5.2364
X6.2615Y-5.3092
X6.2624Y-6.3587
X6.268Y-5.34
X6.27Y-5.97
X6.274Y-6.839
X6.284Y-4.9339
X6.2889Y-5.094
X6.29Y-7.1095
X6.294Y-6.082
X6.3023Y-6.8162
X6.3065Y-5.29
X6.31Y-5.93
X6.31Y-5.97
X6.31Y-6.01
X6.3129Y-4.978
X6.3173Y-6.2141
X6.3221Y-4.8523
X6.3231Y-5.2309
X6.33Y-6.094
X6.3325Y-6.3142
X6.349Y-6.844
X6.35Y-5.97
X6.3511Y-6.6843
X6.354Y-6.712
X6.3579Y-6.6572
X6.3605Y-5.0571
X6.364Y-6.092
X6.3702Y-6.1933
X6.3859Y-5.2448
X6.396Y-6.086
X6.3979Y-5.0935
X6.406Y-6.979
X6.424Y-6.028
X6.4331Y-5.8541
X6.4411Y-5.99
X6.4553Y-5.7893
X6.4587Y-5.1166
X6.459Y-6.565
X6.4671Y-5.6448
X6.4705Y-5.9055
X6.4727Y-5.4207
X6.4743Y-5.5029
X6.4764Y-6.3056
X6.483Y-6.4903
X6.488Y-5.759
X6.489Y-6.408
X6.49Y-4.85
X6.5031Y-6.2976
X6.5109Y-4.975
X6.5123Y-6.4903
X6.5236Y-6.408
X6.5285Y-7.3905
X6.53Y-4.801
X6.5361Y-5.2543
X6.5378Y-4.8681
X6.551Y-7.415
X6.5587Y-5.3532
X6.56Y-6.408
X6.561Y-6.2992
X6.5614Y-4.9372
X6.5646Y-5.7152
X6.5791Y-6.1503
X6.58Y-5.335
X6.5833Y-5.0931
X6.5984Y-6.3084
X6.6071Y-6.1853
X6.6084Y-7.4306
X6.6141Y-5.9363
X6.62Y-4.865
X6.6254Y-5.3373
X6.628Y-3.6
X6.6285Y-5.3096
X6.632Y-7.6895
X6.6416Y-6.1833
X6.6422Y-6.3148
X6.6598Y-7.7044
X6.6623Y-5.2523
X6.678Y-7.5565
X6.684Y-6.1592
X6.6899Y-6.4039
X6.7111Y-6.153
X6.737Y-7.555
X6.7404Y-6.0627
X6.77Y-7.6855
X6.7721Y-6.3721
X6.7766Y-6.3446
X6.8031Y-7.6576
X6.8257Y-6.1967
X7.087Y-7.759
X7.1572Y-4.9424
X7.2425Y-7.7165
X7.2538Y-4.9188
X7.255Y-7.688
X7.28Y-4.3725
X7.3657Y-6.2097
X7.479Y-6.2119
X7.495Y-4.78
X7.506Y-6.2568
X7.5137Y-6.1978
X7.5325Y-7.5865
X7.6179Y-4.8041
X7.6532Y-4.8287
X7.6775Y-6.165
X7.71Y-5.35
X7.715Y-5.39
X7.7309Y-5.3067
X7.7725Y-5.7289
X7.79Y-4.81
X7.81Y-5.855
X7.8478Y-5.3237
X7.8517Y-7.4215
X7.8691Y-5.3925
X7.9031Y-4.9109
X7.955Y-6.3075
X7.98Y-3.7425
X7.9925Y-6.36
X8.0288Y-4.8332
X8.06Y-5.675
X8.0766Y-4.9243
X8.0791Y-4.9749
X8.1Y-5.855
X8.1125Y-4.9033
X8.1135Y-6.2285
X8.115Y-7.214
X8.1243Y-4.8766
X8.1266Y-6.4436
X8.13Y-3.69
X8.1483Y-4.8526
X8.1484Y-7.0414
X8.1537Y-7.3653
X8.185Y-5.99
X8.1867Y-6.3617
X8.195Y-6.3075
X8.1975Y-4.7755
X8.2109Y-4.7999
X8.2161Y-7.0811
X8.2209Y-5.3801
X8.2552Y-7.1028
X8.2639Y-5.3577
X8.264Y-6.478
X8.2769Y-6.9805
X8.2838Y-7.0332
X8.2838Y-7.0632
X8.298Y-5.482
X8.307Y-6.445
X8.3084Y-5.9402
X8.33Y-6.1975
X8.3375Y-5.4787
X8.3434Y-5.8897
X8.3443Y-6.4429
X8.374Y-5.608
X8.3825Y-6.9784
X8.39Y-5.47
X8.4105Y-5.607
X8.42Y-6.4919
X8.4275Y-5.4925
X8.4525Y-5.9665
X8.4575Y-6.4919
X8.4696Y-5.8009
X8.497Y-5.7207
X8.5Y-4.38
X8.5035Y-5.7625
X8.51Y-5.6075
X8.5215Y-5.6849
X8.5252Y-5.8172
X8.5347Y-5.3344
X8.5475Y-5.465
X8.5493Y-5.6881
X8.562Y-6.096
X8.566Y-5.9486
X8.5788Y-5.7314
X8.595Y-5.235
X8.5988Y-5.9347
X8.6002Y-5.8157
X8.6061Y-5.6979
X8.6076Y-5.6277
X8.6411Y-6.5508
X8.6475Y-6.5236
X8.6598Y-5.2201
X8.6766Y-5.1978
X8.682Y-5.52
X8.6838Y-5.8269
X8.6854Y-5.4832
X8.686Y-5.7183
X8.69Y-6.6175
X8.6951Y-5.8939
X8.6954Y-6.4049
X8.6989Y-5.1812
X8.7022Y-5.7591
X8.7089Y-5.1528
X8.7136Y-5.6206
X8.715Y-4.137
X8.715Y-6.59
X8.7245Y-5.8595
X8.7332Y-6.4049
X8.7431Y-5.0987
X8.7826Y-5.0791
X8.7826Y-5.847
X8.7844Y-5.2866
X8.795Y-5.0098
X8.7959Y-5.0376
X8.8113Y-5.7587
X8.8188Y-5.4446
X8.823Y-5.606
X8.825Y-6.5375
X8.829Y-5.291
X8.8446Y-5.682
X8.8524Y-5.7264
X8.8537Y-5.5495
X8.855Y-5.3313
X8.8714Y-5.6024
X8.88Y-5.4365
X8.884Y-5.7282
X8.8923Y-5.583
X8.9025Y-6.62
X8.9114Y-5.4365
X8.9258Y-5.7357
X8.927Y-4.634
X8.93Y-5.93
X8.9347Y-5.5604
X8.9487Y-5.9981
X8.958Y-5.9183
X8.9614Y-5.6492
X8.968Y-5.568
X8.971Y-5.414
X8.9733Y-4.9983
X8.9903Y-5.4374
X8.9959Y-5.7553
X9.0Y-6.3525
X9.0025Y-6.615
X9.0081Y-5.7971
X9.0081Y-5.917
X9.02Y-6.58
X9.033Y-5.033
X9.0353Y-6.1976
X9.0384Y-5.6362
X9.058Y-6.1366
X9.0655Y-4.9355
X9.0701Y-6.1025
X9.0701Y-6.07
X9.08Y-5.269
X9.0814Y-5.5591
X9.0851Y-5.6289
X9.0925Y-5.6586
X9.0941Y-6.1651
X9.096Y-5.064
X9.1153Y-5.89
X9.123Y-5.1809
X9.1292Y-5.7522
X9.1414Y-5.4137
X9.1475Y-5.915
X9.15Y-5.265
X9.1553Y-5.5559
X9.1698Y-5.7692
X9.1747Y-5.3717
X9.1783Y-5.8725
X9.19Y-5.75
X9.2062Y-6.2937
X9.23Y-5.96
X9.2501Y-5.3266
T3
X5.119Y-4.9775
X5.1872Y-4.8813
X5.221Y-4.861
X5.2665Y-4.7481
X5.275Y-6.15
X5.283Y-4.5968
X5.3278Y-6.4927
X5.57Y-6.23
X5.575Y-4.875
X5.61Y-6.055
X5.725Y-6.45
X5.755Y-6.225
X5.83Y-6.07
X5.9546Y-6.215
X6.06Y-5.6611
X6.1225Y-5.4041
X6.2081Y-7.1241
X6.2218Y-5.5164
X6.245Y-5.555
X6.377Y-7.4864
X6.3805Y-7.138
X6.3884Y-5.6522
X6.45Y-5.555
X6.535Y-6.61
X6.8162Y-6.3272
X6.88Y-3.53
X6.8923Y-3.6577
X6.914Y-3.478
X6.925Y-3.8
X6.9269Y-3.6862
X7.12Y-3.47
X7.13Y-3.64
X7.225Y-3.725
X7.2425Y-3.585
X7.25Y-3.46
X7.29Y-4.08
X7.35Y-3.59
X7.35Y-3.64
X7.3748Y-4.9095
X7.4Y-3.596
X7.552Y-3.508
X7.5799Y-3.6596
X7.6872Y-3.6352
X7.7854Y-3.7114
X7.7955Y-7.4475
X7.7955Y-6.4285
X7.82Y-3.68
X8.06Y-6.416
X8.167Y-7.314
X8.1824Y-7.0808
X8.247Y-7.328
X8.27Y-7.394
X8.3288Y-7.1232
X8.3538Y-6.9384
X8.3605Y-6.2735
X8.3692Y-7.0135
X8.405Y-6.2525
X8.4449Y-7.1654
X8.4988Y-6.9132
X8.5891Y-6.2934
X8.64Y-4.34
X8.6415Y-5.2662
X8.7046Y-6.354
X8.7338Y-6.9332
X8.8135Y-4.8766
X8.8373Y-5.6492
X8.857Y-4.424
X8.8701Y-5.2712
X8.9932Y-5.234
X9.2913Y-5.3937
T4
X5.55Y-4.416
X5.556Y-4.556
X5.556Y-4.67
X5.615Y-4.6125
X5.672Y-4.556
X5.672Y-4.67
X6.0233Y-6.2386
X6.8Y-6.2559
X7.5124Y-6.2956
X8.1925Y-5.1125
X8.2425Y-5.19
X8.325Y-5.2341
X8.3475Y-5.09
X8.38Y-5.005
X8.4288Y-4.5898
X8.5175Y-5.1325
X8.5197Y-4.5635
T5
X8.0338Y-7.1204
X8.0338Y-7.2582
X8.0338Y-6.7704
X8.0338Y-6.9082
T6
X6.942Y-4.451
X7.49Y-3.61
X5.9668Y-7.3325
X6.0534Y-7.3825
X6.14Y-7.4325
X6.2266Y-7.4825
X8.512Y-5.542
X7.874Y-6.287
X6.668Y-5.036
X8.345Y-6.115
X8.865Y-6.2725
X6.932Y-4.056
X8.5039Y-7.2244
X8.535Y-4.285
X7.0Y-3.725
X8.599Y-6.384
X6.336Y-7.0305
X6.856Y-4.713
X7.0Y-3.575
X5.0825Y-6.025
X7.053Y-4.736
X7.7Y-6.045
X8.4372Y-3.9372
X8.5079Y-4.0079
X8.5786Y-4.0786
X8.6493Y-4.1493
X8.72Y-4.22
X7.15Y-4.5
X7.77Y-7.529
X8.9275Y-4.4775
X7.705Y-6.45
X9.095Y-4.7825
X7.382Y-7.709
X7.4805Y-7.6916
X7.579Y-7.6743
X7.6774Y-7.6569
X6.4134Y-7.5516
X6.51Y-7.5775
X6.6066Y-7.6034
X6.7032Y-7.6293
X5.8465Y-7.2441
X7.581Y-6.117
X8.175Y-6.115
X6.736Y-4.89
X7.9Y-5.806
X7.9147Y-7.5785
X8.0054Y-7.5363
X8.096Y-7.494
X8.1866Y-7.4517
X9.1491Y-4.9184
X9.175Y-5.015
X9.2009Y-5.1116
X9.2268Y-5.2082
X9.0237Y-6.5001
X9.0579Y-6.4061
X9.0921Y-6.3122
X9.1263Y-6.2182
X9.1605Y-6.1242
X9.1947Y-6.0303
X5.0425Y-5.5875
X8.57Y-6.9575
X6.197Y-7.027
X8.0375Y-6.21
X5.5735Y-4.211
X6.948Y-4.222
X8.843Y-4.335
X7.24Y-4.74
T7
X5.2673Y-5.5832
X6.0546Y-5.5832
T8
X5.5315Y-6.7913
T9
X5.3922Y-6.7668
X5.5069Y-6.9306
X5.5561Y-6.6521
X5.6708Y-6.8159
T0
M30
