M48
; DRILL file {KiCad (5.1.7)-1} date 09/21/21 18:23:53
; FORMAT={-:-/ absolute / inch / decimal}
; #@! TF.CreationDate,2021-09-21T18:23:53-07:00
; #@! TF.GenerationSoftware,Kicad,Pcbnew,(5.1.7)-1
; #@! TF.FileFunction,Plated,1,4,PTH
FMAT,2
INCH
T1C0.0120
T2C0.0157
T3C0.0250
T4C0.0315
T5C0.0335
T6C0.0394
T7C0.0591
T8C0.0669
%
G90
G05
T1
X5.334Y-6.156
X5.43Y-4.922
X5.444Y-5.572
X5.448Y-6.514
X5.456Y-4.808
X5.456Y-5.51
X5.4603Y-6.2028
X5.462Y-4.712
X5.506Y-5.81
X5.506Y-6.1278
X5.5103Y-4.825
X5.5103Y-5.0253
X5.514Y-6.314
X5.536Y-5.992
X5.538Y-5.774
X5.538Y-5.902
X5.5397Y-4.6612
X5.5481Y-4.7661
X5.5599Y-5.868
X5.56Y-5.952
X5.564Y-5.244
X5.564Y-5.44
X5.578Y-5.7504
X5.592Y-5.064
X5.592Y-5.376
X5.5975Y-4.7632
X5.599Y-5.7285
X5.602Y-4.7907
X5.6025Y-4.8185
X5.616Y-5.12
X5.628Y-4.71
X5.6346Y-4.9145
X5.648Y-5.0063
X5.66Y-6.092
X5.664Y-5.832
X5.68Y-4.92
X5.682Y-4.624
X5.688Y-6.284
X5.704Y-4.668
X5.71Y-4.922
X5.7112Y-5.573
X5.718Y-6.2297
X5.718Y-4.8
X5.72Y-6.118
X5.722Y-5.014
X5.73Y-5.448
X5.736Y-4.664
X5.746Y-5.3
X5.748Y-6.142
X5.763Y-6.1655
X5.7661Y-5.806
X5.7661Y-5.8921
X5.776Y-4.6881
X5.782Y-5.992
X5.786Y-6.49
X5.788Y-5.962
X5.794Y-5.768
X5.794Y-5.8621
X5.796Y-4.884
X5.8Y-6.182
X5.824Y-4.82
X5.824Y-6.37
X5.834Y-4.934
X5.8357Y-4.7947
X5.8358Y-5.4903
X5.8381Y-4.8509
X5.8449Y-5.4393
X5.8464Y-5.3095
X5.848Y-6.324
X5.8505Y-5.4666
X5.852Y-5.652
X5.8521Y-6.456
X5.8524Y-5.0406
X5.858Y-5.564
X5.8586Y-4.9471
X5.8631Y-5.1289
X5.8669Y-6.034
X5.8729Y-5.4394
X5.8743Y-5.2984
X5.8751Y-5.0187
X5.8759Y-4.969
X5.8763Y-5.4907
X5.88Y-5.362
X5.884Y-5.208
X5.894Y-6.0441
X5.8967Y-4.7761
X5.898Y-5.2838
X5.9013Y-5.548
X5.906Y-5.0745
X5.9169Y-5.4217
X5.9184Y-4.7354
X5.9185Y-5.3223
X5.9257Y-5.218
X5.934Y-5.107
X5.9358Y-5.5413
X5.9364Y-4.9464
X5.938Y-5.01
X5.946Y-5.802
X5.948Y-6.0901
X5.9491Y-5.3253
X5.9729Y-5.4456
X5.982Y-5.63
X5.9845Y-5.471
X5.986Y-5.588
X5.994Y-4.856
X6.0001Y-5.3849
X6.01Y-5.522
X6.01Y-6.98
X6.02Y-5.244
X6.02Y-6.15
X6.021Y-5.4033
X6.0261Y-5.3236
X6.05Y-7.01
X6.05Y-7.3
X6.0504Y-5.0506
X6.058Y-5.116
X6.0603Y-4.7598
X6.0721Y-5.3092
X6.078Y-5.634
X6.08Y-4.81
X6.0913Y-5.2441
X6.092Y-4.762
X6.0923Y-5.2899
X6.0961Y-5.0343
X6.1014Y-5.3809
X6.132Y-5.51
X6.135Y-6.865
X6.135Y-7.19
X6.1456Y-5.0501
X6.15Y-6.76
X6.1505Y-5.1405
X6.155Y-7.16
X6.162Y-5.356
X6.164Y-4.816
X6.17Y-6.865
X6.17Y-6.915
X6.178Y-5.228
X6.18Y-6.79
X6.1859Y-5.0279
X6.19Y-4.856
X6.19Y-7.19
X6.21Y-6.82
X6.21Y-6.865
X6.212Y-5.306
X6.23Y-6.76
X6.24Y-6.85
X6.26Y-6.79
X6.26Y-7.21
X6.27Y-6.88
X6.274Y-5.51
X6.276Y-5.804
X6.28Y-7.13
X6.28Y-7.3
X6.282Y-5.37
X6.2842Y-5.2528
X6.29Y-6.82
X6.29Y-6.96
X6.298Y-5.662
X6.3Y-6.91
X6.3083Y-5.316
X6.3185Y-6.0555
X6.32Y-5.114
X6.32Y-6.85
X6.32Y-7.13
X6.33Y-6.94
X6.33Y-6.98
X6.33Y-7.02
X6.332Y-6.12
X6.348Y-5.946
X6.35Y-6.88
X6.368Y-6.626
X6.3732Y-6.1069
X6.374Y-6.172
X6.3766Y-5.9059
X6.38Y-6.91
X6.38Y-6.94
X6.38Y-6.98
X6.38Y-7.02
X6.382Y-5.504
X6.386Y-5.412
X6.394Y-5.456
X6.4039Y-5.2661
X6.404Y-6.19
X6.418Y-6.628
X6.42Y-7.02
X6.43Y-7.13
X6.454Y-5.506
X6.468Y-5.428
X6.474Y-5.15
X6.4849Y-5.3099
X6.49Y-7.24
X6.5134Y-5.3099
X6.5381Y-5.686
X6.5401Y-5.7607
X6.558Y-5.434
X6.558Y-6.1539
X6.5583Y-5.8671
X6.56Y-5.51
X6.5803Y-6.2158
X6.582Y-5.488
X6.596Y-5.816
X6.6309Y-6.1539
X6.6314Y-5.2731
X6.666Y-5.1081
X6.6739Y-6.0325
X6.6812Y-5.1532
X6.6926Y-5.0714
X6.694Y-6.102
X6.6942Y-5.1182
X6.696Y-6.0619
X6.7282Y-6.0716
X6.73Y-4.696
X6.7744Y-4.9026
X6.792Y-4.8
X6.818Y-5.12
X6.882Y-4.706
X6.904Y-4.632
X7.136Y-4.45
X7.214Y-4.75
X7.3576Y-3.7991
X7.3583Y-3.9587
X7.376Y-4.826
X7.392Y-4.762
X7.396Y-4.508
X7.4587Y-5.012
X7.4724Y-5.0364
X7.474Y-4.024
X7.476Y-5.066
X7.482Y-3.866
X7.4961Y-3.6654
X7.5002Y-3.9683
X7.5197Y-3.7677
X7.5217Y-5.071
X7.522Y-3.87
X7.5354Y-3.6654
X7.5495Y-5.1763
X7.5576Y-5.0759
X7.5639Y-4.9885
X7.5721Y-5.1976
X7.576Y-5.138
X7.5828Y-4.9014
X7.6004Y-3.8231
X7.6083Y-5.0011
X7.6241Y-4.9132
X7.626Y-3.7874
X7.6263Y-6.096
X7.6321Y-3.6337
X7.634Y-4.8219
X7.6382Y-5.219
X7.6423Y-5.1384
X7.6651Y-5.098
X7.6666Y-5.2165
X7.6819Y-5.2843
X7.6942Y-5.0861
X7.696Y-5.858
X7.7186Y-5.4
X7.72Y-5.434
X7.73Y-6.1368
X7.7441Y-6.2123
X7.7535Y-5.9137
X7.7555Y-5.4385
X7.7598Y-3.7871
X7.7662Y-5.4128
X7.7667Y-5.7015
X7.7721Y-5.5417
X7.7795Y-3.752
X7.7859Y-6.2123
X7.7861Y-5.4692
X7.7874Y-5.876
X7.81Y-6.194
X7.8128Y-5.9345
X7.8144Y-5.5649
X7.8319Y-6.1721
X7.8321Y-5.0591
X7.856Y-6.1
X7.858Y-5.286
X7.86Y-5.2384
X7.8606Y-5.1771
X7.874Y-6.06
X7.876Y-5.002
X7.8778Y-5.7679
X7.88Y-5.219
X7.8855Y-5.2627
X7.8875Y-5.1678
X7.8923Y-5.1403
X7.8944Y-5.7937
X7.908Y-7.306
X7.92Y-5.052
X7.926Y-5.942
X7.96Y-5.59
X7.9692Y-5.7568
X7.978Y-5.85
X7.9948Y-5.0446
X8.0069Y-5.7101
X8.0177Y-5.0288
X8.062Y-6.87
X8.068Y-6.458
X8.0789Y-5.4458
X8.13Y-5.054
X8.13Y-5.466
X8.154Y-5.9797
X8.1648Y-5.7976
X8.1759Y-5.4254
X8.182Y-5.504
X8.2039Y-5.6384
X8.2039Y-5.6844
X8.246Y-5.28
X8.254Y-5.13
X8.2566Y-5.1997
X8.276Y-5.3179
X8.277Y-5.2193
X8.286Y-5.2621
X8.2999Y-5.1785
X8.3001Y-5.2361
X8.302Y-5.404
X8.314Y-5.14
X8.316Y-6.896
X8.3369Y-6.93
X8.36Y-5.04
X8.3957Y-5.5795
X8.4108Y-5.9639
X8.414Y-5.346
X8.418Y-6.96
X8.426Y-5.828
X8.452Y-5.784
X8.4581Y-5.7361
X8.4609Y-5.5259
X8.464Y-5.6646
X8.4726Y-5.0047
X8.4949Y-5.7831
X8.5Y-5.01
X8.508Y-4.922
X8.514Y-5.688
X8.544Y-5.284
X8.5523Y-5.5926
X8.5696Y-5.6865
X8.5779Y-5.9359
X8.594Y-5.128
X8.5945Y-5.7021
X8.61Y-6.246
X8.6102Y-4.4803
X8.626Y-6.56
X8.6276Y-5.6152
X8.6355Y-5.9446
X8.6687Y-6.9132
X8.6708Y-5.6435
X8.676Y-5.614
X8.6774Y-6.236
X8.6797Y-5.5564
X8.683Y-5.7895
X8.6843Y-6.89
X8.6911Y-5.9352
X8.6981Y-6.9173
X8.718Y-6.822
X8.7283Y-5.2874
X8.7476Y-5.9939
X8.7541Y-5.9183
X8.77Y-5.246
X8.7743Y-5.67
X8.78Y-5.852
X8.7845Y-5.5776
X8.7854Y-5.9196
X8.7877Y-5.6194
X8.7921Y-6.2677
X8.796Y-5.226
X8.8066Y-5.8152
X8.8164Y-5.6705
X8.8251Y-5.5951
X8.8311Y-5.8736
X8.8386Y-5.0346
X8.8459Y-6.1497
X8.846Y-5.51
X8.856Y-5.912
X8.856Y-6.602
X8.8561Y-5.8269
X8.858Y-6.326
X8.864Y-4.792
X8.8698Y-5.6575
X8.8779Y-5.7286
X8.878Y-6.098
X8.8952Y-5.6691
X8.896Y-6.44
X8.9244Y-5.6351
X8.946Y-4.862
X8.9508Y-5.6866
X8.982Y-4.814
X8.9866Y-5.7141
X8.9948Y-5.1708
X8.9964Y-5.5041
X9.0017Y-5.3333
X9.0089Y-4.4951
X9.0189Y-5.3552
X9.0336Y-5.5559
X9.0374Y-5.5041
X9.0475Y-5.1968
X9.05Y-6.422
X9.058Y-5.31
X9.0643Y-5.5208
X9.074Y-5.058
X9.0906Y-5.685
X9.096Y-4.868
X9.1017Y-5.2199
X9.1111Y-5.5154
X9.1186Y-5.2421
X9.1295Y-5.3345
X9.132Y-5.712
X9.156Y-5.136
X9.184Y-5.336
X9.19Y-5.876
T2
X5.164Y-5.838
X5.264Y-5.154
X5.332Y-5.924
X5.862Y-4.544
X6.06Y-6.866
X6.072Y-6.508
X6.0796Y-5.4496
X6.152Y-6.9691
X6.2169Y-4.9149
X6.218Y-4.83
X6.2229Y-5.1155
X6.3337Y-5.2604
X6.3583Y-3.6693
X6.4669Y-5.5436
X6.504Y-6.512
X6.5472Y-3.6496
X6.598Y-4.872
X6.9Y-4.34
X6.936Y-4.454
X6.9681Y-4.8419
X7.047Y-4.6011
X7.14Y-4.652
X7.152Y-4.578
X7.286Y-4.83
X7.33Y-4.476
X7.3897Y-4.2146
X7.4055Y-3.5866
X7.4072Y-3.9085
X7.4075Y-3.7677
X7.8483Y-6.3016
X7.9665Y-7.1516
X7.9783Y-6.6594
X7.9783Y-7.4311
X8.0634Y-5.0422
X8.1319Y-6.6417
X8.1603Y-5.0359
X8.1772Y-6.6654
X8.22Y-5.09
X8.2308Y-5.815
X8.311Y-5.6535
X8.315Y-5.7087
X8.536Y-4.678
X8.544Y-4.788
X8.544Y-5.09
X8.578Y-5.298
X8.5787Y-4.9646
X8.5984Y-4.3583
X8.6189Y-5.9996
X8.6575Y-5.4173
X8.707Y-5.854
X8.7473Y-5.4763
X8.7598Y-5.1034
X8.8071Y-4.7244
X8.811Y-4.8916
X8.8714Y-5.3563
X8.8864Y-5.9754
X8.898Y-6.36
X8.898Y-6.498
X8.9184Y-4.894
X8.9205Y-5.28
X8.9304Y-6.2389
X8.9397Y-5.8366
X8.9929Y-5.8345
X9.0039Y-5.9745
X9.0472Y-6.2126
X9.0707Y-5.893
X9.0749Y-6.2539
X9.0827Y-6.1457
X9.0884Y-5.9586
X9.1024Y-5.8661
X9.122Y-6.39
X9.1236Y-5.1034
X9.126Y-6.25
X9.1339Y-6.0984
T3
X5.086Y-5.556
X5.11Y-5.652
X6.0394Y-6.2913
X6.156Y-6.614
X6.2375Y-6.0879
X6.4415Y-6.0701
X6.4646Y-6.2362
X6.4838Y-5.9151
X6.58Y-4.816
X6.6912Y-6.2421
X6.812Y-6.2432
X7.068Y-4.418
X8.25Y-6.1988
X8.3819Y-6.1988
X8.3819Y-6.1988
X8.4744Y-5.9862
X8.4803Y-6.4173
X8.5059Y-6.1988
T4
X7.0315Y-3.5433
X7.0315Y-3.622
X7.1102Y-3.5433
X7.1102Y-3.622
X7.189Y-3.5433
X7.189Y-3.622
X7.2677Y-3.5433
X7.2677Y-3.622
X6.934Y-4.702
X7.0718Y-4.702
X7.284Y-4.702
X7.4218Y-4.702
T5
X8.768Y-6.772
X8.8132Y-6.7075
X8.8325Y-6.8172
X8.8777Y-6.7527
X5.2774Y-4.7741
X5.3106Y-4.7027
X5.3487Y-4.8074
X5.382Y-4.736
X5.6011Y-4.2417
X5.6517Y-4.1814
X5.6614Y-4.2923
X5.712Y-4.232
X5.2186Y-6.3293
X5.2519Y-6.4006
X5.29Y-6.296
X5.3233Y-6.3674
X5.4213Y-4.4961
X5.4636Y-4.4297
X5.4877Y-4.5384
X5.53Y-4.472
X5.3801Y-6.6497
X5.4195Y-6.7179
X5.4483Y-6.6103
X5.4877Y-6.6785
T6
X7.208Y-4.218
X7.826Y-7.56
X7.212Y-4.414
X8.642Y-7.076
X8.1732Y-7.4134
X8.2551Y-7.356
X8.3371Y-7.2987
X8.419Y-7.2413
X8.5009Y-7.184
X5.988Y-6.428
X8.7014Y-4.2479
X8.7588Y-4.3298
X8.8161Y-4.4117
X8.8735Y-4.4936
X8.9308Y-4.5756
X8.9882Y-4.6575
X6.878Y-3.9724
X6.692Y-6.374
T7
X5.9252Y-7.122
T8
X5.7843Y-7.1344
X5.9129Y-6.9812
X5.9375Y-7.2629
X6.0661Y-7.1097
T0
M30
