G04 #@! TF.GenerationSoftware,KiCad,Pcbnew,(5.1.7)-1*
G04 #@! TF.CreationDate,2021-09-21T18:23:52-07:00*
G04 #@! TF.ProjectId,LCP_Controller,4c43505f-436f-46e7-9472-6f6c6c65722e,rev?*
G04 #@! TF.SameCoordinates,Original*
G04 #@! TF.FileFunction,Soldermask,Top*
G04 #@! TF.FilePolarity,Negative*
%FSLAX46Y46*%
G04 Gerber Fmt 4.6, Leading zero omitted, Abs format (unit mm)*
G04 Created by KiCad (PCBNEW (5.1.7)-1) date 2021-09-21 18:23:52*
%MOMM*%
%LPD*%
G01*
G04 APERTURE LIST*
%ADD10C,2.000000*%
%ADD11R,0.900000X0.400000*%
%ADD12C,1.600000*%
%ADD13R,1.600000X1.600000*%
%ADD14R,0.800000X0.900000*%
%ADD15C,3.730000*%
%ADD16R,0.700000X0.200000*%
%ADD17R,1.550000X2.400000*%
%ADD18R,0.650000X0.350000*%
%ADD19C,0.100000*%
%ADD20R,1.500000X1.000000*%
%ADD21O,1.350000X1.350000*%
%ADD22R,1.350000X1.350000*%
%ADD23R,0.650000X1.060000*%
%ADD24R,1.200000X0.900000*%
%ADD25R,0.900000X0.800000*%
%ADD26C,4.500001*%
%ADD27C,4.500000*%
%ADD28C,25.654000*%
%ADD29C,2.250000*%
%ADD30C,2.050000*%
%ADD31C,34.925000*%
%ADD32C,28.575000*%
%ADD33R,0.325000X0.325000*%
%ADD34R,0.500000X0.400000*%
%ADD35R,0.500000X0.300000*%
%ADD36R,1.050000X2.200000*%
%ADD37R,1.000000X1.050000*%
%ADD38R,0.400000X0.650000*%
%ADD39R,0.650000X1.220000*%
%ADD40R,1.230000X1.230000*%
%ADD41R,0.400000X0.900000*%
%ADD42C,0.787400*%
%ADD43C,0.990600*%
G04 APERTURE END LIST*
D10*
X198780400Y-192024000D03*
G36*
G01*
X148750400Y-124579400D02*
X148750400Y-123629400D01*
G75*
G02*
X149000400Y-123379400I250000J0D01*
G01*
X149500400Y-123379400D01*
G75*
G02*
X149750400Y-123629400I0J-250000D01*
G01*
X149750400Y-124579400D01*
G75*
G02*
X149500400Y-124829400I-250000J0D01*
G01*
X149000400Y-124829400D01*
G75*
G02*
X148750400Y-124579400I0J250000D01*
G01*
G37*
G36*
G01*
X150650400Y-124579400D02*
X150650400Y-123629400D01*
G75*
G02*
X150900400Y-123379400I250000J0D01*
G01*
X151400400Y-123379400D01*
G75*
G02*
X151650400Y-123629400I0J-250000D01*
G01*
X151650400Y-124579400D01*
G75*
G02*
X151400400Y-124829400I-250000J0D01*
G01*
X150900400Y-124829400D01*
G75*
G02*
X150650400Y-124579400I0J250000D01*
G01*
G37*
D11*
X210500000Y-148300000D03*
X210500000Y-147500000D03*
X212200000Y-147500000D03*
X212200000Y-148300000D03*
D12*
X188513600Y-119430800D03*
D13*
X185013600Y-119430800D03*
G36*
G01*
X225332820Y-172138195D02*
X224964202Y-171880085D01*
G75*
G02*
X224816857Y-171044448I344146J491491D01*
G01*
X224816857Y-171044448D01*
G75*
G02*
X225652494Y-170897103I491491J-344146D01*
G01*
X226021112Y-171155213D01*
G75*
G02*
X226168457Y-171990850I-344146J-491491D01*
G01*
X226168457Y-171990850D01*
G75*
G02*
X225332820Y-172138195I-491491J344146D01*
G01*
G37*
G36*
G01*
X224185667Y-173776499D02*
X223817049Y-173518389D01*
G75*
G02*
X223669704Y-172682752I344146J491491D01*
G01*
X223669704Y-172682752D01*
G75*
G02*
X224505341Y-172535407I491491J-344146D01*
G01*
X224873959Y-172793517D01*
G75*
G02*
X225021304Y-173629154I-344146J-491491D01*
G01*
X225021304Y-173629154D01*
G75*
G02*
X224185667Y-173776499I-491491J344146D01*
G01*
G37*
G36*
G01*
X223694516Y-170991042D02*
X223325898Y-170732932D01*
G75*
G02*
X223178553Y-169897295I344146J491491D01*
G01*
X223178553Y-169897295D01*
G75*
G02*
X224014190Y-169749950I491491J-344146D01*
G01*
X224382808Y-170008060D01*
G75*
G02*
X224530153Y-170843697I-344146J-491491D01*
G01*
X224530153Y-170843697D01*
G75*
G02*
X223694516Y-170991042I-491491J344146D01*
G01*
G37*
G36*
G01*
X222834067Y-172830098D02*
X221892040Y-172170484D01*
G75*
G02*
X221830647Y-171822303I143394J204787D01*
G01*
X222232152Y-171248895D01*
G75*
G02*
X222580333Y-171187502I204787J-143394D01*
G01*
X223522360Y-171847116D01*
G75*
G02*
X223583753Y-172195297I-143394J-204787D01*
G01*
X223182248Y-172768705D01*
G75*
G02*
X222834067Y-172830098I-204787J143394D01*
G01*
G37*
G36*
G01*
X134054800Y-146906401D02*
X134054800Y-146006399D01*
G75*
G02*
X134304799Y-145756400I249999J0D01*
G01*
X134829801Y-145756400D01*
G75*
G02*
X135079800Y-146006399I0J-249999D01*
G01*
X135079800Y-146906401D01*
G75*
G02*
X134829801Y-147156400I-249999J0D01*
G01*
X134304799Y-147156400D01*
G75*
G02*
X134054800Y-146906401I0J249999D01*
G01*
G37*
G36*
G01*
X132229800Y-146906401D02*
X132229800Y-146006399D01*
G75*
G02*
X132479799Y-145756400I249999J0D01*
G01*
X133004801Y-145756400D01*
G75*
G02*
X133254800Y-146006399I0J-249999D01*
G01*
X133254800Y-146906401D01*
G75*
G02*
X133004801Y-147156400I-249999J0D01*
G01*
X132479799Y-147156400D01*
G75*
G02*
X132229800Y-146906401I0J249999D01*
G01*
G37*
D14*
X133654800Y-150250400D03*
X132704800Y-148250400D03*
X134604800Y-148250400D03*
D15*
X137732000Y-153846000D03*
X137732000Y-128846000D03*
D16*
X161147000Y-137046000D03*
X165497000Y-137046000D03*
X161147000Y-137446000D03*
X165497000Y-137446000D03*
X161147000Y-137846000D03*
X165497000Y-137846000D03*
X161147000Y-138246000D03*
X165497000Y-138246000D03*
X161147000Y-138646000D03*
X165497000Y-138646000D03*
X161147000Y-139046000D03*
X165497000Y-139046000D03*
X161147000Y-139446000D03*
X165497000Y-139446000D03*
X161147000Y-139846000D03*
X165497000Y-139846000D03*
X161147000Y-140246000D03*
X165497000Y-140246000D03*
X161147000Y-140646000D03*
X165497000Y-140646000D03*
D11*
X144678400Y-151295200D03*
X144678400Y-152095200D03*
X142978400Y-152095200D03*
X142978400Y-151295200D03*
X149694000Y-151390400D03*
X149694000Y-152190400D03*
X147994000Y-152190400D03*
X147994000Y-151390400D03*
X144817200Y-146615200D03*
X144817200Y-147415200D03*
X143117200Y-147415200D03*
X143117200Y-146615200D03*
X149948000Y-146615200D03*
X149948000Y-147415200D03*
X148248000Y-147415200D03*
X148248000Y-146615200D03*
D17*
X154254800Y-138420200D03*
D18*
X155804800Y-137445200D03*
X155804800Y-138095200D03*
X155804800Y-138745200D03*
X155804800Y-139395200D03*
X152704800Y-139395200D03*
X152704800Y-138745200D03*
X152704800Y-138095200D03*
X152704800Y-137445200D03*
D17*
X142900400Y-139903200D03*
D18*
X141350400Y-140878200D03*
X141350400Y-140228200D03*
X141350400Y-139578200D03*
X141350400Y-138928200D03*
X144450400Y-138928200D03*
X144450400Y-139578200D03*
X144450400Y-140228200D03*
X144450400Y-140878200D03*
G36*
G01*
X221711858Y-107409229D02*
X221711858Y-107409229D01*
G75*
G02*
X221503119Y-108593048I-696279J-487540D01*
G01*
X221503119Y-108593048D01*
G75*
G02*
X220319300Y-108384309I-487540J696279D01*
G01*
X220319300Y-108384309D01*
G75*
G02*
X220528039Y-107200490I696279J487540D01*
G01*
X220528039Y-107200490D01*
G75*
G02*
X221711858Y-107409229I487540J-696279D01*
G01*
G37*
G36*
G01*
X223168742Y-109489875D02*
X223168742Y-109489875D01*
G75*
G02*
X222960003Y-110673694I-696279J-487540D01*
G01*
X222960003Y-110673694D01*
G75*
G02*
X221776184Y-110464955I-487540J696279D01*
G01*
X221776184Y-110464955D01*
G75*
G02*
X221984923Y-109281136I696279J487540D01*
G01*
X221984923Y-109281136D01*
G75*
G02*
X223168742Y-109489875I487540J-696279D01*
G01*
G37*
G36*
G01*
X224625627Y-111570521D02*
X224625627Y-111570521D01*
G75*
G02*
X224416888Y-112754340I-696279J-487540D01*
G01*
X224416888Y-112754340D01*
G75*
G02*
X223233069Y-112545601I-487540J696279D01*
G01*
X223233069Y-112545601D01*
G75*
G02*
X223441808Y-111361782I696279J487540D01*
G01*
X223441808Y-111361782D01*
G75*
G02*
X224625627Y-111570521I487540J-696279D01*
G01*
G37*
G36*
G01*
X226082511Y-113651168D02*
X226082511Y-113651168D01*
G75*
G02*
X225873772Y-114834987I-696279J-487540D01*
G01*
X225873772Y-114834987D01*
G75*
G02*
X224689953Y-114626248I-487540J696279D01*
G01*
X224689953Y-114626248D01*
G75*
G02*
X224898692Y-113442429I696279J487540D01*
G01*
X224898692Y-113442429D01*
G75*
G02*
X226082511Y-113651168I487540J-696279D01*
G01*
G37*
G36*
G01*
X227539395Y-115731814D02*
X227539395Y-115731814D01*
G75*
G02*
X227330656Y-116915633I-696279J-487540D01*
G01*
X227330656Y-116915633D01*
G75*
G02*
X226146837Y-116706894I-487540J696279D01*
G01*
X226146837Y-116706894D01*
G75*
G02*
X226355576Y-115523075I696279J487540D01*
G01*
X226355576Y-115523075D01*
G75*
G02*
X227539395Y-115731814I487540J-696279D01*
G01*
G37*
D19*
G36*
X228508739Y-117116181D02*
G01*
X229483819Y-118508739D01*
X228091261Y-119483819D01*
X227116181Y-118091261D01*
X228508739Y-117116181D01*
G37*
G36*
X195650000Y-94550000D02*
G01*
X195650000Y-95100000D01*
X195649398Y-95100000D01*
X195649398Y-95124534D01*
X195644588Y-95173365D01*
X195635016Y-95221490D01*
X195620772Y-95268445D01*
X195601995Y-95313778D01*
X195578864Y-95357051D01*
X195551604Y-95397850D01*
X195520476Y-95435779D01*
X195485779Y-95470476D01*
X195447850Y-95501604D01*
X195407051Y-95528864D01*
X195363778Y-95551995D01*
X195318445Y-95570772D01*
X195271490Y-95585016D01*
X195223365Y-95594588D01*
X195174534Y-95599398D01*
X195150000Y-95599398D01*
X195150000Y-95600000D01*
X194650000Y-95600000D01*
X194650000Y-95599398D01*
X194625466Y-95599398D01*
X194576635Y-95594588D01*
X194528510Y-95585016D01*
X194481555Y-95570772D01*
X194436222Y-95551995D01*
X194392949Y-95528864D01*
X194352150Y-95501604D01*
X194314221Y-95470476D01*
X194279524Y-95435779D01*
X194248396Y-95397850D01*
X194221136Y-95357051D01*
X194198005Y-95313778D01*
X194179228Y-95268445D01*
X194164984Y-95221490D01*
X194155412Y-95173365D01*
X194150602Y-95124534D01*
X194150602Y-95100000D01*
X194150000Y-95100000D01*
X194150000Y-94550000D01*
X195650000Y-94550000D01*
G37*
D20*
X194900000Y-93800000D03*
D19*
G36*
X194150602Y-92500000D02*
G01*
X194150602Y-92475466D01*
X194155412Y-92426635D01*
X194164984Y-92378510D01*
X194179228Y-92331555D01*
X194198005Y-92286222D01*
X194221136Y-92242949D01*
X194248396Y-92202150D01*
X194279524Y-92164221D01*
X194314221Y-92129524D01*
X194352150Y-92098396D01*
X194392949Y-92071136D01*
X194436222Y-92048005D01*
X194481555Y-92029228D01*
X194528510Y-92014984D01*
X194576635Y-92005412D01*
X194625466Y-92000602D01*
X194650000Y-92000602D01*
X194650000Y-92000000D01*
X195150000Y-92000000D01*
X195150000Y-92000602D01*
X195174534Y-92000602D01*
X195223365Y-92005412D01*
X195271490Y-92014984D01*
X195318445Y-92029228D01*
X195363778Y-92048005D01*
X195407051Y-92071136D01*
X195447850Y-92098396D01*
X195485779Y-92129524D01*
X195520476Y-92164221D01*
X195551604Y-92202150D01*
X195578864Y-92242949D01*
X195601995Y-92286222D01*
X195620772Y-92331555D01*
X195635016Y-92378510D01*
X195644588Y-92426635D01*
X195649398Y-92475466D01*
X195649398Y-92500000D01*
X195650000Y-92500000D01*
X195650000Y-93050000D01*
X194150000Y-93050000D01*
X194150000Y-92500000D01*
X194150602Y-92500000D01*
G37*
G36*
G01*
X207025000Y-167000000D02*
X207975000Y-167000000D01*
G75*
G02*
X208225000Y-167250000I0J-250000D01*
G01*
X208225000Y-167750000D01*
G75*
G02*
X207975000Y-168000000I-250000J0D01*
G01*
X207025000Y-168000000D01*
G75*
G02*
X206775000Y-167750000I0J250000D01*
G01*
X206775000Y-167250000D01*
G75*
G02*
X207025000Y-167000000I250000J0D01*
G01*
G37*
G36*
G01*
X207025000Y-165100000D02*
X207975000Y-165100000D01*
G75*
G02*
X208225000Y-165350000I0J-250000D01*
G01*
X208225000Y-165850000D01*
G75*
G02*
X207975000Y-166100000I-250000J0D01*
G01*
X207025000Y-166100000D01*
G75*
G02*
X206775000Y-165850000I0J250000D01*
G01*
X206775000Y-165350000D01*
G75*
G02*
X207025000Y-165100000I250000J0D01*
G01*
G37*
D12*
X179623600Y-119430800D03*
D13*
X176123600Y-119430800D03*
G36*
G01*
X224375000Y-134800000D02*
X223425000Y-134800000D01*
G75*
G02*
X223175000Y-134550000I0J250000D01*
G01*
X223175000Y-134050000D01*
G75*
G02*
X223425000Y-133800000I250000J0D01*
G01*
X224375000Y-133800000D01*
G75*
G02*
X224625000Y-134050000I0J-250000D01*
G01*
X224625000Y-134550000D01*
G75*
G02*
X224375000Y-134800000I-250000J0D01*
G01*
G37*
G36*
G01*
X224375000Y-136700000D02*
X223425000Y-136700000D01*
G75*
G02*
X223175000Y-136450000I0J250000D01*
G01*
X223175000Y-135950000D01*
G75*
G02*
X223425000Y-135700000I250000J0D01*
G01*
X224375000Y-135700000D01*
G75*
G02*
X224625000Y-135950000I0J-250000D01*
G01*
X224625000Y-136450000D01*
G75*
G02*
X224375000Y-136700000I-250000J0D01*
G01*
G37*
D11*
X187900000Y-100900000D03*
X187900000Y-100100000D03*
X189600000Y-100100000D03*
X189600000Y-100900000D03*
D21*
X184600000Y-90000000D03*
X184600000Y-92000000D03*
X182600000Y-90000000D03*
X182600000Y-92000000D03*
X180600000Y-90000000D03*
X180600000Y-92000000D03*
X178600000Y-90000000D03*
D22*
X178600000Y-92000000D03*
D10*
X219506800Y-179730400D03*
D23*
X202850000Y-165450000D03*
X201900000Y-165450000D03*
X203800000Y-165450000D03*
X203800000Y-167650000D03*
X202850000Y-167650000D03*
X201900000Y-167650000D03*
G36*
G01*
X137833235Y-113574057D02*
X138212761Y-113815841D01*
G75*
G02*
X138396416Y-114644256I-322380J-506035D01*
G01*
X138396416Y-114644256D01*
G75*
G02*
X137568001Y-114827911I-506035J322380D01*
G01*
X137188475Y-114586127D01*
G75*
G02*
X137004820Y-113757712I322380J506035D01*
G01*
X137004820Y-113757712D01*
G75*
G02*
X137833235Y-113574057I506035J-322380D01*
G01*
G37*
G36*
G01*
X138907834Y-111887274D02*
X139287360Y-112129058D01*
G75*
G02*
X139471015Y-112957473I-322380J-506035D01*
G01*
X139471015Y-112957473D01*
G75*
G02*
X138642600Y-113141128I-506035J322380D01*
G01*
X138263074Y-112899344D01*
G75*
G02*
X138079419Y-112070929I322380J506035D01*
G01*
X138079419Y-112070929D01*
G75*
G02*
X138907834Y-111887274I506035J-322380D01*
G01*
G37*
G36*
G01*
X139520018Y-114648656D02*
X139899544Y-114890440D01*
G75*
G02*
X140083199Y-115718855I-322380J-506035D01*
G01*
X140083199Y-115718855D01*
G75*
G02*
X139254784Y-115902510I-506035J322380D01*
G01*
X138875258Y-115660726D01*
G75*
G02*
X138691603Y-114832311I322380J506035D01*
G01*
X138691603Y-114832311D01*
G75*
G02*
X139520018Y-114648656I506035J-322380D01*
G01*
G37*
G36*
G01*
X140299428Y-112773817D02*
X141269330Y-113391713D01*
G75*
G02*
X141345853Y-113736884I-134324J-210847D01*
G01*
X140969743Y-114327260D01*
G75*
G02*
X140624572Y-114403783I-210847J134324D01*
G01*
X139654670Y-113785887D01*
G75*
G02*
X139578147Y-113440716I134324J210847D01*
G01*
X139954257Y-112850340D01*
G75*
G02*
X140299428Y-112773817I210847J-134324D01*
G01*
G37*
G36*
G01*
X132941131Y-162127556D02*
X133348969Y-161937378D01*
G75*
G02*
X134146325Y-162227592I253571J-543785D01*
G01*
X134146325Y-162227592D01*
G75*
G02*
X133856111Y-163024948I-543785J-253571D01*
G01*
X133448273Y-163215126D01*
G75*
G02*
X132650917Y-162924912I-253571J543785D01*
G01*
X132650917Y-162924912D01*
G75*
G02*
X132941131Y-162127556I543785J253571D01*
G01*
G37*
G36*
G01*
X132095894Y-160314941D02*
X132503732Y-160124763D01*
G75*
G02*
X133301088Y-160414977I253571J-543785D01*
G01*
X133301088Y-160414977D01*
G75*
G02*
X133010874Y-161212333I-543785J-253571D01*
G01*
X132603036Y-161402511D01*
G75*
G02*
X131805680Y-161112297I-253571J543785D01*
G01*
X131805680Y-161112297D01*
G75*
G02*
X132095894Y-160314941I543785J253571D01*
G01*
G37*
G36*
G01*
X134753747Y-161282320D02*
X135161585Y-161092142D01*
G75*
G02*
X135958941Y-161382356I253571J-543785D01*
G01*
X135958941Y-161382356D01*
G75*
G02*
X135668727Y-162179712I-543785J-253571D01*
G01*
X135260889Y-162369890D01*
G75*
G02*
X134463533Y-162079676I-253571J543785D01*
G01*
X134463533Y-162079676D01*
G75*
G02*
X134753747Y-161282320I543785J253571D01*
G01*
G37*
G36*
G01*
X133591301Y-159617621D02*
X134633557Y-159131609D01*
G75*
G02*
X134965787Y-159252531I105654J-226576D01*
G01*
X135261621Y-159886949D01*
G75*
G02*
X135140699Y-160219179I-226576J-105654D01*
G01*
X134098443Y-160705191D01*
G75*
G02*
X133766213Y-160584269I-105654J226576D01*
G01*
X133470379Y-159949851D01*
G75*
G02*
X133591301Y-159617621I226576J105654D01*
G01*
G37*
G36*
G01*
X137160479Y-170227122D02*
X137550191Y-170002122D01*
G75*
G02*
X138369806Y-170221737I300000J-519615D01*
G01*
X138369806Y-170221737D01*
G75*
G02*
X138150191Y-171041352I-519615J-300000D01*
G01*
X137760479Y-171266352D01*
G75*
G02*
X136940864Y-171046737I-300000J519615D01*
G01*
X136940864Y-171046737D01*
G75*
G02*
X137160479Y-170227122I519615J300000D01*
G01*
G37*
G36*
G01*
X136160479Y-168495071D02*
X136550191Y-168270071D01*
G75*
G02*
X137369806Y-168489686I300000J-519615D01*
G01*
X137369806Y-168489686D01*
G75*
G02*
X137150191Y-169309301I-519615J-300000D01*
G01*
X136760479Y-169534301D01*
G75*
G02*
X135940864Y-169314686I-300000J519615D01*
G01*
X135940864Y-169314686D01*
G75*
G02*
X136160479Y-168495071I519615J300000D01*
G01*
G37*
G36*
G01*
X138892530Y-169227122D02*
X139282242Y-169002122D01*
G75*
G02*
X140101857Y-169221737I300000J-519615D01*
G01*
X140101857Y-169221737D01*
G75*
G02*
X139882242Y-170041352I-519615J-300000D01*
G01*
X139492530Y-170266352D01*
G75*
G02*
X138672915Y-170046737I-300000J519615D01*
G01*
X138672915Y-170046737D01*
G75*
G02*
X138892530Y-169227122I519615J300000D01*
G01*
G37*
G36*
G01*
X137589421Y-167670072D02*
X138585352Y-167095071D01*
G75*
G02*
X138926856Y-167186576I124999J-216505D01*
G01*
X139276857Y-167792795D01*
G75*
G02*
X139185352Y-168134300I-216505J-125000D01*
G01*
X138189421Y-168709301D01*
G75*
G02*
X137847916Y-168617795I-125000J216505D01*
G01*
X137497915Y-168011576D01*
G75*
G02*
X137589421Y-167670072I216505J124999D01*
G01*
G37*
D10*
X152095200Y-163271200D03*
X174700000Y-100900000D03*
X169976800Y-161899600D03*
D24*
X199200000Y-161050000D03*
X199200000Y-164350000D03*
G36*
G01*
X147109600Y-159885400D02*
X147109600Y-158935400D01*
G75*
G02*
X147359600Y-158685400I250000J0D01*
G01*
X147859600Y-158685400D01*
G75*
G02*
X148109600Y-158935400I0J-250000D01*
G01*
X148109600Y-159885400D01*
G75*
G02*
X147859600Y-160135400I-250000J0D01*
G01*
X147359600Y-160135400D01*
G75*
G02*
X147109600Y-159885400I0J250000D01*
G01*
G37*
G36*
G01*
X145209600Y-159885400D02*
X145209600Y-158935400D01*
G75*
G02*
X145459600Y-158685400I250000J0D01*
G01*
X145959600Y-158685400D01*
G75*
G02*
X146209600Y-158935400I0J-250000D01*
G01*
X146209600Y-159885400D01*
G75*
G02*
X145959600Y-160135400I-250000J0D01*
G01*
X145459600Y-160135400D01*
G75*
G02*
X145209600Y-159885400I0J250000D01*
G01*
G37*
G36*
G01*
X215625000Y-160400000D02*
X216575000Y-160400000D01*
G75*
G02*
X216825000Y-160650000I0J-250000D01*
G01*
X216825000Y-161150000D01*
G75*
G02*
X216575000Y-161400000I-250000J0D01*
G01*
X215625000Y-161400000D01*
G75*
G02*
X215375000Y-161150000I0J250000D01*
G01*
X215375000Y-160650000D01*
G75*
G02*
X215625000Y-160400000I250000J0D01*
G01*
G37*
G36*
G01*
X215625000Y-158500000D02*
X216575000Y-158500000D01*
G75*
G02*
X216825000Y-158750000I0J-250000D01*
G01*
X216825000Y-159250000D01*
G75*
G02*
X216575000Y-159500000I-250000J0D01*
G01*
X215625000Y-159500000D01*
G75*
G02*
X215375000Y-159250000I0J250000D01*
G01*
X215375000Y-158750000D01*
G75*
G02*
X215625000Y-158500000I250000J0D01*
G01*
G37*
G36*
G01*
X216525000Y-154300000D02*
X215575000Y-154300000D01*
G75*
G02*
X215325000Y-154050000I0J250000D01*
G01*
X215325000Y-153550000D01*
G75*
G02*
X215575000Y-153300000I250000J0D01*
G01*
X216525000Y-153300000D01*
G75*
G02*
X216775000Y-153550000I0J-250000D01*
G01*
X216775000Y-154050000D01*
G75*
G02*
X216525000Y-154300000I-250000J0D01*
G01*
G37*
G36*
G01*
X216525000Y-156200000D02*
X215575000Y-156200000D01*
G75*
G02*
X215325000Y-155950000I0J250000D01*
G01*
X215325000Y-155450000D01*
G75*
G02*
X215575000Y-155200000I250000J0D01*
G01*
X216525000Y-155200000D01*
G75*
G02*
X216775000Y-155450000I0J-250000D01*
G01*
X216775000Y-155950000D01*
G75*
G02*
X216525000Y-156200000I-250000J0D01*
G01*
G37*
G36*
G01*
X199970000Y-166550000D02*
X199630000Y-166550000D01*
G75*
G02*
X199490000Y-166410000I0J140000D01*
G01*
X199490000Y-166130000D01*
G75*
G02*
X199630000Y-165990000I140000J0D01*
G01*
X199970000Y-165990000D01*
G75*
G02*
X200110000Y-166130000I0J-140000D01*
G01*
X200110000Y-166410000D01*
G75*
G02*
X199970000Y-166550000I-140000J0D01*
G01*
G37*
G36*
G01*
X199970000Y-167510000D02*
X199630000Y-167510000D01*
G75*
G02*
X199490000Y-167370000I0J140000D01*
G01*
X199490000Y-167090000D01*
G75*
G02*
X199630000Y-166950000I140000J0D01*
G01*
X199970000Y-166950000D01*
G75*
G02*
X200110000Y-167090000I0J-140000D01*
G01*
X200110000Y-167370000D01*
G75*
G02*
X199970000Y-167510000I-140000J0D01*
G01*
G37*
G36*
G01*
X205250000Y-166625000D02*
X205750000Y-166625000D01*
G75*
G02*
X205975000Y-166850000I0J-225000D01*
G01*
X205975000Y-167300000D01*
G75*
G02*
X205750000Y-167525000I-225000J0D01*
G01*
X205250000Y-167525000D01*
G75*
G02*
X205025000Y-167300000I0J225000D01*
G01*
X205025000Y-166850000D01*
G75*
G02*
X205250000Y-166625000I225000J0D01*
G01*
G37*
G36*
G01*
X205250000Y-165075000D02*
X205750000Y-165075000D01*
G75*
G02*
X205975000Y-165300000I0J-225000D01*
G01*
X205975000Y-165750000D01*
G75*
G02*
X205750000Y-165975000I-225000J0D01*
G01*
X205250000Y-165975000D01*
G75*
G02*
X205025000Y-165750000I0J225000D01*
G01*
X205025000Y-165300000D01*
G75*
G02*
X205250000Y-165075000I225000J0D01*
G01*
G37*
D10*
X183184800Y-112115600D03*
X183083200Y-107137200D03*
D25*
X216347800Y-120599200D03*
X218347800Y-119649200D03*
X218347800Y-121549200D03*
D19*
G36*
X147584431Y-116054951D02*
G01*
X147018745Y-116620637D01*
X146382349Y-115984241D01*
X146948035Y-115418555D01*
X147584431Y-116054951D01*
G37*
G36*
X149670396Y-116797413D02*
G01*
X149104710Y-117363099D01*
X148468314Y-116726703D01*
X149034000Y-116161017D01*
X149670396Y-116797413D01*
G37*
G36*
X148326893Y-118140916D02*
G01*
X147761207Y-118706602D01*
X147124811Y-118070206D01*
X147690497Y-117504520D01*
X148326893Y-118140916D01*
G37*
D26*
X149000000Y-170000000D03*
D19*
G36*
X230731115Y-165094173D02*
G01*
X230168199Y-164769173D01*
X230693199Y-163859847D01*
X231256115Y-164184847D01*
X230731115Y-165094173D01*
G37*
G36*
X228656115Y-168688179D02*
G01*
X228093199Y-168363179D01*
X228618199Y-167453853D01*
X229181115Y-167778853D01*
X228656115Y-168688179D01*
G37*
G36*
X228869161Y-164019173D02*
G01*
X228306245Y-163694173D01*
X228831245Y-162784847D01*
X229394161Y-163109847D01*
X228869161Y-164019173D01*
G37*
G36*
X226794161Y-167613179D02*
G01*
X226231245Y-167288179D01*
X226756245Y-166378853D01*
X227319161Y-166703853D01*
X226794161Y-167613179D01*
G37*
D27*
X214669158Y-170000000D03*
G36*
G01*
X136435243Y-119507609D02*
X137477499Y-119993621D01*
G75*
G02*
X137598421Y-120325851I-105654J-226576D01*
G01*
X137302587Y-120960269D01*
G75*
G02*
X136970357Y-121081191I-226576J105654D01*
G01*
X135928101Y-120595179D01*
G75*
G02*
X135807179Y-120262949I105654J226576D01*
G01*
X136103013Y-119628531D01*
G75*
G02*
X136435243Y-119507609I226576J-105654D01*
G01*
G37*
G36*
G01*
X135907215Y-121468142D02*
X136315053Y-121658320D01*
G75*
G02*
X136605267Y-122455676I-253571J-543785D01*
G01*
X136605267Y-122455676D01*
G75*
G02*
X135807911Y-122745890I-543785J253571D01*
G01*
X135400073Y-122555712D01*
G75*
G02*
X135109859Y-121758356I253571J543785D01*
G01*
X135109859Y-121758356D01*
G75*
G02*
X135907215Y-121468142I543785J-253571D01*
G01*
G37*
G36*
G01*
X134939836Y-118810289D02*
X135347674Y-119000467D01*
G75*
G02*
X135637888Y-119797823I-253571J-543785D01*
G01*
X135637888Y-119797823D01*
G75*
G02*
X134840532Y-120088037I-543785J253571D01*
G01*
X134432694Y-119897859D01*
G75*
G02*
X134142480Y-119100503I253571J543785D01*
G01*
X134142480Y-119100503D01*
G75*
G02*
X134939836Y-118810289I543785J-253571D01*
G01*
G37*
G36*
G01*
X134094600Y-120622905D02*
X134502438Y-120813083D01*
G75*
G02*
X134792652Y-121610439I-253571J-543785D01*
G01*
X134792652Y-121610439D01*
G75*
G02*
X133995296Y-121900653I-543785J253571D01*
G01*
X133587458Y-121710475D01*
G75*
G02*
X133297244Y-120913119I253571J543785D01*
G01*
X133297244Y-120913119D01*
G75*
G02*
X134094600Y-120622905I543785J-253571D01*
G01*
G37*
G36*
G01*
X142480449Y-107135060D02*
X142825169Y-107424314D01*
G75*
G02*
X142899123Y-108269614I-385673J-459627D01*
G01*
X142899123Y-108269614D01*
G75*
G02*
X142053823Y-108343568I-459627J385673D01*
G01*
X141709103Y-108054314D01*
G75*
G02*
X141635149Y-107209014I385673J459627D01*
G01*
X141635149Y-107209014D01*
G75*
G02*
X142480449Y-107135060I459627J-385673D01*
G01*
G37*
G36*
G01*
X143766024Y-105602971D02*
X144110744Y-105892225D01*
G75*
G02*
X144184698Y-106737525I-385673J-459627D01*
G01*
X144184698Y-106737525D01*
G75*
G02*
X143339398Y-106811479I-459627J385673D01*
G01*
X142994678Y-106522225D01*
G75*
G02*
X142920724Y-105676925I385673J459627D01*
G01*
X142920724Y-105676925D01*
G75*
G02*
X143766024Y-105602971I459627J-385673D01*
G01*
G37*
G36*
G01*
X144012538Y-108420635D02*
X144357258Y-108709889D01*
G75*
G02*
X144431212Y-109555189I-385673J-459627D01*
G01*
X144431212Y-109555189D01*
G75*
G02*
X143585912Y-109629143I-459627J385673D01*
G01*
X143241192Y-109339889D01*
G75*
G02*
X143167238Y-108494589I385673J459627D01*
G01*
X143167238Y-108494589D01*
G75*
G02*
X144012538Y-108420635I459627J-385673D01*
G01*
G37*
G36*
G01*
X145029996Y-106663570D02*
X145910949Y-107402777D01*
G75*
G02*
X145941763Y-107754983I-160696J-191510D01*
G01*
X145491810Y-108291216D01*
G75*
G02*
X145139604Y-108322030I-191510J160696D01*
G01*
X144258651Y-107582823D01*
G75*
G02*
X144227837Y-107230617I160696J191510D01*
G01*
X144677790Y-106694384D01*
G75*
G02*
X145029996Y-106663570I191510J-160696D01*
G01*
G37*
G36*
G01*
X132126300Y-139743601D02*
X132126300Y-138843599D01*
G75*
G02*
X132376299Y-138593600I249999J0D01*
G01*
X132901301Y-138593600D01*
G75*
G02*
X133151300Y-138843599I0J-249999D01*
G01*
X133151300Y-139743601D01*
G75*
G02*
X132901301Y-139993600I-249999J0D01*
G01*
X132376299Y-139993600D01*
G75*
G02*
X132126300Y-139743601I0J249999D01*
G01*
G37*
G36*
G01*
X130301300Y-139743601D02*
X130301300Y-138843599D01*
G75*
G02*
X130551299Y-138593600I249999J0D01*
G01*
X131076301Y-138593600D01*
G75*
G02*
X131326300Y-138843599I0J-249999D01*
G01*
X131326300Y-139743601D01*
G75*
G02*
X131076301Y-139993600I-249999J0D01*
G01*
X130551299Y-139993600D01*
G75*
G02*
X130301300Y-139743601I0J249999D01*
G01*
G37*
D14*
X131673600Y-143138400D03*
X130723600Y-141138400D03*
X132623600Y-141138400D03*
G36*
G01*
X142867400Y-157487200D02*
X141917400Y-157487200D01*
G75*
G02*
X141667400Y-157237200I0J250000D01*
G01*
X141667400Y-156737200D01*
G75*
G02*
X141917400Y-156487200I250000J0D01*
G01*
X142867400Y-156487200D01*
G75*
G02*
X143117400Y-156737200I0J-250000D01*
G01*
X143117400Y-157237200D01*
G75*
G02*
X142867400Y-157487200I-250000J0D01*
G01*
G37*
G36*
G01*
X142867400Y-159387200D02*
X141917400Y-159387200D01*
G75*
G02*
X141667400Y-159137200I0J250000D01*
G01*
X141667400Y-158637200D01*
G75*
G02*
X141917400Y-158387200I250000J0D01*
G01*
X142867400Y-158387200D01*
G75*
G02*
X143117400Y-158637200I0J-250000D01*
G01*
X143117400Y-159137200D01*
G75*
G02*
X142867400Y-159387200I-250000J0D01*
G01*
G37*
D25*
X206400000Y-184550000D03*
X204400000Y-185500000D03*
X204400000Y-183600000D03*
D28*
X161514579Y-109284962D03*
D29*
X150813072Y-184478433D03*
X146921567Y-181213072D03*
X150186928Y-177321567D03*
X154078433Y-180586928D03*
D30*
X150500000Y-180900000D03*
G36*
G01*
X163925000Y-169100000D02*
X164275000Y-169100000D01*
G75*
G02*
X164450000Y-169275000I0J-175000D01*
G01*
X164450000Y-170725000D01*
G75*
G02*
X164275000Y-170900000I-175000J0D01*
G01*
X163925000Y-170900000D01*
G75*
G02*
X163750000Y-170725000I0J175000D01*
G01*
X163750000Y-169275000D01*
G75*
G02*
X163925000Y-169100000I175000J0D01*
G01*
G37*
G36*
G01*
X162800000Y-169100000D02*
X163200000Y-169100000D01*
G75*
G02*
X163400000Y-169300000I0J-200000D01*
G01*
X163400000Y-170700000D01*
G75*
G02*
X163200000Y-170900000I-200000J0D01*
G01*
X162800000Y-170900000D01*
G75*
G02*
X162600000Y-170700000I0J200000D01*
G01*
X162600000Y-169300000D01*
G75*
G02*
X162800000Y-169100000I200000J0D01*
G01*
G37*
G36*
G01*
X161700000Y-169100000D02*
X162100000Y-169100000D01*
G75*
G02*
X162300000Y-169300000I0J-200000D01*
G01*
X162300000Y-170700000D01*
G75*
G02*
X162100000Y-170900000I-200000J0D01*
G01*
X161700000Y-170900000D01*
G75*
G02*
X161500000Y-170700000I0J200000D01*
G01*
X161500000Y-169300000D01*
G75*
G02*
X161700000Y-169100000I200000J0D01*
G01*
G37*
G36*
G01*
X160600000Y-169100000D02*
X161000000Y-169100000D01*
G75*
G02*
X161200000Y-169300000I0J-200000D01*
G01*
X161200000Y-170700000D01*
G75*
G02*
X161000000Y-170900000I-200000J0D01*
G01*
X160600000Y-170900000D01*
G75*
G02*
X160400000Y-170700000I0J200000D01*
G01*
X160400000Y-169300000D01*
G75*
G02*
X160600000Y-169100000I200000J0D01*
G01*
G37*
G36*
G01*
X159500000Y-169100000D02*
X159900000Y-169100000D01*
G75*
G02*
X160100000Y-169300000I0J-200000D01*
G01*
X160100000Y-170700000D01*
G75*
G02*
X159900000Y-170900000I-200000J0D01*
G01*
X159500000Y-170900000D01*
G75*
G02*
X159300000Y-170700000I0J200000D01*
G01*
X159300000Y-169300000D01*
G75*
G02*
X159500000Y-169100000I200000J0D01*
G01*
G37*
G36*
G01*
X158400000Y-169100000D02*
X158800000Y-169100000D01*
G75*
G02*
X159000000Y-169300000I0J-200000D01*
G01*
X159000000Y-170700000D01*
G75*
G02*
X158800000Y-170900000I-200000J0D01*
G01*
X158400000Y-170900000D01*
G75*
G02*
X158200000Y-170700000I0J200000D01*
G01*
X158200000Y-169300000D01*
G75*
G02*
X158400000Y-169100000I200000J0D01*
G01*
G37*
G36*
G01*
X157300000Y-169100000D02*
X157700000Y-169100000D01*
G75*
G02*
X157900000Y-169300000I0J-200000D01*
G01*
X157900000Y-170700000D01*
G75*
G02*
X157700000Y-170900000I-200000J0D01*
G01*
X157300000Y-170900000D01*
G75*
G02*
X157100000Y-170700000I0J200000D01*
G01*
X157100000Y-169300000D01*
G75*
G02*
X157300000Y-169100000I200000J0D01*
G01*
G37*
G36*
G01*
X156200000Y-169100000D02*
X156600000Y-169100000D01*
G75*
G02*
X156800000Y-169300000I0J-200000D01*
G01*
X156800000Y-170700000D01*
G75*
G02*
X156600000Y-170900000I-200000J0D01*
G01*
X156200000Y-170900000D01*
G75*
G02*
X156000000Y-170700000I0J200000D01*
G01*
X156000000Y-169300000D01*
G75*
G02*
X156200000Y-169100000I200000J0D01*
G01*
G37*
G36*
G01*
X155125000Y-169100000D02*
X155475000Y-169100000D01*
G75*
G02*
X155650000Y-169275000I0J-175000D01*
G01*
X155650000Y-170725000D01*
G75*
G02*
X155475000Y-170900000I-175000J0D01*
G01*
X155125000Y-170900000D01*
G75*
G02*
X154950000Y-170725000I0J175000D01*
G01*
X154950000Y-169275000D01*
G75*
G02*
X155125000Y-169100000I175000J0D01*
G01*
G37*
G36*
G01*
X155125000Y-159600000D02*
X155475000Y-159600000D01*
G75*
G02*
X155650000Y-159775000I0J-175000D01*
G01*
X155650000Y-161225000D01*
G75*
G02*
X155475000Y-161400000I-175000J0D01*
G01*
X155125000Y-161400000D01*
G75*
G02*
X154950000Y-161225000I0J175000D01*
G01*
X154950000Y-159775000D01*
G75*
G02*
X155125000Y-159600000I175000J0D01*
G01*
G37*
G36*
G01*
X156200000Y-159600000D02*
X156600000Y-159600000D01*
G75*
G02*
X156800000Y-159800000I0J-200000D01*
G01*
X156800000Y-161200000D01*
G75*
G02*
X156600000Y-161400000I-200000J0D01*
G01*
X156200000Y-161400000D01*
G75*
G02*
X156000000Y-161200000I0J200000D01*
G01*
X156000000Y-159800000D01*
G75*
G02*
X156200000Y-159600000I200000J0D01*
G01*
G37*
G36*
G01*
X157300000Y-159600000D02*
X157700000Y-159600000D01*
G75*
G02*
X157900000Y-159800000I0J-200000D01*
G01*
X157900000Y-161200000D01*
G75*
G02*
X157700000Y-161400000I-200000J0D01*
G01*
X157300000Y-161400000D01*
G75*
G02*
X157100000Y-161200000I0J200000D01*
G01*
X157100000Y-159800000D01*
G75*
G02*
X157300000Y-159600000I200000J0D01*
G01*
G37*
G36*
G01*
X158400000Y-159600000D02*
X158800000Y-159600000D01*
G75*
G02*
X159000000Y-159800000I0J-200000D01*
G01*
X159000000Y-161200000D01*
G75*
G02*
X158800000Y-161400000I-200000J0D01*
G01*
X158400000Y-161400000D01*
G75*
G02*
X158200000Y-161200000I0J200000D01*
G01*
X158200000Y-159800000D01*
G75*
G02*
X158400000Y-159600000I200000J0D01*
G01*
G37*
G36*
G01*
X159500000Y-159600000D02*
X159900000Y-159600000D01*
G75*
G02*
X160100000Y-159800000I0J-200000D01*
G01*
X160100000Y-161200000D01*
G75*
G02*
X159900000Y-161400000I-200000J0D01*
G01*
X159500000Y-161400000D01*
G75*
G02*
X159300000Y-161200000I0J200000D01*
G01*
X159300000Y-159800000D01*
G75*
G02*
X159500000Y-159600000I200000J0D01*
G01*
G37*
G36*
G01*
X160600000Y-159600000D02*
X161000000Y-159600000D01*
G75*
G02*
X161200000Y-159800000I0J-200000D01*
G01*
X161200000Y-161200000D01*
G75*
G02*
X161000000Y-161400000I-200000J0D01*
G01*
X160600000Y-161400000D01*
G75*
G02*
X160400000Y-161200000I0J200000D01*
G01*
X160400000Y-159800000D01*
G75*
G02*
X160600000Y-159600000I200000J0D01*
G01*
G37*
G36*
G01*
X161700000Y-159600000D02*
X162100000Y-159600000D01*
G75*
G02*
X162300000Y-159800000I0J-200000D01*
G01*
X162300000Y-161200000D01*
G75*
G02*
X162100000Y-161400000I-200000J0D01*
G01*
X161700000Y-161400000D01*
G75*
G02*
X161500000Y-161200000I0J200000D01*
G01*
X161500000Y-159800000D01*
G75*
G02*
X161700000Y-159600000I200000J0D01*
G01*
G37*
G36*
G01*
X162800000Y-159600000D02*
X163200000Y-159600000D01*
G75*
G02*
X163400000Y-159800000I0J-200000D01*
G01*
X163400000Y-161200000D01*
G75*
G02*
X163200000Y-161400000I-200000J0D01*
G01*
X162800000Y-161400000D01*
G75*
G02*
X162600000Y-161200000I0J200000D01*
G01*
X162600000Y-159800000D01*
G75*
G02*
X162800000Y-159600000I200000J0D01*
G01*
G37*
G36*
G01*
X163925000Y-159600000D02*
X164275000Y-159600000D01*
G75*
G02*
X164450000Y-159775000I0J-175000D01*
G01*
X164450000Y-161225000D01*
G75*
G02*
X164275000Y-161400000I-175000J0D01*
G01*
X163925000Y-161400000D01*
G75*
G02*
X163750000Y-161225000I0J175000D01*
G01*
X163750000Y-159775000D01*
G75*
G02*
X163925000Y-159600000I175000J0D01*
G01*
G37*
G36*
G01*
X161950000Y-179025000D02*
X161950000Y-179975000D01*
G75*
G02*
X161700000Y-180225000I-250000J0D01*
G01*
X161200000Y-180225000D01*
G75*
G02*
X160950000Y-179975000I0J250000D01*
G01*
X160950000Y-179025000D01*
G75*
G02*
X161200000Y-178775000I250000J0D01*
G01*
X161700000Y-178775000D01*
G75*
G02*
X161950000Y-179025000I0J-250000D01*
G01*
G37*
G36*
G01*
X163850000Y-179025000D02*
X163850000Y-179975000D01*
G75*
G02*
X163600000Y-180225000I-250000J0D01*
G01*
X163100000Y-180225000D01*
G75*
G02*
X162850000Y-179975000I0J250000D01*
G01*
X162850000Y-179025000D01*
G75*
G02*
X163100000Y-178775000I250000J0D01*
G01*
X163600000Y-178775000D01*
G75*
G02*
X163850000Y-179025000I0J-250000D01*
G01*
G37*
G36*
G01*
X160130200Y-155933800D02*
X159300200Y-155933800D01*
G75*
G02*
X159198600Y-155832200I0J101600D01*
G01*
X159198600Y-155202200D01*
G75*
G02*
X159300200Y-155100600I101600J0D01*
G01*
X160130200Y-155100600D01*
G75*
G02*
X160231800Y-155202200I0J-101600D01*
G01*
X160231800Y-155832200D01*
G75*
G02*
X160130200Y-155933800I-101600J0D01*
G01*
G37*
G36*
G01*
X160130200Y-158233800D02*
X159300200Y-158233800D01*
G75*
G02*
X159198600Y-158132200I0J101600D01*
G01*
X159198600Y-157502200D01*
G75*
G02*
X159300200Y-157400600I101600J0D01*
G01*
X160130200Y-157400600D01*
G75*
G02*
X160231800Y-157502200I0J-101600D01*
G01*
X160231800Y-158132200D01*
G75*
G02*
X160130200Y-158233800I-101600J0D01*
G01*
G37*
D31*
X181834579Y-177373517D03*
D32*
X181834579Y-142448517D03*
D28*
X202154579Y-109284962D03*
D33*
X213350000Y-145062500D03*
X212850000Y-145062500D03*
X212850000Y-143537500D03*
X213350000Y-143537500D03*
X212337500Y-145050000D03*
X213862500Y-145050000D03*
X212337500Y-143550000D03*
X213862500Y-143550000D03*
X212337500Y-144050000D03*
X212337500Y-144550000D03*
X213862500Y-144050000D03*
X213862500Y-144550000D03*
D19*
G36*
X203994255Y-154733961D02*
G01*
X204003634Y-154736806D01*
X204012279Y-154741427D01*
X204019855Y-154747645D01*
X204026073Y-154755221D01*
X204030694Y-154763866D01*
X204033539Y-154773245D01*
X204034500Y-154783000D01*
X204034500Y-160117000D01*
X204033539Y-160126755D01*
X204030694Y-160136134D01*
X204026073Y-160144779D01*
X204019855Y-160152355D01*
X204012279Y-160158573D01*
X204003634Y-160163194D01*
X203994255Y-160166039D01*
X203984500Y-160167000D01*
X201063500Y-160167000D01*
X201053745Y-160166039D01*
X201044366Y-160163194D01*
X201035721Y-160158573D01*
X201028145Y-160152355D01*
X201021927Y-160144779D01*
X201017306Y-160136134D01*
X201014461Y-160126755D01*
X201013500Y-160117000D01*
X201013500Y-159087500D01*
X200492000Y-159087500D01*
X200482245Y-159086539D01*
X200472866Y-159083694D01*
X200464221Y-159079073D01*
X200456645Y-159072855D01*
X200450427Y-159065279D01*
X200445806Y-159056634D01*
X200442961Y-159047255D01*
X200442000Y-159037500D01*
X200442000Y-155862500D01*
X200442961Y-155852745D01*
X200445806Y-155843366D01*
X200450427Y-155834721D01*
X200456645Y-155827145D01*
X200464221Y-155820927D01*
X200472866Y-155816306D01*
X200482245Y-155813461D01*
X200492000Y-155812500D01*
X201013500Y-155812500D01*
X201013500Y-154783000D01*
X201014461Y-154773245D01*
X201017306Y-154763866D01*
X201021927Y-154755221D01*
X201028145Y-154747645D01*
X201035721Y-154741427D01*
X201044366Y-154736806D01*
X201053745Y-154733961D01*
X201063500Y-154733000D01*
X203984500Y-154733000D01*
X203994255Y-154733961D01*
G37*
G36*
X213646255Y-154733961D02*
G01*
X213655634Y-154736806D01*
X213664279Y-154741427D01*
X213671855Y-154747645D01*
X213678073Y-154755221D01*
X213682694Y-154763866D01*
X213685539Y-154773245D01*
X213686500Y-154783000D01*
X213686500Y-155812500D01*
X214208000Y-155812500D01*
X214217755Y-155813461D01*
X214227134Y-155816306D01*
X214235779Y-155820927D01*
X214243355Y-155827145D01*
X214249573Y-155834721D01*
X214254194Y-155843366D01*
X214257039Y-155852745D01*
X214258000Y-155862500D01*
X214258000Y-159037500D01*
X214257039Y-159047255D01*
X214254194Y-159056634D01*
X214249573Y-159065279D01*
X214243355Y-159072855D01*
X214235779Y-159079073D01*
X214227134Y-159083694D01*
X214217755Y-159086539D01*
X214208000Y-159087500D01*
X213686500Y-159087500D01*
X213686500Y-160117000D01*
X213685539Y-160126755D01*
X213682694Y-160136134D01*
X213678073Y-160144779D01*
X213671855Y-160152355D01*
X213664279Y-160158573D01*
X213655634Y-160163194D01*
X213646255Y-160166039D01*
X213636500Y-160167000D01*
X210779000Y-160167000D01*
X210769245Y-160166039D01*
X210759866Y-160163194D01*
X210751221Y-160158573D01*
X210743645Y-160152355D01*
X210737427Y-160144779D01*
X210732806Y-160136134D01*
X210729961Y-160126755D01*
X210729000Y-160117000D01*
X210729000Y-154783000D01*
X210729961Y-154773245D01*
X210732806Y-154763866D01*
X210737427Y-154755221D01*
X210743645Y-154747645D01*
X210751221Y-154741427D01*
X210759866Y-154736806D01*
X210769245Y-154733961D01*
X210779000Y-154733000D01*
X213636500Y-154733000D01*
X213646255Y-154733961D01*
G37*
D34*
X150868000Y-139942000D03*
D35*
X150868000Y-139442000D03*
D34*
X150868000Y-138442000D03*
D35*
X150868000Y-138942000D03*
D34*
X149868000Y-139942000D03*
D35*
X149868000Y-138942000D03*
X149868000Y-139442000D03*
D34*
X149868000Y-138442000D03*
X146566000Y-138442000D03*
D35*
X146566000Y-138942000D03*
D34*
X146566000Y-139942000D03*
D35*
X146566000Y-139442000D03*
D34*
X147566000Y-138442000D03*
D35*
X147566000Y-139442000D03*
X147566000Y-138942000D03*
D34*
X147566000Y-139942000D03*
X152036400Y-134760400D03*
D35*
X152036400Y-134260400D03*
D34*
X152036400Y-133260400D03*
D35*
X152036400Y-133760400D03*
D34*
X151036400Y-134760400D03*
D35*
X151036400Y-133760400D03*
X151036400Y-134260400D03*
D34*
X151036400Y-133260400D03*
X146769200Y-133108000D03*
D35*
X146769200Y-133608000D03*
D34*
X146769200Y-134608000D03*
D35*
X146769200Y-134108000D03*
D34*
X147769200Y-133108000D03*
D35*
X147769200Y-134108000D03*
X147769200Y-133608000D03*
D34*
X147769200Y-134608000D03*
X152857200Y-129422400D03*
D35*
X152857200Y-128922400D03*
D34*
X152857200Y-127922400D03*
D35*
X152857200Y-128422400D03*
D34*
X151857200Y-129422400D03*
D35*
X151857200Y-128422400D03*
X151857200Y-128922400D03*
D34*
X151857200Y-127922400D03*
X146718400Y-127723200D03*
D35*
X146718400Y-128223200D03*
D34*
X146718400Y-129223200D03*
D35*
X146718400Y-128723200D03*
D34*
X147718400Y-127723200D03*
D35*
X147718400Y-128723200D03*
X147718400Y-128223200D03*
D34*
X147718400Y-129223200D03*
X224434400Y-164669600D03*
D35*
X224434400Y-164169600D03*
D34*
X224434400Y-163169600D03*
D35*
X224434400Y-163669600D03*
D34*
X223434400Y-164669600D03*
D35*
X223434400Y-163669600D03*
X223434400Y-164169600D03*
D34*
X223434400Y-163169600D03*
D36*
X163375000Y-183275000D03*
D37*
X161900000Y-181750000D03*
D36*
X160425000Y-183275000D03*
D38*
X157650000Y-175650000D03*
X158950000Y-175650000D03*
X158300000Y-177550000D03*
X158300000Y-175650000D03*
X158950000Y-177550000D03*
X157650000Y-177550000D03*
D39*
X172908000Y-123342400D03*
X171958000Y-123342400D03*
X171008000Y-123342400D03*
X171008000Y-120722400D03*
X171958000Y-120722400D03*
X172908000Y-120722400D03*
D40*
X191000000Y-95700000D03*
G36*
G01*
X191875000Y-96787500D02*
X191875000Y-97487500D01*
G75*
G02*
X191812500Y-97550000I-62500J0D01*
G01*
X191687500Y-97550000D01*
G75*
G02*
X191625000Y-97487500I0J62500D01*
G01*
X191625000Y-96787500D01*
G75*
G02*
X191687500Y-96725000I62500J0D01*
G01*
X191812500Y-96725000D01*
G75*
G02*
X191875000Y-96787500I0J-62500D01*
G01*
G37*
G36*
G01*
X191375000Y-96787500D02*
X191375000Y-97487500D01*
G75*
G02*
X191312500Y-97550000I-62500J0D01*
G01*
X191187500Y-97550000D01*
G75*
G02*
X191125000Y-97487500I0J62500D01*
G01*
X191125000Y-96787500D01*
G75*
G02*
X191187500Y-96725000I62500J0D01*
G01*
X191312500Y-96725000D01*
G75*
G02*
X191375000Y-96787500I0J-62500D01*
G01*
G37*
G36*
G01*
X190875000Y-96787500D02*
X190875000Y-97487500D01*
G75*
G02*
X190812500Y-97550000I-62500J0D01*
G01*
X190687500Y-97550000D01*
G75*
G02*
X190625000Y-97487500I0J62500D01*
G01*
X190625000Y-96787500D01*
G75*
G02*
X190687500Y-96725000I62500J0D01*
G01*
X190812500Y-96725000D01*
G75*
G02*
X190875000Y-96787500I0J-62500D01*
G01*
G37*
G36*
G01*
X190375000Y-96787500D02*
X190375000Y-97487500D01*
G75*
G02*
X190312500Y-97550000I-62500J0D01*
G01*
X190187500Y-97550000D01*
G75*
G02*
X190125000Y-97487500I0J62500D01*
G01*
X190125000Y-96787500D01*
G75*
G02*
X190187500Y-96725000I62500J0D01*
G01*
X190312500Y-96725000D01*
G75*
G02*
X190375000Y-96787500I0J-62500D01*
G01*
G37*
G36*
G01*
X189975000Y-96387500D02*
X189975000Y-96512500D01*
G75*
G02*
X189912500Y-96575000I-62500J0D01*
G01*
X189212500Y-96575000D01*
G75*
G02*
X189150000Y-96512500I0J62500D01*
G01*
X189150000Y-96387500D01*
G75*
G02*
X189212500Y-96325000I62500J0D01*
G01*
X189912500Y-96325000D01*
G75*
G02*
X189975000Y-96387500I0J-62500D01*
G01*
G37*
G36*
G01*
X189975000Y-95887500D02*
X189975000Y-96012500D01*
G75*
G02*
X189912500Y-96075000I-62500J0D01*
G01*
X189212500Y-96075000D01*
G75*
G02*
X189150000Y-96012500I0J62500D01*
G01*
X189150000Y-95887500D01*
G75*
G02*
X189212500Y-95825000I62500J0D01*
G01*
X189912500Y-95825000D01*
G75*
G02*
X189975000Y-95887500I0J-62500D01*
G01*
G37*
G36*
G01*
X189975000Y-95387500D02*
X189975000Y-95512500D01*
G75*
G02*
X189912500Y-95575000I-62500J0D01*
G01*
X189212500Y-95575000D01*
G75*
G02*
X189150000Y-95512500I0J62500D01*
G01*
X189150000Y-95387500D01*
G75*
G02*
X189212500Y-95325000I62500J0D01*
G01*
X189912500Y-95325000D01*
G75*
G02*
X189975000Y-95387500I0J-62500D01*
G01*
G37*
G36*
G01*
X189975000Y-94887500D02*
X189975000Y-95012500D01*
G75*
G02*
X189912500Y-95075000I-62500J0D01*
G01*
X189212500Y-95075000D01*
G75*
G02*
X189150000Y-95012500I0J62500D01*
G01*
X189150000Y-94887500D01*
G75*
G02*
X189212500Y-94825000I62500J0D01*
G01*
X189912500Y-94825000D01*
G75*
G02*
X189975000Y-94887500I0J-62500D01*
G01*
G37*
G36*
G01*
X190375000Y-93912500D02*
X190375000Y-94612500D01*
G75*
G02*
X190312500Y-94675000I-62500J0D01*
G01*
X190187500Y-94675000D01*
G75*
G02*
X190125000Y-94612500I0J62500D01*
G01*
X190125000Y-93912500D01*
G75*
G02*
X190187500Y-93850000I62500J0D01*
G01*
X190312500Y-93850000D01*
G75*
G02*
X190375000Y-93912500I0J-62500D01*
G01*
G37*
G36*
G01*
X190875000Y-93912500D02*
X190875000Y-94612500D01*
G75*
G02*
X190812500Y-94675000I-62500J0D01*
G01*
X190687500Y-94675000D01*
G75*
G02*
X190625000Y-94612500I0J62500D01*
G01*
X190625000Y-93912500D01*
G75*
G02*
X190687500Y-93850000I62500J0D01*
G01*
X190812500Y-93850000D01*
G75*
G02*
X190875000Y-93912500I0J-62500D01*
G01*
G37*
G36*
G01*
X191375000Y-93912500D02*
X191375000Y-94612500D01*
G75*
G02*
X191312500Y-94675000I-62500J0D01*
G01*
X191187500Y-94675000D01*
G75*
G02*
X191125000Y-94612500I0J62500D01*
G01*
X191125000Y-93912500D01*
G75*
G02*
X191187500Y-93850000I62500J0D01*
G01*
X191312500Y-93850000D01*
G75*
G02*
X191375000Y-93912500I0J-62500D01*
G01*
G37*
G36*
G01*
X191875000Y-93912500D02*
X191875000Y-94612500D01*
G75*
G02*
X191812500Y-94675000I-62500J0D01*
G01*
X191687500Y-94675000D01*
G75*
G02*
X191625000Y-94612500I0J62500D01*
G01*
X191625000Y-93912500D01*
G75*
G02*
X191687500Y-93850000I62500J0D01*
G01*
X191812500Y-93850000D01*
G75*
G02*
X191875000Y-93912500I0J-62500D01*
G01*
G37*
G36*
G01*
X192850000Y-94887500D02*
X192850000Y-95012500D01*
G75*
G02*
X192787500Y-95075000I-62500J0D01*
G01*
X192087500Y-95075000D01*
G75*
G02*
X192025000Y-95012500I0J62500D01*
G01*
X192025000Y-94887500D01*
G75*
G02*
X192087500Y-94825000I62500J0D01*
G01*
X192787500Y-94825000D01*
G75*
G02*
X192850000Y-94887500I0J-62500D01*
G01*
G37*
G36*
G01*
X192850000Y-95387500D02*
X192850000Y-95512500D01*
G75*
G02*
X192787500Y-95575000I-62500J0D01*
G01*
X192087500Y-95575000D01*
G75*
G02*
X192025000Y-95512500I0J62500D01*
G01*
X192025000Y-95387500D01*
G75*
G02*
X192087500Y-95325000I62500J0D01*
G01*
X192787500Y-95325000D01*
G75*
G02*
X192850000Y-95387500I0J-62500D01*
G01*
G37*
G36*
G01*
X192850000Y-95887500D02*
X192850000Y-96012500D01*
G75*
G02*
X192787500Y-96075000I-62500J0D01*
G01*
X192087500Y-96075000D01*
G75*
G02*
X192025000Y-96012500I0J62500D01*
G01*
X192025000Y-95887500D01*
G75*
G02*
X192087500Y-95825000I62500J0D01*
G01*
X192787500Y-95825000D01*
G75*
G02*
X192850000Y-95887500I0J-62500D01*
G01*
G37*
G36*
G01*
X192850000Y-96387500D02*
X192850000Y-96512500D01*
G75*
G02*
X192787500Y-96575000I-62500J0D01*
G01*
X192087500Y-96575000D01*
G75*
G02*
X192025000Y-96512500I0J62500D01*
G01*
X192025000Y-96387500D01*
G75*
G02*
X192087500Y-96325000I62500J0D01*
G01*
X192787500Y-96325000D01*
G75*
G02*
X192850000Y-96387500I0J-62500D01*
G01*
G37*
D11*
X205250000Y-147700000D03*
X205250000Y-148500000D03*
X203550000Y-148500000D03*
X203550000Y-147700000D03*
D41*
X152863600Y-141390000D03*
X153663600Y-141390000D03*
X153663600Y-143090000D03*
X152863600Y-143090000D03*
D11*
X145962000Y-142081200D03*
X145962000Y-141281200D03*
X147662000Y-141281200D03*
X147662000Y-142081200D03*
G36*
G01*
X204262500Y-181199998D02*
X204262500Y-182100002D01*
G75*
G02*
X204012502Y-182350000I-249998J0D01*
G01*
X203487498Y-182350000D01*
G75*
G02*
X203237500Y-182100002I0J249998D01*
G01*
X203237500Y-181199998D01*
G75*
G02*
X203487498Y-180950000I249998J0D01*
G01*
X204012502Y-180950000D01*
G75*
G02*
X204262500Y-181199998I0J-249998D01*
G01*
G37*
G36*
G01*
X206087500Y-181199998D02*
X206087500Y-182100002D01*
G75*
G02*
X205837502Y-182350000I-249998J0D01*
G01*
X205312498Y-182350000D01*
G75*
G02*
X205062500Y-182100002I0J249998D01*
G01*
X205062500Y-181199998D01*
G75*
G02*
X205312498Y-180950000I249998J0D01*
G01*
X205837502Y-180950000D01*
G75*
G02*
X206087500Y-181199998I0J-249998D01*
G01*
G37*
G36*
G01*
X204312500Y-179099998D02*
X204312500Y-180000002D01*
G75*
G02*
X204062502Y-180250000I-249998J0D01*
G01*
X203537498Y-180250000D01*
G75*
G02*
X203287500Y-180000002I0J249998D01*
G01*
X203287500Y-179099998D01*
G75*
G02*
X203537498Y-178850000I249998J0D01*
G01*
X204062502Y-178850000D01*
G75*
G02*
X204312500Y-179099998I0J-249998D01*
G01*
G37*
G36*
G01*
X206137500Y-179099998D02*
X206137500Y-180000002D01*
G75*
G02*
X205887502Y-180250000I-249998J0D01*
G01*
X205362498Y-180250000D01*
G75*
G02*
X205112500Y-180000002I0J249998D01*
G01*
X205112500Y-179099998D01*
G75*
G02*
X205362498Y-178850000I249998J0D01*
G01*
X205887502Y-178850000D01*
G75*
G02*
X206137500Y-179099998I0J-249998D01*
G01*
G37*
G36*
G01*
X207099998Y-176937500D02*
X208000002Y-176937500D01*
G75*
G02*
X208250000Y-177187498I0J-249998D01*
G01*
X208250000Y-177712502D01*
G75*
G02*
X208000002Y-177962500I-249998J0D01*
G01*
X207099998Y-177962500D01*
G75*
G02*
X206850000Y-177712502I0J249998D01*
G01*
X206850000Y-177187498D01*
G75*
G02*
X207099998Y-176937500I249998J0D01*
G01*
G37*
G36*
G01*
X207099998Y-175112500D02*
X208000002Y-175112500D01*
G75*
G02*
X208250000Y-175362498I0J-249998D01*
G01*
X208250000Y-175887502D01*
G75*
G02*
X208000002Y-176137500I-249998J0D01*
G01*
X207099998Y-176137500D01*
G75*
G02*
X206850000Y-175887502I0J249998D01*
G01*
X206850000Y-175362498D01*
G75*
G02*
X207099998Y-175112500I249998J0D01*
G01*
G37*
G36*
G01*
X201849998Y-184900000D02*
X202750002Y-184900000D01*
G75*
G02*
X203000000Y-185149998I0J-249998D01*
G01*
X203000000Y-185675002D01*
G75*
G02*
X202750002Y-185925000I-249998J0D01*
G01*
X201849998Y-185925000D01*
G75*
G02*
X201600000Y-185675002I0J249998D01*
G01*
X201600000Y-185149998D01*
G75*
G02*
X201849998Y-184900000I249998J0D01*
G01*
G37*
G36*
G01*
X201849998Y-183075000D02*
X202750002Y-183075000D01*
G75*
G02*
X203000000Y-183324998I0J-249998D01*
G01*
X203000000Y-183850002D01*
G75*
G02*
X202750002Y-184100000I-249998J0D01*
G01*
X201849998Y-184100000D01*
G75*
G02*
X201600000Y-183850002I0J249998D01*
G01*
X201600000Y-183324998D01*
G75*
G02*
X201849998Y-183075000I249998J0D01*
G01*
G37*
G36*
G01*
X202400000Y-186849998D02*
X202400000Y-187750002D01*
G75*
G02*
X202150002Y-188000000I-249998J0D01*
G01*
X201624998Y-188000000D01*
G75*
G02*
X201375000Y-187750002I0J249998D01*
G01*
X201375000Y-186849998D01*
G75*
G02*
X201624998Y-186600000I249998J0D01*
G01*
X202150002Y-186600000D01*
G75*
G02*
X202400000Y-186849998I0J-249998D01*
G01*
G37*
G36*
G01*
X204225000Y-186849998D02*
X204225000Y-187750002D01*
G75*
G02*
X203975002Y-188000000I-249998J0D01*
G01*
X203449998Y-188000000D01*
G75*
G02*
X203200000Y-187750002I0J249998D01*
G01*
X203200000Y-186849998D01*
G75*
G02*
X203449998Y-186600000I249998J0D01*
G01*
X203975002Y-186600000D01*
G75*
G02*
X204225000Y-186849998I0J-249998D01*
G01*
G37*
G36*
G01*
X220072798Y-121039200D02*
X220972802Y-121039200D01*
G75*
G02*
X221222800Y-121289198I0J-249998D01*
G01*
X221222800Y-121814202D01*
G75*
G02*
X220972802Y-122064200I-249998J0D01*
G01*
X220072798Y-122064200D01*
G75*
G02*
X219822800Y-121814202I0J249998D01*
G01*
X219822800Y-121289198D01*
G75*
G02*
X220072798Y-121039200I249998J0D01*
G01*
G37*
G36*
G01*
X220072798Y-119214200D02*
X220972802Y-119214200D01*
G75*
G02*
X221222800Y-119464198I0J-249998D01*
G01*
X221222800Y-119989202D01*
G75*
G02*
X220972802Y-120239200I-249998J0D01*
G01*
X220072798Y-120239200D01*
G75*
G02*
X219822800Y-119989202I0J249998D01*
G01*
X219822800Y-119464198D01*
G75*
G02*
X220072798Y-119214200I249998J0D01*
G01*
G37*
G36*
G01*
X167125498Y-152684500D02*
X168025502Y-152684500D01*
G75*
G02*
X168275500Y-152934498I0J-249998D01*
G01*
X168275500Y-153459502D01*
G75*
G02*
X168025502Y-153709500I-249998J0D01*
G01*
X167125498Y-153709500D01*
G75*
G02*
X166875500Y-153459502I0J249998D01*
G01*
X166875500Y-152934498D01*
G75*
G02*
X167125498Y-152684500I249998J0D01*
G01*
G37*
G36*
G01*
X167125498Y-150859500D02*
X168025502Y-150859500D01*
G75*
G02*
X168275500Y-151109498I0J-249998D01*
G01*
X168275500Y-151634502D01*
G75*
G02*
X168025502Y-151884500I-249998J0D01*
G01*
X167125498Y-151884500D01*
G75*
G02*
X166875500Y-151634502I0J249998D01*
G01*
X166875500Y-151109498D01*
G75*
G02*
X167125498Y-150859500I249998J0D01*
G01*
G37*
G36*
G01*
X220200002Y-124812500D02*
X219299998Y-124812500D01*
G75*
G02*
X219050000Y-124562502I0J249998D01*
G01*
X219050000Y-124037498D01*
G75*
G02*
X219299998Y-123787500I249998J0D01*
G01*
X220200002Y-123787500D01*
G75*
G02*
X220450000Y-124037498I0J-249998D01*
G01*
X220450000Y-124562502D01*
G75*
G02*
X220200002Y-124812500I-249998J0D01*
G01*
G37*
G36*
G01*
X220200002Y-126637500D02*
X219299998Y-126637500D01*
G75*
G02*
X219050000Y-126387502I0J249998D01*
G01*
X219050000Y-125862498D01*
G75*
G02*
X219299998Y-125612500I249998J0D01*
G01*
X220200002Y-125612500D01*
G75*
G02*
X220450000Y-125862498I0J-249998D01*
G01*
X220450000Y-126387502D01*
G75*
G02*
X220200002Y-126637500I-249998J0D01*
G01*
G37*
G36*
G01*
X158959600Y-131339000D02*
X158959600Y-130789000D01*
G75*
G02*
X159159600Y-130589000I200000J0D01*
G01*
X159559600Y-130589000D01*
G75*
G02*
X159759600Y-130789000I0J-200000D01*
G01*
X159759600Y-131339000D01*
G75*
G02*
X159559600Y-131539000I-200000J0D01*
G01*
X159159600Y-131539000D01*
G75*
G02*
X158959600Y-131339000I0J200000D01*
G01*
G37*
G36*
G01*
X157309600Y-131339000D02*
X157309600Y-130789000D01*
G75*
G02*
X157509600Y-130589000I200000J0D01*
G01*
X157909600Y-130589000D01*
G75*
G02*
X158109600Y-130789000I0J-200000D01*
G01*
X158109600Y-131339000D01*
G75*
G02*
X157909600Y-131539000I-200000J0D01*
G01*
X157509600Y-131539000D01*
G75*
G02*
X157309600Y-131339000I0J200000D01*
G01*
G37*
G36*
G01*
X136317400Y-139618400D02*
X135767400Y-139618400D01*
G75*
G02*
X135567400Y-139418400I0J200000D01*
G01*
X135567400Y-139018400D01*
G75*
G02*
X135767400Y-138818400I200000J0D01*
G01*
X136317400Y-138818400D01*
G75*
G02*
X136517400Y-139018400I0J-200000D01*
G01*
X136517400Y-139418400D01*
G75*
G02*
X136317400Y-139618400I-200000J0D01*
G01*
G37*
G36*
G01*
X136317400Y-141268400D02*
X135767400Y-141268400D01*
G75*
G02*
X135567400Y-141068400I0J200000D01*
G01*
X135567400Y-140668400D01*
G75*
G02*
X135767400Y-140468400I200000J0D01*
G01*
X136317400Y-140468400D01*
G75*
G02*
X136517400Y-140668400I0J-200000D01*
G01*
X136517400Y-141068400D01*
G75*
G02*
X136317400Y-141268400I-200000J0D01*
G01*
G37*
G36*
G01*
X157052600Y-137420400D02*
X157602600Y-137420400D01*
G75*
G02*
X157802600Y-137620400I0J-200000D01*
G01*
X157802600Y-138020400D01*
G75*
G02*
X157602600Y-138220400I-200000J0D01*
G01*
X157052600Y-138220400D01*
G75*
G02*
X156852600Y-138020400I0J200000D01*
G01*
X156852600Y-137620400D01*
G75*
G02*
X157052600Y-137420400I200000J0D01*
G01*
G37*
G36*
G01*
X157052600Y-135770400D02*
X157602600Y-135770400D01*
G75*
G02*
X157802600Y-135970400I0J-200000D01*
G01*
X157802600Y-136370400D01*
G75*
G02*
X157602600Y-136570400I-200000J0D01*
G01*
X157052600Y-136570400D01*
G75*
G02*
X156852600Y-136370400I0J200000D01*
G01*
X156852600Y-135970400D01*
G75*
G02*
X157052600Y-135770400I200000J0D01*
G01*
G37*
G36*
G01*
X158881400Y-138385600D02*
X159431400Y-138385600D01*
G75*
G02*
X159631400Y-138585600I0J-200000D01*
G01*
X159631400Y-138985600D01*
G75*
G02*
X159431400Y-139185600I-200000J0D01*
G01*
X158881400Y-139185600D01*
G75*
G02*
X158681400Y-138985600I0J200000D01*
G01*
X158681400Y-138585600D01*
G75*
G02*
X158881400Y-138385600I200000J0D01*
G01*
G37*
G36*
G01*
X158881400Y-136735600D02*
X159431400Y-136735600D01*
G75*
G02*
X159631400Y-136935600I0J-200000D01*
G01*
X159631400Y-137335600D01*
G75*
G02*
X159431400Y-137535600I-200000J0D01*
G01*
X158881400Y-137535600D01*
G75*
G02*
X158681400Y-137335600I0J200000D01*
G01*
X158681400Y-136935600D01*
G75*
G02*
X158881400Y-136735600I200000J0D01*
G01*
G37*
G36*
G01*
X139757200Y-142819800D02*
X139757200Y-142269800D01*
G75*
G02*
X139957200Y-142069800I200000J0D01*
G01*
X140357200Y-142069800D01*
G75*
G02*
X140557200Y-142269800I0J-200000D01*
G01*
X140557200Y-142819800D01*
G75*
G02*
X140357200Y-143019800I-200000J0D01*
G01*
X139957200Y-143019800D01*
G75*
G02*
X139757200Y-142819800I0J200000D01*
G01*
G37*
G36*
G01*
X138107200Y-142819800D02*
X138107200Y-142269800D01*
G75*
G02*
X138307200Y-142069800I200000J0D01*
G01*
X138707200Y-142069800D01*
G75*
G02*
X138907200Y-142269800I0J-200000D01*
G01*
X138907200Y-142819800D01*
G75*
G02*
X138707200Y-143019800I-200000J0D01*
G01*
X138307200Y-143019800D01*
G75*
G02*
X138107200Y-142819800I0J200000D01*
G01*
G37*
G36*
G01*
X140011200Y-137689000D02*
X140011200Y-137139000D01*
G75*
G02*
X140211200Y-136939000I200000J0D01*
G01*
X140611200Y-136939000D01*
G75*
G02*
X140811200Y-137139000I0J-200000D01*
G01*
X140811200Y-137689000D01*
G75*
G02*
X140611200Y-137889000I-200000J0D01*
G01*
X140211200Y-137889000D01*
G75*
G02*
X140011200Y-137689000I0J200000D01*
G01*
G37*
G36*
G01*
X138361200Y-137689000D02*
X138361200Y-137139000D01*
G75*
G02*
X138561200Y-136939000I200000J0D01*
G01*
X138961200Y-136939000D01*
G75*
G02*
X139161200Y-137139000I0J-200000D01*
G01*
X139161200Y-137689000D01*
G75*
G02*
X138961200Y-137889000I-200000J0D01*
G01*
X138561200Y-137889000D01*
G75*
G02*
X138361200Y-137689000I0J200000D01*
G01*
G37*
G36*
G01*
X161142598Y-124568000D02*
X162042602Y-124568000D01*
G75*
G02*
X162292600Y-124817998I0J-249998D01*
G01*
X162292600Y-125343002D01*
G75*
G02*
X162042602Y-125593000I-249998J0D01*
G01*
X161142598Y-125593000D01*
G75*
G02*
X160892600Y-125343002I0J249998D01*
G01*
X160892600Y-124817998D01*
G75*
G02*
X161142598Y-124568000I249998J0D01*
G01*
G37*
G36*
G01*
X161142598Y-122743000D02*
X162042602Y-122743000D01*
G75*
G02*
X162292600Y-122992998I0J-249998D01*
G01*
X162292600Y-123518002D01*
G75*
G02*
X162042602Y-123768000I-249998J0D01*
G01*
X161142598Y-123768000D01*
G75*
G02*
X160892600Y-123518002I0J249998D01*
G01*
X160892600Y-122992998D01*
G75*
G02*
X161142598Y-122743000I249998J0D01*
G01*
G37*
G36*
G01*
X149206885Y-118772009D02*
X149843284Y-119408408D01*
G75*
G02*
X149843284Y-119761958I-176775J-176775D01*
G01*
X149472051Y-120133191D01*
G75*
G02*
X149118501Y-120133191I-176775J176775D01*
G01*
X148482102Y-119496792D01*
G75*
G02*
X148482102Y-119143242I176775J176775D01*
G01*
X148853335Y-118772009D01*
G75*
G02*
X149206885Y-118772009I176775J-176775D01*
G01*
G37*
G36*
G01*
X150497355Y-117481539D02*
X151133754Y-118117938D01*
G75*
G02*
X151133754Y-118471488I-176775J-176775D01*
G01*
X150762521Y-118842721D01*
G75*
G02*
X150408971Y-118842721I-176775J176775D01*
G01*
X149772572Y-118206322D01*
G75*
G02*
X149772572Y-117852772I176775J176775D01*
G01*
X150143805Y-117481539D01*
G75*
G02*
X150497355Y-117481539I176775J-176775D01*
G01*
G37*
G36*
G01*
X203110000Y-170365000D02*
X203110000Y-170735000D01*
G75*
G02*
X202975000Y-170870000I-135000J0D01*
G01*
X202705000Y-170870000D01*
G75*
G02*
X202570000Y-170735000I0J135000D01*
G01*
X202570000Y-170365000D01*
G75*
G02*
X202705000Y-170230000I135000J0D01*
G01*
X202975000Y-170230000D01*
G75*
G02*
X203110000Y-170365000I0J-135000D01*
G01*
G37*
G36*
G01*
X204130000Y-170365000D02*
X204130000Y-170735000D01*
G75*
G02*
X203995000Y-170870000I-135000J0D01*
G01*
X203725000Y-170870000D01*
G75*
G02*
X203590000Y-170735000I0J135000D01*
G01*
X203590000Y-170365000D01*
G75*
G02*
X203725000Y-170230000I135000J0D01*
G01*
X203995000Y-170230000D01*
G75*
G02*
X204130000Y-170365000I0J-135000D01*
G01*
G37*
G36*
G01*
X205925000Y-170325000D02*
X205925000Y-170875000D01*
G75*
G02*
X205725000Y-171075000I-200000J0D01*
G01*
X205325000Y-171075000D01*
G75*
G02*
X205125000Y-170875000I0J200000D01*
G01*
X205125000Y-170325000D01*
G75*
G02*
X205325000Y-170125000I200000J0D01*
G01*
X205725000Y-170125000D01*
G75*
G02*
X205925000Y-170325000I0J-200000D01*
G01*
G37*
G36*
G01*
X207575000Y-170325000D02*
X207575000Y-170875000D01*
G75*
G02*
X207375000Y-171075000I-200000J0D01*
G01*
X206975000Y-171075000D01*
G75*
G02*
X206775000Y-170875000I0J200000D01*
G01*
X206775000Y-170325000D01*
G75*
G02*
X206975000Y-170125000I200000J0D01*
G01*
X207375000Y-170125000D01*
G75*
G02*
X207575000Y-170325000I0J-200000D01*
G01*
G37*
G36*
G01*
X186475200Y-111746398D02*
X186475200Y-112646402D01*
G75*
G02*
X186225202Y-112896400I-249998J0D01*
G01*
X185700198Y-112896400D01*
G75*
G02*
X185450200Y-112646402I0J249998D01*
G01*
X185450200Y-111746398D01*
G75*
G02*
X185700198Y-111496400I249998J0D01*
G01*
X186225202Y-111496400D01*
G75*
G02*
X186475200Y-111746398I0J-249998D01*
G01*
G37*
G36*
G01*
X188300200Y-111746398D02*
X188300200Y-112646402D01*
G75*
G02*
X188050202Y-112896400I-249998J0D01*
G01*
X187525198Y-112896400D01*
G75*
G02*
X187275200Y-112646402I0J249998D01*
G01*
X187275200Y-111746398D01*
G75*
G02*
X187525198Y-111496400I249998J0D01*
G01*
X188050202Y-111496400D01*
G75*
G02*
X188300200Y-111746398I0J-249998D01*
G01*
G37*
D25*
X203650000Y-176550000D03*
X205650000Y-175600000D03*
X205650000Y-177500000D03*
X163527500Y-152261000D03*
X165527500Y-151311000D03*
X165527500Y-153211000D03*
X223555500Y-125267500D03*
X221555500Y-126217500D03*
X221555500Y-124317500D03*
X157849400Y-124295000D03*
X159849400Y-123345000D03*
X159849400Y-125245000D03*
D14*
X186926000Y-108250000D03*
X187876000Y-110250000D03*
X185976000Y-110250000D03*
D20*
X204825600Y-130007600D03*
X204825600Y-131307600D03*
D19*
G36*
X163800000Y-93650000D02*
G01*
X163300000Y-93650000D01*
X163300000Y-93649398D01*
X163275466Y-93649398D01*
X163226635Y-93644588D01*
X163178510Y-93635016D01*
X163131555Y-93620772D01*
X163086222Y-93601995D01*
X163042949Y-93578864D01*
X163002150Y-93551604D01*
X162964221Y-93520476D01*
X162929524Y-93485779D01*
X162898396Y-93447850D01*
X162871136Y-93407051D01*
X162848005Y-93363778D01*
X162829228Y-93318445D01*
X162814984Y-93271490D01*
X162805412Y-93223365D01*
X162800602Y-93174534D01*
X162800602Y-93150000D01*
X162800000Y-93150000D01*
X162800000Y-92650000D01*
X162800602Y-92650000D01*
X162800602Y-92625466D01*
X162805412Y-92576635D01*
X162814984Y-92528510D01*
X162829228Y-92481555D01*
X162848005Y-92436222D01*
X162871136Y-92392949D01*
X162898396Y-92352150D01*
X162929524Y-92314221D01*
X162964221Y-92279524D01*
X163002150Y-92248396D01*
X163042949Y-92221136D01*
X163086222Y-92198005D01*
X163131555Y-92179228D01*
X163178510Y-92164984D01*
X163226635Y-92155412D01*
X163275466Y-92150602D01*
X163300000Y-92150602D01*
X163300000Y-92150000D01*
X163800000Y-92150000D01*
X163800000Y-93650000D01*
G37*
G36*
X164600000Y-92150602D02*
G01*
X164624534Y-92150602D01*
X164673365Y-92155412D01*
X164721490Y-92164984D01*
X164768445Y-92179228D01*
X164813778Y-92198005D01*
X164857051Y-92221136D01*
X164897850Y-92248396D01*
X164935779Y-92279524D01*
X164970476Y-92314221D01*
X165001604Y-92352150D01*
X165028864Y-92392949D01*
X165051995Y-92436222D01*
X165070772Y-92481555D01*
X165085016Y-92528510D01*
X165094588Y-92576635D01*
X165099398Y-92625466D01*
X165099398Y-92650000D01*
X165100000Y-92650000D01*
X165100000Y-93150000D01*
X165099398Y-93150000D01*
X165099398Y-93174534D01*
X165094588Y-93223365D01*
X165085016Y-93271490D01*
X165070772Y-93318445D01*
X165051995Y-93363778D01*
X165028864Y-93407051D01*
X165001604Y-93447850D01*
X164970476Y-93485779D01*
X164935779Y-93520476D01*
X164897850Y-93551604D01*
X164857051Y-93578864D01*
X164813778Y-93601995D01*
X164768445Y-93620772D01*
X164721490Y-93635016D01*
X164673365Y-93644588D01*
X164624534Y-93649398D01*
X164600000Y-93649398D01*
X164600000Y-93650000D01*
X164100000Y-93650000D01*
X164100000Y-92150000D01*
X164600000Y-92150000D01*
X164600000Y-92150602D01*
G37*
G36*
X199950000Y-94150000D02*
G01*
X199950000Y-94700000D01*
X199949398Y-94700000D01*
X199949398Y-94724534D01*
X199944588Y-94773365D01*
X199935016Y-94821490D01*
X199920772Y-94868445D01*
X199901995Y-94913778D01*
X199878864Y-94957051D01*
X199851604Y-94997850D01*
X199820476Y-95035779D01*
X199785779Y-95070476D01*
X199747850Y-95101604D01*
X199707051Y-95128864D01*
X199663778Y-95151995D01*
X199618445Y-95170772D01*
X199571490Y-95185016D01*
X199523365Y-95194588D01*
X199474534Y-95199398D01*
X199450000Y-95199398D01*
X199450000Y-95200000D01*
X198950000Y-95200000D01*
X198950000Y-95199398D01*
X198925466Y-95199398D01*
X198876635Y-95194588D01*
X198828510Y-95185016D01*
X198781555Y-95170772D01*
X198736222Y-95151995D01*
X198692949Y-95128864D01*
X198652150Y-95101604D01*
X198614221Y-95070476D01*
X198579524Y-95035779D01*
X198548396Y-94997850D01*
X198521136Y-94957051D01*
X198498005Y-94913778D01*
X198479228Y-94868445D01*
X198464984Y-94821490D01*
X198455412Y-94773365D01*
X198450602Y-94724534D01*
X198450602Y-94700000D01*
X198450000Y-94700000D01*
X198450000Y-94150000D01*
X199950000Y-94150000D01*
G37*
D20*
X199200000Y-93400000D03*
D19*
G36*
X198450602Y-92100000D02*
G01*
X198450602Y-92075466D01*
X198455412Y-92026635D01*
X198464984Y-91978510D01*
X198479228Y-91931555D01*
X198498005Y-91886222D01*
X198521136Y-91842949D01*
X198548396Y-91802150D01*
X198579524Y-91764221D01*
X198614221Y-91729524D01*
X198652150Y-91698396D01*
X198692949Y-91671136D01*
X198736222Y-91648005D01*
X198781555Y-91629228D01*
X198828510Y-91614984D01*
X198876635Y-91605412D01*
X198925466Y-91600602D01*
X198950000Y-91600602D01*
X198950000Y-91600000D01*
X199450000Y-91600000D01*
X199450000Y-91600602D01*
X199474534Y-91600602D01*
X199523365Y-91605412D01*
X199571490Y-91614984D01*
X199618445Y-91629228D01*
X199663778Y-91648005D01*
X199707051Y-91671136D01*
X199747850Y-91698396D01*
X199785779Y-91729524D01*
X199820476Y-91764221D01*
X199851604Y-91802150D01*
X199878864Y-91842949D01*
X199901995Y-91886222D01*
X199920772Y-91931555D01*
X199935016Y-91978510D01*
X199944588Y-92026635D01*
X199949398Y-92075466D01*
X199949398Y-92100000D01*
X199950000Y-92100000D01*
X199950000Y-92650000D01*
X198450000Y-92650000D01*
X198450000Y-92100000D01*
X198450602Y-92100000D01*
G37*
D36*
X157975000Y-185325000D03*
D37*
X156500000Y-183800000D03*
D36*
X155025000Y-185325000D03*
D42*
X228035000Y-156170000D03*
X226765000Y-156170000D03*
X228035000Y-154900000D03*
X226765000Y-154900000D03*
X228035000Y-153630000D03*
X226765000Y-153630000D03*
D43*
X227400000Y-152360000D03*
X226384000Y-157440000D03*
X228416000Y-157440000D03*
G36*
G01*
X232166758Y-127149726D02*
X233388361Y-126705099D01*
G75*
G02*
X233708788Y-126854516I85505J-234922D01*
G01*
X233948203Y-127512303D01*
G75*
G02*
X233798786Y-127832730I-234922J-85505D01*
G01*
X232577183Y-128277357D01*
G75*
G02*
X232256756Y-128127940I-85505J234922D01*
G01*
X232017341Y-127470153D01*
G75*
G02*
X232166758Y-127149726I234922J85505D01*
G01*
G37*
G36*
G01*
X230251445Y-121887447D02*
X231473048Y-121442820D01*
G75*
G02*
X231793475Y-121592237I85505J-234922D01*
G01*
X232032890Y-122250024D01*
G75*
G02*
X231883473Y-122570451I-234922J-85505D01*
G01*
X230661870Y-123015078D01*
G75*
G02*
X230341443Y-122865661I-85505J234922D01*
G01*
X230102028Y-122207874D01*
G75*
G02*
X230251445Y-121887447I234922J85505D01*
G01*
G37*
G36*
G01*
X229475507Y-127065084D02*
X230650123Y-126637559D01*
G75*
G02*
X230842380Y-126727210I51303J-140954D01*
G01*
X230944986Y-127009117D01*
G75*
G02*
X230855335Y-127201374I-140954J-51303D01*
G01*
X229680719Y-127628899D01*
G75*
G02*
X229488462Y-127539248I-51303J140954D01*
G01*
X229385856Y-127257341D01*
G75*
G02*
X229475507Y-127065084I140954J51303D01*
G01*
G37*
G36*
G01*
X229133487Y-126125391D02*
X230308103Y-125697866D01*
G75*
G02*
X230500360Y-125787517I51303J-140954D01*
G01*
X230602966Y-126069424D01*
G75*
G02*
X230513315Y-126261681I-140954J-51303D01*
G01*
X229338699Y-126689206D01*
G75*
G02*
X229146442Y-126599555I-51303J140954D01*
G01*
X229043836Y-126317648D01*
G75*
G02*
X229133487Y-126125391I140954J51303D01*
G01*
G37*
G36*
G01*
X228791467Y-125185698D02*
X229966083Y-124758173D01*
G75*
G02*
X230158340Y-124847824I51303J-140954D01*
G01*
X230260946Y-125129731D01*
G75*
G02*
X230171295Y-125321988I-140954J-51303D01*
G01*
X228996679Y-125749513D01*
G75*
G02*
X228804422Y-125659862I-51303J140954D01*
G01*
X228701816Y-125377955D01*
G75*
G02*
X228791467Y-125185698I140954J51303D01*
G01*
G37*
G36*
G01*
X228449447Y-124246006D02*
X229624063Y-123818481D01*
G75*
G02*
X229816320Y-123908132I51303J-140954D01*
G01*
X229918926Y-124190039D01*
G75*
G02*
X229829275Y-124382296I-140954J-51303D01*
G01*
X228654659Y-124809821D01*
G75*
G02*
X228462402Y-124720170I-51303J140954D01*
G01*
X228359796Y-124438263D01*
G75*
G02*
X228449447Y-124246006I140954J51303D01*
G01*
G37*
G36*
G01*
X216410125Y-183168742D02*
X216410125Y-183168742D01*
G75*
G02*
X215226306Y-182960003I-487540J696279D01*
G01*
X215226306Y-182960003D01*
G75*
G02*
X215435045Y-181776184I696279J487540D01*
G01*
X215435045Y-181776184D01*
G75*
G02*
X216618864Y-181984923I487540J-696279D01*
G01*
X216618864Y-181984923D01*
G75*
G02*
X216410125Y-183168742I-696279J-487540D01*
G01*
G37*
G36*
G01*
X214329479Y-184625627D02*
X214329479Y-184625627D01*
G75*
G02*
X213145660Y-184416888I-487540J696279D01*
G01*
X213145660Y-184416888D01*
G75*
G02*
X213354399Y-183233069I696279J487540D01*
G01*
X213354399Y-183233069D01*
G75*
G02*
X214538218Y-183441808I487540J-696279D01*
G01*
X214538218Y-183441808D01*
G75*
G02*
X214329479Y-184625627I-696279J-487540D01*
G01*
G37*
G36*
G01*
X212248832Y-186082511D02*
X212248832Y-186082511D01*
G75*
G02*
X211065013Y-185873772I-487540J696279D01*
G01*
X211065013Y-185873772D01*
G75*
G02*
X211273752Y-184689953I696279J487540D01*
G01*
X211273752Y-184689953D01*
G75*
G02*
X212457571Y-184898692I487540J-696279D01*
G01*
X212457571Y-184898692D01*
G75*
G02*
X212248832Y-186082511I-696279J-487540D01*
G01*
G37*
G36*
G01*
X210168186Y-187539395D02*
X210168186Y-187539395D01*
G75*
G02*
X208984367Y-187330656I-487540J696279D01*
G01*
X208984367Y-187330656D01*
G75*
G02*
X209193106Y-186146837I696279J487540D01*
G01*
X209193106Y-186146837D01*
G75*
G02*
X210376925Y-186355576I487540J-696279D01*
G01*
X210376925Y-186355576D01*
G75*
G02*
X210168186Y-187539395I-696279J-487540D01*
G01*
G37*
D19*
G36*
X208783819Y-188508739D02*
G01*
X207391261Y-189483819D01*
X206416181Y-188091261D01*
X207808739Y-187116181D01*
X208783819Y-188508739D01*
G37*
D14*
X158750000Y-134721600D03*
X157800000Y-132721600D03*
X159700000Y-132721600D03*
D25*
X139582400Y-139954000D03*
X137582400Y-140904000D03*
X137582400Y-139004000D03*
G36*
G01*
X218237750Y-161204300D02*
X219150250Y-161204300D01*
G75*
G02*
X219394000Y-161448050I0J-243750D01*
G01*
X219394000Y-161935550D01*
G75*
G02*
X219150250Y-162179300I-243750J0D01*
G01*
X218237750Y-162179300D01*
G75*
G02*
X217994000Y-161935550I0J243750D01*
G01*
X217994000Y-161448050D01*
G75*
G02*
X218237750Y-161204300I243750J0D01*
G01*
G37*
G36*
G01*
X218237750Y-159329300D02*
X219150250Y-159329300D01*
G75*
G02*
X219394000Y-159573050I0J-243750D01*
G01*
X219394000Y-160060550D01*
G75*
G02*
X219150250Y-160304300I-243750J0D01*
G01*
X218237750Y-160304300D01*
G75*
G02*
X217994000Y-160060550I0J243750D01*
G01*
X217994000Y-159573050D01*
G75*
G02*
X218237750Y-159329300I243750J0D01*
G01*
G37*
G36*
G01*
X220320550Y-161204300D02*
X221233050Y-161204300D01*
G75*
G02*
X221476800Y-161448050I0J-243750D01*
G01*
X221476800Y-161935550D01*
G75*
G02*
X221233050Y-162179300I-243750J0D01*
G01*
X220320550Y-162179300D01*
G75*
G02*
X220076800Y-161935550I0J243750D01*
G01*
X220076800Y-161448050D01*
G75*
G02*
X220320550Y-161204300I243750J0D01*
G01*
G37*
G36*
G01*
X220320550Y-159329300D02*
X221233050Y-159329300D01*
G75*
G02*
X221476800Y-159573050I0J-243750D01*
G01*
X221476800Y-160060550D01*
G75*
G02*
X221233050Y-160304300I-243750J0D01*
G01*
X220320550Y-160304300D01*
G75*
G02*
X220076800Y-160060550I0J243750D01*
G01*
X220076800Y-159573050D01*
G75*
G02*
X220320550Y-159329300I243750J0D01*
G01*
G37*
G36*
G01*
X222403350Y-161204300D02*
X223315850Y-161204300D01*
G75*
G02*
X223559600Y-161448050I0J-243750D01*
G01*
X223559600Y-161935550D01*
G75*
G02*
X223315850Y-162179300I-243750J0D01*
G01*
X222403350Y-162179300D01*
G75*
G02*
X222159600Y-161935550I0J243750D01*
G01*
X222159600Y-161448050D01*
G75*
G02*
X222403350Y-161204300I243750J0D01*
G01*
G37*
G36*
G01*
X222403350Y-159329300D02*
X223315850Y-159329300D01*
G75*
G02*
X223559600Y-159573050I0J-243750D01*
G01*
X223559600Y-160060550D01*
G75*
G02*
X223315850Y-160304300I-243750J0D01*
G01*
X222403350Y-160304300D01*
G75*
G02*
X222159600Y-160060550I0J243750D01*
G01*
X222159600Y-159573050D01*
G75*
G02*
X222403350Y-159329300I243750J0D01*
G01*
G37*
G36*
G01*
X228750000Y-160350000D02*
X228750000Y-159850000D01*
G75*
G02*
X228975000Y-159625000I225000J0D01*
G01*
X229425000Y-159625000D01*
G75*
G02*
X229650000Y-159850000I0J-225000D01*
G01*
X229650000Y-160350000D01*
G75*
G02*
X229425000Y-160575000I-225000J0D01*
G01*
X228975000Y-160575000D01*
G75*
G02*
X228750000Y-160350000I0J225000D01*
G01*
G37*
G36*
G01*
X227200000Y-160350000D02*
X227200000Y-159850000D01*
G75*
G02*
X227425000Y-159625000I225000J0D01*
G01*
X227875000Y-159625000D01*
G75*
G02*
X228100000Y-159850000I0J-225000D01*
G01*
X228100000Y-160350000D01*
G75*
G02*
X227875000Y-160575000I-225000J0D01*
G01*
X227425000Y-160575000D01*
G75*
G02*
X227200000Y-160350000I0J225000D01*
G01*
G37*
G36*
G01*
X210188000Y-128237000D02*
X210188000Y-127287000D01*
G75*
G02*
X210438000Y-127037000I250000J0D01*
G01*
X210938000Y-127037000D01*
G75*
G02*
X211188000Y-127287000I0J-250000D01*
G01*
X211188000Y-128237000D01*
G75*
G02*
X210938000Y-128487000I-250000J0D01*
G01*
X210438000Y-128487000D01*
G75*
G02*
X210188000Y-128237000I0J250000D01*
G01*
G37*
G36*
G01*
X208288000Y-128237000D02*
X208288000Y-127287000D01*
G75*
G02*
X208538000Y-127037000I250000J0D01*
G01*
X209038000Y-127037000D01*
G75*
G02*
X209288000Y-127287000I0J-250000D01*
G01*
X209288000Y-128237000D01*
G75*
G02*
X209038000Y-128487000I-250000J0D01*
G01*
X208538000Y-128487000D01*
G75*
G02*
X208288000Y-128237000I0J250000D01*
G01*
G37*
G36*
G01*
X206941400Y-130955200D02*
X207891400Y-130955200D01*
G75*
G02*
X208141400Y-131205200I0J-250000D01*
G01*
X208141400Y-131705200D01*
G75*
G02*
X207891400Y-131955200I-250000J0D01*
G01*
X206941400Y-131955200D01*
G75*
G02*
X206691400Y-131705200I0J250000D01*
G01*
X206691400Y-131205200D01*
G75*
G02*
X206941400Y-130955200I250000J0D01*
G01*
G37*
G36*
G01*
X206941400Y-129055200D02*
X207891400Y-129055200D01*
G75*
G02*
X208141400Y-129305200I0J-250000D01*
G01*
X208141400Y-129805200D01*
G75*
G02*
X207891400Y-130055200I-250000J0D01*
G01*
X206941400Y-130055200D01*
G75*
G02*
X206691400Y-129805200I0J250000D01*
G01*
X206691400Y-129305200D01*
G75*
G02*
X206941400Y-129055200I250000J0D01*
G01*
G37*
G36*
G01*
X154550000Y-157525000D02*
X154550000Y-158475000D01*
G75*
G02*
X154300000Y-158725000I-250000J0D01*
G01*
X153800000Y-158725000D01*
G75*
G02*
X153550000Y-158475000I0J250000D01*
G01*
X153550000Y-157525000D01*
G75*
G02*
X153800000Y-157275000I250000J0D01*
G01*
X154300000Y-157275000D01*
G75*
G02*
X154550000Y-157525000I0J-250000D01*
G01*
G37*
G36*
G01*
X156450000Y-157525000D02*
X156450000Y-158475000D01*
G75*
G02*
X156200000Y-158725000I-250000J0D01*
G01*
X155700000Y-158725000D01*
G75*
G02*
X155450000Y-158475000I0J250000D01*
G01*
X155450000Y-157525000D01*
G75*
G02*
X155700000Y-157275000I250000J0D01*
G01*
X156200000Y-157275000D01*
G75*
G02*
X156450000Y-157525000I0J-250000D01*
G01*
G37*
G36*
G01*
X155750000Y-155325000D02*
X155750000Y-156275000D01*
G75*
G02*
X155500000Y-156525000I-250000J0D01*
G01*
X155000000Y-156525000D01*
G75*
G02*
X154750000Y-156275000I0J250000D01*
G01*
X154750000Y-155325000D01*
G75*
G02*
X155000000Y-155075000I250000J0D01*
G01*
X155500000Y-155075000D01*
G75*
G02*
X155750000Y-155325000I0J-250000D01*
G01*
G37*
G36*
G01*
X157650000Y-155325000D02*
X157650000Y-156275000D01*
G75*
G02*
X157400000Y-156525000I-250000J0D01*
G01*
X156900000Y-156525000D01*
G75*
G02*
X156650000Y-156275000I0J250000D01*
G01*
X156650000Y-155325000D01*
G75*
G02*
X156900000Y-155075000I250000J0D01*
G01*
X157400000Y-155075000D01*
G75*
G02*
X157650000Y-155325000I0J-250000D01*
G01*
G37*
G36*
G01*
X222175000Y-134800000D02*
X221225000Y-134800000D01*
G75*
G02*
X220975000Y-134550000I0J250000D01*
G01*
X220975000Y-134050000D01*
G75*
G02*
X221225000Y-133800000I250000J0D01*
G01*
X222175000Y-133800000D01*
G75*
G02*
X222425000Y-134050000I0J-250000D01*
G01*
X222425000Y-134550000D01*
G75*
G02*
X222175000Y-134800000I-250000J0D01*
G01*
G37*
G36*
G01*
X222175000Y-136700000D02*
X221225000Y-136700000D01*
G75*
G02*
X220975000Y-136450000I0J250000D01*
G01*
X220975000Y-135950000D01*
G75*
G02*
X221225000Y-135700000I250000J0D01*
G01*
X222175000Y-135700000D01*
G75*
G02*
X222425000Y-135950000I0J-250000D01*
G01*
X222425000Y-136450000D01*
G75*
G02*
X222175000Y-136700000I-250000J0D01*
G01*
G37*
G36*
G01*
X219975000Y-134800000D02*
X219025000Y-134800000D01*
G75*
G02*
X218775000Y-134550000I0J250000D01*
G01*
X218775000Y-134050000D01*
G75*
G02*
X219025000Y-133800000I250000J0D01*
G01*
X219975000Y-133800000D01*
G75*
G02*
X220225000Y-134050000I0J-250000D01*
G01*
X220225000Y-134550000D01*
G75*
G02*
X219975000Y-134800000I-250000J0D01*
G01*
G37*
G36*
G01*
X219975000Y-136700000D02*
X219025000Y-136700000D01*
G75*
G02*
X218775000Y-136450000I0J250000D01*
G01*
X218775000Y-135950000D01*
G75*
G02*
X219025000Y-135700000I250000J0D01*
G01*
X219975000Y-135700000D01*
G75*
G02*
X220225000Y-135950000I0J-250000D01*
G01*
X220225000Y-136450000D01*
G75*
G02*
X219975000Y-136700000I-250000J0D01*
G01*
G37*
G36*
G01*
X153846875Y-176139396D02*
X154574617Y-176750044D01*
G75*
G02*
X154605431Y-177102252I-160697J-191511D01*
G01*
X154284037Y-177485274D01*
G75*
G02*
X153931829Y-177516088I-191511J160697D01*
G01*
X153204087Y-176905440D01*
G75*
G02*
X153173273Y-176553232I160697J191511D01*
G01*
X153494667Y-176170210D01*
G75*
G02*
X153846875Y-176139396I191511J-160697D01*
G01*
G37*
G36*
G01*
X155068171Y-174683912D02*
X155795913Y-175294560D01*
G75*
G02*
X155826727Y-175646768I-160697J-191511D01*
G01*
X155505333Y-176029790D01*
G75*
G02*
X155153125Y-176060604I-191511J160697D01*
G01*
X154425383Y-175449956D01*
G75*
G02*
X154394569Y-175097748I160697J191511D01*
G01*
X154715963Y-174714726D01*
G75*
G02*
X155068171Y-174683912I191511J-160697D01*
G01*
G37*
G36*
G01*
X160950000Y-179975000D02*
X160950000Y-179025000D01*
G75*
G02*
X161200000Y-178775000I250000J0D01*
G01*
X161700000Y-178775000D01*
G75*
G02*
X161950000Y-179025000I0J-250000D01*
G01*
X161950000Y-179975000D01*
G75*
G02*
X161700000Y-180225000I-250000J0D01*
G01*
X161200000Y-180225000D01*
G75*
G02*
X160950000Y-179975000I0J250000D01*
G01*
G37*
G36*
G01*
X159050000Y-179975000D02*
X159050000Y-179025000D01*
G75*
G02*
X159300000Y-178775000I250000J0D01*
G01*
X159800000Y-178775000D01*
G75*
G02*
X160050000Y-179025000I0J-250000D01*
G01*
X160050000Y-179975000D01*
G75*
G02*
X159800000Y-180225000I-250000J0D01*
G01*
X159300000Y-180225000D01*
G75*
G02*
X159050000Y-179975000I0J250000D01*
G01*
G37*
G36*
G01*
X158175000Y-179950000D02*
X157225000Y-179950000D01*
G75*
G02*
X156975000Y-179700000I0J250000D01*
G01*
X156975000Y-179200000D01*
G75*
G02*
X157225000Y-178950000I250000J0D01*
G01*
X158175000Y-178950000D01*
G75*
G02*
X158425000Y-179200000I0J-250000D01*
G01*
X158425000Y-179700000D01*
G75*
G02*
X158175000Y-179950000I-250000J0D01*
G01*
G37*
G36*
G01*
X158175000Y-181850000D02*
X157225000Y-181850000D01*
G75*
G02*
X156975000Y-181600000I0J250000D01*
G01*
X156975000Y-181100000D01*
G75*
G02*
X157225000Y-180850000I250000J0D01*
G01*
X158175000Y-180850000D01*
G75*
G02*
X158425000Y-181100000I0J-250000D01*
G01*
X158425000Y-181600000D01*
G75*
G02*
X158175000Y-181850000I-250000J0D01*
G01*
G37*
G36*
G01*
X210175000Y-143750000D02*
X209225000Y-143750000D01*
G75*
G02*
X208975000Y-143500000I0J250000D01*
G01*
X208975000Y-143000000D01*
G75*
G02*
X209225000Y-142750000I250000J0D01*
G01*
X210175000Y-142750000D01*
G75*
G02*
X210425000Y-143000000I0J-250000D01*
G01*
X210425000Y-143500000D01*
G75*
G02*
X210175000Y-143750000I-250000J0D01*
G01*
G37*
G36*
G01*
X210175000Y-145650000D02*
X209225000Y-145650000D01*
G75*
G02*
X208975000Y-145400000I0J250000D01*
G01*
X208975000Y-144900000D01*
G75*
G02*
X209225000Y-144650000I250000J0D01*
G01*
X210175000Y-144650000D01*
G75*
G02*
X210425000Y-144900000I0J-250000D01*
G01*
X210425000Y-145400000D01*
G75*
G02*
X210175000Y-145650000I-250000J0D01*
G01*
G37*
G36*
G01*
X146880600Y-121434400D02*
X145930600Y-121434400D01*
G75*
G02*
X145680600Y-121184400I0J250000D01*
G01*
X145680600Y-120684400D01*
G75*
G02*
X145930600Y-120434400I250000J0D01*
G01*
X146880600Y-120434400D01*
G75*
G02*
X147130600Y-120684400I0J-250000D01*
G01*
X147130600Y-121184400D01*
G75*
G02*
X146880600Y-121434400I-250000J0D01*
G01*
G37*
G36*
G01*
X146880600Y-123334400D02*
X145930600Y-123334400D01*
G75*
G02*
X145680600Y-123084400I0J250000D01*
G01*
X145680600Y-122584400D01*
G75*
G02*
X145930600Y-122334400I250000J0D01*
G01*
X146880600Y-122334400D01*
G75*
G02*
X147130600Y-122584400I0J-250000D01*
G01*
X147130600Y-123084400D01*
G75*
G02*
X146880600Y-123334400I-250000J0D01*
G01*
G37*
G36*
G01*
X139773200Y-124594600D02*
X139773200Y-125544600D01*
G75*
G02*
X139523200Y-125794600I-250000J0D01*
G01*
X139023200Y-125794600D01*
G75*
G02*
X138773200Y-125544600I0J250000D01*
G01*
X138773200Y-124594600D01*
G75*
G02*
X139023200Y-124344600I250000J0D01*
G01*
X139523200Y-124344600D01*
G75*
G02*
X139773200Y-124594600I0J-250000D01*
G01*
G37*
G36*
G01*
X141673200Y-124594600D02*
X141673200Y-125544600D01*
G75*
G02*
X141423200Y-125794600I-250000J0D01*
G01*
X140923200Y-125794600D01*
G75*
G02*
X140673200Y-125544600I0J250000D01*
G01*
X140673200Y-124594600D01*
G75*
G02*
X140923200Y-124344600I250000J0D01*
G01*
X141423200Y-124344600D01*
G75*
G02*
X141673200Y-124594600I0J-250000D01*
G01*
G37*
G36*
G01*
X143136600Y-123116800D02*
X144086600Y-123116800D01*
G75*
G02*
X144336600Y-123366800I0J-250000D01*
G01*
X144336600Y-123866800D01*
G75*
G02*
X144086600Y-124116800I-250000J0D01*
G01*
X143136600Y-124116800D01*
G75*
G02*
X142886600Y-123866800I0J250000D01*
G01*
X142886600Y-123366800D01*
G75*
G02*
X143136600Y-123116800I250000J0D01*
G01*
G37*
G36*
G01*
X143136600Y-121216800D02*
X144086600Y-121216800D01*
G75*
G02*
X144336600Y-121466800I0J-250000D01*
G01*
X144336600Y-121966800D01*
G75*
G02*
X144086600Y-122216800I-250000J0D01*
G01*
X143136600Y-122216800D01*
G75*
G02*
X142886600Y-121966800I0J250000D01*
G01*
X142886600Y-121466800D01*
G75*
G02*
X143136600Y-121216800I250000J0D01*
G01*
G37*
G36*
G01*
X143213200Y-143223000D02*
X143213200Y-142273000D01*
G75*
G02*
X143463200Y-142023000I250000J0D01*
G01*
X143963200Y-142023000D01*
G75*
G02*
X144213200Y-142273000I0J-250000D01*
G01*
X144213200Y-143223000D01*
G75*
G02*
X143963200Y-143473000I-250000J0D01*
G01*
X143463200Y-143473000D01*
G75*
G02*
X143213200Y-143223000I0J250000D01*
G01*
G37*
G36*
G01*
X141313200Y-143223000D02*
X141313200Y-142273000D01*
G75*
G02*
X141563200Y-142023000I250000J0D01*
G01*
X142063200Y-142023000D01*
G75*
G02*
X142313200Y-142273000I0J-250000D01*
G01*
X142313200Y-143223000D01*
G75*
G02*
X142063200Y-143473000I-250000J0D01*
G01*
X141563200Y-143473000D01*
G75*
G02*
X141313200Y-143223000I0J250000D01*
G01*
G37*
G36*
G01*
X176725200Y-113825000D02*
X176725200Y-114775000D01*
G75*
G02*
X176475200Y-115025000I-250000J0D01*
G01*
X175975200Y-115025000D01*
G75*
G02*
X175725200Y-114775000I0J250000D01*
G01*
X175725200Y-113825000D01*
G75*
G02*
X175975200Y-113575000I250000J0D01*
G01*
X176475200Y-113575000D01*
G75*
G02*
X176725200Y-113825000I0J-250000D01*
G01*
G37*
G36*
G01*
X178625200Y-113825000D02*
X178625200Y-114775000D01*
G75*
G02*
X178375200Y-115025000I-250000J0D01*
G01*
X177875200Y-115025000D01*
G75*
G02*
X177625200Y-114775000I0J250000D01*
G01*
X177625200Y-113825000D01*
G75*
G02*
X177875200Y-113575000I250000J0D01*
G01*
X178375200Y-113575000D01*
G75*
G02*
X178625200Y-113825000I0J-250000D01*
G01*
G37*
D26*
X181834579Y-99586017D03*
M02*
