G04 #@! TF.GenerationSoftware,KiCad,Pcbnew,(5.1.7)-1*
G04 #@! TF.CreationDate,2020-12-23T08:23:27-08:00*
G04 #@! TF.ProjectId,LCP_Controller,4c43505f-436f-46e7-9472-6f6c6c65722e,rev?*
G04 #@! TF.SameCoordinates,Original*
G04 #@! TF.FileFunction,Paste,Top*
G04 #@! TF.FilePolarity,Positive*
%FSLAX46Y46*%
G04 Gerber Fmt 4.6, Leading zero omitted, Abs format (unit mm)*
G04 Created by KiCad (PCBNEW (5.1.7)-1) date 2020-12-23 08:23:27*
%MOMM*%
%LPD*%
G01*
G04 APERTURE LIST*
%ADD10R,0.325000X0.325000*%
%ADD11R,0.500000X0.400000*%
%ADD12R,0.500000X0.300000*%
%ADD13R,0.800000X0.900000*%
%ADD14C,0.100000*%
%ADD15R,0.830000X0.630000*%
%ADD16R,1.200000X1.050000*%
%ADD17C,0.270000*%
%ADD18R,0.400000X0.650000*%
%ADD19O,0.300000X0.550000*%
%ADD20R,0.300000X0.200000*%
%ADD21R,1.000000X0.650000*%
%ADD22O,0.550000X0.300000*%
%ADD23R,0.200000X0.300000*%
%ADD24R,0.650000X1.000000*%
%ADD25R,0.500000X1.000000*%
%ADD26R,0.700000X0.250000*%
%ADD27R,0.500000X0.600000*%
%ADD28R,0.750000X0.300000*%
%ADD29R,1.050000X0.650000*%
%ADD30R,0.900000X0.400000*%
%ADD31R,0.400000X0.900000*%
%ADD32R,0.900000X0.800000*%
%ADD33R,0.700000X0.200000*%
G04 APERTURE END LIST*
D10*
X211776500Y-140080500D03*
X212276500Y-140080500D03*
X212276500Y-141605500D03*
X211776500Y-141605500D03*
X212789000Y-140093000D03*
X211264000Y-140093000D03*
X212789000Y-141593000D03*
X211264000Y-141593000D03*
X212789000Y-141093000D03*
X212789000Y-140593000D03*
X211264000Y-141093000D03*
X211264000Y-140593000D03*
D11*
X157988000Y-136042400D03*
D12*
X157988000Y-135542400D03*
D11*
X157988000Y-134542400D03*
D12*
X157988000Y-135042400D03*
D11*
X156988000Y-136042400D03*
D12*
X156988000Y-135042400D03*
X156988000Y-135542400D03*
D11*
X156988000Y-134542400D03*
X152044400Y-134339200D03*
D12*
X152044400Y-134839200D03*
D11*
X152044400Y-135839200D03*
D12*
X152044400Y-135339200D03*
D11*
X153044400Y-134339200D03*
D12*
X153044400Y-135339200D03*
X153044400Y-134839200D03*
D11*
X153044400Y-135839200D03*
X158742000Y-131458400D03*
D12*
X158742000Y-130958400D03*
D11*
X158742000Y-129958400D03*
D12*
X158742000Y-130458400D03*
D11*
X157742000Y-131458400D03*
D12*
X157742000Y-130458400D03*
X157742000Y-130958400D03*
D11*
X157742000Y-129958400D03*
X152060400Y-129970400D03*
D12*
X152060400Y-130470400D03*
D11*
X152060400Y-131470400D03*
D12*
X152060400Y-130970400D03*
D11*
X153060400Y-129970400D03*
D12*
X153060400Y-130970400D03*
X153060400Y-130470400D03*
D11*
X153060400Y-131470400D03*
X158597600Y-126526800D03*
D12*
X158597600Y-126026800D03*
D11*
X158597600Y-125026800D03*
D12*
X158597600Y-125526800D03*
D11*
X157597600Y-126526800D03*
D12*
X157597600Y-125526800D03*
X157597600Y-126026800D03*
D11*
X157597600Y-125026800D03*
X152154000Y-124929200D03*
D12*
X152154000Y-125429200D03*
D11*
X152154000Y-126429200D03*
D12*
X152154000Y-125929200D03*
D11*
X153154000Y-124929200D03*
D12*
X153154000Y-125929200D03*
X153154000Y-125429200D03*
D11*
X153154000Y-126429200D03*
G36*
G01*
X199703000Y-165296002D02*
X199703000Y-164395998D01*
G75*
G02*
X199952998Y-164146000I249998J0D01*
G01*
X200478002Y-164146000D01*
G75*
G02*
X200728000Y-164395998I0J-249998D01*
G01*
X200728000Y-165296002D01*
G75*
G02*
X200478002Y-165546000I-249998J0D01*
G01*
X199952998Y-165546000D01*
G75*
G02*
X199703000Y-165296002I0J249998D01*
G01*
G37*
G36*
G01*
X197878000Y-165296002D02*
X197878000Y-164395998D01*
G75*
G02*
X198127998Y-164146000I249998J0D01*
G01*
X198653002Y-164146000D01*
G75*
G02*
X198903000Y-164395998I0J-249998D01*
G01*
X198903000Y-165296002D01*
G75*
G02*
X198653002Y-165546000I-249998J0D01*
G01*
X198127998Y-165546000D01*
G75*
G02*
X197878000Y-165296002I0J249998D01*
G01*
G37*
D13*
X199326500Y-168767000D03*
X198376500Y-166767000D03*
X200276500Y-166767000D03*
G36*
G01*
X157268199Y-170026800D02*
X157938201Y-170026800D01*
G75*
G02*
X158188200Y-170276799I0J-249999D01*
G01*
X158188200Y-170946801D01*
G75*
G02*
X157938201Y-171196800I-249999J0D01*
G01*
X157268199Y-171196800D01*
G75*
G02*
X157018200Y-170946801I0J249999D01*
G01*
X157018200Y-170276799D01*
G75*
G02*
X157268199Y-170026800I249999J0D01*
G01*
G37*
G36*
G01*
X158618199Y-170026800D02*
X159288201Y-170026800D01*
G75*
G02*
X159538200Y-170276799I0J-249999D01*
G01*
X159538200Y-170946801D01*
G75*
G02*
X159288201Y-171196800I-249999J0D01*
G01*
X158618199Y-171196800D01*
G75*
G02*
X158368200Y-170946801I0J249999D01*
G01*
X158368200Y-170276799D01*
G75*
G02*
X158618199Y-170026800I249999J0D01*
G01*
G37*
G36*
G01*
X157268199Y-168676800D02*
X157938201Y-168676800D01*
G75*
G02*
X158188200Y-168926799I0J-249999D01*
G01*
X158188200Y-169596801D01*
G75*
G02*
X157938201Y-169846800I-249999J0D01*
G01*
X157268199Y-169846800D01*
G75*
G02*
X157018200Y-169596801I0J249999D01*
G01*
X157018200Y-168926799D01*
G75*
G02*
X157268199Y-168676800I249999J0D01*
G01*
G37*
G36*
G01*
X158618199Y-168676800D02*
X159288201Y-168676800D01*
G75*
G02*
X159538200Y-168926799I0J-249999D01*
G01*
X159538200Y-169596801D01*
G75*
G02*
X159288201Y-169846800I-249999J0D01*
G01*
X158618199Y-169846800D01*
G75*
G02*
X158368200Y-169596801I0J249999D01*
G01*
X158368200Y-168926799D01*
G75*
G02*
X158618199Y-168676800I249999J0D01*
G01*
G37*
G36*
G01*
X159890700Y-168561800D02*
X160590700Y-168561800D01*
G75*
G02*
X160653200Y-168624300I0J-62500D01*
G01*
X160653200Y-168749300D01*
G75*
G02*
X160590700Y-168811800I-62500J0D01*
G01*
X159890700Y-168811800D01*
G75*
G02*
X159828200Y-168749300I0J62500D01*
G01*
X159828200Y-168624300D01*
G75*
G02*
X159890700Y-168561800I62500J0D01*
G01*
G37*
G36*
G01*
X159890700Y-169061800D02*
X160590700Y-169061800D01*
G75*
G02*
X160653200Y-169124300I0J-62500D01*
G01*
X160653200Y-169249300D01*
G75*
G02*
X160590700Y-169311800I-62500J0D01*
G01*
X159890700Y-169311800D01*
G75*
G02*
X159828200Y-169249300I0J62500D01*
G01*
X159828200Y-169124300D01*
G75*
G02*
X159890700Y-169061800I62500J0D01*
G01*
G37*
G36*
G01*
X159890700Y-169561800D02*
X160590700Y-169561800D01*
G75*
G02*
X160653200Y-169624300I0J-62500D01*
G01*
X160653200Y-169749300D01*
G75*
G02*
X160590700Y-169811800I-62500J0D01*
G01*
X159890700Y-169811800D01*
G75*
G02*
X159828200Y-169749300I0J62500D01*
G01*
X159828200Y-169624300D01*
G75*
G02*
X159890700Y-169561800I62500J0D01*
G01*
G37*
G36*
G01*
X159890700Y-170061800D02*
X160590700Y-170061800D01*
G75*
G02*
X160653200Y-170124300I0J-62500D01*
G01*
X160653200Y-170249300D01*
G75*
G02*
X160590700Y-170311800I-62500J0D01*
G01*
X159890700Y-170311800D01*
G75*
G02*
X159828200Y-170249300I0J62500D01*
G01*
X159828200Y-170124300D01*
G75*
G02*
X159890700Y-170061800I62500J0D01*
G01*
G37*
G36*
G01*
X159890700Y-170561800D02*
X160590700Y-170561800D01*
G75*
G02*
X160653200Y-170624300I0J-62500D01*
G01*
X160653200Y-170749300D01*
G75*
G02*
X160590700Y-170811800I-62500J0D01*
G01*
X159890700Y-170811800D01*
G75*
G02*
X159828200Y-170749300I0J62500D01*
G01*
X159828200Y-170624300D01*
G75*
G02*
X159890700Y-170561800I62500J0D01*
G01*
G37*
G36*
G01*
X159890700Y-171061800D02*
X160590700Y-171061800D01*
G75*
G02*
X160653200Y-171124300I0J-62500D01*
G01*
X160653200Y-171249300D01*
G75*
G02*
X160590700Y-171311800I-62500J0D01*
G01*
X159890700Y-171311800D01*
G75*
G02*
X159828200Y-171249300I0J62500D01*
G01*
X159828200Y-171124300D01*
G75*
G02*
X159890700Y-171061800I62500J0D01*
G01*
G37*
G36*
G01*
X159465700Y-171486800D02*
X159590700Y-171486800D01*
G75*
G02*
X159653200Y-171549300I0J-62500D01*
G01*
X159653200Y-172249300D01*
G75*
G02*
X159590700Y-172311800I-62500J0D01*
G01*
X159465700Y-172311800D01*
G75*
G02*
X159403200Y-172249300I0J62500D01*
G01*
X159403200Y-171549300D01*
G75*
G02*
X159465700Y-171486800I62500J0D01*
G01*
G37*
G36*
G01*
X158965700Y-171486800D02*
X159090700Y-171486800D01*
G75*
G02*
X159153200Y-171549300I0J-62500D01*
G01*
X159153200Y-172249300D01*
G75*
G02*
X159090700Y-172311800I-62500J0D01*
G01*
X158965700Y-172311800D01*
G75*
G02*
X158903200Y-172249300I0J62500D01*
G01*
X158903200Y-171549300D01*
G75*
G02*
X158965700Y-171486800I62500J0D01*
G01*
G37*
G36*
G01*
X158465700Y-171486800D02*
X158590700Y-171486800D01*
G75*
G02*
X158653200Y-171549300I0J-62500D01*
G01*
X158653200Y-172249300D01*
G75*
G02*
X158590700Y-172311800I-62500J0D01*
G01*
X158465700Y-172311800D01*
G75*
G02*
X158403200Y-172249300I0J62500D01*
G01*
X158403200Y-171549300D01*
G75*
G02*
X158465700Y-171486800I62500J0D01*
G01*
G37*
G36*
G01*
X157965700Y-171486800D02*
X158090700Y-171486800D01*
G75*
G02*
X158153200Y-171549300I0J-62500D01*
G01*
X158153200Y-172249300D01*
G75*
G02*
X158090700Y-172311800I-62500J0D01*
G01*
X157965700Y-172311800D01*
G75*
G02*
X157903200Y-172249300I0J62500D01*
G01*
X157903200Y-171549300D01*
G75*
G02*
X157965700Y-171486800I62500J0D01*
G01*
G37*
G36*
G01*
X157465700Y-171486800D02*
X157590700Y-171486800D01*
G75*
G02*
X157653200Y-171549300I0J-62500D01*
G01*
X157653200Y-172249300D01*
G75*
G02*
X157590700Y-172311800I-62500J0D01*
G01*
X157465700Y-172311800D01*
G75*
G02*
X157403200Y-172249300I0J62500D01*
G01*
X157403200Y-171549300D01*
G75*
G02*
X157465700Y-171486800I62500J0D01*
G01*
G37*
G36*
G01*
X156965700Y-171486800D02*
X157090700Y-171486800D01*
G75*
G02*
X157153200Y-171549300I0J-62500D01*
G01*
X157153200Y-172249300D01*
G75*
G02*
X157090700Y-172311800I-62500J0D01*
G01*
X156965700Y-172311800D01*
G75*
G02*
X156903200Y-172249300I0J62500D01*
G01*
X156903200Y-171549300D01*
G75*
G02*
X156965700Y-171486800I62500J0D01*
G01*
G37*
G36*
G01*
X155965700Y-171061800D02*
X156665700Y-171061800D01*
G75*
G02*
X156728200Y-171124300I0J-62500D01*
G01*
X156728200Y-171249300D01*
G75*
G02*
X156665700Y-171311800I-62500J0D01*
G01*
X155965700Y-171311800D01*
G75*
G02*
X155903200Y-171249300I0J62500D01*
G01*
X155903200Y-171124300D01*
G75*
G02*
X155965700Y-171061800I62500J0D01*
G01*
G37*
G36*
G01*
X155965700Y-170561800D02*
X156665700Y-170561800D01*
G75*
G02*
X156728200Y-170624300I0J-62500D01*
G01*
X156728200Y-170749300D01*
G75*
G02*
X156665700Y-170811800I-62500J0D01*
G01*
X155965700Y-170811800D01*
G75*
G02*
X155903200Y-170749300I0J62500D01*
G01*
X155903200Y-170624300D01*
G75*
G02*
X155965700Y-170561800I62500J0D01*
G01*
G37*
G36*
G01*
X155965700Y-170061800D02*
X156665700Y-170061800D01*
G75*
G02*
X156728200Y-170124300I0J-62500D01*
G01*
X156728200Y-170249300D01*
G75*
G02*
X156665700Y-170311800I-62500J0D01*
G01*
X155965700Y-170311800D01*
G75*
G02*
X155903200Y-170249300I0J62500D01*
G01*
X155903200Y-170124300D01*
G75*
G02*
X155965700Y-170061800I62500J0D01*
G01*
G37*
G36*
G01*
X155965700Y-169561800D02*
X156665700Y-169561800D01*
G75*
G02*
X156728200Y-169624300I0J-62500D01*
G01*
X156728200Y-169749300D01*
G75*
G02*
X156665700Y-169811800I-62500J0D01*
G01*
X155965700Y-169811800D01*
G75*
G02*
X155903200Y-169749300I0J62500D01*
G01*
X155903200Y-169624300D01*
G75*
G02*
X155965700Y-169561800I62500J0D01*
G01*
G37*
G36*
G01*
X155965700Y-169061800D02*
X156665700Y-169061800D01*
G75*
G02*
X156728200Y-169124300I0J-62500D01*
G01*
X156728200Y-169249300D01*
G75*
G02*
X156665700Y-169311800I-62500J0D01*
G01*
X155965700Y-169311800D01*
G75*
G02*
X155903200Y-169249300I0J62500D01*
G01*
X155903200Y-169124300D01*
G75*
G02*
X155965700Y-169061800I62500J0D01*
G01*
G37*
G36*
G01*
X155965700Y-168561800D02*
X156665700Y-168561800D01*
G75*
G02*
X156728200Y-168624300I0J-62500D01*
G01*
X156728200Y-168749300D01*
G75*
G02*
X156665700Y-168811800I-62500J0D01*
G01*
X155965700Y-168811800D01*
G75*
G02*
X155903200Y-168749300I0J62500D01*
G01*
X155903200Y-168624300D01*
G75*
G02*
X155965700Y-168561800I62500J0D01*
G01*
G37*
G36*
G01*
X156965700Y-167561800D02*
X157090700Y-167561800D01*
G75*
G02*
X157153200Y-167624300I0J-62500D01*
G01*
X157153200Y-168324300D01*
G75*
G02*
X157090700Y-168386800I-62500J0D01*
G01*
X156965700Y-168386800D01*
G75*
G02*
X156903200Y-168324300I0J62500D01*
G01*
X156903200Y-167624300D01*
G75*
G02*
X156965700Y-167561800I62500J0D01*
G01*
G37*
G36*
G01*
X157465700Y-167561800D02*
X157590700Y-167561800D01*
G75*
G02*
X157653200Y-167624300I0J-62500D01*
G01*
X157653200Y-168324300D01*
G75*
G02*
X157590700Y-168386800I-62500J0D01*
G01*
X157465700Y-168386800D01*
G75*
G02*
X157403200Y-168324300I0J62500D01*
G01*
X157403200Y-167624300D01*
G75*
G02*
X157465700Y-167561800I62500J0D01*
G01*
G37*
G36*
G01*
X157965700Y-167561800D02*
X158090700Y-167561800D01*
G75*
G02*
X158153200Y-167624300I0J-62500D01*
G01*
X158153200Y-168324300D01*
G75*
G02*
X158090700Y-168386800I-62500J0D01*
G01*
X157965700Y-168386800D01*
G75*
G02*
X157903200Y-168324300I0J62500D01*
G01*
X157903200Y-167624300D01*
G75*
G02*
X157965700Y-167561800I62500J0D01*
G01*
G37*
G36*
G01*
X158465700Y-167561800D02*
X158590700Y-167561800D01*
G75*
G02*
X158653200Y-167624300I0J-62500D01*
G01*
X158653200Y-168324300D01*
G75*
G02*
X158590700Y-168386800I-62500J0D01*
G01*
X158465700Y-168386800D01*
G75*
G02*
X158403200Y-168324300I0J62500D01*
G01*
X158403200Y-167624300D01*
G75*
G02*
X158465700Y-167561800I62500J0D01*
G01*
G37*
G36*
G01*
X158965700Y-167561800D02*
X159090700Y-167561800D01*
G75*
G02*
X159153200Y-167624300I0J-62500D01*
G01*
X159153200Y-168324300D01*
G75*
G02*
X159090700Y-168386800I-62500J0D01*
G01*
X158965700Y-168386800D01*
G75*
G02*
X158903200Y-168324300I0J62500D01*
G01*
X158903200Y-167624300D01*
G75*
G02*
X158965700Y-167561800I62500J0D01*
G01*
G37*
G36*
G01*
X159465700Y-167561800D02*
X159590700Y-167561800D01*
G75*
G02*
X159653200Y-167624300I0J-62500D01*
G01*
X159653200Y-168324300D01*
G75*
G02*
X159590700Y-168386800I-62500J0D01*
G01*
X159465700Y-168386800D01*
G75*
G02*
X159403200Y-168324300I0J62500D01*
G01*
X159403200Y-167624300D01*
G75*
G02*
X159465700Y-167561800I62500J0D01*
G01*
G37*
G36*
G01*
X160144000Y-150667999D02*
X160144000Y-151258001D01*
G75*
G02*
X159894001Y-151508000I-249999J0D01*
G01*
X159303999Y-151508000D01*
G75*
G02*
X159054000Y-151258001I0J249999D01*
G01*
X159054000Y-150667999D01*
G75*
G02*
X159303999Y-150418000I249999J0D01*
G01*
X159894001Y-150418000D01*
G75*
G02*
X160144000Y-150667999I0J-249999D01*
G01*
G37*
G36*
G01*
X160144000Y-152017999D02*
X160144000Y-152608001D01*
G75*
G02*
X159894001Y-152858000I-249999J0D01*
G01*
X159303999Y-152858000D01*
G75*
G02*
X159054000Y-152608001I0J249999D01*
G01*
X159054000Y-152017999D01*
G75*
G02*
X159303999Y-151768000I249999J0D01*
G01*
X159894001Y-151768000D01*
G75*
G02*
X160144000Y-152017999I0J-249999D01*
G01*
G37*
G36*
G01*
X161494000Y-150667999D02*
X161494000Y-151258001D01*
G75*
G02*
X161244001Y-151508000I-249999J0D01*
G01*
X160653999Y-151508000D01*
G75*
G02*
X160404000Y-151258001I0J249999D01*
G01*
X160404000Y-150667999D01*
G75*
G02*
X160653999Y-150418000I249999J0D01*
G01*
X161244001Y-150418000D01*
G75*
G02*
X161494000Y-150667999I0J-249999D01*
G01*
G37*
G36*
G01*
X161494000Y-152017999D02*
X161494000Y-152608001D01*
G75*
G02*
X161244001Y-152858000I-249999J0D01*
G01*
X160653999Y-152858000D01*
G75*
G02*
X160404000Y-152608001I0J249999D01*
G01*
X160404000Y-152017999D01*
G75*
G02*
X160653999Y-151768000I249999J0D01*
G01*
X161244001Y-151768000D01*
G75*
G02*
X161494000Y-152017999I0J-249999D01*
G01*
G37*
G36*
G01*
X159144000Y-153320500D02*
X159144000Y-153780500D01*
G75*
G02*
X159084000Y-153840500I-60000J0D01*
G01*
X158964000Y-153840500D01*
G75*
G02*
X158904000Y-153780500I0J60000D01*
G01*
X158904000Y-153320500D01*
G75*
G02*
X158964000Y-153260500I60000J0D01*
G01*
X159084000Y-153260500D01*
G75*
G02*
X159144000Y-153320500I0J-60000D01*
G01*
G37*
G36*
G01*
X158651500Y-150328000D02*
X158651500Y-150448000D01*
G75*
G02*
X158591500Y-150508000I-60000J0D01*
G01*
X158131500Y-150508000D01*
G75*
G02*
X158071500Y-150448000I0J60000D01*
G01*
X158071500Y-150328000D01*
G75*
G02*
X158131500Y-150268000I60000J0D01*
G01*
X158591500Y-150268000D01*
G75*
G02*
X158651500Y-150328000I0J-60000D01*
G01*
G37*
G36*
G01*
X161644000Y-149495500D02*
X161644000Y-149955500D01*
G75*
G02*
X161584000Y-150015500I-60000J0D01*
G01*
X161464000Y-150015500D01*
G75*
G02*
X161404000Y-149955500I0J60000D01*
G01*
X161404000Y-149495500D01*
G75*
G02*
X161464000Y-149435500I60000J0D01*
G01*
X161584000Y-149435500D01*
G75*
G02*
X161644000Y-149495500I0J-60000D01*
G01*
G37*
G36*
G01*
X162476500Y-152828000D02*
X162476500Y-152948000D01*
G75*
G02*
X162416500Y-153008000I-60000J0D01*
G01*
X161956500Y-153008000D01*
G75*
G02*
X161896500Y-152948000I0J60000D01*
G01*
X161896500Y-152828000D01*
G75*
G02*
X161956500Y-152768000I60000J0D01*
G01*
X162416500Y-152768000D01*
G75*
G02*
X162476500Y-152828000I0J-60000D01*
G01*
G37*
G36*
G01*
X162476500Y-152328000D02*
X162476500Y-152448000D01*
G75*
G02*
X162416500Y-152508000I-60000J0D01*
G01*
X161956500Y-152508000D01*
G75*
G02*
X161896500Y-152448000I0J60000D01*
G01*
X161896500Y-152328000D01*
G75*
G02*
X161956500Y-152268000I60000J0D01*
G01*
X162416500Y-152268000D01*
G75*
G02*
X162476500Y-152328000I0J-60000D01*
G01*
G37*
G36*
G01*
X162476500Y-151828000D02*
X162476500Y-151948000D01*
G75*
G02*
X162416500Y-152008000I-60000J0D01*
G01*
X161956500Y-152008000D01*
G75*
G02*
X161896500Y-151948000I0J60000D01*
G01*
X161896500Y-151828000D01*
G75*
G02*
X161956500Y-151768000I60000J0D01*
G01*
X162416500Y-151768000D01*
G75*
G02*
X162476500Y-151828000I0J-60000D01*
G01*
G37*
G36*
G01*
X162476500Y-151328000D02*
X162476500Y-151448000D01*
G75*
G02*
X162416500Y-151508000I-60000J0D01*
G01*
X161956500Y-151508000D01*
G75*
G02*
X161896500Y-151448000I0J60000D01*
G01*
X161896500Y-151328000D01*
G75*
G02*
X161956500Y-151268000I60000J0D01*
G01*
X162416500Y-151268000D01*
G75*
G02*
X162476500Y-151328000I0J-60000D01*
G01*
G37*
G36*
G01*
X162476500Y-150828000D02*
X162476500Y-150948000D01*
G75*
G02*
X162416500Y-151008000I-60000J0D01*
G01*
X161956500Y-151008000D01*
G75*
G02*
X161896500Y-150948000I0J60000D01*
G01*
X161896500Y-150828000D01*
G75*
G02*
X161956500Y-150768000I60000J0D01*
G01*
X162416500Y-150768000D01*
G75*
G02*
X162476500Y-150828000I0J-60000D01*
G01*
G37*
G36*
G01*
X162476500Y-150328000D02*
X162476500Y-150448000D01*
G75*
G02*
X162416500Y-150508000I-60000J0D01*
G01*
X161956500Y-150508000D01*
G75*
G02*
X161896500Y-150448000I0J60000D01*
G01*
X161896500Y-150328000D01*
G75*
G02*
X161956500Y-150268000I60000J0D01*
G01*
X162416500Y-150268000D01*
G75*
G02*
X162476500Y-150328000I0J-60000D01*
G01*
G37*
G36*
G01*
X158651500Y-150828000D02*
X158651500Y-150948000D01*
G75*
G02*
X158591500Y-151008000I-60000J0D01*
G01*
X158131500Y-151008000D01*
G75*
G02*
X158071500Y-150948000I0J60000D01*
G01*
X158071500Y-150828000D01*
G75*
G02*
X158131500Y-150768000I60000J0D01*
G01*
X158591500Y-150768000D01*
G75*
G02*
X158651500Y-150828000I0J-60000D01*
G01*
G37*
G36*
G01*
X158651500Y-151328000D02*
X158651500Y-151448000D01*
G75*
G02*
X158591500Y-151508000I-60000J0D01*
G01*
X158131500Y-151508000D01*
G75*
G02*
X158071500Y-151448000I0J60000D01*
G01*
X158071500Y-151328000D01*
G75*
G02*
X158131500Y-151268000I60000J0D01*
G01*
X158591500Y-151268000D01*
G75*
G02*
X158651500Y-151328000I0J-60000D01*
G01*
G37*
G36*
G01*
X158651500Y-151828000D02*
X158651500Y-151948000D01*
G75*
G02*
X158591500Y-152008000I-60000J0D01*
G01*
X158131500Y-152008000D01*
G75*
G02*
X158071500Y-151948000I0J60000D01*
G01*
X158071500Y-151828000D01*
G75*
G02*
X158131500Y-151768000I60000J0D01*
G01*
X158591500Y-151768000D01*
G75*
G02*
X158651500Y-151828000I0J-60000D01*
G01*
G37*
G36*
G01*
X158651500Y-152328000D02*
X158651500Y-152448000D01*
G75*
G02*
X158591500Y-152508000I-60000J0D01*
G01*
X158131500Y-152508000D01*
G75*
G02*
X158071500Y-152448000I0J60000D01*
G01*
X158071500Y-152328000D01*
G75*
G02*
X158131500Y-152268000I60000J0D01*
G01*
X158591500Y-152268000D01*
G75*
G02*
X158651500Y-152328000I0J-60000D01*
G01*
G37*
G36*
G01*
X158651500Y-152828000D02*
X158651500Y-152948000D01*
G75*
G02*
X158591500Y-153008000I-60000J0D01*
G01*
X158131500Y-153008000D01*
G75*
G02*
X158071500Y-152948000I0J60000D01*
G01*
X158071500Y-152828000D01*
G75*
G02*
X158131500Y-152768000I60000J0D01*
G01*
X158591500Y-152768000D01*
G75*
G02*
X158651500Y-152828000I0J-60000D01*
G01*
G37*
G36*
G01*
X159644000Y-153320500D02*
X159644000Y-153780500D01*
G75*
G02*
X159584000Y-153840500I-60000J0D01*
G01*
X159464000Y-153840500D01*
G75*
G02*
X159404000Y-153780500I0J60000D01*
G01*
X159404000Y-153320500D01*
G75*
G02*
X159464000Y-153260500I60000J0D01*
G01*
X159584000Y-153260500D01*
G75*
G02*
X159644000Y-153320500I0J-60000D01*
G01*
G37*
G36*
G01*
X160144000Y-153320500D02*
X160144000Y-153780500D01*
G75*
G02*
X160084000Y-153840500I-60000J0D01*
G01*
X159964000Y-153840500D01*
G75*
G02*
X159904000Y-153780500I0J60000D01*
G01*
X159904000Y-153320500D01*
G75*
G02*
X159964000Y-153260500I60000J0D01*
G01*
X160084000Y-153260500D01*
G75*
G02*
X160144000Y-153320500I0J-60000D01*
G01*
G37*
G36*
G01*
X160644000Y-153320500D02*
X160644000Y-153780500D01*
G75*
G02*
X160584000Y-153840500I-60000J0D01*
G01*
X160464000Y-153840500D01*
G75*
G02*
X160404000Y-153780500I0J60000D01*
G01*
X160404000Y-153320500D01*
G75*
G02*
X160464000Y-153260500I60000J0D01*
G01*
X160584000Y-153260500D01*
G75*
G02*
X160644000Y-153320500I0J-60000D01*
G01*
G37*
G36*
G01*
X161144000Y-153320500D02*
X161144000Y-153780500D01*
G75*
G02*
X161084000Y-153840500I-60000J0D01*
G01*
X160964000Y-153840500D01*
G75*
G02*
X160904000Y-153780500I0J60000D01*
G01*
X160904000Y-153320500D01*
G75*
G02*
X160964000Y-153260500I60000J0D01*
G01*
X161084000Y-153260500D01*
G75*
G02*
X161144000Y-153320500I0J-60000D01*
G01*
G37*
G36*
G01*
X161644000Y-153320500D02*
X161644000Y-153780500D01*
G75*
G02*
X161584000Y-153840500I-60000J0D01*
G01*
X161464000Y-153840500D01*
G75*
G02*
X161404000Y-153780500I0J60000D01*
G01*
X161404000Y-153320500D01*
G75*
G02*
X161464000Y-153260500I60000J0D01*
G01*
X161584000Y-153260500D01*
G75*
G02*
X161644000Y-153320500I0J-60000D01*
G01*
G37*
G36*
G01*
X161144000Y-149495500D02*
X161144000Y-149955500D01*
G75*
G02*
X161084000Y-150015500I-60000J0D01*
G01*
X160964000Y-150015500D01*
G75*
G02*
X160904000Y-149955500I0J60000D01*
G01*
X160904000Y-149495500D01*
G75*
G02*
X160964000Y-149435500I60000J0D01*
G01*
X161084000Y-149435500D01*
G75*
G02*
X161144000Y-149495500I0J-60000D01*
G01*
G37*
G36*
G01*
X160644000Y-149495500D02*
X160644000Y-149955500D01*
G75*
G02*
X160584000Y-150015500I-60000J0D01*
G01*
X160464000Y-150015500D01*
G75*
G02*
X160404000Y-149955500I0J60000D01*
G01*
X160404000Y-149495500D01*
G75*
G02*
X160464000Y-149435500I60000J0D01*
G01*
X160584000Y-149435500D01*
G75*
G02*
X160644000Y-149495500I0J-60000D01*
G01*
G37*
G36*
G01*
X160144000Y-149495500D02*
X160144000Y-149955500D01*
G75*
G02*
X160084000Y-150015500I-60000J0D01*
G01*
X159964000Y-150015500D01*
G75*
G02*
X159904000Y-149955500I0J60000D01*
G01*
X159904000Y-149495500D01*
G75*
G02*
X159964000Y-149435500I60000J0D01*
G01*
X160084000Y-149435500D01*
G75*
G02*
X160144000Y-149495500I0J-60000D01*
G01*
G37*
G36*
G01*
X159644000Y-149495500D02*
X159644000Y-149955500D01*
G75*
G02*
X159584000Y-150015500I-60000J0D01*
G01*
X159464000Y-150015500D01*
G75*
G02*
X159404000Y-149955500I0J60000D01*
G01*
X159404000Y-149495500D01*
G75*
G02*
X159464000Y-149435500I60000J0D01*
G01*
X159584000Y-149435500D01*
G75*
G02*
X159644000Y-149495500I0J-60000D01*
G01*
G37*
G36*
G01*
X159144000Y-149495500D02*
X159144000Y-149955500D01*
G75*
G02*
X159084000Y-150015500I-60000J0D01*
G01*
X158964000Y-150015500D01*
G75*
G02*
X158904000Y-149955500I0J60000D01*
G01*
X158904000Y-149495500D01*
G75*
G02*
X158964000Y-149435500I60000J0D01*
G01*
X159084000Y-149435500D01*
G75*
G02*
X159144000Y-149495500I0J-60000D01*
G01*
G37*
D14*
G36*
X133909974Y-163897008D02*
G01*
X134311791Y-164867082D01*
X132279256Y-165708986D01*
X131877439Y-164738912D01*
X133909974Y-163897008D01*
G37*
G36*
X134232769Y-162193833D02*
G01*
X134615452Y-163117713D01*
X133645379Y-163519531D01*
X133262696Y-162595651D01*
X134232769Y-162193833D01*
G37*
G36*
X132781058Y-161171563D02*
G01*
X133182875Y-162141637D01*
X131150340Y-162983541D01*
X130748523Y-162013467D01*
X132781058Y-161171563D01*
G37*
D15*
X144970500Y-154051000D03*
X144970500Y-156351000D03*
X142811500Y-154051000D03*
X142811500Y-156351000D03*
D16*
X148844000Y-160020000D03*
X148844000Y-158370000D03*
D17*
X145891000Y-158782000D03*
X145391000Y-158782000D03*
X144891000Y-158782000D03*
X144391000Y-158782000D03*
X143891000Y-158782000D03*
X143391000Y-158782000D03*
X142891000Y-158782000D03*
X142391000Y-158782000D03*
X141891000Y-158782000D03*
X145891000Y-159282000D03*
X141891000Y-159282000D03*
X145891000Y-159782000D03*
X144891000Y-159782000D03*
X144391000Y-159782000D03*
X143891000Y-159782000D03*
X142891000Y-159782000D03*
X141891000Y-159782000D03*
X145891000Y-160282000D03*
X144891000Y-160282000D03*
X144391000Y-160282000D03*
X143391000Y-160282000D03*
X142891000Y-160282000D03*
X141891000Y-160282000D03*
X145891000Y-160782000D03*
X144891000Y-160782000D03*
X142891000Y-160782000D03*
X141891000Y-160782000D03*
X145891000Y-161282000D03*
X144891000Y-161282000D03*
X144391000Y-161282000D03*
X143391000Y-161282000D03*
X142891000Y-161282000D03*
X141891000Y-161282000D03*
X145891000Y-161782000D03*
X144891000Y-161782000D03*
X144391000Y-161782000D03*
X143891000Y-161782000D03*
X143391000Y-161782000D03*
X142891000Y-161782000D03*
X141891000Y-161782000D03*
X145891000Y-162282000D03*
X141891000Y-162282000D03*
X145891000Y-162782000D03*
X145391000Y-162782000D03*
X144891000Y-162782000D03*
X144391000Y-162782000D03*
X143891000Y-162782000D03*
X143391000Y-162782000D03*
X142891000Y-162782000D03*
X142391000Y-162782000D03*
X141891000Y-162782000D03*
D18*
X142953500Y-167701000D03*
X141653500Y-167701000D03*
X142303500Y-165801000D03*
X142303500Y-167701000D03*
X141653500Y-165801000D03*
X142953500Y-165801000D03*
D19*
X166674800Y-164313800D03*
X166024800Y-164313800D03*
D20*
X165374800Y-164513800D03*
X164724800Y-164513800D03*
X164724800Y-161013800D03*
D19*
X165374800Y-161213800D03*
D20*
X166024800Y-161013800D03*
X166674800Y-161013800D03*
D21*
X165074800Y-163213800D03*
X165074800Y-162313800D03*
X166324800Y-163213800D03*
X166324800Y-162313800D03*
D20*
X166674800Y-164513800D03*
X166024800Y-164513800D03*
D19*
X165374800Y-164313800D03*
X164724800Y-164313800D03*
X164724800Y-161213800D03*
D20*
X165374800Y-161013800D03*
D19*
X166024800Y-161213800D03*
X166674800Y-161213800D03*
D22*
X148208400Y-152511400D03*
X148208400Y-151861400D03*
D23*
X148008400Y-151211400D03*
X148008400Y-150561400D03*
X151508400Y-150561400D03*
D22*
X151308400Y-151211400D03*
D23*
X151508400Y-151861400D03*
X151508400Y-152511400D03*
D24*
X149308400Y-150911400D03*
X150208400Y-150911400D03*
X149308400Y-152161400D03*
X150208400Y-152161400D03*
D23*
X148008400Y-152511400D03*
X148008400Y-151861400D03*
D22*
X148208400Y-151211400D03*
X148208400Y-150561400D03*
X151308400Y-150561400D03*
D23*
X151508400Y-151211400D03*
D22*
X151308400Y-151861400D03*
X151308400Y-152511400D03*
D25*
X210409579Y-179243517D03*
X210409579Y-178043517D03*
D26*
X211334579Y-177643517D03*
X211334579Y-178143517D03*
X211334579Y-178643517D03*
X211334579Y-179143517D03*
X211334579Y-179643517D03*
X209484579Y-179643517D03*
X209484579Y-179143517D03*
X209484579Y-178643517D03*
X209484579Y-178143517D03*
X209484579Y-177643517D03*
D27*
X195580000Y-92710000D03*
X195580000Y-91960000D03*
X194930000Y-92710000D03*
X194930000Y-91960000D03*
D28*
X196705000Y-91585000D03*
X196705000Y-92085000D03*
X196705000Y-92585000D03*
X196705000Y-93085000D03*
X193805000Y-93085000D03*
X193805000Y-92585000D03*
X193805000Y-92085000D03*
X193805000Y-91585000D03*
D29*
X203009500Y-160219500D03*
X207159500Y-160219500D03*
X203009500Y-162369500D03*
X207159500Y-162369500D03*
D30*
X231838500Y-144361000D03*
X231838500Y-145161000D03*
X230138500Y-145161000D03*
X230138500Y-144361000D03*
X220789500Y-165836500D03*
X220789500Y-165036500D03*
X222489500Y-165036500D03*
X222489500Y-165836500D03*
X164654600Y-158604000D03*
X164654600Y-159404000D03*
X162954600Y-159404000D03*
X162954600Y-158604000D03*
X139446000Y-139408000D03*
X139446000Y-140208000D03*
X137746000Y-140208000D03*
X137746000Y-139408000D03*
X144257500Y-139471500D03*
X144257500Y-140271500D03*
X142557500Y-140271500D03*
X142557500Y-139471500D03*
X139483200Y-136302800D03*
X139483200Y-137102800D03*
X137783200Y-137102800D03*
X137783200Y-136302800D03*
X144258400Y-136353600D03*
X144258400Y-137153600D03*
X142558400Y-137153600D03*
X142558400Y-136353600D03*
D31*
X195472000Y-96354000D03*
X194672000Y-96354000D03*
X194672000Y-94654000D03*
X195472000Y-94654000D03*
D30*
X186348000Y-94634000D03*
X186348000Y-93834000D03*
X188048000Y-93834000D03*
X188048000Y-94634000D03*
G36*
G01*
X195193498Y-159173500D02*
X196093502Y-159173500D01*
G75*
G02*
X196343500Y-159423498I0J-249998D01*
G01*
X196343500Y-159948502D01*
G75*
G02*
X196093502Y-160198500I-249998J0D01*
G01*
X195193498Y-160198500D01*
G75*
G02*
X194943500Y-159948502I0J249998D01*
G01*
X194943500Y-159423498D01*
G75*
G02*
X195193498Y-159173500I249998J0D01*
G01*
G37*
G36*
G01*
X195193498Y-157348500D02*
X196093502Y-157348500D01*
G75*
G02*
X196343500Y-157598498I0J-249998D01*
G01*
X196343500Y-158123502D01*
G75*
G02*
X196093502Y-158373500I-249998J0D01*
G01*
X195193498Y-158373500D01*
G75*
G02*
X194943500Y-158123502I0J249998D01*
G01*
X194943500Y-157598498D01*
G75*
G02*
X195193498Y-157348500I249998J0D01*
G01*
G37*
G36*
G01*
X230080398Y-131895800D02*
X230980402Y-131895800D01*
G75*
G02*
X231230400Y-132145798I0J-249998D01*
G01*
X231230400Y-132670802D01*
G75*
G02*
X230980402Y-132920800I-249998J0D01*
G01*
X230080398Y-132920800D01*
G75*
G02*
X229830400Y-132670802I0J249998D01*
G01*
X229830400Y-132145798D01*
G75*
G02*
X230080398Y-131895800I249998J0D01*
G01*
G37*
G36*
G01*
X230080398Y-130070800D02*
X230980402Y-130070800D01*
G75*
G02*
X231230400Y-130320798I0J-249998D01*
G01*
X231230400Y-130845802D01*
G75*
G02*
X230980402Y-131095800I-249998J0D01*
G01*
X230080398Y-131095800D01*
G75*
G02*
X229830400Y-130845802I0J249998D01*
G01*
X229830400Y-130320798D01*
G75*
G02*
X230080398Y-130070800I249998J0D01*
G01*
G37*
G36*
G01*
X219983000Y-156253602D02*
X219983000Y-155353598D01*
G75*
G02*
X220232998Y-155103600I249998J0D01*
G01*
X220758002Y-155103600D01*
G75*
G02*
X221008000Y-155353598I0J-249998D01*
G01*
X221008000Y-156253602D01*
G75*
G02*
X220758002Y-156503600I-249998J0D01*
G01*
X220232998Y-156503600D01*
G75*
G02*
X219983000Y-156253602I0J249998D01*
G01*
G37*
G36*
G01*
X218158000Y-156253602D02*
X218158000Y-155353598D01*
G75*
G02*
X218407998Y-155103600I249998J0D01*
G01*
X218933002Y-155103600D01*
G75*
G02*
X219183000Y-155353598I0J-249998D01*
G01*
X219183000Y-156253602D01*
G75*
G02*
X218933002Y-156503600I-249998J0D01*
G01*
X218407998Y-156503600D01*
G75*
G02*
X218158000Y-156253602I0J249998D01*
G01*
G37*
G36*
G01*
X159607200Y-182644202D02*
X159607200Y-181744198D01*
G75*
G02*
X159857198Y-181494200I249998J0D01*
G01*
X160382202Y-181494200D01*
G75*
G02*
X160632200Y-181744198I0J-249998D01*
G01*
X160632200Y-182644202D01*
G75*
G02*
X160382202Y-182894200I-249998J0D01*
G01*
X159857198Y-182894200D01*
G75*
G02*
X159607200Y-182644202I0J249998D01*
G01*
G37*
G36*
G01*
X157782200Y-182644202D02*
X157782200Y-181744198D01*
G75*
G02*
X158032198Y-181494200I249998J0D01*
G01*
X158557202Y-181494200D01*
G75*
G02*
X158807200Y-181744198I0J-249998D01*
G01*
X158807200Y-182644202D01*
G75*
G02*
X158557202Y-182894200I-249998J0D01*
G01*
X158032198Y-182894200D01*
G75*
G02*
X157782200Y-182644202I0J249998D01*
G01*
G37*
G36*
G01*
X163330200Y-183596702D02*
X163330200Y-182696698D01*
G75*
G02*
X163580198Y-182446700I249998J0D01*
G01*
X164105202Y-182446700D01*
G75*
G02*
X164355200Y-182696698I0J-249998D01*
G01*
X164355200Y-183596702D01*
G75*
G02*
X164105202Y-183846700I-249998J0D01*
G01*
X163580198Y-183846700D01*
G75*
G02*
X163330200Y-183596702I0J249998D01*
G01*
G37*
G36*
G01*
X161505200Y-183596702D02*
X161505200Y-182696698D01*
G75*
G02*
X161755198Y-182446700I249998J0D01*
G01*
X162280202Y-182446700D01*
G75*
G02*
X162530200Y-182696698I0J-249998D01*
G01*
X162530200Y-183596702D01*
G75*
G02*
X162280202Y-183846700I-249998J0D01*
G01*
X161755198Y-183846700D01*
G75*
G02*
X161505200Y-183596702I0J249998D01*
G01*
G37*
G36*
G01*
X205125900Y-165143602D02*
X205125900Y-164243598D01*
G75*
G02*
X205375898Y-163993600I249998J0D01*
G01*
X205900902Y-163993600D01*
G75*
G02*
X206150900Y-164243598I0J-249998D01*
G01*
X206150900Y-165143602D01*
G75*
G02*
X205900902Y-165393600I-249998J0D01*
G01*
X205375898Y-165393600D01*
G75*
G02*
X205125900Y-165143602I0J249998D01*
G01*
G37*
G36*
G01*
X203300900Y-165143602D02*
X203300900Y-164243598D01*
G75*
G02*
X203550898Y-163993600I249998J0D01*
G01*
X204075902Y-163993600D01*
G75*
G02*
X204325900Y-164243598I0J-249998D01*
G01*
X204325900Y-165143602D01*
G75*
G02*
X204075902Y-165393600I-249998J0D01*
G01*
X203550898Y-165393600D01*
G75*
G02*
X203300900Y-165143602I0J249998D01*
G01*
G37*
G36*
G01*
X212510581Y-183300017D02*
X211610577Y-183300017D01*
G75*
G02*
X211360579Y-183050019I0J249998D01*
G01*
X211360579Y-182525015D01*
G75*
G02*
X211610577Y-182275017I249998J0D01*
G01*
X212510581Y-182275017D01*
G75*
G02*
X212760579Y-182525015I0J-249998D01*
G01*
X212760579Y-183050019D01*
G75*
G02*
X212510581Y-183300017I-249998J0D01*
G01*
G37*
G36*
G01*
X212510581Y-185125017D02*
X211610577Y-185125017D01*
G75*
G02*
X211360579Y-184875019I0J249998D01*
G01*
X211360579Y-184350015D01*
G75*
G02*
X211610577Y-184100017I249998J0D01*
G01*
X212510581Y-184100017D01*
G75*
G02*
X212760579Y-184350015I0J-249998D01*
G01*
X212760579Y-184875019D01*
G75*
G02*
X212510581Y-185125017I-249998J0D01*
G01*
G37*
G36*
G01*
X221239935Y-176772474D02*
X220603536Y-177408873D01*
G75*
G02*
X220249986Y-177408873I-176775J176775D01*
G01*
X219878753Y-177037640D01*
G75*
G02*
X219878753Y-176684090I176775J176775D01*
G01*
X220515152Y-176047691D01*
G75*
G02*
X220868702Y-176047691I176775J-176775D01*
G01*
X221239935Y-176418924D01*
G75*
G02*
X221239935Y-176772474I-176775J-176775D01*
G01*
G37*
G36*
G01*
X222530405Y-178062944D02*
X221894006Y-178699343D01*
G75*
G02*
X221540456Y-178699343I-176775J176775D01*
G01*
X221169223Y-178328110D01*
G75*
G02*
X221169223Y-177974560I176775J176775D01*
G01*
X221805622Y-177338161D01*
G75*
G02*
X222159172Y-177338161I176775J-176775D01*
G01*
X222530405Y-177709394D01*
G75*
G02*
X222530405Y-178062944I-176775J-176775D01*
G01*
G37*
G36*
G01*
X209324577Y-184123517D02*
X210224581Y-184123517D01*
G75*
G02*
X210474579Y-184373515I0J-249998D01*
G01*
X210474579Y-184898519D01*
G75*
G02*
X210224581Y-185148517I-249998J0D01*
G01*
X209324577Y-185148517D01*
G75*
G02*
X209074579Y-184898519I0J249998D01*
G01*
X209074579Y-184373515D01*
G75*
G02*
X209324577Y-184123517I249998J0D01*
G01*
G37*
G36*
G01*
X209324577Y-182298517D02*
X210224581Y-182298517D01*
G75*
G02*
X210474579Y-182548515I0J-249998D01*
G01*
X210474579Y-183073519D01*
G75*
G02*
X210224581Y-183323517I-249998J0D01*
G01*
X209324577Y-183323517D01*
G75*
G02*
X209074579Y-183073519I0J249998D01*
G01*
X209074579Y-182548515D01*
G75*
G02*
X209324577Y-182298517I249998J0D01*
G01*
G37*
G36*
G01*
X216159935Y-181494974D02*
X215523536Y-182131373D01*
G75*
G02*
X215169986Y-182131373I-176775J176775D01*
G01*
X214798753Y-181760140D01*
G75*
G02*
X214798753Y-181406590I176775J176775D01*
G01*
X215435152Y-180770191D01*
G75*
G02*
X215788702Y-180770191I176775J-176775D01*
G01*
X216159935Y-181141424D01*
G75*
G02*
X216159935Y-181494974I-176775J-176775D01*
G01*
G37*
G36*
G01*
X217450405Y-182785444D02*
X216814006Y-183421843D01*
G75*
G02*
X216460456Y-183421843I-176775J176775D01*
G01*
X216089223Y-183050610D01*
G75*
G02*
X216089223Y-182697060I176775J176775D01*
G01*
X216725622Y-182060661D01*
G75*
G02*
X217079172Y-182060661I176775J-176775D01*
G01*
X217450405Y-182431894D01*
G75*
G02*
X217450405Y-182785444I-176775J-176775D01*
G01*
G37*
G36*
G01*
X204273998Y-94530500D02*
X205174002Y-94530500D01*
G75*
G02*
X205424000Y-94780498I0J-249998D01*
G01*
X205424000Y-95305502D01*
G75*
G02*
X205174002Y-95555500I-249998J0D01*
G01*
X204273998Y-95555500D01*
G75*
G02*
X204024000Y-95305502I0J249998D01*
G01*
X204024000Y-94780498D01*
G75*
G02*
X204273998Y-94530500I249998J0D01*
G01*
G37*
G36*
G01*
X204273998Y-92705500D02*
X205174002Y-92705500D01*
G75*
G02*
X205424000Y-92955498I0J-249998D01*
G01*
X205424000Y-93480502D01*
G75*
G02*
X205174002Y-93730500I-249998J0D01*
G01*
X204273998Y-93730500D01*
G75*
G02*
X204024000Y-93480502I0J249998D01*
G01*
X204024000Y-92955498D01*
G75*
G02*
X204273998Y-92705500I249998J0D01*
G01*
G37*
G36*
G01*
X182175200Y-110446398D02*
X182175200Y-111346402D01*
G75*
G02*
X181925202Y-111596400I-249998J0D01*
G01*
X181400198Y-111596400D01*
G75*
G02*
X181150200Y-111346402I0J249998D01*
G01*
X181150200Y-110446398D01*
G75*
G02*
X181400198Y-110196400I249998J0D01*
G01*
X181925202Y-110196400D01*
G75*
G02*
X182175200Y-110446398I0J-249998D01*
G01*
G37*
G36*
G01*
X184000200Y-110446398D02*
X184000200Y-111346402D01*
G75*
G02*
X183750202Y-111596400I-249998J0D01*
G01*
X183225198Y-111596400D01*
G75*
G02*
X182975200Y-111346402I0J249998D01*
G01*
X182975200Y-110446398D01*
G75*
G02*
X183225198Y-110196400I249998J0D01*
G01*
X183750202Y-110196400D01*
G75*
G02*
X184000200Y-110446398I0J-249998D01*
G01*
G37*
D32*
X191595500Y-158750000D03*
X193595500Y-157800000D03*
X193595500Y-159700000D03*
X222805500Y-159067500D03*
X220805500Y-160017500D03*
X220805500Y-158117500D03*
D13*
X159334200Y-185937400D03*
X158384200Y-183937400D03*
X160284200Y-183937400D03*
X162956200Y-187115200D03*
X162006200Y-185115200D03*
X163906200Y-185115200D03*
X204685900Y-168567100D03*
X203735900Y-166567100D03*
X205635900Y-166567100D03*
D32*
X200692000Y-92776000D03*
X202692000Y-91826000D03*
X202692000Y-93726000D03*
D13*
X182626000Y-106950000D03*
X183576000Y-108950000D03*
X181676000Y-108950000D03*
D14*
G36*
X137994626Y-171323712D02*
G01*
X138558791Y-172209273D01*
X136703330Y-173391332D01*
X136139165Y-172505771D01*
X137994626Y-171323712D01*
G37*
G36*
X138016764Y-169590359D02*
G01*
X138554063Y-170433750D01*
X137668502Y-170997915D01*
X137131203Y-170154524D01*
X138016764Y-169590359D01*
G37*
G36*
X136409592Y-168835707D02*
G01*
X136973757Y-169721268D01*
X135118296Y-170903327D01*
X134554131Y-170017766D01*
X136409592Y-168835707D01*
G37*
G36*
G01*
X223958270Y-173062348D02*
X224954129Y-173897973D01*
G75*
G02*
X224984943Y-174250179I-160696J-191510D01*
G01*
X224534990Y-174786412D01*
G75*
G02*
X224182784Y-174817226I-191510J160696D01*
G01*
X223186925Y-173981601D01*
G75*
G02*
X223156111Y-173629395I160696J191510D01*
G01*
X223606064Y-173093162D01*
G75*
G02*
X223958270Y-173062348I191510J-160696D01*
G01*
G37*
G36*
G01*
X227557881Y-168772499D02*
X228553740Y-169608124D01*
G75*
G02*
X228584554Y-169960330I-160696J-191510D01*
G01*
X228134601Y-170496563D01*
G75*
G02*
X227782395Y-170527377I-191510J160696D01*
G01*
X226786536Y-169691752D01*
G75*
G02*
X226755722Y-169339546I160696J191510D01*
G01*
X227205675Y-168803313D01*
G75*
G02*
X227557881Y-168772499I191510J-160696D01*
G01*
G37*
G36*
G01*
X222685947Y-170689334D02*
X223643503Y-171492819D01*
G75*
G02*
X223661992Y-171704144I-96418J-114907D01*
G01*
X223469156Y-171933957D01*
G75*
G02*
X223257831Y-171952446I-114907J96418D01*
G01*
X222300275Y-171148961D01*
G75*
G02*
X222281786Y-170937636I96418J114907D01*
G01*
X222474622Y-170707823D01*
G75*
G02*
X222685947Y-170689334I114907J-96418D01*
G01*
G37*
G36*
G01*
X223328734Y-169923290D02*
X224286290Y-170726775D01*
G75*
G02*
X224304779Y-170938100I-96418J-114907D01*
G01*
X224111943Y-171167913D01*
G75*
G02*
X223900618Y-171186402I-114907J96418D01*
G01*
X222943062Y-170382917D01*
G75*
G02*
X222924573Y-170171592I96418J114907D01*
G01*
X223117409Y-169941779D01*
G75*
G02*
X223328734Y-169923290I114907J-96418D01*
G01*
G37*
G36*
G01*
X223971522Y-169157245D02*
X224929078Y-169960730D01*
G75*
G02*
X224947567Y-170172055I-96418J-114907D01*
G01*
X224754731Y-170401868D01*
G75*
G02*
X224543406Y-170420357I-114907J96418D01*
G01*
X223585850Y-169616872D01*
G75*
G02*
X223567361Y-169405547I96418J114907D01*
G01*
X223760197Y-169175734D01*
G75*
G02*
X223971522Y-169157245I114907J-96418D01*
G01*
G37*
G36*
G01*
X224614310Y-168391201D02*
X225571866Y-169194686D01*
G75*
G02*
X225590355Y-169406011I-96418J-114907D01*
G01*
X225397519Y-169635824D01*
G75*
G02*
X225186194Y-169654313I-114907J96418D01*
G01*
X224228638Y-168850828D01*
G75*
G02*
X224210149Y-168639503I96418J114907D01*
G01*
X224402985Y-168409690D01*
G75*
G02*
X224614310Y-168391201I114907J-96418D01*
G01*
G37*
G36*
G01*
X190714950Y-127830400D02*
X189802450Y-127830400D01*
G75*
G02*
X189558700Y-127586650I0J243750D01*
G01*
X189558700Y-127099150D01*
G75*
G02*
X189802450Y-126855400I243750J0D01*
G01*
X190714950Y-126855400D01*
G75*
G02*
X190958700Y-127099150I0J-243750D01*
G01*
X190958700Y-127586650D01*
G75*
G02*
X190714950Y-127830400I-243750J0D01*
G01*
G37*
G36*
G01*
X190714950Y-129705400D02*
X189802450Y-129705400D01*
G75*
G02*
X189558700Y-129461650I0J243750D01*
G01*
X189558700Y-128974150D01*
G75*
G02*
X189802450Y-128730400I243750J0D01*
G01*
X190714950Y-128730400D01*
G75*
G02*
X190958700Y-128974150I0J-243750D01*
G01*
X190958700Y-129461650D01*
G75*
G02*
X190714950Y-129705400I-243750J0D01*
G01*
G37*
G36*
G01*
X193242250Y-129041500D02*
X192329750Y-129041500D01*
G75*
G02*
X192086000Y-128797750I0J243750D01*
G01*
X192086000Y-128310250D01*
G75*
G02*
X192329750Y-128066500I243750J0D01*
G01*
X193242250Y-128066500D01*
G75*
G02*
X193486000Y-128310250I0J-243750D01*
G01*
X193486000Y-128797750D01*
G75*
G02*
X193242250Y-129041500I-243750J0D01*
G01*
G37*
G36*
G01*
X193242250Y-130916500D02*
X192329750Y-130916500D01*
G75*
G02*
X192086000Y-130672750I0J243750D01*
G01*
X192086000Y-130185250D01*
G75*
G02*
X192329750Y-129941500I243750J0D01*
G01*
X193242250Y-129941500D01*
G75*
G02*
X193486000Y-130185250I0J-243750D01*
G01*
X193486000Y-130672750D01*
G75*
G02*
X193242250Y-130916500I-243750J0D01*
G01*
G37*
G36*
G01*
X195655250Y-131297500D02*
X194742750Y-131297500D01*
G75*
G02*
X194499000Y-131053750I0J243750D01*
G01*
X194499000Y-130566250D01*
G75*
G02*
X194742750Y-130322500I243750J0D01*
G01*
X195655250Y-130322500D01*
G75*
G02*
X195899000Y-130566250I0J-243750D01*
G01*
X195899000Y-131053750D01*
G75*
G02*
X195655250Y-131297500I-243750J0D01*
G01*
G37*
G36*
G01*
X195655250Y-133172500D02*
X194742750Y-133172500D01*
G75*
G02*
X194499000Y-132928750I0J243750D01*
G01*
X194499000Y-132441250D01*
G75*
G02*
X194742750Y-132197500I243750J0D01*
G01*
X195655250Y-132197500D01*
G75*
G02*
X195899000Y-132441250I0J-243750D01*
G01*
X195899000Y-132928750D01*
G75*
G02*
X195655250Y-133172500I-243750J0D01*
G01*
G37*
G36*
G01*
X137991000Y-162654000D02*
X137991000Y-161704000D01*
G75*
G02*
X138241000Y-161454000I250000J0D01*
G01*
X138741000Y-161454000D01*
G75*
G02*
X138991000Y-161704000I0J-250000D01*
G01*
X138991000Y-162654000D01*
G75*
G02*
X138741000Y-162904000I-250000J0D01*
G01*
X138241000Y-162904000D01*
G75*
G02*
X137991000Y-162654000I0J250000D01*
G01*
G37*
G36*
G01*
X136091000Y-162654000D02*
X136091000Y-161704000D01*
G75*
G02*
X136341000Y-161454000I250000J0D01*
G01*
X136841000Y-161454000D01*
G75*
G02*
X137091000Y-161704000I0J-250000D01*
G01*
X137091000Y-162654000D01*
G75*
G02*
X136841000Y-162904000I-250000J0D01*
G01*
X136341000Y-162904000D01*
G75*
G02*
X136091000Y-162654000I0J250000D01*
G01*
G37*
G36*
G01*
X207650500Y-158246000D02*
X207650500Y-158746000D01*
G75*
G02*
X207425500Y-158971000I-225000J0D01*
G01*
X206975500Y-158971000D01*
G75*
G02*
X206750500Y-158746000I0J225000D01*
G01*
X206750500Y-158246000D01*
G75*
G02*
X206975500Y-158021000I225000J0D01*
G01*
X207425500Y-158021000D01*
G75*
G02*
X207650500Y-158246000I0J-225000D01*
G01*
G37*
G36*
G01*
X209200500Y-158246000D02*
X209200500Y-158746000D01*
G75*
G02*
X208975500Y-158971000I-225000J0D01*
G01*
X208525500Y-158971000D01*
G75*
G02*
X208300500Y-158746000I0J225000D01*
G01*
X208300500Y-158246000D01*
G75*
G02*
X208525500Y-158021000I225000J0D01*
G01*
X208975500Y-158021000D01*
G75*
G02*
X209200500Y-158246000I0J-225000D01*
G01*
G37*
G36*
G01*
X138993500Y-123223000D02*
X138993500Y-124173000D01*
G75*
G02*
X138743500Y-124423000I-250000J0D01*
G01*
X138243500Y-124423000D01*
G75*
G02*
X137993500Y-124173000I0J250000D01*
G01*
X137993500Y-123223000D01*
G75*
G02*
X138243500Y-122973000I250000J0D01*
G01*
X138743500Y-122973000D01*
G75*
G02*
X138993500Y-123223000I0J-250000D01*
G01*
G37*
G36*
G01*
X140893500Y-123223000D02*
X140893500Y-124173000D01*
G75*
G02*
X140643500Y-124423000I-250000J0D01*
G01*
X140143500Y-124423000D01*
G75*
G02*
X139893500Y-124173000I0J250000D01*
G01*
X139893500Y-123223000D01*
G75*
G02*
X140143500Y-122973000I250000J0D01*
G01*
X140643500Y-122973000D01*
G75*
G02*
X140893500Y-123223000I0J-250000D01*
G01*
G37*
G36*
G01*
X142577800Y-124503600D02*
X143527800Y-124503600D01*
G75*
G02*
X143777800Y-124753600I0J-250000D01*
G01*
X143777800Y-125253600D01*
G75*
G02*
X143527800Y-125503600I-250000J0D01*
G01*
X142577800Y-125503600D01*
G75*
G02*
X142327800Y-125253600I0J250000D01*
G01*
X142327800Y-124753600D01*
G75*
G02*
X142577800Y-124503600I250000J0D01*
G01*
G37*
G36*
G01*
X142577800Y-122603600D02*
X143527800Y-122603600D01*
G75*
G02*
X143777800Y-122853600I0J-250000D01*
G01*
X143777800Y-123353600D01*
G75*
G02*
X143527800Y-123603600I-250000J0D01*
G01*
X142577800Y-123603600D01*
G75*
G02*
X142327800Y-123353600I0J250000D01*
G01*
X142327800Y-122853600D01*
G75*
G02*
X142577800Y-122603600I250000J0D01*
G01*
G37*
G36*
G01*
X145994500Y-164876500D02*
X145994500Y-163926500D01*
G75*
G02*
X146244500Y-163676500I250000J0D01*
G01*
X146744500Y-163676500D01*
G75*
G02*
X146994500Y-163926500I0J-250000D01*
G01*
X146994500Y-164876500D01*
G75*
G02*
X146744500Y-165126500I-250000J0D01*
G01*
X146244500Y-165126500D01*
G75*
G02*
X145994500Y-164876500I0J250000D01*
G01*
G37*
G36*
G01*
X144094500Y-164876500D02*
X144094500Y-163926500D01*
G75*
G02*
X144344500Y-163676500I250000J0D01*
G01*
X144844500Y-163676500D01*
G75*
G02*
X145094500Y-163926500I0J-250000D01*
G01*
X145094500Y-164876500D01*
G75*
G02*
X144844500Y-165126500I-250000J0D01*
G01*
X144344500Y-165126500D01*
G75*
G02*
X144094500Y-164876500I0J250000D01*
G01*
G37*
G36*
G01*
X151351000Y-158935000D02*
X150401000Y-158935000D01*
G75*
G02*
X150151000Y-158685000I0J250000D01*
G01*
X150151000Y-158185000D01*
G75*
G02*
X150401000Y-157935000I250000J0D01*
G01*
X151351000Y-157935000D01*
G75*
G02*
X151601000Y-158185000I0J-250000D01*
G01*
X151601000Y-158685000D01*
G75*
G02*
X151351000Y-158935000I-250000J0D01*
G01*
G37*
G36*
G01*
X151351000Y-160835000D02*
X150401000Y-160835000D01*
G75*
G02*
X150151000Y-160585000I0J250000D01*
G01*
X150151000Y-160085000D01*
G75*
G02*
X150401000Y-159835000I250000J0D01*
G01*
X151351000Y-159835000D01*
G75*
G02*
X151601000Y-160085000I0J-250000D01*
G01*
X151601000Y-160585000D01*
G75*
G02*
X151351000Y-160835000I-250000J0D01*
G01*
G37*
G36*
G01*
X149842600Y-163593800D02*
X149842600Y-162643800D01*
G75*
G02*
X150092600Y-162393800I250000J0D01*
G01*
X150592600Y-162393800D01*
G75*
G02*
X150842600Y-162643800I0J-250000D01*
G01*
X150842600Y-163593800D01*
G75*
G02*
X150592600Y-163843800I-250000J0D01*
G01*
X150092600Y-163843800D01*
G75*
G02*
X149842600Y-163593800I0J250000D01*
G01*
G37*
G36*
G01*
X147942600Y-163593800D02*
X147942600Y-162643800D01*
G75*
G02*
X148192600Y-162393800I250000J0D01*
G01*
X148692600Y-162393800D01*
G75*
G02*
X148942600Y-162643800I0J-250000D01*
G01*
X148942600Y-163593800D01*
G75*
G02*
X148692600Y-163843800I-250000J0D01*
G01*
X148192600Y-163843800D01*
G75*
G02*
X147942600Y-163593800I0J250000D01*
G01*
G37*
G36*
G01*
X218854000Y-143322500D02*
X219804000Y-143322500D01*
G75*
G02*
X220054000Y-143572500I0J-250000D01*
G01*
X220054000Y-144072500D01*
G75*
G02*
X219804000Y-144322500I-250000J0D01*
G01*
X218854000Y-144322500D01*
G75*
G02*
X218604000Y-144072500I0J250000D01*
G01*
X218604000Y-143572500D01*
G75*
G02*
X218854000Y-143322500I250000J0D01*
G01*
G37*
G36*
G01*
X218854000Y-141422500D02*
X219804000Y-141422500D01*
G75*
G02*
X220054000Y-141672500I0J-250000D01*
G01*
X220054000Y-142172500D01*
G75*
G02*
X219804000Y-142422500I-250000J0D01*
G01*
X218854000Y-142422500D01*
G75*
G02*
X218604000Y-142172500I0J250000D01*
G01*
X218604000Y-141672500D01*
G75*
G02*
X218854000Y-141422500I250000J0D01*
G01*
G37*
G36*
G01*
X220375500Y-136202000D02*
X219425500Y-136202000D01*
G75*
G02*
X219175500Y-135952000I0J250000D01*
G01*
X219175500Y-135452000D01*
G75*
G02*
X219425500Y-135202000I250000J0D01*
G01*
X220375500Y-135202000D01*
G75*
G02*
X220625500Y-135452000I0J-250000D01*
G01*
X220625500Y-135952000D01*
G75*
G02*
X220375500Y-136202000I-250000J0D01*
G01*
G37*
G36*
G01*
X220375500Y-138102000D02*
X219425500Y-138102000D01*
G75*
G02*
X219175500Y-137852000I0J250000D01*
G01*
X219175500Y-137352000D01*
G75*
G02*
X219425500Y-137102000I250000J0D01*
G01*
X220375500Y-137102000D01*
G75*
G02*
X220625500Y-137352000I0J-250000D01*
G01*
X220625500Y-137852000D01*
G75*
G02*
X220375500Y-138102000I-250000J0D01*
G01*
G37*
G36*
G01*
X222029000Y-143894000D02*
X222979000Y-143894000D01*
G75*
G02*
X223229000Y-144144000I0J-250000D01*
G01*
X223229000Y-144644000D01*
G75*
G02*
X222979000Y-144894000I-250000J0D01*
G01*
X222029000Y-144894000D01*
G75*
G02*
X221779000Y-144644000I0J250000D01*
G01*
X221779000Y-144144000D01*
G75*
G02*
X222029000Y-143894000I250000J0D01*
G01*
G37*
G36*
G01*
X222029000Y-141994000D02*
X222979000Y-141994000D01*
G75*
G02*
X223229000Y-142244000I0J-250000D01*
G01*
X223229000Y-142744000D01*
G75*
G02*
X222979000Y-142994000I-250000J0D01*
G01*
X222029000Y-142994000D01*
G75*
G02*
X221779000Y-142744000I0J250000D01*
G01*
X221779000Y-142244000D01*
G75*
G02*
X222029000Y-141994000I250000J0D01*
G01*
G37*
G36*
G01*
X142019000Y-171836500D02*
X142969000Y-171836500D01*
G75*
G02*
X143219000Y-172086500I0J-250000D01*
G01*
X143219000Y-172586500D01*
G75*
G02*
X142969000Y-172836500I-250000J0D01*
G01*
X142019000Y-172836500D01*
G75*
G02*
X141769000Y-172586500I0J250000D01*
G01*
X141769000Y-172086500D01*
G75*
G02*
X142019000Y-171836500I250000J0D01*
G01*
G37*
G36*
G01*
X142019000Y-169936500D02*
X142969000Y-169936500D01*
G75*
G02*
X143219000Y-170186500I0J-250000D01*
G01*
X143219000Y-170686500D01*
G75*
G02*
X142969000Y-170936500I-250000J0D01*
G01*
X142019000Y-170936500D01*
G75*
G02*
X141769000Y-170686500I0J250000D01*
G01*
X141769000Y-170186500D01*
G75*
G02*
X142019000Y-169936500I250000J0D01*
G01*
G37*
G36*
G01*
X139413000Y-162935500D02*
X138463000Y-162935500D01*
G75*
G02*
X138213000Y-162685500I0J250000D01*
G01*
X138213000Y-162185500D01*
G75*
G02*
X138463000Y-161935500I250000J0D01*
G01*
X139413000Y-161935500D01*
G75*
G02*
X139663000Y-162185500I0J-250000D01*
G01*
X139663000Y-162685500D01*
G75*
G02*
X139413000Y-162935500I-250000J0D01*
G01*
G37*
G36*
G01*
X139413000Y-164835500D02*
X138463000Y-164835500D01*
G75*
G02*
X138213000Y-164585500I0J250000D01*
G01*
X138213000Y-164085500D01*
G75*
G02*
X138463000Y-163835500I250000J0D01*
G01*
X139413000Y-163835500D01*
G75*
G02*
X139663000Y-164085500I0J-250000D01*
G01*
X139663000Y-164585500D01*
G75*
G02*
X139413000Y-164835500I-250000J0D01*
G01*
G37*
G36*
G01*
X140238500Y-167444000D02*
X139288500Y-167444000D01*
G75*
G02*
X139038500Y-167194000I0J250000D01*
G01*
X139038500Y-166694000D01*
G75*
G02*
X139288500Y-166444000I250000J0D01*
G01*
X140238500Y-166444000D01*
G75*
G02*
X140488500Y-166694000I0J-250000D01*
G01*
X140488500Y-167194000D01*
G75*
G02*
X140238500Y-167444000I-250000J0D01*
G01*
G37*
G36*
G01*
X140238500Y-169344000D02*
X139288500Y-169344000D01*
G75*
G02*
X139038500Y-169094000I0J250000D01*
G01*
X139038500Y-168594000D01*
G75*
G02*
X139288500Y-168344000I250000J0D01*
G01*
X140238500Y-168344000D01*
G75*
G02*
X140488500Y-168594000I0J-250000D01*
G01*
X140488500Y-169094000D01*
G75*
G02*
X140238500Y-169344000I-250000J0D01*
G01*
G37*
G36*
G01*
X212103619Y-136009400D02*
X212103619Y-135059400D01*
G75*
G02*
X212353619Y-134809400I250000J0D01*
G01*
X212853619Y-134809400D01*
G75*
G02*
X213103619Y-135059400I0J-250000D01*
G01*
X213103619Y-136009400D01*
G75*
G02*
X212853619Y-136259400I-250000J0D01*
G01*
X212353619Y-136259400D01*
G75*
G02*
X212103619Y-136009400I0J250000D01*
G01*
G37*
G36*
G01*
X210203619Y-136009400D02*
X210203619Y-135059400D01*
G75*
G02*
X210453619Y-134809400I250000J0D01*
G01*
X210953619Y-134809400D01*
G75*
G02*
X211203619Y-135059400I0J-250000D01*
G01*
X211203619Y-136009400D01*
G75*
G02*
X210953619Y-136259400I-250000J0D01*
G01*
X210453619Y-136259400D01*
G75*
G02*
X210203619Y-136009400I0J250000D01*
G01*
G37*
G36*
G01*
X215308200Y-136847200D02*
X214358200Y-136847200D01*
G75*
G02*
X214108200Y-136597200I0J250000D01*
G01*
X214108200Y-136097200D01*
G75*
G02*
X214358200Y-135847200I250000J0D01*
G01*
X215308200Y-135847200D01*
G75*
G02*
X215558200Y-136097200I0J-250000D01*
G01*
X215558200Y-136597200D01*
G75*
G02*
X215308200Y-136847200I-250000J0D01*
G01*
G37*
G36*
G01*
X215308200Y-138747200D02*
X214358200Y-138747200D01*
G75*
G02*
X214108200Y-138497200I0J250000D01*
G01*
X214108200Y-137997200D01*
G75*
G02*
X214358200Y-137747200I250000J0D01*
G01*
X215308200Y-137747200D01*
G75*
G02*
X215558200Y-137997200I0J-250000D01*
G01*
X215558200Y-138497200D01*
G75*
G02*
X215308200Y-138747200I-250000J0D01*
G01*
G37*
G36*
G01*
X212103619Y-138109718D02*
X212103619Y-137159718D01*
G75*
G02*
X212353619Y-136909718I250000J0D01*
G01*
X212853619Y-136909718D01*
G75*
G02*
X213103619Y-137159718I0J-250000D01*
G01*
X213103619Y-138109718D01*
G75*
G02*
X212853619Y-138359718I-250000J0D01*
G01*
X212353619Y-138359718D01*
G75*
G02*
X212103619Y-138109718I0J250000D01*
G01*
G37*
G36*
G01*
X210203619Y-138109718D02*
X210203619Y-137159718D01*
G75*
G02*
X210453619Y-136909718I250000J0D01*
G01*
X210953619Y-136909718D01*
G75*
G02*
X211203619Y-137159718I0J-250000D01*
G01*
X211203619Y-138109718D01*
G75*
G02*
X210953619Y-138359718I-250000J0D01*
G01*
X210453619Y-138359718D01*
G75*
G02*
X210203619Y-138109718I0J250000D01*
G01*
G37*
G36*
G01*
X157767000Y-156624400D02*
X158717000Y-156624400D01*
G75*
G02*
X158967000Y-156874400I0J-250000D01*
G01*
X158967000Y-157374400D01*
G75*
G02*
X158717000Y-157624400I-250000J0D01*
G01*
X157767000Y-157624400D01*
G75*
G02*
X157517000Y-157374400I0J250000D01*
G01*
X157517000Y-156874400D01*
G75*
G02*
X157767000Y-156624400I250000J0D01*
G01*
G37*
G36*
G01*
X157767000Y-154724400D02*
X158717000Y-154724400D01*
G75*
G02*
X158967000Y-154974400I0J-250000D01*
G01*
X158967000Y-155474400D01*
G75*
G02*
X158717000Y-155724400I-250000J0D01*
G01*
X157767000Y-155724400D01*
G75*
G02*
X157517000Y-155474400I0J250000D01*
G01*
X157517000Y-154974400D01*
G75*
G02*
X157767000Y-154724400I250000J0D01*
G01*
G37*
G36*
G01*
X169080200Y-162171000D02*
X168130200Y-162171000D01*
G75*
G02*
X167880200Y-161921000I0J250000D01*
G01*
X167880200Y-161421000D01*
G75*
G02*
X168130200Y-161171000I250000J0D01*
G01*
X169080200Y-161171000D01*
G75*
G02*
X169330200Y-161421000I0J-250000D01*
G01*
X169330200Y-161921000D01*
G75*
G02*
X169080200Y-162171000I-250000J0D01*
G01*
G37*
G36*
G01*
X169080200Y-164071000D02*
X168130200Y-164071000D01*
G75*
G02*
X167880200Y-163821000I0J250000D01*
G01*
X167880200Y-163321000D01*
G75*
G02*
X168130200Y-163071000I250000J0D01*
G01*
X169080200Y-163071000D01*
G75*
G02*
X169330200Y-163321000I0J-250000D01*
G01*
X169330200Y-163821000D01*
G75*
G02*
X169080200Y-164071000I-250000J0D01*
G01*
G37*
G36*
G01*
X149761400Y-154932400D02*
X149761400Y-153982400D01*
G75*
G02*
X150011400Y-153732400I250000J0D01*
G01*
X150511400Y-153732400D01*
G75*
G02*
X150761400Y-153982400I0J-250000D01*
G01*
X150761400Y-154932400D01*
G75*
G02*
X150511400Y-155182400I-250000J0D01*
G01*
X150011400Y-155182400D01*
G75*
G02*
X149761400Y-154932400I0J250000D01*
G01*
G37*
G36*
G01*
X147861400Y-154932400D02*
X147861400Y-153982400D01*
G75*
G02*
X148111400Y-153732400I250000J0D01*
G01*
X148611400Y-153732400D01*
G75*
G02*
X148861400Y-153982400I0J-250000D01*
G01*
X148861400Y-154932400D01*
G75*
G02*
X148611400Y-155182400I-250000J0D01*
G01*
X148111400Y-155182400D01*
G75*
G02*
X147861400Y-154932400I0J250000D01*
G01*
G37*
G36*
G01*
X163949800Y-171010600D02*
X163949800Y-170060600D01*
G75*
G02*
X164199800Y-169810600I250000J0D01*
G01*
X164699800Y-169810600D01*
G75*
G02*
X164949800Y-170060600I0J-250000D01*
G01*
X164949800Y-171010600D01*
G75*
G02*
X164699800Y-171260600I-250000J0D01*
G01*
X164199800Y-171260600D01*
G75*
G02*
X163949800Y-171010600I0J250000D01*
G01*
G37*
G36*
G01*
X162049800Y-171010600D02*
X162049800Y-170060600D01*
G75*
G02*
X162299800Y-169810600I250000J0D01*
G01*
X162799800Y-169810600D01*
G75*
G02*
X163049800Y-170060600I0J-250000D01*
G01*
X163049800Y-171010600D01*
G75*
G02*
X162799800Y-171260600I-250000J0D01*
G01*
X162299800Y-171260600D01*
G75*
G02*
X162049800Y-171010600I0J250000D01*
G01*
G37*
G36*
G01*
X163924400Y-168902400D02*
X163924400Y-167952400D01*
G75*
G02*
X164174400Y-167702400I250000J0D01*
G01*
X164674400Y-167702400D01*
G75*
G02*
X164924400Y-167952400I0J-250000D01*
G01*
X164924400Y-168902400D01*
G75*
G02*
X164674400Y-169152400I-250000J0D01*
G01*
X164174400Y-169152400D01*
G75*
G02*
X163924400Y-168902400I0J250000D01*
G01*
G37*
G36*
G01*
X162024400Y-168902400D02*
X162024400Y-167952400D01*
G75*
G02*
X162274400Y-167702400I250000J0D01*
G01*
X162774400Y-167702400D01*
G75*
G02*
X163024400Y-167952400I0J-250000D01*
G01*
X163024400Y-168902400D01*
G75*
G02*
X162774400Y-169152400I-250000J0D01*
G01*
X162274400Y-169152400D01*
G75*
G02*
X162024400Y-168902400I0J250000D01*
G01*
G37*
G36*
G01*
X161247200Y-175785800D02*
X161247200Y-174835800D01*
G75*
G02*
X161497200Y-174585800I250000J0D01*
G01*
X161997200Y-174585800D01*
G75*
G02*
X162247200Y-174835800I0J-250000D01*
G01*
X162247200Y-175785800D01*
G75*
G02*
X161997200Y-176035800I-250000J0D01*
G01*
X161497200Y-176035800D01*
G75*
G02*
X161247200Y-175785800I0J250000D01*
G01*
G37*
G36*
G01*
X159347200Y-175785800D02*
X159347200Y-174835800D01*
G75*
G02*
X159597200Y-174585800I250000J0D01*
G01*
X160097200Y-174585800D01*
G75*
G02*
X160347200Y-174835800I0J-250000D01*
G01*
X160347200Y-175785800D01*
G75*
G02*
X160097200Y-176035800I-250000J0D01*
G01*
X159597200Y-176035800D01*
G75*
G02*
X159347200Y-175785800I0J250000D01*
G01*
G37*
G36*
G01*
X158772400Y-163990000D02*
X158772400Y-164940000D01*
G75*
G02*
X158522400Y-165190000I-250000J0D01*
G01*
X158022400Y-165190000D01*
G75*
G02*
X157772400Y-164940000I0J250000D01*
G01*
X157772400Y-163990000D01*
G75*
G02*
X158022400Y-163740000I250000J0D01*
G01*
X158522400Y-163740000D01*
G75*
G02*
X158772400Y-163990000I0J-250000D01*
G01*
G37*
G36*
G01*
X160672400Y-163990000D02*
X160672400Y-164940000D01*
G75*
G02*
X160422400Y-165190000I-250000J0D01*
G01*
X159922400Y-165190000D01*
G75*
G02*
X159672400Y-164940000I0J250000D01*
G01*
X159672400Y-163990000D01*
G75*
G02*
X159922400Y-163740000I250000J0D01*
G01*
X160422400Y-163740000D01*
G75*
G02*
X160672400Y-163990000I0J-250000D01*
G01*
G37*
G36*
G01*
X209512579Y-174993517D02*
X209512579Y-175943517D01*
G75*
G02*
X209262579Y-176193517I-250000J0D01*
G01*
X208762579Y-176193517D01*
G75*
G02*
X208512579Y-175943517I0J250000D01*
G01*
X208512579Y-174993517D01*
G75*
G02*
X208762579Y-174743517I250000J0D01*
G01*
X209262579Y-174743517D01*
G75*
G02*
X209512579Y-174993517I0J-250000D01*
G01*
G37*
G36*
G01*
X211412579Y-174993517D02*
X211412579Y-175943517D01*
G75*
G02*
X211162579Y-176193517I-250000J0D01*
G01*
X210662579Y-176193517D01*
G75*
G02*
X210412579Y-175943517I0J250000D01*
G01*
X210412579Y-174993517D01*
G75*
G02*
X210662579Y-174743517I250000J0D01*
G01*
X211162579Y-174743517D01*
G75*
G02*
X211412579Y-174993517I0J-250000D01*
G01*
G37*
G36*
G01*
X214821579Y-176476517D02*
X213871579Y-176476517D01*
G75*
G02*
X213621579Y-176226517I0J250000D01*
G01*
X213621579Y-175726517D01*
G75*
G02*
X213871579Y-175476517I250000J0D01*
G01*
X214821579Y-175476517D01*
G75*
G02*
X215071579Y-175726517I0J-250000D01*
G01*
X215071579Y-176226517D01*
G75*
G02*
X214821579Y-176476517I-250000J0D01*
G01*
G37*
G36*
G01*
X214821579Y-178376517D02*
X213871579Y-178376517D01*
G75*
G02*
X213621579Y-178126517I0J250000D01*
G01*
X213621579Y-177626517D01*
G75*
G02*
X213871579Y-177376517I250000J0D01*
G01*
X214821579Y-177376517D01*
G75*
G02*
X215071579Y-177626517I0J-250000D01*
G01*
X215071579Y-178126517D01*
G75*
G02*
X214821579Y-178376517I-250000J0D01*
G01*
G37*
G36*
G01*
X210649922Y-127892629D02*
X209978171Y-127220878D01*
G75*
G02*
X209978171Y-126867324I176777J176777D01*
G01*
X210331724Y-126513771D01*
G75*
G02*
X210685278Y-126513771I176777J-176777D01*
G01*
X211357029Y-127185522D01*
G75*
G02*
X211357029Y-127539076I-176777J-176777D01*
G01*
X211003476Y-127892629D01*
G75*
G02*
X210649922Y-127892629I-176777J176777D01*
G01*
G37*
G36*
G01*
X209306420Y-129236131D02*
X208634669Y-128564380D01*
G75*
G02*
X208634669Y-128210826I176777J176777D01*
G01*
X208988222Y-127857273D01*
G75*
G02*
X209341776Y-127857273I176777J-176777D01*
G01*
X210013527Y-128529024D01*
G75*
G02*
X210013527Y-128882578I-176777J-176777D01*
G01*
X209659974Y-129236131D01*
G75*
G02*
X209306420Y-129236131I-176777J176777D01*
G01*
G37*
G36*
G01*
X213861673Y-131386478D02*
X213189922Y-130714727D01*
G75*
G02*
X213189922Y-130361173I176777J176777D01*
G01*
X213543475Y-130007620D01*
G75*
G02*
X213897029Y-130007620I176777J-176777D01*
G01*
X214568780Y-130679371D01*
G75*
G02*
X214568780Y-131032925I-176777J-176777D01*
G01*
X214215227Y-131386478D01*
G75*
G02*
X213861673Y-131386478I-176777J176777D01*
G01*
G37*
G36*
G01*
X212518171Y-132729980D02*
X211846420Y-132058229D01*
G75*
G02*
X211846420Y-131704675I176777J176777D01*
G01*
X212199973Y-131351122D01*
G75*
G02*
X212553527Y-131351122I176777J-176777D01*
G01*
X213225278Y-132022873D01*
G75*
G02*
X213225278Y-132376427I-176777J-176777D01*
G01*
X212871725Y-132729980D01*
G75*
G02*
X212518171Y-132729980I-176777J176777D01*
G01*
G37*
G36*
G01*
X193352000Y-89441000D02*
X193352000Y-90391000D01*
G75*
G02*
X193102000Y-90641000I-250000J0D01*
G01*
X192602000Y-90641000D01*
G75*
G02*
X192352000Y-90391000I0J250000D01*
G01*
X192352000Y-89441000D01*
G75*
G02*
X192602000Y-89191000I250000J0D01*
G01*
X193102000Y-89191000D01*
G75*
G02*
X193352000Y-89441000I0J-250000D01*
G01*
G37*
G36*
G01*
X195252000Y-89441000D02*
X195252000Y-90391000D01*
G75*
G02*
X195002000Y-90641000I-250000J0D01*
G01*
X194502000Y-90641000D01*
G75*
G02*
X194252000Y-90391000I0J250000D01*
G01*
X194252000Y-89441000D01*
G75*
G02*
X194502000Y-89191000I250000J0D01*
G01*
X195002000Y-89191000D01*
G75*
G02*
X195252000Y-89441000I0J-250000D01*
G01*
G37*
G36*
G01*
X178620800Y-88613000D02*
X178620800Y-87663000D01*
G75*
G02*
X178870800Y-87413000I250000J0D01*
G01*
X179370800Y-87413000D01*
G75*
G02*
X179620800Y-87663000I0J-250000D01*
G01*
X179620800Y-88613000D01*
G75*
G02*
X179370800Y-88863000I-250000J0D01*
G01*
X178870800Y-88863000D01*
G75*
G02*
X178620800Y-88613000I0J250000D01*
G01*
G37*
G36*
G01*
X176720800Y-88613000D02*
X176720800Y-87663000D01*
G75*
G02*
X176970800Y-87413000I250000J0D01*
G01*
X177470800Y-87413000D01*
G75*
G02*
X177720800Y-87663000I0J-250000D01*
G01*
X177720800Y-88613000D01*
G75*
G02*
X177470800Y-88863000I-250000J0D01*
G01*
X176970800Y-88863000D01*
G75*
G02*
X176720800Y-88613000I0J250000D01*
G01*
G37*
D33*
X159402579Y-136570517D03*
X163752579Y-136570517D03*
X159402579Y-136970517D03*
X163752579Y-136970517D03*
X159402579Y-137370517D03*
X163752579Y-137370517D03*
X159402579Y-137770517D03*
X163752579Y-137770517D03*
X159402579Y-138170517D03*
X163752579Y-138170517D03*
X159402579Y-138570517D03*
X163752579Y-138570517D03*
X159402579Y-138970517D03*
X163752579Y-138970517D03*
X159402579Y-139370517D03*
X163752579Y-139370517D03*
X159402579Y-139770517D03*
X163752579Y-139770517D03*
X159402579Y-140170517D03*
X163752579Y-140170517D03*
M02*
