G04 #@! TF.GenerationSoftware,KiCad,Pcbnew,(5.1.7)-1*
G04 #@! TF.CreationDate,2020-12-22T11:33:06-08:00*
G04 #@! TF.ProjectId,LCP_Controller,4c43505f-436f-46e7-9472-6f6c6c65722e,rev?*
G04 #@! TF.SameCoordinates,Original*
G04 #@! TF.FileFunction,Profile,NP*
%FSLAX46Y46*%
G04 Gerber Fmt 4.6, Leading zero omitted, Abs format (unit mm)*
G04 Created by KiCad (PCBNEW (5.1.7)-1) date 2020-12-22 11:33:06*
%MOMM*%
%LPD*%
G01*
G04 APERTURE LIST*
G04 #@! TA.AperFunction,Profile*
%ADD10C,0.050800*%
G04 #@! TD*
G04 #@! TA.AperFunction,Profile*
%ADD11C,0.050000*%
G04 #@! TD*
G04 APERTURE END LIST*
D10*
X199297079Y-177373517D02*
G75*
G03*
X199297079Y-177373517I-17462500J0D01*
G01*
X196122079Y-142448517D02*
G75*
G03*
X196122079Y-142448517I-14287500J0D01*
G01*
X214981578Y-109284962D02*
G75*
G03*
X214981578Y-109284962I-12826999J0D01*
G01*
X174341579Y-109284962D02*
G75*
G03*
X174341579Y-109284962I-12827000J0D01*
G01*
D11*
X251418779Y-148536346D02*
X239714042Y-147534603D01*
X245140178Y-171968403D02*
X234483940Y-167023817D01*
X231225987Y-191839926D02*
X222903547Y-183548886D01*
X211354464Y-205754116D02*
X206369631Y-195116645D01*
X187922407Y-212032717D02*
X186876425Y-200331851D01*
X163756068Y-209918436D02*
X166775099Y-198565471D01*
X141770265Y-199666287D02*
X148490168Y-190030559D01*
X124616809Y-182512831D02*
X134227066Y-175756551D01*
X114364660Y-160527027D02*
X125706131Y-157465102D01*
X112250379Y-136360688D02*
X123955116Y-137362431D01*
X118528980Y-112928631D02*
X129185218Y-117873217D01*
X132443171Y-93057108D02*
X140765611Y-101348148D01*
X152314694Y-79142918D02*
X157299527Y-89780389D01*
X175746751Y-72864317D02*
X176792733Y-84565183D01*
X199913090Y-74978598D02*
X196894059Y-86331563D01*
X221898893Y-85230747D02*
X215178990Y-94866475D01*
X239052349Y-102384203D02*
X229442092Y-109140483D01*
X235621964Y-156380801D02*
X238080813Y-157017718D01*
X227613066Y-173936952D02*
X229705790Y-175376433D01*
X214082607Y-187695131D02*
X215556792Y-189763555D01*
X196662559Y-195995902D02*
X197340398Y-198443785D01*
X177454038Y-197838067D02*
X177253772Y-200370160D01*
X158773876Y-192999436D02*
X157719660Y-195310329D01*
X142875174Y-182063617D02*
X141094164Y-183874584D01*
X131675551Y-166349633D02*
X129382562Y-167442243D01*
X126525848Y-147752821D02*
X123997448Y-147995291D01*
X128047194Y-128516233D02*
X125588345Y-127879316D01*
X136056092Y-110960082D02*
X133963368Y-109520601D01*
X149586551Y-97201903D02*
X148112366Y-95133479D01*
X167006599Y-88901132D02*
X166328760Y-86453249D01*
X186215120Y-87058967D02*
X186415386Y-84526874D01*
X204895282Y-91897598D02*
X205949498Y-89586705D01*
X220793984Y-102833417D02*
X222574994Y-101022450D01*
X231993607Y-118547401D02*
X234286596Y-117454791D01*
X238080812Y-157017718D02*
G75*
G02*
X236433069Y-162320742I-56246233J14569201D01*
G01*
X229705790Y-175376433D02*
G75*
G02*
X226343676Y-179796084I-47871211J32927916D01*
G01*
X215556792Y-189763555D02*
G75*
G02*
X210885829Y-192766758I-33722213J47315038D01*
G01*
X197340398Y-198443784D02*
G75*
G02*
X191923972Y-199668309I-15505819J55995267D01*
G01*
X177253772Y-200370159D02*
G75*
G02*
X171745186Y-199668309I4580807J57921642D01*
G01*
X157719660Y-195310329D02*
G75*
G02*
X152783329Y-192766758I24114919J52861812D01*
G01*
X141094164Y-183874584D02*
G75*
G02*
X137325482Y-179796084I40740415J41426067D01*
G01*
X129382562Y-167442243D02*
G75*
G02*
X127236089Y-162320742I52452017J24993726D01*
G01*
X123997447Y-147995291D02*
G75*
G02*
X123732079Y-142448517I57837132J5546774D01*
G01*
X125588346Y-127879316D02*
G75*
G02*
X127236089Y-122576292I56246233J-14569201D01*
G01*
X133963368Y-109520601D02*
G75*
G02*
X137325482Y-105100950I47871211J-32927916D01*
G01*
X148112366Y-95133479D02*
G75*
G02*
X152783329Y-92130276I33722213J-47315038D01*
G01*
X166328760Y-86453250D02*
G75*
G02*
X171745186Y-85228725I15505819J-55995267D01*
G01*
X186415386Y-84526875D02*
G75*
G02*
X191923972Y-85228725I-4580807J-57921642D01*
G01*
X205949498Y-89586705D02*
G75*
G02*
X210885829Y-92130276I-24114919J-52861812D01*
G01*
X222574994Y-101022450D02*
G75*
G02*
X226343676Y-105100950I-40740415J-41426067D01*
G01*
X234286596Y-117454791D02*
G75*
G02*
X236433069Y-122576292I-52452017J-24993726D01*
G01*
X236433069Y-162320742D02*
X247472108Y-166338624D01*
X226343676Y-179796084D02*
X235342783Y-187347231D01*
X210885829Y-192766758D02*
X216759579Y-202940391D01*
X191923972Y-199668309D02*
X193963904Y-211237338D01*
X171745186Y-199668309D02*
X169705254Y-211237338D01*
X152783329Y-192766758D02*
X146909579Y-202940391D01*
X137325482Y-179796084D02*
X128326375Y-187347231D01*
X127236089Y-162320742D02*
X116197050Y-166338624D01*
X123732079Y-142448517D02*
X111984579Y-142448517D01*
X127236089Y-122576292D02*
X116197050Y-118558410D01*
X137325482Y-105100950D02*
X128326375Y-97549803D01*
X152783329Y-92130276D02*
X146909579Y-81956643D01*
X171745186Y-85228725D02*
X169705254Y-73659696D01*
X191923972Y-85228725D02*
X193963904Y-73659696D01*
X210885829Y-92130276D02*
X216759579Y-81956643D01*
X226343676Y-105100950D02*
X235342783Y-97549803D01*
X236433069Y-122576292D02*
X247472108Y-118558410D01*
X238964148Y-153036856D02*
X236466679Y-152573978D01*
X231897388Y-171937764D02*
X229708849Y-170648616D01*
X218792315Y-187281834D02*
X217176676Y-185321907D01*
X201229592Y-197218344D02*
X200381722Y-194824034D01*
X181327546Y-200548805D02*
X181349711Y-198008901D01*
X161486655Y-196871513D02*
X162376183Y-194492365D01*
X144100024Y-186630005D02*
X145749622Y-184698573D01*
X131264737Y-171059557D02*
X133475440Y-169808801D01*
X124528920Y-152038196D02*
X127034086Y-151618975D01*
X124705010Y-131860178D02*
X127202479Y-132323056D01*
X131771770Y-112959270D02*
X133960309Y-114248418D01*
X144876843Y-97615200D02*
X146492482Y-99575127D01*
X162439566Y-87678690D02*
X163287436Y-90073000D01*
X182341612Y-84348229D02*
X182319447Y-86888133D01*
X202182503Y-88025521D02*
X201292975Y-90404669D01*
X219569134Y-98267029D02*
X217919536Y-100198461D01*
X232404421Y-113837477D02*
X230193718Y-115088233D01*
X237187492Y-137627069D02*
G75*
G02*
X236466679Y-152573978I-55352913J-4821448D01*
G01*
X235621964Y-156380801D02*
G75*
G02*
X229708849Y-170648616I-53787385J13932284D01*
G01*
X227613066Y-173936952D02*
G75*
G02*
X217176676Y-185321907I-45778487J31488435D01*
G01*
X214082607Y-187695130D02*
G75*
G02*
X200381722Y-194824034I-32248028J45246613D01*
G01*
X196662559Y-195995902D02*
G75*
G02*
X181349711Y-198008901I-14827980J53547385D01*
G01*
X177454038Y-197838066D02*
G75*
G02*
X162376183Y-194492365I4380541J55389549D01*
G01*
X158773876Y-192999436D02*
G75*
G02*
X145749622Y-184698573I23060703J50550919D01*
G01*
X142875173Y-182063618D02*
G75*
G02*
X133475440Y-169808801I38959406J39615101D01*
G01*
X131675552Y-166349632D02*
G75*
G02*
X127034086Y-151618975I50159027J23901115D01*
G01*
X126525849Y-147752821D02*
G75*
G02*
X127202479Y-132323056I55308730J5304304D01*
G01*
X128047194Y-128516233D02*
G75*
G02*
X133960309Y-114248418I53787385J-13932284D01*
G01*
X136056092Y-110960082D02*
G75*
G02*
X146492482Y-99575127I45778487J-31488435D01*
G01*
X149586551Y-97201904D02*
G75*
G02*
X163287436Y-90073000I32248028J-45246613D01*
G01*
X167006599Y-88901132D02*
G75*
G02*
X182319447Y-86888133I14827980J-53547385D01*
G01*
X186215120Y-87058968D02*
G75*
G02*
X201292975Y-90404669I-4380541J-55389549D01*
G01*
X204895282Y-91897598D02*
G75*
G02*
X217919536Y-100198461I-23060703J-50550919D01*
G01*
X220793985Y-102833416D02*
G75*
G02*
X230193718Y-115088233I-38959406J-39615101D01*
G01*
X239714043Y-147534603D02*
G75*
G02*
X238964148Y-153036856I-57879464J5086086D01*
G01*
X234483940Y-167023816D02*
G75*
G02*
X231897388Y-171937764I-52649361J24575299D01*
G01*
X222903547Y-183548887D02*
G75*
G02*
X218792315Y-187281834I-41068968J41100370D01*
G01*
X206369631Y-195116645D02*
G75*
G02*
X201229592Y-197218344I-24535052J52668128D01*
G01*
X186876425Y-200331850D02*
G75*
G02*
X181327546Y-200548805I-5041846J57883333D01*
G01*
X166775099Y-198565471D02*
G75*
G02*
X161486655Y-196871513I15059480J56116954D01*
G01*
X148490167Y-190030559D02*
G75*
G02*
X144100024Y-186630005I33344412J47582042D01*
G01*
X134227064Y-175756550D02*
G75*
G02*
X131264737Y-171059557I47607515J33308033D01*
G01*
X125706131Y-157465101D02*
G75*
G02*
X124528920Y-152038196I56128448J15016584D01*
G01*
X123955115Y-137362431D02*
G75*
G02*
X124705010Y-131860178I57879464J-5086086D01*
G01*
X129185218Y-117873218D02*
G75*
G02*
X131771770Y-112959270I52649361J-24575299D01*
G01*
X140765611Y-101348147D02*
G75*
G02*
X144876843Y-97615200I41068968J-41100370D01*
G01*
X157299527Y-89780389D02*
G75*
G02*
X162439566Y-87678690I24535052J-52668128D01*
G01*
X176792733Y-84565184D02*
G75*
G02*
X182341612Y-84348229I5041846J-57883333D01*
G01*
X196894059Y-86331563D02*
G75*
G02*
X202182503Y-88025521I-15059480J-56116954D01*
G01*
X215178990Y-94866475D02*
G75*
G02*
X219569134Y-98267029I-33344411J-47582042D01*
G01*
X229442094Y-109140484D02*
G75*
G02*
X232404421Y-113837477I-47607515J-33308033D01*
G01*
X251418779Y-148536345D02*
G75*
G02*
X247472109Y-166338624I-69584200J6087828D01*
G01*
X245140178Y-171968403D02*
G75*
G02*
X235342783Y-187347232I-63305599J29519886D01*
G01*
X231225988Y-191839926D02*
G75*
G02*
X216759579Y-202940391I-49391409J49391409D01*
G01*
X211354464Y-205754116D02*
G75*
G02*
X193963904Y-211237339I-29519885J63305599D01*
G01*
X187922408Y-212032717D02*
G75*
G02*
X169705254Y-211237339I-6087829J69584200D01*
G01*
X163756068Y-209918436D02*
G75*
G02*
X146909579Y-202940391I18078511J67469919D01*
G01*
X141770265Y-199666288D02*
G75*
G02*
X128326375Y-187347232I40064314J57217771D01*
G01*
X124616809Y-182512831D02*
G75*
G02*
X116197049Y-166338624I57217770J40064314D01*
G01*
X114364660Y-160527027D02*
G75*
G02*
X111984579Y-142448517I67469919J18078510D01*
G01*
X112250379Y-136360689D02*
G75*
G02*
X116197049Y-118558410I69584200J-6087828D01*
G01*
X118528980Y-112928631D02*
G75*
G02*
X128326375Y-97549802I63305599J-29519886D01*
G01*
X132443170Y-93057108D02*
G75*
G02*
X146909579Y-81956643I49391409J-49391409D01*
G01*
X152314694Y-79142918D02*
G75*
G02*
X169705254Y-73659695I29519885J-63305599D01*
G01*
X175746750Y-72864317D02*
G75*
G02*
X193963904Y-73659695I6087829J-69584200D01*
G01*
X199913090Y-74978598D02*
G75*
G02*
X216759579Y-81956643I-18078511J-67469919D01*
G01*
X221898893Y-85230746D02*
G75*
G02*
X235342783Y-97549802I-40064314J-57217771D01*
G01*
X239052349Y-102384203D02*
G75*
G02*
X247472109Y-118558410I-57217770J-40064314D01*
G01*
X239140238Y-132858838D02*
X236635072Y-133278059D01*
X237963027Y-127431932D02*
G75*
G02*
X239140238Y-132858838I-56128448J-15016585D01*
G01*
X231993606Y-118547402D02*
G75*
G02*
X236635072Y-133278059I-50159027J-23901115D01*
G01*
X237187492Y-137627069D02*
X239717912Y-137406672D01*
X239717913Y-137406672D02*
G75*
G02*
X239937079Y-142448517I-57883334J-5041845D01*
G01*
X249304498Y-124370007D02*
X237963027Y-127431932D01*
X239937079Y-142448517D02*
X251684579Y-142448517D01*
X249304498Y-124370007D02*
G75*
G02*
X251684579Y-142448517I-67469919J-18078510D01*
G01*
M02*
