G04 #@! TF.GenerationSoftware,KiCad,Pcbnew,(5.1.7)-1*
G04 #@! TF.CreationDate,2021-09-21T18:23:52-07:00*
G04 #@! TF.ProjectId,LCP_Controller,4c43505f-436f-46e7-9472-6f6c6c65722e,rev?*
G04 #@! TF.SameCoordinates,Original*
G04 #@! TF.FileFunction,Legend,Top*
G04 #@! TF.FilePolarity,Positive*
%FSLAX46Y46*%
G04 Gerber Fmt 4.6, Leading zero omitted, Abs format (unit mm)*
G04 Created by KiCad (PCBNEW (5.1.7)-1) date 2021-09-21 18:23:52*
%MOMM*%
%LPD*%
G01*
G04 APERTURE LIST*
%ADD10C,0.150000*%
%ADD11C,0.300000*%
%ADD12C,0.120000*%
%ADD13C,0.203200*%
%ADD14C,0.152400*%
G04 APERTURE END LIST*
D10*
X137534290Y-158587922D02*
X136915700Y-158945065D01*
X136768173Y-158975254D01*
X136638075Y-158940394D01*
X136525407Y-158840486D01*
X136477788Y-158758007D01*
X137666097Y-159006695D02*
X137731146Y-159024124D01*
X137820004Y-159082793D01*
X137939052Y-159288990D01*
X137945431Y-159395278D01*
X137928001Y-159460327D01*
X137869332Y-159549185D01*
X137786854Y-159596804D01*
X137639326Y-159626994D01*
X136858740Y-159417836D01*
X137168264Y-159953947D01*
X138142287Y-159831481D02*
X138207336Y-159848910D01*
X138296194Y-159907580D01*
X138415242Y-160113776D01*
X138421622Y-160220064D01*
X138404192Y-160285113D01*
X138345523Y-160373971D01*
X138263044Y-160421590D01*
X138115517Y-160451780D01*
X137334931Y-160242622D01*
X137644455Y-160778733D01*
X141428991Y-166268488D02*
X140781629Y-166570358D01*
X140632031Y-166587575D01*
X140505467Y-166541509D01*
X140401936Y-166432161D01*
X140361686Y-166345846D01*
X141523798Y-166697155D02*
X141587081Y-166720188D01*
X141670488Y-166786378D01*
X141771111Y-167002166D01*
X141768203Y-167108605D01*
X141745170Y-167171888D01*
X141678980Y-167255294D01*
X141592665Y-167295544D01*
X141443067Y-167312760D01*
X140683681Y-167036366D01*
X140945302Y-167597414D01*
X141911751Y-168092504D02*
X141307546Y-168374249D01*
X142156388Y-167715719D02*
X141408402Y-167801801D01*
X141670023Y-168362849D01*
X137743969Y-123235043D02*
X138391331Y-123536914D01*
X138500679Y-123640445D01*
X138546745Y-123767010D01*
X138529528Y-123916607D01*
X138489279Y-124002922D01*
X138011406Y-122886875D02*
X137988373Y-122823593D01*
X137985465Y-122717153D01*
X138086088Y-122501366D01*
X138169495Y-122435175D01*
X138232777Y-122412143D01*
X138339217Y-122409234D01*
X138425532Y-122449484D01*
X138534880Y-122553015D01*
X138811274Y-123312402D01*
X139072895Y-122751354D01*
X138307460Y-122026633D02*
X138589205Y-121422428D01*
X139314391Y-122233464D01*
X141462586Y-116098858D02*
X142081175Y-116456001D01*
X142181084Y-116568669D01*
X142215943Y-116698767D01*
X142185754Y-116846294D01*
X142138135Y-116928773D01*
X141759350Y-115775323D02*
X141741920Y-115710275D01*
X141748300Y-115603987D01*
X141867347Y-115397790D01*
X141956206Y-115339121D01*
X142021255Y-115321691D01*
X142127543Y-115328071D01*
X142210021Y-115375690D01*
X142309930Y-115488358D01*
X142519087Y-116268944D01*
X142828611Y-115732833D01*
X142391157Y-114490525D02*
X142295919Y-114655482D01*
X142289539Y-114761771D01*
X142306969Y-114826819D01*
X142383068Y-114980727D01*
X142524216Y-115117204D01*
X142854130Y-115307680D01*
X142960418Y-115314060D01*
X143025467Y-115296630D01*
X143114325Y-115237961D01*
X143209563Y-115073004D01*
X143215943Y-114966716D01*
X143198513Y-114901667D01*
X143139844Y-114812809D01*
X142933648Y-114693761D01*
X142827360Y-114687381D01*
X142762311Y-114704811D01*
X142673452Y-114763480D01*
X142578214Y-114928437D01*
X142571835Y-115034725D01*
X142589264Y-115099774D01*
X142647933Y-115188633D01*
X145443676Y-102881180D02*
X145443676Y-103595466D01*
X145396057Y-103738323D01*
X145300819Y-103833561D01*
X145157961Y-103881180D01*
X145062723Y-103881180D01*
X146443676Y-103881180D02*
X145872247Y-103881180D01*
X146157961Y-103881180D02*
X146157961Y-102881180D01*
X146062723Y-103024038D01*
X145967485Y-103119276D01*
X145872247Y-103166895D01*
X147062723Y-102881180D02*
X147157961Y-102881180D01*
X147253200Y-102928800D01*
X147300819Y-102976419D01*
X147348438Y-103071657D01*
X147396057Y-103262133D01*
X147396057Y-103500228D01*
X147348438Y-103690704D01*
X147300819Y-103785942D01*
X147253200Y-103833561D01*
X147157961Y-103881180D01*
X147062723Y-103881180D01*
X146967485Y-103833561D01*
X146919866Y-103785942D01*
X146872247Y-103690704D01*
X146824628Y-103500228D01*
X146824628Y-103262133D01*
X146872247Y-103071657D01*
X146919866Y-102976419D01*
X146967485Y-102928800D01*
X147062723Y-102881180D01*
X174516019Y-94654666D02*
X174992209Y-94654666D01*
X174420780Y-94940380D02*
X174754114Y-93940380D01*
X175087447Y-94940380D01*
X175420780Y-94940380D02*
X175420780Y-93940380D01*
X175658876Y-93940380D01*
X175801733Y-93988000D01*
X175896971Y-94083238D01*
X175944590Y-94178476D01*
X175992209Y-94368952D01*
X175992209Y-94511809D01*
X175944590Y-94702285D01*
X175896971Y-94797523D01*
X175801733Y-94892761D01*
X175658876Y-94940380D01*
X175420780Y-94940380D01*
X176992209Y-94845142D02*
X176944590Y-94892761D01*
X176801733Y-94940380D01*
X176706495Y-94940380D01*
X176563638Y-94892761D01*
X176468400Y-94797523D01*
X176420780Y-94702285D01*
X176373161Y-94511809D01*
X176373161Y-94368952D01*
X176420780Y-94178476D01*
X176468400Y-94083238D01*
X176563638Y-93988000D01*
X176706495Y-93940380D01*
X176801733Y-93940380D01*
X176944590Y-93988000D01*
X176992209Y-94035619D01*
X177373161Y-94035619D02*
X177420780Y-93988000D01*
X177516019Y-93940380D01*
X177754114Y-93940380D01*
X177849352Y-93988000D01*
X177896971Y-94035619D01*
X177944590Y-94130857D01*
X177944590Y-94226095D01*
X177896971Y-94368952D01*
X177325542Y-94940380D01*
X177944590Y-94940380D01*
X178801733Y-94273714D02*
X178801733Y-94940380D01*
X178563638Y-93892761D02*
X178325542Y-94607047D01*
X178944590Y-94607047D01*
X180087447Y-94940380D02*
X180087447Y-93940380D01*
X180563638Y-94273714D02*
X180563638Y-94940380D01*
X180563638Y-94368952D02*
X180611257Y-94321333D01*
X180706495Y-94273714D01*
X180849352Y-94273714D01*
X180944590Y-94321333D01*
X180992209Y-94416571D01*
X180992209Y-94940380D01*
X181468400Y-94273714D02*
X181468400Y-95273714D01*
X181468400Y-94321333D02*
X181563638Y-94273714D01*
X181754114Y-94273714D01*
X181849352Y-94321333D01*
X181896971Y-94368952D01*
X181944590Y-94464190D01*
X181944590Y-94749904D01*
X181896971Y-94845142D01*
X181849352Y-94892761D01*
X181754114Y-94940380D01*
X181563638Y-94940380D01*
X181468400Y-94892761D01*
X182801733Y-94273714D02*
X182801733Y-94940380D01*
X182373161Y-94273714D02*
X182373161Y-94797523D01*
X182420780Y-94892761D01*
X182516019Y-94940380D01*
X182658876Y-94940380D01*
X182754114Y-94892761D01*
X182801733Y-94845142D01*
X183135066Y-94273714D02*
X183516019Y-94273714D01*
X183277923Y-93940380D02*
X183277923Y-94797523D01*
X183325542Y-94892761D01*
X183420780Y-94940380D01*
X183516019Y-94940380D01*
D11*
X214782400Y-145288000D02*
G75*
G03*
X214782400Y-145288000I-101600J0D01*
G01*
D10*
X221592876Y-175728380D02*
X221592876Y-176442666D01*
X221545257Y-176585523D01*
X221450019Y-176680761D01*
X221307161Y-176728380D01*
X221211923Y-176728380D01*
X222021447Y-175823619D02*
X222069066Y-175776000D01*
X222164304Y-175728380D01*
X222402400Y-175728380D01*
X222497638Y-175776000D01*
X222545257Y-175823619D01*
X222592876Y-175918857D01*
X222592876Y-176014095D01*
X222545257Y-176156952D01*
X221973828Y-176728380D01*
X222592876Y-176728380D01*
X223497638Y-175728380D02*
X223021447Y-175728380D01*
X222973828Y-176204571D01*
X223021447Y-176156952D01*
X223116685Y-176109333D01*
X223354780Y-176109333D01*
X223450019Y-176156952D01*
X223497638Y-176204571D01*
X223545257Y-176299809D01*
X223545257Y-176537904D01*
X223497638Y-176633142D01*
X223450019Y-176680761D01*
X223354780Y-176728380D01*
X223116685Y-176728380D01*
X223021447Y-176680761D01*
X222973828Y-176633142D01*
X161337714Y-186901200D02*
X161242476Y-186853580D01*
X161099619Y-186853580D01*
X160956761Y-186901200D01*
X160861523Y-186996438D01*
X160813904Y-187091676D01*
X160766285Y-187282152D01*
X160766285Y-187425009D01*
X160813904Y-187615485D01*
X160861523Y-187710723D01*
X160956761Y-187805961D01*
X161099619Y-187853580D01*
X161194857Y-187853580D01*
X161337714Y-187805961D01*
X161385333Y-187758342D01*
X161385333Y-187425009D01*
X161194857Y-187425009D01*
X161813904Y-187853580D02*
X161813904Y-186853580D01*
X162194857Y-186853580D01*
X162290095Y-186901200D01*
X162337714Y-186948819D01*
X162385333Y-187044057D01*
X162385333Y-187186914D01*
X162337714Y-187282152D01*
X162290095Y-187329771D01*
X162194857Y-187377390D01*
X161813904Y-187377390D01*
X162766285Y-187805961D02*
X162909142Y-187853580D01*
X163147238Y-187853580D01*
X163242476Y-187805961D01*
X163290095Y-187758342D01*
X163337714Y-187663104D01*
X163337714Y-187567866D01*
X163290095Y-187472628D01*
X163242476Y-187425009D01*
X163147238Y-187377390D01*
X162956761Y-187329771D01*
X162861523Y-187282152D01*
X162813904Y-187234533D01*
X162766285Y-187139295D01*
X162766285Y-187044057D01*
X162813904Y-186948819D01*
X162861523Y-186901200D01*
X162956761Y-186853580D01*
X163194857Y-186853580D01*
X163337714Y-186901200D01*
X154157657Y-189631580D02*
X154157657Y-188631580D01*
X154633847Y-189631580D02*
X154633847Y-188964914D01*
X154633847Y-189155390D02*
X154681466Y-189060152D01*
X154729085Y-189012533D01*
X154824323Y-188964914D01*
X154919561Y-188964914D01*
X155252895Y-189631580D02*
X155252895Y-188964914D01*
X155252895Y-188631580D02*
X155205276Y-188679200D01*
X155252895Y-188726819D01*
X155300514Y-188679200D01*
X155252895Y-188631580D01*
X155252895Y-188726819D01*
X156157657Y-189631580D02*
X156157657Y-188631580D01*
X156157657Y-189583961D02*
X156062419Y-189631580D01*
X155871942Y-189631580D01*
X155776704Y-189583961D01*
X155729085Y-189536342D01*
X155681466Y-189441104D01*
X155681466Y-189155390D01*
X155729085Y-189060152D01*
X155776704Y-189012533D01*
X155871942Y-188964914D01*
X156062419Y-188964914D01*
X156157657Y-189012533D01*
X156633847Y-189631580D02*
X156633847Y-188964914D01*
X156633847Y-188631580D02*
X156586228Y-188679200D01*
X156633847Y-188726819D01*
X156681466Y-188679200D01*
X156633847Y-188631580D01*
X156633847Y-188726819D01*
X157538609Y-188964914D02*
X157538609Y-189631580D01*
X157110038Y-188964914D02*
X157110038Y-189488723D01*
X157157657Y-189583961D01*
X157252895Y-189631580D01*
X157395752Y-189631580D01*
X157490990Y-189583961D01*
X157538609Y-189536342D01*
X158014800Y-189631580D02*
X158014800Y-188964914D01*
X158014800Y-189060152D02*
X158062419Y-189012533D01*
X158157657Y-188964914D01*
X158300514Y-188964914D01*
X158395752Y-189012533D01*
X158443371Y-189107771D01*
X158443371Y-189631580D01*
X158443371Y-189107771D02*
X158490990Y-189012533D01*
X158586228Y-188964914D01*
X158729085Y-188964914D01*
X158824323Y-189012533D01*
X158871942Y-189107771D01*
X158871942Y-189631580D01*
D12*
X160375600Y-178206400D02*
X160172400Y-178206400D01*
X160172400Y-178104800D02*
X160375600Y-178206400D01*
X160528000Y-178155600D02*
X160172400Y-178409600D01*
X160121600Y-178003200D02*
X160477200Y-178155600D01*
X160172400Y-178409600D02*
X160070800Y-178003200D01*
X161696400Y-175056800D02*
X160172400Y-178409600D01*
D11*
X141200914Y-153151257D02*
X141272342Y-153222685D01*
X141343771Y-153436971D01*
X141343771Y-153579828D01*
X141272342Y-153794114D01*
X141129485Y-153936971D01*
X140986628Y-154008400D01*
X140700914Y-154079828D01*
X140486628Y-154079828D01*
X140200914Y-154008400D01*
X140058057Y-153936971D01*
X139915200Y-153794114D01*
X139843771Y-153579828D01*
X139843771Y-153436971D01*
X139915200Y-153222685D01*
X139986628Y-153151257D01*
X139843771Y-152222685D02*
X139843771Y-151936971D01*
X139915200Y-151794114D01*
X140058057Y-151651257D01*
X140343771Y-151579828D01*
X140843771Y-151579828D01*
X141129485Y-151651257D01*
X141272342Y-151794114D01*
X141343771Y-151936971D01*
X141343771Y-152222685D01*
X141272342Y-152365542D01*
X141129485Y-152508400D01*
X140843771Y-152579828D01*
X140343771Y-152579828D01*
X140058057Y-152508400D01*
X139915200Y-152365542D01*
X139843771Y-152222685D01*
X141343771Y-150936971D02*
X139843771Y-150936971D01*
X140915200Y-150436971D01*
X139843771Y-149936971D01*
X141343771Y-149936971D01*
X139843771Y-148936971D02*
X139843771Y-148794114D01*
X139915200Y-148651257D01*
X139986628Y-148579828D01*
X140129485Y-148508400D01*
X140415200Y-148436971D01*
X140772342Y-148436971D01*
X141058057Y-148508400D01*
X141200914Y-148579828D01*
X141272342Y-148651257D01*
X141343771Y-148794114D01*
X141343771Y-148936971D01*
X141272342Y-149079828D01*
X141200914Y-149151257D01*
X141058057Y-149222685D01*
X140772342Y-149294114D01*
X140415200Y-149294114D01*
X140129485Y-149222685D01*
X139986628Y-149151257D01*
X139915200Y-149079828D01*
X139843771Y-148936971D01*
X139772342Y-146722685D02*
X141700914Y-148008400D01*
X141343771Y-145436971D02*
X141343771Y-146294114D01*
X141343771Y-145865542D02*
X139843771Y-145865542D01*
X140058057Y-146008400D01*
X140200914Y-146151257D01*
X140272342Y-146294114D01*
X143740914Y-136590457D02*
X143812342Y-136661885D01*
X143883771Y-136876171D01*
X143883771Y-137019028D01*
X143812342Y-137233314D01*
X143669485Y-137376171D01*
X143526628Y-137447600D01*
X143240914Y-137519028D01*
X143026628Y-137519028D01*
X142740914Y-137447600D01*
X142598057Y-137376171D01*
X142455200Y-137233314D01*
X142383771Y-137019028D01*
X142383771Y-136876171D01*
X142455200Y-136661885D01*
X142526628Y-136590457D01*
X142383771Y-135661885D02*
X142383771Y-135376171D01*
X142455200Y-135233314D01*
X142598057Y-135090457D01*
X142883771Y-135019028D01*
X143383771Y-135019028D01*
X143669485Y-135090457D01*
X143812342Y-135233314D01*
X143883771Y-135376171D01*
X143883771Y-135661885D01*
X143812342Y-135804742D01*
X143669485Y-135947600D01*
X143383771Y-136019028D01*
X142883771Y-136019028D01*
X142598057Y-135947600D01*
X142455200Y-135804742D01*
X142383771Y-135661885D01*
X143883771Y-134376171D02*
X142383771Y-134376171D01*
X143455200Y-133876171D01*
X142383771Y-133376171D01*
X143883771Y-133376171D01*
X142526628Y-132733314D02*
X142455200Y-132661885D01*
X142383771Y-132519028D01*
X142383771Y-132161885D01*
X142455200Y-132019028D01*
X142526628Y-131947600D01*
X142669485Y-131876171D01*
X142812342Y-131876171D01*
X143026628Y-131947600D01*
X143883771Y-132804742D01*
X143883771Y-131876171D01*
X142312342Y-130161885D02*
X144240914Y-131447600D01*
X142383771Y-129804742D02*
X142383771Y-128876171D01*
X142955200Y-129376171D01*
X142955200Y-129161885D01*
X143026628Y-129019028D01*
X143098057Y-128947600D01*
X143240914Y-128876171D01*
X143598057Y-128876171D01*
X143740914Y-128947600D01*
X143812342Y-129019028D01*
X143883771Y-129161885D01*
X143883771Y-129590457D01*
X143812342Y-129733314D01*
X143740914Y-129804742D01*
X175093028Y-159276171D02*
X174378742Y-159276171D01*
X174378742Y-157776171D01*
X176450171Y-159133314D02*
X176378742Y-159204742D01*
X176164457Y-159276171D01*
X176021600Y-159276171D01*
X175807314Y-159204742D01*
X175664457Y-159061885D01*
X175593028Y-158919028D01*
X175521600Y-158633314D01*
X175521600Y-158419028D01*
X175593028Y-158133314D01*
X175664457Y-157990457D01*
X175807314Y-157847600D01*
X176021600Y-157776171D01*
X176164457Y-157776171D01*
X176378742Y-157847600D01*
X176450171Y-157919028D01*
X177093028Y-159276171D02*
X177093028Y-157776171D01*
X177664457Y-157776171D01*
X177807314Y-157847600D01*
X177878742Y-157919028D01*
X177950171Y-158061885D01*
X177950171Y-158276171D01*
X177878742Y-158419028D01*
X177807314Y-158490457D01*
X177664457Y-158561885D01*
X177093028Y-158561885D01*
X180593028Y-159133314D02*
X180521600Y-159204742D01*
X180307314Y-159276171D01*
X180164457Y-159276171D01*
X179950171Y-159204742D01*
X179807314Y-159061885D01*
X179735885Y-158919028D01*
X179664457Y-158633314D01*
X179664457Y-158419028D01*
X179735885Y-158133314D01*
X179807314Y-157990457D01*
X179950171Y-157847600D01*
X180164457Y-157776171D01*
X180307314Y-157776171D01*
X180521600Y-157847600D01*
X180593028Y-157919028D01*
X181450171Y-159276171D02*
X181307314Y-159204742D01*
X181235885Y-159133314D01*
X181164457Y-158990457D01*
X181164457Y-158561885D01*
X181235885Y-158419028D01*
X181307314Y-158347600D01*
X181450171Y-158276171D01*
X181664457Y-158276171D01*
X181807314Y-158347600D01*
X181878742Y-158419028D01*
X181950171Y-158561885D01*
X181950171Y-158990457D01*
X181878742Y-159133314D01*
X181807314Y-159204742D01*
X181664457Y-159276171D01*
X181450171Y-159276171D01*
X182593028Y-158276171D02*
X182593028Y-159276171D01*
X182593028Y-158419028D02*
X182664457Y-158347600D01*
X182807314Y-158276171D01*
X183021600Y-158276171D01*
X183164457Y-158347600D01*
X183235885Y-158490457D01*
X183235885Y-159276171D01*
X183735885Y-158276171D02*
X184307314Y-158276171D01*
X183950171Y-157776171D02*
X183950171Y-159061885D01*
X184021600Y-159204742D01*
X184164457Y-159276171D01*
X184307314Y-159276171D01*
X184807314Y-159276171D02*
X184807314Y-158276171D01*
X184807314Y-158561885D02*
X184878742Y-158419028D01*
X184950171Y-158347600D01*
X185093028Y-158276171D01*
X185235885Y-158276171D01*
X185950171Y-159276171D02*
X185807314Y-159204742D01*
X185735885Y-159133314D01*
X185664457Y-158990457D01*
X185664457Y-158561885D01*
X185735885Y-158419028D01*
X185807314Y-158347600D01*
X185950171Y-158276171D01*
X186164457Y-158276171D01*
X186307314Y-158347600D01*
X186378742Y-158419028D01*
X186450171Y-158561885D01*
X186450171Y-158990457D01*
X186378742Y-159133314D01*
X186307314Y-159204742D01*
X186164457Y-159276171D01*
X185950171Y-159276171D01*
X187307314Y-159276171D02*
X187164457Y-159204742D01*
X187093028Y-159061885D01*
X187093028Y-157776171D01*
X188093028Y-159276171D02*
X187950171Y-159204742D01*
X187878742Y-159061885D01*
X187878742Y-157776171D01*
X189235885Y-159204742D02*
X189093028Y-159276171D01*
X188807314Y-159276171D01*
X188664457Y-159204742D01*
X188593028Y-159061885D01*
X188593028Y-158490457D01*
X188664457Y-158347600D01*
X188807314Y-158276171D01*
X189093028Y-158276171D01*
X189235885Y-158347600D01*
X189307314Y-158490457D01*
X189307314Y-158633314D01*
X188593028Y-158776171D01*
X189950171Y-159276171D02*
X189950171Y-158276171D01*
X189950171Y-158561885D02*
X190021600Y-158419028D01*
X190093028Y-158347600D01*
X190235885Y-158276171D01*
X190378742Y-158276171D01*
X192878742Y-159276171D02*
X192378742Y-158561885D01*
X192021600Y-159276171D02*
X192021600Y-157776171D01*
X192593028Y-157776171D01*
X192735885Y-157847600D01*
X192807314Y-157919028D01*
X192878742Y-158061885D01*
X192878742Y-158276171D01*
X192807314Y-158419028D01*
X192735885Y-158490457D01*
X192593028Y-158561885D01*
X192021600Y-158561885D01*
X194093028Y-159204742D02*
X193950171Y-159276171D01*
X193664457Y-159276171D01*
X193521600Y-159204742D01*
X193450171Y-159061885D01*
X193450171Y-158490457D01*
X193521600Y-158347600D01*
X193664457Y-158276171D01*
X193950171Y-158276171D01*
X194093028Y-158347600D01*
X194164457Y-158490457D01*
X194164457Y-158633314D01*
X193450171Y-158776171D01*
X194664457Y-158276171D02*
X195021600Y-159276171D01*
X195378742Y-158276171D01*
X196735885Y-159276171D02*
X195878742Y-159276171D01*
X196307314Y-159276171D02*
X196307314Y-157776171D01*
X196164457Y-157990457D01*
X196021600Y-158133314D01*
X195878742Y-158204742D01*
D12*
X151803100Y-150202900D02*
X141643100Y-150202900D01*
D10*
X152055580Y-153741238D02*
X152865104Y-153741238D01*
X152960342Y-153693619D01*
X153007961Y-153646000D01*
X153055580Y-153550761D01*
X153055580Y-153360285D01*
X153007961Y-153265047D01*
X152960342Y-153217428D01*
X152865104Y-153169809D01*
X152055580Y-153169809D01*
X152769866Y-152741238D02*
X152769866Y-152265047D01*
X153055580Y-152836476D02*
X152055580Y-152503142D01*
X153055580Y-152169809D01*
X153055580Y-151265047D02*
X152579390Y-151598380D01*
X153055580Y-151836476D02*
X152055580Y-151836476D01*
X152055580Y-151455523D01*
X152103200Y-151360285D01*
X152150819Y-151312666D01*
X152246057Y-151265047D01*
X152388914Y-151265047D01*
X152484152Y-151312666D01*
X152531771Y-151360285D01*
X152579390Y-151455523D01*
X152579390Y-151836476D01*
X152055580Y-150979333D02*
X152055580Y-150407904D01*
X153055580Y-150693619D02*
X152055580Y-150693619D01*
X153106380Y-149016838D02*
X152630190Y-149350171D01*
X153106380Y-149588266D02*
X152106380Y-149588266D01*
X152106380Y-149207314D01*
X152154000Y-149112076D01*
X152201619Y-149064457D01*
X152296857Y-149016838D01*
X152439714Y-149016838D01*
X152534952Y-149064457D01*
X152582571Y-149112076D01*
X152630190Y-149207314D01*
X152630190Y-149588266D01*
X153058761Y-148635885D02*
X153106380Y-148493028D01*
X153106380Y-148254933D01*
X153058761Y-148159695D01*
X153011142Y-148112076D01*
X152915904Y-148064457D01*
X152820666Y-148064457D01*
X152725428Y-148112076D01*
X152677809Y-148159695D01*
X152630190Y-148254933D01*
X152582571Y-148445409D01*
X152534952Y-148540647D01*
X152487333Y-148588266D01*
X152392095Y-148635885D01*
X152296857Y-148635885D01*
X152201619Y-148588266D01*
X152154000Y-148540647D01*
X152106380Y-148445409D01*
X152106380Y-148207314D01*
X152154000Y-148064457D01*
X152201619Y-147683504D02*
X152154000Y-147635885D01*
X152106380Y-147540647D01*
X152106380Y-147302552D01*
X152154000Y-147207314D01*
X152201619Y-147159695D01*
X152296857Y-147112076D01*
X152392095Y-147112076D01*
X152534952Y-147159695D01*
X153106380Y-147731123D01*
X153106380Y-147112076D01*
X152106380Y-146778742D02*
X152106380Y-146159695D01*
X152487333Y-146493028D01*
X152487333Y-146350171D01*
X152534952Y-146254933D01*
X152582571Y-146207314D01*
X152677809Y-146159695D01*
X152915904Y-146159695D01*
X153011142Y-146207314D01*
X153058761Y-146254933D01*
X153106380Y-146350171D01*
X153106380Y-146635885D01*
X153058761Y-146731123D01*
X153011142Y-146778742D01*
X152201619Y-145778742D02*
X152154000Y-145731123D01*
X152106380Y-145635885D01*
X152106380Y-145397790D01*
X152154000Y-145302552D01*
X152201619Y-145254933D01*
X152296857Y-145207314D01*
X152392095Y-145207314D01*
X152534952Y-145254933D01*
X153106380Y-145826361D01*
X153106380Y-145207314D01*
D12*
X151803100Y-154393900D02*
X151803100Y-150202900D01*
X141643100Y-154393900D02*
X151803100Y-154393900D01*
X141643100Y-150202900D02*
X141643100Y-154393900D01*
X142240000Y-149606000D02*
X142240000Y-145669000D01*
X151701500Y-149593300D02*
X142240000Y-149593300D01*
X151701500Y-145656300D02*
X151701500Y-149593300D01*
X142189200Y-145656300D02*
X151701500Y-145656300D01*
D10*
X145826361Y-136647180D02*
X145493028Y-136170990D01*
X145254933Y-136647180D02*
X145254933Y-135647180D01*
X145635885Y-135647180D01*
X145731123Y-135694800D01*
X145778742Y-135742419D01*
X145826361Y-135837657D01*
X145826361Y-135980514D01*
X145778742Y-136075752D01*
X145731123Y-136123371D01*
X145635885Y-136170990D01*
X145254933Y-136170990D01*
X146207314Y-136599561D02*
X146350171Y-136647180D01*
X146588266Y-136647180D01*
X146683504Y-136599561D01*
X146731123Y-136551942D01*
X146778742Y-136456704D01*
X146778742Y-136361466D01*
X146731123Y-136266228D01*
X146683504Y-136218609D01*
X146588266Y-136170990D01*
X146397790Y-136123371D01*
X146302552Y-136075752D01*
X146254933Y-136028133D01*
X146207314Y-135932895D01*
X146207314Y-135837657D01*
X146254933Y-135742419D01*
X146302552Y-135694800D01*
X146397790Y-135647180D01*
X146635885Y-135647180D01*
X146778742Y-135694800D01*
X147635885Y-135980514D02*
X147635885Y-136647180D01*
X147397790Y-135599561D02*
X147159695Y-136313847D01*
X147778742Y-136313847D01*
X148302552Y-136075752D02*
X148207314Y-136028133D01*
X148159695Y-135980514D01*
X148112076Y-135885276D01*
X148112076Y-135837657D01*
X148159695Y-135742419D01*
X148207314Y-135694800D01*
X148302552Y-135647180D01*
X148493028Y-135647180D01*
X148588266Y-135694800D01*
X148635885Y-135742419D01*
X148683504Y-135837657D01*
X148683504Y-135885276D01*
X148635885Y-135980514D01*
X148588266Y-136028133D01*
X148493028Y-136075752D01*
X148302552Y-136075752D01*
X148207314Y-136123371D01*
X148159695Y-136170990D01*
X148112076Y-136266228D01*
X148112076Y-136456704D01*
X148159695Y-136551942D01*
X148207314Y-136599561D01*
X148302552Y-136647180D01*
X148493028Y-136647180D01*
X148588266Y-136599561D01*
X148635885Y-136551942D01*
X148683504Y-136456704D01*
X148683504Y-136266228D01*
X148635885Y-136170990D01*
X148588266Y-136123371D01*
X148493028Y-136075752D01*
X149588266Y-135647180D02*
X149112076Y-135647180D01*
X149064457Y-136123371D01*
X149112076Y-136075752D01*
X149207314Y-136028133D01*
X149445409Y-136028133D01*
X149540647Y-136075752D01*
X149588266Y-136123371D01*
X149635885Y-136218609D01*
X149635885Y-136456704D01*
X149588266Y-136551942D01*
X149540647Y-136599561D01*
X149445409Y-136647180D01*
X149207314Y-136647180D01*
X149112076Y-136599561D01*
X149064457Y-136551942D01*
X146181961Y-131262380D02*
X145848628Y-130786190D01*
X145610533Y-131262380D02*
X145610533Y-130262380D01*
X145991485Y-130262380D01*
X146086723Y-130310000D01*
X146134342Y-130357619D01*
X146181961Y-130452857D01*
X146181961Y-130595714D01*
X146134342Y-130690952D01*
X146086723Y-130738571D01*
X145991485Y-130786190D01*
X145610533Y-130786190D01*
X146562914Y-131214761D02*
X146705771Y-131262380D01*
X146943866Y-131262380D01*
X147039104Y-131214761D01*
X147086723Y-131167142D01*
X147134342Y-131071904D01*
X147134342Y-130976666D01*
X147086723Y-130881428D01*
X147039104Y-130833809D01*
X146943866Y-130786190D01*
X146753390Y-130738571D01*
X146658152Y-130690952D01*
X146610533Y-130643333D01*
X146562914Y-130548095D01*
X146562914Y-130452857D01*
X146610533Y-130357619D01*
X146658152Y-130310000D01*
X146753390Y-130262380D01*
X146991485Y-130262380D01*
X147134342Y-130310000D01*
X147515295Y-130357619D02*
X147562914Y-130310000D01*
X147658152Y-130262380D01*
X147896247Y-130262380D01*
X147991485Y-130310000D01*
X148039104Y-130357619D01*
X148086723Y-130452857D01*
X148086723Y-130548095D01*
X148039104Y-130690952D01*
X147467676Y-131262380D01*
X148086723Y-131262380D01*
X148420057Y-130262380D02*
X149039104Y-130262380D01*
X148705771Y-130643333D01*
X148848628Y-130643333D01*
X148943866Y-130690952D01*
X148991485Y-130738571D01*
X149039104Y-130833809D01*
X149039104Y-131071904D01*
X148991485Y-131167142D01*
X148943866Y-131214761D01*
X148848628Y-131262380D01*
X148562914Y-131262380D01*
X148467676Y-131214761D01*
X148420057Y-131167142D01*
X149420057Y-130357619D02*
X149467676Y-130310000D01*
X149562914Y-130262380D01*
X149801009Y-130262380D01*
X149896247Y-130310000D01*
X149943866Y-130357619D01*
X149991485Y-130452857D01*
X149991485Y-130548095D01*
X149943866Y-130690952D01*
X149372438Y-131262380D01*
X149991485Y-131262380D01*
X154595580Y-129408038D02*
X155405104Y-129408038D01*
X155500342Y-129360419D01*
X155547961Y-129312800D01*
X155595580Y-129217561D01*
X155595580Y-129027085D01*
X155547961Y-128931847D01*
X155500342Y-128884228D01*
X155405104Y-128836609D01*
X154595580Y-128836609D01*
X155309866Y-128408038D02*
X155309866Y-127931847D01*
X155595580Y-128503276D02*
X154595580Y-128169942D01*
X155595580Y-127836609D01*
X155595580Y-126931847D02*
X155119390Y-127265180D01*
X155595580Y-127503276D02*
X154595580Y-127503276D01*
X154595580Y-127122323D01*
X154643200Y-127027085D01*
X154690819Y-126979466D01*
X154786057Y-126931847D01*
X154928914Y-126931847D01*
X155024152Y-126979466D01*
X155071771Y-127027085D01*
X155119390Y-127122323D01*
X155119390Y-127503276D01*
X154595580Y-126646133D02*
X154595580Y-126074704D01*
X155595580Y-126360419D02*
X154595580Y-126360419D01*
D12*
X144881600Y-141122400D02*
X144881600Y-135382000D01*
X153974800Y-141122400D02*
X144881600Y-141122400D01*
X153949400Y-135382000D02*
X153974800Y-141122400D01*
X144881600Y-135382000D02*
X154127200Y-135382000D01*
X145186400Y-135382000D02*
X145186400Y-129946400D01*
X153949400Y-135382000D02*
X145186400Y-135382000D01*
X153924000Y-129895600D02*
X153949400Y-135382000D01*
X145288000Y-129946400D02*
X154051000Y-129921000D01*
X145745200Y-129895600D02*
X145745200Y-125450600D01*
X153924000Y-129895600D02*
X145745200Y-129895600D01*
X153924000Y-125450600D02*
X153924000Y-130530600D01*
X145745200Y-125450600D02*
X153924000Y-125450600D01*
D10*
X200180400Y-192024000D02*
G75*
G03*
X200180400Y-192024000I-1400000J0D01*
G01*
D12*
X149939148Y-123369400D02*
X150461652Y-123369400D01*
X149939148Y-124839400D02*
X150461652Y-124839400D01*
X210950000Y-146980000D02*
X211750000Y-146980000D01*
X210950000Y-148820000D02*
X211750000Y-148820000D01*
X182753902Y-116715800D02*
X182753902Y-117515800D01*
X182353902Y-117115800D02*
X183153902Y-117115800D01*
X190844600Y-118897800D02*
X190844600Y-119963800D01*
X190804600Y-118662800D02*
X190804600Y-120198800D01*
X190764600Y-118482800D02*
X190764600Y-120378800D01*
X190724600Y-118332800D02*
X190724600Y-120528800D01*
X190684600Y-118201800D02*
X190684600Y-120659800D01*
X190644600Y-118084800D02*
X190644600Y-120776800D01*
X190604600Y-117977800D02*
X190604600Y-120883800D01*
X190564600Y-117878800D02*
X190564600Y-120982800D01*
X190524600Y-117785800D02*
X190524600Y-121075800D01*
X190484600Y-117699800D02*
X190484600Y-121161800D01*
X190444600Y-117617800D02*
X190444600Y-121243800D01*
X190404600Y-117540800D02*
X190404600Y-121320800D01*
X190364600Y-117466800D02*
X190364600Y-121394800D01*
X190324600Y-117396800D02*
X190324600Y-121464800D01*
X190284600Y-117328800D02*
X190284600Y-121532800D01*
X190244600Y-117264800D02*
X190244600Y-121596800D01*
X190204600Y-117202800D02*
X190204600Y-121658800D01*
X190164600Y-117143800D02*
X190164600Y-121717800D01*
X190124600Y-117085800D02*
X190124600Y-121775800D01*
X190084600Y-117030800D02*
X190084600Y-121830800D01*
X190044600Y-116976800D02*
X190044600Y-121884800D01*
X190004600Y-116925800D02*
X190004600Y-121935800D01*
X189964600Y-116874800D02*
X189964600Y-121986800D01*
X189924600Y-116826800D02*
X189924600Y-122034800D01*
X189884600Y-116779800D02*
X189884600Y-122081800D01*
X189844600Y-116733800D02*
X189844600Y-122127800D01*
X189804600Y-116689800D02*
X189804600Y-122171800D01*
X189764600Y-116646800D02*
X189764600Y-122214800D01*
X189724600Y-116604800D02*
X189724600Y-122256800D01*
X189684600Y-116563800D02*
X189684600Y-122297800D01*
X189644600Y-116523800D02*
X189644600Y-122337800D01*
X189604600Y-116485800D02*
X189604600Y-122375800D01*
X189564600Y-116447800D02*
X189564600Y-122413800D01*
X189524600Y-120470800D02*
X189524600Y-122449800D01*
X189524600Y-116411800D02*
X189524600Y-118390800D01*
X189484600Y-120470800D02*
X189484600Y-122485800D01*
X189484600Y-116375800D02*
X189484600Y-118390800D01*
X189444600Y-120470800D02*
X189444600Y-122520800D01*
X189444600Y-116340800D02*
X189444600Y-118390800D01*
X189404600Y-120470800D02*
X189404600Y-122554800D01*
X189404600Y-116306800D02*
X189404600Y-118390800D01*
X189364600Y-120470800D02*
X189364600Y-122586800D01*
X189364600Y-116274800D02*
X189364600Y-118390800D01*
X189324600Y-120470800D02*
X189324600Y-122619800D01*
X189324600Y-116241800D02*
X189324600Y-118390800D01*
X189284600Y-120470800D02*
X189284600Y-122650800D01*
X189284600Y-116210800D02*
X189284600Y-118390800D01*
X189244600Y-120470800D02*
X189244600Y-122680800D01*
X189244600Y-116180800D02*
X189244600Y-118390800D01*
X189204600Y-120470800D02*
X189204600Y-122710800D01*
X189204600Y-116150800D02*
X189204600Y-118390800D01*
X189164600Y-120470800D02*
X189164600Y-122739800D01*
X189164600Y-116121800D02*
X189164600Y-118390800D01*
X189124600Y-120470800D02*
X189124600Y-122768800D01*
X189124600Y-116092800D02*
X189124600Y-118390800D01*
X189084600Y-120470800D02*
X189084600Y-122795800D01*
X189084600Y-116065800D02*
X189084600Y-118390800D01*
X189044600Y-120470800D02*
X189044600Y-122822800D01*
X189044600Y-116038800D02*
X189044600Y-118390800D01*
X189004600Y-120470800D02*
X189004600Y-122848800D01*
X189004600Y-116012800D02*
X189004600Y-118390800D01*
X188964600Y-120470800D02*
X188964600Y-122874800D01*
X188964600Y-115986800D02*
X188964600Y-118390800D01*
X188924600Y-120470800D02*
X188924600Y-122899800D01*
X188924600Y-115961800D02*
X188924600Y-118390800D01*
X188884600Y-120470800D02*
X188884600Y-122923800D01*
X188884600Y-115937800D02*
X188884600Y-118390800D01*
X188844600Y-120470800D02*
X188844600Y-122947800D01*
X188844600Y-115913800D02*
X188844600Y-118390800D01*
X188804600Y-120470800D02*
X188804600Y-122970800D01*
X188804600Y-115890800D02*
X188804600Y-118390800D01*
X188764600Y-120470800D02*
X188764600Y-122992800D01*
X188764600Y-115868800D02*
X188764600Y-118390800D01*
X188724600Y-120470800D02*
X188724600Y-123014800D01*
X188724600Y-115846800D02*
X188724600Y-118390800D01*
X188684600Y-120470800D02*
X188684600Y-123036800D01*
X188684600Y-115824800D02*
X188684600Y-118390800D01*
X188644600Y-120470800D02*
X188644600Y-123057800D01*
X188644600Y-115803800D02*
X188644600Y-118390800D01*
X188604600Y-120470800D02*
X188604600Y-123077800D01*
X188604600Y-115783800D02*
X188604600Y-118390800D01*
X188564600Y-120470800D02*
X188564600Y-123096800D01*
X188564600Y-115764800D02*
X188564600Y-118390800D01*
X188524600Y-120470800D02*
X188524600Y-123116800D01*
X188524600Y-115744800D02*
X188524600Y-118390800D01*
X188484600Y-120470800D02*
X188484600Y-123134800D01*
X188484600Y-115726800D02*
X188484600Y-118390800D01*
X188444600Y-120470800D02*
X188444600Y-123152800D01*
X188444600Y-115708800D02*
X188444600Y-118390800D01*
X188404600Y-120470800D02*
X188404600Y-123170800D01*
X188404600Y-115690800D02*
X188404600Y-118390800D01*
X188364600Y-120470800D02*
X188364600Y-123187800D01*
X188364600Y-115673800D02*
X188364600Y-118390800D01*
X188324600Y-120470800D02*
X188324600Y-123204800D01*
X188324600Y-115656800D02*
X188324600Y-118390800D01*
X188284600Y-120470800D02*
X188284600Y-123220800D01*
X188284600Y-115640800D02*
X188284600Y-118390800D01*
X188244600Y-120470800D02*
X188244600Y-123235800D01*
X188244600Y-115625800D02*
X188244600Y-118390800D01*
X188204600Y-120470800D02*
X188204600Y-123251800D01*
X188204600Y-115609800D02*
X188204600Y-118390800D01*
X188164600Y-120470800D02*
X188164600Y-123265800D01*
X188164600Y-115595800D02*
X188164600Y-118390800D01*
X188124600Y-120470800D02*
X188124600Y-123280800D01*
X188124600Y-115580800D02*
X188124600Y-118390800D01*
X188084600Y-120470800D02*
X188084600Y-123293800D01*
X188084600Y-115567800D02*
X188084600Y-118390800D01*
X188044600Y-120470800D02*
X188044600Y-123307800D01*
X188044600Y-115553800D02*
X188044600Y-118390800D01*
X188004600Y-120470800D02*
X188004600Y-123319800D01*
X188004600Y-115541800D02*
X188004600Y-118390800D01*
X187964600Y-120470800D02*
X187964600Y-123332800D01*
X187964600Y-115528800D02*
X187964600Y-118390800D01*
X187924600Y-120470800D02*
X187924600Y-123344800D01*
X187924600Y-115516800D02*
X187924600Y-118390800D01*
X187884600Y-120470800D02*
X187884600Y-123355800D01*
X187884600Y-115505800D02*
X187884600Y-118390800D01*
X187844600Y-120470800D02*
X187844600Y-123366800D01*
X187844600Y-115494800D02*
X187844600Y-118390800D01*
X187804600Y-120470800D02*
X187804600Y-123377800D01*
X187804600Y-115483800D02*
X187804600Y-118390800D01*
X187764600Y-120470800D02*
X187764600Y-123387800D01*
X187764600Y-115473800D02*
X187764600Y-118390800D01*
X187724600Y-120470800D02*
X187724600Y-123397800D01*
X187724600Y-115463800D02*
X187724600Y-118390800D01*
X187684600Y-120470800D02*
X187684600Y-123406800D01*
X187684600Y-115454800D02*
X187684600Y-118390800D01*
X187644600Y-120470800D02*
X187644600Y-123415800D01*
X187644600Y-115445800D02*
X187644600Y-118390800D01*
X187604600Y-120470800D02*
X187604600Y-123424800D01*
X187604600Y-115436800D02*
X187604600Y-118390800D01*
X187564600Y-120470800D02*
X187564600Y-123432800D01*
X187564600Y-115428800D02*
X187564600Y-118390800D01*
X187524600Y-120470800D02*
X187524600Y-123440800D01*
X187524600Y-115420800D02*
X187524600Y-118390800D01*
X187484600Y-120470800D02*
X187484600Y-123447800D01*
X187484600Y-115413800D02*
X187484600Y-118390800D01*
X187443600Y-115406800D02*
X187443600Y-123454800D01*
X187403600Y-115400800D02*
X187403600Y-123460800D01*
X187363600Y-115393800D02*
X187363600Y-123467800D01*
X187323600Y-115388800D02*
X187323600Y-123472800D01*
X187283600Y-115382800D02*
X187283600Y-123478800D01*
X187243600Y-115378800D02*
X187243600Y-123482800D01*
X187203600Y-115373800D02*
X187203600Y-123487800D01*
X187163600Y-115369800D02*
X187163600Y-123491800D01*
X187123600Y-115365800D02*
X187123600Y-123495800D01*
X187083600Y-115362800D02*
X187083600Y-123498800D01*
X187043600Y-115359800D02*
X187043600Y-123501800D01*
X187003600Y-115356800D02*
X187003600Y-123504800D01*
X186963600Y-115354800D02*
X186963600Y-123506800D01*
X186923600Y-115353800D02*
X186923600Y-123507800D01*
X186883600Y-115351800D02*
X186883600Y-123509800D01*
X186843600Y-115350800D02*
X186843600Y-123510800D01*
X186803600Y-115350800D02*
X186803600Y-123510800D01*
X186763600Y-115350800D02*
X186763600Y-123510800D01*
X190883600Y-119430800D02*
G75*
G03*
X190883600Y-119430800I-4120000J0D01*
G01*
X220192046Y-172811297D02*
X224451637Y-175793894D01*
X224451637Y-175793894D02*
X228007811Y-170715152D01*
X228007811Y-170715152D02*
X223748220Y-167732554D01*
X223748220Y-167732554D02*
X220192046Y-172811297D01*
X221324881Y-173982956D02*
X219760300Y-172887425D01*
X219760300Y-172887425D02*
X220855831Y-171322845D01*
X223140994Y-174876172D02*
X223370424Y-174548511D01*
X223370424Y-174548511D02*
X224353407Y-175236803D01*
X224353407Y-175236803D02*
X227450719Y-170813382D01*
X227450719Y-170813382D02*
X226467737Y-170125090D01*
X226467737Y-170125090D02*
X226697167Y-169797429D01*
X222321842Y-174302596D02*
X222551272Y-173974935D01*
X222551272Y-173974935D02*
X220749138Y-172713067D01*
X220749138Y-172713067D02*
X222011006Y-170910932D01*
X222011006Y-170910932D02*
X221683345Y-170681502D01*
X225878015Y-169223853D02*
X225648585Y-169551514D01*
X225648585Y-169551514D02*
X223846450Y-168289646D01*
X223846450Y-168289646D02*
X222584582Y-170091780D01*
X222584582Y-170091780D02*
X222256921Y-169862350D01*
X133427736Y-145721400D02*
X133881864Y-145721400D01*
X133427736Y-147191400D02*
X133881864Y-147191400D01*
X132074800Y-150010400D02*
X133004800Y-150010400D01*
X135234800Y-150010400D02*
X134304800Y-150010400D01*
X135234800Y-150010400D02*
X135234800Y-147850400D01*
X132074800Y-150010400D02*
X132074800Y-148550400D01*
X165962000Y-141126000D02*
G75*
G03*
X165962000Y-141126000I-50000J0D01*
G01*
X134432000Y-125646000D02*
X167432000Y-125646000D01*
X134432000Y-157046000D02*
X134432000Y-125646000D01*
X167432000Y-157046000D02*
X134432000Y-157046000D01*
X167432000Y-125646000D02*
X167432000Y-157046000D01*
X162822000Y-142276000D02*
X162622000Y-142276000D01*
X162822000Y-142276000D02*
X162822000Y-143026000D01*
X163822000Y-143026000D02*
X162822000Y-143026000D01*
X163822000Y-142276000D02*
X163822000Y-143026000D01*
X164022000Y-142276000D02*
X163822000Y-142276000D01*
X160572000Y-136116000D02*
X160572000Y-141576000D01*
X166072000Y-136116000D02*
X166072000Y-141576000D01*
X144228400Y-152615200D02*
X143428400Y-152615200D01*
X144228400Y-150775200D02*
X143428400Y-150775200D01*
X149244000Y-152710400D02*
X148444000Y-152710400D01*
X149244000Y-150870400D02*
X148444000Y-150870400D01*
X144367200Y-147935200D02*
X143567200Y-147935200D01*
X144367200Y-146095200D02*
X143567200Y-146095200D01*
X149498000Y-147935200D02*
X148698000Y-147935200D01*
X149498000Y-146095200D02*
X148698000Y-146095200D01*
X155814800Y-139980200D02*
X155814800Y-139830200D01*
X152694800Y-139980200D02*
X155814800Y-139980200D01*
X154254800Y-136860200D02*
X155814800Y-136860200D01*
X152694800Y-139980200D02*
X152694800Y-139830200D01*
X155814800Y-136860200D02*
X155814800Y-137010200D01*
X141340400Y-138343200D02*
X141340400Y-138493200D01*
X144460400Y-138343200D02*
X141340400Y-138343200D01*
X142900400Y-141463200D02*
X141340400Y-141463200D01*
X144460400Y-138343200D02*
X144460400Y-138493200D01*
X141340400Y-141463200D02*
X141340400Y-141313200D01*
X228661030Y-116496820D02*
X226482086Y-118022534D01*
X228661030Y-116496820D02*
X221342195Y-106044440D01*
X221342195Y-106044440D02*
X219163250Y-107570153D01*
X226482086Y-118022534D02*
X219163250Y-107570153D01*
X227973384Y-120152329D02*
X227210528Y-119062857D01*
X229062857Y-119389472D02*
X227973384Y-120152329D01*
X193900000Y-95200000D02*
X193900000Y-92400000D01*
X194600000Y-91750000D02*
X195200000Y-91750000D01*
X195900000Y-92400000D02*
X195900000Y-95200000D01*
X195200000Y-95850000D02*
X194600000Y-95850000D01*
X194600000Y-95850000D02*
G75*
G02*
X193900000Y-95150000I0J700000D01*
G01*
X195900000Y-95150000D02*
G75*
G02*
X195200000Y-95850000I-700000J0D01*
G01*
X195200000Y-91750000D02*
G75*
G02*
X195900000Y-92450000I0J-700000D01*
G01*
X193900000Y-92450000D02*
G75*
G02*
X194600000Y-91750000I700000J0D01*
G01*
X208235000Y-166288748D02*
X208235000Y-166811252D01*
X206765000Y-166288748D02*
X206765000Y-166811252D01*
X173863902Y-116715800D02*
X173863902Y-117515800D01*
X173463902Y-117115800D02*
X174263902Y-117115800D01*
X181954600Y-118897800D02*
X181954600Y-119963800D01*
X181914600Y-118662800D02*
X181914600Y-120198800D01*
X181874600Y-118482800D02*
X181874600Y-120378800D01*
X181834600Y-118332800D02*
X181834600Y-120528800D01*
X181794600Y-118201800D02*
X181794600Y-120659800D01*
X181754600Y-118084800D02*
X181754600Y-120776800D01*
X181714600Y-117977800D02*
X181714600Y-120883800D01*
X181674600Y-117878800D02*
X181674600Y-120982800D01*
X181634600Y-117785800D02*
X181634600Y-121075800D01*
X181594600Y-117699800D02*
X181594600Y-121161800D01*
X181554600Y-117617800D02*
X181554600Y-121243800D01*
X181514600Y-117540800D02*
X181514600Y-121320800D01*
X181474600Y-117466800D02*
X181474600Y-121394800D01*
X181434600Y-117396800D02*
X181434600Y-121464800D01*
X181394600Y-117328800D02*
X181394600Y-121532800D01*
X181354600Y-117264800D02*
X181354600Y-121596800D01*
X181314600Y-117202800D02*
X181314600Y-121658800D01*
X181274600Y-117143800D02*
X181274600Y-121717800D01*
X181234600Y-117085800D02*
X181234600Y-121775800D01*
X181194600Y-117030800D02*
X181194600Y-121830800D01*
X181154600Y-116976800D02*
X181154600Y-121884800D01*
X181114600Y-116925800D02*
X181114600Y-121935800D01*
X181074600Y-116874800D02*
X181074600Y-121986800D01*
X181034600Y-116826800D02*
X181034600Y-122034800D01*
X180994600Y-116779800D02*
X180994600Y-122081800D01*
X180954600Y-116733800D02*
X180954600Y-122127800D01*
X180914600Y-116689800D02*
X180914600Y-122171800D01*
X180874600Y-116646800D02*
X180874600Y-122214800D01*
X180834600Y-116604800D02*
X180834600Y-122256800D01*
X180794600Y-116563800D02*
X180794600Y-122297800D01*
X180754600Y-116523800D02*
X180754600Y-122337800D01*
X180714600Y-116485800D02*
X180714600Y-122375800D01*
X180674600Y-116447800D02*
X180674600Y-122413800D01*
X180634600Y-120470800D02*
X180634600Y-122449800D01*
X180634600Y-116411800D02*
X180634600Y-118390800D01*
X180594600Y-120470800D02*
X180594600Y-122485800D01*
X180594600Y-116375800D02*
X180594600Y-118390800D01*
X180554600Y-120470800D02*
X180554600Y-122520800D01*
X180554600Y-116340800D02*
X180554600Y-118390800D01*
X180514600Y-120470800D02*
X180514600Y-122554800D01*
X180514600Y-116306800D02*
X180514600Y-118390800D01*
X180474600Y-120470800D02*
X180474600Y-122586800D01*
X180474600Y-116274800D02*
X180474600Y-118390800D01*
X180434600Y-120470800D02*
X180434600Y-122619800D01*
X180434600Y-116241800D02*
X180434600Y-118390800D01*
X180394600Y-120470800D02*
X180394600Y-122650800D01*
X180394600Y-116210800D02*
X180394600Y-118390800D01*
X180354600Y-120470800D02*
X180354600Y-122680800D01*
X180354600Y-116180800D02*
X180354600Y-118390800D01*
X180314600Y-120470800D02*
X180314600Y-122710800D01*
X180314600Y-116150800D02*
X180314600Y-118390800D01*
X180274600Y-120470800D02*
X180274600Y-122739800D01*
X180274600Y-116121800D02*
X180274600Y-118390800D01*
X180234600Y-120470800D02*
X180234600Y-122768800D01*
X180234600Y-116092800D02*
X180234600Y-118390800D01*
X180194600Y-120470800D02*
X180194600Y-122795800D01*
X180194600Y-116065800D02*
X180194600Y-118390800D01*
X180154600Y-120470800D02*
X180154600Y-122822800D01*
X180154600Y-116038800D02*
X180154600Y-118390800D01*
X180114600Y-120470800D02*
X180114600Y-122848800D01*
X180114600Y-116012800D02*
X180114600Y-118390800D01*
X180074600Y-120470800D02*
X180074600Y-122874800D01*
X180074600Y-115986800D02*
X180074600Y-118390800D01*
X180034600Y-120470800D02*
X180034600Y-122899800D01*
X180034600Y-115961800D02*
X180034600Y-118390800D01*
X179994600Y-120470800D02*
X179994600Y-122923800D01*
X179994600Y-115937800D02*
X179994600Y-118390800D01*
X179954600Y-120470800D02*
X179954600Y-122947800D01*
X179954600Y-115913800D02*
X179954600Y-118390800D01*
X179914600Y-120470800D02*
X179914600Y-122970800D01*
X179914600Y-115890800D02*
X179914600Y-118390800D01*
X179874600Y-120470800D02*
X179874600Y-122992800D01*
X179874600Y-115868800D02*
X179874600Y-118390800D01*
X179834600Y-120470800D02*
X179834600Y-123014800D01*
X179834600Y-115846800D02*
X179834600Y-118390800D01*
X179794600Y-120470800D02*
X179794600Y-123036800D01*
X179794600Y-115824800D02*
X179794600Y-118390800D01*
X179754600Y-120470800D02*
X179754600Y-123057800D01*
X179754600Y-115803800D02*
X179754600Y-118390800D01*
X179714600Y-120470800D02*
X179714600Y-123077800D01*
X179714600Y-115783800D02*
X179714600Y-118390800D01*
X179674600Y-120470800D02*
X179674600Y-123096800D01*
X179674600Y-115764800D02*
X179674600Y-118390800D01*
X179634600Y-120470800D02*
X179634600Y-123116800D01*
X179634600Y-115744800D02*
X179634600Y-118390800D01*
X179594600Y-120470800D02*
X179594600Y-123134800D01*
X179594600Y-115726800D02*
X179594600Y-118390800D01*
X179554600Y-120470800D02*
X179554600Y-123152800D01*
X179554600Y-115708800D02*
X179554600Y-118390800D01*
X179514600Y-120470800D02*
X179514600Y-123170800D01*
X179514600Y-115690800D02*
X179514600Y-118390800D01*
X179474600Y-120470800D02*
X179474600Y-123187800D01*
X179474600Y-115673800D02*
X179474600Y-118390800D01*
X179434600Y-120470800D02*
X179434600Y-123204800D01*
X179434600Y-115656800D02*
X179434600Y-118390800D01*
X179394600Y-120470800D02*
X179394600Y-123220800D01*
X179394600Y-115640800D02*
X179394600Y-118390800D01*
X179354600Y-120470800D02*
X179354600Y-123235800D01*
X179354600Y-115625800D02*
X179354600Y-118390800D01*
X179314600Y-120470800D02*
X179314600Y-123251800D01*
X179314600Y-115609800D02*
X179314600Y-118390800D01*
X179274600Y-120470800D02*
X179274600Y-123265800D01*
X179274600Y-115595800D02*
X179274600Y-118390800D01*
X179234600Y-120470800D02*
X179234600Y-123280800D01*
X179234600Y-115580800D02*
X179234600Y-118390800D01*
X179194600Y-120470800D02*
X179194600Y-123293800D01*
X179194600Y-115567800D02*
X179194600Y-118390800D01*
X179154600Y-120470800D02*
X179154600Y-123307800D01*
X179154600Y-115553800D02*
X179154600Y-118390800D01*
X179114600Y-120470800D02*
X179114600Y-123319800D01*
X179114600Y-115541800D02*
X179114600Y-118390800D01*
X179074600Y-120470800D02*
X179074600Y-123332800D01*
X179074600Y-115528800D02*
X179074600Y-118390800D01*
X179034600Y-120470800D02*
X179034600Y-123344800D01*
X179034600Y-115516800D02*
X179034600Y-118390800D01*
X178994600Y-120470800D02*
X178994600Y-123355800D01*
X178994600Y-115505800D02*
X178994600Y-118390800D01*
X178954600Y-120470800D02*
X178954600Y-123366800D01*
X178954600Y-115494800D02*
X178954600Y-118390800D01*
X178914600Y-120470800D02*
X178914600Y-123377800D01*
X178914600Y-115483800D02*
X178914600Y-118390800D01*
X178874600Y-120470800D02*
X178874600Y-123387800D01*
X178874600Y-115473800D02*
X178874600Y-118390800D01*
X178834600Y-120470800D02*
X178834600Y-123397800D01*
X178834600Y-115463800D02*
X178834600Y-118390800D01*
X178794600Y-120470800D02*
X178794600Y-123406800D01*
X178794600Y-115454800D02*
X178794600Y-118390800D01*
X178754600Y-120470800D02*
X178754600Y-123415800D01*
X178754600Y-115445800D02*
X178754600Y-118390800D01*
X178714600Y-120470800D02*
X178714600Y-123424800D01*
X178714600Y-115436800D02*
X178714600Y-118390800D01*
X178674600Y-120470800D02*
X178674600Y-123432800D01*
X178674600Y-115428800D02*
X178674600Y-118390800D01*
X178634600Y-120470800D02*
X178634600Y-123440800D01*
X178634600Y-115420800D02*
X178634600Y-118390800D01*
X178594600Y-120470800D02*
X178594600Y-123447800D01*
X178594600Y-115413800D02*
X178594600Y-118390800D01*
X178553600Y-115406800D02*
X178553600Y-123454800D01*
X178513600Y-115400800D02*
X178513600Y-123460800D01*
X178473600Y-115393800D02*
X178473600Y-123467800D01*
X178433600Y-115388800D02*
X178433600Y-123472800D01*
X178393600Y-115382800D02*
X178393600Y-123478800D01*
X178353600Y-115378800D02*
X178353600Y-123482800D01*
X178313600Y-115373800D02*
X178313600Y-123487800D01*
X178273600Y-115369800D02*
X178273600Y-123491800D01*
X178233600Y-115365800D02*
X178233600Y-123495800D01*
X178193600Y-115362800D02*
X178193600Y-123498800D01*
X178153600Y-115359800D02*
X178153600Y-123501800D01*
X178113600Y-115356800D02*
X178113600Y-123504800D01*
X178073600Y-115354800D02*
X178073600Y-123506800D01*
X178033600Y-115353800D02*
X178033600Y-123507800D01*
X177993600Y-115351800D02*
X177993600Y-123509800D01*
X177953600Y-115350800D02*
X177953600Y-123510800D01*
X177913600Y-115350800D02*
X177913600Y-123510800D01*
X177873600Y-115350800D02*
X177873600Y-123510800D01*
X181993600Y-119430800D02*
G75*
G03*
X181993600Y-119430800I-4120000J0D01*
G01*
X224635000Y-135511252D02*
X224635000Y-134988748D01*
X223165000Y-135511252D02*
X223165000Y-134988748D01*
X188350000Y-99580000D02*
X189150000Y-99580000D01*
X188350000Y-101420000D02*
X189150000Y-101420000D01*
X185660000Y-93060000D02*
X185660000Y-88940000D01*
X179600000Y-93060000D02*
X185660000Y-93060000D01*
X177540000Y-88940000D02*
X185660000Y-88940000D01*
X179600000Y-93060000D02*
X179600000Y-91000000D01*
X179600000Y-91000000D02*
X177540000Y-91000000D01*
X177540000Y-91000000D02*
X177540000Y-88940000D01*
X178600000Y-93060000D02*
X177540000Y-93060000D01*
X177540000Y-93060000D02*
X177540000Y-92000000D01*
D10*
X220906800Y-179730400D02*
G75*
G03*
X220906800Y-179730400I-1400000J0D01*
G01*
D12*
X204460000Y-167450000D02*
X204460000Y-165650000D01*
X201240000Y-165650000D02*
X201240000Y-168100000D01*
X142939755Y-112677357D02*
X138554120Y-109883399D01*
X138554120Y-109883399D02*
X135222862Y-115112426D01*
X135222862Y-115112426D02*
X139608498Y-117906384D01*
X139608498Y-117906384D02*
X142939755Y-112677357D01*
X141756892Y-111556227D02*
X143367770Y-112582469D01*
X143367770Y-112582469D02*
X142341527Y-114193347D01*
X139903546Y-110743079D02*
X139688626Y-111080435D01*
X139688626Y-111080435D02*
X138676557Y-110435676D01*
X138676557Y-110435676D02*
X135775139Y-114989990D01*
X135775139Y-114989990D02*
X136787209Y-115634749D01*
X136787209Y-115634749D02*
X136572289Y-115972106D01*
X140746938Y-111280378D02*
X140532018Y-111617735D01*
X140532018Y-111617735D02*
X142387479Y-112799794D01*
X142387479Y-112799794D02*
X141205420Y-114655255D01*
X141205420Y-114655255D02*
X141542777Y-114870175D01*
X137415680Y-116509405D02*
X137630600Y-116172049D01*
X137630600Y-116172049D02*
X139486061Y-117354108D01*
X139486061Y-117354108D02*
X140668120Y-115498647D01*
X140668120Y-115498647D02*
X141005477Y-115713567D01*
X134928594Y-157338964D02*
X130215794Y-159536579D01*
X130215794Y-159536579D02*
X132836027Y-165155688D01*
X132836027Y-165155688D02*
X137548827Y-162958073D01*
X137548827Y-162958073D02*
X134928594Y-157338964D01*
X133347490Y-157734198D02*
X135078538Y-156926997D01*
X135078538Y-156926997D02*
X135885739Y-158658045D01*
X131665886Y-158860390D02*
X131834933Y-159222913D01*
X131834933Y-159222913D02*
X130747364Y-159730055D01*
X130747364Y-159730055D02*
X133029503Y-164624117D01*
X133029503Y-164624117D02*
X134117072Y-164116975D01*
X134117072Y-164116975D02*
X134286119Y-164479498D01*
X132572194Y-158437772D02*
X132741241Y-158800295D01*
X132741241Y-158800295D02*
X134735118Y-157870535D01*
X134735118Y-157870535D02*
X135664878Y-159864412D01*
X135664878Y-159864412D02*
X136027402Y-159695365D01*
X135192427Y-164056880D02*
X135023380Y-163694357D01*
X135023380Y-163694357D02*
X137017257Y-162764597D01*
X137017257Y-162764597D02*
X136087497Y-160770720D01*
X136087497Y-160770720D02*
X136450020Y-160601672D01*
X138723027Y-165283533D02*
X134219695Y-167883533D01*
X134219695Y-167883533D02*
X137319695Y-173252890D01*
X137319695Y-173252890D02*
X141823027Y-170652890D01*
X141823027Y-170652890D02*
X138723027Y-165283533D01*
X137182386Y-165815065D02*
X138836495Y-164860065D01*
X138836495Y-164860065D02*
X139791495Y-166514173D01*
X135605335Y-167083533D02*
X135805335Y-167429943D01*
X135805335Y-167429943D02*
X134766105Y-168029943D01*
X134766105Y-168029943D02*
X137466105Y-172706480D01*
X137466105Y-172706480D02*
X138505335Y-172106480D01*
X138505335Y-172106480D02*
X138705335Y-172452890D01*
X136471361Y-166583533D02*
X136671361Y-166929943D01*
X136671361Y-166929943D02*
X138576616Y-165829943D01*
X138576616Y-165829943D02*
X139676616Y-167735199D01*
X139676616Y-167735199D02*
X140023027Y-167535199D01*
X139571361Y-171952890D02*
X139371361Y-171606480D01*
X139371361Y-171606480D02*
X141276616Y-170506480D01*
X141276616Y-170506480D02*
X140176616Y-168601224D01*
X140176616Y-168601224D02*
X140523027Y-168401224D01*
D10*
X153495200Y-163271200D02*
G75*
G03*
X153495200Y-163271200I-1400000J0D01*
G01*
X176100000Y-100900000D02*
G75*
G03*
X176100000Y-100900000I-1400000J0D01*
G01*
X171376800Y-161899600D02*
G75*
G03*
X171376800Y-161899600I-1400000J0D01*
G01*
D12*
X198200000Y-164950000D02*
X200200000Y-164950000D01*
X200200000Y-164950000D02*
X200200000Y-161050000D01*
X198200000Y-164950000D02*
X198200000Y-161050000D01*
X146398348Y-158675400D02*
X146920852Y-158675400D01*
X146398348Y-160145400D02*
X146920852Y-160145400D01*
X216835000Y-159688748D02*
X216835000Y-160211252D01*
X215365000Y-159688748D02*
X215365000Y-160211252D01*
X215315000Y-155011252D02*
X215315000Y-154488748D01*
X216785000Y-155011252D02*
X216785000Y-154488748D01*
X199440000Y-166857836D02*
X199440000Y-166642164D01*
X200160000Y-166857836D02*
X200160000Y-166642164D01*
X206010000Y-166159420D02*
X206010000Y-166440580D01*
X204990000Y-166159420D02*
X204990000Y-166440580D01*
D10*
X184584800Y-112115600D02*
G75*
G03*
X184584800Y-112115600I-1400000J0D01*
G01*
X184483200Y-107137200D02*
G75*
G03*
X184483200Y-107137200I-1400000J0D01*
G01*
D12*
X216587800Y-119019200D02*
X218047800Y-119019200D01*
X216587800Y-122179200D02*
X218747800Y-122179200D01*
X216587800Y-122179200D02*
X216587800Y-121249200D01*
X216587800Y-119019200D02*
X216587800Y-119949200D01*
X148270325Y-115072073D02*
X149302700Y-116104449D01*
X146035867Y-117306531D02*
X147563218Y-118833881D01*
X146035867Y-117306531D02*
X146693476Y-116648921D01*
X148270325Y-115072073D02*
X147612715Y-115729682D01*
X228371437Y-162981257D02*
X226171437Y-166791769D01*
X226171437Y-166791769D02*
X226275360Y-166851769D01*
X227150046Y-167356769D02*
X228137314Y-167926769D01*
X229012000Y-168431769D02*
X229115923Y-168491769D01*
X229115923Y-168491769D02*
X231315923Y-164681257D01*
X231315923Y-164681257D02*
X231212000Y-164621257D01*
X230337314Y-164116257D02*
X229350046Y-163546257D01*
X228475360Y-163041257D02*
X228371437Y-162981257D01*
X137156442Y-122161004D02*
X137518965Y-122330051D01*
X136226682Y-124154881D02*
X137156442Y-122161004D01*
X134232805Y-123225121D02*
X136226682Y-124154881D01*
X134063757Y-123587644D02*
X134232805Y-123225121D01*
X137579060Y-121254696D02*
X137941583Y-121423743D01*
X138508820Y-119260819D02*
X137579060Y-121254696D01*
X136514943Y-118331059D02*
X138508820Y-119260819D01*
X136683991Y-117968535D02*
X136514943Y-118331059D01*
X133326497Y-122802502D02*
X133157450Y-123165025D01*
X132238928Y-122295360D02*
X133326497Y-122802502D01*
X134521066Y-117401298D02*
X132238928Y-122295360D01*
X135608635Y-117908440D02*
X134521066Y-117401298D01*
X135777683Y-117545917D02*
X135608635Y-117908440D01*
X139452358Y-118917399D02*
X138645157Y-120648447D01*
X137721310Y-118110198D02*
X139452358Y-118917399D01*
X136420158Y-124686451D02*
X139040391Y-119067343D01*
X131707357Y-122488836D02*
X136420158Y-124686451D01*
X134327590Y-116869728D02*
X131707357Y-122488836D01*
X139040391Y-119067343D02*
X134327590Y-116869728D01*
X147660325Y-106912567D02*
X143676894Y-103570071D01*
X143676894Y-103570071D02*
X139691611Y-108319547D01*
X139691611Y-108319547D02*
X143675042Y-111662042D01*
X143675042Y-111662042D02*
X147660325Y-106912567D01*
X146633918Y-105646633D02*
X148097063Y-106874357D01*
X148097063Y-106874357D02*
X146869339Y-108337502D01*
X144902565Y-104598531D02*
X144645450Y-104904949D01*
X144645450Y-104904949D02*
X143726197Y-104133604D01*
X143726197Y-104133604D02*
X140255144Y-108270244D01*
X140255144Y-108270244D02*
X141174397Y-109041589D01*
X141174397Y-109041589D02*
X140917282Y-109348007D01*
X145668610Y-105241319D02*
X145411494Y-105547737D01*
X145411494Y-105547737D02*
X147096792Y-106961870D01*
X147096792Y-106961870D02*
X145682660Y-108647167D01*
X145682660Y-108647167D02*
X145989077Y-108904282D01*
X141683326Y-109990795D02*
X141940441Y-109684377D01*
X141940441Y-109684377D02*
X143625739Y-111098510D01*
X143625739Y-111098510D02*
X145039872Y-109413212D01*
X145039872Y-109413212D02*
X145346290Y-109670327D01*
X131499236Y-138558600D02*
X131953364Y-138558600D01*
X131499236Y-140028600D02*
X131953364Y-140028600D01*
X130093600Y-142898400D02*
X131023600Y-142898400D01*
X133253600Y-142898400D02*
X132323600Y-142898400D01*
X133253600Y-142898400D02*
X133253600Y-140738400D01*
X130093600Y-142898400D02*
X130093600Y-141438400D01*
X141657400Y-158198452D02*
X141657400Y-157675948D01*
X143127400Y-158198452D02*
X143127400Y-157675948D01*
X206160000Y-186130000D02*
X204700000Y-186130000D01*
X206160000Y-182970000D02*
X204000000Y-182970000D01*
X206160000Y-182970000D02*
X206160000Y-183900000D01*
X206160000Y-186130000D02*
X206160000Y-185200000D01*
X146523939Y-179913422D02*
X148837974Y-177155662D01*
X152162026Y-184644338D02*
X154476061Y-181886578D01*
X151486578Y-176923939D02*
X154244338Y-179237974D01*
X146755662Y-182562026D02*
X149513422Y-184876061D01*
X164710000Y-159600000D02*
X164710000Y-160290000D01*
X164860000Y-160290000D02*
X164710000Y-160290000D01*
X164860000Y-170210000D02*
X164710000Y-170210000D01*
X154690000Y-160290000D02*
X154540000Y-160290000D01*
X154690000Y-170210000D02*
X154540000Y-170210000D01*
X154540000Y-160290000D02*
X154540000Y-170210000D01*
X164860000Y-160290000D02*
X164860000Y-170210000D01*
X162661252Y-178765000D02*
X162138748Y-178765000D01*
X162661252Y-180235000D02*
X162138748Y-180235000D01*
D13*
X159090200Y-158437200D02*
X160340200Y-158437200D01*
X159090200Y-157567200D02*
X159090200Y-155767200D01*
X160340200Y-157567200D02*
X160340200Y-155767200D01*
D12*
X214200000Y-145400000D02*
X214200000Y-145400000D01*
X213700000Y-145400000D02*
X214200000Y-145400000D01*
X214200000Y-143700000D02*
X214200000Y-143700000D01*
X214200000Y-143200000D02*
X214200000Y-143700000D01*
X213700000Y-143200000D02*
X214200000Y-143200000D01*
X212500000Y-143200000D02*
X212500000Y-143200000D01*
X212000000Y-143200000D02*
X212500000Y-143200000D01*
X212000000Y-143700000D02*
X212000000Y-143200000D01*
X212000000Y-144900000D02*
X212000000Y-144900000D01*
X212000000Y-145400000D02*
X212000000Y-144900000D01*
X212500000Y-145400000D02*
X212000000Y-145400000D01*
X200980000Y-159300000D02*
X200980000Y-163820000D01*
X200980000Y-151080000D02*
X200980000Y-155600000D01*
X200980000Y-163820000D02*
X213720000Y-163820000D01*
X213720000Y-159300000D02*
X213720000Y-163820000D01*
X213720000Y-151080000D02*
X213720000Y-155600000D01*
X200980000Y-151080000D02*
X213720000Y-151080000D01*
X200600000Y-150700000D02*
X203600000Y-150700000D01*
X200600000Y-153700000D02*
X200600000Y-150700000D01*
X213750000Y-151700000D02*
X213750000Y-154450000D01*
X213100000Y-163850000D02*
X201600000Y-163850000D01*
X200950000Y-160450000D02*
X200950000Y-163200000D01*
X201600000Y-151050000D02*
X213100000Y-151050000D01*
X200950000Y-151700000D02*
X200950000Y-154450000D01*
X213750000Y-160450000D02*
X213750000Y-163200000D01*
X213100000Y-151050000D02*
G75*
G02*
X213750000Y-151700000I0J-650000D01*
G01*
X200950000Y-151700000D02*
G75*
G02*
X201600000Y-151050000I650000J0D01*
G01*
X201600000Y-163850000D02*
G75*
G02*
X200950000Y-163200000I0J650000D01*
G01*
X213750000Y-163200000D02*
G75*
G02*
X213100000Y-163850000I-650000J0D01*
G01*
X150618000Y-138012000D02*
X150118000Y-138012000D01*
X150618000Y-140372000D02*
X150118000Y-140372000D01*
X146816000Y-140372000D02*
X147316000Y-140372000D01*
X146816000Y-138012000D02*
X147316000Y-138012000D01*
X151786400Y-132830400D02*
X151286400Y-132830400D01*
X151786400Y-135190400D02*
X151286400Y-135190400D01*
X147019200Y-135038000D02*
X147519200Y-135038000D01*
X147019200Y-132678000D02*
X147519200Y-132678000D01*
X152607200Y-127492400D02*
X152107200Y-127492400D01*
X152607200Y-129852400D02*
X152107200Y-129852400D01*
X146968400Y-129653200D02*
X147468400Y-129653200D01*
X146968400Y-127293200D02*
X147468400Y-127293200D01*
X224184400Y-162739600D02*
X223684400Y-162739600D01*
X224184400Y-165099600D02*
X223684400Y-165099600D01*
X163250000Y-184635000D02*
X160550000Y-184635000D01*
X162660000Y-181915000D02*
X162660000Y-181285000D01*
X160500000Y-181915000D02*
X161140000Y-181915000D01*
X163300000Y-181915000D02*
X162660000Y-181915000D01*
X159460000Y-177300000D02*
X159460000Y-175900000D01*
X157140000Y-175900000D02*
X157140000Y-177800000D01*
X173468000Y-122912400D02*
X173468000Y-120482400D01*
X170398000Y-121152400D02*
X170398000Y-122912400D01*
X192135000Y-97310000D02*
X192610000Y-97310000D01*
X189390000Y-94090000D02*
X189390000Y-94565000D01*
X189865000Y-94090000D02*
X189390000Y-94090000D01*
X192610000Y-94090000D02*
X192610000Y-94565000D01*
X192135000Y-94090000D02*
X192610000Y-94090000D01*
X189390000Y-97310000D02*
X189390000Y-96835000D01*
X189865000Y-97310000D02*
X189390000Y-97310000D01*
X204800000Y-147180000D02*
X204000000Y-147180000D01*
X204800000Y-149020000D02*
X204000000Y-149020000D01*
X152343600Y-141840000D02*
X152343600Y-142640000D01*
X154183600Y-141840000D02*
X154183600Y-142640000D01*
X146412000Y-142601200D02*
X147212000Y-142601200D01*
X146412000Y-140761200D02*
X147212000Y-140761200D01*
X204889564Y-180915000D02*
X204435436Y-180915000D01*
X204889564Y-182385000D02*
X204435436Y-182385000D01*
X204939564Y-178815000D02*
X204485436Y-178815000D01*
X204939564Y-180285000D02*
X204485436Y-180285000D01*
X206815000Y-176310436D02*
X206815000Y-176764564D01*
X208285000Y-176310436D02*
X208285000Y-176764564D01*
X201565000Y-184272936D02*
X201565000Y-184727064D01*
X203035000Y-184272936D02*
X203035000Y-184727064D01*
X203027064Y-186565000D02*
X202572936Y-186565000D01*
X203027064Y-188035000D02*
X202572936Y-188035000D01*
X219787800Y-120412136D02*
X219787800Y-120866264D01*
X221257800Y-120412136D02*
X221257800Y-120866264D01*
X166840500Y-152057436D02*
X166840500Y-152511564D01*
X168310500Y-152057436D02*
X168310500Y-152511564D01*
X220485000Y-125439564D02*
X220485000Y-124985436D01*
X219015000Y-125439564D02*
X219015000Y-124985436D01*
X158297342Y-131586500D02*
X158771858Y-131586500D01*
X158297342Y-130541500D02*
X158771858Y-130541500D01*
X136564900Y-140280658D02*
X136564900Y-139806142D01*
X135519900Y-140280658D02*
X135519900Y-139806142D01*
X156805100Y-136758142D02*
X156805100Y-137232658D01*
X157850100Y-136758142D02*
X157850100Y-137232658D01*
X158633900Y-137723342D02*
X158633900Y-138197858D01*
X159678900Y-137723342D02*
X159678900Y-138197858D01*
X139094942Y-143067300D02*
X139569458Y-143067300D01*
X139094942Y-142022300D02*
X139569458Y-142022300D01*
X139348942Y-137936500D02*
X139823458Y-137936500D01*
X139348942Y-136891500D02*
X139823458Y-136891500D01*
X160857600Y-123940936D02*
X160857600Y-124395064D01*
X162327600Y-123940936D02*
X162327600Y-124395064D01*
X149448763Y-118127083D02*
X149127646Y-118448200D01*
X150488210Y-119166530D02*
X150167093Y-119487647D01*
X203503641Y-170170000D02*
X203196359Y-170170000D01*
X203503641Y-170930000D02*
X203196359Y-170930000D01*
X206587258Y-170077500D02*
X206112742Y-170077500D01*
X206587258Y-171122500D02*
X206112742Y-171122500D01*
X187102264Y-111461400D02*
X186648136Y-111461400D01*
X187102264Y-112931400D02*
X186648136Y-112931400D01*
X203890000Y-174970000D02*
X205350000Y-174970000D01*
X203890000Y-178130000D02*
X206050000Y-178130000D01*
X203890000Y-178130000D02*
X203890000Y-177200000D01*
X203890000Y-174970000D02*
X203890000Y-175900000D01*
X163767500Y-150681000D02*
X165227500Y-150681000D01*
X163767500Y-153841000D02*
X165927500Y-153841000D01*
X163767500Y-153841000D02*
X163767500Y-152911000D01*
X163767500Y-150681000D02*
X163767500Y-151611000D01*
X223315500Y-126847500D02*
X221855500Y-126847500D01*
X223315500Y-123687500D02*
X221155500Y-123687500D01*
X223315500Y-123687500D02*
X223315500Y-124617500D01*
X223315500Y-126847500D02*
X223315500Y-125917500D01*
X158089400Y-122715000D02*
X159549400Y-122715000D01*
X158089400Y-125875000D02*
X160249400Y-125875000D01*
X158089400Y-125875000D02*
X158089400Y-124945000D01*
X158089400Y-122715000D02*
X158089400Y-123645000D01*
X188506000Y-108490000D02*
X188506000Y-109950000D01*
X185346000Y-108490000D02*
X185346000Y-110650000D01*
X185346000Y-108490000D02*
X186276000Y-108490000D01*
X188506000Y-108490000D02*
X187576000Y-108490000D01*
X203825600Y-132057600D02*
X203825600Y-129257600D01*
X203825600Y-129257600D02*
X205825600Y-129257600D01*
X205825600Y-129257600D02*
X205825600Y-132057600D01*
X205825600Y-132057600D02*
X203825600Y-132057600D01*
X163250000Y-91900000D02*
X164650000Y-91900000D01*
X165350000Y-92600000D02*
X165350000Y-93200000D01*
X164650000Y-93900000D02*
X163250000Y-93900000D01*
X162550000Y-93200000D02*
X162550000Y-92600000D01*
X162550000Y-92600000D02*
G75*
G02*
X163250000Y-91900000I700000J0D01*
G01*
X163250000Y-93900000D02*
G75*
G02*
X162550000Y-93200000I0J700000D01*
G01*
X165350000Y-93200000D02*
G75*
G02*
X164650000Y-93900000I-700000J0D01*
G01*
X164650000Y-91900000D02*
G75*
G02*
X165350000Y-92600000I0J-700000D01*
G01*
X198200000Y-94800000D02*
X198200000Y-92000000D01*
X198900000Y-91350000D02*
X199500000Y-91350000D01*
X200200000Y-92000000D02*
X200200000Y-94800000D01*
X199500000Y-95450000D02*
X198900000Y-95450000D01*
X198900000Y-95450000D02*
G75*
G02*
X198200000Y-94750000I0J700000D01*
G01*
X200200000Y-94750000D02*
G75*
G02*
X199500000Y-95450000I-700000J0D01*
G01*
X199500000Y-91350000D02*
G75*
G02*
X200200000Y-92050000I0J-700000D01*
G01*
X198200000Y-92050000D02*
G75*
G02*
X198900000Y-91350000I700000J0D01*
G01*
X157900000Y-183965000D02*
X157260000Y-183965000D01*
X155100000Y-183965000D02*
X155740000Y-183965000D01*
X157260000Y-183965000D02*
X157260000Y-183335000D01*
X157850000Y-186685000D02*
X155150000Y-186685000D01*
X226130000Y-153630000D02*
X226130000Y-152995000D01*
X226130000Y-152995000D02*
X226765000Y-152995000D01*
X232122747Y-122760049D02*
X233449785Y-126406056D01*
X230918108Y-128572599D02*
X230558987Y-127585922D01*
X231998754Y-128179276D02*
X230918108Y-128572599D01*
X229149864Y-123714389D02*
X228219568Y-124052989D01*
X228790743Y-122727711D02*
X229149864Y-123714389D01*
X229871389Y-122334388D02*
X228790743Y-122727711D01*
X206510528Y-189062857D02*
X205747671Y-187973384D01*
X205747671Y-187973384D02*
X206837143Y-187210528D01*
X207877466Y-186482086D02*
X216249200Y-180620135D01*
X217774914Y-182799079D02*
X216249200Y-180620135D01*
X209403180Y-188661030D02*
X217774914Y-182799079D01*
X209403180Y-188661030D02*
X207877466Y-186482086D01*
X157170000Y-134481600D02*
X157170000Y-133021600D01*
X160330000Y-134481600D02*
X160330000Y-132321600D01*
X160330000Y-134481600D02*
X159400000Y-134481600D01*
X157170000Y-134481600D02*
X158100000Y-134481600D01*
X139342400Y-141534000D02*
X137882400Y-141534000D01*
X139342400Y-138374000D02*
X137182400Y-138374000D01*
X139342400Y-138374000D02*
X139342400Y-139304000D01*
X139342400Y-141534000D02*
X139342400Y-140604000D01*
X217734000Y-159069300D02*
X217734000Y-161754300D01*
X219654000Y-159069300D02*
X217734000Y-159069300D01*
X219654000Y-161754300D02*
X219654000Y-159069300D01*
X219816800Y-159069300D02*
X219816800Y-161754300D01*
X221736800Y-159069300D02*
X219816800Y-159069300D01*
X221736800Y-161754300D02*
X221736800Y-159069300D01*
X221899600Y-159069300D02*
X221899600Y-161754300D01*
X223819600Y-159069300D02*
X221899600Y-159069300D01*
X223819600Y-161754300D02*
X223819600Y-159069300D01*
X228284420Y-160610000D02*
X228565580Y-160610000D01*
X228284420Y-159590000D02*
X228565580Y-159590000D01*
X209476748Y-128497000D02*
X209999252Y-128497000D01*
X209476748Y-127027000D02*
X209999252Y-127027000D01*
X206681400Y-130243948D02*
X206681400Y-130766452D01*
X208151400Y-130243948D02*
X208151400Y-130766452D01*
X155261252Y-157265000D02*
X154738748Y-157265000D01*
X155261252Y-158735000D02*
X154738748Y-158735000D01*
X156461252Y-155065000D02*
X155938748Y-155065000D01*
X156461252Y-156535000D02*
X155938748Y-156535000D01*
X222435000Y-135511252D02*
X222435000Y-134988748D01*
X220965000Y-135511252D02*
X220965000Y-134988748D01*
X220235000Y-135511252D02*
X220235000Y-134988748D01*
X218765000Y-135511252D02*
X218765000Y-134988748D01*
X154104887Y-175427420D02*
X153769028Y-175827682D01*
X155230972Y-176372318D02*
X154895113Y-176772580D01*
X160238748Y-180235000D02*
X160761252Y-180235000D01*
X160238748Y-178765000D02*
X160761252Y-178765000D01*
X158435000Y-180661252D02*
X158435000Y-180138748D01*
X156965000Y-180661252D02*
X156965000Y-180138748D01*
X210435000Y-144461252D02*
X210435000Y-143938748D01*
X208965000Y-144461252D02*
X208965000Y-143938748D01*
X147140600Y-122145652D02*
X147140600Y-121623148D01*
X145670600Y-122145652D02*
X145670600Y-121623148D01*
X140484452Y-124334600D02*
X139961948Y-124334600D01*
X140484452Y-125804600D02*
X139961948Y-125804600D01*
X142876600Y-122405548D02*
X142876600Y-122928052D01*
X144346600Y-122405548D02*
X144346600Y-122928052D01*
X142501948Y-143483000D02*
X143024452Y-143483000D01*
X142501948Y-142013000D02*
X143024452Y-142013000D01*
X177436452Y-113565000D02*
X176913948Y-113565000D01*
X177436452Y-115035000D02*
X176913948Y-115035000D01*
D10*
X194462495Y-192946400D02*
X194367257Y-192898780D01*
X194224400Y-192898780D01*
X194081542Y-192946400D01*
X193986304Y-193041638D01*
X193938685Y-193136876D01*
X193891066Y-193327352D01*
X193891066Y-193470209D01*
X193938685Y-193660685D01*
X193986304Y-193755923D01*
X194081542Y-193851161D01*
X194224400Y-193898780D01*
X194319638Y-193898780D01*
X194462495Y-193851161D01*
X194510114Y-193803542D01*
X194510114Y-193470209D01*
X194319638Y-193470209D01*
X194938685Y-193898780D02*
X194938685Y-192898780D01*
X195510114Y-193898780D01*
X195510114Y-192898780D01*
X195986304Y-193898780D02*
X195986304Y-192898780D01*
X196224400Y-192898780D01*
X196367257Y-192946400D01*
X196462495Y-193041638D01*
X196510114Y-193136876D01*
X196557733Y-193327352D01*
X196557733Y-193470209D01*
X196510114Y-193660685D01*
X196462495Y-193755923D01*
X196367257Y-193851161D01*
X196224400Y-193898780D01*
X195986304Y-193898780D01*
X150233142Y-122937542D02*
X150185523Y-122985161D01*
X150042666Y-123032780D01*
X149947428Y-123032780D01*
X149804571Y-122985161D01*
X149709333Y-122889923D01*
X149661714Y-122794685D01*
X149614095Y-122604209D01*
X149614095Y-122461352D01*
X149661714Y-122270876D01*
X149709333Y-122175638D01*
X149804571Y-122080400D01*
X149947428Y-122032780D01*
X150042666Y-122032780D01*
X150185523Y-122080400D01*
X150233142Y-122128019D01*
X150614095Y-122128019D02*
X150661714Y-122080400D01*
X150756952Y-122032780D01*
X150995047Y-122032780D01*
X151090285Y-122080400D01*
X151137904Y-122128019D01*
X151185523Y-122223257D01*
X151185523Y-122318495D01*
X151137904Y-122461352D01*
X150566476Y-123032780D01*
X151185523Y-123032780D01*
X152042666Y-122032780D02*
X151852190Y-122032780D01*
X151756952Y-122080400D01*
X151709333Y-122128019D01*
X151614095Y-122270876D01*
X151566476Y-122461352D01*
X151566476Y-122842304D01*
X151614095Y-122937542D01*
X151661714Y-122985161D01*
X151756952Y-123032780D01*
X151947428Y-123032780D01*
X152042666Y-122985161D01*
X152090285Y-122937542D01*
X152137904Y-122842304D01*
X152137904Y-122604209D01*
X152090285Y-122508971D01*
X152042666Y-122461352D01*
X151947428Y-122413733D01*
X151756952Y-122413733D01*
X151661714Y-122461352D01*
X151614095Y-122508971D01*
X151566476Y-122604209D01*
X210709523Y-150210780D02*
X210376190Y-149734590D01*
X210138095Y-150210780D02*
X210138095Y-149210780D01*
X210519047Y-149210780D01*
X210614285Y-149258400D01*
X210661904Y-149306019D01*
X210709523Y-149401257D01*
X210709523Y-149544114D01*
X210661904Y-149639352D01*
X210614285Y-149686971D01*
X210519047Y-149734590D01*
X210138095Y-149734590D01*
X211138095Y-150210780D02*
X211138095Y-149210780D01*
X211709523Y-150210780D01*
X211709523Y-149210780D01*
X212709523Y-150210780D02*
X212138095Y-150210780D01*
X212423809Y-150210780D02*
X212423809Y-149210780D01*
X212328571Y-149353638D01*
X212233333Y-149448876D01*
X212138095Y-149496495D01*
X186097942Y-124918742D02*
X186050323Y-124966361D01*
X185907466Y-125013980D01*
X185812228Y-125013980D01*
X185669371Y-124966361D01*
X185574133Y-124871123D01*
X185526514Y-124775885D01*
X185478895Y-124585409D01*
X185478895Y-124442552D01*
X185526514Y-124252076D01*
X185574133Y-124156838D01*
X185669371Y-124061600D01*
X185812228Y-124013980D01*
X185907466Y-124013980D01*
X186050323Y-124061600D01*
X186097942Y-124109219D01*
X187050323Y-125013980D02*
X186478895Y-125013980D01*
X186764609Y-125013980D02*
X186764609Y-124013980D01*
X186669371Y-124156838D01*
X186574133Y-124252076D01*
X186478895Y-124299695D01*
X187431276Y-124109219D02*
X187478895Y-124061600D01*
X187574133Y-124013980D01*
X187812228Y-124013980D01*
X187907466Y-124061600D01*
X187955085Y-124109219D01*
X188002704Y-124204457D01*
X188002704Y-124299695D01*
X187955085Y-124442552D01*
X187383657Y-125013980D01*
X188002704Y-125013980D01*
X219420423Y-172701178D02*
X219541369Y-172611470D01*
X219677935Y-172416434D01*
X219693554Y-172311106D01*
X219681860Y-172244785D01*
X219631159Y-172151152D01*
X219553144Y-172096526D01*
X219447817Y-172080907D01*
X219381496Y-172092601D01*
X219287863Y-172143302D01*
X219139603Y-172272018D01*
X219045969Y-172322719D01*
X218979649Y-172334413D01*
X218874321Y-172318794D01*
X218796307Y-172264168D01*
X218745606Y-172170534D01*
X218733911Y-172104214D01*
X218749531Y-171998886D01*
X218886096Y-171803850D01*
X219007043Y-171714141D01*
X219486905Y-171526955D02*
X220306057Y-172100532D01*
X219525912Y-171554268D02*
X219541531Y-171448941D01*
X219650784Y-171292912D01*
X219744418Y-171242210D01*
X219810738Y-171230516D01*
X219916066Y-171246135D01*
X220150109Y-171410014D01*
X220200810Y-171503648D01*
X220212504Y-171569968D01*
X220196885Y-171675296D01*
X220087633Y-171831325D01*
X219993999Y-171882026D01*
X220797775Y-170817137D02*
X220368695Y-170516692D01*
X220263368Y-170501073D01*
X220169734Y-170551774D01*
X220060481Y-170707803D01*
X220044862Y-170813131D01*
X220758768Y-170789824D02*
X220743149Y-170895151D01*
X220606583Y-171090187D01*
X220512949Y-171140889D01*
X220407622Y-171125270D01*
X220329607Y-171070643D01*
X220278906Y-170977010D01*
X220294525Y-170871682D01*
X220431091Y-170676646D01*
X220446710Y-170571318D01*
X221070907Y-170427064D02*
X220524805Y-170044680D01*
X220680834Y-170153933D02*
X220630133Y-170060299D01*
X220618439Y-169993979D01*
X220634058Y-169888651D01*
X220688684Y-169810637D01*
X221605476Y-169580599D02*
X221589857Y-169685927D01*
X221480604Y-169841956D01*
X221386970Y-169892657D01*
X221281643Y-169877038D01*
X220969585Y-169658533D01*
X220918884Y-169564899D01*
X220934503Y-169459571D01*
X221043755Y-169303542D01*
X221137389Y-169252841D01*
X221242717Y-169268460D01*
X221320731Y-169323087D01*
X221125614Y-169767785D01*
X222354625Y-168593724D02*
X221808524Y-168211340D01*
X221535473Y-168020148D02*
X221547167Y-168086468D01*
X221613488Y-168074774D01*
X221601794Y-168008453D01*
X221535473Y-168020148D01*
X221613488Y-168074774D01*
X221859306Y-167723709D02*
X221847612Y-167657388D01*
X221863231Y-167552061D01*
X221999797Y-167357024D01*
X222093431Y-167306323D01*
X222159751Y-167294629D01*
X222265079Y-167310248D01*
X222343093Y-167364875D01*
X222432802Y-167485821D01*
X222573131Y-168281666D01*
X222928202Y-167774572D01*
X223380831Y-167045128D02*
X223365212Y-167150456D01*
X223255960Y-167306485D01*
X223162326Y-167357186D01*
X223096006Y-167368880D01*
X222990678Y-167353261D01*
X222756635Y-167189382D01*
X222705933Y-167095749D01*
X222694239Y-167029428D01*
X222709858Y-166924101D01*
X222819111Y-166768072D01*
X222912745Y-166717371D01*
X131691142Y-145333980D02*
X131357809Y-144857790D01*
X131119714Y-145333980D02*
X131119714Y-144333980D01*
X131500666Y-144333980D01*
X131595904Y-144381600D01*
X131643523Y-144429219D01*
X131691142Y-144524457D01*
X131691142Y-144667314D01*
X131643523Y-144762552D01*
X131595904Y-144810171D01*
X131500666Y-144857790D01*
X131119714Y-144857790D01*
X132643523Y-145333980D02*
X132072095Y-145333980D01*
X132357809Y-145333980D02*
X132357809Y-144333980D01*
X132262571Y-144476838D01*
X132167333Y-144572076D01*
X132072095Y-144619695D01*
X132976857Y-144333980D02*
X133595904Y-144333980D01*
X133262571Y-144714933D01*
X133405428Y-144714933D01*
X133500666Y-144762552D01*
X133548285Y-144810171D01*
X133595904Y-144905409D01*
X133595904Y-145143504D01*
X133548285Y-145238742D01*
X133500666Y-145286361D01*
X133405428Y-145333980D01*
X133119714Y-145333980D01*
X133024476Y-145286361D01*
X132976857Y-145238742D01*
X131764019Y-149955238D02*
X131716400Y-150050476D01*
X131621161Y-150145714D01*
X131478304Y-150288571D01*
X131430685Y-150383809D01*
X131430685Y-150479047D01*
X131668780Y-150431428D02*
X131621161Y-150526666D01*
X131525923Y-150621904D01*
X131335447Y-150669523D01*
X131002114Y-150669523D01*
X130811638Y-150621904D01*
X130716400Y-150526666D01*
X130668780Y-150431428D01*
X130668780Y-150240952D01*
X130716400Y-150145714D01*
X130811638Y-150050476D01*
X131002114Y-150002857D01*
X131335447Y-150002857D01*
X131525923Y-150050476D01*
X131621161Y-150145714D01*
X131668780Y-150240952D01*
X131668780Y-150431428D01*
X131002114Y-149145714D02*
X131668780Y-149145714D01*
X130621161Y-149383809D02*
X131335447Y-149621904D01*
X131335447Y-149002857D01*
X167914849Y-140792340D02*
X169148563Y-140792340D01*
X169293706Y-140719768D01*
X169366278Y-140647197D01*
X169438849Y-140502054D01*
X169438849Y-140211768D01*
X169366278Y-140066625D01*
X169293706Y-139994054D01*
X169148563Y-139921483D01*
X167914849Y-139921483D01*
X169438849Y-138397483D02*
X169438849Y-139268340D01*
X169438849Y-138832911D02*
X167914849Y-138832911D01*
X168132563Y-138978054D01*
X168277706Y-139123197D01*
X168350278Y-139268340D01*
X168422849Y-137091197D02*
X169438849Y-137091197D01*
X167842278Y-137454054D02*
X168930849Y-137816911D01*
X168930849Y-136873483D01*
X159999619Y-142271714D02*
X159952000Y-142224095D01*
X159904380Y-142128857D01*
X159904380Y-141890761D01*
X159952000Y-141795523D01*
X159999619Y-141747904D01*
X160094857Y-141700285D01*
X160190095Y-141700285D01*
X160332952Y-141747904D01*
X160904380Y-142319333D01*
X160904380Y-141700285D01*
X166664380Y-141700285D02*
X166664380Y-142271714D01*
X166664380Y-141986000D02*
X165664380Y-141986000D01*
X165807238Y-142081238D01*
X165902476Y-142176476D01*
X165950095Y-142271714D01*
X143327523Y-154071580D02*
X142994190Y-153595390D01*
X142756095Y-154071580D02*
X142756095Y-153071580D01*
X143137047Y-153071580D01*
X143232285Y-153119200D01*
X143279904Y-153166819D01*
X143327523Y-153262057D01*
X143327523Y-153404914D01*
X143279904Y-153500152D01*
X143232285Y-153547771D01*
X143137047Y-153595390D01*
X142756095Y-153595390D01*
X143756095Y-154071580D02*
X143756095Y-153071580D01*
X144327523Y-154071580D01*
X144327523Y-153071580D01*
X144946571Y-153500152D02*
X144851333Y-153452533D01*
X144803714Y-153404914D01*
X144756095Y-153309676D01*
X144756095Y-153262057D01*
X144803714Y-153166819D01*
X144851333Y-153119200D01*
X144946571Y-153071580D01*
X145137047Y-153071580D01*
X145232285Y-153119200D01*
X145279904Y-153166819D01*
X145327523Y-153262057D01*
X145327523Y-153309676D01*
X145279904Y-153404914D01*
X145232285Y-153452533D01*
X145137047Y-153500152D01*
X144946571Y-153500152D01*
X144851333Y-153547771D01*
X144803714Y-153595390D01*
X144756095Y-153690628D01*
X144756095Y-153881104D01*
X144803714Y-153976342D01*
X144851333Y-154023961D01*
X144946571Y-154071580D01*
X145137047Y-154071580D01*
X145232285Y-154023961D01*
X145279904Y-153976342D01*
X145327523Y-153881104D01*
X145327523Y-153690628D01*
X145279904Y-153595390D01*
X145232285Y-153547771D01*
X145137047Y-153500152D01*
X147797923Y-154071580D02*
X147464590Y-153595390D01*
X147226495Y-154071580D02*
X147226495Y-153071580D01*
X147607447Y-153071580D01*
X147702685Y-153119200D01*
X147750304Y-153166819D01*
X147797923Y-153262057D01*
X147797923Y-153404914D01*
X147750304Y-153500152D01*
X147702685Y-153547771D01*
X147607447Y-153595390D01*
X147226495Y-153595390D01*
X148226495Y-154071580D02*
X148226495Y-153071580D01*
X148797923Y-154071580D01*
X148797923Y-153071580D01*
X149178876Y-153071580D02*
X149845542Y-153071580D01*
X149416971Y-154071580D01*
X143225923Y-149093180D02*
X142892590Y-148616990D01*
X142654495Y-149093180D02*
X142654495Y-148093180D01*
X143035447Y-148093180D01*
X143130685Y-148140800D01*
X143178304Y-148188419D01*
X143225923Y-148283657D01*
X143225923Y-148426514D01*
X143178304Y-148521752D01*
X143130685Y-148569371D01*
X143035447Y-148616990D01*
X142654495Y-148616990D01*
X143654495Y-149093180D02*
X143654495Y-148093180D01*
X144225923Y-149093180D01*
X144225923Y-148093180D01*
X145130685Y-148093180D02*
X144940209Y-148093180D01*
X144844971Y-148140800D01*
X144797352Y-148188419D01*
X144702114Y-148331276D01*
X144654495Y-148521752D01*
X144654495Y-148902704D01*
X144702114Y-148997942D01*
X144749733Y-149045561D01*
X144844971Y-149093180D01*
X145035447Y-149093180D01*
X145130685Y-149045561D01*
X145178304Y-148997942D01*
X145225923Y-148902704D01*
X145225923Y-148664609D01*
X145178304Y-148569371D01*
X145130685Y-148521752D01*
X145035447Y-148474133D01*
X144844971Y-148474133D01*
X144749733Y-148521752D01*
X144702114Y-148569371D01*
X144654495Y-148664609D01*
X148509123Y-149245580D02*
X148175790Y-148769390D01*
X147937695Y-149245580D02*
X147937695Y-148245580D01*
X148318647Y-148245580D01*
X148413885Y-148293200D01*
X148461504Y-148340819D01*
X148509123Y-148436057D01*
X148509123Y-148578914D01*
X148461504Y-148674152D01*
X148413885Y-148721771D01*
X148318647Y-148769390D01*
X147937695Y-148769390D01*
X148937695Y-149245580D02*
X148937695Y-148245580D01*
X149509123Y-149245580D01*
X149509123Y-148245580D01*
X150461504Y-148245580D02*
X149985314Y-148245580D01*
X149937695Y-148721771D01*
X149985314Y-148674152D01*
X150080552Y-148626533D01*
X150318647Y-148626533D01*
X150413885Y-148674152D01*
X150461504Y-148721771D01*
X150509123Y-148817009D01*
X150509123Y-149055104D01*
X150461504Y-149150342D01*
X150413885Y-149197961D01*
X150318647Y-149245580D01*
X150080552Y-149245580D01*
X149985314Y-149197961D01*
X149937695Y-149150342D01*
X154432095Y-140269980D02*
X154432095Y-141079504D01*
X154479714Y-141174742D01*
X154527333Y-141222361D01*
X154622571Y-141269980D01*
X154813047Y-141269980D01*
X154908285Y-141222361D01*
X154955904Y-141174742D01*
X155003523Y-141079504D01*
X155003523Y-140269980D01*
X155622571Y-140698552D02*
X155527333Y-140650933D01*
X155479714Y-140603314D01*
X155432095Y-140508076D01*
X155432095Y-140460457D01*
X155479714Y-140365219D01*
X155527333Y-140317600D01*
X155622571Y-140269980D01*
X155813047Y-140269980D01*
X155908285Y-140317600D01*
X155955904Y-140365219D01*
X156003523Y-140460457D01*
X156003523Y-140508076D01*
X155955904Y-140603314D01*
X155908285Y-140650933D01*
X155813047Y-140698552D01*
X155622571Y-140698552D01*
X155527333Y-140746171D01*
X155479714Y-140793790D01*
X155432095Y-140889028D01*
X155432095Y-141079504D01*
X155479714Y-141174742D01*
X155527333Y-141222361D01*
X155622571Y-141269980D01*
X155813047Y-141269980D01*
X155908285Y-141222361D01*
X155955904Y-141174742D01*
X156003523Y-141079504D01*
X156003523Y-140889028D01*
X155955904Y-140793790D01*
X155908285Y-140746171D01*
X155813047Y-140698552D01*
X142036895Y-136967980D02*
X142036895Y-137777504D01*
X142084514Y-137872742D01*
X142132133Y-137920361D01*
X142227371Y-137967980D01*
X142417847Y-137967980D01*
X142513085Y-137920361D01*
X142560704Y-137872742D01*
X142608323Y-137777504D01*
X142608323Y-136967980D01*
X142989276Y-136967980D02*
X143655942Y-136967980D01*
X143227371Y-137967980D01*
X226242886Y-119210471D02*
X225365223Y-119825018D01*
X225148721Y-119889416D01*
X224949760Y-119854334D01*
X224768340Y-119719771D01*
X224686400Y-119602749D01*
X226570644Y-119678558D02*
X227144221Y-120497710D01*
X225546765Y-120831477D01*
X196971666Y-94514285D02*
X196971666Y-94038095D01*
X197257380Y-94609523D02*
X196257380Y-94276190D01*
X197257380Y-93942857D01*
X197257380Y-93085714D02*
X197257380Y-93657142D01*
X197257380Y-93371428D02*
X196257380Y-93371428D01*
X196400238Y-93466666D01*
X196495476Y-93561904D01*
X196543095Y-93657142D01*
X196641980Y-95878685D02*
X196641980Y-96450114D01*
X196641980Y-96164400D02*
X195641980Y-96164400D01*
X195784838Y-96259638D01*
X195880076Y-96354876D01*
X195927695Y-96450114D01*
X195652380Y-91633333D02*
X195652380Y-91014285D01*
X196033333Y-91347619D01*
X196033333Y-91204761D01*
X196080952Y-91109523D01*
X196128571Y-91061904D01*
X196223809Y-91014285D01*
X196461904Y-91014285D01*
X196557142Y-91061904D01*
X196604761Y-91109523D01*
X196652380Y-91204761D01*
X196652380Y-91490476D01*
X196604761Y-91585714D01*
X196557142Y-91633333D01*
X209757142Y-166616666D02*
X209804761Y-166664285D01*
X209852380Y-166807142D01*
X209852380Y-166902380D01*
X209804761Y-167045238D01*
X209709523Y-167140476D01*
X209614285Y-167188095D01*
X209423809Y-167235714D01*
X209280952Y-167235714D01*
X209090476Y-167188095D01*
X208995238Y-167140476D01*
X208900000Y-167045238D01*
X208852380Y-166902380D01*
X208852380Y-166807142D01*
X208900000Y-166664285D01*
X208947619Y-166616666D01*
X208852380Y-165759523D02*
X208852380Y-165950000D01*
X208900000Y-166045238D01*
X208947619Y-166092857D01*
X209090476Y-166188095D01*
X209280952Y-166235714D01*
X209661904Y-166235714D01*
X209757142Y-166188095D01*
X209804761Y-166140476D01*
X209852380Y-166045238D01*
X209852380Y-165854761D01*
X209804761Y-165759523D01*
X209757142Y-165711904D01*
X209661904Y-165664285D01*
X209423809Y-165664285D01*
X209328571Y-165711904D01*
X209280952Y-165759523D01*
X209233333Y-165854761D01*
X209233333Y-166045238D01*
X209280952Y-166140476D01*
X209328571Y-166188095D01*
X209423809Y-166235714D01*
X177106342Y-124867942D02*
X177058723Y-124915561D01*
X176915866Y-124963180D01*
X176820628Y-124963180D01*
X176677771Y-124915561D01*
X176582533Y-124820323D01*
X176534914Y-124725085D01*
X176487295Y-124534609D01*
X176487295Y-124391752D01*
X176534914Y-124201276D01*
X176582533Y-124106038D01*
X176677771Y-124010800D01*
X176820628Y-123963180D01*
X176915866Y-123963180D01*
X177058723Y-124010800D01*
X177106342Y-124058419D01*
X178058723Y-124963180D02*
X177487295Y-124963180D01*
X177773009Y-124963180D02*
X177773009Y-123963180D01*
X177677771Y-124106038D01*
X177582533Y-124201276D01*
X177487295Y-124248895D01*
X179011104Y-124963180D02*
X178439676Y-124963180D01*
X178725390Y-124963180D02*
X178725390Y-123963180D01*
X178630152Y-124106038D01*
X178534914Y-124201276D01*
X178439676Y-124248895D01*
X224181942Y-132570457D02*
X224229561Y-132618076D01*
X224277180Y-132760933D01*
X224277180Y-132856171D01*
X224229561Y-132999028D01*
X224134323Y-133094266D01*
X224039085Y-133141885D01*
X223848609Y-133189504D01*
X223705752Y-133189504D01*
X223515276Y-133141885D01*
X223420038Y-133094266D01*
X223324800Y-132999028D01*
X223277180Y-132856171D01*
X223277180Y-132760933D01*
X223324800Y-132618076D01*
X223372419Y-132570457D01*
X223610514Y-131713314D02*
X224277180Y-131713314D01*
X223229561Y-131951409D02*
X223943847Y-132189504D01*
X223943847Y-131570457D01*
X224277180Y-130665695D02*
X224277180Y-131237123D01*
X224277180Y-130951409D02*
X223277180Y-130951409D01*
X223420038Y-131046647D01*
X223515276Y-131141885D01*
X223562895Y-131237123D01*
X188059523Y-102702380D02*
X187726190Y-102226190D01*
X187488095Y-102702380D02*
X187488095Y-101702380D01*
X187869047Y-101702380D01*
X187964285Y-101750000D01*
X188011904Y-101797619D01*
X188059523Y-101892857D01*
X188059523Y-102035714D01*
X188011904Y-102130952D01*
X187964285Y-102178571D01*
X187869047Y-102226190D01*
X187488095Y-102226190D01*
X188488095Y-102702380D02*
X188488095Y-101702380D01*
X189059523Y-102702380D01*
X189059523Y-101702380D01*
X189488095Y-101797619D02*
X189535714Y-101750000D01*
X189630952Y-101702380D01*
X189869047Y-101702380D01*
X189964285Y-101750000D01*
X190011904Y-101797619D01*
X190059523Y-101892857D01*
X190059523Y-101988095D01*
X190011904Y-102130952D01*
X189440476Y-102702380D01*
X190059523Y-102702380D01*
X175722380Y-91539523D02*
X176436666Y-91539523D01*
X176579523Y-91587142D01*
X176674761Y-91682380D01*
X176722380Y-91825238D01*
X176722380Y-91920476D01*
X175817619Y-91110952D02*
X175770000Y-91063333D01*
X175722380Y-90968095D01*
X175722380Y-90730000D01*
X175770000Y-90634761D01*
X175817619Y-90587142D01*
X175912857Y-90539523D01*
X176008095Y-90539523D01*
X176150952Y-90587142D01*
X176722380Y-91158571D01*
X176722380Y-90539523D01*
X175722380Y-90206190D02*
X175722380Y-89587142D01*
X176103333Y-89920476D01*
X176103333Y-89777619D01*
X176150952Y-89682380D01*
X176198571Y-89634761D01*
X176293809Y-89587142D01*
X176531904Y-89587142D01*
X176627142Y-89634761D01*
X176674761Y-89682380D01*
X176722380Y-89777619D01*
X176722380Y-90063333D01*
X176674761Y-90158571D01*
X176627142Y-90206190D01*
X218482990Y-176682780D02*
X218816323Y-177682780D01*
X219149657Y-176682780D01*
X219482990Y-177682780D02*
X219482990Y-177016114D01*
X219482990Y-176682780D02*
X219435371Y-176730400D01*
X219482990Y-176778019D01*
X219530609Y-176730400D01*
X219482990Y-176682780D01*
X219482990Y-176778019D01*
X219959180Y-177016114D02*
X219959180Y-177682780D01*
X219959180Y-177111352D02*
X220006800Y-177063733D01*
X220102038Y-177016114D01*
X220244895Y-177016114D01*
X220340133Y-177063733D01*
X220387752Y-177158971D01*
X220387752Y-177682780D01*
X200202380Y-170211904D02*
X201011904Y-170211904D01*
X201107142Y-170164285D01*
X201154761Y-170116666D01*
X201202380Y-170021428D01*
X201202380Y-169830952D01*
X201154761Y-169735714D01*
X201107142Y-169688095D01*
X201011904Y-169640476D01*
X200202380Y-169640476D01*
X200297619Y-169211904D02*
X200250000Y-169164285D01*
X200202380Y-169069047D01*
X200202380Y-168830952D01*
X200250000Y-168735714D01*
X200297619Y-168688095D01*
X200392857Y-168640476D01*
X200488095Y-168640476D01*
X200630952Y-168688095D01*
X201202380Y-169259523D01*
X201202380Y-168640476D01*
X143183990Y-117486572D02*
X143198566Y-117552319D01*
X143161970Y-117698389D01*
X143110799Y-117778712D01*
X142993880Y-117873611D01*
X142862386Y-117902763D01*
X142756477Y-117891753D01*
X142570245Y-117829571D01*
X142449761Y-117752814D01*
X142314700Y-117610310D01*
X142259963Y-117518977D01*
X142230812Y-117387483D01*
X142267407Y-117241413D01*
X142318579Y-117161090D01*
X142435497Y-117066191D01*
X142501244Y-117051615D01*
X142753535Y-116478344D02*
X142855878Y-116317698D01*
X142947211Y-116262961D01*
X143078705Y-116233809D01*
X143264937Y-116295991D01*
X143546068Y-116475090D01*
X143681128Y-116617595D01*
X143710280Y-116749089D01*
X143699270Y-116854998D01*
X143596927Y-117015644D01*
X143505594Y-117070381D01*
X143374100Y-117099533D01*
X143187868Y-117037351D01*
X142906737Y-116858252D01*
X142771677Y-116715747D01*
X142742525Y-116584253D01*
X142753535Y-116478344D01*
X144057469Y-116292737D02*
X143214078Y-115755437D01*
X143995600Y-115858092D01*
X143572278Y-115193176D01*
X144415669Y-115730476D01*
X143882872Y-114882894D02*
X143868296Y-114817147D01*
X143879306Y-114711238D01*
X144007234Y-114510431D01*
X144098567Y-114455694D01*
X144164315Y-114441118D01*
X144270223Y-114452128D01*
X144350546Y-114503299D01*
X144445445Y-114620218D01*
X144620355Y-115409184D01*
X144952969Y-114887084D01*
X137674614Y-157808060D02*
X137611332Y-157785028D01*
X137507800Y-157675680D01*
X137467551Y-157589365D01*
X137450335Y-157439768D01*
X137496400Y-157313203D01*
X137562591Y-157229796D01*
X137715096Y-157106140D01*
X137844568Y-157045766D01*
X138037323Y-157008425D01*
X138143763Y-157011333D01*
X138270327Y-157057399D01*
X138373859Y-157166746D01*
X138414108Y-157253062D01*
X138431325Y-157402659D01*
X138408292Y-157465941D01*
X138756228Y-157986739D02*
X138836726Y-158159369D01*
X138833818Y-158265809D01*
X138787753Y-158392373D01*
X138635247Y-158516030D01*
X138333145Y-158656902D01*
X138140390Y-158694244D01*
X138013826Y-158648178D01*
X137930419Y-158581988D01*
X137849920Y-158409358D01*
X137852828Y-158302918D01*
X137898894Y-158176353D01*
X138051399Y-158052697D01*
X138353502Y-157911824D01*
X138546256Y-157874483D01*
X138672821Y-157920549D01*
X138756228Y-157986739D01*
X138212164Y-159186193D02*
X139118472Y-158763575D01*
X138611982Y-159367547D01*
X139400217Y-159367780D01*
X138493910Y-159790398D01*
X138916528Y-160696706D02*
X138675032Y-160178816D01*
X138795780Y-160437761D02*
X139702088Y-160015142D01*
X139532366Y-159989201D01*
X139405801Y-159943136D01*
X139322395Y-159876945D01*
X141604552Y-165709729D02*
X141539504Y-165692300D01*
X141426836Y-165592391D01*
X141379217Y-165509913D01*
X141349027Y-165362385D01*
X141383887Y-165232287D01*
X141442556Y-165143429D01*
X141583704Y-165006952D01*
X141707422Y-164935523D01*
X141896188Y-164881524D01*
X142002476Y-164875145D01*
X142132574Y-164910004D01*
X142245242Y-165009913D01*
X142292861Y-165092391D01*
X142323050Y-165239919D01*
X142305621Y-165304967D01*
X142697623Y-165793459D02*
X142792861Y-165958417D01*
X142799241Y-166064705D01*
X142764381Y-166194802D01*
X142623234Y-166331280D01*
X142334558Y-166497946D01*
X142145792Y-166551945D01*
X142015694Y-166517086D01*
X141926836Y-166458417D01*
X141831598Y-166293459D01*
X141825218Y-166187171D01*
X141860077Y-166057074D01*
X142001225Y-165920596D01*
X142289900Y-165753930D01*
X142478667Y-165699931D01*
X142608765Y-165734790D01*
X142697623Y-165793459D01*
X142260169Y-167035767D02*
X143126194Y-166535767D01*
X142674271Y-167181585D01*
X143459528Y-167113117D01*
X142593502Y-167613117D01*
X143792861Y-167690467D02*
X143840480Y-167772946D01*
X143846860Y-167879234D01*
X143829430Y-167944283D01*
X143770761Y-168033141D01*
X143629613Y-168169619D01*
X143423417Y-168288666D01*
X143234650Y-168342665D01*
X143128362Y-168349045D01*
X143063313Y-168331615D01*
X142974455Y-168272946D01*
X142926836Y-168190467D01*
X142920456Y-168084179D01*
X142937886Y-168019130D01*
X142996555Y-167930272D01*
X143137702Y-167793795D01*
X143343899Y-167674747D01*
X143532666Y-167620748D01*
X143638954Y-167614369D01*
X143704003Y-167631798D01*
X143792861Y-167690467D01*
X149512400Y-163410590D02*
X149464780Y-163505828D01*
X149464780Y-163648685D01*
X149512400Y-163791542D01*
X149607638Y-163886780D01*
X149702876Y-163934400D01*
X149893352Y-163982019D01*
X150036209Y-163982019D01*
X150226685Y-163934400D01*
X150321923Y-163886780D01*
X150417161Y-163791542D01*
X150464780Y-163648685D01*
X150464780Y-163553447D01*
X150417161Y-163410590D01*
X150369542Y-163362971D01*
X150036209Y-163362971D01*
X150036209Y-163553447D01*
X150464780Y-162934400D02*
X149464780Y-162934400D01*
X149464780Y-162553447D01*
X149512400Y-162458209D01*
X149560019Y-162410590D01*
X149655257Y-162362971D01*
X149798114Y-162362971D01*
X149893352Y-162410590D01*
X149940971Y-162458209D01*
X149988590Y-162553447D01*
X149988590Y-162934400D01*
X150417161Y-161982019D02*
X150464780Y-161839161D01*
X150464780Y-161601066D01*
X150417161Y-161505828D01*
X150369542Y-161458209D01*
X150274304Y-161410590D01*
X150179066Y-161410590D01*
X150083828Y-161458209D01*
X150036209Y-161505828D01*
X149988590Y-161601066D01*
X149940971Y-161791542D01*
X149893352Y-161886780D01*
X149845733Y-161934400D01*
X149750495Y-161982019D01*
X149655257Y-161982019D01*
X149560019Y-161934400D01*
X149512400Y-161886780D01*
X149464780Y-161791542D01*
X149464780Y-161553447D01*
X149512400Y-161410590D01*
X150560019Y-161220114D02*
X150560019Y-160458209D01*
X149464780Y-160315352D02*
X149464780Y-159696304D01*
X149845733Y-160029638D01*
X149845733Y-159886780D01*
X149893352Y-159791542D01*
X149940971Y-159743923D01*
X150036209Y-159696304D01*
X150274304Y-159696304D01*
X150369542Y-159743923D01*
X150417161Y-159791542D01*
X150464780Y-159886780D01*
X150464780Y-160172495D01*
X150417161Y-160267733D01*
X150369542Y-160315352D01*
X149464780Y-159410590D02*
X150464780Y-159077257D01*
X149464780Y-158743923D01*
X149464780Y-158505828D02*
X149464780Y-157886780D01*
X149845733Y-158220114D01*
X149845733Y-158077257D01*
X149893352Y-157982019D01*
X149940971Y-157934400D01*
X150036209Y-157886780D01*
X150274304Y-157886780D01*
X150369542Y-157934400D01*
X150417161Y-157982019D01*
X150464780Y-158077257D01*
X150464780Y-158362971D01*
X150417161Y-158458209D01*
X150369542Y-158505828D01*
X173509523Y-97900000D02*
X173414285Y-97852380D01*
X173271428Y-97852380D01*
X173128571Y-97900000D01*
X173033333Y-97995238D01*
X172985714Y-98090476D01*
X172938095Y-98280952D01*
X172938095Y-98423809D01*
X172985714Y-98614285D01*
X173033333Y-98709523D01*
X173128571Y-98804761D01*
X173271428Y-98852380D01*
X173366666Y-98852380D01*
X173509523Y-98804761D01*
X173557142Y-98757142D01*
X173557142Y-98423809D01*
X173366666Y-98423809D01*
X173985714Y-98852380D02*
X173985714Y-97852380D01*
X174557142Y-98852380D01*
X174557142Y-97852380D01*
X175033333Y-98852380D02*
X175033333Y-97852380D01*
X175271428Y-97852380D01*
X175414285Y-97900000D01*
X175509523Y-97995238D01*
X175557142Y-98090476D01*
X175604761Y-98280952D01*
X175604761Y-98423809D01*
X175557142Y-98614285D01*
X175509523Y-98709523D01*
X175414285Y-98804761D01*
X175271428Y-98852380D01*
X175033333Y-98852380D01*
X175985714Y-98566666D02*
X176461904Y-98566666D01*
X175890476Y-98852380D02*
X176223809Y-97852380D01*
X176557142Y-98852380D01*
X167460990Y-159338971D02*
X167794323Y-159338971D01*
X167937180Y-159862780D02*
X167460990Y-159862780D01*
X167460990Y-158862780D01*
X167937180Y-158862780D01*
X168270514Y-158862780D02*
X168937180Y-159862780D01*
X168937180Y-158862780D02*
X168270514Y-159862780D01*
X169175276Y-158862780D02*
X169746704Y-158862780D01*
X169460990Y-159862780D02*
X169460990Y-158862780D01*
X169841942Y-159958019D02*
X170603847Y-159958019D01*
X170841942Y-159862780D02*
X170841942Y-158862780D01*
X171222895Y-158862780D01*
X171318133Y-158910400D01*
X171365752Y-158958019D01*
X171413371Y-159053257D01*
X171413371Y-159196114D01*
X171365752Y-159291352D01*
X171318133Y-159338971D01*
X171222895Y-159386590D01*
X170841942Y-159386590D01*
X171746704Y-158862780D02*
X171984800Y-159862780D01*
X172175276Y-159148495D01*
X172365752Y-159862780D01*
X172603847Y-158862780D01*
X173556228Y-159862780D02*
X173222895Y-159386590D01*
X172984800Y-159862780D02*
X172984800Y-158862780D01*
X173365752Y-158862780D01*
X173460990Y-158910400D01*
X173508609Y-158958019D01*
X173556228Y-159053257D01*
X173556228Y-159196114D01*
X173508609Y-159291352D01*
X173460990Y-159338971D01*
X173365752Y-159386590D01*
X172984800Y-159386590D01*
X197652380Y-163438095D02*
X196652380Y-163438095D01*
X196652380Y-163200000D01*
X196700000Y-163057142D01*
X196795238Y-162961904D01*
X196890476Y-162914285D01*
X197080952Y-162866666D01*
X197223809Y-162866666D01*
X197414285Y-162914285D01*
X197509523Y-162961904D01*
X197604761Y-163057142D01*
X197652380Y-163200000D01*
X197652380Y-163438095D01*
X196652380Y-162533333D02*
X196652380Y-161866666D01*
X197652380Y-162295238D01*
X146016742Y-157887942D02*
X145969123Y-157935561D01*
X145826266Y-157983180D01*
X145731028Y-157983180D01*
X145588171Y-157935561D01*
X145492933Y-157840323D01*
X145445314Y-157745085D01*
X145397695Y-157554609D01*
X145397695Y-157411752D01*
X145445314Y-157221276D01*
X145492933Y-157126038D01*
X145588171Y-157030800D01*
X145731028Y-156983180D01*
X145826266Y-156983180D01*
X145969123Y-157030800D01*
X146016742Y-157078419D01*
X146397695Y-157078419D02*
X146445314Y-157030800D01*
X146540552Y-156983180D01*
X146778647Y-156983180D01*
X146873885Y-157030800D01*
X146921504Y-157078419D01*
X146969123Y-157173657D01*
X146969123Y-157268895D01*
X146921504Y-157411752D01*
X146350076Y-157983180D01*
X146969123Y-157983180D01*
X147588171Y-156983180D02*
X147683409Y-156983180D01*
X147778647Y-157030800D01*
X147826266Y-157078419D01*
X147873885Y-157173657D01*
X147921504Y-157364133D01*
X147921504Y-157602228D01*
X147873885Y-157792704D01*
X147826266Y-157887942D01*
X147778647Y-157935561D01*
X147683409Y-157983180D01*
X147588171Y-157983180D01*
X147492933Y-157935561D01*
X147445314Y-157887942D01*
X147397695Y-157792704D01*
X147350076Y-157602228D01*
X147350076Y-157364133D01*
X147397695Y-157173657D01*
X147445314Y-157078419D01*
X147492933Y-157030800D01*
X147588171Y-156983180D01*
X217019142Y-164066457D02*
X217066761Y-164114076D01*
X217114380Y-164256933D01*
X217114380Y-164352171D01*
X217066761Y-164495028D01*
X216971523Y-164590266D01*
X216876285Y-164637885D01*
X216685809Y-164685504D01*
X216542952Y-164685504D01*
X216352476Y-164637885D01*
X216257238Y-164590266D01*
X216162000Y-164495028D01*
X216114380Y-164352171D01*
X216114380Y-164256933D01*
X216162000Y-164114076D01*
X216209619Y-164066457D01*
X217114380Y-163114076D02*
X217114380Y-163685504D01*
X217114380Y-163399790D02*
X216114380Y-163399790D01*
X216257238Y-163495028D01*
X216352476Y-163590266D01*
X216400095Y-163685504D01*
X216114380Y-162495028D02*
X216114380Y-162399790D01*
X216162000Y-162304552D01*
X216209619Y-162256933D01*
X216304857Y-162209314D01*
X216495333Y-162161695D01*
X216733428Y-162161695D01*
X216923904Y-162209314D01*
X217019142Y-162256933D01*
X217066761Y-162304552D01*
X217114380Y-162399790D01*
X217114380Y-162495028D01*
X217066761Y-162590266D01*
X217019142Y-162637885D01*
X216923904Y-162685504D01*
X216733428Y-162733123D01*
X216495333Y-162733123D01*
X216304857Y-162685504D01*
X216209619Y-162637885D01*
X216162000Y-162590266D01*
X216114380Y-162495028D01*
X217019142Y-152007866D02*
X217066761Y-152055485D01*
X217114380Y-152198342D01*
X217114380Y-152293580D01*
X217066761Y-152436438D01*
X216971523Y-152531676D01*
X216876285Y-152579295D01*
X216685809Y-152626914D01*
X216542952Y-152626914D01*
X216352476Y-152579295D01*
X216257238Y-152531676D01*
X216162000Y-152436438D01*
X216114380Y-152293580D01*
X216114380Y-152198342D01*
X216162000Y-152055485D01*
X216209619Y-152007866D01*
X217114380Y-151531676D02*
X217114380Y-151341200D01*
X217066761Y-151245961D01*
X217019142Y-151198342D01*
X216876285Y-151103104D01*
X216685809Y-151055485D01*
X216304857Y-151055485D01*
X216209619Y-151103104D01*
X216162000Y-151150723D01*
X216114380Y-151245961D01*
X216114380Y-151436438D01*
X216162000Y-151531676D01*
X216209619Y-151579295D01*
X216304857Y-151626914D01*
X216542952Y-151626914D01*
X216638190Y-151579295D01*
X216685809Y-151531676D01*
X216733428Y-151436438D01*
X216733428Y-151245961D01*
X216685809Y-151150723D01*
X216638190Y-151103104D01*
X216542952Y-151055485D01*
X198997142Y-166916666D02*
X199044761Y-166964285D01*
X199092380Y-167107142D01*
X199092380Y-167202380D01*
X199044761Y-167345238D01*
X198949523Y-167440476D01*
X198854285Y-167488095D01*
X198663809Y-167535714D01*
X198520952Y-167535714D01*
X198330476Y-167488095D01*
X198235238Y-167440476D01*
X198140000Y-167345238D01*
X198092380Y-167202380D01*
X198092380Y-167107142D01*
X198140000Y-166964285D01*
X198187619Y-166916666D01*
X198520952Y-166345238D02*
X198473333Y-166440476D01*
X198425714Y-166488095D01*
X198330476Y-166535714D01*
X198282857Y-166535714D01*
X198187619Y-166488095D01*
X198140000Y-166440476D01*
X198092380Y-166345238D01*
X198092380Y-166154761D01*
X198140000Y-166059523D01*
X198187619Y-166011904D01*
X198282857Y-165964285D01*
X198330476Y-165964285D01*
X198425714Y-166011904D01*
X198473333Y-166059523D01*
X198520952Y-166154761D01*
X198520952Y-166345238D01*
X198568571Y-166440476D01*
X198616190Y-166488095D01*
X198711428Y-166535714D01*
X198901904Y-166535714D01*
X198997142Y-166488095D01*
X199044761Y-166440476D01*
X199092380Y-166345238D01*
X199092380Y-166154761D01*
X199044761Y-166059523D01*
X198997142Y-166011904D01*
X198901904Y-165964285D01*
X198711428Y-165964285D01*
X198616190Y-166011904D01*
X198568571Y-166059523D01*
X198520952Y-166154761D01*
X205907142Y-168966666D02*
X205954761Y-169014285D01*
X206002380Y-169157142D01*
X206002380Y-169252380D01*
X205954761Y-169395238D01*
X205859523Y-169490476D01*
X205764285Y-169538095D01*
X205573809Y-169585714D01*
X205430952Y-169585714D01*
X205240476Y-169538095D01*
X205145238Y-169490476D01*
X205050000Y-169395238D01*
X205002380Y-169252380D01*
X205002380Y-169157142D01*
X205050000Y-169014285D01*
X205097619Y-168966666D01*
X205002380Y-168633333D02*
X205002380Y-167966666D01*
X206002380Y-168395238D01*
X175033686Y-106300718D02*
X175446079Y-106538813D01*
X174808350Y-106500535D02*
X175597025Y-105801176D01*
X175385700Y-106833868D01*
X175674376Y-107000535D02*
X176174376Y-106134509D01*
X176380572Y-106253557D01*
X176480481Y-106366225D01*
X176515340Y-106496323D01*
X176508960Y-106602611D01*
X176454962Y-106791377D01*
X176383533Y-106915095D01*
X176247056Y-107056243D01*
X176158197Y-107114912D01*
X176028100Y-107149772D01*
X175880572Y-107119582D01*
X175674376Y-107000535D01*
X177082892Y-107703770D02*
X177017843Y-107721200D01*
X176870315Y-107691011D01*
X176787837Y-107643392D01*
X176687928Y-107530724D01*
X176653069Y-107400626D01*
X176659449Y-107294338D01*
X176713447Y-107105572D01*
X176784876Y-106981854D01*
X176921353Y-106840706D01*
X177010212Y-106782037D01*
X177140309Y-106747177D01*
X177287837Y-106777367D01*
X177370315Y-106824986D01*
X177470224Y-106937653D01*
X177487654Y-107002702D01*
X177817568Y-107193178D02*
X177882617Y-107175749D01*
X177988905Y-107182128D01*
X178195102Y-107301176D01*
X178253771Y-107390034D01*
X178271200Y-107455083D01*
X178264821Y-107561371D01*
X178217202Y-107643850D01*
X178104534Y-107743758D01*
X177323948Y-107952916D01*
X177860059Y-108262440D01*
X178935700Y-108113661D02*
X178602366Y-108691011D01*
X178919979Y-107664699D02*
X178356640Y-108164241D01*
X178892751Y-108473764D01*
X178802183Y-108916347D02*
X179462012Y-109297299D01*
X180380785Y-108563081D02*
X180545742Y-108658319D01*
X180604411Y-108747177D01*
X180639271Y-108877275D01*
X180585272Y-109066042D01*
X180418605Y-109354717D01*
X180282128Y-109495865D01*
X180152030Y-109530724D01*
X180045742Y-109524344D01*
X179880785Y-109429106D01*
X179822116Y-109340248D01*
X179787256Y-109210150D01*
X179841255Y-109021383D01*
X180007922Y-108732708D01*
X180144399Y-108591561D01*
X180274497Y-108556701D01*
X180380785Y-108563081D01*
X180623092Y-109857678D02*
X181123092Y-108991652D01*
X181117964Y-110143392D01*
X181617964Y-109277367D01*
X181983989Y-110643392D02*
X181489118Y-110357678D01*
X181736553Y-110500535D02*
X182236553Y-109634509D01*
X182082646Y-109710608D01*
X181952549Y-109745468D01*
X181846260Y-109739088D01*
X174243004Y-103425747D02*
X174655397Y-103663842D01*
X174017668Y-103625563D02*
X174806343Y-102926205D01*
X174595018Y-103958897D01*
X174883694Y-104125563D02*
X175383694Y-103259538D01*
X175589890Y-103378586D01*
X175689798Y-103491253D01*
X175724658Y-103621351D01*
X175718278Y-103727639D01*
X175664279Y-103916406D01*
X175592851Y-104040124D01*
X175456373Y-104181272D01*
X175367515Y-104239941D01*
X175237417Y-104274800D01*
X175089890Y-104244611D01*
X174883694Y-104125563D01*
X176292210Y-104828799D02*
X176227161Y-104846229D01*
X176079633Y-104816040D01*
X175997155Y-104768421D01*
X175897246Y-104655753D01*
X175862387Y-104525655D01*
X175868767Y-104419367D01*
X175922765Y-104230600D01*
X175994194Y-104106882D01*
X176130671Y-103965734D01*
X176219530Y-103907065D01*
X176349627Y-103872206D01*
X176497155Y-103902395D01*
X176579633Y-103950014D01*
X176679542Y-104062682D01*
X176696972Y-104127731D01*
X177026886Y-104318207D02*
X177091935Y-104300777D01*
X177198223Y-104307157D01*
X177404419Y-104426205D01*
X177463089Y-104515063D01*
X177480518Y-104580112D01*
X177474139Y-104686400D01*
X177426520Y-104768879D01*
X177313852Y-104868787D01*
X176533266Y-105077944D01*
X177069377Y-105387468D01*
X178145017Y-105238689D02*
X177811684Y-105816040D01*
X178129297Y-104789727D02*
X177565958Y-105289269D01*
X178102069Y-105598793D01*
X178011501Y-106041375D02*
X178671330Y-106422328D01*
X179342667Y-105545252D02*
X179878778Y-105854776D01*
X179399626Y-106018024D01*
X179523344Y-106089452D01*
X179582013Y-106178311D01*
X179599443Y-106243360D01*
X179593063Y-106349648D01*
X179474016Y-106555844D01*
X179385157Y-106614513D01*
X179320109Y-106631943D01*
X179213821Y-106625563D01*
X178966385Y-106482706D01*
X178907716Y-106393848D01*
X178890286Y-106328799D01*
X180126214Y-105997633D02*
X179914889Y-107030325D01*
X180703564Y-106330967D01*
X180909760Y-106450014D02*
X181445871Y-106759538D01*
X180966720Y-106922786D01*
X181090438Y-106994214D01*
X181149107Y-107083073D01*
X181166537Y-107148121D01*
X181160157Y-107254410D01*
X181041109Y-107460606D01*
X180952251Y-107519275D01*
X180887202Y-107536705D01*
X180780914Y-107530325D01*
X180533478Y-107387468D01*
X180474809Y-107298610D01*
X180457379Y-107233561D01*
X215482419Y-121424628D02*
X215434800Y-121519866D01*
X215339561Y-121615104D01*
X215196704Y-121757961D01*
X215149085Y-121853200D01*
X215149085Y-121948438D01*
X215387180Y-121900819D02*
X215339561Y-121996057D01*
X215244323Y-122091295D01*
X215053847Y-122138914D01*
X214720514Y-122138914D01*
X214530038Y-122091295D01*
X214434800Y-121996057D01*
X214387180Y-121900819D01*
X214387180Y-121710342D01*
X214434800Y-121615104D01*
X214530038Y-121519866D01*
X214720514Y-121472247D01*
X215053847Y-121472247D01*
X215244323Y-121519866D01*
X215339561Y-121615104D01*
X215387180Y-121710342D01*
X215387180Y-121900819D01*
X215387180Y-120519866D02*
X215387180Y-121091295D01*
X215387180Y-120805580D02*
X214387180Y-120805580D01*
X214530038Y-120900819D01*
X214625276Y-120996057D01*
X214672895Y-121091295D01*
X215387180Y-119567485D02*
X215387180Y-120138914D01*
X215387180Y-119853200D02*
X214387180Y-119853200D01*
X214530038Y-119948438D01*
X214625276Y-120043676D01*
X214672895Y-120138914D01*
X146865431Y-114569081D02*
X146831759Y-114468066D01*
X146831759Y-114333379D01*
X146831759Y-114131348D01*
X146798087Y-114030333D01*
X146730744Y-113962990D01*
X146596057Y-114165020D02*
X146562385Y-114064005D01*
X146562385Y-113929318D01*
X146663400Y-113760959D01*
X146899103Y-113525257D01*
X147067461Y-113424242D01*
X147202148Y-113424242D01*
X147303164Y-113457913D01*
X147437851Y-113592600D01*
X147471522Y-113693616D01*
X147471522Y-113828303D01*
X147370507Y-113996661D01*
X147134805Y-114232364D01*
X146966446Y-114333379D01*
X146831759Y-114333379D01*
X146730744Y-114299707D01*
X146596057Y-114165020D01*
X148212301Y-114367051D02*
X148077614Y-114232364D01*
X147976599Y-114198692D01*
X147909255Y-114198692D01*
X147740896Y-114232364D01*
X147572538Y-114333379D01*
X147303164Y-114602753D01*
X147269492Y-114703768D01*
X147269492Y-114771112D01*
X147303164Y-114872127D01*
X147437851Y-115006814D01*
X147538866Y-115040486D01*
X147606209Y-115040486D01*
X147707225Y-115006814D01*
X147875583Y-114838455D01*
X147909255Y-114737440D01*
X147909255Y-114670096D01*
X147875583Y-114569081D01*
X147740896Y-114434394D01*
X147639881Y-114400722D01*
X147572538Y-114400722D01*
X147471522Y-114434394D01*
X147764666Y-170378380D02*
X147431333Y-169902190D01*
X147193238Y-170378380D02*
X147193238Y-169378380D01*
X147574190Y-169378380D01*
X147669428Y-169426000D01*
X147717047Y-169473619D01*
X147764666Y-169568857D01*
X147764666Y-169711714D01*
X147717047Y-169806952D01*
X147669428Y-169854571D01*
X147574190Y-169902190D01*
X147193238Y-169902190D01*
X148193238Y-169854571D02*
X148526571Y-169854571D01*
X148669428Y-170378380D02*
X148193238Y-170378380D01*
X148193238Y-169378380D01*
X148669428Y-169378380D01*
X149431333Y-169854571D02*
X149098000Y-169854571D01*
X149098000Y-170378380D02*
X149098000Y-169378380D01*
X149574190Y-169378380D01*
X150098000Y-169378380D02*
X150098000Y-169616476D01*
X149859904Y-169521238D02*
X150098000Y-169616476D01*
X150336095Y-169521238D01*
X149955142Y-169806952D02*
X150098000Y-169616476D01*
X150240857Y-169806952D01*
X150859904Y-169378380D02*
X150859904Y-169616476D01*
X150621809Y-169521238D02*
X150859904Y-169616476D01*
X151098000Y-169521238D01*
X150717047Y-169806952D02*
X150859904Y-169616476D01*
X151002761Y-169806952D01*
X226658267Y-164679081D02*
X226770935Y-164579173D01*
X226889982Y-164372976D01*
X226896362Y-164266688D01*
X226878932Y-164201639D01*
X226820263Y-164112781D01*
X226737785Y-164065162D01*
X226631497Y-164058782D01*
X226566448Y-164076212D01*
X226477589Y-164134881D01*
X226341112Y-164276029D01*
X226252254Y-164334698D01*
X226187205Y-164352127D01*
X226080917Y-164345748D01*
X225998438Y-164298129D01*
X225939769Y-164209270D01*
X225922339Y-164144221D01*
X225928719Y-164037933D01*
X226047767Y-163831737D01*
X226160434Y-163731828D01*
X226285862Y-163419344D02*
X227270935Y-163713147D01*
X226747583Y-163191047D01*
X227461411Y-163383233D01*
X226714433Y-162677036D01*
X228032840Y-162393489D02*
X227747125Y-162888361D01*
X227889982Y-162640925D02*
X227023957Y-162140925D01*
X227100056Y-162294832D01*
X227134915Y-162424930D01*
X227128536Y-162531218D01*
X213410966Y-170581580D02*
X213077633Y-170105390D01*
X212839538Y-170581580D02*
X212839538Y-169581580D01*
X213220490Y-169581580D01*
X213315728Y-169629200D01*
X213363347Y-169676819D01*
X213410966Y-169772057D01*
X213410966Y-169914914D01*
X213363347Y-170010152D01*
X213315728Y-170057771D01*
X213220490Y-170105390D01*
X212839538Y-170105390D01*
X213839538Y-170057771D02*
X214172871Y-170057771D01*
X214315728Y-170581580D02*
X213839538Y-170581580D01*
X213839538Y-169581580D01*
X214315728Y-169581580D01*
X215077633Y-170057771D02*
X214744300Y-170057771D01*
X214744300Y-170581580D02*
X214744300Y-169581580D01*
X215220490Y-169581580D01*
X215744300Y-169581580D02*
X215744300Y-169819676D01*
X215506204Y-169724438D02*
X215744300Y-169819676D01*
X215982395Y-169724438D01*
X215601442Y-170010152D02*
X215744300Y-169819676D01*
X215887157Y-170010152D01*
X216506204Y-169581580D02*
X216506204Y-169819676D01*
X216268109Y-169724438D02*
X216506204Y-169819676D01*
X216744300Y-169724438D01*
X216363347Y-170010152D02*
X216506204Y-169819676D01*
X216649061Y-170010152D01*
X140201577Y-123417809D02*
X140224610Y-123481091D01*
X140207393Y-123630688D01*
X140167144Y-123717003D01*
X140063612Y-123826351D01*
X139937048Y-123872417D01*
X139830608Y-123875325D01*
X139637853Y-123837984D01*
X139508381Y-123777610D01*
X139355876Y-123653953D01*
X139289685Y-123570546D01*
X139243619Y-123443982D01*
X139260836Y-123294385D01*
X139301085Y-123208070D01*
X139404617Y-123098722D01*
X139467899Y-123075689D01*
X139643205Y-122474392D02*
X139723704Y-122301762D01*
X139807111Y-122235572D01*
X139933675Y-122189506D01*
X140126430Y-122226847D01*
X140428532Y-122367720D01*
X140581038Y-122491376D01*
X140627103Y-122617941D01*
X140630011Y-122724380D01*
X140549513Y-122897010D01*
X140466106Y-122963201D01*
X140339541Y-123009266D01*
X140146787Y-122971925D01*
X139844684Y-122831052D01*
X139692179Y-122707396D01*
X139646113Y-122580832D01*
X139643205Y-122474392D01*
X140911757Y-122120175D02*
X140005449Y-121697557D01*
X140793685Y-121697324D01*
X140287195Y-121093352D01*
X141193502Y-121515970D01*
X140448192Y-120748092D02*
X140709813Y-120187044D01*
X140914200Y-120650144D01*
X140974574Y-120520671D01*
X141057981Y-120454481D01*
X141121263Y-120431448D01*
X141227703Y-120428540D01*
X141443491Y-120529163D01*
X141509681Y-120612570D01*
X141532714Y-120675853D01*
X141535622Y-120782292D01*
X141414874Y-121041237D01*
X141331467Y-121107428D01*
X141268185Y-121130460D01*
X144823781Y-112672518D02*
X144057736Y-112029730D01*
X144302608Y-111737904D01*
X144400304Y-111695556D01*
X144467391Y-111689687D01*
X144570957Y-111714426D01*
X144680391Y-111806253D01*
X144722739Y-111903949D01*
X144728609Y-111971036D01*
X144703869Y-112074602D01*
X144458998Y-112366428D01*
X145466568Y-111906473D02*
X144955872Y-111477948D01*
X145101785Y-111600384D02*
X145059437Y-111502688D01*
X145053568Y-111435601D01*
X145078308Y-111332035D01*
X145139526Y-111259078D01*
X146072877Y-111109820D02*
X146048138Y-111213385D01*
X145925702Y-111359299D01*
X145828006Y-111401646D01*
X145724440Y-111376907D01*
X145432614Y-111132035D01*
X145390266Y-111034339D01*
X145415006Y-110930774D01*
X145537442Y-110784860D01*
X145635138Y-110742513D01*
X145738703Y-110767252D01*
X145811660Y-110828470D01*
X145578527Y-111254471D01*
X146348358Y-110781515D02*
X146446054Y-110739167D01*
X146568490Y-110593254D01*
X146593229Y-110489689D01*
X146550882Y-110391992D01*
X146514403Y-110361384D01*
X146410838Y-110336644D01*
X146313142Y-110378992D01*
X146221315Y-110488427D01*
X146123619Y-110530774D01*
X146020053Y-110506035D01*
X145983575Y-110475426D01*
X145941227Y-110377730D01*
X145965967Y-110274164D01*
X146057794Y-110164729D01*
X146155490Y-110122381D01*
X146868710Y-110161384D02*
X146966406Y-110119036D01*
X147088842Y-109973123D01*
X147113581Y-109869557D01*
X147071234Y-109771861D01*
X147034755Y-109741252D01*
X146931190Y-109716513D01*
X146833494Y-109758860D01*
X146741667Y-109868295D01*
X146643971Y-109910643D01*
X146540405Y-109885903D01*
X146503927Y-109855295D01*
X146461579Y-109757598D01*
X146486319Y-109654033D01*
X146578145Y-109544598D01*
X146675842Y-109502250D01*
X147220933Y-108778553D02*
X147731629Y-109207079D01*
X146945453Y-109106858D02*
X147346714Y-109443557D01*
X147450280Y-109468296D01*
X147547976Y-109425948D01*
X147639802Y-109316513D01*
X147664542Y-109212948D01*
X147658673Y-109145861D01*
X148037719Y-108842295D02*
X147527022Y-108413770D01*
X147672936Y-108536206D02*
X147630588Y-108438510D01*
X147624719Y-108371423D01*
X147649458Y-108267857D01*
X147710676Y-108194901D01*
X148644028Y-108045642D02*
X148619288Y-108149208D01*
X148496853Y-108295121D01*
X148399156Y-108337469D01*
X148295591Y-108312729D01*
X148003764Y-108067858D01*
X147961417Y-107970161D01*
X147986156Y-107866596D01*
X148108592Y-107720683D01*
X148206288Y-107678335D01*
X148309854Y-107703074D01*
X148382810Y-107764292D01*
X148149678Y-108190293D01*
X131083442Y-138095980D02*
X130750109Y-137619790D01*
X130512014Y-138095980D02*
X130512014Y-137095980D01*
X130892966Y-137095980D01*
X130988204Y-137143600D01*
X131035823Y-137191219D01*
X131083442Y-137286457D01*
X131083442Y-137429314D01*
X131035823Y-137524552D01*
X130988204Y-137572171D01*
X130892966Y-137619790D01*
X130512014Y-137619790D01*
X132035823Y-138095980D02*
X131464395Y-138095980D01*
X131750109Y-138095980D02*
X131750109Y-137095980D01*
X131654871Y-137238838D01*
X131559633Y-137334076D01*
X131464395Y-137381695D01*
X132892966Y-137429314D02*
X132892966Y-138095980D01*
X132654871Y-137048361D02*
X132416776Y-137762647D01*
X133035823Y-137762647D01*
X129071619Y-142640038D02*
X129024000Y-142735276D01*
X128928761Y-142830514D01*
X128785904Y-142973371D01*
X128738285Y-143068609D01*
X128738285Y-143163847D01*
X128976380Y-143116228D02*
X128928761Y-143211466D01*
X128833523Y-143306704D01*
X128643047Y-143354323D01*
X128309714Y-143354323D01*
X128119238Y-143306704D01*
X128024000Y-143211466D01*
X127976380Y-143116228D01*
X127976380Y-142925752D01*
X128024000Y-142830514D01*
X128119238Y-142735276D01*
X128309714Y-142687657D01*
X128643047Y-142687657D01*
X128833523Y-142735276D01*
X128928761Y-142830514D01*
X128976380Y-142925752D01*
X128976380Y-143116228D01*
X127976380Y-141782895D02*
X127976380Y-142259085D01*
X128452571Y-142306704D01*
X128404952Y-142259085D01*
X128357333Y-142163847D01*
X128357333Y-141925752D01*
X128404952Y-141830514D01*
X128452571Y-141782895D01*
X128547809Y-141735276D01*
X128785904Y-141735276D01*
X128881142Y-141782895D01*
X128928761Y-141830514D01*
X128976380Y-141925752D01*
X128976380Y-142163847D01*
X128928761Y-142259085D01*
X128881142Y-142306704D01*
X141069542Y-158580057D02*
X141117161Y-158627676D01*
X141164780Y-158770533D01*
X141164780Y-158865771D01*
X141117161Y-159008628D01*
X141021923Y-159103866D01*
X140926685Y-159151485D01*
X140736209Y-159199104D01*
X140593352Y-159199104D01*
X140402876Y-159151485D01*
X140307638Y-159103866D01*
X140212400Y-159008628D01*
X140164780Y-158865771D01*
X140164780Y-158770533D01*
X140212400Y-158627676D01*
X140260019Y-158580057D01*
X140260019Y-158199104D02*
X140212400Y-158151485D01*
X140164780Y-158056247D01*
X140164780Y-157818152D01*
X140212400Y-157722914D01*
X140260019Y-157675295D01*
X140355257Y-157627676D01*
X140450495Y-157627676D01*
X140593352Y-157675295D01*
X141164780Y-158246723D01*
X141164780Y-157627676D01*
X141164780Y-156675295D02*
X141164780Y-157246723D01*
X141164780Y-156961009D02*
X140164780Y-156961009D01*
X140307638Y-157056247D01*
X140402876Y-157151485D01*
X140450495Y-157246723D01*
X208597619Y-184621428D02*
X208550000Y-184716666D01*
X208454761Y-184811904D01*
X208311904Y-184954761D01*
X208264285Y-185050000D01*
X208264285Y-185145238D01*
X208502380Y-185097619D02*
X208454761Y-185192857D01*
X208359523Y-185288095D01*
X208169047Y-185335714D01*
X207835714Y-185335714D01*
X207645238Y-185288095D01*
X207550000Y-185192857D01*
X207502380Y-185097619D01*
X207502380Y-184907142D01*
X207550000Y-184811904D01*
X207645238Y-184716666D01*
X207835714Y-184669047D01*
X208169047Y-184669047D01*
X208359523Y-184716666D01*
X208454761Y-184811904D01*
X208502380Y-184907142D01*
X208502380Y-185097619D01*
X208502380Y-183716666D02*
X208502380Y-184288095D01*
X208502380Y-184002380D02*
X207502380Y-184002380D01*
X207645238Y-184097619D01*
X207740476Y-184192857D01*
X207788095Y-184288095D01*
X207597619Y-183335714D02*
X207550000Y-183288095D01*
X207502380Y-183192857D01*
X207502380Y-182954761D01*
X207550000Y-182859523D01*
X207597619Y-182811904D01*
X207692857Y-182764285D01*
X207788095Y-182764285D01*
X207930952Y-182811904D01*
X208502380Y-183383333D01*
X208502380Y-182764285D01*
X160181245Y-106537342D02*
X159847912Y-106061152D01*
X159609817Y-106537342D02*
X159609817Y-105537342D01*
X159990769Y-105537342D01*
X160086007Y-105584962D01*
X160133626Y-105632581D01*
X160181245Y-105727819D01*
X160181245Y-105870676D01*
X160133626Y-105965914D01*
X160086007Y-106013533D01*
X159990769Y-106061152D01*
X159609817Y-106061152D01*
X160609817Y-106013533D02*
X160943150Y-106013533D01*
X161086007Y-106537342D02*
X160609817Y-106537342D01*
X160609817Y-105537342D01*
X161086007Y-105537342D01*
X161847912Y-106013533D02*
X161514579Y-106013533D01*
X161514579Y-106537342D02*
X161514579Y-105537342D01*
X161990769Y-105537342D01*
X162514579Y-105537342D02*
X162514579Y-105775438D01*
X162276483Y-105680200D02*
X162514579Y-105775438D01*
X162752674Y-105680200D01*
X162371721Y-105965914D02*
X162514579Y-105775438D01*
X162657436Y-105965914D01*
X163276483Y-105537342D02*
X163276483Y-105775438D01*
X163038388Y-105680200D02*
X163276483Y-105775438D01*
X163514579Y-105680200D01*
X163133626Y-105965914D02*
X163276483Y-105775438D01*
X163419340Y-105965914D01*
X142999772Y-177790064D02*
X142300051Y-178623959D01*
X142104514Y-178744089D01*
X141900033Y-178761979D01*
X141686606Y-178677628D01*
X141575420Y-178584332D01*
X143406812Y-178321082D02*
X143509053Y-178312138D01*
X143666887Y-178349841D01*
X143944852Y-178583081D01*
X144009390Y-178731970D01*
X144018334Y-178834211D01*
X143980631Y-178992045D01*
X143887335Y-179103230D01*
X143691798Y-179223361D01*
X142464907Y-179330700D01*
X143187615Y-179937124D01*
X144299474Y-180870085D02*
X143632359Y-180310309D01*
X143965916Y-180590197D02*
X144945525Y-179422745D01*
X144694395Y-179496228D01*
X144489913Y-179514118D01*
X144332079Y-179476415D01*
D13*
X165779900Y-164362514D02*
X167013614Y-164362514D01*
X167158757Y-164289942D01*
X167231329Y-164217371D01*
X167303900Y-164072228D01*
X167303900Y-163781942D01*
X167231329Y-163636799D01*
X167158757Y-163564228D01*
X167013614Y-163491657D01*
X165779900Y-163491657D01*
X167303900Y-161967657D02*
X167303900Y-162838514D01*
X167303900Y-162403085D02*
X165779900Y-162403085D01*
X165997614Y-162548228D01*
X166142757Y-162693371D01*
X166215329Y-162838514D01*
X165779900Y-161459657D02*
X165779900Y-160516228D01*
X166360472Y-161024228D01*
X166360472Y-160806514D01*
X166433043Y-160661371D01*
X166505614Y-160588799D01*
X166650757Y-160516228D01*
X167013614Y-160516228D01*
X167158757Y-160588799D01*
X167231329Y-160661371D01*
X167303900Y-160806514D01*
X167303900Y-161241942D01*
X167231329Y-161387085D01*
X167158757Y-161459657D01*
D10*
X161967942Y-177852342D02*
X161920323Y-177899961D01*
X161777466Y-177947580D01*
X161682228Y-177947580D01*
X161539371Y-177899961D01*
X161444133Y-177804723D01*
X161396514Y-177709485D01*
X161348895Y-177519009D01*
X161348895Y-177376152D01*
X161396514Y-177185676D01*
X161444133Y-177090438D01*
X161539371Y-176995200D01*
X161682228Y-176947580D01*
X161777466Y-176947580D01*
X161920323Y-176995200D01*
X161967942Y-177042819D01*
X162872704Y-176947580D02*
X162396514Y-176947580D01*
X162348895Y-177423771D01*
X162396514Y-177376152D01*
X162491752Y-177328533D01*
X162729847Y-177328533D01*
X162825085Y-177376152D01*
X162872704Y-177423771D01*
X162920323Y-177519009D01*
X162920323Y-177757104D01*
X162872704Y-177852342D01*
X162825085Y-177899961D01*
X162729847Y-177947580D01*
X162491752Y-177947580D01*
X162396514Y-177899961D01*
X162348895Y-177852342D01*
X163253657Y-176947580D02*
X163872704Y-176947580D01*
X163539371Y-177328533D01*
X163682228Y-177328533D01*
X163777466Y-177376152D01*
X163825085Y-177423771D01*
X163872704Y-177519009D01*
X163872704Y-177757104D01*
X163825085Y-177852342D01*
X163777466Y-177899961D01*
X163682228Y-177947580D01*
X163396514Y-177947580D01*
X163301276Y-177899961D01*
X163253657Y-177852342D01*
D14*
X161810419Y-157197104D02*
X160794419Y-157197104D01*
X160794419Y-156955200D01*
X160842800Y-156810057D01*
X160939561Y-156713295D01*
X161036323Y-156664914D01*
X161229847Y-156616533D01*
X161374990Y-156616533D01*
X161568514Y-156664914D01*
X161665276Y-156713295D01*
X161762038Y-156810057D01*
X161810419Y-156955200D01*
X161810419Y-157197104D01*
X160794419Y-155745676D02*
X160794419Y-155939200D01*
X160842800Y-156035961D01*
X160891180Y-156084342D01*
X161036323Y-156181104D01*
X161229847Y-156229485D01*
X161616895Y-156229485D01*
X161713657Y-156181104D01*
X161762038Y-156132723D01*
X161810419Y-156035961D01*
X161810419Y-155842438D01*
X161762038Y-155745676D01*
X161713657Y-155697295D01*
X161616895Y-155648914D01*
X161374990Y-155648914D01*
X161278228Y-155697295D01*
X161229847Y-155745676D01*
X161181466Y-155842438D01*
X161181466Y-156035961D01*
X161229847Y-156132723D01*
X161278228Y-156181104D01*
X161374990Y-156229485D01*
D10*
X180501245Y-174625897D02*
X180167912Y-174149707D01*
X179929817Y-174625897D02*
X179929817Y-173625897D01*
X180310769Y-173625897D01*
X180406007Y-173673517D01*
X180453626Y-173721136D01*
X180501245Y-173816374D01*
X180501245Y-173959231D01*
X180453626Y-174054469D01*
X180406007Y-174102088D01*
X180310769Y-174149707D01*
X179929817Y-174149707D01*
X180929817Y-174102088D02*
X181263150Y-174102088D01*
X181406007Y-174625897D02*
X180929817Y-174625897D01*
X180929817Y-173625897D01*
X181406007Y-173625897D01*
X182167912Y-174102088D02*
X181834579Y-174102088D01*
X181834579Y-174625897D02*
X181834579Y-173625897D01*
X182310769Y-173625897D01*
X182834579Y-173625897D02*
X182834579Y-173863993D01*
X182596483Y-173768755D02*
X182834579Y-173863993D01*
X183072674Y-173768755D01*
X182691721Y-174054469D02*
X182834579Y-173863993D01*
X182977436Y-174054469D01*
X183596483Y-173625897D02*
X183596483Y-173863993D01*
X183358388Y-173768755D02*
X183596483Y-173863993D01*
X183834579Y-173768755D01*
X183453626Y-174054469D02*
X183596483Y-173863993D01*
X183739340Y-174054469D01*
X180501245Y-139700897D02*
X180167912Y-139224707D01*
X179929817Y-139700897D02*
X179929817Y-138700897D01*
X180310769Y-138700897D01*
X180406007Y-138748517D01*
X180453626Y-138796136D01*
X180501245Y-138891374D01*
X180501245Y-139034231D01*
X180453626Y-139129469D01*
X180406007Y-139177088D01*
X180310769Y-139224707D01*
X179929817Y-139224707D01*
X180929817Y-139177088D02*
X181263150Y-139177088D01*
X181406007Y-139700897D02*
X180929817Y-139700897D01*
X180929817Y-138700897D01*
X181406007Y-138700897D01*
X182167912Y-139177088D02*
X181834579Y-139177088D01*
X181834579Y-139700897D02*
X181834579Y-138700897D01*
X182310769Y-138700897D01*
X182834579Y-138700897D02*
X182834579Y-138938993D01*
X182596483Y-138843755D02*
X182834579Y-138938993D01*
X183072674Y-138843755D01*
X182691721Y-139129469D02*
X182834579Y-138938993D01*
X182977436Y-139129469D01*
X183596483Y-138700897D02*
X183596483Y-138938993D01*
X183358388Y-138843755D02*
X183596483Y-138938993D01*
X183834579Y-138843755D01*
X183453626Y-139129469D02*
X183596483Y-138938993D01*
X183739340Y-139129469D01*
X200821245Y-106537342D02*
X200487912Y-106061152D01*
X200249817Y-106537342D02*
X200249817Y-105537342D01*
X200630769Y-105537342D01*
X200726007Y-105584962D01*
X200773626Y-105632581D01*
X200821245Y-105727819D01*
X200821245Y-105870676D01*
X200773626Y-105965914D01*
X200726007Y-106013533D01*
X200630769Y-106061152D01*
X200249817Y-106061152D01*
X201249817Y-106013533D02*
X201583150Y-106013533D01*
X201726007Y-106537342D02*
X201249817Y-106537342D01*
X201249817Y-105537342D01*
X201726007Y-105537342D01*
X202487912Y-106013533D02*
X202154579Y-106013533D01*
X202154579Y-106537342D02*
X202154579Y-105537342D01*
X202630769Y-105537342D01*
X203154579Y-105537342D02*
X203154579Y-105775438D01*
X202916483Y-105680200D02*
X203154579Y-105775438D01*
X203392674Y-105680200D01*
X203011721Y-105965914D02*
X203154579Y-105775438D01*
X203297436Y-105965914D01*
X203916483Y-105537342D02*
X203916483Y-105775438D01*
X203678388Y-105680200D02*
X203916483Y-105775438D01*
X204154579Y-105680200D01*
X203773626Y-105965914D02*
X203916483Y-105775438D01*
X204059340Y-105965914D01*
X213950704Y-145654780D02*
X213950704Y-146464304D01*
X213998323Y-146559542D01*
X214045942Y-146607161D01*
X214141180Y-146654780D01*
X214331657Y-146654780D01*
X214426895Y-146607161D01*
X214474514Y-146559542D01*
X214522133Y-146464304D01*
X214522133Y-145654780D01*
X215522133Y-146654780D02*
X214950704Y-146654780D01*
X215236419Y-146654780D02*
X215236419Y-145654780D01*
X215141180Y-145797638D01*
X215045942Y-145892876D01*
X214950704Y-145940495D01*
X216141180Y-145654780D02*
X216236419Y-145654780D01*
X216331657Y-145702400D01*
X216379276Y-145750019D01*
X216426895Y-145845257D01*
X216474514Y-146035733D01*
X216474514Y-146273828D01*
X216426895Y-146464304D01*
X216379276Y-146559542D01*
X216331657Y-146607161D01*
X216236419Y-146654780D01*
X216141180Y-146654780D01*
X216045942Y-146607161D01*
X215998323Y-146559542D01*
X215950704Y-146464304D01*
X215903085Y-146273828D01*
X215903085Y-146035733D01*
X215950704Y-145845257D01*
X215998323Y-145750019D01*
X216045942Y-145702400D01*
X216141180Y-145654780D01*
X207143279Y-150684899D02*
X206417564Y-150684899D01*
X206417564Y-149160899D01*
X207506136Y-149160899D02*
X208449564Y-149160899D01*
X207941564Y-149741471D01*
X208159279Y-149741471D01*
X208304421Y-149814042D01*
X208376993Y-149886613D01*
X208449564Y-150031756D01*
X208449564Y-150394613D01*
X208376993Y-150539756D01*
X208304421Y-150612328D01*
X208159279Y-150684899D01*
X207723850Y-150684899D01*
X207578707Y-150612328D01*
X207506136Y-150539756D01*
X149353733Y-137713980D02*
X149020400Y-137237790D01*
X148782304Y-137713980D02*
X148782304Y-136713980D01*
X149163257Y-136713980D01*
X149258495Y-136761600D01*
X149306114Y-136809219D01*
X149353733Y-136904457D01*
X149353733Y-137047314D01*
X149306114Y-137142552D01*
X149258495Y-137190171D01*
X149163257Y-137237790D01*
X148782304Y-137237790D01*
X149782304Y-137713980D02*
X149782304Y-136713980D01*
X150353733Y-137713980D01*
X150353733Y-136713980D01*
X151353733Y-137713980D02*
X150782304Y-137713980D01*
X151068019Y-137713980D02*
X151068019Y-136713980D01*
X150972780Y-136856838D01*
X150877542Y-136952076D01*
X150782304Y-136999695D01*
X152210876Y-137047314D02*
X152210876Y-137713980D01*
X151972780Y-136666361D02*
X151734685Y-137380647D01*
X152353733Y-137380647D01*
X145645333Y-137815580D02*
X145312000Y-137339390D01*
X145073904Y-137815580D02*
X145073904Y-136815580D01*
X145454857Y-136815580D01*
X145550095Y-136863200D01*
X145597714Y-136910819D01*
X145645333Y-137006057D01*
X145645333Y-137148914D01*
X145597714Y-137244152D01*
X145550095Y-137291771D01*
X145454857Y-137339390D01*
X145073904Y-137339390D01*
X146073904Y-137815580D02*
X146073904Y-136815580D01*
X146645333Y-137815580D01*
X146645333Y-136815580D01*
X147645333Y-137815580D02*
X147073904Y-137815580D01*
X147359619Y-137815580D02*
X147359619Y-136815580D01*
X147264380Y-136958438D01*
X147169142Y-137053676D01*
X147073904Y-137101295D01*
X147978666Y-136815580D02*
X148597714Y-136815580D01*
X148264380Y-137196533D01*
X148407238Y-137196533D01*
X148502476Y-137244152D01*
X148550095Y-137291771D01*
X148597714Y-137387009D01*
X148597714Y-137625104D01*
X148550095Y-137720342D01*
X148502476Y-137767961D01*
X148407238Y-137815580D01*
X148121523Y-137815580D01*
X148026285Y-137767961D01*
X147978666Y-137720342D01*
X150369733Y-132362780D02*
X150036400Y-131886590D01*
X149798304Y-132362780D02*
X149798304Y-131362780D01*
X150179257Y-131362780D01*
X150274495Y-131410400D01*
X150322114Y-131458019D01*
X150369733Y-131553257D01*
X150369733Y-131696114D01*
X150322114Y-131791352D01*
X150274495Y-131838971D01*
X150179257Y-131886590D01*
X149798304Y-131886590D01*
X150798304Y-132362780D02*
X150798304Y-131362780D01*
X151369733Y-132362780D01*
X151369733Y-131362780D01*
X152369733Y-132362780D02*
X151798304Y-132362780D01*
X152084019Y-132362780D02*
X152084019Y-131362780D01*
X151988780Y-131505638D01*
X151893542Y-131600876D01*
X151798304Y-131648495D01*
X152750685Y-131458019D02*
X152798304Y-131410400D01*
X152893542Y-131362780D01*
X153131638Y-131362780D01*
X153226876Y-131410400D01*
X153274495Y-131458019D01*
X153322114Y-131553257D01*
X153322114Y-131648495D01*
X153274495Y-131791352D01*
X152703066Y-132362780D01*
X153322114Y-132362780D01*
X146145333Y-132442780D02*
X145812000Y-131966590D01*
X145573904Y-132442780D02*
X145573904Y-131442780D01*
X145954857Y-131442780D01*
X146050095Y-131490400D01*
X146097714Y-131538019D01*
X146145333Y-131633257D01*
X146145333Y-131776114D01*
X146097714Y-131871352D01*
X146050095Y-131918971D01*
X145954857Y-131966590D01*
X145573904Y-131966590D01*
X146573904Y-132442780D02*
X146573904Y-131442780D01*
X147145333Y-132442780D01*
X147145333Y-131442780D01*
X148145333Y-132442780D02*
X147573904Y-132442780D01*
X147859619Y-132442780D02*
X147859619Y-131442780D01*
X147764380Y-131585638D01*
X147669142Y-131680876D01*
X147573904Y-131728495D01*
X149097714Y-132442780D02*
X148526285Y-132442780D01*
X148812000Y-132442780D02*
X148812000Y-131442780D01*
X148716761Y-131585638D01*
X148621523Y-131680876D01*
X148526285Y-131728495D01*
X150674533Y-126944380D02*
X150341200Y-126468190D01*
X150103104Y-126944380D02*
X150103104Y-125944380D01*
X150484057Y-125944380D01*
X150579295Y-125992000D01*
X150626914Y-126039619D01*
X150674533Y-126134857D01*
X150674533Y-126277714D01*
X150626914Y-126372952D01*
X150579295Y-126420571D01*
X150484057Y-126468190D01*
X150103104Y-126468190D01*
X151103104Y-126944380D02*
X151103104Y-125944380D01*
X151674533Y-126944380D01*
X151674533Y-125944380D01*
X152674533Y-126944380D02*
X152103104Y-126944380D01*
X152388819Y-126944380D02*
X152388819Y-125944380D01*
X152293580Y-126087238D01*
X152198342Y-126182476D01*
X152103104Y-126230095D01*
X153293580Y-125944380D02*
X153388819Y-125944380D01*
X153484057Y-125992000D01*
X153531676Y-126039619D01*
X153579295Y-126134857D01*
X153626914Y-126325333D01*
X153626914Y-126563428D01*
X153579295Y-126753904D01*
X153531676Y-126849142D01*
X153484057Y-126896761D01*
X153388819Y-126944380D01*
X153293580Y-126944380D01*
X153198342Y-126896761D01*
X153150723Y-126849142D01*
X153103104Y-126753904D01*
X153055485Y-126563428D01*
X153055485Y-126325333D01*
X153103104Y-126134857D01*
X153150723Y-126039619D01*
X153198342Y-125992000D01*
X153293580Y-125944380D01*
X146731123Y-126893580D02*
X146397790Y-126417390D01*
X146159695Y-126893580D02*
X146159695Y-125893580D01*
X146540647Y-125893580D01*
X146635885Y-125941200D01*
X146683504Y-125988819D01*
X146731123Y-126084057D01*
X146731123Y-126226914D01*
X146683504Y-126322152D01*
X146635885Y-126369771D01*
X146540647Y-126417390D01*
X146159695Y-126417390D01*
X147159695Y-126893580D02*
X147159695Y-125893580D01*
X147731123Y-126893580D01*
X147731123Y-125893580D01*
X148254933Y-126893580D02*
X148445409Y-126893580D01*
X148540647Y-126845961D01*
X148588266Y-126798342D01*
X148683504Y-126655485D01*
X148731123Y-126465009D01*
X148731123Y-126084057D01*
X148683504Y-125988819D01*
X148635885Y-125941200D01*
X148540647Y-125893580D01*
X148350171Y-125893580D01*
X148254933Y-125941200D01*
X148207314Y-125988819D01*
X148159695Y-126084057D01*
X148159695Y-126322152D01*
X148207314Y-126417390D01*
X148254933Y-126465009D01*
X148350171Y-126512628D01*
X148540647Y-126512628D01*
X148635885Y-126465009D01*
X148683504Y-126417390D01*
X148731123Y-126322152D01*
X222549980Y-164876076D02*
X222073790Y-165209409D01*
X222549980Y-165447504D02*
X221549980Y-165447504D01*
X221549980Y-165066552D01*
X221597600Y-164971314D01*
X221645219Y-164923695D01*
X221740457Y-164876076D01*
X221883314Y-164876076D01*
X221978552Y-164923695D01*
X222026171Y-164971314D01*
X222073790Y-165066552D01*
X222073790Y-165447504D01*
X222549980Y-164447504D02*
X221549980Y-164447504D01*
X222549980Y-163876076D01*
X221549980Y-163876076D01*
X221549980Y-163495123D02*
X221549980Y-162876076D01*
X221930933Y-163209409D01*
X221930933Y-163066552D01*
X221978552Y-162971314D01*
X222026171Y-162923695D01*
X222121409Y-162876076D01*
X222359504Y-162876076D01*
X222454742Y-162923695D01*
X222502361Y-162971314D01*
X222549980Y-163066552D01*
X222549980Y-163352266D01*
X222502361Y-163447504D01*
X222454742Y-163495123D01*
X160988476Y-185431180D02*
X160988476Y-186145466D01*
X160940857Y-186288323D01*
X160845619Y-186383561D01*
X160702761Y-186431180D01*
X160607523Y-186431180D01*
X161369428Y-185431180D02*
X161988476Y-185431180D01*
X161655142Y-185812133D01*
X161798000Y-185812133D01*
X161893238Y-185859752D01*
X161940857Y-185907371D01*
X161988476Y-186002609D01*
X161988476Y-186240704D01*
X161940857Y-186335942D01*
X161893238Y-186383561D01*
X161798000Y-186431180D01*
X161512285Y-186431180D01*
X161417047Y-186383561D01*
X161369428Y-186335942D01*
X162321809Y-185431180D02*
X162940857Y-185431180D01*
X162607523Y-185812133D01*
X162750380Y-185812133D01*
X162845619Y-185859752D01*
X162893238Y-185907371D01*
X162940857Y-186002609D01*
X162940857Y-186240704D01*
X162893238Y-186335942D01*
X162845619Y-186383561D01*
X162750380Y-186431180D01*
X162464666Y-186431180D01*
X162369428Y-186383561D01*
X162321809Y-186335942D01*
X156800704Y-173543980D02*
X156800704Y-174353504D01*
X156848323Y-174448742D01*
X156895942Y-174496361D01*
X156991180Y-174543980D01*
X157181657Y-174543980D01*
X157276895Y-174496361D01*
X157324514Y-174448742D01*
X157372133Y-174353504D01*
X157372133Y-173543980D01*
X158372133Y-174543980D02*
X157800704Y-174543980D01*
X158086419Y-174543980D02*
X158086419Y-173543980D01*
X157991180Y-173686838D01*
X157895942Y-173782076D01*
X157800704Y-173829695D01*
X159324514Y-174543980D02*
X158753085Y-174543980D01*
X159038800Y-174543980D02*
X159038800Y-173543980D01*
X158943561Y-173686838D01*
X158848323Y-173782076D01*
X158753085Y-173829695D01*
X171246895Y-124674380D02*
X171246895Y-125483904D01*
X171294514Y-125579142D01*
X171342133Y-125626761D01*
X171437371Y-125674380D01*
X171627847Y-125674380D01*
X171723085Y-125626761D01*
X171770704Y-125579142D01*
X171818323Y-125483904D01*
X171818323Y-124674380D01*
X172770704Y-124674380D02*
X172294514Y-124674380D01*
X172246895Y-125150571D01*
X172294514Y-125102952D01*
X172389752Y-125055333D01*
X172627847Y-125055333D01*
X172723085Y-125102952D01*
X172770704Y-125150571D01*
X172818323Y-125245809D01*
X172818323Y-125483904D01*
X172770704Y-125579142D01*
X172723085Y-125626761D01*
X172627847Y-125674380D01*
X172389752Y-125674380D01*
X172294514Y-125626761D01*
X172246895Y-125579142D01*
X193497295Y-96988380D02*
X193497295Y-97797904D01*
X193544914Y-97893142D01*
X193592533Y-97940761D01*
X193687771Y-97988380D01*
X193878247Y-97988380D01*
X193973485Y-97940761D01*
X194021104Y-97893142D01*
X194068723Y-97797904D01*
X194068723Y-96988380D01*
X195068723Y-97988380D02*
X194497295Y-97988380D01*
X194783009Y-97988380D02*
X194783009Y-96988380D01*
X194687771Y-97131238D01*
X194592533Y-97226476D01*
X194497295Y-97274095D01*
X203233333Y-146802380D02*
X202900000Y-146326190D01*
X202661904Y-146802380D02*
X202661904Y-145802380D01*
X203042857Y-145802380D01*
X203138095Y-145850000D01*
X203185714Y-145897619D01*
X203233333Y-145992857D01*
X203233333Y-146135714D01*
X203185714Y-146230952D01*
X203138095Y-146278571D01*
X203042857Y-146326190D01*
X202661904Y-146326190D01*
X203661904Y-146802380D02*
X203661904Y-145802380D01*
X204233333Y-146802380D01*
X204233333Y-145802380D01*
X205233333Y-146802380D02*
X204661904Y-146802380D01*
X204947619Y-146802380D02*
X204947619Y-145802380D01*
X204852380Y-145945238D01*
X204757142Y-146040476D01*
X204661904Y-146088095D01*
X205804761Y-146230952D02*
X205709523Y-146183333D01*
X205661904Y-146135714D01*
X205614285Y-146040476D01*
X205614285Y-145992857D01*
X205661904Y-145897619D01*
X205709523Y-145850000D01*
X205804761Y-145802380D01*
X205995238Y-145802380D01*
X206090476Y-145850000D01*
X206138095Y-145897619D01*
X206185714Y-145992857D01*
X206185714Y-146040476D01*
X206138095Y-146135714D01*
X206090476Y-146183333D01*
X205995238Y-146230952D01*
X205804761Y-146230952D01*
X205709523Y-146278571D01*
X205661904Y-146326190D01*
X205614285Y-146421428D01*
X205614285Y-146611904D01*
X205661904Y-146707142D01*
X205709523Y-146754761D01*
X205804761Y-146802380D01*
X205995238Y-146802380D01*
X206090476Y-146754761D01*
X206138095Y-146707142D01*
X206185714Y-146611904D01*
X206185714Y-146421428D01*
X206138095Y-146326190D01*
X206090476Y-146278571D01*
X205995238Y-146230952D01*
X155900380Y-144625866D02*
X155424190Y-144959200D01*
X155900380Y-145197295D02*
X154900380Y-145197295D01*
X154900380Y-144816342D01*
X154948000Y-144721104D01*
X154995619Y-144673485D01*
X155090857Y-144625866D01*
X155233714Y-144625866D01*
X155328952Y-144673485D01*
X155376571Y-144721104D01*
X155424190Y-144816342D01*
X155424190Y-145197295D01*
X155900380Y-144197295D02*
X154900380Y-144197295D01*
X155900380Y-143625866D01*
X154900380Y-143625866D01*
X155900380Y-142625866D02*
X155900380Y-143197295D01*
X155900380Y-142911580D02*
X154900380Y-142911580D01*
X155043238Y-143006819D01*
X155138476Y-143102057D01*
X155186095Y-143197295D01*
X154900380Y-141768723D02*
X154900380Y-141959200D01*
X154948000Y-142054438D01*
X154995619Y-142102057D01*
X155138476Y-142197295D01*
X155328952Y-142244914D01*
X155709904Y-142244914D01*
X155805142Y-142197295D01*
X155852761Y-142149676D01*
X155900380Y-142054438D01*
X155900380Y-141863961D01*
X155852761Y-141768723D01*
X155805142Y-141721104D01*
X155709904Y-141673485D01*
X155471809Y-141673485D01*
X155376571Y-141721104D01*
X155328952Y-141768723D01*
X155281333Y-141863961D01*
X155281333Y-142054438D01*
X155328952Y-142149676D01*
X155376571Y-142197295D01*
X155471809Y-142244914D01*
X145797733Y-143962380D02*
X145464400Y-143486190D01*
X145226304Y-143962380D02*
X145226304Y-142962380D01*
X145607257Y-142962380D01*
X145702495Y-143010000D01*
X145750114Y-143057619D01*
X145797733Y-143152857D01*
X145797733Y-143295714D01*
X145750114Y-143390952D01*
X145702495Y-143438571D01*
X145607257Y-143486190D01*
X145226304Y-143486190D01*
X146226304Y-143962380D02*
X146226304Y-142962380D01*
X146797733Y-143962380D01*
X146797733Y-142962380D01*
X147797733Y-143962380D02*
X147226304Y-143962380D01*
X147512019Y-143962380D02*
X147512019Y-142962380D01*
X147416780Y-143105238D01*
X147321542Y-143200476D01*
X147226304Y-143248095D01*
X148702495Y-142962380D02*
X148226304Y-142962380D01*
X148178685Y-143438571D01*
X148226304Y-143390952D01*
X148321542Y-143343333D01*
X148559638Y-143343333D01*
X148654876Y-143390952D01*
X148702495Y-143438571D01*
X148750114Y-143533809D01*
X148750114Y-143771904D01*
X148702495Y-143867142D01*
X148654876Y-143914761D01*
X148559638Y-143962380D01*
X148321542Y-143962380D01*
X148226304Y-143914761D01*
X148178685Y-143867142D01*
X207707142Y-182202380D02*
X207373809Y-181726190D01*
X207135714Y-182202380D02*
X207135714Y-181202380D01*
X207516666Y-181202380D01*
X207611904Y-181250000D01*
X207659523Y-181297619D01*
X207707142Y-181392857D01*
X207707142Y-181535714D01*
X207659523Y-181630952D01*
X207611904Y-181678571D01*
X207516666Y-181726190D01*
X207135714Y-181726190D01*
X208040476Y-181202380D02*
X208659523Y-181202380D01*
X208326190Y-181583333D01*
X208469047Y-181583333D01*
X208564285Y-181630952D01*
X208611904Y-181678571D01*
X208659523Y-181773809D01*
X208659523Y-182011904D01*
X208611904Y-182107142D01*
X208564285Y-182154761D01*
X208469047Y-182202380D01*
X208183333Y-182202380D01*
X208088095Y-182154761D01*
X208040476Y-182107142D01*
X209040476Y-181297619D02*
X209088095Y-181250000D01*
X209183333Y-181202380D01*
X209421428Y-181202380D01*
X209516666Y-181250000D01*
X209564285Y-181297619D01*
X209611904Y-181392857D01*
X209611904Y-181488095D01*
X209564285Y-181630952D01*
X208992857Y-182202380D01*
X209611904Y-182202380D01*
X207557142Y-180002380D02*
X207223809Y-179526190D01*
X206985714Y-180002380D02*
X206985714Y-179002380D01*
X207366666Y-179002380D01*
X207461904Y-179050000D01*
X207509523Y-179097619D01*
X207557142Y-179192857D01*
X207557142Y-179335714D01*
X207509523Y-179430952D01*
X207461904Y-179478571D01*
X207366666Y-179526190D01*
X206985714Y-179526190D01*
X207890476Y-179002380D02*
X208509523Y-179002380D01*
X208176190Y-179383333D01*
X208319047Y-179383333D01*
X208414285Y-179430952D01*
X208461904Y-179478571D01*
X208509523Y-179573809D01*
X208509523Y-179811904D01*
X208461904Y-179907142D01*
X208414285Y-179954761D01*
X208319047Y-180002380D01*
X208033333Y-180002380D01*
X207938095Y-179954761D01*
X207890476Y-179907142D01*
X209461904Y-180002380D02*
X208890476Y-180002380D01*
X209176190Y-180002380D02*
X209176190Y-179002380D01*
X209080952Y-179145238D01*
X208985714Y-179240476D01*
X208890476Y-179288095D01*
X210002380Y-177223657D02*
X209526190Y-177556990D01*
X210002380Y-177795085D02*
X209002380Y-177795085D01*
X209002380Y-177414133D01*
X209050000Y-177318895D01*
X209097619Y-177271276D01*
X209192857Y-177223657D01*
X209335714Y-177223657D01*
X209430952Y-177271276D01*
X209478571Y-177318895D01*
X209526190Y-177414133D01*
X209526190Y-177795085D01*
X209002380Y-176890323D02*
X209002380Y-176271276D01*
X209383333Y-176604609D01*
X209383333Y-176461752D01*
X209430952Y-176366514D01*
X209478571Y-176318895D01*
X209573809Y-176271276D01*
X209811904Y-176271276D01*
X209907142Y-176318895D01*
X209954761Y-176366514D01*
X210002380Y-176461752D01*
X210002380Y-176747466D01*
X209954761Y-176842704D01*
X209907142Y-176890323D01*
X209002380Y-175652228D02*
X209002380Y-175556990D01*
X209050000Y-175461752D01*
X209097619Y-175414133D01*
X209192857Y-175366514D01*
X209383333Y-175318895D01*
X209621428Y-175318895D01*
X209811904Y-175366514D01*
X209907142Y-175414133D01*
X209954761Y-175461752D01*
X210002380Y-175556990D01*
X210002380Y-175652228D01*
X209954761Y-175747466D01*
X209907142Y-175795085D01*
X209811904Y-175842704D01*
X209621428Y-175890323D01*
X209383333Y-175890323D01*
X209192857Y-175842704D01*
X209097619Y-175795085D01*
X209050000Y-175747466D01*
X209002380Y-175652228D01*
X201002380Y-185242857D02*
X200526190Y-185576190D01*
X201002380Y-185814285D02*
X200002380Y-185814285D01*
X200002380Y-185433333D01*
X200050000Y-185338095D01*
X200097619Y-185290476D01*
X200192857Y-185242857D01*
X200335714Y-185242857D01*
X200430952Y-185290476D01*
X200478571Y-185338095D01*
X200526190Y-185433333D01*
X200526190Y-185814285D01*
X200097619Y-184861904D02*
X200050000Y-184814285D01*
X200002380Y-184719047D01*
X200002380Y-184480952D01*
X200050000Y-184385714D01*
X200097619Y-184338095D01*
X200192857Y-184290476D01*
X200288095Y-184290476D01*
X200430952Y-184338095D01*
X201002380Y-184909523D01*
X201002380Y-184290476D01*
X201002380Y-183814285D02*
X201002380Y-183623809D01*
X200954761Y-183528571D01*
X200907142Y-183480952D01*
X200764285Y-183385714D01*
X200573809Y-183338095D01*
X200192857Y-183338095D01*
X200097619Y-183385714D01*
X200050000Y-183433333D01*
X200002380Y-183528571D01*
X200002380Y-183719047D01*
X200050000Y-183814285D01*
X200097619Y-183861904D01*
X200192857Y-183909523D01*
X200430952Y-183909523D01*
X200526190Y-183861904D01*
X200573809Y-183814285D01*
X200621428Y-183719047D01*
X200621428Y-183528571D01*
X200573809Y-183433333D01*
X200526190Y-183385714D01*
X200430952Y-183338095D01*
X198857142Y-187952380D02*
X198523809Y-187476190D01*
X198285714Y-187952380D02*
X198285714Y-186952380D01*
X198666666Y-186952380D01*
X198761904Y-187000000D01*
X198809523Y-187047619D01*
X198857142Y-187142857D01*
X198857142Y-187285714D01*
X198809523Y-187380952D01*
X198761904Y-187428571D01*
X198666666Y-187476190D01*
X198285714Y-187476190D01*
X199238095Y-187047619D02*
X199285714Y-187000000D01*
X199380952Y-186952380D01*
X199619047Y-186952380D01*
X199714285Y-187000000D01*
X199761904Y-187047619D01*
X199809523Y-187142857D01*
X199809523Y-187238095D01*
X199761904Y-187380952D01*
X199190476Y-187952380D01*
X199809523Y-187952380D01*
X200380952Y-187380952D02*
X200285714Y-187333333D01*
X200238095Y-187285714D01*
X200190476Y-187190476D01*
X200190476Y-187142857D01*
X200238095Y-187047619D01*
X200285714Y-187000000D01*
X200380952Y-186952380D01*
X200571428Y-186952380D01*
X200666666Y-187000000D01*
X200714285Y-187047619D01*
X200761904Y-187142857D01*
X200761904Y-187190476D01*
X200714285Y-187285714D01*
X200666666Y-187333333D01*
X200571428Y-187380952D01*
X200380952Y-187380952D01*
X200285714Y-187428571D01*
X200238095Y-187476190D01*
X200190476Y-187571428D01*
X200190476Y-187761904D01*
X200238095Y-187857142D01*
X200285714Y-187904761D01*
X200380952Y-187952380D01*
X200571428Y-187952380D01*
X200666666Y-187904761D01*
X200714285Y-187857142D01*
X200761904Y-187761904D01*
X200761904Y-187571428D01*
X200714285Y-187476190D01*
X200666666Y-187428571D01*
X200571428Y-187380952D01*
X222803980Y-121343657D02*
X222327790Y-121676990D01*
X222803980Y-121915085D02*
X221803980Y-121915085D01*
X221803980Y-121534133D01*
X221851600Y-121438895D01*
X221899219Y-121391276D01*
X221994457Y-121343657D01*
X222137314Y-121343657D01*
X222232552Y-121391276D01*
X222280171Y-121438895D01*
X222327790Y-121534133D01*
X222327790Y-121915085D01*
X221899219Y-120962704D02*
X221851600Y-120915085D01*
X221803980Y-120819847D01*
X221803980Y-120581752D01*
X221851600Y-120486514D01*
X221899219Y-120438895D01*
X221994457Y-120391276D01*
X222089695Y-120391276D01*
X222232552Y-120438895D01*
X222803980Y-121010323D01*
X222803980Y-120391276D01*
X221803980Y-120057942D02*
X221803980Y-119391276D01*
X222803980Y-119819847D01*
X169677880Y-152927357D02*
X169201690Y-153260690D01*
X169677880Y-153498785D02*
X168677880Y-153498785D01*
X168677880Y-153117833D01*
X168725500Y-153022595D01*
X168773119Y-152974976D01*
X168868357Y-152927357D01*
X169011214Y-152927357D01*
X169106452Y-152974976D01*
X169154071Y-153022595D01*
X169201690Y-153117833D01*
X169201690Y-153498785D01*
X168773119Y-152546404D02*
X168725500Y-152498785D01*
X168677880Y-152403547D01*
X168677880Y-152165452D01*
X168725500Y-152070214D01*
X168773119Y-152022595D01*
X168868357Y-151974976D01*
X168963595Y-151974976D01*
X169106452Y-152022595D01*
X169677880Y-152594023D01*
X169677880Y-151974976D01*
X168677880Y-151117833D02*
X168677880Y-151308309D01*
X168725500Y-151403547D01*
X168773119Y-151451166D01*
X168915976Y-151546404D01*
X169106452Y-151594023D01*
X169487404Y-151594023D01*
X169582642Y-151546404D01*
X169630261Y-151498785D01*
X169677880Y-151403547D01*
X169677880Y-151213071D01*
X169630261Y-151117833D01*
X169582642Y-151070214D01*
X169487404Y-151022595D01*
X169249309Y-151022595D01*
X169154071Y-151070214D01*
X169106452Y-151117833D01*
X169058833Y-151213071D01*
X169058833Y-151403547D01*
X169106452Y-151498785D01*
X169154071Y-151546404D01*
X169249309Y-151594023D01*
X218485980Y-125052057D02*
X218009790Y-125385390D01*
X218485980Y-125623485D02*
X217485980Y-125623485D01*
X217485980Y-125242533D01*
X217533600Y-125147295D01*
X217581219Y-125099676D01*
X217676457Y-125052057D01*
X217819314Y-125052057D01*
X217914552Y-125099676D01*
X217962171Y-125147295D01*
X218009790Y-125242533D01*
X218009790Y-125623485D01*
X217581219Y-124671104D02*
X217533600Y-124623485D01*
X217485980Y-124528247D01*
X217485980Y-124290152D01*
X217533600Y-124194914D01*
X217581219Y-124147295D01*
X217676457Y-124099676D01*
X217771695Y-124099676D01*
X217914552Y-124147295D01*
X218485980Y-124718723D01*
X218485980Y-124099676D01*
X217819314Y-123242533D02*
X218485980Y-123242533D01*
X217438361Y-123480628D02*
X218152647Y-123718723D01*
X218152647Y-123099676D01*
X157802342Y-130246380D02*
X157469009Y-129770190D01*
X157230914Y-130246380D02*
X157230914Y-129246380D01*
X157611866Y-129246380D01*
X157707104Y-129294000D01*
X157754723Y-129341619D01*
X157802342Y-129436857D01*
X157802342Y-129579714D01*
X157754723Y-129674952D01*
X157707104Y-129722571D01*
X157611866Y-129770190D01*
X157230914Y-129770190D01*
X158183295Y-129341619D02*
X158230914Y-129294000D01*
X158326152Y-129246380D01*
X158564247Y-129246380D01*
X158659485Y-129294000D01*
X158707104Y-129341619D01*
X158754723Y-129436857D01*
X158754723Y-129532095D01*
X158707104Y-129674952D01*
X158135676Y-130246380D01*
X158754723Y-130246380D01*
X159135676Y-129341619D02*
X159183295Y-129294000D01*
X159278533Y-129246380D01*
X159516628Y-129246380D01*
X159611866Y-129294000D01*
X159659485Y-129341619D01*
X159707104Y-129436857D01*
X159707104Y-129532095D01*
X159659485Y-129674952D01*
X159088057Y-130246380D01*
X159707104Y-130246380D01*
X136545580Y-143492457D02*
X136069390Y-143825790D01*
X136545580Y-144063885D02*
X135545580Y-144063885D01*
X135545580Y-143682933D01*
X135593200Y-143587695D01*
X135640819Y-143540076D01*
X135736057Y-143492457D01*
X135878914Y-143492457D01*
X135974152Y-143540076D01*
X136021771Y-143587695D01*
X136069390Y-143682933D01*
X136069390Y-144063885D01*
X135640819Y-143111504D02*
X135593200Y-143063885D01*
X135545580Y-142968647D01*
X135545580Y-142730552D01*
X135593200Y-142635314D01*
X135640819Y-142587695D01*
X135736057Y-142540076D01*
X135831295Y-142540076D01*
X135974152Y-142587695D01*
X136545580Y-143159123D01*
X136545580Y-142540076D01*
X136545580Y-141587695D02*
X136545580Y-142159123D01*
X136545580Y-141873409D02*
X135545580Y-141873409D01*
X135688438Y-141968647D01*
X135783676Y-142063885D01*
X135831295Y-142159123D01*
X157830780Y-140393657D02*
X157354590Y-140726990D01*
X157830780Y-140965085D02*
X156830780Y-140965085D01*
X156830780Y-140584133D01*
X156878400Y-140488895D01*
X156926019Y-140441276D01*
X157021257Y-140393657D01*
X157164114Y-140393657D01*
X157259352Y-140441276D01*
X157306971Y-140488895D01*
X157354590Y-140584133D01*
X157354590Y-140965085D01*
X156926019Y-140012704D02*
X156878400Y-139965085D01*
X156830780Y-139869847D01*
X156830780Y-139631752D01*
X156878400Y-139536514D01*
X156926019Y-139488895D01*
X157021257Y-139441276D01*
X157116495Y-139441276D01*
X157259352Y-139488895D01*
X157830780Y-140060323D01*
X157830780Y-139441276D01*
X156830780Y-138822228D02*
X156830780Y-138726990D01*
X156878400Y-138631752D01*
X156926019Y-138584133D01*
X157021257Y-138536514D01*
X157211733Y-138488895D01*
X157449828Y-138488895D01*
X157640304Y-138536514D01*
X157735542Y-138584133D01*
X157783161Y-138631752D01*
X157830780Y-138726990D01*
X157830780Y-138822228D01*
X157783161Y-138917466D01*
X157735542Y-138965085D01*
X157640304Y-139012704D01*
X157449828Y-139060323D01*
X157211733Y-139060323D01*
X157021257Y-139012704D01*
X156926019Y-138965085D01*
X156878400Y-138917466D01*
X156830780Y-138822228D01*
X159964380Y-141308057D02*
X159488190Y-141641390D01*
X159964380Y-141879485D02*
X158964380Y-141879485D01*
X158964380Y-141498533D01*
X159012000Y-141403295D01*
X159059619Y-141355676D01*
X159154857Y-141308057D01*
X159297714Y-141308057D01*
X159392952Y-141355676D01*
X159440571Y-141403295D01*
X159488190Y-141498533D01*
X159488190Y-141879485D01*
X159964380Y-140355676D02*
X159964380Y-140927104D01*
X159964380Y-140641390D02*
X158964380Y-140641390D01*
X159107238Y-140736628D01*
X159202476Y-140831866D01*
X159250095Y-140927104D01*
X159964380Y-139879485D02*
X159964380Y-139689009D01*
X159916761Y-139593771D01*
X159869142Y-139546152D01*
X159726285Y-139450914D01*
X159535809Y-139403295D01*
X159154857Y-139403295D01*
X159059619Y-139450914D01*
X159012000Y-139498533D01*
X158964380Y-139593771D01*
X158964380Y-139784247D01*
X159012000Y-139879485D01*
X159059619Y-139927104D01*
X159154857Y-139974723D01*
X159392952Y-139974723D01*
X159488190Y-139927104D01*
X159535809Y-139879485D01*
X159583428Y-139784247D01*
X159583428Y-139593771D01*
X159535809Y-139498533D01*
X159488190Y-139450914D01*
X159392952Y-139403295D01*
X138752342Y-144419580D02*
X138419009Y-143943390D01*
X138180914Y-144419580D02*
X138180914Y-143419580D01*
X138561866Y-143419580D01*
X138657104Y-143467200D01*
X138704723Y-143514819D01*
X138752342Y-143610057D01*
X138752342Y-143752914D01*
X138704723Y-143848152D01*
X138657104Y-143895771D01*
X138561866Y-143943390D01*
X138180914Y-143943390D01*
X139704723Y-144419580D02*
X139133295Y-144419580D01*
X139419009Y-144419580D02*
X139419009Y-143419580D01*
X139323771Y-143562438D01*
X139228533Y-143657676D01*
X139133295Y-143705295D01*
X140276152Y-143848152D02*
X140180914Y-143800533D01*
X140133295Y-143752914D01*
X140085676Y-143657676D01*
X140085676Y-143610057D01*
X140133295Y-143514819D01*
X140180914Y-143467200D01*
X140276152Y-143419580D01*
X140466628Y-143419580D01*
X140561866Y-143467200D01*
X140609485Y-143514819D01*
X140657104Y-143610057D01*
X140657104Y-143657676D01*
X140609485Y-143752914D01*
X140561866Y-143800533D01*
X140466628Y-143848152D01*
X140276152Y-143848152D01*
X140180914Y-143895771D01*
X140133295Y-143943390D01*
X140085676Y-144038628D01*
X140085676Y-144229104D01*
X140133295Y-144324342D01*
X140180914Y-144371961D01*
X140276152Y-144419580D01*
X140466628Y-144419580D01*
X140561866Y-144371961D01*
X140609485Y-144324342D01*
X140657104Y-144229104D01*
X140657104Y-144038628D01*
X140609485Y-143943390D01*
X140561866Y-143895771D01*
X140466628Y-143848152D01*
X138904742Y-136393180D02*
X138571409Y-135916990D01*
X138333314Y-136393180D02*
X138333314Y-135393180D01*
X138714266Y-135393180D01*
X138809504Y-135440800D01*
X138857123Y-135488419D01*
X138904742Y-135583657D01*
X138904742Y-135726514D01*
X138857123Y-135821752D01*
X138809504Y-135869371D01*
X138714266Y-135916990D01*
X138333314Y-135916990D01*
X139857123Y-136393180D02*
X139285695Y-136393180D01*
X139571409Y-136393180D02*
X139571409Y-135393180D01*
X139476171Y-135536038D01*
X139380933Y-135631276D01*
X139285695Y-135678895D01*
X140190457Y-135393180D02*
X140857123Y-135393180D01*
X140428552Y-136393180D01*
X163694980Y-124810857D02*
X163218790Y-125144190D01*
X163694980Y-125382285D02*
X162694980Y-125382285D01*
X162694980Y-125001333D01*
X162742600Y-124906095D01*
X162790219Y-124858476D01*
X162885457Y-124810857D01*
X163028314Y-124810857D01*
X163123552Y-124858476D01*
X163171171Y-124906095D01*
X163218790Y-125001333D01*
X163218790Y-125382285D01*
X163694980Y-123858476D02*
X163694980Y-124429904D01*
X163694980Y-124144190D02*
X162694980Y-124144190D01*
X162837838Y-124239428D01*
X162933076Y-124334666D01*
X162980695Y-124429904D01*
X162694980Y-123001333D02*
X162694980Y-123191809D01*
X162742600Y-123287047D01*
X162790219Y-123334666D01*
X162933076Y-123429904D01*
X163123552Y-123477523D01*
X163504504Y-123477523D01*
X163599742Y-123429904D01*
X163647361Y-123382285D01*
X163694980Y-123287047D01*
X163694980Y-123096571D01*
X163647361Y-123001333D01*
X163599742Y-122953714D01*
X163504504Y-122906095D01*
X163266409Y-122906095D01*
X163171171Y-122953714D01*
X163123552Y-123001333D01*
X163075933Y-123096571D01*
X163075933Y-123287047D01*
X163123552Y-123382285D01*
X163171171Y-123429904D01*
X163266409Y-123477523D01*
X151030602Y-120325833D02*
X150458183Y-120224818D01*
X150626541Y-120729894D02*
X149919435Y-120022787D01*
X150188809Y-119753413D01*
X150289824Y-119719741D01*
X150357167Y-119719741D01*
X150458183Y-119753413D01*
X150559198Y-119854428D01*
X150592870Y-119955444D01*
X150592870Y-120022787D01*
X150559198Y-120123802D01*
X150289824Y-120393176D01*
X151704038Y-119652398D02*
X151299977Y-120056459D01*
X151502007Y-119854428D02*
X150794900Y-119147321D01*
X150828572Y-119315680D01*
X150828572Y-119450367D01*
X150794900Y-119551383D01*
X151636694Y-118305528D02*
X151299977Y-118642245D01*
X151603022Y-119012634D01*
X151603022Y-118945291D01*
X151636694Y-118844276D01*
X151805053Y-118675917D01*
X151906068Y-118642245D01*
X151973412Y-118642245D01*
X152074427Y-118675917D01*
X152242786Y-118844276D01*
X152276457Y-118945291D01*
X152276457Y-119012634D01*
X152242786Y-119113650D01*
X152074427Y-119282008D01*
X151973412Y-119315680D01*
X151906068Y-119315680D01*
X203283333Y-172402380D02*
X202950000Y-171926190D01*
X202711904Y-172402380D02*
X202711904Y-171402380D01*
X203092857Y-171402380D01*
X203188095Y-171450000D01*
X203235714Y-171497619D01*
X203283333Y-171592857D01*
X203283333Y-171735714D01*
X203235714Y-171830952D01*
X203188095Y-171878571D01*
X203092857Y-171926190D01*
X202711904Y-171926190D01*
X204140476Y-171735714D02*
X204140476Y-172402380D01*
X203902380Y-171354761D02*
X203664285Y-172069047D01*
X204283333Y-172069047D01*
X206433333Y-172702380D02*
X206100000Y-172226190D01*
X205861904Y-172702380D02*
X205861904Y-171702380D01*
X206242857Y-171702380D01*
X206338095Y-171750000D01*
X206385714Y-171797619D01*
X206433333Y-171892857D01*
X206433333Y-172035714D01*
X206385714Y-172130952D01*
X206338095Y-172178571D01*
X206242857Y-172226190D01*
X205861904Y-172226190D01*
X206766666Y-171702380D02*
X207385714Y-171702380D01*
X207052380Y-172083333D01*
X207195238Y-172083333D01*
X207290476Y-172130952D01*
X207338095Y-172178571D01*
X207385714Y-172273809D01*
X207385714Y-172511904D01*
X207338095Y-172607142D01*
X207290476Y-172654761D01*
X207195238Y-172702380D01*
X206909523Y-172702380D01*
X206814285Y-172654761D01*
X206766666Y-172607142D01*
X186733933Y-114147380D02*
X186400600Y-113671190D01*
X186162504Y-114147380D02*
X186162504Y-113147380D01*
X186543457Y-113147380D01*
X186638695Y-113195000D01*
X186686314Y-113242619D01*
X186733933Y-113337857D01*
X186733933Y-113480714D01*
X186686314Y-113575952D01*
X186638695Y-113623571D01*
X186543457Y-113671190D01*
X186162504Y-113671190D01*
X187686314Y-114147380D02*
X187114885Y-114147380D01*
X187400600Y-114147380D02*
X187400600Y-113147380D01*
X187305361Y-113290238D01*
X187210123Y-113385476D01*
X187114885Y-113433095D01*
X202447619Y-177371428D02*
X202400000Y-177466666D01*
X202304761Y-177561904D01*
X202161904Y-177704761D01*
X202114285Y-177800000D01*
X202114285Y-177895238D01*
X202352380Y-177847619D02*
X202304761Y-177942857D01*
X202209523Y-178038095D01*
X202019047Y-178085714D01*
X201685714Y-178085714D01*
X201495238Y-178038095D01*
X201400000Y-177942857D01*
X201352380Y-177847619D01*
X201352380Y-177657142D01*
X201400000Y-177561904D01*
X201495238Y-177466666D01*
X201685714Y-177419047D01*
X202019047Y-177419047D01*
X202209523Y-177466666D01*
X202304761Y-177561904D01*
X202352380Y-177657142D01*
X202352380Y-177847619D01*
X202352380Y-176466666D02*
X202352380Y-177038095D01*
X202352380Y-176752380D02*
X201352380Y-176752380D01*
X201495238Y-176847619D01*
X201590476Y-176942857D01*
X201638095Y-177038095D01*
X201352380Y-176133333D02*
X201352380Y-175514285D01*
X201733333Y-175847619D01*
X201733333Y-175704761D01*
X201780952Y-175609523D01*
X201828571Y-175561904D01*
X201923809Y-175514285D01*
X202161904Y-175514285D01*
X202257142Y-175561904D01*
X202304761Y-175609523D01*
X202352380Y-175704761D01*
X202352380Y-175990476D01*
X202304761Y-176085714D01*
X202257142Y-176133333D01*
X162396419Y-153073028D02*
X162348800Y-153168266D01*
X162253561Y-153263504D01*
X162110704Y-153406361D01*
X162063085Y-153501600D01*
X162063085Y-153596838D01*
X162301180Y-153549219D02*
X162253561Y-153644457D01*
X162158323Y-153739695D01*
X161967847Y-153787314D01*
X161634514Y-153787314D01*
X161444038Y-153739695D01*
X161348800Y-153644457D01*
X161301180Y-153549219D01*
X161301180Y-153358742D01*
X161348800Y-153263504D01*
X161444038Y-153168266D01*
X161634514Y-153120647D01*
X161967847Y-153120647D01*
X162158323Y-153168266D01*
X162253561Y-153263504D01*
X162301180Y-153358742D01*
X162301180Y-153549219D01*
X162301180Y-152168266D02*
X162301180Y-152739695D01*
X162301180Y-152453980D02*
X161301180Y-152453980D01*
X161444038Y-152549219D01*
X161539276Y-152644457D01*
X161586895Y-152739695D01*
X161301180Y-151549219D02*
X161301180Y-151453980D01*
X161348800Y-151358742D01*
X161396419Y-151311123D01*
X161491657Y-151263504D01*
X161682133Y-151215885D01*
X161920228Y-151215885D01*
X162110704Y-151263504D01*
X162205942Y-151311123D01*
X162253561Y-151358742D01*
X162301180Y-151453980D01*
X162301180Y-151549219D01*
X162253561Y-151644457D01*
X162205942Y-151692076D01*
X162110704Y-151739695D01*
X161920228Y-151787314D01*
X161682133Y-151787314D01*
X161491657Y-151739695D01*
X161396419Y-151692076D01*
X161348800Y-151644457D01*
X161301180Y-151549219D01*
X224389961Y-127090419D02*
X224294723Y-127042800D01*
X224199485Y-126947561D01*
X224056628Y-126804704D01*
X223961390Y-126757085D01*
X223866152Y-126757085D01*
X223913771Y-126995180D02*
X223818533Y-126947561D01*
X223723295Y-126852323D01*
X223675676Y-126661847D01*
X223675676Y-126328514D01*
X223723295Y-126138038D01*
X223818533Y-126042800D01*
X223913771Y-125995180D01*
X224104247Y-125995180D01*
X224199485Y-126042800D01*
X224294723Y-126138038D01*
X224342342Y-126328514D01*
X224342342Y-126661847D01*
X224294723Y-126852323D01*
X224199485Y-126947561D01*
X224104247Y-126995180D01*
X223913771Y-126995180D01*
X224913771Y-126423752D02*
X224818533Y-126376133D01*
X224770914Y-126328514D01*
X224723295Y-126233276D01*
X224723295Y-126185657D01*
X224770914Y-126090419D01*
X224818533Y-126042800D01*
X224913771Y-125995180D01*
X225104247Y-125995180D01*
X225199485Y-126042800D01*
X225247104Y-126090419D01*
X225294723Y-126185657D01*
X225294723Y-126233276D01*
X225247104Y-126328514D01*
X225199485Y-126376133D01*
X225104247Y-126423752D01*
X224913771Y-126423752D01*
X224818533Y-126471371D01*
X224770914Y-126518990D01*
X224723295Y-126614228D01*
X224723295Y-126804704D01*
X224770914Y-126899942D01*
X224818533Y-126947561D01*
X224913771Y-126995180D01*
X225104247Y-126995180D01*
X225199485Y-126947561D01*
X225247104Y-126899942D01*
X225294723Y-126804704D01*
X225294723Y-126614228D01*
X225247104Y-126518990D01*
X225199485Y-126471371D01*
X225104247Y-126423752D01*
X157062419Y-124148838D02*
X157014800Y-124244076D01*
X156919561Y-124339314D01*
X156776704Y-124482171D01*
X156729085Y-124577409D01*
X156729085Y-124672647D01*
X156967180Y-124625028D02*
X156919561Y-124720266D01*
X156824323Y-124815504D01*
X156633847Y-124863123D01*
X156300514Y-124863123D01*
X156110038Y-124815504D01*
X156014800Y-124720266D01*
X155967180Y-124625028D01*
X155967180Y-124434552D01*
X156014800Y-124339314D01*
X156110038Y-124244076D01*
X156300514Y-124196457D01*
X156633847Y-124196457D01*
X156824323Y-124244076D01*
X156919561Y-124339314D01*
X156967180Y-124434552D01*
X156967180Y-124625028D01*
X155967180Y-123863123D02*
X155967180Y-123196457D01*
X156967180Y-123625028D01*
X186170819Y-107283238D02*
X186123200Y-107378476D01*
X186027961Y-107473714D01*
X185885104Y-107616571D01*
X185837485Y-107711809D01*
X185837485Y-107807047D01*
X186075580Y-107759428D02*
X186027961Y-107854666D01*
X185932723Y-107949904D01*
X185742247Y-107997523D01*
X185408914Y-107997523D01*
X185218438Y-107949904D01*
X185123200Y-107854666D01*
X185075580Y-107759428D01*
X185075580Y-107568952D01*
X185123200Y-107473714D01*
X185218438Y-107378476D01*
X185408914Y-107330857D01*
X185742247Y-107330857D01*
X185932723Y-107378476D01*
X186027961Y-107473714D01*
X186075580Y-107568952D01*
X186075580Y-107759428D01*
X186075580Y-106378476D02*
X186075580Y-106949904D01*
X186075580Y-106664190D02*
X185075580Y-106664190D01*
X185218438Y-106759428D01*
X185313676Y-106854666D01*
X185361295Y-106949904D01*
X203430361Y-136157600D02*
X203477980Y-136014742D01*
X203477980Y-135776647D01*
X203430361Y-135681409D01*
X203382742Y-135633790D01*
X203287504Y-135586171D01*
X203192266Y-135586171D01*
X203097028Y-135633790D01*
X203049409Y-135681409D01*
X203001790Y-135776647D01*
X202954171Y-135967123D01*
X202906552Y-136062361D01*
X202858933Y-136109980D01*
X202763695Y-136157600D01*
X202668457Y-136157600D01*
X202573219Y-136109980D01*
X202525600Y-136062361D01*
X202477980Y-135967123D01*
X202477980Y-135729028D01*
X202525600Y-135586171D01*
X202573219Y-135205219D02*
X202525600Y-135157600D01*
X202477980Y-135062361D01*
X202477980Y-134824266D01*
X202525600Y-134729028D01*
X202573219Y-134681409D01*
X202668457Y-134633790D01*
X202763695Y-134633790D01*
X202906552Y-134681409D01*
X203477980Y-135252838D01*
X203477980Y-134633790D01*
X202477980Y-134205219D02*
X203287504Y-134205219D01*
X203382742Y-134157600D01*
X203430361Y-134109980D01*
X203477980Y-134014742D01*
X203477980Y-133824266D01*
X203430361Y-133729028D01*
X203382742Y-133681409D01*
X203287504Y-133633790D01*
X202477980Y-133633790D01*
X203573219Y-133395695D02*
X203573219Y-132633790D01*
X202525600Y-131871885D02*
X202477980Y-131967123D01*
X202477980Y-132109980D01*
X202525600Y-132252838D01*
X202620838Y-132348076D01*
X202716076Y-132395695D01*
X202906552Y-132443314D01*
X203049409Y-132443314D01*
X203239885Y-132395695D01*
X203335123Y-132348076D01*
X203430361Y-132252838D01*
X203477980Y-132109980D01*
X203477980Y-132014742D01*
X203430361Y-131871885D01*
X203382742Y-131824266D01*
X203049409Y-131824266D01*
X203049409Y-132014742D01*
X203477980Y-131395695D02*
X202477980Y-131395695D01*
X203477980Y-130824266D01*
X202477980Y-130824266D01*
X203477980Y-130348076D02*
X202477980Y-130348076D01*
X202477980Y-130109980D01*
X202525600Y-129967123D01*
X202620838Y-129871885D01*
X202716076Y-129824266D01*
X202906552Y-129776647D01*
X203049409Y-129776647D01*
X203239885Y-129824266D01*
X203335123Y-129871885D01*
X203430361Y-129967123D01*
X203477980Y-130109980D01*
X203477980Y-130348076D01*
X203573219Y-129586171D02*
X203573219Y-128824266D01*
X202477980Y-128300457D02*
X203192266Y-128300457D01*
X203335123Y-128348076D01*
X203430361Y-128443314D01*
X203477980Y-128586171D01*
X203477980Y-128681409D01*
X203477980Y-127824266D02*
X202477980Y-127824266D01*
X203192266Y-127490933D01*
X202477980Y-127157600D01*
X203477980Y-127157600D01*
X203477980Y-126681409D02*
X202477980Y-126681409D01*
X202477980Y-126300457D01*
X202525600Y-126205219D01*
X202573219Y-126157600D01*
X202668457Y-126109980D01*
X202811314Y-126109980D01*
X202906552Y-126157600D01*
X202954171Y-126205219D01*
X203001790Y-126300457D01*
X203001790Y-126681409D01*
X203477980Y-125157600D02*
X203477980Y-125729028D01*
X203477980Y-125443314D02*
X202477980Y-125443314D01*
X202620838Y-125538552D01*
X202716076Y-125633790D01*
X202763695Y-125729028D01*
X160750666Y-94546800D02*
X160655428Y-94499180D01*
X160512571Y-94499180D01*
X160369714Y-94546800D01*
X160274476Y-94642038D01*
X160226857Y-94737276D01*
X160179238Y-94927752D01*
X160179238Y-95070609D01*
X160226857Y-95261085D01*
X160274476Y-95356323D01*
X160369714Y-95451561D01*
X160512571Y-95499180D01*
X160607809Y-95499180D01*
X160750666Y-95451561D01*
X160798285Y-95403942D01*
X160798285Y-95070609D01*
X160607809Y-95070609D01*
X161226857Y-95499180D02*
X161226857Y-94499180D01*
X161798285Y-95499180D01*
X161798285Y-94499180D01*
X162274476Y-95499180D02*
X162274476Y-94499180D01*
X162512571Y-94499180D01*
X162655428Y-94546800D01*
X162750666Y-94642038D01*
X162798285Y-94737276D01*
X162845904Y-94927752D01*
X162845904Y-95070609D01*
X162798285Y-95261085D01*
X162750666Y-95356323D01*
X162655428Y-95451561D01*
X162512571Y-95499180D01*
X162274476Y-95499180D01*
X163274476Y-95118228D02*
X164036380Y-95118228D01*
X165036380Y-94546800D02*
X164941142Y-94499180D01*
X164798285Y-94499180D01*
X164655428Y-94546800D01*
X164560190Y-94642038D01*
X164512571Y-94737276D01*
X164464952Y-94927752D01*
X164464952Y-95070609D01*
X164512571Y-95261085D01*
X164560190Y-95356323D01*
X164655428Y-95451561D01*
X164798285Y-95499180D01*
X164893523Y-95499180D01*
X165036380Y-95451561D01*
X165084000Y-95403942D01*
X165084000Y-95070609D01*
X164893523Y-95070609D01*
X165512571Y-95499180D02*
X165512571Y-94499180D01*
X166084000Y-95499180D01*
X166084000Y-94499180D01*
X166560190Y-95499180D02*
X166560190Y-94499180D01*
X166798285Y-94499180D01*
X166941142Y-94546800D01*
X167036380Y-94642038D01*
X167084000Y-94737276D01*
X167131619Y-94927752D01*
X167131619Y-95070609D01*
X167084000Y-95261085D01*
X167036380Y-95356323D01*
X166941142Y-95451561D01*
X166798285Y-95499180D01*
X166560190Y-95499180D01*
X167512571Y-95213466D02*
X167988761Y-95213466D01*
X167417333Y-95499180D02*
X167750666Y-94499180D01*
X168084000Y-95499180D01*
X201466666Y-94114285D02*
X201466666Y-93638095D01*
X201752380Y-94209523D02*
X200752380Y-93876190D01*
X201752380Y-93542857D01*
X200752380Y-93019047D02*
X200752380Y-92923809D01*
X200800000Y-92828571D01*
X200847619Y-92780952D01*
X200942857Y-92733333D01*
X201133333Y-92685714D01*
X201371428Y-92685714D01*
X201561904Y-92733333D01*
X201657142Y-92780952D01*
X201704761Y-92828571D01*
X201752380Y-92923809D01*
X201752380Y-93019047D01*
X201704761Y-93114285D01*
X201657142Y-93161904D01*
X201561904Y-93209523D01*
X201371428Y-93257142D01*
X201133333Y-93257142D01*
X200942857Y-93209523D01*
X200847619Y-93161904D01*
X200800000Y-93114285D01*
X200752380Y-93019047D01*
X201152380Y-95214285D02*
X201152380Y-95785714D01*
X201152380Y-95500000D02*
X200152380Y-95500000D01*
X200295238Y-95595238D01*
X200390476Y-95690476D01*
X200438095Y-95785714D01*
X200252380Y-91433333D02*
X200252380Y-90814285D01*
X200633333Y-91147619D01*
X200633333Y-91004761D01*
X200680952Y-90909523D01*
X200728571Y-90861904D01*
X200823809Y-90814285D01*
X201061904Y-90814285D01*
X201157142Y-90861904D01*
X201204761Y-90909523D01*
X201252380Y-91004761D01*
X201252380Y-91290476D01*
X201204761Y-91385714D01*
X201157142Y-91433333D01*
X155590476Y-187352380D02*
X155590476Y-188066666D01*
X155542857Y-188209523D01*
X155447619Y-188304761D01*
X155304761Y-188352380D01*
X155209523Y-188352380D01*
X156590476Y-188352380D02*
X156019047Y-188352380D01*
X156304761Y-188352380D02*
X156304761Y-187352380D01*
X156209523Y-187495238D01*
X156114285Y-187590476D01*
X156019047Y-187638095D01*
X157447619Y-187685714D02*
X157447619Y-188352380D01*
X157209523Y-187304761D02*
X156971428Y-188019047D01*
X157590476Y-188019047D01*
X224071080Y-153969623D02*
X224785366Y-153969623D01*
X224928223Y-154017242D01*
X225023461Y-154112480D01*
X225071080Y-154255338D01*
X225071080Y-154350576D01*
X225071080Y-152969623D02*
X225071080Y-153541052D01*
X225071080Y-153255338D02*
X224071080Y-153255338D01*
X224213938Y-153350576D01*
X224309176Y-153445814D01*
X224356795Y-153541052D01*
X225071080Y-152017242D02*
X225071080Y-152588671D01*
X225071080Y-152302957D02*
X224071080Y-152302957D01*
X224213938Y-152398195D01*
X224309176Y-152493433D01*
X224356795Y-152588671D01*
X229138178Y-128474995D02*
X228466969Y-128719295D01*
X228316441Y-128723408D01*
X228194373Y-128666487D01*
X228100766Y-128548531D01*
X228068192Y-128459037D01*
X228377639Y-129309235D02*
X228442786Y-129488224D01*
X228520106Y-129561432D01*
X228581140Y-129589892D01*
X228747956Y-129630527D01*
X228943231Y-129610128D01*
X229301209Y-129479834D01*
X229374417Y-129402514D01*
X229402878Y-129341480D01*
X229415052Y-129235698D01*
X229349905Y-129056709D01*
X229272585Y-128983501D01*
X229211551Y-128955041D01*
X229105769Y-128942867D01*
X228882033Y-129024300D01*
X228808825Y-129101621D01*
X228780365Y-129162655D01*
X228768191Y-129268436D01*
X228833337Y-129447425D01*
X228910658Y-129520633D01*
X228971692Y-129549094D01*
X229077473Y-129561268D01*
D13*
X203805180Y-190107735D02*
X204429559Y-190999441D01*
X204494987Y-191219407D01*
X204459344Y-191421552D01*
X204322628Y-191605875D01*
X204203734Y-191689125D01*
X205927698Y-190481993D02*
X205214334Y-190981496D01*
X205571016Y-190731744D02*
X204696885Y-189483357D01*
X204702867Y-189744948D01*
X204667223Y-189947093D01*
X204589955Y-190089790D01*
D10*
X161702380Y-134459695D02*
X160702380Y-134459695D01*
X160702380Y-134221600D01*
X160750000Y-134078742D01*
X160845238Y-133983504D01*
X160940476Y-133935885D01*
X161130952Y-133888266D01*
X161273809Y-133888266D01*
X161464285Y-133935885D01*
X161559523Y-133983504D01*
X161654761Y-134078742D01*
X161702380Y-134221600D01*
X161702380Y-134459695D01*
X160702380Y-132983504D02*
X160702380Y-133459695D01*
X161178571Y-133507314D01*
X161130952Y-133459695D01*
X161083333Y-133364457D01*
X161083333Y-133126361D01*
X161130952Y-133031123D01*
X161178571Y-132983504D01*
X161273809Y-132935885D01*
X161511904Y-132935885D01*
X161607142Y-132983504D01*
X161654761Y-133031123D01*
X161702380Y-133126361D01*
X161702380Y-133364457D01*
X161654761Y-133459695D01*
X161607142Y-133507314D01*
X136523504Y-138018780D02*
X136523504Y-137018780D01*
X136761600Y-137018780D01*
X136904457Y-137066400D01*
X136999695Y-137161638D01*
X137047314Y-137256876D01*
X137094933Y-137447352D01*
X137094933Y-137590209D01*
X137047314Y-137780685D01*
X136999695Y-137875923D01*
X136904457Y-137971161D01*
X136761600Y-138018780D01*
X136523504Y-138018780D01*
X137952076Y-137352114D02*
X137952076Y-138018780D01*
X137713980Y-136971161D02*
X137475885Y-137685447D01*
X138094933Y-137685447D01*
X219044780Y-158522895D02*
X218044780Y-158522895D01*
X218044780Y-158284800D01*
X218092400Y-158141942D01*
X218187638Y-158046704D01*
X218282876Y-157999085D01*
X218473352Y-157951466D01*
X218616209Y-157951466D01*
X218806685Y-157999085D01*
X218901923Y-158046704D01*
X218997161Y-158141942D01*
X219044780Y-158284800D01*
X219044780Y-158522895D01*
X218044780Y-157618133D02*
X218044780Y-156999085D01*
X218425733Y-157332419D01*
X218425733Y-157189561D01*
X218473352Y-157094323D01*
X218520971Y-157046704D01*
X218616209Y-156999085D01*
X218854304Y-156999085D01*
X218949542Y-157046704D01*
X218997161Y-157094323D01*
X219044780Y-157189561D01*
X219044780Y-157475276D01*
X218997161Y-157570514D01*
X218949542Y-157618133D01*
X221127580Y-158624495D02*
X220127580Y-158624495D01*
X220127580Y-158386400D01*
X220175200Y-158243542D01*
X220270438Y-158148304D01*
X220365676Y-158100685D01*
X220556152Y-158053066D01*
X220699009Y-158053066D01*
X220889485Y-158100685D01*
X220984723Y-158148304D01*
X221079961Y-158243542D01*
X221127580Y-158386400D01*
X221127580Y-158624495D01*
X220222819Y-157672114D02*
X220175200Y-157624495D01*
X220127580Y-157529257D01*
X220127580Y-157291161D01*
X220175200Y-157195923D01*
X220222819Y-157148304D01*
X220318057Y-157100685D01*
X220413295Y-157100685D01*
X220556152Y-157148304D01*
X221127580Y-157719733D01*
X221127580Y-157100685D01*
X223311980Y-158776895D02*
X222311980Y-158776895D01*
X222311980Y-158538800D01*
X222359600Y-158395942D01*
X222454838Y-158300704D01*
X222550076Y-158253085D01*
X222740552Y-158205466D01*
X222883409Y-158205466D01*
X223073885Y-158253085D01*
X223169123Y-158300704D01*
X223264361Y-158395942D01*
X223311980Y-158538800D01*
X223311980Y-158776895D01*
X223311980Y-157253085D02*
X223311980Y-157824514D01*
X223311980Y-157538800D02*
X222311980Y-157538800D01*
X222454838Y-157634038D01*
X222550076Y-157729276D01*
X222597695Y-157824514D01*
X225010742Y-160377142D02*
X224963123Y-160424761D01*
X224820266Y-160472380D01*
X224725028Y-160472380D01*
X224582171Y-160424761D01*
X224486933Y-160329523D01*
X224439314Y-160234285D01*
X224391695Y-160043809D01*
X224391695Y-159900952D01*
X224439314Y-159710476D01*
X224486933Y-159615238D01*
X224582171Y-159520000D01*
X224725028Y-159472380D01*
X224820266Y-159472380D01*
X224963123Y-159520000D01*
X225010742Y-159567619D01*
X225915504Y-159472380D02*
X225439314Y-159472380D01*
X225391695Y-159948571D01*
X225439314Y-159900952D01*
X225534552Y-159853333D01*
X225772647Y-159853333D01*
X225867885Y-159900952D01*
X225915504Y-159948571D01*
X225963123Y-160043809D01*
X225963123Y-160281904D01*
X225915504Y-160377142D01*
X225867885Y-160424761D01*
X225772647Y-160472380D01*
X225534552Y-160472380D01*
X225439314Y-160424761D01*
X225391695Y-160377142D01*
X226915504Y-160472380D02*
X226344076Y-160472380D01*
X226629790Y-160472380D02*
X226629790Y-159472380D01*
X226534552Y-159615238D01*
X226439314Y-159710476D01*
X226344076Y-159758095D01*
X208856342Y-126290342D02*
X208808723Y-126337961D01*
X208665866Y-126385580D01*
X208570628Y-126385580D01*
X208427771Y-126337961D01*
X208332533Y-126242723D01*
X208284914Y-126147485D01*
X208237295Y-125957009D01*
X208237295Y-125814152D01*
X208284914Y-125623676D01*
X208332533Y-125528438D01*
X208427771Y-125433200D01*
X208570628Y-125385580D01*
X208665866Y-125385580D01*
X208808723Y-125433200D01*
X208856342Y-125480819D01*
X209713485Y-125718914D02*
X209713485Y-126385580D01*
X209475390Y-125337961D02*
X209237295Y-126052247D01*
X209856342Y-126052247D01*
X210380152Y-125814152D02*
X210284914Y-125766533D01*
X210237295Y-125718914D01*
X210189676Y-125623676D01*
X210189676Y-125576057D01*
X210237295Y-125480819D01*
X210284914Y-125433200D01*
X210380152Y-125385580D01*
X210570628Y-125385580D01*
X210665866Y-125433200D01*
X210713485Y-125480819D01*
X210761104Y-125576057D01*
X210761104Y-125623676D01*
X210713485Y-125718914D01*
X210665866Y-125766533D01*
X210570628Y-125814152D01*
X210380152Y-125814152D01*
X210284914Y-125861771D01*
X210237295Y-125909390D01*
X210189676Y-126004628D01*
X210189676Y-126195104D01*
X210237295Y-126290342D01*
X210284914Y-126337961D01*
X210380152Y-126385580D01*
X210570628Y-126385580D01*
X210665866Y-126337961D01*
X210713485Y-126290342D01*
X210761104Y-126195104D01*
X210761104Y-126004628D01*
X210713485Y-125909390D01*
X210665866Y-125861771D01*
X210570628Y-125814152D01*
X209602342Y-131706857D02*
X209649961Y-131754476D01*
X209697580Y-131897333D01*
X209697580Y-131992571D01*
X209649961Y-132135428D01*
X209554723Y-132230666D01*
X209459485Y-132278285D01*
X209269009Y-132325904D01*
X209126152Y-132325904D01*
X208935676Y-132278285D01*
X208840438Y-132230666D01*
X208745200Y-132135428D01*
X208697580Y-131992571D01*
X208697580Y-131897333D01*
X208745200Y-131754476D01*
X208792819Y-131706857D01*
X209030914Y-130849714D02*
X209697580Y-130849714D01*
X208649961Y-131087809D02*
X209364247Y-131325904D01*
X209364247Y-130706857D01*
X208697580Y-130421142D02*
X208697580Y-129754476D01*
X209697580Y-130183047D01*
X151157142Y-157757142D02*
X151109523Y-157804761D01*
X150966666Y-157852380D01*
X150871428Y-157852380D01*
X150728571Y-157804761D01*
X150633333Y-157709523D01*
X150585714Y-157614285D01*
X150538095Y-157423809D01*
X150538095Y-157280952D01*
X150585714Y-157090476D01*
X150633333Y-156995238D01*
X150728571Y-156900000D01*
X150871428Y-156852380D01*
X150966666Y-156852380D01*
X151109523Y-156900000D01*
X151157142Y-156947619D01*
X152014285Y-157185714D02*
X152014285Y-157852380D01*
X151776190Y-156804761D02*
X151538095Y-157519047D01*
X152157142Y-157519047D01*
X153014285Y-156852380D02*
X152538095Y-156852380D01*
X152490476Y-157328571D01*
X152538095Y-157280952D01*
X152633333Y-157233333D01*
X152871428Y-157233333D01*
X152966666Y-157280952D01*
X153014285Y-157328571D01*
X153061904Y-157423809D01*
X153061904Y-157661904D01*
X153014285Y-157757142D01*
X152966666Y-157804761D01*
X152871428Y-157852380D01*
X152633333Y-157852380D01*
X152538095Y-157804761D01*
X152490476Y-157757142D01*
X152157142Y-155557142D02*
X152109523Y-155604761D01*
X151966666Y-155652380D01*
X151871428Y-155652380D01*
X151728571Y-155604761D01*
X151633333Y-155509523D01*
X151585714Y-155414285D01*
X151538095Y-155223809D01*
X151538095Y-155080952D01*
X151585714Y-154890476D01*
X151633333Y-154795238D01*
X151728571Y-154700000D01*
X151871428Y-154652380D01*
X151966666Y-154652380D01*
X152109523Y-154700000D01*
X152157142Y-154747619D01*
X153014285Y-154985714D02*
X153014285Y-155652380D01*
X152776190Y-154604761D02*
X152538095Y-155319047D01*
X153157142Y-155319047D01*
X153966666Y-154985714D02*
X153966666Y-155652380D01*
X153728571Y-154604761D02*
X153490476Y-155319047D01*
X154109523Y-155319047D01*
X222099142Y-132621257D02*
X222146761Y-132668876D01*
X222194380Y-132811733D01*
X222194380Y-132906971D01*
X222146761Y-133049828D01*
X222051523Y-133145066D01*
X221956285Y-133192685D01*
X221765809Y-133240304D01*
X221622952Y-133240304D01*
X221432476Y-133192685D01*
X221337238Y-133145066D01*
X221242000Y-133049828D01*
X221194380Y-132906971D01*
X221194380Y-132811733D01*
X221242000Y-132668876D01*
X221289619Y-132621257D01*
X221527714Y-131764114D02*
X222194380Y-131764114D01*
X221146761Y-132002209D02*
X221861047Y-132240304D01*
X221861047Y-131621257D01*
X221194380Y-131335542D02*
X221194380Y-130716495D01*
X221575333Y-131049828D01*
X221575333Y-130906971D01*
X221622952Y-130811733D01*
X221670571Y-130764114D01*
X221765809Y-130716495D01*
X222003904Y-130716495D01*
X222099142Y-130764114D01*
X222146761Y-130811733D01*
X222194380Y-130906971D01*
X222194380Y-131192685D01*
X222146761Y-131287923D01*
X222099142Y-131335542D01*
X219965542Y-132570457D02*
X220013161Y-132618076D01*
X220060780Y-132760933D01*
X220060780Y-132856171D01*
X220013161Y-132999028D01*
X219917923Y-133094266D01*
X219822685Y-133141885D01*
X219632209Y-133189504D01*
X219489352Y-133189504D01*
X219298876Y-133141885D01*
X219203638Y-133094266D01*
X219108400Y-132999028D01*
X219060780Y-132856171D01*
X219060780Y-132760933D01*
X219108400Y-132618076D01*
X219156019Y-132570457D01*
X219394114Y-131713314D02*
X220060780Y-131713314D01*
X219013161Y-131951409D02*
X219727447Y-132189504D01*
X219727447Y-131570457D01*
X219156019Y-131237123D02*
X219108400Y-131189504D01*
X219060780Y-131094266D01*
X219060780Y-130856171D01*
X219108400Y-130760933D01*
X219156019Y-130713314D01*
X219251257Y-130665695D01*
X219346495Y-130665695D01*
X219489352Y-130713314D01*
X220060780Y-131284742D01*
X220060780Y-130665695D01*
X152717566Y-175778824D02*
X152723436Y-175845911D01*
X152668087Y-175985955D01*
X152606869Y-176058911D01*
X152478564Y-176137737D01*
X152344390Y-176149476D01*
X152240824Y-176124737D01*
X152064302Y-176038779D01*
X151954867Y-175946952D01*
X151839563Y-175788038D01*
X151797215Y-175690342D01*
X151785476Y-175556168D01*
X151840825Y-175416124D01*
X151902043Y-175343167D01*
X152030348Y-175264341D01*
X152097435Y-175258472D01*
X152238741Y-174941906D02*
X152636657Y-174467688D01*
X152714221Y-174967907D01*
X152806048Y-174858472D01*
X152903744Y-174816125D01*
X152970831Y-174810255D01*
X153074397Y-174834995D01*
X153256788Y-174988040D01*
X153299136Y-175085736D01*
X153305005Y-175152823D01*
X153280266Y-175256389D01*
X153096612Y-175475258D01*
X152998916Y-175517606D01*
X152931829Y-175523475D01*
X153332269Y-174305428D02*
X153234573Y-174347776D01*
X153167486Y-174353646D01*
X153063920Y-174328906D01*
X153027442Y-174298297D01*
X152985094Y-174200601D01*
X152979225Y-174133514D01*
X153003964Y-174029948D01*
X153126400Y-173884035D01*
X153224096Y-173841687D01*
X153291183Y-173835818D01*
X153394749Y-173860557D01*
X153431227Y-173891166D01*
X153473575Y-173988862D01*
X153479444Y-174055950D01*
X153454705Y-174159515D01*
X153332269Y-174305428D01*
X153307529Y-174408994D01*
X153313399Y-174476081D01*
X153355747Y-174573777D01*
X153501660Y-174696213D01*
X153605225Y-174720953D01*
X153672313Y-174715083D01*
X153770009Y-174672736D01*
X153892444Y-174526822D01*
X153917184Y-174423257D01*
X153911315Y-174356170D01*
X153868967Y-174258474D01*
X153723054Y-174136038D01*
X153619488Y-174111298D01*
X153552401Y-174117168D01*
X153454705Y-174159515D01*
X161866342Y-174702742D02*
X161818723Y-174750361D01*
X161675866Y-174797980D01*
X161580628Y-174797980D01*
X161437771Y-174750361D01*
X161342533Y-174655123D01*
X161294914Y-174559885D01*
X161247295Y-174369409D01*
X161247295Y-174226552D01*
X161294914Y-174036076D01*
X161342533Y-173940838D01*
X161437771Y-173845600D01*
X161580628Y-173797980D01*
X161675866Y-173797980D01*
X161818723Y-173845600D01*
X161866342Y-173893219D01*
X162199676Y-173797980D02*
X162818723Y-173797980D01*
X162485390Y-174178933D01*
X162628247Y-174178933D01*
X162723485Y-174226552D01*
X162771104Y-174274171D01*
X162818723Y-174369409D01*
X162818723Y-174607504D01*
X162771104Y-174702742D01*
X162723485Y-174750361D01*
X162628247Y-174797980D01*
X162342533Y-174797980D01*
X162247295Y-174750361D01*
X162199676Y-174702742D01*
X163152057Y-173797980D02*
X163818723Y-173797980D01*
X163390152Y-174797980D01*
X156557142Y-179042857D02*
X156604761Y-179090476D01*
X156652380Y-179233333D01*
X156652380Y-179328571D01*
X156604761Y-179471428D01*
X156509523Y-179566666D01*
X156414285Y-179614285D01*
X156223809Y-179661904D01*
X156080952Y-179661904D01*
X155890476Y-179614285D01*
X155795238Y-179566666D01*
X155700000Y-179471428D01*
X155652380Y-179328571D01*
X155652380Y-179233333D01*
X155700000Y-179090476D01*
X155747619Y-179042857D01*
X155652380Y-178709523D02*
X155652380Y-178090476D01*
X156033333Y-178423809D01*
X156033333Y-178280952D01*
X156080952Y-178185714D01*
X156128571Y-178138095D01*
X156223809Y-178090476D01*
X156461904Y-178090476D01*
X156557142Y-178138095D01*
X156604761Y-178185714D01*
X156652380Y-178280952D01*
X156652380Y-178566666D01*
X156604761Y-178661904D01*
X156557142Y-178709523D01*
X155652380Y-177233333D02*
X155652380Y-177423809D01*
X155700000Y-177519047D01*
X155747619Y-177566666D01*
X155890476Y-177661904D01*
X156080952Y-177709523D01*
X156461904Y-177709523D01*
X156557142Y-177661904D01*
X156604761Y-177614285D01*
X156652380Y-177519047D01*
X156652380Y-177328571D01*
X156604761Y-177233333D01*
X156557142Y-177185714D01*
X156461904Y-177138095D01*
X156223809Y-177138095D01*
X156128571Y-177185714D01*
X156080952Y-177233333D01*
X156033333Y-177328571D01*
X156033333Y-177519047D01*
X156080952Y-177614285D01*
X156128571Y-177661904D01*
X156223809Y-177709523D01*
X208230742Y-145473657D02*
X208278361Y-145521276D01*
X208325980Y-145664133D01*
X208325980Y-145759371D01*
X208278361Y-145902228D01*
X208183123Y-145997466D01*
X208087885Y-146045085D01*
X207897409Y-146092704D01*
X207754552Y-146092704D01*
X207564076Y-146045085D01*
X207468838Y-145997466D01*
X207373600Y-145902228D01*
X207325980Y-145759371D01*
X207325980Y-145664133D01*
X207373600Y-145521276D01*
X207421219Y-145473657D01*
X207325980Y-145140323D02*
X207325980Y-144521276D01*
X207706933Y-144854609D01*
X207706933Y-144711752D01*
X207754552Y-144616514D01*
X207802171Y-144568895D01*
X207897409Y-144521276D01*
X208135504Y-144521276D01*
X208230742Y-144568895D01*
X208278361Y-144616514D01*
X208325980Y-144711752D01*
X208325980Y-144997466D01*
X208278361Y-145092704D01*
X208230742Y-145140323D01*
X207659314Y-143664133D02*
X208325980Y-143664133D01*
X207278361Y-143902228D02*
X207992647Y-144140323D01*
X207992647Y-143521276D01*
X142393942Y-122613657D02*
X142441561Y-122661276D01*
X142489180Y-122804133D01*
X142489180Y-122899371D01*
X142441561Y-123042228D01*
X142346323Y-123137466D01*
X142251085Y-123185085D01*
X142060609Y-123232704D01*
X141917752Y-123232704D01*
X141727276Y-123185085D01*
X141632038Y-123137466D01*
X141536800Y-123042228D01*
X141489180Y-122899371D01*
X141489180Y-122804133D01*
X141536800Y-122661276D01*
X141584419Y-122613657D01*
X141489180Y-122280323D02*
X141489180Y-121661276D01*
X141870133Y-121994609D01*
X141870133Y-121851752D01*
X141917752Y-121756514D01*
X141965371Y-121708895D01*
X142060609Y-121661276D01*
X142298704Y-121661276D01*
X142393942Y-121708895D01*
X142441561Y-121756514D01*
X142489180Y-121851752D01*
X142489180Y-122137466D01*
X142441561Y-122232704D01*
X142393942Y-122280323D01*
X142489180Y-120708895D02*
X142489180Y-121280323D01*
X142489180Y-120994609D02*
X141489180Y-120994609D01*
X141632038Y-121089847D01*
X141727276Y-121185085D01*
X141774895Y-121280323D01*
X139580342Y-127106742D02*
X139532723Y-127154361D01*
X139389866Y-127201980D01*
X139294628Y-127201980D01*
X139151771Y-127154361D01*
X139056533Y-127059123D01*
X139008914Y-126963885D01*
X138961295Y-126773409D01*
X138961295Y-126630552D01*
X139008914Y-126440076D01*
X139056533Y-126344838D01*
X139151771Y-126249600D01*
X139294628Y-126201980D01*
X139389866Y-126201980D01*
X139532723Y-126249600D01*
X139580342Y-126297219D01*
X139913676Y-126201980D02*
X140532723Y-126201980D01*
X140199390Y-126582933D01*
X140342247Y-126582933D01*
X140437485Y-126630552D01*
X140485104Y-126678171D01*
X140532723Y-126773409D01*
X140532723Y-127011504D01*
X140485104Y-127106742D01*
X140437485Y-127154361D01*
X140342247Y-127201980D01*
X140056533Y-127201980D01*
X139961295Y-127154361D01*
X139913676Y-127106742D01*
X141151771Y-126201980D02*
X141247009Y-126201980D01*
X141342247Y-126249600D01*
X141389866Y-126297219D01*
X141437485Y-126392457D01*
X141485104Y-126582933D01*
X141485104Y-126821028D01*
X141437485Y-127011504D01*
X141389866Y-127106742D01*
X141342247Y-127154361D01*
X141247009Y-127201980D01*
X141151771Y-127201980D01*
X141056533Y-127154361D01*
X141008914Y-127106742D01*
X140961295Y-127011504D01*
X140913676Y-126821028D01*
X140913676Y-126582933D01*
X140961295Y-126392457D01*
X141008914Y-126297219D01*
X141056533Y-126249600D01*
X141151771Y-126201980D01*
X148489942Y-122308857D02*
X148537561Y-122356476D01*
X148585180Y-122499333D01*
X148585180Y-122594571D01*
X148537561Y-122737428D01*
X148442323Y-122832666D01*
X148347085Y-122880285D01*
X148156609Y-122927904D01*
X148013752Y-122927904D01*
X147823276Y-122880285D01*
X147728038Y-122832666D01*
X147632800Y-122737428D01*
X147585180Y-122594571D01*
X147585180Y-122499333D01*
X147632800Y-122356476D01*
X147680419Y-122308857D01*
X147680419Y-121927904D02*
X147632800Y-121880285D01*
X147585180Y-121785047D01*
X147585180Y-121546952D01*
X147632800Y-121451714D01*
X147680419Y-121404095D01*
X147775657Y-121356476D01*
X147870895Y-121356476D01*
X148013752Y-121404095D01*
X148585180Y-121975523D01*
X148585180Y-121356476D01*
X147585180Y-121023142D02*
X147585180Y-120356476D01*
X148585180Y-120785047D01*
X142257542Y-144629142D02*
X142209923Y-144676761D01*
X142067066Y-144724380D01*
X141971828Y-144724380D01*
X141828971Y-144676761D01*
X141733733Y-144581523D01*
X141686114Y-144486285D01*
X141638495Y-144295809D01*
X141638495Y-144152952D01*
X141686114Y-143962476D01*
X141733733Y-143867238D01*
X141828971Y-143772000D01*
X141971828Y-143724380D01*
X142067066Y-143724380D01*
X142209923Y-143772000D01*
X142257542Y-143819619D01*
X142638495Y-143819619D02*
X142686114Y-143772000D01*
X142781352Y-143724380D01*
X143019447Y-143724380D01*
X143114685Y-143772000D01*
X143162304Y-143819619D01*
X143209923Y-143914857D01*
X143209923Y-144010095D01*
X143162304Y-144152952D01*
X142590876Y-144724380D01*
X143209923Y-144724380D01*
X144067066Y-144057714D02*
X144067066Y-144724380D01*
X143828971Y-143676761D02*
X143590876Y-144391047D01*
X144209923Y-144391047D01*
X176750742Y-112625142D02*
X176703123Y-112672761D01*
X176560266Y-112720380D01*
X176465028Y-112720380D01*
X176322171Y-112672761D01*
X176226933Y-112577523D01*
X176179314Y-112482285D01*
X176131695Y-112291809D01*
X176131695Y-112148952D01*
X176179314Y-111958476D01*
X176226933Y-111863238D01*
X176322171Y-111768000D01*
X176465028Y-111720380D01*
X176560266Y-111720380D01*
X176703123Y-111768000D01*
X176750742Y-111815619D01*
X177703123Y-112720380D02*
X177131695Y-112720380D01*
X177417409Y-112720380D02*
X177417409Y-111720380D01*
X177322171Y-111863238D01*
X177226933Y-111958476D01*
X177131695Y-112006095D01*
X178036457Y-111720380D02*
X178655504Y-111720380D01*
X178322171Y-112101333D01*
X178465028Y-112101333D01*
X178560266Y-112148952D01*
X178607885Y-112196571D01*
X178655504Y-112291809D01*
X178655504Y-112529904D01*
X178607885Y-112625142D01*
X178560266Y-112672761D01*
X178465028Y-112720380D01*
X178179314Y-112720380D01*
X178084076Y-112672761D01*
X178036457Y-112625142D01*
X180695766Y-99994980D02*
X180362433Y-99518790D01*
X180124338Y-99994980D02*
X180124338Y-98994980D01*
X180505290Y-98994980D01*
X180600528Y-99042600D01*
X180648147Y-99090219D01*
X180695766Y-99185457D01*
X180695766Y-99328314D01*
X180648147Y-99423552D01*
X180600528Y-99471171D01*
X180505290Y-99518790D01*
X180124338Y-99518790D01*
X181124338Y-99471171D02*
X181457671Y-99471171D01*
X181600528Y-99994980D02*
X181124338Y-99994980D01*
X181124338Y-98994980D01*
X181600528Y-98994980D01*
X182362433Y-99471171D02*
X182029100Y-99471171D01*
X182029100Y-99994980D02*
X182029100Y-98994980D01*
X182505290Y-98994980D01*
X183029100Y-98994980D02*
X183029100Y-99233076D01*
X182791004Y-99137838D02*
X183029100Y-99233076D01*
X183267195Y-99137838D01*
X182886242Y-99423552D02*
X183029100Y-99233076D01*
X183171957Y-99423552D01*
X183791004Y-98994980D02*
X183791004Y-99233076D01*
X183552909Y-99137838D02*
X183791004Y-99233076D01*
X184029100Y-99137838D01*
X183648147Y-99423552D02*
X183791004Y-99233076D01*
X183933861Y-99423552D01*
M02*
