G04 #@! TF.GenerationSoftware,KiCad,Pcbnew,(5.1.7)-1*
G04 #@! TF.CreationDate,2021-09-21T18:23:52-07:00*
G04 #@! TF.ProjectId,LCP_Controller,4c43505f-436f-46e7-9472-6f6c6c65722e,rev?*
G04 #@! TF.SameCoordinates,Original*
G04 #@! TF.FileFunction,Paste,Bot*
G04 #@! TF.FilePolarity,Positive*
%FSLAX46Y46*%
G04 Gerber Fmt 4.6, Leading zero omitted, Abs format (unit mm)*
G04 Created by KiCad (PCBNEW (5.1.7)-1) date 2021-09-21 18:23:52*
%MOMM*%
%LPD*%
G01*
G04 APERTURE LIST*
%ADD10R,1.000000X0.500000*%
%ADD11R,0.250000X0.700000*%
%ADD12R,0.800000X0.900000*%
%ADD13R,0.400000X0.600000*%
%ADD14R,0.600000X0.600000*%
%ADD15R,0.600000X0.400000*%
%ADD16R,7.875000X2.000000*%
%ADD17R,1.800000X1.000000*%
%ADD18R,1.000000X1.400000*%
G04 APERTURE END LIST*
G36*
G01*
X146296800Y-164051000D02*
X146296800Y-163101000D01*
G75*
G02*
X146546800Y-162851000I250000J0D01*
G01*
X147046800Y-162851000D01*
G75*
G02*
X147296800Y-163101000I0J-250000D01*
G01*
X147296800Y-164051000D01*
G75*
G02*
X147046800Y-164301000I-250000J0D01*
G01*
X146546800Y-164301000D01*
G75*
G02*
X146296800Y-164051000I0J250000D01*
G01*
G37*
G36*
G01*
X144396800Y-164051000D02*
X144396800Y-163101000D01*
G75*
G02*
X144646800Y-162851000I250000J0D01*
G01*
X145146800Y-162851000D01*
G75*
G02*
X145396800Y-163101000I0J-250000D01*
G01*
X145396800Y-164051000D01*
G75*
G02*
X145146800Y-164301000I-250000J0D01*
G01*
X144646800Y-164301000D01*
G75*
G02*
X144396800Y-164051000I0J250000D01*
G01*
G37*
G36*
G01*
X140875600Y-161577000D02*
X140875600Y-162527000D01*
G75*
G02*
X140625600Y-162777000I-250000J0D01*
G01*
X140125600Y-162777000D01*
G75*
G02*
X139875600Y-162527000I0J250000D01*
G01*
X139875600Y-161577000D01*
G75*
G02*
X140125600Y-161327000I250000J0D01*
G01*
X140625600Y-161327000D01*
G75*
G02*
X140875600Y-161577000I0J-250000D01*
G01*
G37*
G36*
G01*
X142775600Y-161577000D02*
X142775600Y-162527000D01*
G75*
G02*
X142525600Y-162777000I-250000J0D01*
G01*
X142025600Y-162777000D01*
G75*
G02*
X141775600Y-162527000I0J250000D01*
G01*
X141775600Y-161577000D01*
G75*
G02*
X142025600Y-161327000I250000J0D01*
G01*
X142525600Y-161327000D01*
G75*
G02*
X142775600Y-161577000I0J-250000D01*
G01*
G37*
G36*
G01*
X145524000Y-121359400D02*
X145524000Y-121029400D01*
G75*
G02*
X145689000Y-120864400I165000J0D01*
G01*
X146019000Y-120864400D01*
G75*
G02*
X146184000Y-121029400I0J-165000D01*
G01*
X146184000Y-121359400D01*
G75*
G02*
X146019000Y-121524400I-165000J0D01*
G01*
X145689000Y-121524400D01*
G75*
G02*
X145524000Y-121359400I0J165000D01*
G01*
G37*
G36*
G01*
X145524000Y-122179400D02*
X145524000Y-121849400D01*
G75*
G02*
X145689000Y-121684400I165000J0D01*
G01*
X146019000Y-121684400D01*
G75*
G02*
X146184000Y-121849400I0J-165000D01*
G01*
X146184000Y-122179400D01*
G75*
G02*
X146019000Y-122344400I-165000J0D01*
G01*
X145689000Y-122344400D01*
G75*
G02*
X145524000Y-122179400I0J165000D01*
G01*
G37*
G36*
G01*
X145524000Y-122999400D02*
X145524000Y-122669400D01*
G75*
G02*
X145689000Y-122504400I165000J0D01*
G01*
X146019000Y-122504400D01*
G75*
G02*
X146184000Y-122669400I0J-165000D01*
G01*
X146184000Y-122999400D01*
G75*
G02*
X146019000Y-123164400I-165000J0D01*
G01*
X145689000Y-123164400D01*
G75*
G02*
X145524000Y-122999400I0J165000D01*
G01*
G37*
G36*
G01*
X144704000Y-121359400D02*
X144704000Y-121029400D01*
G75*
G02*
X144869000Y-120864400I165000J0D01*
G01*
X145199000Y-120864400D01*
G75*
G02*
X145364000Y-121029400I0J-165000D01*
G01*
X145364000Y-121359400D01*
G75*
G02*
X145199000Y-121524400I-165000J0D01*
G01*
X144869000Y-121524400D01*
G75*
G02*
X144704000Y-121359400I0J165000D01*
G01*
G37*
G36*
G01*
X144704000Y-122179400D02*
X144704000Y-121849400D01*
G75*
G02*
X144869000Y-121684400I165000J0D01*
G01*
X145199000Y-121684400D01*
G75*
G02*
X145364000Y-121849400I0J-165000D01*
G01*
X145364000Y-122179400D01*
G75*
G02*
X145199000Y-122344400I-165000J0D01*
G01*
X144869000Y-122344400D01*
G75*
G02*
X144704000Y-122179400I0J165000D01*
G01*
G37*
G36*
G01*
X144704000Y-122999400D02*
X144704000Y-122669400D01*
G75*
G02*
X144869000Y-122504400I165000J0D01*
G01*
X145199000Y-122504400D01*
G75*
G02*
X145364000Y-122669400I0J-165000D01*
G01*
X145364000Y-122999400D01*
G75*
G02*
X145199000Y-123164400I-165000J0D01*
G01*
X144869000Y-123164400D01*
G75*
G02*
X144704000Y-122999400I0J165000D01*
G01*
G37*
G36*
G01*
X143884000Y-121359400D02*
X143884000Y-121029400D01*
G75*
G02*
X144049000Y-120864400I165000J0D01*
G01*
X144379000Y-120864400D01*
G75*
G02*
X144544000Y-121029400I0J-165000D01*
G01*
X144544000Y-121359400D01*
G75*
G02*
X144379000Y-121524400I-165000J0D01*
G01*
X144049000Y-121524400D01*
G75*
G02*
X143884000Y-121359400I0J165000D01*
G01*
G37*
G36*
G01*
X143884000Y-122179400D02*
X143884000Y-121849400D01*
G75*
G02*
X144049000Y-121684400I165000J0D01*
G01*
X144379000Y-121684400D01*
G75*
G02*
X144544000Y-121849400I0J-165000D01*
G01*
X144544000Y-122179400D01*
G75*
G02*
X144379000Y-122344400I-165000J0D01*
G01*
X144049000Y-122344400D01*
G75*
G02*
X143884000Y-122179400I0J165000D01*
G01*
G37*
G36*
G01*
X143884000Y-122999400D02*
X143884000Y-122669400D01*
G75*
G02*
X144049000Y-122504400I165000J0D01*
G01*
X144379000Y-122504400D01*
G75*
G02*
X144544000Y-122669400I0J-165000D01*
G01*
X144544000Y-122999400D01*
G75*
G02*
X144379000Y-123164400I-165000J0D01*
G01*
X144049000Y-123164400D01*
G75*
G02*
X143884000Y-122999400I0J165000D01*
G01*
G37*
G36*
G01*
X143659000Y-124326900D02*
X143659000Y-123676900D01*
G75*
G02*
X143721500Y-123614400I62500J0D01*
G01*
X143846500Y-123614400D01*
G75*
G02*
X143909000Y-123676900I0J-62500D01*
G01*
X143909000Y-124326900D01*
G75*
G02*
X143846500Y-124389400I-62500J0D01*
G01*
X143721500Y-124389400D01*
G75*
G02*
X143659000Y-124326900I0J62500D01*
G01*
G37*
G36*
G01*
X144159000Y-124326900D02*
X144159000Y-123676900D01*
G75*
G02*
X144221500Y-123614400I62500J0D01*
G01*
X144346500Y-123614400D01*
G75*
G02*
X144409000Y-123676900I0J-62500D01*
G01*
X144409000Y-124326900D01*
G75*
G02*
X144346500Y-124389400I-62500J0D01*
G01*
X144221500Y-124389400D01*
G75*
G02*
X144159000Y-124326900I0J62500D01*
G01*
G37*
G36*
G01*
X144659000Y-124326900D02*
X144659000Y-123676900D01*
G75*
G02*
X144721500Y-123614400I62500J0D01*
G01*
X144846500Y-123614400D01*
G75*
G02*
X144909000Y-123676900I0J-62500D01*
G01*
X144909000Y-124326900D01*
G75*
G02*
X144846500Y-124389400I-62500J0D01*
G01*
X144721500Y-124389400D01*
G75*
G02*
X144659000Y-124326900I0J62500D01*
G01*
G37*
G36*
G01*
X145159000Y-124326900D02*
X145159000Y-123676900D01*
G75*
G02*
X145221500Y-123614400I62500J0D01*
G01*
X145346500Y-123614400D01*
G75*
G02*
X145409000Y-123676900I0J-62500D01*
G01*
X145409000Y-124326900D01*
G75*
G02*
X145346500Y-124389400I-62500J0D01*
G01*
X145221500Y-124389400D01*
G75*
G02*
X145159000Y-124326900I0J62500D01*
G01*
G37*
G36*
G01*
X145659000Y-124326900D02*
X145659000Y-123676900D01*
G75*
G02*
X145721500Y-123614400I62500J0D01*
G01*
X145846500Y-123614400D01*
G75*
G02*
X145909000Y-123676900I0J-62500D01*
G01*
X145909000Y-124326900D01*
G75*
G02*
X145846500Y-124389400I-62500J0D01*
G01*
X145721500Y-124389400D01*
G75*
G02*
X145659000Y-124326900I0J62500D01*
G01*
G37*
G36*
G01*
X146159000Y-124326900D02*
X146159000Y-123676900D01*
G75*
G02*
X146221500Y-123614400I62500J0D01*
G01*
X146346500Y-123614400D01*
G75*
G02*
X146409000Y-123676900I0J-62500D01*
G01*
X146409000Y-124326900D01*
G75*
G02*
X146346500Y-124389400I-62500J0D01*
G01*
X146221500Y-124389400D01*
G75*
G02*
X146159000Y-124326900I0J62500D01*
G01*
G37*
G36*
G01*
X146634000Y-123326900D02*
X146634000Y-123201900D01*
G75*
G02*
X146696500Y-123139400I62500J0D01*
G01*
X147346500Y-123139400D01*
G75*
G02*
X147409000Y-123201900I0J-62500D01*
G01*
X147409000Y-123326900D01*
G75*
G02*
X147346500Y-123389400I-62500J0D01*
G01*
X146696500Y-123389400D01*
G75*
G02*
X146634000Y-123326900I0J62500D01*
G01*
G37*
G36*
G01*
X146634000Y-122826900D02*
X146634000Y-122701900D01*
G75*
G02*
X146696500Y-122639400I62500J0D01*
G01*
X147346500Y-122639400D01*
G75*
G02*
X147409000Y-122701900I0J-62500D01*
G01*
X147409000Y-122826900D01*
G75*
G02*
X147346500Y-122889400I-62500J0D01*
G01*
X146696500Y-122889400D01*
G75*
G02*
X146634000Y-122826900I0J62500D01*
G01*
G37*
G36*
G01*
X146634000Y-122326900D02*
X146634000Y-122201900D01*
G75*
G02*
X146696500Y-122139400I62500J0D01*
G01*
X147346500Y-122139400D01*
G75*
G02*
X147409000Y-122201900I0J-62500D01*
G01*
X147409000Y-122326900D01*
G75*
G02*
X147346500Y-122389400I-62500J0D01*
G01*
X146696500Y-122389400D01*
G75*
G02*
X146634000Y-122326900I0J62500D01*
G01*
G37*
G36*
G01*
X146634000Y-121826900D02*
X146634000Y-121701900D01*
G75*
G02*
X146696500Y-121639400I62500J0D01*
G01*
X147346500Y-121639400D01*
G75*
G02*
X147409000Y-121701900I0J-62500D01*
G01*
X147409000Y-121826900D01*
G75*
G02*
X147346500Y-121889400I-62500J0D01*
G01*
X146696500Y-121889400D01*
G75*
G02*
X146634000Y-121826900I0J62500D01*
G01*
G37*
G36*
G01*
X146634000Y-121326900D02*
X146634000Y-121201900D01*
G75*
G02*
X146696500Y-121139400I62500J0D01*
G01*
X147346500Y-121139400D01*
G75*
G02*
X147409000Y-121201900I0J-62500D01*
G01*
X147409000Y-121326900D01*
G75*
G02*
X147346500Y-121389400I-62500J0D01*
G01*
X146696500Y-121389400D01*
G75*
G02*
X146634000Y-121326900I0J62500D01*
G01*
G37*
G36*
G01*
X146634000Y-120826900D02*
X146634000Y-120701900D01*
G75*
G02*
X146696500Y-120639400I62500J0D01*
G01*
X147346500Y-120639400D01*
G75*
G02*
X147409000Y-120701900I0J-62500D01*
G01*
X147409000Y-120826900D01*
G75*
G02*
X147346500Y-120889400I-62500J0D01*
G01*
X146696500Y-120889400D01*
G75*
G02*
X146634000Y-120826900I0J62500D01*
G01*
G37*
G36*
G01*
X146159000Y-120351900D02*
X146159000Y-119701900D01*
G75*
G02*
X146221500Y-119639400I62500J0D01*
G01*
X146346500Y-119639400D01*
G75*
G02*
X146409000Y-119701900I0J-62500D01*
G01*
X146409000Y-120351900D01*
G75*
G02*
X146346500Y-120414400I-62500J0D01*
G01*
X146221500Y-120414400D01*
G75*
G02*
X146159000Y-120351900I0J62500D01*
G01*
G37*
G36*
G01*
X145659000Y-120351900D02*
X145659000Y-119701900D01*
G75*
G02*
X145721500Y-119639400I62500J0D01*
G01*
X145846500Y-119639400D01*
G75*
G02*
X145909000Y-119701900I0J-62500D01*
G01*
X145909000Y-120351900D01*
G75*
G02*
X145846500Y-120414400I-62500J0D01*
G01*
X145721500Y-120414400D01*
G75*
G02*
X145659000Y-120351900I0J62500D01*
G01*
G37*
G36*
G01*
X145159000Y-120351900D02*
X145159000Y-119701900D01*
G75*
G02*
X145221500Y-119639400I62500J0D01*
G01*
X145346500Y-119639400D01*
G75*
G02*
X145409000Y-119701900I0J-62500D01*
G01*
X145409000Y-120351900D01*
G75*
G02*
X145346500Y-120414400I-62500J0D01*
G01*
X145221500Y-120414400D01*
G75*
G02*
X145159000Y-120351900I0J62500D01*
G01*
G37*
G36*
G01*
X144659000Y-120351900D02*
X144659000Y-119701900D01*
G75*
G02*
X144721500Y-119639400I62500J0D01*
G01*
X144846500Y-119639400D01*
G75*
G02*
X144909000Y-119701900I0J-62500D01*
G01*
X144909000Y-120351900D01*
G75*
G02*
X144846500Y-120414400I-62500J0D01*
G01*
X144721500Y-120414400D01*
G75*
G02*
X144659000Y-120351900I0J62500D01*
G01*
G37*
G36*
G01*
X144159000Y-120351900D02*
X144159000Y-119701900D01*
G75*
G02*
X144221500Y-119639400I62500J0D01*
G01*
X144346500Y-119639400D01*
G75*
G02*
X144409000Y-119701900I0J-62500D01*
G01*
X144409000Y-120351900D01*
G75*
G02*
X144346500Y-120414400I-62500J0D01*
G01*
X144221500Y-120414400D01*
G75*
G02*
X144159000Y-120351900I0J62500D01*
G01*
G37*
G36*
G01*
X143659000Y-120351900D02*
X143659000Y-119701900D01*
G75*
G02*
X143721500Y-119639400I62500J0D01*
G01*
X143846500Y-119639400D01*
G75*
G02*
X143909000Y-119701900I0J-62500D01*
G01*
X143909000Y-120351900D01*
G75*
G02*
X143846500Y-120414400I-62500J0D01*
G01*
X143721500Y-120414400D01*
G75*
G02*
X143659000Y-120351900I0J62500D01*
G01*
G37*
G36*
G01*
X142659000Y-120826900D02*
X142659000Y-120701900D01*
G75*
G02*
X142721500Y-120639400I62500J0D01*
G01*
X143371500Y-120639400D01*
G75*
G02*
X143434000Y-120701900I0J-62500D01*
G01*
X143434000Y-120826900D01*
G75*
G02*
X143371500Y-120889400I-62500J0D01*
G01*
X142721500Y-120889400D01*
G75*
G02*
X142659000Y-120826900I0J62500D01*
G01*
G37*
G36*
G01*
X142659000Y-121326900D02*
X142659000Y-121201900D01*
G75*
G02*
X142721500Y-121139400I62500J0D01*
G01*
X143371500Y-121139400D01*
G75*
G02*
X143434000Y-121201900I0J-62500D01*
G01*
X143434000Y-121326900D01*
G75*
G02*
X143371500Y-121389400I-62500J0D01*
G01*
X142721500Y-121389400D01*
G75*
G02*
X142659000Y-121326900I0J62500D01*
G01*
G37*
G36*
G01*
X142659000Y-121826900D02*
X142659000Y-121701900D01*
G75*
G02*
X142721500Y-121639400I62500J0D01*
G01*
X143371500Y-121639400D01*
G75*
G02*
X143434000Y-121701900I0J-62500D01*
G01*
X143434000Y-121826900D01*
G75*
G02*
X143371500Y-121889400I-62500J0D01*
G01*
X142721500Y-121889400D01*
G75*
G02*
X142659000Y-121826900I0J62500D01*
G01*
G37*
G36*
G01*
X142659000Y-122326900D02*
X142659000Y-122201900D01*
G75*
G02*
X142721500Y-122139400I62500J0D01*
G01*
X143371500Y-122139400D01*
G75*
G02*
X143434000Y-122201900I0J-62500D01*
G01*
X143434000Y-122326900D01*
G75*
G02*
X143371500Y-122389400I-62500J0D01*
G01*
X142721500Y-122389400D01*
G75*
G02*
X142659000Y-122326900I0J62500D01*
G01*
G37*
G36*
G01*
X142659000Y-122826900D02*
X142659000Y-122701900D01*
G75*
G02*
X142721500Y-122639400I62500J0D01*
G01*
X143371500Y-122639400D01*
G75*
G02*
X143434000Y-122701900I0J-62500D01*
G01*
X143434000Y-122826900D01*
G75*
G02*
X143371500Y-122889400I-62500J0D01*
G01*
X142721500Y-122889400D01*
G75*
G02*
X142659000Y-122826900I0J62500D01*
G01*
G37*
G36*
G01*
X142659000Y-123326900D02*
X142659000Y-123201900D01*
G75*
G02*
X142721500Y-123139400I62500J0D01*
G01*
X143371500Y-123139400D01*
G75*
G02*
X143434000Y-123201900I0J-62500D01*
G01*
X143434000Y-123326900D01*
G75*
G02*
X143371500Y-123389400I-62500J0D01*
G01*
X142721500Y-123389400D01*
G75*
G02*
X142659000Y-123326900I0J62500D01*
G01*
G37*
G36*
G01*
X142476000Y-156875800D02*
X142476000Y-156545800D01*
G75*
G02*
X142641000Y-156380800I165000J0D01*
G01*
X142971000Y-156380800D01*
G75*
G02*
X143136000Y-156545800I0J-165000D01*
G01*
X143136000Y-156875800D01*
G75*
G02*
X142971000Y-157040800I-165000J0D01*
G01*
X142641000Y-157040800D01*
G75*
G02*
X142476000Y-156875800I0J165000D01*
G01*
G37*
G36*
G01*
X142476000Y-157695800D02*
X142476000Y-157365800D01*
G75*
G02*
X142641000Y-157200800I165000J0D01*
G01*
X142971000Y-157200800D01*
G75*
G02*
X143136000Y-157365800I0J-165000D01*
G01*
X143136000Y-157695800D01*
G75*
G02*
X142971000Y-157860800I-165000J0D01*
G01*
X142641000Y-157860800D01*
G75*
G02*
X142476000Y-157695800I0J165000D01*
G01*
G37*
G36*
G01*
X142476000Y-158515800D02*
X142476000Y-158185800D01*
G75*
G02*
X142641000Y-158020800I165000J0D01*
G01*
X142971000Y-158020800D01*
G75*
G02*
X143136000Y-158185800I0J-165000D01*
G01*
X143136000Y-158515800D01*
G75*
G02*
X142971000Y-158680800I-165000J0D01*
G01*
X142641000Y-158680800D01*
G75*
G02*
X142476000Y-158515800I0J165000D01*
G01*
G37*
G36*
G01*
X141656000Y-156875800D02*
X141656000Y-156545800D01*
G75*
G02*
X141821000Y-156380800I165000J0D01*
G01*
X142151000Y-156380800D01*
G75*
G02*
X142316000Y-156545800I0J-165000D01*
G01*
X142316000Y-156875800D01*
G75*
G02*
X142151000Y-157040800I-165000J0D01*
G01*
X141821000Y-157040800D01*
G75*
G02*
X141656000Y-156875800I0J165000D01*
G01*
G37*
G36*
G01*
X141656000Y-157695800D02*
X141656000Y-157365800D01*
G75*
G02*
X141821000Y-157200800I165000J0D01*
G01*
X142151000Y-157200800D01*
G75*
G02*
X142316000Y-157365800I0J-165000D01*
G01*
X142316000Y-157695800D01*
G75*
G02*
X142151000Y-157860800I-165000J0D01*
G01*
X141821000Y-157860800D01*
G75*
G02*
X141656000Y-157695800I0J165000D01*
G01*
G37*
G36*
G01*
X141656000Y-158515800D02*
X141656000Y-158185800D01*
G75*
G02*
X141821000Y-158020800I165000J0D01*
G01*
X142151000Y-158020800D01*
G75*
G02*
X142316000Y-158185800I0J-165000D01*
G01*
X142316000Y-158515800D01*
G75*
G02*
X142151000Y-158680800I-165000J0D01*
G01*
X141821000Y-158680800D01*
G75*
G02*
X141656000Y-158515800I0J165000D01*
G01*
G37*
G36*
G01*
X140836000Y-156875800D02*
X140836000Y-156545800D01*
G75*
G02*
X141001000Y-156380800I165000J0D01*
G01*
X141331000Y-156380800D01*
G75*
G02*
X141496000Y-156545800I0J-165000D01*
G01*
X141496000Y-156875800D01*
G75*
G02*
X141331000Y-157040800I-165000J0D01*
G01*
X141001000Y-157040800D01*
G75*
G02*
X140836000Y-156875800I0J165000D01*
G01*
G37*
G36*
G01*
X140836000Y-157695800D02*
X140836000Y-157365800D01*
G75*
G02*
X141001000Y-157200800I165000J0D01*
G01*
X141331000Y-157200800D01*
G75*
G02*
X141496000Y-157365800I0J-165000D01*
G01*
X141496000Y-157695800D01*
G75*
G02*
X141331000Y-157860800I-165000J0D01*
G01*
X141001000Y-157860800D01*
G75*
G02*
X140836000Y-157695800I0J165000D01*
G01*
G37*
G36*
G01*
X140836000Y-158515800D02*
X140836000Y-158185800D01*
G75*
G02*
X141001000Y-158020800I165000J0D01*
G01*
X141331000Y-158020800D01*
G75*
G02*
X141496000Y-158185800I0J-165000D01*
G01*
X141496000Y-158515800D01*
G75*
G02*
X141331000Y-158680800I-165000J0D01*
G01*
X141001000Y-158680800D01*
G75*
G02*
X140836000Y-158515800I0J165000D01*
G01*
G37*
G36*
G01*
X140611000Y-159843300D02*
X140611000Y-159193300D01*
G75*
G02*
X140673500Y-159130800I62500J0D01*
G01*
X140798500Y-159130800D01*
G75*
G02*
X140861000Y-159193300I0J-62500D01*
G01*
X140861000Y-159843300D01*
G75*
G02*
X140798500Y-159905800I-62500J0D01*
G01*
X140673500Y-159905800D01*
G75*
G02*
X140611000Y-159843300I0J62500D01*
G01*
G37*
G36*
G01*
X141111000Y-159843300D02*
X141111000Y-159193300D01*
G75*
G02*
X141173500Y-159130800I62500J0D01*
G01*
X141298500Y-159130800D01*
G75*
G02*
X141361000Y-159193300I0J-62500D01*
G01*
X141361000Y-159843300D01*
G75*
G02*
X141298500Y-159905800I-62500J0D01*
G01*
X141173500Y-159905800D01*
G75*
G02*
X141111000Y-159843300I0J62500D01*
G01*
G37*
G36*
G01*
X141611000Y-159843300D02*
X141611000Y-159193300D01*
G75*
G02*
X141673500Y-159130800I62500J0D01*
G01*
X141798500Y-159130800D01*
G75*
G02*
X141861000Y-159193300I0J-62500D01*
G01*
X141861000Y-159843300D01*
G75*
G02*
X141798500Y-159905800I-62500J0D01*
G01*
X141673500Y-159905800D01*
G75*
G02*
X141611000Y-159843300I0J62500D01*
G01*
G37*
G36*
G01*
X142111000Y-159843300D02*
X142111000Y-159193300D01*
G75*
G02*
X142173500Y-159130800I62500J0D01*
G01*
X142298500Y-159130800D01*
G75*
G02*
X142361000Y-159193300I0J-62500D01*
G01*
X142361000Y-159843300D01*
G75*
G02*
X142298500Y-159905800I-62500J0D01*
G01*
X142173500Y-159905800D01*
G75*
G02*
X142111000Y-159843300I0J62500D01*
G01*
G37*
G36*
G01*
X142611000Y-159843300D02*
X142611000Y-159193300D01*
G75*
G02*
X142673500Y-159130800I62500J0D01*
G01*
X142798500Y-159130800D01*
G75*
G02*
X142861000Y-159193300I0J-62500D01*
G01*
X142861000Y-159843300D01*
G75*
G02*
X142798500Y-159905800I-62500J0D01*
G01*
X142673500Y-159905800D01*
G75*
G02*
X142611000Y-159843300I0J62500D01*
G01*
G37*
G36*
G01*
X143111000Y-159843300D02*
X143111000Y-159193300D01*
G75*
G02*
X143173500Y-159130800I62500J0D01*
G01*
X143298500Y-159130800D01*
G75*
G02*
X143361000Y-159193300I0J-62500D01*
G01*
X143361000Y-159843300D01*
G75*
G02*
X143298500Y-159905800I-62500J0D01*
G01*
X143173500Y-159905800D01*
G75*
G02*
X143111000Y-159843300I0J62500D01*
G01*
G37*
G36*
G01*
X143586000Y-158843300D02*
X143586000Y-158718300D01*
G75*
G02*
X143648500Y-158655800I62500J0D01*
G01*
X144298500Y-158655800D01*
G75*
G02*
X144361000Y-158718300I0J-62500D01*
G01*
X144361000Y-158843300D01*
G75*
G02*
X144298500Y-158905800I-62500J0D01*
G01*
X143648500Y-158905800D01*
G75*
G02*
X143586000Y-158843300I0J62500D01*
G01*
G37*
G36*
G01*
X143586000Y-158343300D02*
X143586000Y-158218300D01*
G75*
G02*
X143648500Y-158155800I62500J0D01*
G01*
X144298500Y-158155800D01*
G75*
G02*
X144361000Y-158218300I0J-62500D01*
G01*
X144361000Y-158343300D01*
G75*
G02*
X144298500Y-158405800I-62500J0D01*
G01*
X143648500Y-158405800D01*
G75*
G02*
X143586000Y-158343300I0J62500D01*
G01*
G37*
G36*
G01*
X143586000Y-157843300D02*
X143586000Y-157718300D01*
G75*
G02*
X143648500Y-157655800I62500J0D01*
G01*
X144298500Y-157655800D01*
G75*
G02*
X144361000Y-157718300I0J-62500D01*
G01*
X144361000Y-157843300D01*
G75*
G02*
X144298500Y-157905800I-62500J0D01*
G01*
X143648500Y-157905800D01*
G75*
G02*
X143586000Y-157843300I0J62500D01*
G01*
G37*
G36*
G01*
X143586000Y-157343300D02*
X143586000Y-157218300D01*
G75*
G02*
X143648500Y-157155800I62500J0D01*
G01*
X144298500Y-157155800D01*
G75*
G02*
X144361000Y-157218300I0J-62500D01*
G01*
X144361000Y-157343300D01*
G75*
G02*
X144298500Y-157405800I-62500J0D01*
G01*
X143648500Y-157405800D01*
G75*
G02*
X143586000Y-157343300I0J62500D01*
G01*
G37*
G36*
G01*
X143586000Y-156843300D02*
X143586000Y-156718300D01*
G75*
G02*
X143648500Y-156655800I62500J0D01*
G01*
X144298500Y-156655800D01*
G75*
G02*
X144361000Y-156718300I0J-62500D01*
G01*
X144361000Y-156843300D01*
G75*
G02*
X144298500Y-156905800I-62500J0D01*
G01*
X143648500Y-156905800D01*
G75*
G02*
X143586000Y-156843300I0J62500D01*
G01*
G37*
G36*
G01*
X143586000Y-156343300D02*
X143586000Y-156218300D01*
G75*
G02*
X143648500Y-156155800I62500J0D01*
G01*
X144298500Y-156155800D01*
G75*
G02*
X144361000Y-156218300I0J-62500D01*
G01*
X144361000Y-156343300D01*
G75*
G02*
X144298500Y-156405800I-62500J0D01*
G01*
X143648500Y-156405800D01*
G75*
G02*
X143586000Y-156343300I0J62500D01*
G01*
G37*
G36*
G01*
X143111000Y-155868300D02*
X143111000Y-155218300D01*
G75*
G02*
X143173500Y-155155800I62500J0D01*
G01*
X143298500Y-155155800D01*
G75*
G02*
X143361000Y-155218300I0J-62500D01*
G01*
X143361000Y-155868300D01*
G75*
G02*
X143298500Y-155930800I-62500J0D01*
G01*
X143173500Y-155930800D01*
G75*
G02*
X143111000Y-155868300I0J62500D01*
G01*
G37*
G36*
G01*
X142611000Y-155868300D02*
X142611000Y-155218300D01*
G75*
G02*
X142673500Y-155155800I62500J0D01*
G01*
X142798500Y-155155800D01*
G75*
G02*
X142861000Y-155218300I0J-62500D01*
G01*
X142861000Y-155868300D01*
G75*
G02*
X142798500Y-155930800I-62500J0D01*
G01*
X142673500Y-155930800D01*
G75*
G02*
X142611000Y-155868300I0J62500D01*
G01*
G37*
G36*
G01*
X142111000Y-155868300D02*
X142111000Y-155218300D01*
G75*
G02*
X142173500Y-155155800I62500J0D01*
G01*
X142298500Y-155155800D01*
G75*
G02*
X142361000Y-155218300I0J-62500D01*
G01*
X142361000Y-155868300D01*
G75*
G02*
X142298500Y-155930800I-62500J0D01*
G01*
X142173500Y-155930800D01*
G75*
G02*
X142111000Y-155868300I0J62500D01*
G01*
G37*
G36*
G01*
X141611000Y-155868300D02*
X141611000Y-155218300D01*
G75*
G02*
X141673500Y-155155800I62500J0D01*
G01*
X141798500Y-155155800D01*
G75*
G02*
X141861000Y-155218300I0J-62500D01*
G01*
X141861000Y-155868300D01*
G75*
G02*
X141798500Y-155930800I-62500J0D01*
G01*
X141673500Y-155930800D01*
G75*
G02*
X141611000Y-155868300I0J62500D01*
G01*
G37*
G36*
G01*
X141111000Y-155868300D02*
X141111000Y-155218300D01*
G75*
G02*
X141173500Y-155155800I62500J0D01*
G01*
X141298500Y-155155800D01*
G75*
G02*
X141361000Y-155218300I0J-62500D01*
G01*
X141361000Y-155868300D01*
G75*
G02*
X141298500Y-155930800I-62500J0D01*
G01*
X141173500Y-155930800D01*
G75*
G02*
X141111000Y-155868300I0J62500D01*
G01*
G37*
G36*
G01*
X140611000Y-155868300D02*
X140611000Y-155218300D01*
G75*
G02*
X140673500Y-155155800I62500J0D01*
G01*
X140798500Y-155155800D01*
G75*
G02*
X140861000Y-155218300I0J-62500D01*
G01*
X140861000Y-155868300D01*
G75*
G02*
X140798500Y-155930800I-62500J0D01*
G01*
X140673500Y-155930800D01*
G75*
G02*
X140611000Y-155868300I0J62500D01*
G01*
G37*
G36*
G01*
X139611000Y-156343300D02*
X139611000Y-156218300D01*
G75*
G02*
X139673500Y-156155800I62500J0D01*
G01*
X140323500Y-156155800D01*
G75*
G02*
X140386000Y-156218300I0J-62500D01*
G01*
X140386000Y-156343300D01*
G75*
G02*
X140323500Y-156405800I-62500J0D01*
G01*
X139673500Y-156405800D01*
G75*
G02*
X139611000Y-156343300I0J62500D01*
G01*
G37*
G36*
G01*
X139611000Y-156843300D02*
X139611000Y-156718300D01*
G75*
G02*
X139673500Y-156655800I62500J0D01*
G01*
X140323500Y-156655800D01*
G75*
G02*
X140386000Y-156718300I0J-62500D01*
G01*
X140386000Y-156843300D01*
G75*
G02*
X140323500Y-156905800I-62500J0D01*
G01*
X139673500Y-156905800D01*
G75*
G02*
X139611000Y-156843300I0J62500D01*
G01*
G37*
G36*
G01*
X139611000Y-157343300D02*
X139611000Y-157218300D01*
G75*
G02*
X139673500Y-157155800I62500J0D01*
G01*
X140323500Y-157155800D01*
G75*
G02*
X140386000Y-157218300I0J-62500D01*
G01*
X140386000Y-157343300D01*
G75*
G02*
X140323500Y-157405800I-62500J0D01*
G01*
X139673500Y-157405800D01*
G75*
G02*
X139611000Y-157343300I0J62500D01*
G01*
G37*
G36*
G01*
X139611000Y-157843300D02*
X139611000Y-157718300D01*
G75*
G02*
X139673500Y-157655800I62500J0D01*
G01*
X140323500Y-157655800D01*
G75*
G02*
X140386000Y-157718300I0J-62500D01*
G01*
X140386000Y-157843300D01*
G75*
G02*
X140323500Y-157905800I-62500J0D01*
G01*
X139673500Y-157905800D01*
G75*
G02*
X139611000Y-157843300I0J62500D01*
G01*
G37*
G36*
G01*
X139611000Y-158343300D02*
X139611000Y-158218300D01*
G75*
G02*
X139673500Y-158155800I62500J0D01*
G01*
X140323500Y-158155800D01*
G75*
G02*
X140386000Y-158218300I0J-62500D01*
G01*
X140386000Y-158343300D01*
G75*
G02*
X140323500Y-158405800I-62500J0D01*
G01*
X139673500Y-158405800D01*
G75*
G02*
X139611000Y-158343300I0J62500D01*
G01*
G37*
G36*
G01*
X139611000Y-158843300D02*
X139611000Y-158718300D01*
G75*
G02*
X139673500Y-158655800I62500J0D01*
G01*
X140323500Y-158655800D01*
G75*
G02*
X140386000Y-158718300I0J-62500D01*
G01*
X140386000Y-158843300D01*
G75*
G02*
X140323500Y-158905800I-62500J0D01*
G01*
X139673500Y-158905800D01*
G75*
G02*
X139611000Y-158843300I0J62500D01*
G01*
G37*
G36*
G01*
X166224798Y-129482800D02*
X167124802Y-129482800D01*
G75*
G02*
X167374800Y-129732798I0J-249998D01*
G01*
X167374800Y-130257802D01*
G75*
G02*
X167124802Y-130507800I-249998J0D01*
G01*
X166224798Y-130507800D01*
G75*
G02*
X165974800Y-130257802I0J249998D01*
G01*
X165974800Y-129732798D01*
G75*
G02*
X166224798Y-129482800I249998J0D01*
G01*
G37*
G36*
G01*
X166224798Y-127657800D02*
X167124802Y-127657800D01*
G75*
G02*
X167374800Y-127907798I0J-249998D01*
G01*
X167374800Y-128432802D01*
G75*
G02*
X167124802Y-128682800I-249998J0D01*
G01*
X166224798Y-128682800D01*
G75*
G02*
X165974800Y-128432802I0J249998D01*
G01*
X165974800Y-127907798D01*
G75*
G02*
X166224798Y-127657800I249998J0D01*
G01*
G37*
G36*
G01*
X174409600Y-124513401D02*
X174409600Y-121663399D01*
G75*
G02*
X174659599Y-121413400I249999J0D01*
G01*
X175384601Y-121413400D01*
G75*
G02*
X175634600Y-121663399I0J-249999D01*
G01*
X175634600Y-124513401D01*
G75*
G02*
X175384601Y-124763400I-249999J0D01*
G01*
X174659599Y-124763400D01*
G75*
G02*
X174409600Y-124513401I0J249999D01*
G01*
G37*
G36*
G01*
X168484600Y-124513401D02*
X168484600Y-121663399D01*
G75*
G02*
X168734599Y-121413400I249999J0D01*
G01*
X169459601Y-121413400D01*
G75*
G02*
X169709600Y-121663399I0J-249999D01*
G01*
X169709600Y-124513401D01*
G75*
G02*
X169459601Y-124763400I-249999J0D01*
G01*
X168734599Y-124763400D01*
G75*
G02*
X168484600Y-124513401I0J249999D01*
G01*
G37*
G36*
G01*
X177523600Y-112133400D02*
X177523600Y-111183400D01*
G75*
G02*
X177773600Y-110933400I250000J0D01*
G01*
X178273600Y-110933400D01*
G75*
G02*
X178523600Y-111183400I0J-250000D01*
G01*
X178523600Y-112133400D01*
G75*
G02*
X178273600Y-112383400I-250000J0D01*
G01*
X177773600Y-112383400D01*
G75*
G02*
X177523600Y-112133400I0J250000D01*
G01*
G37*
G36*
G01*
X175623600Y-112133400D02*
X175623600Y-111183400D01*
G75*
G02*
X175873600Y-110933400I250000J0D01*
G01*
X176373600Y-110933400D01*
G75*
G02*
X176623600Y-111183400I0J-250000D01*
G01*
X176623600Y-112133400D01*
G75*
G02*
X176373600Y-112383400I-250000J0D01*
G01*
X175873600Y-112383400D01*
G75*
G02*
X175623600Y-112133400I0J250000D01*
G01*
G37*
G36*
G01*
X176750799Y-123783400D02*
X178950801Y-123783400D01*
G75*
G02*
X179200800Y-124033399I0J-249999D01*
G01*
X179200800Y-124683401D01*
G75*
G02*
X178950801Y-124933400I-249999J0D01*
G01*
X176750799Y-124933400D01*
G75*
G02*
X176500800Y-124683401I0J249999D01*
G01*
X176500800Y-124033399D01*
G75*
G02*
X176750799Y-123783400I249999J0D01*
G01*
G37*
G36*
G01*
X176750799Y-120833400D02*
X178950801Y-120833400D01*
G75*
G02*
X179200800Y-121083399I0J-249999D01*
G01*
X179200800Y-121733401D01*
G75*
G02*
X178950801Y-121983400I-249999J0D01*
G01*
X176750799Y-121983400D01*
G75*
G02*
X176500800Y-121733401I0J249999D01*
G01*
X176500800Y-121083399D01*
G75*
G02*
X176750799Y-120833400I249999J0D01*
G01*
G37*
G36*
G01*
X178568400Y-109379598D02*
X178568400Y-110279602D01*
G75*
G02*
X178318402Y-110529600I-249998J0D01*
G01*
X177793398Y-110529600D01*
G75*
G02*
X177543400Y-110279602I0J249998D01*
G01*
X177543400Y-109379598D01*
G75*
G02*
X177793398Y-109129600I249998J0D01*
G01*
X178318402Y-109129600D01*
G75*
G02*
X178568400Y-109379598I0J-249998D01*
G01*
G37*
G36*
G01*
X180393400Y-109379598D02*
X180393400Y-110279602D01*
G75*
G02*
X180143402Y-110529600I-249998J0D01*
G01*
X179618398Y-110529600D01*
G75*
G02*
X179368400Y-110279602I0J249998D01*
G01*
X179368400Y-109379598D01*
G75*
G02*
X179618398Y-109129600I249998J0D01*
G01*
X180143402Y-109129600D01*
G75*
G02*
X180393400Y-109379598I0J-249998D01*
G01*
G37*
D10*
X180127200Y-114655600D03*
X178927200Y-114655600D03*
D11*
X178527200Y-115580600D03*
X179027200Y-115580600D03*
X179527200Y-115580600D03*
X180027200Y-115580600D03*
X180527200Y-115580600D03*
X180527200Y-113730600D03*
X180027200Y-113730600D03*
X179527200Y-113730600D03*
X179027200Y-113730600D03*
X178527200Y-113730600D03*
G36*
G01*
X217950002Y-114212500D02*
X217049998Y-114212500D01*
G75*
G02*
X216800000Y-113962502I0J249998D01*
G01*
X216800000Y-113437498D01*
G75*
G02*
X217049998Y-113187500I249998J0D01*
G01*
X217950002Y-113187500D01*
G75*
G02*
X218200000Y-113437498I0J-249998D01*
G01*
X218200000Y-113962502D01*
G75*
G02*
X217950002Y-114212500I-249998J0D01*
G01*
G37*
G36*
G01*
X217950002Y-112387500D02*
X217049998Y-112387500D01*
G75*
G02*
X216800000Y-112137502I0J249998D01*
G01*
X216800000Y-111612498D01*
G75*
G02*
X217049998Y-111362500I249998J0D01*
G01*
X217950002Y-111362500D01*
G75*
G02*
X218200000Y-111612498I0J-249998D01*
G01*
X218200000Y-112137502D01*
G75*
G02*
X217950002Y-112387500I-249998J0D01*
G01*
G37*
G36*
G01*
X220375000Y-114300000D02*
X219425000Y-114300000D01*
G75*
G02*
X219175000Y-114050000I0J250000D01*
G01*
X219175000Y-113550000D01*
G75*
G02*
X219425000Y-113300000I250000J0D01*
G01*
X220375000Y-113300000D01*
G75*
G02*
X220625000Y-113550000I0J-250000D01*
G01*
X220625000Y-114050000D01*
G75*
G02*
X220375000Y-114300000I-250000J0D01*
G01*
G37*
G36*
G01*
X220375000Y-112400000D02*
X219425000Y-112400000D01*
G75*
G02*
X219175000Y-112150000I0J250000D01*
G01*
X219175000Y-111650000D01*
G75*
G02*
X219425000Y-111400000I250000J0D01*
G01*
X220375000Y-111400000D01*
G75*
G02*
X220625000Y-111650000I0J-250000D01*
G01*
X220625000Y-112150000D01*
G75*
G02*
X220375000Y-112400000I-250000J0D01*
G01*
G37*
G36*
G01*
X211249600Y-134993400D02*
X211249600Y-134043400D01*
G75*
G02*
X211499600Y-133793400I250000J0D01*
G01*
X211999600Y-133793400D01*
G75*
G02*
X212249600Y-134043400I0J-250000D01*
G01*
X212249600Y-134993400D01*
G75*
G02*
X211999600Y-135243400I-250000J0D01*
G01*
X211499600Y-135243400D01*
G75*
G02*
X211249600Y-134993400I0J250000D01*
G01*
G37*
G36*
G01*
X213149600Y-134993400D02*
X213149600Y-134043400D01*
G75*
G02*
X213399600Y-133793400I250000J0D01*
G01*
X213899600Y-133793400D01*
G75*
G02*
X214149600Y-134043400I0J-250000D01*
G01*
X214149600Y-134993400D01*
G75*
G02*
X213899600Y-135243400I-250000J0D01*
G01*
X213399600Y-135243400D01*
G75*
G02*
X213149600Y-134993400I0J250000D01*
G01*
G37*
G36*
G01*
X144462800Y-161866600D02*
X144462800Y-160916600D01*
G75*
G02*
X144712800Y-160666600I250000J0D01*
G01*
X145212800Y-160666600D01*
G75*
G02*
X145462800Y-160916600I0J-250000D01*
G01*
X145462800Y-161866600D01*
G75*
G02*
X145212800Y-162116600I-250000J0D01*
G01*
X144712800Y-162116600D01*
G75*
G02*
X144462800Y-161866600I0J250000D01*
G01*
G37*
G36*
G01*
X146362800Y-161866600D02*
X146362800Y-160916600D01*
G75*
G02*
X146612800Y-160666600I250000J0D01*
G01*
X147112800Y-160666600D01*
G75*
G02*
X147362800Y-160916600I0J-250000D01*
G01*
X147362800Y-161866600D01*
G75*
G02*
X147112800Y-162116600I-250000J0D01*
G01*
X146612800Y-162116600D01*
G75*
G02*
X146362800Y-161866600I0J250000D01*
G01*
G37*
D12*
X223766000Y-167491600D03*
X224716000Y-165491600D03*
X222816000Y-165491600D03*
D13*
X232500000Y-137948517D03*
X232000000Y-138748517D03*
X231500000Y-137948517D03*
X231000000Y-138748517D03*
X230500000Y-137948517D03*
X230000000Y-138748517D03*
X229500000Y-137948517D03*
X229000000Y-138748517D03*
X228500000Y-137948517D03*
X228000000Y-138748517D03*
X227500000Y-137948517D03*
X227000000Y-138748517D03*
X226500000Y-137948517D03*
X226000000Y-138748517D03*
X225500000Y-137948517D03*
X225000000Y-138748517D03*
X224500000Y-137948517D03*
X224000000Y-138748517D03*
X223500000Y-137948517D03*
X223000000Y-138748517D03*
X222500000Y-137948517D03*
D14*
X221500000Y-137948517D03*
D15*
X221500000Y-138948517D03*
X222300000Y-139448517D03*
X221500000Y-139948517D03*
X222300000Y-140448517D03*
X221500000Y-140948517D03*
X222300000Y-141448517D03*
X221500000Y-141948517D03*
X222300000Y-142448517D03*
X221500000Y-142948517D03*
X222300000Y-143448517D03*
X221500000Y-143948517D03*
X222300000Y-144448517D03*
X221500000Y-144948517D03*
X222300000Y-145448517D03*
X221500000Y-145948517D03*
D14*
X221500000Y-146948517D03*
D13*
X222500000Y-146948517D03*
X223000000Y-146148517D03*
X223500000Y-146948517D03*
X224000000Y-146148517D03*
X224500000Y-146948517D03*
X225000000Y-146148517D03*
X225500000Y-146948517D03*
X226000000Y-146148517D03*
X226500000Y-146948517D03*
X227000000Y-146148517D03*
X227500000Y-146948517D03*
X228000000Y-146148517D03*
X228500000Y-146948517D03*
X229000000Y-146148517D03*
X229500000Y-146948517D03*
X230000000Y-146148517D03*
X230500000Y-146948517D03*
X231000000Y-146148517D03*
X231500000Y-146948517D03*
X232000000Y-146148517D03*
X232500000Y-146948517D03*
D16*
X199345300Y-125577600D03*
X211220300Y-125577600D03*
D17*
X218600000Y-141600000D03*
X218600000Y-139100000D03*
G36*
G01*
X203410600Y-134456200D02*
X203410600Y-134996200D01*
G75*
G02*
X203160600Y-135246200I-250000J0D01*
G01*
X202620600Y-135246200D01*
G75*
G02*
X202370600Y-134996200I0J250000D01*
G01*
X202370600Y-134456200D01*
G75*
G02*
X202620600Y-134206200I250000J0D01*
G01*
X203160600Y-134206200D01*
G75*
G02*
X203410600Y-134456200I0J-250000D01*
G01*
G37*
G36*
G01*
X203410600Y-133166200D02*
X203410600Y-133706200D01*
G75*
G02*
X203160600Y-133956200I-250000J0D01*
G01*
X202620600Y-133956200D01*
G75*
G02*
X202370600Y-133706200I0J250000D01*
G01*
X202370600Y-133166200D01*
G75*
G02*
X202620600Y-132916200I250000J0D01*
G01*
X203160600Y-132916200D01*
G75*
G02*
X203410600Y-133166200I0J-250000D01*
G01*
G37*
G36*
G01*
X203410600Y-131876200D02*
X203410600Y-132416200D01*
G75*
G02*
X203160600Y-132666200I-250000J0D01*
G01*
X202620600Y-132666200D01*
G75*
G02*
X202370600Y-132416200I0J250000D01*
G01*
X202370600Y-131876200D01*
G75*
G02*
X202620600Y-131626200I250000J0D01*
G01*
X203160600Y-131626200D01*
G75*
G02*
X203410600Y-131876200I0J-250000D01*
G01*
G37*
G36*
G01*
X203410600Y-130586200D02*
X203410600Y-131126200D01*
G75*
G02*
X203160600Y-131376200I-250000J0D01*
G01*
X202620600Y-131376200D01*
G75*
G02*
X202370600Y-131126200I0J250000D01*
G01*
X202370600Y-130586200D01*
G75*
G02*
X202620600Y-130336200I250000J0D01*
G01*
X203160600Y-130336200D01*
G75*
G02*
X203410600Y-130586200I0J-250000D01*
G01*
G37*
G36*
G01*
X204700600Y-134456200D02*
X204700600Y-134996200D01*
G75*
G02*
X204450600Y-135246200I-250000J0D01*
G01*
X203910600Y-135246200D01*
G75*
G02*
X203660600Y-134996200I0J250000D01*
G01*
X203660600Y-134456200D01*
G75*
G02*
X203910600Y-134206200I250000J0D01*
G01*
X204450600Y-134206200D01*
G75*
G02*
X204700600Y-134456200I0J-250000D01*
G01*
G37*
G36*
G01*
X204700600Y-133166200D02*
X204700600Y-133706200D01*
G75*
G02*
X204450600Y-133956200I-250000J0D01*
G01*
X203910600Y-133956200D01*
G75*
G02*
X203660600Y-133706200I0J250000D01*
G01*
X203660600Y-133166200D01*
G75*
G02*
X203910600Y-132916200I250000J0D01*
G01*
X204450600Y-132916200D01*
G75*
G02*
X204700600Y-133166200I0J-250000D01*
G01*
G37*
G36*
G01*
X204700600Y-131876200D02*
X204700600Y-132416200D01*
G75*
G02*
X204450600Y-132666200I-250000J0D01*
G01*
X203910600Y-132666200D01*
G75*
G02*
X203660600Y-132416200I0J250000D01*
G01*
X203660600Y-131876200D01*
G75*
G02*
X203910600Y-131626200I250000J0D01*
G01*
X204450600Y-131626200D01*
G75*
G02*
X204700600Y-131876200I0J-250000D01*
G01*
G37*
G36*
G01*
X204700600Y-130586200D02*
X204700600Y-131126200D01*
G75*
G02*
X204450600Y-131376200I-250000J0D01*
G01*
X203910600Y-131376200D01*
G75*
G02*
X203660600Y-131126200I0J250000D01*
G01*
X203660600Y-130586200D01*
G75*
G02*
X203910600Y-130336200I250000J0D01*
G01*
X204450600Y-130336200D01*
G75*
G02*
X204700600Y-130586200I0J-250000D01*
G01*
G37*
G36*
G01*
X205990600Y-134456200D02*
X205990600Y-134996200D01*
G75*
G02*
X205740600Y-135246200I-250000J0D01*
G01*
X205200600Y-135246200D01*
G75*
G02*
X204950600Y-134996200I0J250000D01*
G01*
X204950600Y-134456200D01*
G75*
G02*
X205200600Y-134206200I250000J0D01*
G01*
X205740600Y-134206200D01*
G75*
G02*
X205990600Y-134456200I0J-250000D01*
G01*
G37*
G36*
G01*
X205990600Y-133166200D02*
X205990600Y-133706200D01*
G75*
G02*
X205740600Y-133956200I-250000J0D01*
G01*
X205200600Y-133956200D01*
G75*
G02*
X204950600Y-133706200I0J250000D01*
G01*
X204950600Y-133166200D01*
G75*
G02*
X205200600Y-132916200I250000J0D01*
G01*
X205740600Y-132916200D01*
G75*
G02*
X205990600Y-133166200I0J-250000D01*
G01*
G37*
G36*
G01*
X205990600Y-131876200D02*
X205990600Y-132416200D01*
G75*
G02*
X205740600Y-132666200I-250000J0D01*
G01*
X205200600Y-132666200D01*
G75*
G02*
X204950600Y-132416200I0J250000D01*
G01*
X204950600Y-131876200D01*
G75*
G02*
X205200600Y-131626200I250000J0D01*
G01*
X205740600Y-131626200D01*
G75*
G02*
X205990600Y-131876200I0J-250000D01*
G01*
G37*
G36*
G01*
X205990600Y-130586200D02*
X205990600Y-131126200D01*
G75*
G02*
X205740600Y-131376200I-250000J0D01*
G01*
X205200600Y-131376200D01*
G75*
G02*
X204950600Y-131126200I0J250000D01*
G01*
X204950600Y-130586200D01*
G75*
G02*
X205200600Y-130336200I250000J0D01*
G01*
X205740600Y-130336200D01*
G75*
G02*
X205990600Y-130586200I0J-250000D01*
G01*
G37*
G36*
G01*
X207280600Y-134456200D02*
X207280600Y-134996200D01*
G75*
G02*
X207030600Y-135246200I-250000J0D01*
G01*
X206490600Y-135246200D01*
G75*
G02*
X206240600Y-134996200I0J250000D01*
G01*
X206240600Y-134456200D01*
G75*
G02*
X206490600Y-134206200I250000J0D01*
G01*
X207030600Y-134206200D01*
G75*
G02*
X207280600Y-134456200I0J-250000D01*
G01*
G37*
G36*
G01*
X207280600Y-133166200D02*
X207280600Y-133706200D01*
G75*
G02*
X207030600Y-133956200I-250000J0D01*
G01*
X206490600Y-133956200D01*
G75*
G02*
X206240600Y-133706200I0J250000D01*
G01*
X206240600Y-133166200D01*
G75*
G02*
X206490600Y-132916200I250000J0D01*
G01*
X207030600Y-132916200D01*
G75*
G02*
X207280600Y-133166200I0J-250000D01*
G01*
G37*
G36*
G01*
X207280600Y-131876200D02*
X207280600Y-132416200D01*
G75*
G02*
X207030600Y-132666200I-250000J0D01*
G01*
X206490600Y-132666200D01*
G75*
G02*
X206240600Y-132416200I0J250000D01*
G01*
X206240600Y-131876200D01*
G75*
G02*
X206490600Y-131626200I250000J0D01*
G01*
X207030600Y-131626200D01*
G75*
G02*
X207280600Y-131876200I0J-250000D01*
G01*
G37*
G36*
G01*
X207280600Y-130586200D02*
X207280600Y-131126200D01*
G75*
G02*
X207030600Y-131376200I-250000J0D01*
G01*
X206490600Y-131376200D01*
G75*
G02*
X206240600Y-131126200I0J250000D01*
G01*
X206240600Y-130586200D01*
G75*
G02*
X206490600Y-130336200I250000J0D01*
G01*
X207030600Y-130336200D01*
G75*
G02*
X207280600Y-130586200I0J-250000D01*
G01*
G37*
G36*
G01*
X207700600Y-128978700D02*
X207700600Y-129728700D01*
G75*
G02*
X207638100Y-129791200I-62500J0D01*
G01*
X207513100Y-129791200D01*
G75*
G02*
X207450600Y-129728700I0J62500D01*
G01*
X207450600Y-128978700D01*
G75*
G02*
X207513100Y-128916200I62500J0D01*
G01*
X207638100Y-128916200D01*
G75*
G02*
X207700600Y-128978700I0J-62500D01*
G01*
G37*
G36*
G01*
X207200600Y-128978700D02*
X207200600Y-129728700D01*
G75*
G02*
X207138100Y-129791200I-62500J0D01*
G01*
X207013100Y-129791200D01*
G75*
G02*
X206950600Y-129728700I0J62500D01*
G01*
X206950600Y-128978700D01*
G75*
G02*
X207013100Y-128916200I62500J0D01*
G01*
X207138100Y-128916200D01*
G75*
G02*
X207200600Y-128978700I0J-62500D01*
G01*
G37*
G36*
G01*
X206700600Y-128978700D02*
X206700600Y-129728700D01*
G75*
G02*
X206638100Y-129791200I-62500J0D01*
G01*
X206513100Y-129791200D01*
G75*
G02*
X206450600Y-129728700I0J62500D01*
G01*
X206450600Y-128978700D01*
G75*
G02*
X206513100Y-128916200I62500J0D01*
G01*
X206638100Y-128916200D01*
G75*
G02*
X206700600Y-128978700I0J-62500D01*
G01*
G37*
G36*
G01*
X206200600Y-128978700D02*
X206200600Y-129728700D01*
G75*
G02*
X206138100Y-129791200I-62500J0D01*
G01*
X206013100Y-129791200D01*
G75*
G02*
X205950600Y-129728700I0J62500D01*
G01*
X205950600Y-128978700D01*
G75*
G02*
X206013100Y-128916200I62500J0D01*
G01*
X206138100Y-128916200D01*
G75*
G02*
X206200600Y-128978700I0J-62500D01*
G01*
G37*
G36*
G01*
X205700600Y-128978700D02*
X205700600Y-129728700D01*
G75*
G02*
X205638100Y-129791200I-62500J0D01*
G01*
X205513100Y-129791200D01*
G75*
G02*
X205450600Y-129728700I0J62500D01*
G01*
X205450600Y-128978700D01*
G75*
G02*
X205513100Y-128916200I62500J0D01*
G01*
X205638100Y-128916200D01*
G75*
G02*
X205700600Y-128978700I0J-62500D01*
G01*
G37*
G36*
G01*
X205200600Y-128978700D02*
X205200600Y-129728700D01*
G75*
G02*
X205138100Y-129791200I-62500J0D01*
G01*
X205013100Y-129791200D01*
G75*
G02*
X204950600Y-129728700I0J62500D01*
G01*
X204950600Y-128978700D01*
G75*
G02*
X205013100Y-128916200I62500J0D01*
G01*
X205138100Y-128916200D01*
G75*
G02*
X205200600Y-128978700I0J-62500D01*
G01*
G37*
G36*
G01*
X204700600Y-128978700D02*
X204700600Y-129728700D01*
G75*
G02*
X204638100Y-129791200I-62500J0D01*
G01*
X204513100Y-129791200D01*
G75*
G02*
X204450600Y-129728700I0J62500D01*
G01*
X204450600Y-128978700D01*
G75*
G02*
X204513100Y-128916200I62500J0D01*
G01*
X204638100Y-128916200D01*
G75*
G02*
X204700600Y-128978700I0J-62500D01*
G01*
G37*
G36*
G01*
X204200600Y-128978700D02*
X204200600Y-129728700D01*
G75*
G02*
X204138100Y-129791200I-62500J0D01*
G01*
X204013100Y-129791200D01*
G75*
G02*
X203950600Y-129728700I0J62500D01*
G01*
X203950600Y-128978700D01*
G75*
G02*
X204013100Y-128916200I62500J0D01*
G01*
X204138100Y-128916200D01*
G75*
G02*
X204200600Y-128978700I0J-62500D01*
G01*
G37*
G36*
G01*
X203700600Y-128978700D02*
X203700600Y-129728700D01*
G75*
G02*
X203638100Y-129791200I-62500J0D01*
G01*
X203513100Y-129791200D01*
G75*
G02*
X203450600Y-129728700I0J62500D01*
G01*
X203450600Y-128978700D01*
G75*
G02*
X203513100Y-128916200I62500J0D01*
G01*
X203638100Y-128916200D01*
G75*
G02*
X203700600Y-128978700I0J-62500D01*
G01*
G37*
G36*
G01*
X203200600Y-128978700D02*
X203200600Y-129728700D01*
G75*
G02*
X203138100Y-129791200I-62500J0D01*
G01*
X203013100Y-129791200D01*
G75*
G02*
X202950600Y-129728700I0J62500D01*
G01*
X202950600Y-128978700D01*
G75*
G02*
X203013100Y-128916200I62500J0D01*
G01*
X203138100Y-128916200D01*
G75*
G02*
X203200600Y-128978700I0J-62500D01*
G01*
G37*
G36*
G01*
X202700600Y-128978700D02*
X202700600Y-129728700D01*
G75*
G02*
X202638100Y-129791200I-62500J0D01*
G01*
X202513100Y-129791200D01*
G75*
G02*
X202450600Y-129728700I0J62500D01*
G01*
X202450600Y-128978700D01*
G75*
G02*
X202513100Y-128916200I62500J0D01*
G01*
X202638100Y-128916200D01*
G75*
G02*
X202700600Y-128978700I0J-62500D01*
G01*
G37*
G36*
G01*
X202200600Y-128978700D02*
X202200600Y-129728700D01*
G75*
G02*
X202138100Y-129791200I-62500J0D01*
G01*
X202013100Y-129791200D01*
G75*
G02*
X201950600Y-129728700I0J62500D01*
G01*
X201950600Y-128978700D01*
G75*
G02*
X202013100Y-128916200I62500J0D01*
G01*
X202138100Y-128916200D01*
G75*
G02*
X202200600Y-128978700I0J-62500D01*
G01*
G37*
G36*
G01*
X201825600Y-129978700D02*
X201825600Y-130103700D01*
G75*
G02*
X201763100Y-130166200I-62500J0D01*
G01*
X201013100Y-130166200D01*
G75*
G02*
X200950600Y-130103700I0J62500D01*
G01*
X200950600Y-129978700D01*
G75*
G02*
X201013100Y-129916200I62500J0D01*
G01*
X201763100Y-129916200D01*
G75*
G02*
X201825600Y-129978700I0J-62500D01*
G01*
G37*
G36*
G01*
X201825600Y-130478700D02*
X201825600Y-130603700D01*
G75*
G02*
X201763100Y-130666200I-62500J0D01*
G01*
X201013100Y-130666200D01*
G75*
G02*
X200950600Y-130603700I0J62500D01*
G01*
X200950600Y-130478700D01*
G75*
G02*
X201013100Y-130416200I62500J0D01*
G01*
X201763100Y-130416200D01*
G75*
G02*
X201825600Y-130478700I0J-62500D01*
G01*
G37*
G36*
G01*
X201825600Y-130978700D02*
X201825600Y-131103700D01*
G75*
G02*
X201763100Y-131166200I-62500J0D01*
G01*
X201013100Y-131166200D01*
G75*
G02*
X200950600Y-131103700I0J62500D01*
G01*
X200950600Y-130978700D01*
G75*
G02*
X201013100Y-130916200I62500J0D01*
G01*
X201763100Y-130916200D01*
G75*
G02*
X201825600Y-130978700I0J-62500D01*
G01*
G37*
G36*
G01*
X201825600Y-131478700D02*
X201825600Y-131603700D01*
G75*
G02*
X201763100Y-131666200I-62500J0D01*
G01*
X201013100Y-131666200D01*
G75*
G02*
X200950600Y-131603700I0J62500D01*
G01*
X200950600Y-131478700D01*
G75*
G02*
X201013100Y-131416200I62500J0D01*
G01*
X201763100Y-131416200D01*
G75*
G02*
X201825600Y-131478700I0J-62500D01*
G01*
G37*
G36*
G01*
X201825600Y-131978700D02*
X201825600Y-132103700D01*
G75*
G02*
X201763100Y-132166200I-62500J0D01*
G01*
X201013100Y-132166200D01*
G75*
G02*
X200950600Y-132103700I0J62500D01*
G01*
X200950600Y-131978700D01*
G75*
G02*
X201013100Y-131916200I62500J0D01*
G01*
X201763100Y-131916200D01*
G75*
G02*
X201825600Y-131978700I0J-62500D01*
G01*
G37*
G36*
G01*
X201825600Y-132478700D02*
X201825600Y-132603700D01*
G75*
G02*
X201763100Y-132666200I-62500J0D01*
G01*
X201013100Y-132666200D01*
G75*
G02*
X200950600Y-132603700I0J62500D01*
G01*
X200950600Y-132478700D01*
G75*
G02*
X201013100Y-132416200I62500J0D01*
G01*
X201763100Y-132416200D01*
G75*
G02*
X201825600Y-132478700I0J-62500D01*
G01*
G37*
G36*
G01*
X201825600Y-132978700D02*
X201825600Y-133103700D01*
G75*
G02*
X201763100Y-133166200I-62500J0D01*
G01*
X201013100Y-133166200D01*
G75*
G02*
X200950600Y-133103700I0J62500D01*
G01*
X200950600Y-132978700D01*
G75*
G02*
X201013100Y-132916200I62500J0D01*
G01*
X201763100Y-132916200D01*
G75*
G02*
X201825600Y-132978700I0J-62500D01*
G01*
G37*
G36*
G01*
X201825600Y-133478700D02*
X201825600Y-133603700D01*
G75*
G02*
X201763100Y-133666200I-62500J0D01*
G01*
X201013100Y-133666200D01*
G75*
G02*
X200950600Y-133603700I0J62500D01*
G01*
X200950600Y-133478700D01*
G75*
G02*
X201013100Y-133416200I62500J0D01*
G01*
X201763100Y-133416200D01*
G75*
G02*
X201825600Y-133478700I0J-62500D01*
G01*
G37*
G36*
G01*
X201825600Y-133978700D02*
X201825600Y-134103700D01*
G75*
G02*
X201763100Y-134166200I-62500J0D01*
G01*
X201013100Y-134166200D01*
G75*
G02*
X200950600Y-134103700I0J62500D01*
G01*
X200950600Y-133978700D01*
G75*
G02*
X201013100Y-133916200I62500J0D01*
G01*
X201763100Y-133916200D01*
G75*
G02*
X201825600Y-133978700I0J-62500D01*
G01*
G37*
G36*
G01*
X201825600Y-134478700D02*
X201825600Y-134603700D01*
G75*
G02*
X201763100Y-134666200I-62500J0D01*
G01*
X201013100Y-134666200D01*
G75*
G02*
X200950600Y-134603700I0J62500D01*
G01*
X200950600Y-134478700D01*
G75*
G02*
X201013100Y-134416200I62500J0D01*
G01*
X201763100Y-134416200D01*
G75*
G02*
X201825600Y-134478700I0J-62500D01*
G01*
G37*
G36*
G01*
X201825600Y-134978700D02*
X201825600Y-135103700D01*
G75*
G02*
X201763100Y-135166200I-62500J0D01*
G01*
X201013100Y-135166200D01*
G75*
G02*
X200950600Y-135103700I0J62500D01*
G01*
X200950600Y-134978700D01*
G75*
G02*
X201013100Y-134916200I62500J0D01*
G01*
X201763100Y-134916200D01*
G75*
G02*
X201825600Y-134978700I0J-62500D01*
G01*
G37*
G36*
G01*
X201825600Y-135478700D02*
X201825600Y-135603700D01*
G75*
G02*
X201763100Y-135666200I-62500J0D01*
G01*
X201013100Y-135666200D01*
G75*
G02*
X200950600Y-135603700I0J62500D01*
G01*
X200950600Y-135478700D01*
G75*
G02*
X201013100Y-135416200I62500J0D01*
G01*
X201763100Y-135416200D01*
G75*
G02*
X201825600Y-135478700I0J-62500D01*
G01*
G37*
G36*
G01*
X202200600Y-135853700D02*
X202200600Y-136603700D01*
G75*
G02*
X202138100Y-136666200I-62500J0D01*
G01*
X202013100Y-136666200D01*
G75*
G02*
X201950600Y-136603700I0J62500D01*
G01*
X201950600Y-135853700D01*
G75*
G02*
X202013100Y-135791200I62500J0D01*
G01*
X202138100Y-135791200D01*
G75*
G02*
X202200600Y-135853700I0J-62500D01*
G01*
G37*
G36*
G01*
X202700600Y-135853700D02*
X202700600Y-136603700D01*
G75*
G02*
X202638100Y-136666200I-62500J0D01*
G01*
X202513100Y-136666200D01*
G75*
G02*
X202450600Y-136603700I0J62500D01*
G01*
X202450600Y-135853700D01*
G75*
G02*
X202513100Y-135791200I62500J0D01*
G01*
X202638100Y-135791200D01*
G75*
G02*
X202700600Y-135853700I0J-62500D01*
G01*
G37*
G36*
G01*
X203200600Y-135853700D02*
X203200600Y-136603700D01*
G75*
G02*
X203138100Y-136666200I-62500J0D01*
G01*
X203013100Y-136666200D01*
G75*
G02*
X202950600Y-136603700I0J62500D01*
G01*
X202950600Y-135853700D01*
G75*
G02*
X203013100Y-135791200I62500J0D01*
G01*
X203138100Y-135791200D01*
G75*
G02*
X203200600Y-135853700I0J-62500D01*
G01*
G37*
G36*
G01*
X203700600Y-135853700D02*
X203700600Y-136603700D01*
G75*
G02*
X203638100Y-136666200I-62500J0D01*
G01*
X203513100Y-136666200D01*
G75*
G02*
X203450600Y-136603700I0J62500D01*
G01*
X203450600Y-135853700D01*
G75*
G02*
X203513100Y-135791200I62500J0D01*
G01*
X203638100Y-135791200D01*
G75*
G02*
X203700600Y-135853700I0J-62500D01*
G01*
G37*
G36*
G01*
X204200600Y-135853700D02*
X204200600Y-136603700D01*
G75*
G02*
X204138100Y-136666200I-62500J0D01*
G01*
X204013100Y-136666200D01*
G75*
G02*
X203950600Y-136603700I0J62500D01*
G01*
X203950600Y-135853700D01*
G75*
G02*
X204013100Y-135791200I62500J0D01*
G01*
X204138100Y-135791200D01*
G75*
G02*
X204200600Y-135853700I0J-62500D01*
G01*
G37*
G36*
G01*
X204700600Y-135853700D02*
X204700600Y-136603700D01*
G75*
G02*
X204638100Y-136666200I-62500J0D01*
G01*
X204513100Y-136666200D01*
G75*
G02*
X204450600Y-136603700I0J62500D01*
G01*
X204450600Y-135853700D01*
G75*
G02*
X204513100Y-135791200I62500J0D01*
G01*
X204638100Y-135791200D01*
G75*
G02*
X204700600Y-135853700I0J-62500D01*
G01*
G37*
G36*
G01*
X205200600Y-135853700D02*
X205200600Y-136603700D01*
G75*
G02*
X205138100Y-136666200I-62500J0D01*
G01*
X205013100Y-136666200D01*
G75*
G02*
X204950600Y-136603700I0J62500D01*
G01*
X204950600Y-135853700D01*
G75*
G02*
X205013100Y-135791200I62500J0D01*
G01*
X205138100Y-135791200D01*
G75*
G02*
X205200600Y-135853700I0J-62500D01*
G01*
G37*
G36*
G01*
X205700600Y-135853700D02*
X205700600Y-136603700D01*
G75*
G02*
X205638100Y-136666200I-62500J0D01*
G01*
X205513100Y-136666200D01*
G75*
G02*
X205450600Y-136603700I0J62500D01*
G01*
X205450600Y-135853700D01*
G75*
G02*
X205513100Y-135791200I62500J0D01*
G01*
X205638100Y-135791200D01*
G75*
G02*
X205700600Y-135853700I0J-62500D01*
G01*
G37*
G36*
G01*
X206200600Y-135853700D02*
X206200600Y-136603700D01*
G75*
G02*
X206138100Y-136666200I-62500J0D01*
G01*
X206013100Y-136666200D01*
G75*
G02*
X205950600Y-136603700I0J62500D01*
G01*
X205950600Y-135853700D01*
G75*
G02*
X206013100Y-135791200I62500J0D01*
G01*
X206138100Y-135791200D01*
G75*
G02*
X206200600Y-135853700I0J-62500D01*
G01*
G37*
G36*
G01*
X206700600Y-135853700D02*
X206700600Y-136603700D01*
G75*
G02*
X206638100Y-136666200I-62500J0D01*
G01*
X206513100Y-136666200D01*
G75*
G02*
X206450600Y-136603700I0J62500D01*
G01*
X206450600Y-135853700D01*
G75*
G02*
X206513100Y-135791200I62500J0D01*
G01*
X206638100Y-135791200D01*
G75*
G02*
X206700600Y-135853700I0J-62500D01*
G01*
G37*
G36*
G01*
X207200600Y-135853700D02*
X207200600Y-136603700D01*
G75*
G02*
X207138100Y-136666200I-62500J0D01*
G01*
X207013100Y-136666200D01*
G75*
G02*
X206950600Y-136603700I0J62500D01*
G01*
X206950600Y-135853700D01*
G75*
G02*
X207013100Y-135791200I62500J0D01*
G01*
X207138100Y-135791200D01*
G75*
G02*
X207200600Y-135853700I0J-62500D01*
G01*
G37*
G36*
G01*
X207700600Y-135853700D02*
X207700600Y-136603700D01*
G75*
G02*
X207638100Y-136666200I-62500J0D01*
G01*
X207513100Y-136666200D01*
G75*
G02*
X207450600Y-136603700I0J62500D01*
G01*
X207450600Y-135853700D01*
G75*
G02*
X207513100Y-135791200I62500J0D01*
G01*
X207638100Y-135791200D01*
G75*
G02*
X207700600Y-135853700I0J-62500D01*
G01*
G37*
G36*
G01*
X208700600Y-135478700D02*
X208700600Y-135603700D01*
G75*
G02*
X208638100Y-135666200I-62500J0D01*
G01*
X207888100Y-135666200D01*
G75*
G02*
X207825600Y-135603700I0J62500D01*
G01*
X207825600Y-135478700D01*
G75*
G02*
X207888100Y-135416200I62500J0D01*
G01*
X208638100Y-135416200D01*
G75*
G02*
X208700600Y-135478700I0J-62500D01*
G01*
G37*
G36*
G01*
X208700600Y-134978700D02*
X208700600Y-135103700D01*
G75*
G02*
X208638100Y-135166200I-62500J0D01*
G01*
X207888100Y-135166200D01*
G75*
G02*
X207825600Y-135103700I0J62500D01*
G01*
X207825600Y-134978700D01*
G75*
G02*
X207888100Y-134916200I62500J0D01*
G01*
X208638100Y-134916200D01*
G75*
G02*
X208700600Y-134978700I0J-62500D01*
G01*
G37*
G36*
G01*
X208700600Y-134478700D02*
X208700600Y-134603700D01*
G75*
G02*
X208638100Y-134666200I-62500J0D01*
G01*
X207888100Y-134666200D01*
G75*
G02*
X207825600Y-134603700I0J62500D01*
G01*
X207825600Y-134478700D01*
G75*
G02*
X207888100Y-134416200I62500J0D01*
G01*
X208638100Y-134416200D01*
G75*
G02*
X208700600Y-134478700I0J-62500D01*
G01*
G37*
G36*
G01*
X208700600Y-133978700D02*
X208700600Y-134103700D01*
G75*
G02*
X208638100Y-134166200I-62500J0D01*
G01*
X207888100Y-134166200D01*
G75*
G02*
X207825600Y-134103700I0J62500D01*
G01*
X207825600Y-133978700D01*
G75*
G02*
X207888100Y-133916200I62500J0D01*
G01*
X208638100Y-133916200D01*
G75*
G02*
X208700600Y-133978700I0J-62500D01*
G01*
G37*
G36*
G01*
X208700600Y-133478700D02*
X208700600Y-133603700D01*
G75*
G02*
X208638100Y-133666200I-62500J0D01*
G01*
X207888100Y-133666200D01*
G75*
G02*
X207825600Y-133603700I0J62500D01*
G01*
X207825600Y-133478700D01*
G75*
G02*
X207888100Y-133416200I62500J0D01*
G01*
X208638100Y-133416200D01*
G75*
G02*
X208700600Y-133478700I0J-62500D01*
G01*
G37*
G36*
G01*
X208700600Y-132978700D02*
X208700600Y-133103700D01*
G75*
G02*
X208638100Y-133166200I-62500J0D01*
G01*
X207888100Y-133166200D01*
G75*
G02*
X207825600Y-133103700I0J62500D01*
G01*
X207825600Y-132978700D01*
G75*
G02*
X207888100Y-132916200I62500J0D01*
G01*
X208638100Y-132916200D01*
G75*
G02*
X208700600Y-132978700I0J-62500D01*
G01*
G37*
G36*
G01*
X208700600Y-132478700D02*
X208700600Y-132603700D01*
G75*
G02*
X208638100Y-132666200I-62500J0D01*
G01*
X207888100Y-132666200D01*
G75*
G02*
X207825600Y-132603700I0J62500D01*
G01*
X207825600Y-132478700D01*
G75*
G02*
X207888100Y-132416200I62500J0D01*
G01*
X208638100Y-132416200D01*
G75*
G02*
X208700600Y-132478700I0J-62500D01*
G01*
G37*
G36*
G01*
X208700600Y-131978700D02*
X208700600Y-132103700D01*
G75*
G02*
X208638100Y-132166200I-62500J0D01*
G01*
X207888100Y-132166200D01*
G75*
G02*
X207825600Y-132103700I0J62500D01*
G01*
X207825600Y-131978700D01*
G75*
G02*
X207888100Y-131916200I62500J0D01*
G01*
X208638100Y-131916200D01*
G75*
G02*
X208700600Y-131978700I0J-62500D01*
G01*
G37*
G36*
G01*
X208700600Y-131478700D02*
X208700600Y-131603700D01*
G75*
G02*
X208638100Y-131666200I-62500J0D01*
G01*
X207888100Y-131666200D01*
G75*
G02*
X207825600Y-131603700I0J62500D01*
G01*
X207825600Y-131478700D01*
G75*
G02*
X207888100Y-131416200I62500J0D01*
G01*
X208638100Y-131416200D01*
G75*
G02*
X208700600Y-131478700I0J-62500D01*
G01*
G37*
G36*
G01*
X208700600Y-130978700D02*
X208700600Y-131103700D01*
G75*
G02*
X208638100Y-131166200I-62500J0D01*
G01*
X207888100Y-131166200D01*
G75*
G02*
X207825600Y-131103700I0J62500D01*
G01*
X207825600Y-130978700D01*
G75*
G02*
X207888100Y-130916200I62500J0D01*
G01*
X208638100Y-130916200D01*
G75*
G02*
X208700600Y-130978700I0J-62500D01*
G01*
G37*
G36*
G01*
X208700600Y-130478700D02*
X208700600Y-130603700D01*
G75*
G02*
X208638100Y-130666200I-62500J0D01*
G01*
X207888100Y-130666200D01*
G75*
G02*
X207825600Y-130603700I0J62500D01*
G01*
X207825600Y-130478700D01*
G75*
G02*
X207888100Y-130416200I62500J0D01*
G01*
X208638100Y-130416200D01*
G75*
G02*
X208700600Y-130478700I0J-62500D01*
G01*
G37*
G36*
G01*
X208700600Y-129978700D02*
X208700600Y-130103700D01*
G75*
G02*
X208638100Y-130166200I-62500J0D01*
G01*
X207888100Y-130166200D01*
G75*
G02*
X207825600Y-130103700I0J62500D01*
G01*
X207825600Y-129978700D01*
G75*
G02*
X207888100Y-129916200I62500J0D01*
G01*
X208638100Y-129916200D01*
G75*
G02*
X208700600Y-129978700I0J-62500D01*
G01*
G37*
G36*
G01*
X229571600Y-159773198D02*
X229571600Y-160673202D01*
G75*
G02*
X229321602Y-160923200I-249998J0D01*
G01*
X228796598Y-160923200D01*
G75*
G02*
X228546600Y-160673202I0J249998D01*
G01*
X228546600Y-159773198D01*
G75*
G02*
X228796598Y-159523200I249998J0D01*
G01*
X229321602Y-159523200D01*
G75*
G02*
X229571600Y-159773198I0J-249998D01*
G01*
G37*
G36*
G01*
X231396600Y-159773198D02*
X231396600Y-160673202D01*
G75*
G02*
X231146602Y-160923200I-249998J0D01*
G01*
X230621598Y-160923200D01*
G75*
G02*
X230371600Y-160673202I0J249998D01*
G01*
X230371600Y-159773198D01*
G75*
G02*
X230621598Y-159523200I249998J0D01*
G01*
X231146602Y-159523200D01*
G75*
G02*
X231396600Y-159773198I0J-249998D01*
G01*
G37*
G36*
G01*
X223366000Y-163141598D02*
X223366000Y-164041602D01*
G75*
G02*
X223116002Y-164291600I-249998J0D01*
G01*
X222590998Y-164291600D01*
G75*
G02*
X222341000Y-164041602I0J249998D01*
G01*
X222341000Y-163141598D01*
G75*
G02*
X222590998Y-162891600I249998J0D01*
G01*
X223116002Y-162891600D01*
G75*
G02*
X223366000Y-163141598I0J-249998D01*
G01*
G37*
G36*
G01*
X225191000Y-163141598D02*
X225191000Y-164041602D01*
G75*
G02*
X224941002Y-164291600I-249998J0D01*
G01*
X224415998Y-164291600D01*
G75*
G02*
X224166000Y-164041602I0J249998D01*
G01*
X224166000Y-163141598D01*
G75*
G02*
X224415998Y-162891600I249998J0D01*
G01*
X224941002Y-162891600D01*
G75*
G02*
X225191000Y-163141598I0J-249998D01*
G01*
G37*
G36*
G01*
X166224798Y-132989900D02*
X167124802Y-132989900D01*
G75*
G02*
X167374800Y-133239898I0J-249998D01*
G01*
X167374800Y-133764902D01*
G75*
G02*
X167124802Y-134014900I-249998J0D01*
G01*
X166224798Y-134014900D01*
G75*
G02*
X165974800Y-133764902I0J249998D01*
G01*
X165974800Y-133239898D01*
G75*
G02*
X166224798Y-132989900I249998J0D01*
G01*
G37*
G36*
G01*
X166224798Y-131164900D02*
X167124802Y-131164900D01*
G75*
G02*
X167374800Y-131414898I0J-249998D01*
G01*
X167374800Y-131939902D01*
G75*
G02*
X167124802Y-132189900I-249998J0D01*
G01*
X166224798Y-132189900D01*
G75*
G02*
X165974800Y-131939902I0J249998D01*
G01*
X165974800Y-131414898D01*
G75*
G02*
X166224798Y-131164900I249998J0D01*
G01*
G37*
G36*
G01*
X173575300Y-118814002D02*
X173575300Y-117913998D01*
G75*
G02*
X173825298Y-117664000I249998J0D01*
G01*
X174350302Y-117664000D01*
G75*
G02*
X174600300Y-117913998I0J-249998D01*
G01*
X174600300Y-118814002D01*
G75*
G02*
X174350302Y-119064000I-249998J0D01*
G01*
X173825298Y-119064000D01*
G75*
G02*
X173575300Y-118814002I0J249998D01*
G01*
G37*
G36*
G01*
X171750300Y-118814002D02*
X171750300Y-117913998D01*
G75*
G02*
X172000298Y-117664000I249998J0D01*
G01*
X172525302Y-117664000D01*
G75*
G02*
X172775300Y-117913998I0J-249998D01*
G01*
X172775300Y-118814002D01*
G75*
G02*
X172525302Y-119064000I-249998J0D01*
G01*
X172000298Y-119064000D01*
G75*
G02*
X171750300Y-118814002I0J249998D01*
G01*
G37*
G36*
G01*
X183748100Y-114154798D02*
X183748100Y-115054802D01*
G75*
G02*
X183498102Y-115304800I-249998J0D01*
G01*
X182973098Y-115304800D01*
G75*
G02*
X182723100Y-115054802I0J249998D01*
G01*
X182723100Y-114154798D01*
G75*
G02*
X182973098Y-113904800I249998J0D01*
G01*
X183498102Y-113904800D01*
G75*
G02*
X183748100Y-114154798I0J-249998D01*
G01*
G37*
G36*
G01*
X185573100Y-114154798D02*
X185573100Y-115054802D01*
G75*
G02*
X185323102Y-115304800I-249998J0D01*
G01*
X184798098Y-115304800D01*
G75*
G02*
X184548100Y-115054802I0J249998D01*
G01*
X184548100Y-114154798D01*
G75*
G02*
X184798098Y-113904800I249998J0D01*
G01*
X185323102Y-113904800D01*
G75*
G02*
X185573100Y-114154798I0J-249998D01*
G01*
G37*
G36*
G01*
X185005300Y-124605202D02*
X185005300Y-123705198D01*
G75*
G02*
X185255298Y-123455200I249998J0D01*
G01*
X185780302Y-123455200D01*
G75*
G02*
X186030300Y-123705198I0J-249998D01*
G01*
X186030300Y-124605202D01*
G75*
G02*
X185780302Y-124855200I-249998J0D01*
G01*
X185255298Y-124855200D01*
G75*
G02*
X185005300Y-124605202I0J249998D01*
G01*
G37*
G36*
G01*
X183180300Y-124605202D02*
X183180300Y-123705198D01*
G75*
G02*
X183430298Y-123455200I249998J0D01*
G01*
X183955302Y-123455200D01*
G75*
G02*
X184205300Y-123705198I0J-249998D01*
G01*
X184205300Y-124605202D01*
G75*
G02*
X183955302Y-124855200I-249998J0D01*
G01*
X183430298Y-124855200D01*
G75*
G02*
X183180300Y-124605202I0J249998D01*
G01*
G37*
G36*
G01*
X180805500Y-123705198D02*
X180805500Y-124605202D01*
G75*
G02*
X180555502Y-124855200I-249998J0D01*
G01*
X180030498Y-124855200D01*
G75*
G02*
X179780500Y-124605202I0J249998D01*
G01*
X179780500Y-123705198D01*
G75*
G02*
X180030498Y-123455200I249998J0D01*
G01*
X180555502Y-123455200D01*
G75*
G02*
X180805500Y-123705198I0J-249998D01*
G01*
G37*
G36*
G01*
X182630500Y-123705198D02*
X182630500Y-124605202D01*
G75*
G02*
X182380502Y-124855200I-249998J0D01*
G01*
X181855498Y-124855200D01*
G75*
G02*
X181605500Y-124605202I0J249998D01*
G01*
X181605500Y-123705198D01*
G75*
G02*
X181855498Y-123455200I249998J0D01*
G01*
X182380502Y-123455200D01*
G75*
G02*
X182630500Y-123705198I0J-249998D01*
G01*
G37*
G36*
G01*
X162860000Y-133200802D02*
X162860000Y-132300798D01*
G75*
G02*
X163109998Y-132050800I249998J0D01*
G01*
X163635002Y-132050800D01*
G75*
G02*
X163885000Y-132300798I0J-249998D01*
G01*
X163885000Y-133200802D01*
G75*
G02*
X163635002Y-133450800I-249998J0D01*
G01*
X163109998Y-133450800D01*
G75*
G02*
X162860000Y-133200802I0J249998D01*
G01*
G37*
G36*
G01*
X161035000Y-133200802D02*
X161035000Y-132300798D01*
G75*
G02*
X161284998Y-132050800I249998J0D01*
G01*
X161810002Y-132050800D01*
G75*
G02*
X162060000Y-132300798I0J-249998D01*
G01*
X162060000Y-133200802D01*
G75*
G02*
X161810002Y-133450800I-249998J0D01*
G01*
X161284998Y-133450800D01*
G75*
G02*
X161035000Y-133200802I0J249998D01*
G01*
G37*
D18*
X165709600Y-124122000D03*
X164759600Y-126322000D03*
X166659600Y-126322000D03*
D12*
X162510000Y-128650800D03*
X161560000Y-130650800D03*
X163460000Y-130650800D03*
G36*
G01*
X227130800Y-161107000D02*
X227630800Y-161107000D01*
G75*
G02*
X227855800Y-161332000I0J-225000D01*
G01*
X227855800Y-161782000D01*
G75*
G02*
X227630800Y-162007000I-225000J0D01*
G01*
X227130800Y-162007000D01*
G75*
G02*
X226905800Y-161782000I0J225000D01*
G01*
X226905800Y-161332000D01*
G75*
G02*
X227130800Y-161107000I225000J0D01*
G01*
G37*
G36*
G01*
X227130800Y-159557000D02*
X227630800Y-159557000D01*
G75*
G02*
X227855800Y-159782000I0J-225000D01*
G01*
X227855800Y-160232000D01*
G75*
G02*
X227630800Y-160457000I-225000J0D01*
G01*
X227130800Y-160457000D01*
G75*
G02*
X226905800Y-160232000I0J225000D01*
G01*
X226905800Y-159782000D01*
G75*
G02*
X227130800Y-159557000I225000J0D01*
G01*
G37*
G36*
G01*
X212301200Y-129761000D02*
X212301200Y-128811000D01*
G75*
G02*
X212551200Y-128561000I250000J0D01*
G01*
X213051200Y-128561000D01*
G75*
G02*
X213301200Y-128811000I0J-250000D01*
G01*
X213301200Y-129761000D01*
G75*
G02*
X213051200Y-130011000I-250000J0D01*
G01*
X212551200Y-130011000D01*
G75*
G02*
X212301200Y-129761000I0J250000D01*
G01*
G37*
G36*
G01*
X210401200Y-129761000D02*
X210401200Y-128811000D01*
G75*
G02*
X210651200Y-128561000I250000J0D01*
G01*
X211151200Y-128561000D01*
G75*
G02*
X211401200Y-128811000I0J-250000D01*
G01*
X211401200Y-129761000D01*
G75*
G02*
X211151200Y-130011000I-250000J0D01*
G01*
X210651200Y-130011000D01*
G75*
G02*
X210401200Y-129761000I0J250000D01*
G01*
G37*
G36*
G01*
X215375000Y-138850000D02*
X215375000Y-139350000D01*
G75*
G02*
X215150000Y-139575000I-225000J0D01*
G01*
X214700000Y-139575000D01*
G75*
G02*
X214475000Y-139350000I0J225000D01*
G01*
X214475000Y-138850000D01*
G75*
G02*
X214700000Y-138625000I225000J0D01*
G01*
X215150000Y-138625000D01*
G75*
G02*
X215375000Y-138850000I0J-225000D01*
G01*
G37*
G36*
G01*
X216925000Y-138850000D02*
X216925000Y-139350000D01*
G75*
G02*
X216700000Y-139575000I-225000J0D01*
G01*
X216250000Y-139575000D01*
G75*
G02*
X216025000Y-139350000I0J225000D01*
G01*
X216025000Y-138850000D01*
G75*
G02*
X216250000Y-138625000I225000J0D01*
G01*
X216700000Y-138625000D01*
G75*
G02*
X216925000Y-138850000I0J-225000D01*
G01*
G37*
G36*
G01*
X215250000Y-141350000D02*
X215250000Y-141850000D01*
G75*
G02*
X215025000Y-142075000I-225000J0D01*
G01*
X214575000Y-142075000D01*
G75*
G02*
X214350000Y-141850000I0J225000D01*
G01*
X214350000Y-141350000D01*
G75*
G02*
X214575000Y-141125000I225000J0D01*
G01*
X215025000Y-141125000D01*
G75*
G02*
X215250000Y-141350000I0J-225000D01*
G01*
G37*
G36*
G01*
X216800000Y-141350000D02*
X216800000Y-141850000D01*
G75*
G02*
X216575000Y-142075000I-225000J0D01*
G01*
X216125000Y-142075000D01*
G75*
G02*
X215900000Y-141850000I0J225000D01*
G01*
X215900000Y-141350000D01*
G75*
G02*
X216125000Y-141125000I225000J0D01*
G01*
X216575000Y-141125000D01*
G75*
G02*
X216800000Y-141350000I0J-225000D01*
G01*
G37*
G36*
G01*
X213275000Y-143850000D02*
X212325000Y-143850000D01*
G75*
G02*
X212075000Y-143600000I0J250000D01*
G01*
X212075000Y-143100000D01*
G75*
G02*
X212325000Y-142850000I250000J0D01*
G01*
X213275000Y-142850000D01*
G75*
G02*
X213525000Y-143100000I0J-250000D01*
G01*
X213525000Y-143600000D01*
G75*
G02*
X213275000Y-143850000I-250000J0D01*
G01*
G37*
G36*
G01*
X213275000Y-145750000D02*
X212325000Y-145750000D01*
G75*
G02*
X212075000Y-145500000I0J250000D01*
G01*
X212075000Y-145000000D01*
G75*
G02*
X212325000Y-144750000I250000J0D01*
G01*
X213275000Y-144750000D01*
G75*
G02*
X213525000Y-145000000I0J-250000D01*
G01*
X213525000Y-145500000D01*
G75*
G02*
X213275000Y-145750000I-250000J0D01*
G01*
G37*
G36*
G01*
X210175000Y-143750000D02*
X209225000Y-143750000D01*
G75*
G02*
X208975000Y-143500000I0J250000D01*
G01*
X208975000Y-143000000D01*
G75*
G02*
X209225000Y-142750000I250000J0D01*
G01*
X210175000Y-142750000D01*
G75*
G02*
X210425000Y-143000000I0J-250000D01*
G01*
X210425000Y-143500000D01*
G75*
G02*
X210175000Y-143750000I-250000J0D01*
G01*
G37*
G36*
G01*
X210175000Y-145650000D02*
X209225000Y-145650000D01*
G75*
G02*
X208975000Y-145400000I0J250000D01*
G01*
X208975000Y-144900000D01*
G75*
G02*
X209225000Y-144650000I250000J0D01*
G01*
X210175000Y-144650000D01*
G75*
G02*
X210425000Y-144900000I0J-250000D01*
G01*
X210425000Y-145400000D01*
G75*
G02*
X210175000Y-145650000I-250000J0D01*
G01*
G37*
G36*
G01*
X143938800Y-125864600D02*
X143938800Y-126814600D01*
G75*
G02*
X143688800Y-127064600I-250000J0D01*
G01*
X143188800Y-127064600D01*
G75*
G02*
X142938800Y-126814600I0J250000D01*
G01*
X142938800Y-125864600D01*
G75*
G02*
X143188800Y-125614600I250000J0D01*
G01*
X143688800Y-125614600D01*
G75*
G02*
X143938800Y-125864600I0J-250000D01*
G01*
G37*
G36*
G01*
X145838800Y-125864600D02*
X145838800Y-126814600D01*
G75*
G02*
X145588800Y-127064600I-250000J0D01*
G01*
X145088800Y-127064600D01*
G75*
G02*
X144838800Y-126814600I0J250000D01*
G01*
X144838800Y-125864600D01*
G75*
G02*
X145088800Y-125614600I250000J0D01*
G01*
X145588800Y-125614600D01*
G75*
G02*
X145838800Y-125864600I0J-250000D01*
G01*
G37*
G36*
G01*
X156649400Y-139372800D02*
X157599400Y-139372800D01*
G75*
G02*
X157849400Y-139622800I0J-250000D01*
G01*
X157849400Y-140122800D01*
G75*
G02*
X157599400Y-140372800I-250000J0D01*
G01*
X156649400Y-140372800D01*
G75*
G02*
X156399400Y-140122800I0J250000D01*
G01*
X156399400Y-139622800D01*
G75*
G02*
X156649400Y-139372800I250000J0D01*
G01*
G37*
G36*
G01*
X156649400Y-137472800D02*
X157599400Y-137472800D01*
G75*
G02*
X157849400Y-137722800I0J-250000D01*
G01*
X157849400Y-138222800D01*
G75*
G02*
X157599400Y-138472800I-250000J0D01*
G01*
X156649400Y-138472800D01*
G75*
G02*
X156399400Y-138222800I0J250000D01*
G01*
X156399400Y-137722800D01*
G75*
G02*
X156649400Y-137472800I250000J0D01*
G01*
G37*
G36*
G01*
X166199800Y-136528000D02*
X167149800Y-136528000D01*
G75*
G02*
X167399800Y-136778000I0J-250000D01*
G01*
X167399800Y-137278000D01*
G75*
G02*
X167149800Y-137528000I-250000J0D01*
G01*
X166199800Y-137528000D01*
G75*
G02*
X165949800Y-137278000I0J250000D01*
G01*
X165949800Y-136778000D01*
G75*
G02*
X166199800Y-136528000I250000J0D01*
G01*
G37*
G36*
G01*
X166199800Y-134628000D02*
X167149800Y-134628000D01*
G75*
G02*
X167399800Y-134878000I0J-250000D01*
G01*
X167399800Y-135378000D01*
G75*
G02*
X167149800Y-135628000I-250000J0D01*
G01*
X166199800Y-135628000D01*
G75*
G02*
X165949800Y-135378000I0J250000D01*
G01*
X165949800Y-134878000D01*
G75*
G02*
X166199800Y-134628000I250000J0D01*
G01*
G37*
G36*
G01*
X172473200Y-119768600D02*
X172473200Y-120718600D01*
G75*
G02*
X172223200Y-120968600I-250000J0D01*
G01*
X171723200Y-120968600D01*
G75*
G02*
X171473200Y-120718600I0J250000D01*
G01*
X171473200Y-119768600D01*
G75*
G02*
X171723200Y-119518600I250000J0D01*
G01*
X172223200Y-119518600D01*
G75*
G02*
X172473200Y-119768600I0J-250000D01*
G01*
G37*
G36*
G01*
X174373200Y-119768600D02*
X174373200Y-120718600D01*
G75*
G02*
X174123200Y-120968600I-250000J0D01*
G01*
X173623200Y-120968600D01*
G75*
G02*
X173373200Y-120718600I0J250000D01*
G01*
X173373200Y-119768600D01*
G75*
G02*
X173623200Y-119518600I250000J0D01*
G01*
X174123200Y-119518600D01*
G75*
G02*
X174373200Y-119768600I0J-250000D01*
G01*
G37*
G36*
G01*
X223225000Y-117900000D02*
X224175000Y-117900000D01*
G75*
G02*
X224425000Y-118150000I0J-250000D01*
G01*
X224425000Y-118650000D01*
G75*
G02*
X224175000Y-118900000I-250000J0D01*
G01*
X223225000Y-118900000D01*
G75*
G02*
X222975000Y-118650000I0J250000D01*
G01*
X222975000Y-118150000D01*
G75*
G02*
X223225000Y-117900000I250000J0D01*
G01*
G37*
G36*
G01*
X223225000Y-116000000D02*
X224175000Y-116000000D01*
G75*
G02*
X224425000Y-116250000I0J-250000D01*
G01*
X224425000Y-116750000D01*
G75*
G02*
X224175000Y-117000000I-250000J0D01*
G01*
X223225000Y-117000000D01*
G75*
G02*
X222975000Y-116750000I0J250000D01*
G01*
X222975000Y-116250000D01*
G75*
G02*
X223225000Y-116000000I250000J0D01*
G01*
G37*
G36*
G01*
X187625000Y-93650000D02*
X188575000Y-93650000D01*
G75*
G02*
X188825000Y-93900000I0J-250000D01*
G01*
X188825000Y-94400000D01*
G75*
G02*
X188575000Y-94650000I-250000J0D01*
G01*
X187625000Y-94650000D01*
G75*
G02*
X187375000Y-94400000I0J250000D01*
G01*
X187375000Y-93900000D01*
G75*
G02*
X187625000Y-93650000I250000J0D01*
G01*
G37*
G36*
G01*
X187625000Y-91750000D02*
X188575000Y-91750000D01*
G75*
G02*
X188825000Y-92000000I0J-250000D01*
G01*
X188825000Y-92500000D01*
G75*
G02*
X188575000Y-92750000I-250000J0D01*
G01*
X187625000Y-92750000D01*
G75*
G02*
X187375000Y-92500000I0J250000D01*
G01*
X187375000Y-92000000D01*
G75*
G02*
X187625000Y-91750000I250000J0D01*
G01*
G37*
G36*
G01*
X185656200Y-94785600D02*
X186606200Y-94785600D01*
G75*
G02*
X186856200Y-95035600I0J-250000D01*
G01*
X186856200Y-95535600D01*
G75*
G02*
X186606200Y-95785600I-250000J0D01*
G01*
X185656200Y-95785600D01*
G75*
G02*
X185406200Y-95535600I0J250000D01*
G01*
X185406200Y-95035600D01*
G75*
G02*
X185656200Y-94785600I250000J0D01*
G01*
G37*
G36*
G01*
X185656200Y-92885600D02*
X186606200Y-92885600D01*
G75*
G02*
X186856200Y-93135600I0J-250000D01*
G01*
X186856200Y-93635600D01*
G75*
G02*
X186606200Y-93885600I-250000J0D01*
G01*
X185656200Y-93885600D01*
G75*
G02*
X185406200Y-93635600I0J250000D01*
G01*
X185406200Y-93135600D01*
G75*
G02*
X185656200Y-92885600I250000J0D01*
G01*
G37*
G36*
G01*
X190900000Y-91325000D02*
X190900000Y-92275000D01*
G75*
G02*
X190650000Y-92525000I-250000J0D01*
G01*
X190150000Y-92525000D01*
G75*
G02*
X189900000Y-92275000I0J250000D01*
G01*
X189900000Y-91325000D01*
G75*
G02*
X190150000Y-91075000I250000J0D01*
G01*
X190650000Y-91075000D01*
G75*
G02*
X190900000Y-91325000I0J-250000D01*
G01*
G37*
G36*
G01*
X192800000Y-91325000D02*
X192800000Y-92275000D01*
G75*
G02*
X192550000Y-92525000I-250000J0D01*
G01*
X192050000Y-92525000D01*
G75*
G02*
X191800000Y-92275000I0J250000D01*
G01*
X191800000Y-91325000D01*
G75*
G02*
X192050000Y-91075000I250000J0D01*
G01*
X192550000Y-91075000D01*
G75*
G02*
X192800000Y-91325000I0J-250000D01*
G01*
G37*
M02*
