G04 #@! TF.GenerationSoftware,KiCad,Pcbnew,(5.1.7)-1*
G04 #@! TF.CreationDate,2021-09-16T14:59:04-07:00*
G04 #@! TF.ProjectId,LCP_Controller,4c43505f-436f-46e7-9472-6f6c6c65722e,rev?*
G04 #@! TF.SameCoordinates,Original*
G04 #@! TF.FileFunction,Profile,NP*
%FSLAX46Y46*%
G04 Gerber Fmt 4.6, Leading zero omitted, Abs format (unit mm)*
G04 Created by KiCad (PCBNEW (5.1.7)-1) date 2021-09-16 14:59:04*
%MOMM*%
%LPD*%
G01*
G04 APERTURE LIST*
G04 #@! TA.AperFunction,Profile*
%ADD10C,0.050800*%
G04 #@! TD*
G04 #@! TA.AperFunction,Profile*
%ADD11C,0.050000*%
G04 #@! TD*
G04 APERTURE END LIST*
D10*
X199297079Y-177373517D02*
G75*
G03*
X199297079Y-177373517I-17462500J0D01*
G01*
X196122079Y-142448517D02*
G75*
G03*
X196122079Y-142448517I-14287500J0D01*
G01*
X214981578Y-109284962D02*
G75*
G03*
X214981578Y-109284962I-12826999J0D01*
G01*
X174341579Y-109284962D02*
G75*
G03*
X174341579Y-109284962I-12827000J0D01*
G01*
D11*
X236635072Y-133278059D02*
G75*
G02*
X236466679Y-152573978I-54800493J-9170458D01*
G01*
X236466679Y-152573978D02*
G75*
G02*
X229708849Y-170648616I-54632100J10125461D01*
G01*
X229708849Y-170648616D02*
G75*
G02*
X214082607Y-187695130I-47874270J28200099D01*
G01*
X214082607Y-187695130D02*
G75*
G02*
X196662559Y-195995901I-32248028J45246613D01*
G01*
X196662559Y-195995901D02*
G75*
G02*
X177454038Y-197838066I-14827980J53547384D01*
G01*
X177454038Y-197838066D02*
G75*
G02*
X158773876Y-192999435I4380541J55389549D01*
G01*
X158773876Y-192999437D02*
G75*
G02*
X142875173Y-182063618I23060703J50550920D01*
G01*
X142875174Y-182063615D02*
G75*
G02*
X131675552Y-166349633I38959405J39615098D01*
G01*
X131675552Y-166349632D02*
G75*
G02*
X127034086Y-151618975I50159027J23901115D01*
G01*
X127034086Y-151618975D02*
G75*
G02*
X127202479Y-132323056I54800493J9170458D01*
G01*
X127202479Y-132323056D02*
G75*
G02*
X133960309Y-114248418I54632100J-10125461D01*
G01*
X133960308Y-114248418D02*
G75*
G02*
X146492482Y-99575127I47874271J-28200099D01*
G01*
X146492483Y-99575128D02*
G75*
G02*
X163287436Y-90073000I35342096J-42873389D01*
G01*
X163287436Y-90072999D02*
G75*
G02*
X182319447Y-86888133I18547143J-52375518D01*
G01*
X182319447Y-86888134D02*
G75*
G02*
X201292975Y-90404669I-484868J-55560383D01*
G01*
X201292975Y-90404668D02*
G75*
G02*
X217919536Y-100198461I-19458396J-52043849D01*
G01*
X217919537Y-100198460D02*
G75*
G02*
X230193718Y-115088233I-36084958J-42250057D01*
G01*
X230193717Y-115088234D02*
G75*
G02*
X236635072Y-133278059I-48359138J-27360283D01*
G01*
M02*
