G04 #@! TF.GenerationSoftware,KiCad,Pcbnew,(5.1.7)-1*
G04 #@! TF.CreationDate,2021-09-16T14:59:04-07:00*
G04 #@! TF.ProjectId,LCP_Controller,4c43505f-436f-46e7-9472-6f6c6c65722e,rev?*
G04 #@! TF.SameCoordinates,Original*
G04 #@! TF.FileFunction,Soldermask,Top*
G04 #@! TF.FilePolarity,Negative*
%FSLAX46Y46*%
G04 Gerber Fmt 4.6, Leading zero omitted, Abs format (unit mm)*
G04 Created by KiCad (PCBNEW (5.1.7)-1) date 2021-09-16 14:59:04*
%MOMM*%
%LPD*%
G01*
G04 APERTURE LIST*
%ADD10C,25.654000*%
%ADD11C,2.250000*%
%ADD12C,2.050000*%
%ADD13C,2.000000*%
%ADD14C,4.500001*%
%ADD15C,3.730000*%
%ADD16R,0.700000X0.200000*%
%ADD17C,34.925000*%
%ADD18C,28.575000*%
%ADD19R,0.325000X0.325000*%
%ADD20R,0.500000X0.400000*%
%ADD21R,0.500000X0.300000*%
%ADD22C,2.151380*%
%ADD23R,0.800000X0.900000*%
%ADD24R,2.700000X2.700000*%
%ADD25C,1.600000*%
%ADD26R,1.600000X1.600000*%
%ADD27C,0.100000*%
%ADD28O,0.400000X0.650000*%
%ADD29R,0.400000X0.300000*%
%ADD30R,2.400000X1.650000*%
%ADD31R,1.000000X0.650000*%
%ADD32O,0.650000X0.400000*%
%ADD33R,0.300000X0.400000*%
%ADD34R,1.650000X2.400000*%
%ADD35R,0.650000X1.000000*%
%ADD36R,0.640000X2.400000*%
%ADD37R,0.700000X0.250000*%
%ADD38R,1.300000X1.500000*%
%ADD39R,0.750000X0.300000*%
%ADD40R,1.050000X0.650000*%
%ADD41R,0.900000X0.400000*%
%ADD42R,0.400000X0.900000*%
%ADD43R,0.900000X0.800000*%
%ADD44C,0.787400*%
%ADD45C,0.990600*%
%ADD46C,4.500000*%
G04 APERTURE END LIST*
G36*
G01*
X199729910Y-128593848D02*
X199729910Y-128593848D01*
G75*
G02*
X202037836Y-128593848I1153963J-1153963D01*
G01*
X204579248Y-131135260D01*
G75*
G02*
X204579248Y-133443186I-1153963J-1153963D01*
G01*
X204579248Y-133443186D01*
G75*
G02*
X202271322Y-133443186I-1153963J1153963D01*
G01*
X199729910Y-130901774D01*
G75*
G02*
X199729910Y-128593848I1153963J1153963D01*
G01*
G37*
G36*
G01*
X222589910Y-133443186D02*
X222589910Y-133443186D01*
G75*
G02*
X222589910Y-131135260I1153963J1153963D01*
G01*
X225131322Y-128593848D01*
G75*
G02*
X227439248Y-128593848I1153963J-1153963D01*
G01*
X227439248Y-128593848D01*
G75*
G02*
X227439248Y-130901774I-1153963J-1153963D01*
G01*
X224897836Y-133443186D01*
G75*
G02*
X222589910Y-133443186I-1153963J1153963D01*
G01*
G37*
G36*
G01*
X199729910Y-156303186D02*
X199729910Y-156303186D01*
G75*
G02*
X199729910Y-153995260I1153963J1153963D01*
G01*
X202271322Y-151453848D01*
G75*
G02*
X204579248Y-151453848I1153963J-1153963D01*
G01*
X204579248Y-151453848D01*
G75*
G02*
X204579248Y-153761774I-1153963J-1153963D01*
G01*
X202037836Y-156303186D01*
G75*
G02*
X199729910Y-156303186I-1153963J1153963D01*
G01*
G37*
G36*
G01*
X222589910Y-151453848D02*
X222589910Y-151453848D01*
G75*
G02*
X224897836Y-151453848I1153963J-1153963D01*
G01*
X227439248Y-153995260D01*
G75*
G02*
X227439248Y-156303186I-1153963J-1153963D01*
G01*
X227439248Y-156303186D01*
G75*
G02*
X225131322Y-156303186I-1153963J1153963D01*
G01*
X222589910Y-153761774D01*
G75*
G02*
X222589910Y-151453848I1153963J1153963D01*
G01*
G37*
D10*
X161514579Y-109284962D03*
D11*
X144037530Y-173123762D03*
X139876238Y-176037530D03*
X136962470Y-171876238D03*
X141123762Y-168962470D03*
D12*
X140500000Y-172500000D03*
D13*
X148500000Y-184000000D03*
G36*
G01*
X144544139Y-165469374D02*
X144791626Y-165716861D01*
G75*
G02*
X144791626Y-165964349I-123744J-123744D01*
G01*
X143766321Y-166989654D01*
G75*
G02*
X143518833Y-166989654I-123744J123744D01*
G01*
X143271346Y-166742167D01*
G75*
G02*
X143271346Y-166494679I123744J123744D01*
G01*
X144296651Y-165469374D01*
G75*
G02*
X144544139Y-165469374I123744J-123744D01*
G01*
G37*
G36*
G01*
X143748642Y-164673880D02*
X144031485Y-164956723D01*
G75*
G02*
X144031485Y-165239565I-141421J-141421D01*
G01*
X143041536Y-166229514D01*
G75*
G02*
X142758694Y-166229514I-141421J141421D01*
G01*
X142475851Y-165946671D01*
G75*
G02*
X142475851Y-165663829I141421J141421D01*
G01*
X143465800Y-164673880D01*
G75*
G02*
X143748642Y-164673880I141421J-141421D01*
G01*
G37*
G36*
G01*
X142970825Y-163896062D02*
X143253668Y-164178905D01*
G75*
G02*
X143253668Y-164461747I-141421J-141421D01*
G01*
X142263719Y-165451696D01*
G75*
G02*
X141980877Y-165451696I-141421J141421D01*
G01*
X141698034Y-165168853D01*
G75*
G02*
X141698034Y-164886011I141421J141421D01*
G01*
X142687983Y-163896062D01*
G75*
G02*
X142970825Y-163896062I141421J-141421D01*
G01*
G37*
G36*
G01*
X142193007Y-163118245D02*
X142475850Y-163401088D01*
G75*
G02*
X142475850Y-163683930I-141421J-141421D01*
G01*
X141485901Y-164673879D01*
G75*
G02*
X141203059Y-164673879I-141421J141421D01*
G01*
X140920216Y-164391036D01*
G75*
G02*
X140920216Y-164108194I141421J141421D01*
G01*
X141910165Y-163118245D01*
G75*
G02*
X142193007Y-163118245I141421J-141421D01*
G01*
G37*
G36*
G01*
X141415190Y-162340427D02*
X141698033Y-162623270D01*
G75*
G02*
X141698033Y-162906112I-141421J-141421D01*
G01*
X140708084Y-163896061D01*
G75*
G02*
X140425242Y-163896061I-141421J141421D01*
G01*
X140142399Y-163613218D01*
G75*
G02*
X140142399Y-163330376I141421J141421D01*
G01*
X141132348Y-162340427D01*
G75*
G02*
X141415190Y-162340427I141421J-141421D01*
G01*
G37*
G36*
G01*
X140637372Y-161562610D02*
X140920215Y-161845453D01*
G75*
G02*
X140920215Y-162128295I-141421J-141421D01*
G01*
X139930266Y-163118244D01*
G75*
G02*
X139647424Y-163118244I-141421J141421D01*
G01*
X139364581Y-162835401D01*
G75*
G02*
X139364581Y-162552559I141421J141421D01*
G01*
X140354530Y-161562610D01*
G75*
G02*
X140637372Y-161562610I141421J-141421D01*
G01*
G37*
G36*
G01*
X139859555Y-160784792D02*
X140142398Y-161067635D01*
G75*
G02*
X140142398Y-161350477I-141421J-141421D01*
G01*
X139152449Y-162340426D01*
G75*
G02*
X138869607Y-162340426I-141421J141421D01*
G01*
X138586764Y-162057583D01*
G75*
G02*
X138586764Y-161774741I141421J141421D01*
G01*
X139576713Y-160784792D01*
G75*
G02*
X139859555Y-160784792I141421J-141421D01*
G01*
G37*
G36*
G01*
X139081737Y-160006975D02*
X139364580Y-160289818D01*
G75*
G02*
X139364580Y-160572660I-141421J-141421D01*
G01*
X138374631Y-161562609D01*
G75*
G02*
X138091789Y-161562609I-141421J141421D01*
G01*
X137808946Y-161279766D01*
G75*
G02*
X137808946Y-160996924I141421J141421D01*
G01*
X138798895Y-160006975D01*
G75*
G02*
X139081737Y-160006975I141421J-141421D01*
G01*
G37*
G36*
G01*
X138321599Y-159246834D02*
X138569086Y-159494321D01*
G75*
G02*
X138569086Y-159741809I-123744J-123744D01*
G01*
X137543781Y-160767114D01*
G75*
G02*
X137296293Y-160767114I-123744J123744D01*
G01*
X137048806Y-160519627D01*
G75*
G02*
X137048806Y-160272139I123744J123744D01*
G01*
X138074111Y-159246834D01*
G75*
G02*
X138321599Y-159246834I123744J-123744D01*
G01*
G37*
G36*
G01*
X145039113Y-152529320D02*
X145286600Y-152776807D01*
G75*
G02*
X145286600Y-153024295I-123744J-123744D01*
G01*
X144261295Y-154049600D01*
G75*
G02*
X144013807Y-154049600I-123744J123744D01*
G01*
X143766320Y-153802113D01*
G75*
G02*
X143766320Y-153554625I123744J123744D01*
G01*
X144791625Y-152529320D01*
G75*
G02*
X145039113Y-152529320I123744J-123744D01*
G01*
G37*
G36*
G01*
X145799252Y-153289460D02*
X146082095Y-153572303D01*
G75*
G02*
X146082095Y-153855145I-141421J-141421D01*
G01*
X145092146Y-154845094D01*
G75*
G02*
X144809304Y-154845094I-141421J141421D01*
G01*
X144526461Y-154562251D01*
G75*
G02*
X144526461Y-154279409I141421J141421D01*
G01*
X145516410Y-153289460D01*
G75*
G02*
X145799252Y-153289460I141421J-141421D01*
G01*
G37*
G36*
G01*
X146577069Y-154067278D02*
X146859912Y-154350121D01*
G75*
G02*
X146859912Y-154632963I-141421J-141421D01*
G01*
X145869963Y-155622912D01*
G75*
G02*
X145587121Y-155622912I-141421J141421D01*
G01*
X145304278Y-155340069D01*
G75*
G02*
X145304278Y-155057227I141421J141421D01*
G01*
X146294227Y-154067278D01*
G75*
G02*
X146577069Y-154067278I141421J-141421D01*
G01*
G37*
G36*
G01*
X147354887Y-154845095D02*
X147637730Y-155127938D01*
G75*
G02*
X147637730Y-155410780I-141421J-141421D01*
G01*
X146647781Y-156400729D01*
G75*
G02*
X146364939Y-156400729I-141421J141421D01*
G01*
X146082096Y-156117886D01*
G75*
G02*
X146082096Y-155835044I141421J141421D01*
G01*
X147072045Y-154845095D01*
G75*
G02*
X147354887Y-154845095I141421J-141421D01*
G01*
G37*
G36*
G01*
X148132704Y-155622913D02*
X148415547Y-155905756D01*
G75*
G02*
X148415547Y-156188598I-141421J-141421D01*
G01*
X147425598Y-157178547D01*
G75*
G02*
X147142756Y-157178547I-141421J141421D01*
G01*
X146859913Y-156895704D01*
G75*
G02*
X146859913Y-156612862I141421J141421D01*
G01*
X147849862Y-155622913D01*
G75*
G02*
X148132704Y-155622913I141421J-141421D01*
G01*
G37*
G36*
G01*
X148910522Y-156400730D02*
X149193365Y-156683573D01*
G75*
G02*
X149193365Y-156966415I-141421J-141421D01*
G01*
X148203416Y-157956364D01*
G75*
G02*
X147920574Y-157956364I-141421J141421D01*
G01*
X147637731Y-157673521D01*
G75*
G02*
X147637731Y-157390679I141421J141421D01*
G01*
X148627680Y-156400730D01*
G75*
G02*
X148910522Y-156400730I141421J-141421D01*
G01*
G37*
G36*
G01*
X149688339Y-157178548D02*
X149971182Y-157461391D01*
G75*
G02*
X149971182Y-157744233I-141421J-141421D01*
G01*
X148981233Y-158734182D01*
G75*
G02*
X148698391Y-158734182I-141421J141421D01*
G01*
X148415548Y-158451339D01*
G75*
G02*
X148415548Y-158168497I141421J141421D01*
G01*
X149405497Y-157178548D01*
G75*
G02*
X149688339Y-157178548I141421J-141421D01*
G01*
G37*
G36*
G01*
X150466157Y-157956365D02*
X150749000Y-158239208D01*
G75*
G02*
X150749000Y-158522050I-141421J-141421D01*
G01*
X149759051Y-159511999D01*
G75*
G02*
X149476209Y-159511999I-141421J141421D01*
G01*
X149193366Y-159229156D01*
G75*
G02*
X149193366Y-158946314I141421J141421D01*
G01*
X150183315Y-157956365D01*
G75*
G02*
X150466157Y-157956365I141421J-141421D01*
G01*
G37*
G36*
G01*
X151261653Y-158751860D02*
X151509140Y-158999347D01*
G75*
G02*
X151509140Y-159246835I-123744J-123744D01*
G01*
X150483835Y-160272140D01*
G75*
G02*
X150236347Y-160272140I-123744J123744D01*
G01*
X149988860Y-160024653D01*
G75*
G02*
X149988860Y-159777165I123744J123744D01*
G01*
X151014165Y-158751860D01*
G75*
G02*
X151261653Y-158751860I123744J-123744D01*
G01*
G37*
D14*
X149000000Y-170000000D03*
D15*
X135987579Y-153370517D03*
X135987579Y-128370517D03*
D16*
X159402579Y-136570517D03*
X163752579Y-136570517D03*
X159402579Y-136970517D03*
X163752579Y-136970517D03*
X159402579Y-137370517D03*
X163752579Y-137370517D03*
X159402579Y-137770517D03*
X163752579Y-137770517D03*
X159402579Y-138170517D03*
X163752579Y-138170517D03*
X159402579Y-138570517D03*
X163752579Y-138570517D03*
X159402579Y-138970517D03*
X163752579Y-138970517D03*
X159402579Y-139370517D03*
X163752579Y-139370517D03*
X159402579Y-139770517D03*
X163752579Y-139770517D03*
X159402579Y-140170517D03*
X163752579Y-140170517D03*
G36*
G01*
X136154073Y-162669322D02*
X136825824Y-161997571D01*
G75*
G02*
X137179378Y-161997571I176777J-176777D01*
G01*
X137532931Y-162351124D01*
G75*
G02*
X137532931Y-162704678I-176777J-176777D01*
G01*
X136861180Y-163376429D01*
G75*
G02*
X136507626Y-163376429I-176777J176777D01*
G01*
X136154073Y-163022876D01*
G75*
G02*
X136154073Y-162669322I176777J176777D01*
G01*
G37*
G36*
G01*
X134810571Y-161325820D02*
X135482322Y-160654069D01*
G75*
G02*
X135835876Y-160654069I176777J-176777D01*
G01*
X136189429Y-161007622D01*
G75*
G02*
X136189429Y-161361176I-176777J-176777D01*
G01*
X135517678Y-162032927D01*
G75*
G02*
X135164124Y-162032927I-176777J176777D01*
G01*
X134810571Y-161679374D01*
G75*
G02*
X134810571Y-161325820I176777J176777D01*
G01*
G37*
D17*
X181834579Y-177373517D03*
D18*
X181834579Y-142448517D03*
D10*
X202154579Y-109284962D03*
D19*
X211776500Y-140080500D03*
X212276500Y-140080500D03*
X212276500Y-141605500D03*
X211776500Y-141605500D03*
X212789000Y-140093000D03*
X211264000Y-140093000D03*
X212789000Y-141593000D03*
X211264000Y-141593000D03*
X212789000Y-141093000D03*
X212789000Y-140593000D03*
X211264000Y-141093000D03*
X211264000Y-140593000D03*
D20*
X157988000Y-136042400D03*
D21*
X157988000Y-135542400D03*
D20*
X157988000Y-134542400D03*
D21*
X157988000Y-135042400D03*
D20*
X156988000Y-136042400D03*
D21*
X156988000Y-135042400D03*
X156988000Y-135542400D03*
D20*
X156988000Y-134542400D03*
X152044400Y-134339200D03*
D21*
X152044400Y-134839200D03*
D20*
X152044400Y-135839200D03*
D21*
X152044400Y-135339200D03*
D20*
X153044400Y-134339200D03*
D21*
X153044400Y-135339200D03*
X153044400Y-134839200D03*
D20*
X153044400Y-135839200D03*
X158742000Y-131458400D03*
D21*
X158742000Y-130958400D03*
D20*
X158742000Y-129958400D03*
D21*
X158742000Y-130458400D03*
D20*
X157742000Y-131458400D03*
D21*
X157742000Y-130458400D03*
X157742000Y-130958400D03*
D20*
X157742000Y-129958400D03*
X152060400Y-129970400D03*
D21*
X152060400Y-130470400D03*
D20*
X152060400Y-131470400D03*
D21*
X152060400Y-130970400D03*
D20*
X153060400Y-129970400D03*
D21*
X153060400Y-130970400D03*
X153060400Y-130470400D03*
D20*
X153060400Y-131470400D03*
X158597600Y-126526800D03*
D21*
X158597600Y-126026800D03*
D20*
X158597600Y-125026800D03*
D21*
X158597600Y-125526800D03*
D20*
X157597600Y-126526800D03*
D21*
X157597600Y-125526800D03*
X157597600Y-126026800D03*
D20*
X157597600Y-125026800D03*
X152154000Y-124929200D03*
D21*
X152154000Y-125429200D03*
D20*
X152154000Y-126429200D03*
D21*
X152154000Y-125929200D03*
D20*
X153154000Y-124929200D03*
D21*
X153154000Y-125929200D03*
X153154000Y-125429200D03*
D20*
X153154000Y-126429200D03*
D13*
X160934400Y-178574700D03*
X195580000Y-153543000D03*
D22*
X153787899Y-141813517D03*
X133790479Y-141813517D03*
G36*
G01*
X199703000Y-165296002D02*
X199703000Y-164395998D01*
G75*
G02*
X199952998Y-164146000I249998J0D01*
G01*
X200478002Y-164146000D01*
G75*
G02*
X200728000Y-164395998I0J-249998D01*
G01*
X200728000Y-165296002D01*
G75*
G02*
X200478002Y-165546000I-249998J0D01*
G01*
X199952998Y-165546000D01*
G75*
G02*
X199703000Y-165296002I0J249998D01*
G01*
G37*
G36*
G01*
X197878000Y-165296002D02*
X197878000Y-164395998D01*
G75*
G02*
X198127998Y-164146000I249998J0D01*
G01*
X198653002Y-164146000D01*
G75*
G02*
X198903000Y-164395998I0J-249998D01*
G01*
X198903000Y-165296002D01*
G75*
G02*
X198653002Y-165546000I-249998J0D01*
G01*
X198127998Y-165546000D01*
G75*
G02*
X197878000Y-165296002I0J249998D01*
G01*
G37*
D23*
X199326500Y-168767000D03*
X198376500Y-166767000D03*
X200276500Y-166767000D03*
D24*
X158278200Y-169936800D03*
G36*
G01*
X159890700Y-168561800D02*
X160590700Y-168561800D01*
G75*
G02*
X160653200Y-168624300I0J-62500D01*
G01*
X160653200Y-168749300D01*
G75*
G02*
X160590700Y-168811800I-62500J0D01*
G01*
X159890700Y-168811800D01*
G75*
G02*
X159828200Y-168749300I0J62500D01*
G01*
X159828200Y-168624300D01*
G75*
G02*
X159890700Y-168561800I62500J0D01*
G01*
G37*
G36*
G01*
X159890700Y-169061800D02*
X160590700Y-169061800D01*
G75*
G02*
X160653200Y-169124300I0J-62500D01*
G01*
X160653200Y-169249300D01*
G75*
G02*
X160590700Y-169311800I-62500J0D01*
G01*
X159890700Y-169311800D01*
G75*
G02*
X159828200Y-169249300I0J62500D01*
G01*
X159828200Y-169124300D01*
G75*
G02*
X159890700Y-169061800I62500J0D01*
G01*
G37*
G36*
G01*
X159890700Y-169561800D02*
X160590700Y-169561800D01*
G75*
G02*
X160653200Y-169624300I0J-62500D01*
G01*
X160653200Y-169749300D01*
G75*
G02*
X160590700Y-169811800I-62500J0D01*
G01*
X159890700Y-169811800D01*
G75*
G02*
X159828200Y-169749300I0J62500D01*
G01*
X159828200Y-169624300D01*
G75*
G02*
X159890700Y-169561800I62500J0D01*
G01*
G37*
G36*
G01*
X159890700Y-170061800D02*
X160590700Y-170061800D01*
G75*
G02*
X160653200Y-170124300I0J-62500D01*
G01*
X160653200Y-170249300D01*
G75*
G02*
X160590700Y-170311800I-62500J0D01*
G01*
X159890700Y-170311800D01*
G75*
G02*
X159828200Y-170249300I0J62500D01*
G01*
X159828200Y-170124300D01*
G75*
G02*
X159890700Y-170061800I62500J0D01*
G01*
G37*
G36*
G01*
X159890700Y-170561800D02*
X160590700Y-170561800D01*
G75*
G02*
X160653200Y-170624300I0J-62500D01*
G01*
X160653200Y-170749300D01*
G75*
G02*
X160590700Y-170811800I-62500J0D01*
G01*
X159890700Y-170811800D01*
G75*
G02*
X159828200Y-170749300I0J62500D01*
G01*
X159828200Y-170624300D01*
G75*
G02*
X159890700Y-170561800I62500J0D01*
G01*
G37*
G36*
G01*
X159890700Y-171061800D02*
X160590700Y-171061800D01*
G75*
G02*
X160653200Y-171124300I0J-62500D01*
G01*
X160653200Y-171249300D01*
G75*
G02*
X160590700Y-171311800I-62500J0D01*
G01*
X159890700Y-171311800D01*
G75*
G02*
X159828200Y-171249300I0J62500D01*
G01*
X159828200Y-171124300D01*
G75*
G02*
X159890700Y-171061800I62500J0D01*
G01*
G37*
G36*
G01*
X159465700Y-171486800D02*
X159590700Y-171486800D01*
G75*
G02*
X159653200Y-171549300I0J-62500D01*
G01*
X159653200Y-172249300D01*
G75*
G02*
X159590700Y-172311800I-62500J0D01*
G01*
X159465700Y-172311800D01*
G75*
G02*
X159403200Y-172249300I0J62500D01*
G01*
X159403200Y-171549300D01*
G75*
G02*
X159465700Y-171486800I62500J0D01*
G01*
G37*
G36*
G01*
X158965700Y-171486800D02*
X159090700Y-171486800D01*
G75*
G02*
X159153200Y-171549300I0J-62500D01*
G01*
X159153200Y-172249300D01*
G75*
G02*
X159090700Y-172311800I-62500J0D01*
G01*
X158965700Y-172311800D01*
G75*
G02*
X158903200Y-172249300I0J62500D01*
G01*
X158903200Y-171549300D01*
G75*
G02*
X158965700Y-171486800I62500J0D01*
G01*
G37*
G36*
G01*
X158465700Y-171486800D02*
X158590700Y-171486800D01*
G75*
G02*
X158653200Y-171549300I0J-62500D01*
G01*
X158653200Y-172249300D01*
G75*
G02*
X158590700Y-172311800I-62500J0D01*
G01*
X158465700Y-172311800D01*
G75*
G02*
X158403200Y-172249300I0J62500D01*
G01*
X158403200Y-171549300D01*
G75*
G02*
X158465700Y-171486800I62500J0D01*
G01*
G37*
G36*
G01*
X157965700Y-171486800D02*
X158090700Y-171486800D01*
G75*
G02*
X158153200Y-171549300I0J-62500D01*
G01*
X158153200Y-172249300D01*
G75*
G02*
X158090700Y-172311800I-62500J0D01*
G01*
X157965700Y-172311800D01*
G75*
G02*
X157903200Y-172249300I0J62500D01*
G01*
X157903200Y-171549300D01*
G75*
G02*
X157965700Y-171486800I62500J0D01*
G01*
G37*
G36*
G01*
X157465700Y-171486800D02*
X157590700Y-171486800D01*
G75*
G02*
X157653200Y-171549300I0J-62500D01*
G01*
X157653200Y-172249300D01*
G75*
G02*
X157590700Y-172311800I-62500J0D01*
G01*
X157465700Y-172311800D01*
G75*
G02*
X157403200Y-172249300I0J62500D01*
G01*
X157403200Y-171549300D01*
G75*
G02*
X157465700Y-171486800I62500J0D01*
G01*
G37*
G36*
G01*
X156965700Y-171486800D02*
X157090700Y-171486800D01*
G75*
G02*
X157153200Y-171549300I0J-62500D01*
G01*
X157153200Y-172249300D01*
G75*
G02*
X157090700Y-172311800I-62500J0D01*
G01*
X156965700Y-172311800D01*
G75*
G02*
X156903200Y-172249300I0J62500D01*
G01*
X156903200Y-171549300D01*
G75*
G02*
X156965700Y-171486800I62500J0D01*
G01*
G37*
G36*
G01*
X155965700Y-171061800D02*
X156665700Y-171061800D01*
G75*
G02*
X156728200Y-171124300I0J-62500D01*
G01*
X156728200Y-171249300D01*
G75*
G02*
X156665700Y-171311800I-62500J0D01*
G01*
X155965700Y-171311800D01*
G75*
G02*
X155903200Y-171249300I0J62500D01*
G01*
X155903200Y-171124300D01*
G75*
G02*
X155965700Y-171061800I62500J0D01*
G01*
G37*
G36*
G01*
X155965700Y-170561800D02*
X156665700Y-170561800D01*
G75*
G02*
X156728200Y-170624300I0J-62500D01*
G01*
X156728200Y-170749300D01*
G75*
G02*
X156665700Y-170811800I-62500J0D01*
G01*
X155965700Y-170811800D01*
G75*
G02*
X155903200Y-170749300I0J62500D01*
G01*
X155903200Y-170624300D01*
G75*
G02*
X155965700Y-170561800I62500J0D01*
G01*
G37*
G36*
G01*
X155965700Y-170061800D02*
X156665700Y-170061800D01*
G75*
G02*
X156728200Y-170124300I0J-62500D01*
G01*
X156728200Y-170249300D01*
G75*
G02*
X156665700Y-170311800I-62500J0D01*
G01*
X155965700Y-170311800D01*
G75*
G02*
X155903200Y-170249300I0J62500D01*
G01*
X155903200Y-170124300D01*
G75*
G02*
X155965700Y-170061800I62500J0D01*
G01*
G37*
G36*
G01*
X155965700Y-169561800D02*
X156665700Y-169561800D01*
G75*
G02*
X156728200Y-169624300I0J-62500D01*
G01*
X156728200Y-169749300D01*
G75*
G02*
X156665700Y-169811800I-62500J0D01*
G01*
X155965700Y-169811800D01*
G75*
G02*
X155903200Y-169749300I0J62500D01*
G01*
X155903200Y-169624300D01*
G75*
G02*
X155965700Y-169561800I62500J0D01*
G01*
G37*
G36*
G01*
X155965700Y-169061800D02*
X156665700Y-169061800D01*
G75*
G02*
X156728200Y-169124300I0J-62500D01*
G01*
X156728200Y-169249300D01*
G75*
G02*
X156665700Y-169311800I-62500J0D01*
G01*
X155965700Y-169311800D01*
G75*
G02*
X155903200Y-169249300I0J62500D01*
G01*
X155903200Y-169124300D01*
G75*
G02*
X155965700Y-169061800I62500J0D01*
G01*
G37*
G36*
G01*
X155965700Y-168561800D02*
X156665700Y-168561800D01*
G75*
G02*
X156728200Y-168624300I0J-62500D01*
G01*
X156728200Y-168749300D01*
G75*
G02*
X156665700Y-168811800I-62500J0D01*
G01*
X155965700Y-168811800D01*
G75*
G02*
X155903200Y-168749300I0J62500D01*
G01*
X155903200Y-168624300D01*
G75*
G02*
X155965700Y-168561800I62500J0D01*
G01*
G37*
G36*
G01*
X156965700Y-167561800D02*
X157090700Y-167561800D01*
G75*
G02*
X157153200Y-167624300I0J-62500D01*
G01*
X157153200Y-168324300D01*
G75*
G02*
X157090700Y-168386800I-62500J0D01*
G01*
X156965700Y-168386800D01*
G75*
G02*
X156903200Y-168324300I0J62500D01*
G01*
X156903200Y-167624300D01*
G75*
G02*
X156965700Y-167561800I62500J0D01*
G01*
G37*
G36*
G01*
X157465700Y-167561800D02*
X157590700Y-167561800D01*
G75*
G02*
X157653200Y-167624300I0J-62500D01*
G01*
X157653200Y-168324300D01*
G75*
G02*
X157590700Y-168386800I-62500J0D01*
G01*
X157465700Y-168386800D01*
G75*
G02*
X157403200Y-168324300I0J62500D01*
G01*
X157403200Y-167624300D01*
G75*
G02*
X157465700Y-167561800I62500J0D01*
G01*
G37*
G36*
G01*
X157965700Y-167561800D02*
X158090700Y-167561800D01*
G75*
G02*
X158153200Y-167624300I0J-62500D01*
G01*
X158153200Y-168324300D01*
G75*
G02*
X158090700Y-168386800I-62500J0D01*
G01*
X157965700Y-168386800D01*
G75*
G02*
X157903200Y-168324300I0J62500D01*
G01*
X157903200Y-167624300D01*
G75*
G02*
X157965700Y-167561800I62500J0D01*
G01*
G37*
G36*
G01*
X158465700Y-167561800D02*
X158590700Y-167561800D01*
G75*
G02*
X158653200Y-167624300I0J-62500D01*
G01*
X158653200Y-168324300D01*
G75*
G02*
X158590700Y-168386800I-62500J0D01*
G01*
X158465700Y-168386800D01*
G75*
G02*
X158403200Y-168324300I0J62500D01*
G01*
X158403200Y-167624300D01*
G75*
G02*
X158465700Y-167561800I62500J0D01*
G01*
G37*
G36*
G01*
X158965700Y-167561800D02*
X159090700Y-167561800D01*
G75*
G02*
X159153200Y-167624300I0J-62500D01*
G01*
X159153200Y-168324300D01*
G75*
G02*
X159090700Y-168386800I-62500J0D01*
G01*
X158965700Y-168386800D01*
G75*
G02*
X158903200Y-168324300I0J62500D01*
G01*
X158903200Y-167624300D01*
G75*
G02*
X158965700Y-167561800I62500J0D01*
G01*
G37*
G36*
G01*
X159465700Y-167561800D02*
X159590700Y-167561800D01*
G75*
G02*
X159653200Y-167624300I0J-62500D01*
G01*
X159653200Y-168324300D01*
G75*
G02*
X159590700Y-168386800I-62500J0D01*
G01*
X159465700Y-168386800D01*
G75*
G02*
X159403200Y-168324300I0J62500D01*
G01*
X159403200Y-167624300D01*
G75*
G02*
X159465700Y-167561800I62500J0D01*
G01*
G37*
D25*
X204059579Y-180858517D03*
D26*
X204059579Y-184358517D03*
D24*
X160274000Y-151638000D03*
G36*
G01*
X159144000Y-153320500D02*
X159144000Y-153780500D01*
G75*
G02*
X159084000Y-153840500I-60000J0D01*
G01*
X158964000Y-153840500D01*
G75*
G02*
X158904000Y-153780500I0J60000D01*
G01*
X158904000Y-153320500D01*
G75*
G02*
X158964000Y-153260500I60000J0D01*
G01*
X159084000Y-153260500D01*
G75*
G02*
X159144000Y-153320500I0J-60000D01*
G01*
G37*
G36*
G01*
X158651500Y-150328000D02*
X158651500Y-150448000D01*
G75*
G02*
X158591500Y-150508000I-60000J0D01*
G01*
X158131500Y-150508000D01*
G75*
G02*
X158071500Y-150448000I0J60000D01*
G01*
X158071500Y-150328000D01*
G75*
G02*
X158131500Y-150268000I60000J0D01*
G01*
X158591500Y-150268000D01*
G75*
G02*
X158651500Y-150328000I0J-60000D01*
G01*
G37*
G36*
G01*
X161644000Y-149495500D02*
X161644000Y-149955500D01*
G75*
G02*
X161584000Y-150015500I-60000J0D01*
G01*
X161464000Y-150015500D01*
G75*
G02*
X161404000Y-149955500I0J60000D01*
G01*
X161404000Y-149495500D01*
G75*
G02*
X161464000Y-149435500I60000J0D01*
G01*
X161584000Y-149435500D01*
G75*
G02*
X161644000Y-149495500I0J-60000D01*
G01*
G37*
G36*
G01*
X162476500Y-152828000D02*
X162476500Y-152948000D01*
G75*
G02*
X162416500Y-153008000I-60000J0D01*
G01*
X161956500Y-153008000D01*
G75*
G02*
X161896500Y-152948000I0J60000D01*
G01*
X161896500Y-152828000D01*
G75*
G02*
X161956500Y-152768000I60000J0D01*
G01*
X162416500Y-152768000D01*
G75*
G02*
X162476500Y-152828000I0J-60000D01*
G01*
G37*
G36*
G01*
X162476500Y-152328000D02*
X162476500Y-152448000D01*
G75*
G02*
X162416500Y-152508000I-60000J0D01*
G01*
X161956500Y-152508000D01*
G75*
G02*
X161896500Y-152448000I0J60000D01*
G01*
X161896500Y-152328000D01*
G75*
G02*
X161956500Y-152268000I60000J0D01*
G01*
X162416500Y-152268000D01*
G75*
G02*
X162476500Y-152328000I0J-60000D01*
G01*
G37*
G36*
G01*
X162476500Y-151828000D02*
X162476500Y-151948000D01*
G75*
G02*
X162416500Y-152008000I-60000J0D01*
G01*
X161956500Y-152008000D01*
G75*
G02*
X161896500Y-151948000I0J60000D01*
G01*
X161896500Y-151828000D01*
G75*
G02*
X161956500Y-151768000I60000J0D01*
G01*
X162416500Y-151768000D01*
G75*
G02*
X162476500Y-151828000I0J-60000D01*
G01*
G37*
G36*
G01*
X162476500Y-151328000D02*
X162476500Y-151448000D01*
G75*
G02*
X162416500Y-151508000I-60000J0D01*
G01*
X161956500Y-151508000D01*
G75*
G02*
X161896500Y-151448000I0J60000D01*
G01*
X161896500Y-151328000D01*
G75*
G02*
X161956500Y-151268000I60000J0D01*
G01*
X162416500Y-151268000D01*
G75*
G02*
X162476500Y-151328000I0J-60000D01*
G01*
G37*
G36*
G01*
X162476500Y-150828000D02*
X162476500Y-150948000D01*
G75*
G02*
X162416500Y-151008000I-60000J0D01*
G01*
X161956500Y-151008000D01*
G75*
G02*
X161896500Y-150948000I0J60000D01*
G01*
X161896500Y-150828000D01*
G75*
G02*
X161956500Y-150768000I60000J0D01*
G01*
X162416500Y-150768000D01*
G75*
G02*
X162476500Y-150828000I0J-60000D01*
G01*
G37*
G36*
G01*
X162476500Y-150328000D02*
X162476500Y-150448000D01*
G75*
G02*
X162416500Y-150508000I-60000J0D01*
G01*
X161956500Y-150508000D01*
G75*
G02*
X161896500Y-150448000I0J60000D01*
G01*
X161896500Y-150328000D01*
G75*
G02*
X161956500Y-150268000I60000J0D01*
G01*
X162416500Y-150268000D01*
G75*
G02*
X162476500Y-150328000I0J-60000D01*
G01*
G37*
G36*
G01*
X158651500Y-150828000D02*
X158651500Y-150948000D01*
G75*
G02*
X158591500Y-151008000I-60000J0D01*
G01*
X158131500Y-151008000D01*
G75*
G02*
X158071500Y-150948000I0J60000D01*
G01*
X158071500Y-150828000D01*
G75*
G02*
X158131500Y-150768000I60000J0D01*
G01*
X158591500Y-150768000D01*
G75*
G02*
X158651500Y-150828000I0J-60000D01*
G01*
G37*
G36*
G01*
X158651500Y-151328000D02*
X158651500Y-151448000D01*
G75*
G02*
X158591500Y-151508000I-60000J0D01*
G01*
X158131500Y-151508000D01*
G75*
G02*
X158071500Y-151448000I0J60000D01*
G01*
X158071500Y-151328000D01*
G75*
G02*
X158131500Y-151268000I60000J0D01*
G01*
X158591500Y-151268000D01*
G75*
G02*
X158651500Y-151328000I0J-60000D01*
G01*
G37*
G36*
G01*
X158651500Y-151828000D02*
X158651500Y-151948000D01*
G75*
G02*
X158591500Y-152008000I-60000J0D01*
G01*
X158131500Y-152008000D01*
G75*
G02*
X158071500Y-151948000I0J60000D01*
G01*
X158071500Y-151828000D01*
G75*
G02*
X158131500Y-151768000I60000J0D01*
G01*
X158591500Y-151768000D01*
G75*
G02*
X158651500Y-151828000I0J-60000D01*
G01*
G37*
G36*
G01*
X158651500Y-152328000D02*
X158651500Y-152448000D01*
G75*
G02*
X158591500Y-152508000I-60000J0D01*
G01*
X158131500Y-152508000D01*
G75*
G02*
X158071500Y-152448000I0J60000D01*
G01*
X158071500Y-152328000D01*
G75*
G02*
X158131500Y-152268000I60000J0D01*
G01*
X158591500Y-152268000D01*
G75*
G02*
X158651500Y-152328000I0J-60000D01*
G01*
G37*
G36*
G01*
X158651500Y-152828000D02*
X158651500Y-152948000D01*
G75*
G02*
X158591500Y-153008000I-60000J0D01*
G01*
X158131500Y-153008000D01*
G75*
G02*
X158071500Y-152948000I0J60000D01*
G01*
X158071500Y-152828000D01*
G75*
G02*
X158131500Y-152768000I60000J0D01*
G01*
X158591500Y-152768000D01*
G75*
G02*
X158651500Y-152828000I0J-60000D01*
G01*
G37*
G36*
G01*
X159644000Y-153320500D02*
X159644000Y-153780500D01*
G75*
G02*
X159584000Y-153840500I-60000J0D01*
G01*
X159464000Y-153840500D01*
G75*
G02*
X159404000Y-153780500I0J60000D01*
G01*
X159404000Y-153320500D01*
G75*
G02*
X159464000Y-153260500I60000J0D01*
G01*
X159584000Y-153260500D01*
G75*
G02*
X159644000Y-153320500I0J-60000D01*
G01*
G37*
G36*
G01*
X160144000Y-153320500D02*
X160144000Y-153780500D01*
G75*
G02*
X160084000Y-153840500I-60000J0D01*
G01*
X159964000Y-153840500D01*
G75*
G02*
X159904000Y-153780500I0J60000D01*
G01*
X159904000Y-153320500D01*
G75*
G02*
X159964000Y-153260500I60000J0D01*
G01*
X160084000Y-153260500D01*
G75*
G02*
X160144000Y-153320500I0J-60000D01*
G01*
G37*
G36*
G01*
X160644000Y-153320500D02*
X160644000Y-153780500D01*
G75*
G02*
X160584000Y-153840500I-60000J0D01*
G01*
X160464000Y-153840500D01*
G75*
G02*
X160404000Y-153780500I0J60000D01*
G01*
X160404000Y-153320500D01*
G75*
G02*
X160464000Y-153260500I60000J0D01*
G01*
X160584000Y-153260500D01*
G75*
G02*
X160644000Y-153320500I0J-60000D01*
G01*
G37*
G36*
G01*
X161144000Y-153320500D02*
X161144000Y-153780500D01*
G75*
G02*
X161084000Y-153840500I-60000J0D01*
G01*
X160964000Y-153840500D01*
G75*
G02*
X160904000Y-153780500I0J60000D01*
G01*
X160904000Y-153320500D01*
G75*
G02*
X160964000Y-153260500I60000J0D01*
G01*
X161084000Y-153260500D01*
G75*
G02*
X161144000Y-153320500I0J-60000D01*
G01*
G37*
G36*
G01*
X161644000Y-153320500D02*
X161644000Y-153780500D01*
G75*
G02*
X161584000Y-153840500I-60000J0D01*
G01*
X161464000Y-153840500D01*
G75*
G02*
X161404000Y-153780500I0J60000D01*
G01*
X161404000Y-153320500D01*
G75*
G02*
X161464000Y-153260500I60000J0D01*
G01*
X161584000Y-153260500D01*
G75*
G02*
X161644000Y-153320500I0J-60000D01*
G01*
G37*
G36*
G01*
X161144000Y-149495500D02*
X161144000Y-149955500D01*
G75*
G02*
X161084000Y-150015500I-60000J0D01*
G01*
X160964000Y-150015500D01*
G75*
G02*
X160904000Y-149955500I0J60000D01*
G01*
X160904000Y-149495500D01*
G75*
G02*
X160964000Y-149435500I60000J0D01*
G01*
X161084000Y-149435500D01*
G75*
G02*
X161144000Y-149495500I0J-60000D01*
G01*
G37*
G36*
G01*
X160644000Y-149495500D02*
X160644000Y-149955500D01*
G75*
G02*
X160584000Y-150015500I-60000J0D01*
G01*
X160464000Y-150015500D01*
G75*
G02*
X160404000Y-149955500I0J60000D01*
G01*
X160404000Y-149495500D01*
G75*
G02*
X160464000Y-149435500I60000J0D01*
G01*
X160584000Y-149435500D01*
G75*
G02*
X160644000Y-149495500I0J-60000D01*
G01*
G37*
G36*
G01*
X160144000Y-149495500D02*
X160144000Y-149955500D01*
G75*
G02*
X160084000Y-150015500I-60000J0D01*
G01*
X159964000Y-150015500D01*
G75*
G02*
X159904000Y-149955500I0J60000D01*
G01*
X159904000Y-149495500D01*
G75*
G02*
X159964000Y-149435500I60000J0D01*
G01*
X160084000Y-149435500D01*
G75*
G02*
X160144000Y-149495500I0J-60000D01*
G01*
G37*
G36*
G01*
X159644000Y-149495500D02*
X159644000Y-149955500D01*
G75*
G02*
X159584000Y-150015500I-60000J0D01*
G01*
X159464000Y-150015500D01*
G75*
G02*
X159404000Y-149955500I0J60000D01*
G01*
X159404000Y-149495500D01*
G75*
G02*
X159464000Y-149435500I60000J0D01*
G01*
X159584000Y-149435500D01*
G75*
G02*
X159644000Y-149495500I0J-60000D01*
G01*
G37*
G36*
G01*
X159144000Y-149495500D02*
X159144000Y-149955500D01*
G75*
G02*
X159084000Y-150015500I-60000J0D01*
G01*
X158964000Y-150015500D01*
G75*
G02*
X158904000Y-149955500I0J60000D01*
G01*
X158904000Y-149495500D01*
G75*
G02*
X158964000Y-149435500I60000J0D01*
G01*
X159084000Y-149435500D01*
G75*
G02*
X159144000Y-149495500I0J-60000D01*
G01*
G37*
D27*
G36*
X133940974Y-163238508D02*
G01*
X134342791Y-164208582D01*
X132310256Y-165050486D01*
X131908439Y-164080412D01*
X133940974Y-163238508D01*
G37*
G36*
X134263769Y-161535333D02*
G01*
X134646452Y-162459213D01*
X133676379Y-162861031D01*
X133293696Y-161937151D01*
X134263769Y-161535333D01*
G37*
G36*
X132812058Y-160513063D02*
G01*
X133213875Y-161483137D01*
X131181340Y-162325041D01*
X130779523Y-161354967D01*
X132812058Y-160513063D01*
G37*
G36*
X138724007Y-166839389D02*
G01*
X139006850Y-167122232D01*
X138547231Y-167581851D01*
X138264388Y-167299008D01*
X138724007Y-166839389D01*
G37*
G36*
X137804768Y-165920150D02*
G01*
X138087611Y-166202993D01*
X137627992Y-166662612D01*
X137345149Y-166379769D01*
X137804768Y-165920150D01*
G37*
G36*
X139607890Y-165036267D02*
G01*
X139890733Y-165319110D01*
X139431114Y-165778729D01*
X139148271Y-165495886D01*
X139607890Y-165036267D01*
G37*
G36*
X138264388Y-166379769D02*
G01*
X138547231Y-166662612D01*
X138087612Y-167122231D01*
X137804769Y-166839388D01*
X138264388Y-166379769D01*
G37*
G36*
X139148271Y-164576647D02*
G01*
X139431114Y-164859490D01*
X138971495Y-165319109D01*
X138688652Y-165036266D01*
X139148271Y-164576647D01*
G37*
G36*
X140067510Y-165495886D02*
G01*
X140350353Y-165778729D01*
X139890734Y-166238348D01*
X139607891Y-165955505D01*
X140067510Y-165495886D01*
G37*
D28*
X166674800Y-164313800D03*
X166024800Y-164313800D03*
D29*
X165374800Y-164513800D03*
X164724800Y-164513800D03*
X164724800Y-161013800D03*
D28*
X165374800Y-161213800D03*
D29*
X166024800Y-161013800D03*
X166674800Y-161013800D03*
D30*
X165699800Y-162763800D03*
D31*
X165074800Y-163213800D03*
X165074800Y-162313800D03*
X166324800Y-163213800D03*
X166324800Y-162313800D03*
D29*
X166674800Y-164513800D03*
X166024800Y-164513800D03*
D28*
X165374800Y-164313800D03*
X164724800Y-164313800D03*
X164724800Y-161213800D03*
D29*
X165374800Y-161013800D03*
D28*
X166024800Y-161213800D03*
X166674800Y-161213800D03*
D32*
X148208400Y-152511400D03*
X148208400Y-151861400D03*
D33*
X148008400Y-151211400D03*
X148008400Y-150561400D03*
X151508400Y-150561400D03*
D32*
X151308400Y-151211400D03*
D33*
X151508400Y-151861400D03*
X151508400Y-152511400D03*
D34*
X149758400Y-151536400D03*
D35*
X149308400Y-150911400D03*
X150208400Y-150911400D03*
X149308400Y-152161400D03*
X150208400Y-152161400D03*
D33*
X148008400Y-152511400D03*
X148008400Y-151861400D03*
D32*
X148208400Y-151211400D03*
X148208400Y-150561400D03*
X151308400Y-150561400D03*
D33*
X151508400Y-151211400D03*
D32*
X151308400Y-151861400D03*
X151308400Y-152511400D03*
D36*
X210409579Y-178643517D03*
D37*
X211334579Y-177643517D03*
X211334579Y-178143517D03*
X211334579Y-178643517D03*
X211334579Y-179143517D03*
X211334579Y-179643517D03*
X209484579Y-179643517D03*
X209484579Y-179143517D03*
X209484579Y-178643517D03*
X209484579Y-178143517D03*
X209484579Y-177643517D03*
D38*
X195255000Y-92335000D03*
D39*
X196705000Y-91585000D03*
X196705000Y-92085000D03*
X196705000Y-92585000D03*
X196705000Y-93085000D03*
X193805000Y-93085000D03*
X193805000Y-92585000D03*
X193805000Y-92085000D03*
X193805000Y-91585000D03*
D13*
X128079500Y-141922500D03*
X141566900Y-106959400D03*
X171094400Y-124206000D03*
X174142400Y-119710200D03*
X129095500Y-153035000D03*
X195707000Y-163830000D03*
X211963000Y-155321000D03*
X157403800Y-178485800D03*
X192557400Y-155371800D03*
X197358000Y-191236600D03*
X216000000Y-183500000D03*
X199999600Y-159689800D03*
X200660000Y-147472400D03*
X217678000Y-176720500D03*
X207645000Y-155321000D03*
X225171000Y-159321500D03*
X218414600Y-162153600D03*
X176326800Y-113055400D03*
X226758500Y-113728500D03*
X231013000Y-121475500D03*
X190246000Y-91694000D03*
X216789000Y-108839000D03*
X176479200Y-107238800D03*
X179146200Y-120294400D03*
X176072800Y-103022400D03*
X177800000Y-94615000D03*
X177800000Y-90805000D03*
X204152500Y-157734000D03*
X169367200Y-127914400D03*
X183896000Y-120396000D03*
X216204800Y-140766800D03*
X224612200Y-110109000D03*
X181610000Y-114300000D03*
D40*
X203009500Y-160219500D03*
X207159500Y-160219500D03*
X203009500Y-162369500D03*
X207159500Y-162369500D03*
D41*
X231838500Y-144361000D03*
X231838500Y-145161000D03*
X230138500Y-145161000D03*
X230138500Y-144361000D03*
X220789500Y-165836500D03*
X220789500Y-165036500D03*
X222489500Y-165036500D03*
X222489500Y-165836500D03*
X164654600Y-158604000D03*
X164654600Y-159404000D03*
X162954600Y-159404000D03*
X162954600Y-158604000D03*
X139446000Y-139408000D03*
X139446000Y-140208000D03*
X137746000Y-140208000D03*
X137746000Y-139408000D03*
X144257500Y-139471500D03*
X144257500Y-140271500D03*
X142557500Y-140271500D03*
X142557500Y-139471500D03*
X139483200Y-136302800D03*
X139483200Y-137102800D03*
X137783200Y-137102800D03*
X137783200Y-136302800D03*
X144258400Y-136353600D03*
X144258400Y-137153600D03*
X142558400Y-137153600D03*
X142558400Y-136353600D03*
D42*
X195472000Y-96354000D03*
X194672000Y-96354000D03*
X194672000Y-94654000D03*
X195472000Y-94654000D03*
D41*
X186348000Y-94634000D03*
X186348000Y-93834000D03*
X188048000Y-93834000D03*
X188048000Y-94634000D03*
G36*
G01*
X195193498Y-159173500D02*
X196093502Y-159173500D01*
G75*
G02*
X196343500Y-159423498I0J-249998D01*
G01*
X196343500Y-159948502D01*
G75*
G02*
X196093502Y-160198500I-249998J0D01*
G01*
X195193498Y-160198500D01*
G75*
G02*
X194943500Y-159948502I0J249998D01*
G01*
X194943500Y-159423498D01*
G75*
G02*
X195193498Y-159173500I249998J0D01*
G01*
G37*
G36*
G01*
X195193498Y-157348500D02*
X196093502Y-157348500D01*
G75*
G02*
X196343500Y-157598498I0J-249998D01*
G01*
X196343500Y-158123502D01*
G75*
G02*
X196093502Y-158373500I-249998J0D01*
G01*
X195193498Y-158373500D01*
G75*
G02*
X194943500Y-158123502I0J249998D01*
G01*
X194943500Y-157598498D01*
G75*
G02*
X195193498Y-157348500I249998J0D01*
G01*
G37*
G36*
G01*
X230080398Y-131895800D02*
X230980402Y-131895800D01*
G75*
G02*
X231230400Y-132145798I0J-249998D01*
G01*
X231230400Y-132670802D01*
G75*
G02*
X230980402Y-132920800I-249998J0D01*
G01*
X230080398Y-132920800D01*
G75*
G02*
X229830400Y-132670802I0J249998D01*
G01*
X229830400Y-132145798D01*
G75*
G02*
X230080398Y-131895800I249998J0D01*
G01*
G37*
G36*
G01*
X230080398Y-130070800D02*
X230980402Y-130070800D01*
G75*
G02*
X231230400Y-130320798I0J-249998D01*
G01*
X231230400Y-130845802D01*
G75*
G02*
X230980402Y-131095800I-249998J0D01*
G01*
X230080398Y-131095800D01*
G75*
G02*
X229830400Y-130845802I0J249998D01*
G01*
X229830400Y-130320798D01*
G75*
G02*
X230080398Y-130070800I249998J0D01*
G01*
G37*
G36*
G01*
X219983000Y-156253602D02*
X219983000Y-155353598D01*
G75*
G02*
X220232998Y-155103600I249998J0D01*
G01*
X220758002Y-155103600D01*
G75*
G02*
X221008000Y-155353598I0J-249998D01*
G01*
X221008000Y-156253602D01*
G75*
G02*
X220758002Y-156503600I-249998J0D01*
G01*
X220232998Y-156503600D01*
G75*
G02*
X219983000Y-156253602I0J249998D01*
G01*
G37*
G36*
G01*
X218158000Y-156253602D02*
X218158000Y-155353598D01*
G75*
G02*
X218407998Y-155103600I249998J0D01*
G01*
X218933002Y-155103600D01*
G75*
G02*
X219183000Y-155353598I0J-249998D01*
G01*
X219183000Y-156253602D01*
G75*
G02*
X218933002Y-156503600I-249998J0D01*
G01*
X218407998Y-156503600D01*
G75*
G02*
X218158000Y-156253602I0J249998D01*
G01*
G37*
G36*
G01*
X159607200Y-182644202D02*
X159607200Y-181744198D01*
G75*
G02*
X159857198Y-181494200I249998J0D01*
G01*
X160382202Y-181494200D01*
G75*
G02*
X160632200Y-181744198I0J-249998D01*
G01*
X160632200Y-182644202D01*
G75*
G02*
X160382202Y-182894200I-249998J0D01*
G01*
X159857198Y-182894200D01*
G75*
G02*
X159607200Y-182644202I0J249998D01*
G01*
G37*
G36*
G01*
X157782200Y-182644202D02*
X157782200Y-181744198D01*
G75*
G02*
X158032198Y-181494200I249998J0D01*
G01*
X158557202Y-181494200D01*
G75*
G02*
X158807200Y-181744198I0J-249998D01*
G01*
X158807200Y-182644202D01*
G75*
G02*
X158557202Y-182894200I-249998J0D01*
G01*
X158032198Y-182894200D01*
G75*
G02*
X157782200Y-182644202I0J249998D01*
G01*
G37*
G36*
G01*
X163330200Y-183596702D02*
X163330200Y-182696698D01*
G75*
G02*
X163580198Y-182446700I249998J0D01*
G01*
X164105202Y-182446700D01*
G75*
G02*
X164355200Y-182696698I0J-249998D01*
G01*
X164355200Y-183596702D01*
G75*
G02*
X164105202Y-183846700I-249998J0D01*
G01*
X163580198Y-183846700D01*
G75*
G02*
X163330200Y-183596702I0J249998D01*
G01*
G37*
G36*
G01*
X161505200Y-183596702D02*
X161505200Y-182696698D01*
G75*
G02*
X161755198Y-182446700I249998J0D01*
G01*
X162280202Y-182446700D01*
G75*
G02*
X162530200Y-182696698I0J-249998D01*
G01*
X162530200Y-183596702D01*
G75*
G02*
X162280202Y-183846700I-249998J0D01*
G01*
X161755198Y-183846700D01*
G75*
G02*
X161505200Y-183596702I0J249998D01*
G01*
G37*
G36*
G01*
X205125900Y-165143602D02*
X205125900Y-164243598D01*
G75*
G02*
X205375898Y-163993600I249998J0D01*
G01*
X205900902Y-163993600D01*
G75*
G02*
X206150900Y-164243598I0J-249998D01*
G01*
X206150900Y-165143602D01*
G75*
G02*
X205900902Y-165393600I-249998J0D01*
G01*
X205375898Y-165393600D01*
G75*
G02*
X205125900Y-165143602I0J249998D01*
G01*
G37*
G36*
G01*
X203300900Y-165143602D02*
X203300900Y-164243598D01*
G75*
G02*
X203550898Y-163993600I249998J0D01*
G01*
X204075902Y-163993600D01*
G75*
G02*
X204325900Y-164243598I0J-249998D01*
G01*
X204325900Y-165143602D01*
G75*
G02*
X204075902Y-165393600I-249998J0D01*
G01*
X203550898Y-165393600D01*
G75*
G02*
X203300900Y-165143602I0J249998D01*
G01*
G37*
G36*
G01*
X212510581Y-183300017D02*
X211610577Y-183300017D01*
G75*
G02*
X211360579Y-183050019I0J249998D01*
G01*
X211360579Y-182525015D01*
G75*
G02*
X211610577Y-182275017I249998J0D01*
G01*
X212510581Y-182275017D01*
G75*
G02*
X212760579Y-182525015I0J-249998D01*
G01*
X212760579Y-183050019D01*
G75*
G02*
X212510581Y-183300017I-249998J0D01*
G01*
G37*
G36*
G01*
X212510581Y-185125017D02*
X211610577Y-185125017D01*
G75*
G02*
X211360579Y-184875019I0J249998D01*
G01*
X211360579Y-184350015D01*
G75*
G02*
X211610577Y-184100017I249998J0D01*
G01*
X212510581Y-184100017D01*
G75*
G02*
X212760579Y-184350015I0J-249998D01*
G01*
X212760579Y-184875019D01*
G75*
G02*
X212510581Y-185125017I-249998J0D01*
G01*
G37*
G36*
G01*
X221239935Y-176772474D02*
X220603536Y-177408873D01*
G75*
G02*
X220249986Y-177408873I-176775J176775D01*
G01*
X219878753Y-177037640D01*
G75*
G02*
X219878753Y-176684090I176775J176775D01*
G01*
X220515152Y-176047691D01*
G75*
G02*
X220868702Y-176047691I176775J-176775D01*
G01*
X221239935Y-176418924D01*
G75*
G02*
X221239935Y-176772474I-176775J-176775D01*
G01*
G37*
G36*
G01*
X222530405Y-178062944D02*
X221894006Y-178699343D01*
G75*
G02*
X221540456Y-178699343I-176775J176775D01*
G01*
X221169223Y-178328110D01*
G75*
G02*
X221169223Y-177974560I176775J176775D01*
G01*
X221805622Y-177338161D01*
G75*
G02*
X222159172Y-177338161I176775J-176775D01*
G01*
X222530405Y-177709394D01*
G75*
G02*
X222530405Y-178062944I-176775J-176775D01*
G01*
G37*
G36*
G01*
X209324577Y-184123517D02*
X210224581Y-184123517D01*
G75*
G02*
X210474579Y-184373515I0J-249998D01*
G01*
X210474579Y-184898519D01*
G75*
G02*
X210224581Y-185148517I-249998J0D01*
G01*
X209324577Y-185148517D01*
G75*
G02*
X209074579Y-184898519I0J249998D01*
G01*
X209074579Y-184373515D01*
G75*
G02*
X209324577Y-184123517I249998J0D01*
G01*
G37*
G36*
G01*
X209324577Y-182298517D02*
X210224581Y-182298517D01*
G75*
G02*
X210474579Y-182548515I0J-249998D01*
G01*
X210474579Y-183073519D01*
G75*
G02*
X210224581Y-183323517I-249998J0D01*
G01*
X209324577Y-183323517D01*
G75*
G02*
X209074579Y-183073519I0J249998D01*
G01*
X209074579Y-182548515D01*
G75*
G02*
X209324577Y-182298517I249998J0D01*
G01*
G37*
G36*
G01*
X214600000Y-180049998D02*
X214600000Y-180950002D01*
G75*
G02*
X214350002Y-181200000I-249998J0D01*
G01*
X213824998Y-181200000D01*
G75*
G02*
X213575000Y-180950002I0J249998D01*
G01*
X213575000Y-180049998D01*
G75*
G02*
X213824998Y-179800000I249998J0D01*
G01*
X214350002Y-179800000D01*
G75*
G02*
X214600000Y-180049998I0J-249998D01*
G01*
G37*
G36*
G01*
X216425000Y-180049998D02*
X216425000Y-180950002D01*
G75*
G02*
X216175002Y-181200000I-249998J0D01*
G01*
X215649998Y-181200000D01*
G75*
G02*
X215400000Y-180950002I0J249998D01*
G01*
X215400000Y-180049998D01*
G75*
G02*
X215649998Y-179800000I249998J0D01*
G01*
X216175002Y-179800000D01*
G75*
G02*
X216425000Y-180049998I0J-249998D01*
G01*
G37*
G36*
G01*
X204273998Y-94530500D02*
X205174002Y-94530500D01*
G75*
G02*
X205424000Y-94780498I0J-249998D01*
G01*
X205424000Y-95305502D01*
G75*
G02*
X205174002Y-95555500I-249998J0D01*
G01*
X204273998Y-95555500D01*
G75*
G02*
X204024000Y-95305502I0J249998D01*
G01*
X204024000Y-94780498D01*
G75*
G02*
X204273998Y-94530500I249998J0D01*
G01*
G37*
G36*
G01*
X204273998Y-92705500D02*
X205174002Y-92705500D01*
G75*
G02*
X205424000Y-92955498I0J-249998D01*
G01*
X205424000Y-93480502D01*
G75*
G02*
X205174002Y-93730500I-249998J0D01*
G01*
X204273998Y-93730500D01*
G75*
G02*
X204024000Y-93480502I0J249998D01*
G01*
X204024000Y-92955498D01*
G75*
G02*
X204273998Y-92705500I249998J0D01*
G01*
G37*
G36*
G01*
X182175200Y-110446398D02*
X182175200Y-111346402D01*
G75*
G02*
X181925202Y-111596400I-249998J0D01*
G01*
X181400198Y-111596400D01*
G75*
G02*
X181150200Y-111346402I0J249998D01*
G01*
X181150200Y-110446398D01*
G75*
G02*
X181400198Y-110196400I249998J0D01*
G01*
X181925202Y-110196400D01*
G75*
G02*
X182175200Y-110446398I0J-249998D01*
G01*
G37*
G36*
G01*
X184000200Y-110446398D02*
X184000200Y-111346402D01*
G75*
G02*
X183750202Y-111596400I-249998J0D01*
G01*
X183225198Y-111596400D01*
G75*
G02*
X182975200Y-111346402I0J249998D01*
G01*
X182975200Y-110446398D01*
G75*
G02*
X183225198Y-110196400I249998J0D01*
G01*
X183750202Y-110196400D01*
G75*
G02*
X184000200Y-110446398I0J-249998D01*
G01*
G37*
D43*
X191595500Y-158750000D03*
X193595500Y-157800000D03*
X193595500Y-159700000D03*
X222805500Y-159067500D03*
X220805500Y-160017500D03*
X220805500Y-158117500D03*
D23*
X159334200Y-185937400D03*
X158384200Y-183937400D03*
X160284200Y-183937400D03*
X162956200Y-187115200D03*
X162006200Y-185115200D03*
X163906200Y-185115200D03*
X204685900Y-168567100D03*
X203735900Y-166567100D03*
X205635900Y-166567100D03*
D43*
X199500000Y-92776000D03*
X201500000Y-91826000D03*
X201500000Y-93726000D03*
D23*
X182626000Y-106950000D03*
X183576000Y-108950000D03*
X181676000Y-108950000D03*
D27*
G36*
X219299579Y-181609177D02*
G01*
X218910670Y-181998086D01*
X218910244Y-181997660D01*
X218892896Y-182015009D01*
X218854966Y-182046136D01*
X218814168Y-182073397D01*
X218770894Y-182096527D01*
X218725562Y-182115305D01*
X218678607Y-182129548D01*
X218630482Y-182139121D01*
X218581651Y-182143930D01*
X218532582Y-182143930D01*
X218483752Y-182139121D01*
X218435627Y-182129548D01*
X218388672Y-182115305D01*
X218343339Y-182096527D01*
X218300065Y-182073397D01*
X218259267Y-182046136D01*
X218221337Y-182015009D01*
X218203989Y-181997660D01*
X218203563Y-181998086D01*
X217850010Y-181644533D01*
X217850436Y-181644107D01*
X217833087Y-181626759D01*
X217801960Y-181588829D01*
X217774699Y-181548031D01*
X217751569Y-181504757D01*
X217732791Y-181459424D01*
X217718548Y-181412469D01*
X217708975Y-181364344D01*
X217704166Y-181315514D01*
X217704166Y-181266445D01*
X217708975Y-181217614D01*
X217718548Y-181169489D01*
X217732791Y-181122534D01*
X217751569Y-181077202D01*
X217774699Y-181033928D01*
X217801960Y-180993130D01*
X217833087Y-180955200D01*
X217850436Y-180937852D01*
X217850010Y-180937426D01*
X218238919Y-180548517D01*
X219299579Y-181609177D01*
G37*
G36*
X219476356Y-181432400D02*
G01*
X218415696Y-180371740D01*
X219122802Y-179664634D01*
X220183462Y-180725294D01*
X219476356Y-181432400D01*
G37*
G36*
X219688914Y-179099374D02*
G01*
X219706262Y-179082025D01*
X219744192Y-179050898D01*
X219784990Y-179023637D01*
X219828264Y-179000507D01*
X219873596Y-178981729D01*
X219920551Y-178967486D01*
X219968676Y-178957913D01*
X220017507Y-178953104D01*
X220066576Y-178953104D01*
X220115406Y-178957913D01*
X220163531Y-178967486D01*
X220210486Y-178981729D01*
X220255819Y-179000507D01*
X220299093Y-179023637D01*
X220339891Y-179050898D01*
X220377821Y-179082025D01*
X220395169Y-179099374D01*
X220395595Y-179098948D01*
X220749148Y-179452501D01*
X220748722Y-179452927D01*
X220766071Y-179470275D01*
X220797198Y-179508205D01*
X220824459Y-179549003D01*
X220847589Y-179592277D01*
X220866367Y-179637610D01*
X220880610Y-179684565D01*
X220890183Y-179732690D01*
X220894992Y-179781520D01*
X220894992Y-179830589D01*
X220890183Y-179879420D01*
X220880610Y-179927545D01*
X220866367Y-179974500D01*
X220847589Y-180019832D01*
X220824459Y-180063106D01*
X220797198Y-180103904D01*
X220766071Y-180141834D01*
X220748722Y-180159182D01*
X220749148Y-180159608D01*
X220360239Y-180548517D01*
X219299579Y-179487857D01*
X219688488Y-179098948D01*
X219688914Y-179099374D01*
G37*
G36*
X190246000Y-124899000D02*
G01*
X189496000Y-124399000D01*
X189496000Y-123399000D01*
X190996000Y-123399000D01*
X190996000Y-124399000D01*
X190246000Y-124899000D01*
G37*
G36*
X189496000Y-125849000D02*
G01*
X189496000Y-124699000D01*
X190246000Y-125199000D01*
X190996000Y-124699000D01*
X190996000Y-125849000D01*
X189496000Y-125849000D01*
G37*
G36*
X192786000Y-126042000D02*
G01*
X192036000Y-125542000D01*
X192036000Y-124542000D01*
X193536000Y-124542000D01*
X193536000Y-125542000D01*
X192786000Y-126042000D01*
G37*
G36*
X192036000Y-126992000D02*
G01*
X192036000Y-125842000D01*
X192786000Y-126342000D01*
X193536000Y-125842000D01*
X193536000Y-126992000D01*
X192036000Y-126992000D01*
G37*
G36*
X195326000Y-128328000D02*
G01*
X194576000Y-127828000D01*
X194576000Y-126828000D01*
X196076000Y-126828000D01*
X196076000Y-127828000D01*
X195326000Y-128328000D01*
G37*
G36*
X194576000Y-129278000D02*
G01*
X194576000Y-128128000D01*
X195326000Y-128628000D01*
X196076000Y-128128000D01*
X196076000Y-129278000D01*
X194576000Y-129278000D01*
G37*
G36*
X172417600Y-91224800D02*
G01*
X171917600Y-91224800D01*
X171917600Y-91224198D01*
X171893066Y-91224198D01*
X171844235Y-91219388D01*
X171796110Y-91209816D01*
X171749155Y-91195572D01*
X171703822Y-91176795D01*
X171660549Y-91153664D01*
X171619750Y-91126404D01*
X171581821Y-91095276D01*
X171547124Y-91060579D01*
X171515996Y-91022650D01*
X171488736Y-90981851D01*
X171465605Y-90938578D01*
X171446828Y-90893245D01*
X171432584Y-90846290D01*
X171423012Y-90798165D01*
X171418202Y-90749334D01*
X171418202Y-90724800D01*
X171417600Y-90724800D01*
X171417600Y-90224800D01*
X171418202Y-90224800D01*
X171418202Y-90200266D01*
X171423012Y-90151435D01*
X171432584Y-90103310D01*
X171446828Y-90056355D01*
X171465605Y-90011022D01*
X171488736Y-89967749D01*
X171515996Y-89926950D01*
X171547124Y-89889021D01*
X171581821Y-89854324D01*
X171619750Y-89823196D01*
X171660549Y-89795936D01*
X171703822Y-89772805D01*
X171749155Y-89754028D01*
X171796110Y-89739784D01*
X171844235Y-89730212D01*
X171893066Y-89725402D01*
X171917600Y-89725402D01*
X171917600Y-89724800D01*
X172417600Y-89724800D01*
X172417600Y-91224800D01*
G37*
G36*
X173217600Y-89725402D02*
G01*
X173242134Y-89725402D01*
X173290965Y-89730212D01*
X173339090Y-89739784D01*
X173386045Y-89754028D01*
X173431378Y-89772805D01*
X173474651Y-89795936D01*
X173515450Y-89823196D01*
X173553379Y-89854324D01*
X173588076Y-89889021D01*
X173619204Y-89926950D01*
X173646464Y-89967749D01*
X173669595Y-90011022D01*
X173688372Y-90056355D01*
X173702616Y-90103310D01*
X173712188Y-90151435D01*
X173716998Y-90200266D01*
X173716998Y-90224800D01*
X173717600Y-90224800D01*
X173717600Y-90724800D01*
X173716998Y-90724800D01*
X173716998Y-90749334D01*
X173712188Y-90798165D01*
X173702616Y-90846290D01*
X173688372Y-90893245D01*
X173669595Y-90938578D01*
X173646464Y-90981851D01*
X173619204Y-91022650D01*
X173588076Y-91060579D01*
X173553379Y-91095276D01*
X173515450Y-91126404D01*
X173474651Y-91153664D01*
X173431378Y-91176795D01*
X173386045Y-91195572D01*
X173339090Y-91209816D01*
X173290965Y-91219388D01*
X173242134Y-91224198D01*
X173217600Y-91224198D01*
X173217600Y-91224800D01*
X172717600Y-91224800D01*
X172717600Y-89724800D01*
X173217600Y-89724800D01*
X173217600Y-89725402D01*
G37*
G36*
G01*
X157730705Y-190791622D02*
X157730705Y-190791622D01*
G75*
G02*
X157419583Y-189630500I425000J736122D01*
G01*
X157419583Y-189630500D01*
G75*
G02*
X158580705Y-189319378I736122J-425000D01*
G01*
X158580705Y-189319378D01*
G75*
G02*
X158891827Y-190480500I-425000J-736122D01*
G01*
X158891827Y-190480500D01*
G75*
G02*
X157730705Y-190791622I-736122J425000D01*
G01*
G37*
G36*
G01*
X155531000Y-189521622D02*
X155531000Y-189521622D01*
G75*
G02*
X155219878Y-188360500I425000J736122D01*
G01*
X155219878Y-188360500D01*
G75*
G02*
X156381000Y-188049378I736122J-425000D01*
G01*
X156381000Y-188049378D01*
G75*
G02*
X156692122Y-189210500I-425000J-736122D01*
G01*
X156692122Y-189210500D01*
G75*
G02*
X155531000Y-189521622I-736122J425000D01*
G01*
G37*
G36*
G01*
X153331296Y-188251622D02*
X153331296Y-188251622D01*
G75*
G02*
X153020174Y-187090500I425000J736122D01*
G01*
X153020174Y-187090500D01*
G75*
G02*
X154181296Y-186779378I736122J-425000D01*
G01*
X154181296Y-186779378D01*
G75*
G02*
X154492418Y-187940500I-425000J-736122D01*
G01*
X154492418Y-187940500D01*
G75*
G02*
X153331296Y-188251622I-736122J425000D01*
G01*
G37*
G36*
X151867713Y-187406622D02*
G01*
X150395469Y-186556622D01*
X151245469Y-185084378D01*
X152717713Y-185934378D01*
X151867713Y-187406622D01*
G37*
G36*
G01*
X170040907Y-194604338D02*
X170040907Y-194604338D01*
G75*
G02*
X169439866Y-193563305I219996J821037D01*
G01*
X169439866Y-193563305D01*
G75*
G02*
X170480899Y-192962264I821037J-219996D01*
G01*
X170480899Y-192962264D01*
G75*
G02*
X171081940Y-194003297I-219996J-821037D01*
G01*
X171081940Y-194003297D01*
G75*
G02*
X170040907Y-194604338I-821037J219996D01*
G01*
G37*
G36*
G01*
X167587455Y-193946938D02*
X167587455Y-193946938D01*
G75*
G02*
X166986414Y-192905905I219996J821037D01*
G01*
X166986414Y-192905905D01*
G75*
G02*
X168027447Y-192304864I821037J-219996D01*
G01*
X168027447Y-192304864D01*
G75*
G02*
X168628488Y-193345897I-219996J-821037D01*
G01*
X168628488Y-193345897D01*
G75*
G02*
X167587455Y-193946938I-821037J219996D01*
G01*
G37*
G36*
G01*
X165134004Y-193289537D02*
X165134004Y-193289537D01*
G75*
G02*
X164532963Y-192248504I219996J821037D01*
G01*
X164532963Y-192248504D01*
G75*
G02*
X165573996Y-191647463I821037J-219996D01*
G01*
X165573996Y-191647463D01*
G75*
G02*
X166175037Y-192688496I-219996J-821037D01*
G01*
X166175037Y-192688496D01*
G75*
G02*
X165134004Y-193289537I-821037J219996D01*
G01*
G37*
G36*
X163501589Y-192852133D02*
G01*
X161859515Y-192412141D01*
X162299507Y-190770067D01*
X163941581Y-191210059D01*
X163501589Y-192852133D01*
G37*
G36*
G01*
X233538764Y-132507899D02*
X233538764Y-132507899D01*
G75*
G02*
X234139805Y-131466866I821037J219996D01*
G01*
X234139805Y-131466866D01*
G75*
G02*
X235180838Y-132067907I219996J-821037D01*
G01*
X235180838Y-132067907D01*
G75*
G02*
X234579797Y-133108940I-821037J-219996D01*
G01*
X234579797Y-133108940D01*
G75*
G02*
X233538764Y-132507899I-219996J821037D01*
G01*
G37*
G36*
G01*
X232881364Y-130054447D02*
X232881364Y-130054447D01*
G75*
G02*
X233482405Y-129013414I821037J219996D01*
G01*
X233482405Y-129013414D01*
G75*
G02*
X234523438Y-129614455I219996J-821037D01*
G01*
X234523438Y-129614455D01*
G75*
G02*
X233922397Y-130655488I-821037J-219996D01*
G01*
X233922397Y-130655488D01*
G75*
G02*
X232881364Y-130054447I-219996J821037D01*
G01*
G37*
G36*
G01*
X232223963Y-127600996D02*
X232223963Y-127600996D01*
G75*
G02*
X232825004Y-126559963I821037J219996D01*
G01*
X232825004Y-126559963D01*
G75*
G02*
X233866037Y-127161004I219996J-821037D01*
G01*
X233866037Y-127161004D01*
G75*
G02*
X233264996Y-128202037I-821037J-219996D01*
G01*
X233264996Y-128202037D01*
G75*
G02*
X232223963Y-127600996I-219996J821037D01*
G01*
G37*
G36*
X231786559Y-125968581D02*
G01*
X231346567Y-124326507D01*
X232988641Y-123886515D01*
X233428633Y-125528589D01*
X231786559Y-125968581D01*
G37*
G36*
G01*
X195154636Y-195322488D02*
X195154636Y-195322488D01*
G75*
G02*
X194169948Y-194633002I-147601J837087D01*
G01*
X194169948Y-194633002D01*
G75*
G02*
X194859434Y-193648314I837087J147601D01*
G01*
X194859434Y-193648314D01*
G75*
G02*
X195844122Y-194337800I147601J-837087D01*
G01*
X195844122Y-194337800D01*
G75*
G02*
X195154636Y-195322488I-837087J-147601D01*
G01*
G37*
G36*
G01*
X192653224Y-195763554D02*
X192653224Y-195763554D01*
G75*
G02*
X191668536Y-195074068I-147601J837087D01*
G01*
X191668536Y-195074068D01*
G75*
G02*
X192358022Y-194089380I837087J147601D01*
G01*
X192358022Y-194089380D01*
G75*
G02*
X193342710Y-194778866I147601J-837087D01*
G01*
X193342710Y-194778866D01*
G75*
G02*
X192653224Y-195763554I-837087J-147601D01*
G01*
G37*
G36*
G01*
X190151813Y-196204621D02*
X190151813Y-196204621D01*
G75*
G02*
X189167125Y-195515135I-147601J837087D01*
G01*
X189167125Y-195515135D01*
G75*
G02*
X189856611Y-194530447I837087J147601D01*
G01*
X189856611Y-194530447D01*
G75*
G02*
X190841299Y-195219933I147601J-837087D01*
G01*
X190841299Y-195219933D01*
G75*
G02*
X190151813Y-196204621I-837087J-147601D01*
G01*
G37*
G36*
X188487488Y-196498086D02*
G01*
X186813314Y-196793288D01*
X186518112Y-195119114D01*
X188192286Y-194823912D01*
X188487488Y-196498086D01*
G37*
G36*
G01*
X208299647Y-190044512D02*
X208299647Y-190044512D01*
G75*
G02*
X207170059Y-189633376I-359226J770362D01*
G01*
X207170059Y-189633376D01*
G75*
G02*
X207581195Y-188503788I770362J359226D01*
G01*
X207581195Y-188503788D01*
G75*
G02*
X208710783Y-188914924I359226J-770362D01*
G01*
X208710783Y-188914924D01*
G75*
G02*
X208299647Y-190044512I-770362J-359226D01*
G01*
G37*
G36*
G01*
X205997626Y-191117962D02*
X205997626Y-191117962D01*
G75*
G02*
X204868038Y-190706826I-359226J770362D01*
G01*
X204868038Y-190706826D01*
G75*
G02*
X205279174Y-189577238I770362J359226D01*
G01*
X205279174Y-189577238D01*
G75*
G02*
X206408762Y-189988374I359226J-770362D01*
G01*
X206408762Y-189988374D01*
G75*
G02*
X205997626Y-191117962I-770362J-359226D01*
G01*
G37*
G36*
G01*
X203695604Y-192191413D02*
X203695604Y-192191413D01*
G75*
G02*
X202566016Y-191780277I-359226J770362D01*
G01*
X202566016Y-191780277D01*
G75*
G02*
X202977152Y-190650689I770362J359226D01*
G01*
X202977152Y-190650689D01*
G75*
G02*
X204106740Y-191061825I359226J-770362D01*
G01*
X204106740Y-191061825D01*
G75*
G02*
X203695604Y-192191413I-770362J-359226D01*
G01*
G37*
G36*
X202163943Y-192905637D02*
G01*
X200623220Y-193624088D01*
X199904769Y-192083365D01*
X201445492Y-191364914D01*
X202163943Y-192905637D01*
G37*
G36*
X145371231Y-179472271D02*
G01*
X146113694Y-180214734D01*
X144558059Y-181770369D01*
X143815596Y-181027906D01*
X145371231Y-179472271D01*
G37*
G36*
X145017678Y-177775216D02*
G01*
X145724784Y-178482322D01*
X144982322Y-179224784D01*
X144275216Y-178517678D01*
X145017678Y-177775216D01*
G37*
G36*
X143285266Y-177386306D02*
G01*
X144027729Y-178128769D01*
X142472094Y-179684404D01*
X141729631Y-178941941D01*
X143285266Y-177386306D01*
G37*
D44*
X212280500Y-161734500D03*
X212280500Y-160464500D03*
X213550500Y-161734500D03*
X213550500Y-160464500D03*
X214820500Y-161734500D03*
X214820500Y-160464500D03*
D45*
X216090500Y-161099500D03*
X211010500Y-160083500D03*
X211010500Y-162115500D03*
G36*
G01*
X223958270Y-173062348D02*
X224954129Y-173897973D01*
G75*
G02*
X224984943Y-174250179I-160696J-191510D01*
G01*
X224534990Y-174786412D01*
G75*
G02*
X224182784Y-174817226I-191510J160696D01*
G01*
X223186925Y-173981601D01*
G75*
G02*
X223156111Y-173629395I160696J191510D01*
G01*
X223606064Y-173093162D01*
G75*
G02*
X223958270Y-173062348I191510J-160696D01*
G01*
G37*
G36*
G01*
X227557881Y-168772499D02*
X228553740Y-169608124D01*
G75*
G02*
X228584554Y-169960330I-160696J-191510D01*
G01*
X228134601Y-170496563D01*
G75*
G02*
X227782395Y-170527377I-191510J160696D01*
G01*
X226786536Y-169691752D01*
G75*
G02*
X226755722Y-169339546I160696J191510D01*
G01*
X227205675Y-168803313D01*
G75*
G02*
X227557881Y-168772499I191510J-160696D01*
G01*
G37*
G36*
G01*
X222685947Y-170689334D02*
X223643503Y-171492819D01*
G75*
G02*
X223661992Y-171704144I-96418J-114907D01*
G01*
X223469156Y-171933957D01*
G75*
G02*
X223257831Y-171952446I-114907J96418D01*
G01*
X222300275Y-171148961D01*
G75*
G02*
X222281786Y-170937636I96418J114907D01*
G01*
X222474622Y-170707823D01*
G75*
G02*
X222685947Y-170689334I114907J-96418D01*
G01*
G37*
G36*
G01*
X223328734Y-169923290D02*
X224286290Y-170726775D01*
G75*
G02*
X224304779Y-170938100I-96418J-114907D01*
G01*
X224111943Y-171167913D01*
G75*
G02*
X223900618Y-171186402I-114907J96418D01*
G01*
X222943062Y-170382917D01*
G75*
G02*
X222924573Y-170171592I96418J114907D01*
G01*
X223117409Y-169941779D01*
G75*
G02*
X223328734Y-169923290I114907J-96418D01*
G01*
G37*
G36*
G01*
X223971522Y-169157245D02*
X224929078Y-169960730D01*
G75*
G02*
X224947567Y-170172055I-96418J-114907D01*
G01*
X224754731Y-170401868D01*
G75*
G02*
X224543406Y-170420357I-114907J96418D01*
G01*
X223585850Y-169616872D01*
G75*
G02*
X223567361Y-169405547I96418J114907D01*
G01*
X223760197Y-169175734D01*
G75*
G02*
X223971522Y-169157245I114907J-96418D01*
G01*
G37*
G36*
G01*
X224614310Y-168391201D02*
X225571866Y-169194686D01*
G75*
G02*
X225590355Y-169406011I-96418J-114907D01*
G01*
X225397519Y-169635824D01*
G75*
G02*
X225186194Y-169654313I-114907J96418D01*
G01*
X224228638Y-168850828D01*
G75*
G02*
X224210149Y-168639503I96418J114907D01*
G01*
X224402985Y-168409690D01*
G75*
G02*
X224614310Y-168391201I114907J-96418D01*
G01*
G37*
G36*
G01*
X228404146Y-164812257D02*
X228404146Y-164812257D01*
G75*
G02*
X229493602Y-164304235I798739J-290717D01*
G01*
X229493602Y-164304235D01*
G75*
G02*
X230001624Y-165393691I-290717J-798739D01*
G01*
X230001624Y-165393691D01*
G75*
G02*
X228912168Y-165901713I-798739J290717D01*
G01*
X228912168Y-165901713D01*
G75*
G02*
X228404146Y-164812257I290717J798739D01*
G01*
G37*
G36*
G01*
X229272877Y-162425438D02*
X229272877Y-162425438D01*
G75*
G02*
X230362333Y-161917416I798739J-290717D01*
G01*
X230362333Y-161917416D01*
G75*
G02*
X230870355Y-163006872I-290717J-798739D01*
G01*
X230870355Y-163006872D01*
G75*
G02*
X229780899Y-163514894I-798739J290717D01*
G01*
X229780899Y-163514894D01*
G75*
G02*
X229272877Y-162425438I290717J798739D01*
G01*
G37*
G36*
G01*
X230141609Y-160038619D02*
X230141609Y-160038619D01*
G75*
G02*
X231231065Y-159530597I798739J-290717D01*
G01*
X231231065Y-159530597D01*
G75*
G02*
X231739087Y-160620053I-290717J-798739D01*
G01*
X231739087Y-160620053D01*
G75*
G02*
X230649631Y-161128075I-798739J290717D01*
G01*
X230649631Y-161128075D01*
G75*
G02*
X230141609Y-160038619I290717J798739D01*
G01*
G37*
G36*
G01*
X231010340Y-157651800D02*
X231010340Y-157651800D01*
G75*
G02*
X232099796Y-157143778I798739J-290717D01*
G01*
X232099796Y-157143778D01*
G75*
G02*
X232607818Y-158233234I-290717J-798739D01*
G01*
X232607818Y-158233234D01*
G75*
G02*
X231518362Y-158741256I-798739J290717D01*
G01*
X231518362Y-158741256D01*
G75*
G02*
X231010340Y-157651800I290717J798739D01*
G01*
G37*
G36*
G01*
X231879071Y-155264980D02*
X231879071Y-155264980D01*
G75*
G02*
X232968527Y-154756958I798739J-290717D01*
G01*
X232968527Y-154756958D01*
G75*
G02*
X233476549Y-155846414I-290717J-798739D01*
G01*
X233476549Y-155846414D01*
G75*
G02*
X232387093Y-156354436I-798739J290717D01*
G01*
X232387093Y-156354436D01*
G75*
G02*
X231879071Y-155264980I290717J798739D01*
G01*
G37*
D27*
G36*
X232457085Y-153676900D02*
G01*
X233038519Y-152079422D01*
X234635997Y-152660856D01*
X234054563Y-154258334D01*
X232457085Y-153676900D01*
G37*
G36*
G01*
X214904836Y-99402754D02*
X214904836Y-99402754D01*
G75*
G02*
X214904836Y-100604836I-601041J-601041D01*
G01*
X214904836Y-100604836D01*
G75*
G02*
X213702754Y-100604836I-601041J601041D01*
G01*
X213702754Y-100604836D01*
G75*
G02*
X213702754Y-99402754I601041J601041D01*
G01*
X213702754Y-99402754D01*
G75*
G02*
X214904836Y-99402754I601041J-601041D01*
G01*
G37*
G36*
G01*
X216700887Y-101198805D02*
X216700887Y-101198805D01*
G75*
G02*
X216700887Y-102400887I-601041J-601041D01*
G01*
X216700887Y-102400887D01*
G75*
G02*
X215498805Y-102400887I-601041J601041D01*
G01*
X215498805Y-102400887D01*
G75*
G02*
X215498805Y-101198805I601041J601041D01*
G01*
X215498805Y-101198805D01*
G75*
G02*
X216700887Y-101198805I601041J-601041D01*
G01*
G37*
G36*
G01*
X218496939Y-102994857D02*
X218496939Y-102994857D01*
G75*
G02*
X218496939Y-104196939I-601041J-601041D01*
G01*
X218496939Y-104196939D01*
G75*
G02*
X217294857Y-104196939I-601041J601041D01*
G01*
X217294857Y-104196939D01*
G75*
G02*
X217294857Y-102994857I601041J601041D01*
G01*
X217294857Y-102994857D01*
G75*
G02*
X218496939Y-102994857I601041J-601041D01*
G01*
G37*
G36*
G01*
X220292990Y-104790908D02*
X220292990Y-104790908D01*
G75*
G02*
X220292990Y-105992990I-601041J-601041D01*
G01*
X220292990Y-105992990D01*
G75*
G02*
X219090908Y-105992990I-601041J601041D01*
G01*
X219090908Y-105992990D01*
G75*
G02*
X219090908Y-104790908I601041J601041D01*
G01*
X219090908Y-104790908D01*
G75*
G02*
X220292990Y-104790908I601041J-601041D01*
G01*
G37*
G36*
X221488000Y-105985918D02*
G01*
X222690082Y-107188000D01*
X221488000Y-108390082D01*
X220285918Y-107188000D01*
X221488000Y-105985918D01*
G37*
G36*
G01*
X190714950Y-127830400D02*
X189802450Y-127830400D01*
G75*
G02*
X189558700Y-127586650I0J243750D01*
G01*
X189558700Y-127099150D01*
G75*
G02*
X189802450Y-126855400I243750J0D01*
G01*
X190714950Y-126855400D01*
G75*
G02*
X190958700Y-127099150I0J-243750D01*
G01*
X190958700Y-127586650D01*
G75*
G02*
X190714950Y-127830400I-243750J0D01*
G01*
G37*
G36*
G01*
X190714950Y-129705400D02*
X189802450Y-129705400D01*
G75*
G02*
X189558700Y-129461650I0J243750D01*
G01*
X189558700Y-128974150D01*
G75*
G02*
X189802450Y-128730400I243750J0D01*
G01*
X190714950Y-128730400D01*
G75*
G02*
X190958700Y-128974150I0J-243750D01*
G01*
X190958700Y-129461650D01*
G75*
G02*
X190714950Y-129705400I-243750J0D01*
G01*
G37*
G36*
G01*
X193242250Y-129041500D02*
X192329750Y-129041500D01*
G75*
G02*
X192086000Y-128797750I0J243750D01*
G01*
X192086000Y-128310250D01*
G75*
G02*
X192329750Y-128066500I243750J0D01*
G01*
X193242250Y-128066500D01*
G75*
G02*
X193486000Y-128310250I0J-243750D01*
G01*
X193486000Y-128797750D01*
G75*
G02*
X193242250Y-129041500I-243750J0D01*
G01*
G37*
G36*
G01*
X193242250Y-130916500D02*
X192329750Y-130916500D01*
G75*
G02*
X192086000Y-130672750I0J243750D01*
G01*
X192086000Y-130185250D01*
G75*
G02*
X192329750Y-129941500I243750J0D01*
G01*
X193242250Y-129941500D01*
G75*
G02*
X193486000Y-130185250I0J-243750D01*
G01*
X193486000Y-130672750D01*
G75*
G02*
X193242250Y-130916500I-243750J0D01*
G01*
G37*
G36*
G01*
X195655250Y-131297500D02*
X194742750Y-131297500D01*
G75*
G02*
X194499000Y-131053750I0J243750D01*
G01*
X194499000Y-130566250D01*
G75*
G02*
X194742750Y-130322500I243750J0D01*
G01*
X195655250Y-130322500D01*
G75*
G02*
X195899000Y-130566250I0J-243750D01*
G01*
X195899000Y-131053750D01*
G75*
G02*
X195655250Y-131297500I-243750J0D01*
G01*
G37*
G36*
G01*
X195655250Y-133172500D02*
X194742750Y-133172500D01*
G75*
G02*
X194499000Y-132928750I0J243750D01*
G01*
X194499000Y-132441250D01*
G75*
G02*
X194742750Y-132197500I243750J0D01*
G01*
X195655250Y-132197500D01*
G75*
G02*
X195899000Y-132441250I0J-243750D01*
G01*
X195899000Y-132928750D01*
G75*
G02*
X195655250Y-133172500I-243750J0D01*
G01*
G37*
G36*
G01*
X207650500Y-158246000D02*
X207650500Y-158746000D01*
G75*
G02*
X207425500Y-158971000I-225000J0D01*
G01*
X206975500Y-158971000D01*
G75*
G02*
X206750500Y-158746000I0J225000D01*
G01*
X206750500Y-158246000D01*
G75*
G02*
X206975500Y-158021000I225000J0D01*
G01*
X207425500Y-158021000D01*
G75*
G02*
X207650500Y-158246000I0J-225000D01*
G01*
G37*
G36*
G01*
X209200500Y-158246000D02*
X209200500Y-158746000D01*
G75*
G02*
X208975500Y-158971000I-225000J0D01*
G01*
X208525500Y-158971000D01*
G75*
G02*
X208300500Y-158746000I0J225000D01*
G01*
X208300500Y-158246000D01*
G75*
G02*
X208525500Y-158021000I225000J0D01*
G01*
X208975500Y-158021000D01*
G75*
G02*
X209200500Y-158246000I0J-225000D01*
G01*
G37*
G36*
G01*
X138993500Y-123223000D02*
X138993500Y-124173000D01*
G75*
G02*
X138743500Y-124423000I-250000J0D01*
G01*
X138243500Y-124423000D01*
G75*
G02*
X137993500Y-124173000I0J250000D01*
G01*
X137993500Y-123223000D01*
G75*
G02*
X138243500Y-122973000I250000J0D01*
G01*
X138743500Y-122973000D01*
G75*
G02*
X138993500Y-123223000I0J-250000D01*
G01*
G37*
G36*
G01*
X140893500Y-123223000D02*
X140893500Y-124173000D01*
G75*
G02*
X140643500Y-124423000I-250000J0D01*
G01*
X140143500Y-124423000D01*
G75*
G02*
X139893500Y-124173000I0J250000D01*
G01*
X139893500Y-123223000D01*
G75*
G02*
X140143500Y-122973000I250000J0D01*
G01*
X140643500Y-122973000D01*
G75*
G02*
X140893500Y-123223000I0J-250000D01*
G01*
G37*
G36*
G01*
X142577800Y-124503600D02*
X143527800Y-124503600D01*
G75*
G02*
X143777800Y-124753600I0J-250000D01*
G01*
X143777800Y-125253600D01*
G75*
G02*
X143527800Y-125503600I-250000J0D01*
G01*
X142577800Y-125503600D01*
G75*
G02*
X142327800Y-125253600I0J250000D01*
G01*
X142327800Y-124753600D01*
G75*
G02*
X142577800Y-124503600I250000J0D01*
G01*
G37*
G36*
G01*
X142577800Y-122603600D02*
X143527800Y-122603600D01*
G75*
G02*
X143777800Y-122853600I0J-250000D01*
G01*
X143777800Y-123353600D01*
G75*
G02*
X143527800Y-123603600I-250000J0D01*
G01*
X142577800Y-123603600D01*
G75*
G02*
X142327800Y-123353600I0J250000D01*
G01*
X142327800Y-122853600D01*
G75*
G02*
X142577800Y-122603600I250000J0D01*
G01*
G37*
G36*
G01*
X218854000Y-143322500D02*
X219804000Y-143322500D01*
G75*
G02*
X220054000Y-143572500I0J-250000D01*
G01*
X220054000Y-144072500D01*
G75*
G02*
X219804000Y-144322500I-250000J0D01*
G01*
X218854000Y-144322500D01*
G75*
G02*
X218604000Y-144072500I0J250000D01*
G01*
X218604000Y-143572500D01*
G75*
G02*
X218854000Y-143322500I250000J0D01*
G01*
G37*
G36*
G01*
X218854000Y-141422500D02*
X219804000Y-141422500D01*
G75*
G02*
X220054000Y-141672500I0J-250000D01*
G01*
X220054000Y-142172500D01*
G75*
G02*
X219804000Y-142422500I-250000J0D01*
G01*
X218854000Y-142422500D01*
G75*
G02*
X218604000Y-142172500I0J250000D01*
G01*
X218604000Y-141672500D01*
G75*
G02*
X218854000Y-141422500I250000J0D01*
G01*
G37*
G36*
G01*
X220375500Y-136202000D02*
X219425500Y-136202000D01*
G75*
G02*
X219175500Y-135952000I0J250000D01*
G01*
X219175500Y-135452000D01*
G75*
G02*
X219425500Y-135202000I250000J0D01*
G01*
X220375500Y-135202000D01*
G75*
G02*
X220625500Y-135452000I0J-250000D01*
G01*
X220625500Y-135952000D01*
G75*
G02*
X220375500Y-136202000I-250000J0D01*
G01*
G37*
G36*
G01*
X220375500Y-138102000D02*
X219425500Y-138102000D01*
G75*
G02*
X219175500Y-137852000I0J250000D01*
G01*
X219175500Y-137352000D01*
G75*
G02*
X219425500Y-137102000I250000J0D01*
G01*
X220375500Y-137102000D01*
G75*
G02*
X220625500Y-137352000I0J-250000D01*
G01*
X220625500Y-137852000D01*
G75*
G02*
X220375500Y-138102000I-250000J0D01*
G01*
G37*
G36*
G01*
X222029000Y-143894000D02*
X222979000Y-143894000D01*
G75*
G02*
X223229000Y-144144000I0J-250000D01*
G01*
X223229000Y-144644000D01*
G75*
G02*
X222979000Y-144894000I-250000J0D01*
G01*
X222029000Y-144894000D01*
G75*
G02*
X221779000Y-144644000I0J250000D01*
G01*
X221779000Y-144144000D01*
G75*
G02*
X222029000Y-143894000I250000J0D01*
G01*
G37*
G36*
G01*
X222029000Y-141994000D02*
X222979000Y-141994000D01*
G75*
G02*
X223229000Y-142244000I0J-250000D01*
G01*
X223229000Y-142744000D01*
G75*
G02*
X222979000Y-142994000I-250000J0D01*
G01*
X222029000Y-142994000D01*
G75*
G02*
X221779000Y-142744000I0J250000D01*
G01*
X221779000Y-142244000D01*
G75*
G02*
X222029000Y-141994000I250000J0D01*
G01*
G37*
G36*
G01*
X136380322Y-168675073D02*
X137052073Y-168003322D01*
G75*
G02*
X137405627Y-168003322I176777J-176777D01*
G01*
X137759180Y-168356875D01*
G75*
G02*
X137759180Y-168710429I-176777J-176777D01*
G01*
X137087429Y-169382180D01*
G75*
G02*
X136733875Y-169382180I-176777J176777D01*
G01*
X136380322Y-169028627D01*
G75*
G02*
X136380322Y-168675073I176777J176777D01*
G01*
G37*
G36*
G01*
X135036820Y-167331571D02*
X135708571Y-166659820D01*
G75*
G02*
X136062125Y-166659820I176777J-176777D01*
G01*
X136415678Y-167013373D01*
G75*
G02*
X136415678Y-167366927I-176777J-176777D01*
G01*
X135743927Y-168038678D01*
G75*
G02*
X135390373Y-168038678I-176777J176777D01*
G01*
X135036820Y-167685125D01*
G75*
G02*
X135036820Y-167331571I176777J176777D01*
G01*
G37*
G36*
G01*
X137517678Y-162704678D02*
X136845927Y-163376429D01*
G75*
G02*
X136492373Y-163376429I-176777J176777D01*
G01*
X136138820Y-163022876D01*
G75*
G02*
X136138820Y-162669322I176777J176777D01*
G01*
X136810571Y-161997571D01*
G75*
G02*
X137164125Y-161997571I176777J-176777D01*
G01*
X137517678Y-162351124D01*
G75*
G02*
X137517678Y-162704678I-176777J-176777D01*
G01*
G37*
G36*
G01*
X138861180Y-164048180D02*
X138189429Y-164719931D01*
G75*
G02*
X137835875Y-164719931I-176777J176777D01*
G01*
X137482322Y-164366378D01*
G75*
G02*
X137482322Y-164012824I176777J176777D01*
G01*
X138154073Y-163341073D01*
G75*
G02*
X138507627Y-163341073I176777J-176777D01*
G01*
X138861180Y-163694626D01*
G75*
G02*
X138861180Y-164048180I-176777J-176777D01*
G01*
G37*
G36*
G01*
X147466073Y-176547678D02*
X146794322Y-175875927D01*
G75*
G02*
X146794322Y-175522373I176777J176777D01*
G01*
X147147875Y-175168820D01*
G75*
G02*
X147501429Y-175168820I176777J-176777D01*
G01*
X148173180Y-175840571D01*
G75*
G02*
X148173180Y-176194125I-176777J-176777D01*
G01*
X147819627Y-176547678D01*
G75*
G02*
X147466073Y-176547678I-176777J176777D01*
G01*
G37*
G36*
G01*
X146122571Y-177891180D02*
X145450820Y-177219429D01*
G75*
G02*
X145450820Y-176865875I176777J176777D01*
G01*
X145804373Y-176512322D01*
G75*
G02*
X146157927Y-176512322I176777J-176777D01*
G01*
X146829678Y-177184073D01*
G75*
G02*
X146829678Y-177537627I-176777J-176777D01*
G01*
X146476125Y-177891180D01*
G75*
G02*
X146122571Y-177891180I-176777J176777D01*
G01*
G37*
G36*
G01*
X212103619Y-136009400D02*
X212103619Y-135059400D01*
G75*
G02*
X212353619Y-134809400I250000J0D01*
G01*
X212853619Y-134809400D01*
G75*
G02*
X213103619Y-135059400I0J-250000D01*
G01*
X213103619Y-136009400D01*
G75*
G02*
X212853619Y-136259400I-250000J0D01*
G01*
X212353619Y-136259400D01*
G75*
G02*
X212103619Y-136009400I0J250000D01*
G01*
G37*
G36*
G01*
X210203619Y-136009400D02*
X210203619Y-135059400D01*
G75*
G02*
X210453619Y-134809400I250000J0D01*
G01*
X210953619Y-134809400D01*
G75*
G02*
X211203619Y-135059400I0J-250000D01*
G01*
X211203619Y-136009400D01*
G75*
G02*
X210953619Y-136259400I-250000J0D01*
G01*
X210453619Y-136259400D01*
G75*
G02*
X210203619Y-136009400I0J250000D01*
G01*
G37*
G36*
G01*
X215308200Y-136847200D02*
X214358200Y-136847200D01*
G75*
G02*
X214108200Y-136597200I0J250000D01*
G01*
X214108200Y-136097200D01*
G75*
G02*
X214358200Y-135847200I250000J0D01*
G01*
X215308200Y-135847200D01*
G75*
G02*
X215558200Y-136097200I0J-250000D01*
G01*
X215558200Y-136597200D01*
G75*
G02*
X215308200Y-136847200I-250000J0D01*
G01*
G37*
G36*
G01*
X215308200Y-138747200D02*
X214358200Y-138747200D01*
G75*
G02*
X214108200Y-138497200I0J250000D01*
G01*
X214108200Y-137997200D01*
G75*
G02*
X214358200Y-137747200I250000J0D01*
G01*
X215308200Y-137747200D01*
G75*
G02*
X215558200Y-137997200I0J-250000D01*
G01*
X215558200Y-138497200D01*
G75*
G02*
X215308200Y-138747200I-250000J0D01*
G01*
G37*
G36*
G01*
X212103619Y-138109718D02*
X212103619Y-137159718D01*
G75*
G02*
X212353619Y-136909718I250000J0D01*
G01*
X212853619Y-136909718D01*
G75*
G02*
X213103619Y-137159718I0J-250000D01*
G01*
X213103619Y-138109718D01*
G75*
G02*
X212853619Y-138359718I-250000J0D01*
G01*
X212353619Y-138359718D01*
G75*
G02*
X212103619Y-138109718I0J250000D01*
G01*
G37*
G36*
G01*
X210203619Y-138109718D02*
X210203619Y-137159718D01*
G75*
G02*
X210453619Y-136909718I250000J0D01*
G01*
X210953619Y-136909718D01*
G75*
G02*
X211203619Y-137159718I0J-250000D01*
G01*
X211203619Y-138109718D01*
G75*
G02*
X210953619Y-138359718I-250000J0D01*
G01*
X210453619Y-138359718D01*
G75*
G02*
X210203619Y-138109718I0J250000D01*
G01*
G37*
G36*
G01*
X157767000Y-156624400D02*
X158717000Y-156624400D01*
G75*
G02*
X158967000Y-156874400I0J-250000D01*
G01*
X158967000Y-157374400D01*
G75*
G02*
X158717000Y-157624400I-250000J0D01*
G01*
X157767000Y-157624400D01*
G75*
G02*
X157517000Y-157374400I0J250000D01*
G01*
X157517000Y-156874400D01*
G75*
G02*
X157767000Y-156624400I250000J0D01*
G01*
G37*
G36*
G01*
X157767000Y-154724400D02*
X158717000Y-154724400D01*
G75*
G02*
X158967000Y-154974400I0J-250000D01*
G01*
X158967000Y-155474400D01*
G75*
G02*
X158717000Y-155724400I-250000J0D01*
G01*
X157767000Y-155724400D01*
G75*
G02*
X157517000Y-155474400I0J250000D01*
G01*
X157517000Y-154974400D01*
G75*
G02*
X157767000Y-154724400I250000J0D01*
G01*
G37*
G36*
G01*
X169080200Y-162171000D02*
X168130200Y-162171000D01*
G75*
G02*
X167880200Y-161921000I0J250000D01*
G01*
X167880200Y-161421000D01*
G75*
G02*
X168130200Y-161171000I250000J0D01*
G01*
X169080200Y-161171000D01*
G75*
G02*
X169330200Y-161421000I0J-250000D01*
G01*
X169330200Y-161921000D01*
G75*
G02*
X169080200Y-162171000I-250000J0D01*
G01*
G37*
G36*
G01*
X169080200Y-164071000D02*
X168130200Y-164071000D01*
G75*
G02*
X167880200Y-163821000I0J250000D01*
G01*
X167880200Y-163321000D01*
G75*
G02*
X168130200Y-163071000I250000J0D01*
G01*
X169080200Y-163071000D01*
G75*
G02*
X169330200Y-163321000I0J-250000D01*
G01*
X169330200Y-163821000D01*
G75*
G02*
X169080200Y-164071000I-250000J0D01*
G01*
G37*
G36*
G01*
X150630000Y-154653000D02*
X150630000Y-153703000D01*
G75*
G02*
X150880000Y-153453000I250000J0D01*
G01*
X151380000Y-153453000D01*
G75*
G02*
X151630000Y-153703000I0J-250000D01*
G01*
X151630000Y-154653000D01*
G75*
G02*
X151380000Y-154903000I-250000J0D01*
G01*
X150880000Y-154903000D01*
G75*
G02*
X150630000Y-154653000I0J250000D01*
G01*
G37*
G36*
G01*
X148730000Y-154653000D02*
X148730000Y-153703000D01*
G75*
G02*
X148980000Y-153453000I250000J0D01*
G01*
X149480000Y-153453000D01*
G75*
G02*
X149730000Y-153703000I0J-250000D01*
G01*
X149730000Y-154653000D01*
G75*
G02*
X149480000Y-154903000I-250000J0D01*
G01*
X148980000Y-154903000D01*
G75*
G02*
X148730000Y-154653000I0J250000D01*
G01*
G37*
G36*
G01*
X163949800Y-171010600D02*
X163949800Y-170060600D01*
G75*
G02*
X164199800Y-169810600I250000J0D01*
G01*
X164699800Y-169810600D01*
G75*
G02*
X164949800Y-170060600I0J-250000D01*
G01*
X164949800Y-171010600D01*
G75*
G02*
X164699800Y-171260600I-250000J0D01*
G01*
X164199800Y-171260600D01*
G75*
G02*
X163949800Y-171010600I0J250000D01*
G01*
G37*
G36*
G01*
X162049800Y-171010600D02*
X162049800Y-170060600D01*
G75*
G02*
X162299800Y-169810600I250000J0D01*
G01*
X162799800Y-169810600D01*
G75*
G02*
X163049800Y-170060600I0J-250000D01*
G01*
X163049800Y-171010600D01*
G75*
G02*
X162799800Y-171260600I-250000J0D01*
G01*
X162299800Y-171260600D01*
G75*
G02*
X162049800Y-171010600I0J250000D01*
G01*
G37*
G36*
G01*
X163924400Y-168902400D02*
X163924400Y-167952400D01*
G75*
G02*
X164174400Y-167702400I250000J0D01*
G01*
X164674400Y-167702400D01*
G75*
G02*
X164924400Y-167952400I0J-250000D01*
G01*
X164924400Y-168902400D01*
G75*
G02*
X164674400Y-169152400I-250000J0D01*
G01*
X164174400Y-169152400D01*
G75*
G02*
X163924400Y-168902400I0J250000D01*
G01*
G37*
G36*
G01*
X162024400Y-168902400D02*
X162024400Y-167952400D01*
G75*
G02*
X162274400Y-167702400I250000J0D01*
G01*
X162774400Y-167702400D01*
G75*
G02*
X163024400Y-167952400I0J-250000D01*
G01*
X163024400Y-168902400D01*
G75*
G02*
X162774400Y-169152400I-250000J0D01*
G01*
X162274400Y-169152400D01*
G75*
G02*
X162024400Y-168902400I0J250000D01*
G01*
G37*
G36*
G01*
X161247200Y-175785800D02*
X161247200Y-174835800D01*
G75*
G02*
X161497200Y-174585800I250000J0D01*
G01*
X161997200Y-174585800D01*
G75*
G02*
X162247200Y-174835800I0J-250000D01*
G01*
X162247200Y-175785800D01*
G75*
G02*
X161997200Y-176035800I-250000J0D01*
G01*
X161497200Y-176035800D01*
G75*
G02*
X161247200Y-175785800I0J250000D01*
G01*
G37*
G36*
G01*
X159347200Y-175785800D02*
X159347200Y-174835800D01*
G75*
G02*
X159597200Y-174585800I250000J0D01*
G01*
X160097200Y-174585800D01*
G75*
G02*
X160347200Y-174835800I0J-250000D01*
G01*
X160347200Y-175785800D01*
G75*
G02*
X160097200Y-176035800I-250000J0D01*
G01*
X159597200Y-176035800D01*
G75*
G02*
X159347200Y-175785800I0J250000D01*
G01*
G37*
G36*
G01*
X158772400Y-163990000D02*
X158772400Y-164940000D01*
G75*
G02*
X158522400Y-165190000I-250000J0D01*
G01*
X158022400Y-165190000D01*
G75*
G02*
X157772400Y-164940000I0J250000D01*
G01*
X157772400Y-163990000D01*
G75*
G02*
X158022400Y-163740000I250000J0D01*
G01*
X158522400Y-163740000D01*
G75*
G02*
X158772400Y-163990000I0J-250000D01*
G01*
G37*
G36*
G01*
X160672400Y-163990000D02*
X160672400Y-164940000D01*
G75*
G02*
X160422400Y-165190000I-250000J0D01*
G01*
X159922400Y-165190000D01*
G75*
G02*
X159672400Y-164940000I0J250000D01*
G01*
X159672400Y-163990000D01*
G75*
G02*
X159922400Y-163740000I250000J0D01*
G01*
X160422400Y-163740000D01*
G75*
G02*
X160672400Y-163990000I0J-250000D01*
G01*
G37*
G36*
G01*
X209512579Y-174993517D02*
X209512579Y-175943517D01*
G75*
G02*
X209262579Y-176193517I-250000J0D01*
G01*
X208762579Y-176193517D01*
G75*
G02*
X208512579Y-175943517I0J250000D01*
G01*
X208512579Y-174993517D01*
G75*
G02*
X208762579Y-174743517I250000J0D01*
G01*
X209262579Y-174743517D01*
G75*
G02*
X209512579Y-174993517I0J-250000D01*
G01*
G37*
G36*
G01*
X211412579Y-174993517D02*
X211412579Y-175943517D01*
G75*
G02*
X211162579Y-176193517I-250000J0D01*
G01*
X210662579Y-176193517D01*
G75*
G02*
X210412579Y-175943517I0J250000D01*
G01*
X210412579Y-174993517D01*
G75*
G02*
X210662579Y-174743517I250000J0D01*
G01*
X211162579Y-174743517D01*
G75*
G02*
X211412579Y-174993517I0J-250000D01*
G01*
G37*
G36*
G01*
X214821579Y-176476517D02*
X213871579Y-176476517D01*
G75*
G02*
X213621579Y-176226517I0J250000D01*
G01*
X213621579Y-175726517D01*
G75*
G02*
X213871579Y-175476517I250000J0D01*
G01*
X214821579Y-175476517D01*
G75*
G02*
X215071579Y-175726517I0J-250000D01*
G01*
X215071579Y-176226517D01*
G75*
G02*
X214821579Y-176476517I-250000J0D01*
G01*
G37*
G36*
G01*
X214821579Y-178376517D02*
X213871579Y-178376517D01*
G75*
G02*
X213621579Y-178126517I0J250000D01*
G01*
X213621579Y-177626517D01*
G75*
G02*
X213871579Y-177376517I250000J0D01*
G01*
X214821579Y-177376517D01*
G75*
G02*
X215071579Y-177626517I0J-250000D01*
G01*
X215071579Y-178126517D01*
G75*
G02*
X214821579Y-178376517I-250000J0D01*
G01*
G37*
D25*
X204059579Y-171968517D03*
D26*
X204059579Y-175468517D03*
G36*
G01*
X210649922Y-127892629D02*
X209978171Y-127220878D01*
G75*
G02*
X209978171Y-126867324I176777J176777D01*
G01*
X210331724Y-126513771D01*
G75*
G02*
X210685278Y-126513771I176777J-176777D01*
G01*
X211357029Y-127185522D01*
G75*
G02*
X211357029Y-127539076I-176777J-176777D01*
G01*
X211003476Y-127892629D01*
G75*
G02*
X210649922Y-127892629I-176777J176777D01*
G01*
G37*
G36*
G01*
X209306420Y-129236131D02*
X208634669Y-128564380D01*
G75*
G02*
X208634669Y-128210826I176777J176777D01*
G01*
X208988222Y-127857273D01*
G75*
G02*
X209341776Y-127857273I176777J-176777D01*
G01*
X210013527Y-128529024D01*
G75*
G02*
X210013527Y-128882578I-176777J-176777D01*
G01*
X209659974Y-129236131D01*
G75*
G02*
X209306420Y-129236131I-176777J176777D01*
G01*
G37*
G36*
G01*
X213861673Y-131386478D02*
X213189922Y-130714727D01*
G75*
G02*
X213189922Y-130361173I176777J176777D01*
G01*
X213543475Y-130007620D01*
G75*
G02*
X213897029Y-130007620I176777J-176777D01*
G01*
X214568780Y-130679371D01*
G75*
G02*
X214568780Y-131032925I-176777J-176777D01*
G01*
X214215227Y-131386478D01*
G75*
G02*
X213861673Y-131386478I-176777J176777D01*
G01*
G37*
G36*
G01*
X212518171Y-132729980D02*
X211846420Y-132058229D01*
G75*
G02*
X211846420Y-131704675I176777J176777D01*
G01*
X212199973Y-131351122D01*
G75*
G02*
X212553527Y-131351122I176777J-176777D01*
G01*
X213225278Y-132022873D01*
G75*
G02*
X213225278Y-132376427I-176777J-176777D01*
G01*
X212871725Y-132729980D01*
G75*
G02*
X212518171Y-132729980I-176777J176777D01*
G01*
G37*
G36*
G01*
X193352000Y-89441000D02*
X193352000Y-90391000D01*
G75*
G02*
X193102000Y-90641000I-250000J0D01*
G01*
X192602000Y-90641000D01*
G75*
G02*
X192352000Y-90391000I0J250000D01*
G01*
X192352000Y-89441000D01*
G75*
G02*
X192602000Y-89191000I250000J0D01*
G01*
X193102000Y-89191000D01*
G75*
G02*
X193352000Y-89441000I0J-250000D01*
G01*
G37*
G36*
G01*
X195252000Y-89441000D02*
X195252000Y-90391000D01*
G75*
G02*
X195002000Y-90641000I-250000J0D01*
G01*
X194502000Y-90641000D01*
G75*
G02*
X194252000Y-90391000I0J250000D01*
G01*
X194252000Y-89441000D01*
G75*
G02*
X194502000Y-89191000I250000J0D01*
G01*
X195002000Y-89191000D01*
G75*
G02*
X195252000Y-89441000I0J-250000D01*
G01*
G37*
G36*
G01*
X178620800Y-88613000D02*
X178620800Y-87663000D01*
G75*
G02*
X178870800Y-87413000I250000J0D01*
G01*
X179370800Y-87413000D01*
G75*
G02*
X179620800Y-87663000I0J-250000D01*
G01*
X179620800Y-88613000D01*
G75*
G02*
X179370800Y-88863000I-250000J0D01*
G01*
X178870800Y-88863000D01*
G75*
G02*
X178620800Y-88613000I0J250000D01*
G01*
G37*
G36*
G01*
X176720800Y-88613000D02*
X176720800Y-87663000D01*
G75*
G02*
X176970800Y-87413000I250000J0D01*
G01*
X177470800Y-87413000D01*
G75*
G02*
X177720800Y-87663000I0J-250000D01*
G01*
X177720800Y-88613000D01*
G75*
G02*
X177470800Y-88863000I-250000J0D01*
G01*
X176970800Y-88863000D01*
G75*
G02*
X176720800Y-88613000I0J250000D01*
G01*
G37*
D46*
X214669158Y-170000000D03*
D14*
X181834579Y-99586017D03*
M02*
