M48
; DRILL file {KiCad (5.1.7)-1} date 12/23/20 08:23:29
; FORMAT={-:-/ absolute / inch / decimal}
; #@! TF.CreationDate,2020-12-23T08:23:29-08:00
; #@! TF.GenerationSoftware,Kicad,Pcbnew,(5.1.7)-1
; #@! TF.FileFunction,NonPlated,1,4,NPTH
FMAT,2
INCH
T1C0.0390
T2C0.1285
T3C0.1469
T4C0.1772
T5C0.1772
T6C1.0100
T7C1.1250
T8C1.3750
%
G90
G05
T1
X8.3075Y-6.3025
X8.3075Y-6.3825
X8.5075Y-6.3425
T3
X5.3538Y-5.054
X5.3538Y-6.0382
T4
X8.4515Y-6.6929
T5
X5.8661Y-6.6929
X7.1588Y-3.9207
T6
X7.9588Y-4.3026
X6.3588Y-4.3026
T7
X7.1588Y-5.6082
T8
X7.1588Y-6.9832
T2
G00X7.9088Y-5.1082
M15
G01X8.0089Y-5.2082
M16
G05
G00X7.9088Y-6.1082
M15
G01X8.0089Y-6.0082
M16
G05
G00X8.8088Y-5.2082
M15
G01X8.9089Y-5.1082
M16
G05
G00X8.8088Y-6.0082
M15
G01X8.9089Y-6.1082
M16
G05
T0
M30
