G04 #@! TF.GenerationSoftware,KiCad,Pcbnew,(5.1.7)-1*
G04 #@! TF.CreationDate,2020-12-23T08:23:27-08:00*
G04 #@! TF.ProjectId,LCP_Controller,4c43505f-436f-46e7-9472-6f6c6c65722e,rev?*
G04 #@! TF.SameCoordinates,Original*
G04 #@! TF.FileFunction,Soldermask,Top*
G04 #@! TF.FilePolarity,Negative*
%FSLAX46Y46*%
G04 Gerber Fmt 4.6, Leading zero omitted, Abs format (unit mm)*
G04 Created by KiCad (PCBNEW (5.1.7)-1) date 2020-12-23 08:23:27*
%MOMM*%
%LPD*%
G01*
G04 APERTURE LIST*
%ADD10C,34.925000*%
%ADD11C,28.575000*%
%ADD12C,25.654000*%
%ADD13R,0.325000X0.325000*%
%ADD14R,0.500000X0.400000*%
%ADD15R,0.500000X0.300000*%
%ADD16C,2.000000*%
%ADD17C,2.151380*%
%ADD18R,0.800000X0.900000*%
%ADD19R,2.700000X2.700000*%
%ADD20C,1.600000*%
%ADD21R,1.600000X1.600000*%
%ADD22C,0.100000*%
%ADD23R,1.200000X1.050000*%
%ADD24C,0.270000*%
%ADD25R,0.400000X0.650000*%
%ADD26O,0.400000X0.650000*%
%ADD27R,0.400000X0.300000*%
%ADD28R,2.400000X1.650000*%
%ADD29R,1.000000X0.650000*%
%ADD30O,0.650000X0.400000*%
%ADD31R,0.300000X0.400000*%
%ADD32R,1.650000X2.400000*%
%ADD33R,0.650000X1.000000*%
%ADD34R,0.640000X2.400000*%
%ADD35R,0.700000X0.250000*%
%ADD36R,1.300000X1.500000*%
%ADD37R,0.750000X0.300000*%
%ADD38R,1.050000X0.650000*%
%ADD39R,0.900000X0.400000*%
%ADD40R,0.400000X0.900000*%
%ADD41R,0.900000X0.800000*%
%ADD42O,1.700000X1.700000*%
%ADD43R,1.700000X1.700000*%
%ADD44C,2.250000*%
%ADD45C,2.050000*%
%ADD46C,0.787400*%
%ADD47C,0.990600*%
%ADD48C,4.500000*%
%ADD49C,4.500001*%
%ADD50C,3.730000*%
%ADD51R,0.700000X0.200000*%
G04 APERTURE END LIST*
D10*
X181834579Y-177373517D03*
D11*
X181834579Y-142448517D03*
D12*
X161514579Y-109284962D03*
X202154579Y-109284962D03*
D13*
X211776500Y-140080500D03*
X212276500Y-140080500D03*
X212276500Y-141605500D03*
X211776500Y-141605500D03*
X212789000Y-140093000D03*
X211264000Y-140093000D03*
X212789000Y-141593000D03*
X211264000Y-141593000D03*
X212789000Y-141093000D03*
X212789000Y-140593000D03*
X211264000Y-141093000D03*
X211264000Y-140593000D03*
D14*
X157988000Y-136042400D03*
D15*
X157988000Y-135542400D03*
D14*
X157988000Y-134542400D03*
D15*
X157988000Y-135042400D03*
D14*
X156988000Y-136042400D03*
D15*
X156988000Y-135042400D03*
X156988000Y-135542400D03*
D14*
X156988000Y-134542400D03*
X152044400Y-134339200D03*
D15*
X152044400Y-134839200D03*
D14*
X152044400Y-135839200D03*
D15*
X152044400Y-135339200D03*
D14*
X153044400Y-134339200D03*
D15*
X153044400Y-135339200D03*
X153044400Y-134839200D03*
D14*
X153044400Y-135839200D03*
X158742000Y-131458400D03*
D15*
X158742000Y-130958400D03*
D14*
X158742000Y-129958400D03*
D15*
X158742000Y-130458400D03*
D14*
X157742000Y-131458400D03*
D15*
X157742000Y-130458400D03*
X157742000Y-130958400D03*
D14*
X157742000Y-129958400D03*
X152060400Y-129970400D03*
D15*
X152060400Y-130470400D03*
D14*
X152060400Y-131470400D03*
D15*
X152060400Y-130970400D03*
D14*
X153060400Y-129970400D03*
D15*
X153060400Y-130970400D03*
X153060400Y-130470400D03*
D14*
X153060400Y-131470400D03*
X158597600Y-126526800D03*
D15*
X158597600Y-126026800D03*
D14*
X158597600Y-125026800D03*
D15*
X158597600Y-125526800D03*
D14*
X157597600Y-126526800D03*
D15*
X157597600Y-125526800D03*
X157597600Y-126026800D03*
D14*
X157597600Y-125026800D03*
X152154000Y-124929200D03*
D15*
X152154000Y-125429200D03*
D14*
X152154000Y-126429200D03*
D15*
X152154000Y-125929200D03*
D14*
X153154000Y-124929200D03*
D15*
X153154000Y-125929200D03*
X153154000Y-125429200D03*
D14*
X153154000Y-126429200D03*
D16*
X160934400Y-178574700D03*
X195580000Y-153543000D03*
D17*
X153787899Y-141813517D03*
X133790479Y-141813517D03*
G36*
G01*
X199703000Y-165296002D02*
X199703000Y-164395998D01*
G75*
G02*
X199952998Y-164146000I249998J0D01*
G01*
X200478002Y-164146000D01*
G75*
G02*
X200728000Y-164395998I0J-249998D01*
G01*
X200728000Y-165296002D01*
G75*
G02*
X200478002Y-165546000I-249998J0D01*
G01*
X199952998Y-165546000D01*
G75*
G02*
X199703000Y-165296002I0J249998D01*
G01*
G37*
G36*
G01*
X197878000Y-165296002D02*
X197878000Y-164395998D01*
G75*
G02*
X198127998Y-164146000I249998J0D01*
G01*
X198653002Y-164146000D01*
G75*
G02*
X198903000Y-164395998I0J-249998D01*
G01*
X198903000Y-165296002D01*
G75*
G02*
X198653002Y-165546000I-249998J0D01*
G01*
X198127998Y-165546000D01*
G75*
G02*
X197878000Y-165296002I0J249998D01*
G01*
G37*
D18*
X199326500Y-168767000D03*
X198376500Y-166767000D03*
X200276500Y-166767000D03*
D19*
X158278200Y-169936800D03*
G36*
G01*
X159890700Y-168561800D02*
X160590700Y-168561800D01*
G75*
G02*
X160653200Y-168624300I0J-62500D01*
G01*
X160653200Y-168749300D01*
G75*
G02*
X160590700Y-168811800I-62500J0D01*
G01*
X159890700Y-168811800D01*
G75*
G02*
X159828200Y-168749300I0J62500D01*
G01*
X159828200Y-168624300D01*
G75*
G02*
X159890700Y-168561800I62500J0D01*
G01*
G37*
G36*
G01*
X159890700Y-169061800D02*
X160590700Y-169061800D01*
G75*
G02*
X160653200Y-169124300I0J-62500D01*
G01*
X160653200Y-169249300D01*
G75*
G02*
X160590700Y-169311800I-62500J0D01*
G01*
X159890700Y-169311800D01*
G75*
G02*
X159828200Y-169249300I0J62500D01*
G01*
X159828200Y-169124300D01*
G75*
G02*
X159890700Y-169061800I62500J0D01*
G01*
G37*
G36*
G01*
X159890700Y-169561800D02*
X160590700Y-169561800D01*
G75*
G02*
X160653200Y-169624300I0J-62500D01*
G01*
X160653200Y-169749300D01*
G75*
G02*
X160590700Y-169811800I-62500J0D01*
G01*
X159890700Y-169811800D01*
G75*
G02*
X159828200Y-169749300I0J62500D01*
G01*
X159828200Y-169624300D01*
G75*
G02*
X159890700Y-169561800I62500J0D01*
G01*
G37*
G36*
G01*
X159890700Y-170061800D02*
X160590700Y-170061800D01*
G75*
G02*
X160653200Y-170124300I0J-62500D01*
G01*
X160653200Y-170249300D01*
G75*
G02*
X160590700Y-170311800I-62500J0D01*
G01*
X159890700Y-170311800D01*
G75*
G02*
X159828200Y-170249300I0J62500D01*
G01*
X159828200Y-170124300D01*
G75*
G02*
X159890700Y-170061800I62500J0D01*
G01*
G37*
G36*
G01*
X159890700Y-170561800D02*
X160590700Y-170561800D01*
G75*
G02*
X160653200Y-170624300I0J-62500D01*
G01*
X160653200Y-170749300D01*
G75*
G02*
X160590700Y-170811800I-62500J0D01*
G01*
X159890700Y-170811800D01*
G75*
G02*
X159828200Y-170749300I0J62500D01*
G01*
X159828200Y-170624300D01*
G75*
G02*
X159890700Y-170561800I62500J0D01*
G01*
G37*
G36*
G01*
X159890700Y-171061800D02*
X160590700Y-171061800D01*
G75*
G02*
X160653200Y-171124300I0J-62500D01*
G01*
X160653200Y-171249300D01*
G75*
G02*
X160590700Y-171311800I-62500J0D01*
G01*
X159890700Y-171311800D01*
G75*
G02*
X159828200Y-171249300I0J62500D01*
G01*
X159828200Y-171124300D01*
G75*
G02*
X159890700Y-171061800I62500J0D01*
G01*
G37*
G36*
G01*
X159465700Y-171486800D02*
X159590700Y-171486800D01*
G75*
G02*
X159653200Y-171549300I0J-62500D01*
G01*
X159653200Y-172249300D01*
G75*
G02*
X159590700Y-172311800I-62500J0D01*
G01*
X159465700Y-172311800D01*
G75*
G02*
X159403200Y-172249300I0J62500D01*
G01*
X159403200Y-171549300D01*
G75*
G02*
X159465700Y-171486800I62500J0D01*
G01*
G37*
G36*
G01*
X158965700Y-171486800D02*
X159090700Y-171486800D01*
G75*
G02*
X159153200Y-171549300I0J-62500D01*
G01*
X159153200Y-172249300D01*
G75*
G02*
X159090700Y-172311800I-62500J0D01*
G01*
X158965700Y-172311800D01*
G75*
G02*
X158903200Y-172249300I0J62500D01*
G01*
X158903200Y-171549300D01*
G75*
G02*
X158965700Y-171486800I62500J0D01*
G01*
G37*
G36*
G01*
X158465700Y-171486800D02*
X158590700Y-171486800D01*
G75*
G02*
X158653200Y-171549300I0J-62500D01*
G01*
X158653200Y-172249300D01*
G75*
G02*
X158590700Y-172311800I-62500J0D01*
G01*
X158465700Y-172311800D01*
G75*
G02*
X158403200Y-172249300I0J62500D01*
G01*
X158403200Y-171549300D01*
G75*
G02*
X158465700Y-171486800I62500J0D01*
G01*
G37*
G36*
G01*
X157965700Y-171486800D02*
X158090700Y-171486800D01*
G75*
G02*
X158153200Y-171549300I0J-62500D01*
G01*
X158153200Y-172249300D01*
G75*
G02*
X158090700Y-172311800I-62500J0D01*
G01*
X157965700Y-172311800D01*
G75*
G02*
X157903200Y-172249300I0J62500D01*
G01*
X157903200Y-171549300D01*
G75*
G02*
X157965700Y-171486800I62500J0D01*
G01*
G37*
G36*
G01*
X157465700Y-171486800D02*
X157590700Y-171486800D01*
G75*
G02*
X157653200Y-171549300I0J-62500D01*
G01*
X157653200Y-172249300D01*
G75*
G02*
X157590700Y-172311800I-62500J0D01*
G01*
X157465700Y-172311800D01*
G75*
G02*
X157403200Y-172249300I0J62500D01*
G01*
X157403200Y-171549300D01*
G75*
G02*
X157465700Y-171486800I62500J0D01*
G01*
G37*
G36*
G01*
X156965700Y-171486800D02*
X157090700Y-171486800D01*
G75*
G02*
X157153200Y-171549300I0J-62500D01*
G01*
X157153200Y-172249300D01*
G75*
G02*
X157090700Y-172311800I-62500J0D01*
G01*
X156965700Y-172311800D01*
G75*
G02*
X156903200Y-172249300I0J62500D01*
G01*
X156903200Y-171549300D01*
G75*
G02*
X156965700Y-171486800I62500J0D01*
G01*
G37*
G36*
G01*
X155965700Y-171061800D02*
X156665700Y-171061800D01*
G75*
G02*
X156728200Y-171124300I0J-62500D01*
G01*
X156728200Y-171249300D01*
G75*
G02*
X156665700Y-171311800I-62500J0D01*
G01*
X155965700Y-171311800D01*
G75*
G02*
X155903200Y-171249300I0J62500D01*
G01*
X155903200Y-171124300D01*
G75*
G02*
X155965700Y-171061800I62500J0D01*
G01*
G37*
G36*
G01*
X155965700Y-170561800D02*
X156665700Y-170561800D01*
G75*
G02*
X156728200Y-170624300I0J-62500D01*
G01*
X156728200Y-170749300D01*
G75*
G02*
X156665700Y-170811800I-62500J0D01*
G01*
X155965700Y-170811800D01*
G75*
G02*
X155903200Y-170749300I0J62500D01*
G01*
X155903200Y-170624300D01*
G75*
G02*
X155965700Y-170561800I62500J0D01*
G01*
G37*
G36*
G01*
X155965700Y-170061800D02*
X156665700Y-170061800D01*
G75*
G02*
X156728200Y-170124300I0J-62500D01*
G01*
X156728200Y-170249300D01*
G75*
G02*
X156665700Y-170311800I-62500J0D01*
G01*
X155965700Y-170311800D01*
G75*
G02*
X155903200Y-170249300I0J62500D01*
G01*
X155903200Y-170124300D01*
G75*
G02*
X155965700Y-170061800I62500J0D01*
G01*
G37*
G36*
G01*
X155965700Y-169561800D02*
X156665700Y-169561800D01*
G75*
G02*
X156728200Y-169624300I0J-62500D01*
G01*
X156728200Y-169749300D01*
G75*
G02*
X156665700Y-169811800I-62500J0D01*
G01*
X155965700Y-169811800D01*
G75*
G02*
X155903200Y-169749300I0J62500D01*
G01*
X155903200Y-169624300D01*
G75*
G02*
X155965700Y-169561800I62500J0D01*
G01*
G37*
G36*
G01*
X155965700Y-169061800D02*
X156665700Y-169061800D01*
G75*
G02*
X156728200Y-169124300I0J-62500D01*
G01*
X156728200Y-169249300D01*
G75*
G02*
X156665700Y-169311800I-62500J0D01*
G01*
X155965700Y-169311800D01*
G75*
G02*
X155903200Y-169249300I0J62500D01*
G01*
X155903200Y-169124300D01*
G75*
G02*
X155965700Y-169061800I62500J0D01*
G01*
G37*
G36*
G01*
X155965700Y-168561800D02*
X156665700Y-168561800D01*
G75*
G02*
X156728200Y-168624300I0J-62500D01*
G01*
X156728200Y-168749300D01*
G75*
G02*
X156665700Y-168811800I-62500J0D01*
G01*
X155965700Y-168811800D01*
G75*
G02*
X155903200Y-168749300I0J62500D01*
G01*
X155903200Y-168624300D01*
G75*
G02*
X155965700Y-168561800I62500J0D01*
G01*
G37*
G36*
G01*
X156965700Y-167561800D02*
X157090700Y-167561800D01*
G75*
G02*
X157153200Y-167624300I0J-62500D01*
G01*
X157153200Y-168324300D01*
G75*
G02*
X157090700Y-168386800I-62500J0D01*
G01*
X156965700Y-168386800D01*
G75*
G02*
X156903200Y-168324300I0J62500D01*
G01*
X156903200Y-167624300D01*
G75*
G02*
X156965700Y-167561800I62500J0D01*
G01*
G37*
G36*
G01*
X157465700Y-167561800D02*
X157590700Y-167561800D01*
G75*
G02*
X157653200Y-167624300I0J-62500D01*
G01*
X157653200Y-168324300D01*
G75*
G02*
X157590700Y-168386800I-62500J0D01*
G01*
X157465700Y-168386800D01*
G75*
G02*
X157403200Y-168324300I0J62500D01*
G01*
X157403200Y-167624300D01*
G75*
G02*
X157465700Y-167561800I62500J0D01*
G01*
G37*
G36*
G01*
X157965700Y-167561800D02*
X158090700Y-167561800D01*
G75*
G02*
X158153200Y-167624300I0J-62500D01*
G01*
X158153200Y-168324300D01*
G75*
G02*
X158090700Y-168386800I-62500J0D01*
G01*
X157965700Y-168386800D01*
G75*
G02*
X157903200Y-168324300I0J62500D01*
G01*
X157903200Y-167624300D01*
G75*
G02*
X157965700Y-167561800I62500J0D01*
G01*
G37*
G36*
G01*
X158465700Y-167561800D02*
X158590700Y-167561800D01*
G75*
G02*
X158653200Y-167624300I0J-62500D01*
G01*
X158653200Y-168324300D01*
G75*
G02*
X158590700Y-168386800I-62500J0D01*
G01*
X158465700Y-168386800D01*
G75*
G02*
X158403200Y-168324300I0J62500D01*
G01*
X158403200Y-167624300D01*
G75*
G02*
X158465700Y-167561800I62500J0D01*
G01*
G37*
G36*
G01*
X158965700Y-167561800D02*
X159090700Y-167561800D01*
G75*
G02*
X159153200Y-167624300I0J-62500D01*
G01*
X159153200Y-168324300D01*
G75*
G02*
X159090700Y-168386800I-62500J0D01*
G01*
X158965700Y-168386800D01*
G75*
G02*
X158903200Y-168324300I0J62500D01*
G01*
X158903200Y-167624300D01*
G75*
G02*
X158965700Y-167561800I62500J0D01*
G01*
G37*
G36*
G01*
X159465700Y-167561800D02*
X159590700Y-167561800D01*
G75*
G02*
X159653200Y-167624300I0J-62500D01*
G01*
X159653200Y-168324300D01*
G75*
G02*
X159590700Y-168386800I-62500J0D01*
G01*
X159465700Y-168386800D01*
G75*
G02*
X159403200Y-168324300I0J62500D01*
G01*
X159403200Y-167624300D01*
G75*
G02*
X159465700Y-167561800I62500J0D01*
G01*
G37*
D20*
X204059579Y-180858517D03*
D21*
X204059579Y-184358517D03*
G36*
G01*
X149390258Y-91956119D02*
X149390258Y-91956119D01*
G75*
G02*
X149650436Y-90782531I716883J456705D01*
G01*
X149650436Y-90782531D01*
G75*
G02*
X150824024Y-91042709I456705J-716883D01*
G01*
X150824024Y-91042709D01*
G75*
G02*
X150563846Y-92216297I-716883J-456705D01*
G01*
X150563846Y-92216297D01*
G75*
G02*
X149390258Y-91956119I-456705J716883D01*
G01*
G37*
G36*
G01*
X147248044Y-93320860D02*
X147248044Y-93320860D01*
G75*
G02*
X147508222Y-92147272I716883J456705D01*
G01*
X147508222Y-92147272D01*
G75*
G02*
X148681810Y-92407450I456705J-716883D01*
G01*
X148681810Y-92407450D01*
G75*
G02*
X148421632Y-93581038I-716883J-456705D01*
G01*
X148421632Y-93581038D01*
G75*
G02*
X147248044Y-93320860I-456705J716883D01*
G01*
G37*
G36*
G01*
X148025517Y-89813905D02*
X148025517Y-89813905D01*
G75*
G02*
X148285695Y-88640317I716883J456705D01*
G01*
X148285695Y-88640317D01*
G75*
G02*
X149459283Y-88900495I456705J-716883D01*
G01*
X149459283Y-88900495D01*
G75*
G02*
X149199105Y-90074083I-716883J-456705D01*
G01*
X149199105Y-90074083D01*
G75*
G02*
X148025517Y-89813905I-456705J716883D01*
G01*
G37*
G36*
G01*
X145883303Y-91178646D02*
X145883303Y-91178646D01*
G75*
G02*
X146143481Y-90005058I716883J456705D01*
G01*
X146143481Y-90005058D01*
G75*
G02*
X147317069Y-90265236I456705J-716883D01*
G01*
X147317069Y-90265236D01*
G75*
G02*
X147056891Y-91438824I-716883J-456705D01*
G01*
X147056891Y-91438824D01*
G75*
G02*
X145883303Y-91178646I-456705J716883D01*
G01*
G37*
G36*
G01*
X146660776Y-87671690D02*
X146660776Y-87671690D01*
G75*
G02*
X146920954Y-86498102I716883J456705D01*
G01*
X146920954Y-86498102D01*
G75*
G02*
X148094542Y-86758280I456705J-716883D01*
G01*
X148094542Y-86758280D01*
G75*
G02*
X147834364Y-87931868I-716883J-456705D01*
G01*
X147834364Y-87931868D01*
G75*
G02*
X146660776Y-87671690I-456705J716883D01*
G01*
G37*
G36*
G01*
X144518562Y-89036431D02*
X144518562Y-89036431D01*
G75*
G02*
X144778740Y-87862843I716883J456705D01*
G01*
X144778740Y-87862843D01*
G75*
G02*
X145952328Y-88123021I456705J-716883D01*
G01*
X145952328Y-88123021D01*
G75*
G02*
X145692150Y-89296609I-716883J-456705D01*
G01*
X145692150Y-89296609D01*
G75*
G02*
X144518562Y-89036431I-456705J716883D01*
G01*
G37*
G36*
G01*
X145296035Y-85529476D02*
X145296035Y-85529476D01*
G75*
G02*
X145556213Y-84355888I716883J456705D01*
G01*
X145556213Y-84355888D01*
G75*
G02*
X146729801Y-84616066I456705J-716883D01*
G01*
X146729801Y-84616066D01*
G75*
G02*
X146469623Y-85789654I-716883J-456705D01*
G01*
X146469623Y-85789654D01*
G75*
G02*
X145296035Y-85529476I-456705J716883D01*
G01*
G37*
D22*
G36*
X143610526Y-87611099D02*
G01*
X142697117Y-86177334D01*
X144130882Y-85263925D01*
X145044291Y-86697690D01*
X143610526Y-87611099D01*
G37*
D19*
X160274000Y-151638000D03*
G36*
G01*
X159144000Y-153320500D02*
X159144000Y-153780500D01*
G75*
G02*
X159084000Y-153840500I-60000J0D01*
G01*
X158964000Y-153840500D01*
G75*
G02*
X158904000Y-153780500I0J60000D01*
G01*
X158904000Y-153320500D01*
G75*
G02*
X158964000Y-153260500I60000J0D01*
G01*
X159084000Y-153260500D01*
G75*
G02*
X159144000Y-153320500I0J-60000D01*
G01*
G37*
G36*
G01*
X158651500Y-150328000D02*
X158651500Y-150448000D01*
G75*
G02*
X158591500Y-150508000I-60000J0D01*
G01*
X158131500Y-150508000D01*
G75*
G02*
X158071500Y-150448000I0J60000D01*
G01*
X158071500Y-150328000D01*
G75*
G02*
X158131500Y-150268000I60000J0D01*
G01*
X158591500Y-150268000D01*
G75*
G02*
X158651500Y-150328000I0J-60000D01*
G01*
G37*
G36*
G01*
X161644000Y-149495500D02*
X161644000Y-149955500D01*
G75*
G02*
X161584000Y-150015500I-60000J0D01*
G01*
X161464000Y-150015500D01*
G75*
G02*
X161404000Y-149955500I0J60000D01*
G01*
X161404000Y-149495500D01*
G75*
G02*
X161464000Y-149435500I60000J0D01*
G01*
X161584000Y-149435500D01*
G75*
G02*
X161644000Y-149495500I0J-60000D01*
G01*
G37*
G36*
G01*
X162476500Y-152828000D02*
X162476500Y-152948000D01*
G75*
G02*
X162416500Y-153008000I-60000J0D01*
G01*
X161956500Y-153008000D01*
G75*
G02*
X161896500Y-152948000I0J60000D01*
G01*
X161896500Y-152828000D01*
G75*
G02*
X161956500Y-152768000I60000J0D01*
G01*
X162416500Y-152768000D01*
G75*
G02*
X162476500Y-152828000I0J-60000D01*
G01*
G37*
G36*
G01*
X162476500Y-152328000D02*
X162476500Y-152448000D01*
G75*
G02*
X162416500Y-152508000I-60000J0D01*
G01*
X161956500Y-152508000D01*
G75*
G02*
X161896500Y-152448000I0J60000D01*
G01*
X161896500Y-152328000D01*
G75*
G02*
X161956500Y-152268000I60000J0D01*
G01*
X162416500Y-152268000D01*
G75*
G02*
X162476500Y-152328000I0J-60000D01*
G01*
G37*
G36*
G01*
X162476500Y-151828000D02*
X162476500Y-151948000D01*
G75*
G02*
X162416500Y-152008000I-60000J0D01*
G01*
X161956500Y-152008000D01*
G75*
G02*
X161896500Y-151948000I0J60000D01*
G01*
X161896500Y-151828000D01*
G75*
G02*
X161956500Y-151768000I60000J0D01*
G01*
X162416500Y-151768000D01*
G75*
G02*
X162476500Y-151828000I0J-60000D01*
G01*
G37*
G36*
G01*
X162476500Y-151328000D02*
X162476500Y-151448000D01*
G75*
G02*
X162416500Y-151508000I-60000J0D01*
G01*
X161956500Y-151508000D01*
G75*
G02*
X161896500Y-151448000I0J60000D01*
G01*
X161896500Y-151328000D01*
G75*
G02*
X161956500Y-151268000I60000J0D01*
G01*
X162416500Y-151268000D01*
G75*
G02*
X162476500Y-151328000I0J-60000D01*
G01*
G37*
G36*
G01*
X162476500Y-150828000D02*
X162476500Y-150948000D01*
G75*
G02*
X162416500Y-151008000I-60000J0D01*
G01*
X161956500Y-151008000D01*
G75*
G02*
X161896500Y-150948000I0J60000D01*
G01*
X161896500Y-150828000D01*
G75*
G02*
X161956500Y-150768000I60000J0D01*
G01*
X162416500Y-150768000D01*
G75*
G02*
X162476500Y-150828000I0J-60000D01*
G01*
G37*
G36*
G01*
X162476500Y-150328000D02*
X162476500Y-150448000D01*
G75*
G02*
X162416500Y-150508000I-60000J0D01*
G01*
X161956500Y-150508000D01*
G75*
G02*
X161896500Y-150448000I0J60000D01*
G01*
X161896500Y-150328000D01*
G75*
G02*
X161956500Y-150268000I60000J0D01*
G01*
X162416500Y-150268000D01*
G75*
G02*
X162476500Y-150328000I0J-60000D01*
G01*
G37*
G36*
G01*
X158651500Y-150828000D02*
X158651500Y-150948000D01*
G75*
G02*
X158591500Y-151008000I-60000J0D01*
G01*
X158131500Y-151008000D01*
G75*
G02*
X158071500Y-150948000I0J60000D01*
G01*
X158071500Y-150828000D01*
G75*
G02*
X158131500Y-150768000I60000J0D01*
G01*
X158591500Y-150768000D01*
G75*
G02*
X158651500Y-150828000I0J-60000D01*
G01*
G37*
G36*
G01*
X158651500Y-151328000D02*
X158651500Y-151448000D01*
G75*
G02*
X158591500Y-151508000I-60000J0D01*
G01*
X158131500Y-151508000D01*
G75*
G02*
X158071500Y-151448000I0J60000D01*
G01*
X158071500Y-151328000D01*
G75*
G02*
X158131500Y-151268000I60000J0D01*
G01*
X158591500Y-151268000D01*
G75*
G02*
X158651500Y-151328000I0J-60000D01*
G01*
G37*
G36*
G01*
X158651500Y-151828000D02*
X158651500Y-151948000D01*
G75*
G02*
X158591500Y-152008000I-60000J0D01*
G01*
X158131500Y-152008000D01*
G75*
G02*
X158071500Y-151948000I0J60000D01*
G01*
X158071500Y-151828000D01*
G75*
G02*
X158131500Y-151768000I60000J0D01*
G01*
X158591500Y-151768000D01*
G75*
G02*
X158651500Y-151828000I0J-60000D01*
G01*
G37*
G36*
G01*
X158651500Y-152328000D02*
X158651500Y-152448000D01*
G75*
G02*
X158591500Y-152508000I-60000J0D01*
G01*
X158131500Y-152508000D01*
G75*
G02*
X158071500Y-152448000I0J60000D01*
G01*
X158071500Y-152328000D01*
G75*
G02*
X158131500Y-152268000I60000J0D01*
G01*
X158591500Y-152268000D01*
G75*
G02*
X158651500Y-152328000I0J-60000D01*
G01*
G37*
G36*
G01*
X158651500Y-152828000D02*
X158651500Y-152948000D01*
G75*
G02*
X158591500Y-153008000I-60000J0D01*
G01*
X158131500Y-153008000D01*
G75*
G02*
X158071500Y-152948000I0J60000D01*
G01*
X158071500Y-152828000D01*
G75*
G02*
X158131500Y-152768000I60000J0D01*
G01*
X158591500Y-152768000D01*
G75*
G02*
X158651500Y-152828000I0J-60000D01*
G01*
G37*
G36*
G01*
X159644000Y-153320500D02*
X159644000Y-153780500D01*
G75*
G02*
X159584000Y-153840500I-60000J0D01*
G01*
X159464000Y-153840500D01*
G75*
G02*
X159404000Y-153780500I0J60000D01*
G01*
X159404000Y-153320500D01*
G75*
G02*
X159464000Y-153260500I60000J0D01*
G01*
X159584000Y-153260500D01*
G75*
G02*
X159644000Y-153320500I0J-60000D01*
G01*
G37*
G36*
G01*
X160144000Y-153320500D02*
X160144000Y-153780500D01*
G75*
G02*
X160084000Y-153840500I-60000J0D01*
G01*
X159964000Y-153840500D01*
G75*
G02*
X159904000Y-153780500I0J60000D01*
G01*
X159904000Y-153320500D01*
G75*
G02*
X159964000Y-153260500I60000J0D01*
G01*
X160084000Y-153260500D01*
G75*
G02*
X160144000Y-153320500I0J-60000D01*
G01*
G37*
G36*
G01*
X160644000Y-153320500D02*
X160644000Y-153780500D01*
G75*
G02*
X160584000Y-153840500I-60000J0D01*
G01*
X160464000Y-153840500D01*
G75*
G02*
X160404000Y-153780500I0J60000D01*
G01*
X160404000Y-153320500D01*
G75*
G02*
X160464000Y-153260500I60000J0D01*
G01*
X160584000Y-153260500D01*
G75*
G02*
X160644000Y-153320500I0J-60000D01*
G01*
G37*
G36*
G01*
X161144000Y-153320500D02*
X161144000Y-153780500D01*
G75*
G02*
X161084000Y-153840500I-60000J0D01*
G01*
X160964000Y-153840500D01*
G75*
G02*
X160904000Y-153780500I0J60000D01*
G01*
X160904000Y-153320500D01*
G75*
G02*
X160964000Y-153260500I60000J0D01*
G01*
X161084000Y-153260500D01*
G75*
G02*
X161144000Y-153320500I0J-60000D01*
G01*
G37*
G36*
G01*
X161644000Y-153320500D02*
X161644000Y-153780500D01*
G75*
G02*
X161584000Y-153840500I-60000J0D01*
G01*
X161464000Y-153840500D01*
G75*
G02*
X161404000Y-153780500I0J60000D01*
G01*
X161404000Y-153320500D01*
G75*
G02*
X161464000Y-153260500I60000J0D01*
G01*
X161584000Y-153260500D01*
G75*
G02*
X161644000Y-153320500I0J-60000D01*
G01*
G37*
G36*
G01*
X161144000Y-149495500D02*
X161144000Y-149955500D01*
G75*
G02*
X161084000Y-150015500I-60000J0D01*
G01*
X160964000Y-150015500D01*
G75*
G02*
X160904000Y-149955500I0J60000D01*
G01*
X160904000Y-149495500D01*
G75*
G02*
X160964000Y-149435500I60000J0D01*
G01*
X161084000Y-149435500D01*
G75*
G02*
X161144000Y-149495500I0J-60000D01*
G01*
G37*
G36*
G01*
X160644000Y-149495500D02*
X160644000Y-149955500D01*
G75*
G02*
X160584000Y-150015500I-60000J0D01*
G01*
X160464000Y-150015500D01*
G75*
G02*
X160404000Y-149955500I0J60000D01*
G01*
X160404000Y-149495500D01*
G75*
G02*
X160464000Y-149435500I60000J0D01*
G01*
X160584000Y-149435500D01*
G75*
G02*
X160644000Y-149495500I0J-60000D01*
G01*
G37*
G36*
G01*
X160144000Y-149495500D02*
X160144000Y-149955500D01*
G75*
G02*
X160084000Y-150015500I-60000J0D01*
G01*
X159964000Y-150015500D01*
G75*
G02*
X159904000Y-149955500I0J60000D01*
G01*
X159904000Y-149495500D01*
G75*
G02*
X159964000Y-149435500I60000J0D01*
G01*
X160084000Y-149435500D01*
G75*
G02*
X160144000Y-149495500I0J-60000D01*
G01*
G37*
G36*
G01*
X159644000Y-149495500D02*
X159644000Y-149955500D01*
G75*
G02*
X159584000Y-150015500I-60000J0D01*
G01*
X159464000Y-150015500D01*
G75*
G02*
X159404000Y-149955500I0J60000D01*
G01*
X159404000Y-149495500D01*
G75*
G02*
X159464000Y-149435500I60000J0D01*
G01*
X159584000Y-149435500D01*
G75*
G02*
X159644000Y-149495500I0J-60000D01*
G01*
G37*
G36*
G01*
X159144000Y-149495500D02*
X159144000Y-149955500D01*
G75*
G02*
X159084000Y-150015500I-60000J0D01*
G01*
X158964000Y-150015500D01*
G75*
G02*
X158904000Y-149955500I0J60000D01*
G01*
X158904000Y-149495500D01*
G75*
G02*
X158964000Y-149435500I60000J0D01*
G01*
X159084000Y-149435500D01*
G75*
G02*
X159144000Y-149495500I0J-60000D01*
G01*
G37*
D22*
G36*
X133909974Y-163897008D02*
G01*
X134311791Y-164867082D01*
X132279256Y-165708986D01*
X131877439Y-164738912D01*
X133909974Y-163897008D01*
G37*
G36*
X134232769Y-162193833D02*
G01*
X134615452Y-163117713D01*
X133645379Y-163519531D01*
X133262696Y-162595651D01*
X134232769Y-162193833D01*
G37*
G36*
X132781058Y-161171563D02*
G01*
X133182875Y-162141637D01*
X131150340Y-162983541D01*
X130748523Y-162013467D01*
X132781058Y-161171563D01*
G37*
G36*
G01*
X145385500Y-154467600D02*
X144555500Y-154467600D01*
G75*
G02*
X144453900Y-154366000I0J101600D01*
G01*
X144453900Y-153736000D01*
G75*
G02*
X144555500Y-153634400I101600J0D01*
G01*
X145385500Y-153634400D01*
G75*
G02*
X145487100Y-153736000I0J-101600D01*
G01*
X145487100Y-154366000D01*
G75*
G02*
X145385500Y-154467600I-101600J0D01*
G01*
G37*
G36*
G01*
X145385500Y-156767600D02*
X144555500Y-156767600D01*
G75*
G02*
X144453900Y-156666000I0J101600D01*
G01*
X144453900Y-156036000D01*
G75*
G02*
X144555500Y-155934400I101600J0D01*
G01*
X145385500Y-155934400D01*
G75*
G02*
X145487100Y-156036000I0J-101600D01*
G01*
X145487100Y-156666000D01*
G75*
G02*
X145385500Y-156767600I-101600J0D01*
G01*
G37*
G36*
G01*
X143226500Y-154467600D02*
X142396500Y-154467600D01*
G75*
G02*
X142294900Y-154366000I0J101600D01*
G01*
X142294900Y-153736000D01*
G75*
G02*
X142396500Y-153634400I101600J0D01*
G01*
X143226500Y-153634400D01*
G75*
G02*
X143328100Y-153736000I0J-101600D01*
G01*
X143328100Y-154366000D01*
G75*
G02*
X143226500Y-154467600I-101600J0D01*
G01*
G37*
G36*
G01*
X143226500Y-156767600D02*
X142396500Y-156767600D01*
G75*
G02*
X142294900Y-156666000I0J101600D01*
G01*
X142294900Y-156036000D01*
G75*
G02*
X142396500Y-155934400I101600J0D01*
G01*
X143226500Y-155934400D01*
G75*
G02*
X143328100Y-156036000I0J-101600D01*
G01*
X143328100Y-156666000D01*
G75*
G02*
X143226500Y-156767600I-101600J0D01*
G01*
G37*
D23*
X148844000Y-160020000D03*
X148844000Y-158370000D03*
D24*
X145891000Y-158782000D03*
X145391000Y-158782000D03*
X144891000Y-158782000D03*
X144391000Y-158782000D03*
X143891000Y-158782000D03*
X143391000Y-158782000D03*
X142891000Y-158782000D03*
X142391000Y-158782000D03*
X141891000Y-158782000D03*
X145891000Y-159282000D03*
X141891000Y-159282000D03*
X145891000Y-159782000D03*
X144891000Y-159782000D03*
X144391000Y-159782000D03*
X143891000Y-159782000D03*
X142891000Y-159782000D03*
X141891000Y-159782000D03*
X145891000Y-160282000D03*
X144891000Y-160282000D03*
X144391000Y-160282000D03*
X143391000Y-160282000D03*
X142891000Y-160282000D03*
X141891000Y-160282000D03*
X145891000Y-160782000D03*
X144891000Y-160782000D03*
X142891000Y-160782000D03*
X141891000Y-160782000D03*
X145891000Y-161282000D03*
X144891000Y-161282000D03*
X144391000Y-161282000D03*
X143391000Y-161282000D03*
X142891000Y-161282000D03*
X141891000Y-161282000D03*
X145891000Y-161782000D03*
X144891000Y-161782000D03*
X144391000Y-161782000D03*
X143891000Y-161782000D03*
X143391000Y-161782000D03*
X142891000Y-161782000D03*
X141891000Y-161782000D03*
X145891000Y-162282000D03*
X141891000Y-162282000D03*
X145891000Y-162782000D03*
X145391000Y-162782000D03*
X144891000Y-162782000D03*
X144391000Y-162782000D03*
X143891000Y-162782000D03*
X143391000Y-162782000D03*
X142891000Y-162782000D03*
X142391000Y-162782000D03*
X141891000Y-162782000D03*
D25*
X142953500Y-167701000D03*
X141653500Y-167701000D03*
X142303500Y-165801000D03*
X142303500Y-167701000D03*
X141653500Y-165801000D03*
X142953500Y-165801000D03*
D26*
X166674800Y-164313800D03*
X166024800Y-164313800D03*
D27*
X165374800Y-164513800D03*
X164724800Y-164513800D03*
X164724800Y-161013800D03*
D26*
X165374800Y-161213800D03*
D27*
X166024800Y-161013800D03*
X166674800Y-161013800D03*
D28*
X165699800Y-162763800D03*
D29*
X165074800Y-163213800D03*
X165074800Y-162313800D03*
X166324800Y-163213800D03*
X166324800Y-162313800D03*
D27*
X166674800Y-164513800D03*
X166024800Y-164513800D03*
D26*
X165374800Y-164313800D03*
X164724800Y-164313800D03*
X164724800Y-161213800D03*
D27*
X165374800Y-161013800D03*
D26*
X166024800Y-161213800D03*
X166674800Y-161213800D03*
D30*
X148208400Y-152511400D03*
X148208400Y-151861400D03*
D31*
X148008400Y-151211400D03*
X148008400Y-150561400D03*
X151508400Y-150561400D03*
D30*
X151308400Y-151211400D03*
D31*
X151508400Y-151861400D03*
X151508400Y-152511400D03*
D32*
X149758400Y-151536400D03*
D33*
X149308400Y-150911400D03*
X150208400Y-150911400D03*
X149308400Y-152161400D03*
X150208400Y-152161400D03*
D31*
X148008400Y-152511400D03*
X148008400Y-151861400D03*
D30*
X148208400Y-151211400D03*
X148208400Y-150561400D03*
X151308400Y-150561400D03*
D31*
X151508400Y-151211400D03*
D30*
X151308400Y-151861400D03*
X151308400Y-152511400D03*
D34*
X210409579Y-178643517D03*
D35*
X211334579Y-177643517D03*
X211334579Y-178143517D03*
X211334579Y-178643517D03*
X211334579Y-179143517D03*
X211334579Y-179643517D03*
X209484579Y-179643517D03*
X209484579Y-179143517D03*
X209484579Y-178643517D03*
X209484579Y-178143517D03*
X209484579Y-177643517D03*
D36*
X195255000Y-92335000D03*
D37*
X196705000Y-91585000D03*
X196705000Y-92085000D03*
X196705000Y-92585000D03*
X196705000Y-93085000D03*
X193805000Y-93085000D03*
X193805000Y-92585000D03*
X193805000Y-92085000D03*
X193805000Y-91585000D03*
D16*
X128079500Y-141922500D03*
X141566900Y-106959400D03*
X171094400Y-124206000D03*
X174142400Y-119710200D03*
X129095500Y-153035000D03*
X195707000Y-163830000D03*
X211963000Y-155321000D03*
X157403800Y-178485800D03*
X192557400Y-155371800D03*
X197358000Y-191236600D03*
X215290400Y-185216800D03*
X199999600Y-159689800D03*
X200660000Y-147472400D03*
X217678000Y-176720500D03*
X207645000Y-155321000D03*
X225171000Y-159321500D03*
X218414600Y-162153600D03*
X176326800Y-113055400D03*
X226758500Y-113728500D03*
X231013000Y-121475500D03*
X190246000Y-91694000D03*
X216789000Y-108839000D03*
X176479200Y-107238800D03*
X179146200Y-120294400D03*
X176072800Y-103022400D03*
X177800000Y-94615000D03*
X177800000Y-90805000D03*
X204152500Y-157734000D03*
X169367200Y-127914400D03*
X183896000Y-120396000D03*
X152527000Y-164020500D03*
X216204800Y-140766800D03*
X224612200Y-110109000D03*
X181610000Y-114300000D03*
X207645000Y-146621500D03*
X207733900Y-143154400D03*
X207645000Y-139700000D03*
D38*
X203009500Y-160219500D03*
X207159500Y-160219500D03*
X203009500Y-162369500D03*
X207159500Y-162369500D03*
D39*
X231838500Y-144361000D03*
X231838500Y-145161000D03*
X230138500Y-145161000D03*
X230138500Y-144361000D03*
X220789500Y-165836500D03*
X220789500Y-165036500D03*
X222489500Y-165036500D03*
X222489500Y-165836500D03*
X164654600Y-158604000D03*
X164654600Y-159404000D03*
X162954600Y-159404000D03*
X162954600Y-158604000D03*
X139446000Y-139408000D03*
X139446000Y-140208000D03*
X137746000Y-140208000D03*
X137746000Y-139408000D03*
X144257500Y-139471500D03*
X144257500Y-140271500D03*
X142557500Y-140271500D03*
X142557500Y-139471500D03*
X139483200Y-136302800D03*
X139483200Y-137102800D03*
X137783200Y-137102800D03*
X137783200Y-136302800D03*
X144258400Y-136353600D03*
X144258400Y-137153600D03*
X142558400Y-137153600D03*
X142558400Y-136353600D03*
D40*
X195472000Y-96354000D03*
X194672000Y-96354000D03*
X194672000Y-94654000D03*
X195472000Y-94654000D03*
D39*
X186348000Y-94634000D03*
X186348000Y-93834000D03*
X188048000Y-93834000D03*
X188048000Y-94634000D03*
G36*
G01*
X195193498Y-159173500D02*
X196093502Y-159173500D01*
G75*
G02*
X196343500Y-159423498I0J-249998D01*
G01*
X196343500Y-159948502D01*
G75*
G02*
X196093502Y-160198500I-249998J0D01*
G01*
X195193498Y-160198500D01*
G75*
G02*
X194943500Y-159948502I0J249998D01*
G01*
X194943500Y-159423498D01*
G75*
G02*
X195193498Y-159173500I249998J0D01*
G01*
G37*
G36*
G01*
X195193498Y-157348500D02*
X196093502Y-157348500D01*
G75*
G02*
X196343500Y-157598498I0J-249998D01*
G01*
X196343500Y-158123502D01*
G75*
G02*
X196093502Y-158373500I-249998J0D01*
G01*
X195193498Y-158373500D01*
G75*
G02*
X194943500Y-158123502I0J249998D01*
G01*
X194943500Y-157598498D01*
G75*
G02*
X195193498Y-157348500I249998J0D01*
G01*
G37*
G36*
G01*
X230080398Y-131895800D02*
X230980402Y-131895800D01*
G75*
G02*
X231230400Y-132145798I0J-249998D01*
G01*
X231230400Y-132670802D01*
G75*
G02*
X230980402Y-132920800I-249998J0D01*
G01*
X230080398Y-132920800D01*
G75*
G02*
X229830400Y-132670802I0J249998D01*
G01*
X229830400Y-132145798D01*
G75*
G02*
X230080398Y-131895800I249998J0D01*
G01*
G37*
G36*
G01*
X230080398Y-130070800D02*
X230980402Y-130070800D01*
G75*
G02*
X231230400Y-130320798I0J-249998D01*
G01*
X231230400Y-130845802D01*
G75*
G02*
X230980402Y-131095800I-249998J0D01*
G01*
X230080398Y-131095800D01*
G75*
G02*
X229830400Y-130845802I0J249998D01*
G01*
X229830400Y-130320798D01*
G75*
G02*
X230080398Y-130070800I249998J0D01*
G01*
G37*
G36*
G01*
X219983000Y-156253602D02*
X219983000Y-155353598D01*
G75*
G02*
X220232998Y-155103600I249998J0D01*
G01*
X220758002Y-155103600D01*
G75*
G02*
X221008000Y-155353598I0J-249998D01*
G01*
X221008000Y-156253602D01*
G75*
G02*
X220758002Y-156503600I-249998J0D01*
G01*
X220232998Y-156503600D01*
G75*
G02*
X219983000Y-156253602I0J249998D01*
G01*
G37*
G36*
G01*
X218158000Y-156253602D02*
X218158000Y-155353598D01*
G75*
G02*
X218407998Y-155103600I249998J0D01*
G01*
X218933002Y-155103600D01*
G75*
G02*
X219183000Y-155353598I0J-249998D01*
G01*
X219183000Y-156253602D01*
G75*
G02*
X218933002Y-156503600I-249998J0D01*
G01*
X218407998Y-156503600D01*
G75*
G02*
X218158000Y-156253602I0J249998D01*
G01*
G37*
G36*
G01*
X159607200Y-182644202D02*
X159607200Y-181744198D01*
G75*
G02*
X159857198Y-181494200I249998J0D01*
G01*
X160382202Y-181494200D01*
G75*
G02*
X160632200Y-181744198I0J-249998D01*
G01*
X160632200Y-182644202D01*
G75*
G02*
X160382202Y-182894200I-249998J0D01*
G01*
X159857198Y-182894200D01*
G75*
G02*
X159607200Y-182644202I0J249998D01*
G01*
G37*
G36*
G01*
X157782200Y-182644202D02*
X157782200Y-181744198D01*
G75*
G02*
X158032198Y-181494200I249998J0D01*
G01*
X158557202Y-181494200D01*
G75*
G02*
X158807200Y-181744198I0J-249998D01*
G01*
X158807200Y-182644202D01*
G75*
G02*
X158557202Y-182894200I-249998J0D01*
G01*
X158032198Y-182894200D01*
G75*
G02*
X157782200Y-182644202I0J249998D01*
G01*
G37*
G36*
G01*
X163330200Y-183596702D02*
X163330200Y-182696698D01*
G75*
G02*
X163580198Y-182446700I249998J0D01*
G01*
X164105202Y-182446700D01*
G75*
G02*
X164355200Y-182696698I0J-249998D01*
G01*
X164355200Y-183596702D01*
G75*
G02*
X164105202Y-183846700I-249998J0D01*
G01*
X163580198Y-183846700D01*
G75*
G02*
X163330200Y-183596702I0J249998D01*
G01*
G37*
G36*
G01*
X161505200Y-183596702D02*
X161505200Y-182696698D01*
G75*
G02*
X161755198Y-182446700I249998J0D01*
G01*
X162280202Y-182446700D01*
G75*
G02*
X162530200Y-182696698I0J-249998D01*
G01*
X162530200Y-183596702D01*
G75*
G02*
X162280202Y-183846700I-249998J0D01*
G01*
X161755198Y-183846700D01*
G75*
G02*
X161505200Y-183596702I0J249998D01*
G01*
G37*
G36*
G01*
X205125900Y-165143602D02*
X205125900Y-164243598D01*
G75*
G02*
X205375898Y-163993600I249998J0D01*
G01*
X205900902Y-163993600D01*
G75*
G02*
X206150900Y-164243598I0J-249998D01*
G01*
X206150900Y-165143602D01*
G75*
G02*
X205900902Y-165393600I-249998J0D01*
G01*
X205375898Y-165393600D01*
G75*
G02*
X205125900Y-165143602I0J249998D01*
G01*
G37*
G36*
G01*
X203300900Y-165143602D02*
X203300900Y-164243598D01*
G75*
G02*
X203550898Y-163993600I249998J0D01*
G01*
X204075902Y-163993600D01*
G75*
G02*
X204325900Y-164243598I0J-249998D01*
G01*
X204325900Y-165143602D01*
G75*
G02*
X204075902Y-165393600I-249998J0D01*
G01*
X203550898Y-165393600D01*
G75*
G02*
X203300900Y-165143602I0J249998D01*
G01*
G37*
G36*
G01*
X212510581Y-183300017D02*
X211610577Y-183300017D01*
G75*
G02*
X211360579Y-183050019I0J249998D01*
G01*
X211360579Y-182525015D01*
G75*
G02*
X211610577Y-182275017I249998J0D01*
G01*
X212510581Y-182275017D01*
G75*
G02*
X212760579Y-182525015I0J-249998D01*
G01*
X212760579Y-183050019D01*
G75*
G02*
X212510581Y-183300017I-249998J0D01*
G01*
G37*
G36*
G01*
X212510581Y-185125017D02*
X211610577Y-185125017D01*
G75*
G02*
X211360579Y-184875019I0J249998D01*
G01*
X211360579Y-184350015D01*
G75*
G02*
X211610577Y-184100017I249998J0D01*
G01*
X212510581Y-184100017D01*
G75*
G02*
X212760579Y-184350015I0J-249998D01*
G01*
X212760579Y-184875019D01*
G75*
G02*
X212510581Y-185125017I-249998J0D01*
G01*
G37*
G36*
G01*
X221239935Y-176772474D02*
X220603536Y-177408873D01*
G75*
G02*
X220249986Y-177408873I-176775J176775D01*
G01*
X219878753Y-177037640D01*
G75*
G02*
X219878753Y-176684090I176775J176775D01*
G01*
X220515152Y-176047691D01*
G75*
G02*
X220868702Y-176047691I176775J-176775D01*
G01*
X221239935Y-176418924D01*
G75*
G02*
X221239935Y-176772474I-176775J-176775D01*
G01*
G37*
G36*
G01*
X222530405Y-178062944D02*
X221894006Y-178699343D01*
G75*
G02*
X221540456Y-178699343I-176775J176775D01*
G01*
X221169223Y-178328110D01*
G75*
G02*
X221169223Y-177974560I176775J176775D01*
G01*
X221805622Y-177338161D01*
G75*
G02*
X222159172Y-177338161I176775J-176775D01*
G01*
X222530405Y-177709394D01*
G75*
G02*
X222530405Y-178062944I-176775J-176775D01*
G01*
G37*
G36*
G01*
X209324577Y-184123517D02*
X210224581Y-184123517D01*
G75*
G02*
X210474579Y-184373515I0J-249998D01*
G01*
X210474579Y-184898519D01*
G75*
G02*
X210224581Y-185148517I-249998J0D01*
G01*
X209324577Y-185148517D01*
G75*
G02*
X209074579Y-184898519I0J249998D01*
G01*
X209074579Y-184373515D01*
G75*
G02*
X209324577Y-184123517I249998J0D01*
G01*
G37*
G36*
G01*
X209324577Y-182298517D02*
X210224581Y-182298517D01*
G75*
G02*
X210474579Y-182548515I0J-249998D01*
G01*
X210474579Y-183073519D01*
G75*
G02*
X210224581Y-183323517I-249998J0D01*
G01*
X209324577Y-183323517D01*
G75*
G02*
X209074579Y-183073519I0J249998D01*
G01*
X209074579Y-182548515D01*
G75*
G02*
X209324577Y-182298517I249998J0D01*
G01*
G37*
G36*
G01*
X216159935Y-181494974D02*
X215523536Y-182131373D01*
G75*
G02*
X215169986Y-182131373I-176775J176775D01*
G01*
X214798753Y-181760140D01*
G75*
G02*
X214798753Y-181406590I176775J176775D01*
G01*
X215435152Y-180770191D01*
G75*
G02*
X215788702Y-180770191I176775J-176775D01*
G01*
X216159935Y-181141424D01*
G75*
G02*
X216159935Y-181494974I-176775J-176775D01*
G01*
G37*
G36*
G01*
X217450405Y-182785444D02*
X216814006Y-183421843D01*
G75*
G02*
X216460456Y-183421843I-176775J176775D01*
G01*
X216089223Y-183050610D01*
G75*
G02*
X216089223Y-182697060I176775J176775D01*
G01*
X216725622Y-182060661D01*
G75*
G02*
X217079172Y-182060661I176775J-176775D01*
G01*
X217450405Y-182431894D01*
G75*
G02*
X217450405Y-182785444I-176775J-176775D01*
G01*
G37*
G36*
G01*
X204273998Y-94530500D02*
X205174002Y-94530500D01*
G75*
G02*
X205424000Y-94780498I0J-249998D01*
G01*
X205424000Y-95305502D01*
G75*
G02*
X205174002Y-95555500I-249998J0D01*
G01*
X204273998Y-95555500D01*
G75*
G02*
X204024000Y-95305502I0J249998D01*
G01*
X204024000Y-94780498D01*
G75*
G02*
X204273998Y-94530500I249998J0D01*
G01*
G37*
G36*
G01*
X204273998Y-92705500D02*
X205174002Y-92705500D01*
G75*
G02*
X205424000Y-92955498I0J-249998D01*
G01*
X205424000Y-93480502D01*
G75*
G02*
X205174002Y-93730500I-249998J0D01*
G01*
X204273998Y-93730500D01*
G75*
G02*
X204024000Y-93480502I0J249998D01*
G01*
X204024000Y-92955498D01*
G75*
G02*
X204273998Y-92705500I249998J0D01*
G01*
G37*
G36*
G01*
X182175200Y-110446398D02*
X182175200Y-111346402D01*
G75*
G02*
X181925202Y-111596400I-249998J0D01*
G01*
X181400198Y-111596400D01*
G75*
G02*
X181150200Y-111346402I0J249998D01*
G01*
X181150200Y-110446398D01*
G75*
G02*
X181400198Y-110196400I249998J0D01*
G01*
X181925202Y-110196400D01*
G75*
G02*
X182175200Y-110446398I0J-249998D01*
G01*
G37*
G36*
G01*
X184000200Y-110446398D02*
X184000200Y-111346402D01*
G75*
G02*
X183750202Y-111596400I-249998J0D01*
G01*
X183225198Y-111596400D01*
G75*
G02*
X182975200Y-111346402I0J249998D01*
G01*
X182975200Y-110446398D01*
G75*
G02*
X183225198Y-110196400I249998J0D01*
G01*
X183750202Y-110196400D01*
G75*
G02*
X184000200Y-110446398I0J-249998D01*
G01*
G37*
D41*
X191595500Y-158750000D03*
X193595500Y-157800000D03*
X193595500Y-159700000D03*
X222805500Y-159067500D03*
X220805500Y-160017500D03*
X220805500Y-158117500D03*
D18*
X159334200Y-185937400D03*
X158384200Y-183937400D03*
X160284200Y-183937400D03*
X162956200Y-187115200D03*
X162006200Y-185115200D03*
X163906200Y-185115200D03*
X204685900Y-168567100D03*
X203735900Y-166567100D03*
X205635900Y-166567100D03*
D41*
X200692000Y-92776000D03*
X202692000Y-91826000D03*
X202692000Y-93726000D03*
D18*
X182626000Y-106950000D03*
X183576000Y-108950000D03*
X181676000Y-108950000D03*
D22*
G36*
X219299579Y-181609177D02*
G01*
X218910670Y-181998086D01*
X218910244Y-181997660D01*
X218892896Y-182015009D01*
X218854966Y-182046136D01*
X218814168Y-182073397D01*
X218770894Y-182096527D01*
X218725562Y-182115305D01*
X218678607Y-182129548D01*
X218630482Y-182139121D01*
X218581651Y-182143930D01*
X218532582Y-182143930D01*
X218483752Y-182139121D01*
X218435627Y-182129548D01*
X218388672Y-182115305D01*
X218343339Y-182096527D01*
X218300065Y-182073397D01*
X218259267Y-182046136D01*
X218221337Y-182015009D01*
X218203989Y-181997660D01*
X218203563Y-181998086D01*
X217850010Y-181644533D01*
X217850436Y-181644107D01*
X217833087Y-181626759D01*
X217801960Y-181588829D01*
X217774699Y-181548031D01*
X217751569Y-181504757D01*
X217732791Y-181459424D01*
X217718548Y-181412469D01*
X217708975Y-181364344D01*
X217704166Y-181315514D01*
X217704166Y-181266445D01*
X217708975Y-181217614D01*
X217718548Y-181169489D01*
X217732791Y-181122534D01*
X217751569Y-181077202D01*
X217774699Y-181033928D01*
X217801960Y-180993130D01*
X217833087Y-180955200D01*
X217850436Y-180937852D01*
X217850010Y-180937426D01*
X218238919Y-180548517D01*
X219299579Y-181609177D01*
G37*
G36*
X219476356Y-181432400D02*
G01*
X218415696Y-180371740D01*
X219122802Y-179664634D01*
X220183462Y-180725294D01*
X219476356Y-181432400D01*
G37*
G36*
X219688914Y-179099374D02*
G01*
X219706262Y-179082025D01*
X219744192Y-179050898D01*
X219784990Y-179023637D01*
X219828264Y-179000507D01*
X219873596Y-178981729D01*
X219920551Y-178967486D01*
X219968676Y-178957913D01*
X220017507Y-178953104D01*
X220066576Y-178953104D01*
X220115406Y-178957913D01*
X220163531Y-178967486D01*
X220210486Y-178981729D01*
X220255819Y-179000507D01*
X220299093Y-179023637D01*
X220339891Y-179050898D01*
X220377821Y-179082025D01*
X220395169Y-179099374D01*
X220395595Y-179098948D01*
X220749148Y-179452501D01*
X220748722Y-179452927D01*
X220766071Y-179470275D01*
X220797198Y-179508205D01*
X220824459Y-179549003D01*
X220847589Y-179592277D01*
X220866367Y-179637610D01*
X220880610Y-179684565D01*
X220890183Y-179732690D01*
X220894992Y-179781520D01*
X220894992Y-179830589D01*
X220890183Y-179879420D01*
X220880610Y-179927545D01*
X220866367Y-179974500D01*
X220847589Y-180019832D01*
X220824459Y-180063106D01*
X220797198Y-180103904D01*
X220766071Y-180141834D01*
X220748722Y-180159182D01*
X220749148Y-180159608D01*
X220360239Y-180548517D01*
X219299579Y-179487857D01*
X219688488Y-179098948D01*
X219688914Y-179099374D01*
G37*
G36*
X190246000Y-124899000D02*
G01*
X189496000Y-124399000D01*
X189496000Y-123399000D01*
X190996000Y-123399000D01*
X190996000Y-124399000D01*
X190246000Y-124899000D01*
G37*
G36*
X189496000Y-125849000D02*
G01*
X189496000Y-124699000D01*
X190246000Y-125199000D01*
X190996000Y-124699000D01*
X190996000Y-125849000D01*
X189496000Y-125849000D01*
G37*
G36*
X192786000Y-126042000D02*
G01*
X192036000Y-125542000D01*
X192036000Y-124542000D01*
X193536000Y-124542000D01*
X193536000Y-125542000D01*
X192786000Y-126042000D01*
G37*
G36*
X192036000Y-126992000D02*
G01*
X192036000Y-125842000D01*
X192786000Y-126342000D01*
X193536000Y-125842000D01*
X193536000Y-126992000D01*
X192036000Y-126992000D01*
G37*
G36*
X195326000Y-128328000D02*
G01*
X194576000Y-127828000D01*
X194576000Y-126828000D01*
X196076000Y-126828000D01*
X196076000Y-127828000D01*
X195326000Y-128328000D01*
G37*
G36*
X194576000Y-129278000D02*
G01*
X194576000Y-128128000D01*
X195326000Y-128628000D01*
X196076000Y-128128000D01*
X196076000Y-129278000D01*
X194576000Y-129278000D01*
G37*
G36*
X172417600Y-91224800D02*
G01*
X171917600Y-91224800D01*
X171917600Y-91224198D01*
X171893066Y-91224198D01*
X171844235Y-91219388D01*
X171796110Y-91209816D01*
X171749155Y-91195572D01*
X171703822Y-91176795D01*
X171660549Y-91153664D01*
X171619750Y-91126404D01*
X171581821Y-91095276D01*
X171547124Y-91060579D01*
X171515996Y-91022650D01*
X171488736Y-90981851D01*
X171465605Y-90938578D01*
X171446828Y-90893245D01*
X171432584Y-90846290D01*
X171423012Y-90798165D01*
X171418202Y-90749334D01*
X171418202Y-90724800D01*
X171417600Y-90724800D01*
X171417600Y-90224800D01*
X171418202Y-90224800D01*
X171418202Y-90200266D01*
X171423012Y-90151435D01*
X171432584Y-90103310D01*
X171446828Y-90056355D01*
X171465605Y-90011022D01*
X171488736Y-89967749D01*
X171515996Y-89926950D01*
X171547124Y-89889021D01*
X171581821Y-89854324D01*
X171619750Y-89823196D01*
X171660549Y-89795936D01*
X171703822Y-89772805D01*
X171749155Y-89754028D01*
X171796110Y-89739784D01*
X171844235Y-89730212D01*
X171893066Y-89725402D01*
X171917600Y-89725402D01*
X171917600Y-89724800D01*
X172417600Y-89724800D01*
X172417600Y-91224800D01*
G37*
G36*
X173217600Y-89725402D02*
G01*
X173242134Y-89725402D01*
X173290965Y-89730212D01*
X173339090Y-89739784D01*
X173386045Y-89754028D01*
X173431378Y-89772805D01*
X173474651Y-89795936D01*
X173515450Y-89823196D01*
X173553379Y-89854324D01*
X173588076Y-89889021D01*
X173619204Y-89926950D01*
X173646464Y-89967749D01*
X173669595Y-90011022D01*
X173688372Y-90056355D01*
X173702616Y-90103310D01*
X173712188Y-90151435D01*
X173716998Y-90200266D01*
X173716998Y-90224800D01*
X173717600Y-90224800D01*
X173717600Y-90724800D01*
X173716998Y-90724800D01*
X173716998Y-90749334D01*
X173712188Y-90798165D01*
X173702616Y-90846290D01*
X173688372Y-90893245D01*
X173669595Y-90938578D01*
X173646464Y-90981851D01*
X173619204Y-91022650D01*
X173588076Y-91060579D01*
X173553379Y-91095276D01*
X173515450Y-91126404D01*
X173474651Y-91153664D01*
X173431378Y-91176795D01*
X173386045Y-91195572D01*
X173339090Y-91209816D01*
X173290965Y-91219388D01*
X173242134Y-91224198D01*
X173217600Y-91224198D01*
X173217600Y-91224800D01*
X172717600Y-91224800D01*
X172717600Y-89724800D01*
X173217600Y-89724800D01*
X173217600Y-89725402D01*
G37*
D42*
X245588579Y-159403017D03*
X243048579Y-159403017D03*
X245588579Y-156863017D03*
X243048579Y-156863017D03*
X245588579Y-154323017D03*
X243048579Y-154323017D03*
X245588579Y-151783017D03*
D43*
X243048579Y-151783017D03*
G36*
G01*
X227100779Y-98293716D02*
X227100779Y-98293716D01*
G75*
G02*
X227048345Y-97092778I574252J626686D01*
G01*
X227048345Y-97092778D01*
G75*
G02*
X228249283Y-97040344I626686J-574252D01*
G01*
X228249283Y-97040344D01*
G75*
G02*
X228301717Y-98241282I-574252J-626686D01*
G01*
X228301717Y-98241282D01*
G75*
G02*
X227100779Y-98293716I-626686J574252D01*
G01*
G37*
G36*
G01*
X225384780Y-100166400D02*
X225384780Y-100166400D01*
G75*
G02*
X225332346Y-98965462I574252J626686D01*
G01*
X225332346Y-98965462D01*
G75*
G02*
X226533284Y-98913028I626686J-574252D01*
G01*
X226533284Y-98913028D01*
G75*
G02*
X226585718Y-100113966I-574252J-626686D01*
G01*
X226585718Y-100113966D01*
G75*
G02*
X225384780Y-100166400I-626686J574252D01*
G01*
G37*
G36*
G01*
X225228095Y-96577717D02*
X225228095Y-96577717D01*
G75*
G02*
X225175661Y-95376779I574252J626686D01*
G01*
X225175661Y-95376779D01*
G75*
G02*
X226376599Y-95324345I626686J-574252D01*
G01*
X226376599Y-95324345D01*
G75*
G02*
X226429033Y-96525283I-574252J-626686D01*
G01*
X226429033Y-96525283D01*
G75*
G02*
X225228095Y-96577717I-626686J574252D01*
G01*
G37*
G36*
G01*
X223512096Y-98450401D02*
X223512096Y-98450401D01*
G75*
G02*
X223459662Y-97249463I574252J626686D01*
G01*
X223459662Y-97249463D01*
G75*
G02*
X224660600Y-97197029I626686J-574252D01*
G01*
X224660600Y-97197029D01*
G75*
G02*
X224713034Y-98397967I-574252J-626686D01*
G01*
X224713034Y-98397967D01*
G75*
G02*
X223512096Y-98450401I-626686J574252D01*
G01*
G37*
G36*
G01*
X223355411Y-94861718D02*
X223355411Y-94861718D01*
G75*
G02*
X223302977Y-93660780I574252J626686D01*
G01*
X223302977Y-93660780D01*
G75*
G02*
X224503915Y-93608346I626686J-574252D01*
G01*
X224503915Y-93608346D01*
G75*
G02*
X224556349Y-94809284I-574252J-626686D01*
G01*
X224556349Y-94809284D01*
G75*
G02*
X223355411Y-94861718I-626686J574252D01*
G01*
G37*
G36*
G01*
X221639411Y-96734402D02*
X221639411Y-96734402D01*
G75*
G02*
X221586977Y-95533464I574252J626686D01*
G01*
X221586977Y-95533464D01*
G75*
G02*
X222787915Y-95481030I626686J-574252D01*
G01*
X222787915Y-95481030D01*
G75*
G02*
X222840349Y-96681968I-574252J-626686D01*
G01*
X222840349Y-96681968D01*
G75*
G02*
X221639411Y-96734402I-626686J574252D01*
G01*
G37*
G36*
G01*
X221482726Y-93145719D02*
X221482726Y-93145719D01*
G75*
G02*
X221430292Y-91944781I574252J626686D01*
G01*
X221430292Y-91944781D01*
G75*
G02*
X222631230Y-91892347I626686J-574252D01*
G01*
X222631230Y-91892347D01*
G75*
G02*
X222683664Y-93093285I-574252J-626686D01*
G01*
X222683664Y-93093285D01*
G75*
G02*
X221482726Y-93145719I-626686J574252D01*
G01*
G37*
D22*
G36*
X220393413Y-95592654D02*
G01*
X219140042Y-94444151D01*
X220288545Y-93190780D01*
X221541916Y-94339283D01*
X220393413Y-95592654D01*
G37*
G36*
G01*
X202948113Y-77986528D02*
X202948113Y-77986528D01*
G75*
G02*
X201858657Y-78494550I-798739J290717D01*
G01*
X201858657Y-78494550D01*
G75*
G02*
X201350635Y-77405094I290717J798739D01*
G01*
X201350635Y-77405094D01*
G75*
G02*
X202440091Y-76897072I798739J-290717D01*
G01*
X202440091Y-76897072D01*
G75*
G02*
X202948113Y-77986528I-290717J-798739D01*
G01*
G37*
G36*
G01*
X205334932Y-78855259D02*
X205334932Y-78855259D01*
G75*
G02*
X204245476Y-79363281I-798739J290717D01*
G01*
X204245476Y-79363281D01*
G75*
G02*
X203737454Y-78273825I290717J798739D01*
G01*
X203737454Y-78273825D01*
G75*
G02*
X204826910Y-77765803I798739J-290717D01*
G01*
X204826910Y-77765803D01*
G75*
G02*
X205334932Y-78855259I-290717J-798739D01*
G01*
G37*
G36*
G01*
X202079382Y-80373347D02*
X202079382Y-80373347D01*
G75*
G02*
X200989926Y-80881369I-798739J290717D01*
G01*
X200989926Y-80881369D01*
G75*
G02*
X200481904Y-79791913I290717J798739D01*
G01*
X200481904Y-79791913D01*
G75*
G02*
X201571360Y-79283891I798739J-290717D01*
G01*
X201571360Y-79283891D01*
G75*
G02*
X202079382Y-80373347I-290717J-798739D01*
G01*
G37*
G36*
G01*
X204466201Y-81242078D02*
X204466201Y-81242078D01*
G75*
G02*
X203376745Y-81750100I-798739J290717D01*
G01*
X203376745Y-81750100D01*
G75*
G02*
X202868723Y-80660644I290717J798739D01*
G01*
X202868723Y-80660644D01*
G75*
G02*
X203958179Y-80152622I798739J-290717D01*
G01*
X203958179Y-80152622D01*
G75*
G02*
X204466201Y-81242078I-290717J-798739D01*
G01*
G37*
G36*
G01*
X201210651Y-82760167D02*
X201210651Y-82760167D01*
G75*
G02*
X200121195Y-83268189I-798739J290717D01*
G01*
X200121195Y-83268189D01*
G75*
G02*
X199613173Y-82178733I290717J798739D01*
G01*
X199613173Y-82178733D01*
G75*
G02*
X200702629Y-81670711I798739J-290717D01*
G01*
X200702629Y-81670711D01*
G75*
G02*
X201210651Y-82760167I-290717J-798739D01*
G01*
G37*
G36*
G01*
X203597470Y-83628898D02*
X203597470Y-83628898D01*
G75*
G02*
X202508014Y-84136920I-798739J290717D01*
G01*
X202508014Y-84136920D01*
G75*
G02*
X201999992Y-83047464I290717J798739D01*
G01*
X201999992Y-83047464D01*
G75*
G02*
X203089448Y-82539442I798739J-290717D01*
G01*
X203089448Y-82539442D01*
G75*
G02*
X203597470Y-83628898I-290717J-798739D01*
G01*
G37*
G36*
G01*
X200341920Y-85146986D02*
X200341920Y-85146986D01*
G75*
G02*
X199252464Y-85655008I-798739J290717D01*
G01*
X199252464Y-85655008D01*
G75*
G02*
X198744442Y-84565552I290717J798739D01*
G01*
X198744442Y-84565552D01*
G75*
G02*
X199833898Y-84057530I798739J-290717D01*
G01*
X199833898Y-84057530D01*
G75*
G02*
X200341920Y-85146986I-290717J-798739D01*
G01*
G37*
G36*
X203019456Y-85216978D02*
G01*
X202438022Y-86814456D01*
X200840544Y-86233022D01*
X201421978Y-84635544D01*
X203019456Y-85216978D01*
G37*
G36*
G01*
X209053858Y-88886029D02*
X209053858Y-88886029D01*
G75*
G02*
X210200303Y-88524556I753959J-392486D01*
G01*
X210200303Y-88524556D01*
G75*
G02*
X210561776Y-89671001I-392486J-753959D01*
G01*
X210561776Y-89671001D01*
G75*
G02*
X209415331Y-90032474I-753959J392486D01*
G01*
X209415331Y-90032474D01*
G75*
G02*
X209053858Y-88886029I392486J753959D01*
G01*
G37*
G36*
G01*
X206800851Y-87713188D02*
X206800851Y-87713188D01*
G75*
G02*
X207947296Y-87351715I753959J-392486D01*
G01*
X207947296Y-87351715D01*
G75*
G02*
X208308769Y-88498160I-392486J-753959D01*
G01*
X208308769Y-88498160D01*
G75*
G02*
X207162324Y-88859633I-753959J392486D01*
G01*
X207162324Y-88859633D01*
G75*
G02*
X206800851Y-87713188I392486J753959D01*
G01*
G37*
G36*
G01*
X210226700Y-86633022D02*
X210226700Y-86633022D01*
G75*
G02*
X211373145Y-86271549I753959J-392486D01*
G01*
X211373145Y-86271549D01*
G75*
G02*
X211734618Y-87417994I-392486J-753959D01*
G01*
X211734618Y-87417994D01*
G75*
G02*
X210588173Y-87779467I-753959J392486D01*
G01*
X210588173Y-87779467D01*
G75*
G02*
X210226700Y-86633022I392486J753959D01*
G01*
G37*
G36*
G01*
X207973692Y-85460180D02*
X207973692Y-85460180D01*
G75*
G02*
X209120137Y-85098707I753959J-392486D01*
G01*
X209120137Y-85098707D01*
G75*
G02*
X209481610Y-86245152I-392486J-753959D01*
G01*
X209481610Y-86245152D01*
G75*
G02*
X208335165Y-86606625I-753959J392486D01*
G01*
X208335165Y-86606625D01*
G75*
G02*
X207973692Y-85460180I392486J753959D01*
G01*
G37*
G36*
G01*
X211399541Y-84380014D02*
X211399541Y-84380014D01*
G75*
G02*
X212545986Y-84018541I753959J-392486D01*
G01*
X212545986Y-84018541D01*
G75*
G02*
X212907459Y-85164986I-392486J-753959D01*
G01*
X212907459Y-85164986D01*
G75*
G02*
X211761014Y-85526459I-753959J392486D01*
G01*
X211761014Y-85526459D01*
G75*
G02*
X211399541Y-84380014I392486J753959D01*
G01*
G37*
G36*
G01*
X209146534Y-83207173D02*
X209146534Y-83207173D01*
G75*
G02*
X210292979Y-82845700I753959J-392486D01*
G01*
X210292979Y-82845700D01*
G75*
G02*
X210654452Y-83992145I-392486J-753959D01*
G01*
X210654452Y-83992145D01*
G75*
G02*
X209508007Y-84353618I-753959J392486D01*
G01*
X209508007Y-84353618D01*
G75*
G02*
X209146534Y-83207173I392486J753959D01*
G01*
G37*
G36*
G01*
X212572383Y-82127006D02*
X212572383Y-82127006D01*
G75*
G02*
X213718828Y-81765533I753959J-392486D01*
G01*
X213718828Y-81765533D01*
G75*
G02*
X214080301Y-82911978I-392486J-753959D01*
G01*
X214080301Y-82911978D01*
G75*
G02*
X212933856Y-83273451I-753959J392486D01*
G01*
X212933856Y-83273451D01*
G75*
G02*
X212572383Y-82127006I392486J753959D01*
G01*
G37*
G36*
X209926888Y-81708124D02*
G01*
X210711861Y-80200205D01*
X212219780Y-80985178D01*
X211434807Y-82493097D01*
X209926888Y-81708124D01*
G37*
G36*
G01*
X157730705Y-190791622D02*
X157730705Y-190791622D01*
G75*
G02*
X157419583Y-189630500I425000J736122D01*
G01*
X157419583Y-189630500D01*
G75*
G02*
X158580705Y-189319378I736122J-425000D01*
G01*
X158580705Y-189319378D01*
G75*
G02*
X158891827Y-190480500I-425000J-736122D01*
G01*
X158891827Y-190480500D01*
G75*
G02*
X157730705Y-190791622I-736122J425000D01*
G01*
G37*
G36*
G01*
X155531000Y-189521622D02*
X155531000Y-189521622D01*
G75*
G02*
X155219878Y-188360500I425000J736122D01*
G01*
X155219878Y-188360500D01*
G75*
G02*
X156381000Y-188049378I736122J-425000D01*
G01*
X156381000Y-188049378D01*
G75*
G02*
X156692122Y-189210500I-425000J-736122D01*
G01*
X156692122Y-189210500D01*
G75*
G02*
X155531000Y-189521622I-736122J425000D01*
G01*
G37*
G36*
G01*
X153331296Y-188251622D02*
X153331296Y-188251622D01*
G75*
G02*
X153020174Y-187090500I425000J736122D01*
G01*
X153020174Y-187090500D01*
G75*
G02*
X154181296Y-186779378I736122J-425000D01*
G01*
X154181296Y-186779378D01*
G75*
G02*
X154492418Y-187940500I-425000J-736122D01*
G01*
X154492418Y-187940500D01*
G75*
G02*
X153331296Y-188251622I-736122J425000D01*
G01*
G37*
G36*
X151867713Y-187406622D02*
G01*
X150395469Y-186556622D01*
X151245469Y-185084378D01*
X152717713Y-185934378D01*
X151867713Y-187406622D01*
G37*
G36*
G01*
X170040907Y-194604338D02*
X170040907Y-194604338D01*
G75*
G02*
X169439866Y-193563305I219996J821037D01*
G01*
X169439866Y-193563305D01*
G75*
G02*
X170480899Y-192962264I821037J-219996D01*
G01*
X170480899Y-192962264D01*
G75*
G02*
X171081940Y-194003297I-219996J-821037D01*
G01*
X171081940Y-194003297D01*
G75*
G02*
X170040907Y-194604338I-821037J219996D01*
G01*
G37*
G36*
G01*
X167587455Y-193946938D02*
X167587455Y-193946938D01*
G75*
G02*
X166986414Y-192905905I219996J821037D01*
G01*
X166986414Y-192905905D01*
G75*
G02*
X168027447Y-192304864I821037J-219996D01*
G01*
X168027447Y-192304864D01*
G75*
G02*
X168628488Y-193345897I-219996J-821037D01*
G01*
X168628488Y-193345897D01*
G75*
G02*
X167587455Y-193946938I-821037J219996D01*
G01*
G37*
G36*
G01*
X165134004Y-193289537D02*
X165134004Y-193289537D01*
G75*
G02*
X164532963Y-192248504I219996J821037D01*
G01*
X164532963Y-192248504D01*
G75*
G02*
X165573996Y-191647463I821037J-219996D01*
G01*
X165573996Y-191647463D01*
G75*
G02*
X166175037Y-192688496I-219996J-821037D01*
G01*
X166175037Y-192688496D01*
G75*
G02*
X165134004Y-193289537I-821037J219996D01*
G01*
G37*
G36*
X163501589Y-192852133D02*
G01*
X161859515Y-192412141D01*
X162299507Y-190770067D01*
X163941581Y-191210059D01*
X163501589Y-192852133D01*
G37*
G36*
G01*
X233538764Y-132507899D02*
X233538764Y-132507899D01*
G75*
G02*
X234139805Y-131466866I821037J219996D01*
G01*
X234139805Y-131466866D01*
G75*
G02*
X235180838Y-132067907I219996J-821037D01*
G01*
X235180838Y-132067907D01*
G75*
G02*
X234579797Y-133108940I-821037J-219996D01*
G01*
X234579797Y-133108940D01*
G75*
G02*
X233538764Y-132507899I-219996J821037D01*
G01*
G37*
G36*
G01*
X232881364Y-130054447D02*
X232881364Y-130054447D01*
G75*
G02*
X233482405Y-129013414I821037J219996D01*
G01*
X233482405Y-129013414D01*
G75*
G02*
X234523438Y-129614455I219996J-821037D01*
G01*
X234523438Y-129614455D01*
G75*
G02*
X233922397Y-130655488I-821037J-219996D01*
G01*
X233922397Y-130655488D01*
G75*
G02*
X232881364Y-130054447I-219996J821037D01*
G01*
G37*
G36*
G01*
X232223963Y-127600996D02*
X232223963Y-127600996D01*
G75*
G02*
X232825004Y-126559963I821037J219996D01*
G01*
X232825004Y-126559963D01*
G75*
G02*
X233866037Y-127161004I219996J-821037D01*
G01*
X233866037Y-127161004D01*
G75*
G02*
X233264996Y-128202037I-821037J-219996D01*
G01*
X233264996Y-128202037D01*
G75*
G02*
X232223963Y-127600996I-219996J821037D01*
G01*
G37*
G36*
X231786559Y-125968581D02*
G01*
X231346567Y-124326507D01*
X232988641Y-123886515D01*
X233428633Y-125528589D01*
X231786559Y-125968581D01*
G37*
G36*
G01*
X195154636Y-195322488D02*
X195154636Y-195322488D01*
G75*
G02*
X194169948Y-194633002I-147601J837087D01*
G01*
X194169948Y-194633002D01*
G75*
G02*
X194859434Y-193648314I837087J147601D01*
G01*
X194859434Y-193648314D01*
G75*
G02*
X195844122Y-194337800I147601J-837087D01*
G01*
X195844122Y-194337800D01*
G75*
G02*
X195154636Y-195322488I-837087J-147601D01*
G01*
G37*
G36*
G01*
X192653224Y-195763554D02*
X192653224Y-195763554D01*
G75*
G02*
X191668536Y-195074068I-147601J837087D01*
G01*
X191668536Y-195074068D01*
G75*
G02*
X192358022Y-194089380I837087J147601D01*
G01*
X192358022Y-194089380D01*
G75*
G02*
X193342710Y-194778866I147601J-837087D01*
G01*
X193342710Y-194778866D01*
G75*
G02*
X192653224Y-195763554I-837087J-147601D01*
G01*
G37*
G36*
G01*
X190151813Y-196204621D02*
X190151813Y-196204621D01*
G75*
G02*
X189167125Y-195515135I-147601J837087D01*
G01*
X189167125Y-195515135D01*
G75*
G02*
X189856611Y-194530447I837087J147601D01*
G01*
X189856611Y-194530447D01*
G75*
G02*
X190841299Y-195219933I147601J-837087D01*
G01*
X190841299Y-195219933D01*
G75*
G02*
X190151813Y-196204621I-837087J-147601D01*
G01*
G37*
G36*
X188487488Y-196498086D02*
G01*
X186813314Y-196793288D01*
X186518112Y-195119114D01*
X188192286Y-194823912D01*
X188487488Y-196498086D01*
G37*
G36*
G01*
X188412300Y-80464402D02*
X188412300Y-80464402D01*
G75*
G02*
X187600185Y-79578135I37076J849191D01*
G01*
X187600185Y-79578135D01*
G75*
G02*
X188486452Y-78766020I849191J-37076D01*
G01*
X188486452Y-78766020D01*
G75*
G02*
X189298567Y-79652287I-37076J-849191D01*
G01*
X189298567Y-79652287D01*
G75*
G02*
X188412300Y-80464402I-849191J37076D01*
G01*
G37*
G36*
G01*
X188301506Y-83001985D02*
X188301506Y-83001985D01*
G75*
G02*
X187489391Y-82115718I37076J849191D01*
G01*
X187489391Y-82115718D01*
G75*
G02*
X188375658Y-81303603I849191J-37076D01*
G01*
X188375658Y-81303603D01*
G75*
G02*
X189187773Y-82189870I-37076J-849191D01*
G01*
X189187773Y-82189870D01*
G75*
G02*
X188301506Y-83001985I-849191J37076D01*
G01*
G37*
G36*
G01*
X185874717Y-80353609D02*
X185874717Y-80353609D01*
G75*
G02*
X185062602Y-79467342I37076J849191D01*
G01*
X185062602Y-79467342D01*
G75*
G02*
X185948869Y-78655227I849191J-37076D01*
G01*
X185948869Y-78655227D01*
G75*
G02*
X186760984Y-79541494I-37076J-849191D01*
G01*
X186760984Y-79541494D01*
G75*
G02*
X185874717Y-80353609I-849191J37076D01*
G01*
G37*
G36*
G01*
X185763924Y-82891191D02*
X185763924Y-82891191D01*
G75*
G02*
X184951809Y-82004924I37076J849191D01*
G01*
X184951809Y-82004924D01*
G75*
G02*
X185838076Y-81192809I849191J-37076D01*
G01*
X185838076Y-81192809D01*
G75*
G02*
X186650191Y-82079076I-37076J-849191D01*
G01*
X186650191Y-82079076D01*
G75*
G02*
X185763924Y-82891191I-849191J37076D01*
G01*
G37*
G36*
G01*
X183337135Y-80242816D02*
X183337135Y-80242816D01*
G75*
G02*
X182525020Y-79356549I37076J849191D01*
G01*
X182525020Y-79356549D01*
G75*
G02*
X183411287Y-78544434I849191J-37076D01*
G01*
X183411287Y-78544434D01*
G75*
G02*
X184223402Y-79430701I-37076J-849191D01*
G01*
X184223402Y-79430701D01*
G75*
G02*
X183337135Y-80242816I-849191J37076D01*
G01*
G37*
G36*
G01*
X183226341Y-82780398D02*
X183226341Y-82780398D01*
G75*
G02*
X182414226Y-81894131I37076J849191D01*
G01*
X182414226Y-81894131D01*
G75*
G02*
X183300493Y-81082016I849191J-37076D01*
G01*
X183300493Y-81082016D01*
G75*
G02*
X184112608Y-81968283I-37076J-849191D01*
G01*
X184112608Y-81968283D01*
G75*
G02*
X183226341Y-82780398I-849191J37076D01*
G01*
G37*
G36*
G01*
X180799552Y-80132023D02*
X180799552Y-80132023D01*
G75*
G02*
X179987437Y-79245756I37076J849191D01*
G01*
X179987437Y-79245756D01*
G75*
G02*
X180873704Y-78433641I849191J-37076D01*
G01*
X180873704Y-78433641D01*
G75*
G02*
X181685819Y-79319908I-37076J-849191D01*
G01*
X181685819Y-79319908D01*
G75*
G02*
X180799552Y-80132023I-849191J37076D01*
G01*
G37*
G36*
X181537950Y-82706681D02*
G01*
X179839568Y-82632529D01*
X179913720Y-80934147D01*
X181612102Y-81008299D01*
X181537950Y-82706681D01*
G37*
G36*
G01*
X208299647Y-190044512D02*
X208299647Y-190044512D01*
G75*
G02*
X207170059Y-189633376I-359226J770362D01*
G01*
X207170059Y-189633376D01*
G75*
G02*
X207581195Y-188503788I770362J359226D01*
G01*
X207581195Y-188503788D01*
G75*
G02*
X208710783Y-188914924I359226J-770362D01*
G01*
X208710783Y-188914924D01*
G75*
G02*
X208299647Y-190044512I-770362J-359226D01*
G01*
G37*
G36*
G01*
X205997626Y-191117962D02*
X205997626Y-191117962D01*
G75*
G02*
X204868038Y-190706826I-359226J770362D01*
G01*
X204868038Y-190706826D01*
G75*
G02*
X205279174Y-189577238I770362J359226D01*
G01*
X205279174Y-189577238D01*
G75*
G02*
X206408762Y-189988374I359226J-770362D01*
G01*
X206408762Y-189988374D01*
G75*
G02*
X205997626Y-191117962I-770362J-359226D01*
G01*
G37*
G36*
G01*
X203695604Y-192191413D02*
X203695604Y-192191413D01*
G75*
G02*
X202566016Y-191780277I-359226J770362D01*
G01*
X202566016Y-191780277D01*
G75*
G02*
X202977152Y-190650689I770362J359226D01*
G01*
X202977152Y-190650689D01*
G75*
G02*
X204106740Y-191061825I359226J-770362D01*
G01*
X204106740Y-191061825D01*
G75*
G02*
X203695604Y-192191413I-770362J-359226D01*
G01*
G37*
G36*
X202163943Y-192905637D02*
G01*
X200623220Y-193624088D01*
X199904769Y-192083365D01*
X201445492Y-191364914D01*
X202163943Y-192905637D01*
G37*
D44*
X151892000Y-181927500D03*
X146812000Y-181927500D03*
X146812000Y-176847500D03*
X151892000Y-176847500D03*
D45*
X149352000Y-179387500D03*
G36*
G01*
X130621392Y-105123821D02*
X130621392Y-105123821D01*
G75*
G02*
X129447804Y-105383999I-716883J456705D01*
G01*
X129447804Y-105383999D01*
G75*
G02*
X129187626Y-104210411I456705J716883D01*
G01*
X129187626Y-104210411D01*
G75*
G02*
X130361214Y-103950233I716883J-456705D01*
G01*
X130361214Y-103950233D01*
G75*
G02*
X130621392Y-105123821I-456705J-716883D01*
G01*
G37*
G36*
G01*
X132763606Y-106488562D02*
X132763606Y-106488562D01*
G75*
G02*
X131590018Y-106748740I-716883J456705D01*
G01*
X131590018Y-106748740D01*
G75*
G02*
X131329840Y-105575152I456705J716883D01*
G01*
X131329840Y-105575152D01*
G75*
G02*
X132503428Y-105314974I716883J-456705D01*
G01*
X132503428Y-105314974D01*
G75*
G02*
X132763606Y-106488562I-456705J-716883D01*
G01*
G37*
G36*
G01*
X129256651Y-107266035D02*
X129256651Y-107266035D01*
G75*
G02*
X128083063Y-107526213I-716883J456705D01*
G01*
X128083063Y-107526213D01*
G75*
G02*
X127822885Y-106352625I456705J716883D01*
G01*
X127822885Y-106352625D01*
G75*
G02*
X128996473Y-106092447I716883J-456705D01*
G01*
X128996473Y-106092447D01*
G75*
G02*
X129256651Y-107266035I-456705J-716883D01*
G01*
G37*
G36*
G01*
X131398865Y-108630776D02*
X131398865Y-108630776D01*
G75*
G02*
X130225277Y-108890954I-716883J456705D01*
G01*
X130225277Y-108890954D01*
G75*
G02*
X129965099Y-107717366I456705J716883D01*
G01*
X129965099Y-107717366D01*
G75*
G02*
X131138687Y-107457188I716883J-456705D01*
G01*
X131138687Y-107457188D01*
G75*
G02*
X131398865Y-108630776I-456705J-716883D01*
G01*
G37*
G36*
G01*
X127891910Y-109408250D02*
X127891910Y-109408250D01*
G75*
G02*
X126718322Y-109668428I-716883J456705D01*
G01*
X126718322Y-109668428D01*
G75*
G02*
X126458144Y-108494840I456705J716883D01*
G01*
X126458144Y-108494840D01*
G75*
G02*
X127631732Y-108234662I716883J-456705D01*
G01*
X127631732Y-108234662D01*
G75*
G02*
X127891910Y-109408250I-456705J-716883D01*
G01*
G37*
G36*
G01*
X130034124Y-110772991D02*
X130034124Y-110772991D01*
G75*
G02*
X128860536Y-111033169I-716883J456705D01*
G01*
X128860536Y-111033169D01*
G75*
G02*
X128600358Y-109859581I456705J716883D01*
G01*
X128600358Y-109859581D01*
G75*
G02*
X129773946Y-109599403I716883J-456705D01*
G01*
X129773946Y-109599403D01*
G75*
G02*
X130034124Y-110772991I-456705J-716883D01*
G01*
G37*
G36*
G01*
X126527169Y-111550464D02*
X126527169Y-111550464D01*
G75*
G02*
X125353581Y-111810642I-716883J456705D01*
G01*
X125353581Y-111810642D01*
G75*
G02*
X125093403Y-110637054I456705J716883D01*
G01*
X125093403Y-110637054D01*
G75*
G02*
X126266991Y-110376876I716883J-456705D01*
G01*
X126266991Y-110376876D01*
G75*
G02*
X126527169Y-111550464I-456705J-716883D01*
G01*
G37*
D22*
G36*
X129126087Y-112198322D02*
G01*
X128212678Y-113632087D01*
X126778913Y-112718678D01*
X127692322Y-111284913D01*
X129126087Y-112198322D01*
G37*
G36*
G01*
X166307694Y-80382942D02*
X166307694Y-80382942D01*
G75*
G02*
X165241435Y-79827883I-255600J810659D01*
G01*
X165241435Y-79827883D01*
G75*
G02*
X165796494Y-78761624I810659J255600D01*
G01*
X165796494Y-78761624D01*
G75*
G02*
X166862753Y-79316683I255600J-810659D01*
G01*
X166862753Y-79316683D01*
G75*
G02*
X166307694Y-80382942I-810659J-255600D01*
G01*
G37*
G36*
G01*
X167071487Y-82805383D02*
X167071487Y-82805383D01*
G75*
G02*
X166005228Y-82250324I-255600J810659D01*
G01*
X166005228Y-82250324D01*
G75*
G02*
X166560287Y-81184065I810659J255600D01*
G01*
X166560287Y-81184065D01*
G75*
G02*
X167626546Y-81739124I255600J-810659D01*
G01*
X167626546Y-81739124D01*
G75*
G02*
X167071487Y-82805383I-810659J-255600D01*
G01*
G37*
G36*
G01*
X163885253Y-81146734D02*
X163885253Y-81146734D01*
G75*
G02*
X162818994Y-80591675I-255600J810659D01*
G01*
X162818994Y-80591675D01*
G75*
G02*
X163374053Y-79525416I810659J255600D01*
G01*
X163374053Y-79525416D01*
G75*
G02*
X164440312Y-80080475I255600J-810659D01*
G01*
X164440312Y-80080475D01*
G75*
G02*
X163885253Y-81146734I-810659J-255600D01*
G01*
G37*
G36*
G01*
X164649046Y-83569176D02*
X164649046Y-83569176D01*
G75*
G02*
X163582787Y-83014117I-255600J810659D01*
G01*
X163582787Y-83014117D01*
G75*
G02*
X164137846Y-81947858I810659J255600D01*
G01*
X164137846Y-81947858D01*
G75*
G02*
X165204105Y-82502917I255600J-810659D01*
G01*
X165204105Y-82502917D01*
G75*
G02*
X164649046Y-83569176I-810659J-255600D01*
G01*
G37*
G36*
G01*
X161462812Y-81910527D02*
X161462812Y-81910527D01*
G75*
G02*
X160396553Y-81355468I-255600J810659D01*
G01*
X160396553Y-81355468D01*
G75*
G02*
X160951612Y-80289209I810659J255600D01*
G01*
X160951612Y-80289209D01*
G75*
G02*
X162017871Y-80844268I255600J-810659D01*
G01*
X162017871Y-80844268D01*
G75*
G02*
X161462812Y-81910527I-810659J-255600D01*
G01*
G37*
G36*
G01*
X162226605Y-84332968D02*
X162226605Y-84332968D01*
G75*
G02*
X161160346Y-83777909I-255600J810659D01*
G01*
X161160346Y-83777909D01*
G75*
G02*
X161715405Y-82711650I810659J255600D01*
G01*
X161715405Y-82711650D01*
G75*
G02*
X162781664Y-83266709I255600J-810659D01*
G01*
X162781664Y-83266709D01*
G75*
G02*
X162226605Y-84332968I-810659J-255600D01*
G01*
G37*
G36*
G01*
X159040371Y-82674320D02*
X159040371Y-82674320D01*
G75*
G02*
X157974112Y-82119261I-255600J810659D01*
G01*
X157974112Y-82119261D01*
G75*
G02*
X158529171Y-81053002I810659J255600D01*
G01*
X158529171Y-81053002D01*
G75*
G02*
X159595430Y-81608061I255600J-810659D01*
G01*
X159595430Y-81608061D01*
G75*
G02*
X159040371Y-82674320I-810659J-255600D01*
G01*
G37*
G36*
X160614823Y-84841161D02*
G01*
X158993505Y-85352361D01*
X158482305Y-83731043D01*
X160103623Y-83219843D01*
X160614823Y-84841161D01*
G37*
G36*
G01*
X136303204Y-92399294D02*
X136303204Y-92399294D01*
G75*
G02*
X136250770Y-93600232I-626686J-574252D01*
G01*
X136250770Y-93600232D01*
G75*
G02*
X135049832Y-93547798I-574252J626686D01*
G01*
X135049832Y-93547798D01*
G75*
G02*
X135102266Y-92346860I626686J574252D01*
G01*
X135102266Y-92346860D01*
G75*
G02*
X136303204Y-92399294I574252J-626686D01*
G01*
G37*
G36*
G01*
X138175889Y-90683295D02*
X138175889Y-90683295D01*
G75*
G02*
X138123455Y-91884233I-626686J-574252D01*
G01*
X138123455Y-91884233D01*
G75*
G02*
X136922517Y-91831799I-574252J626686D01*
G01*
X136922517Y-91831799D01*
G75*
G02*
X136974951Y-90630861I626686J574252D01*
G01*
X136974951Y-90630861D01*
G75*
G02*
X138175889Y-90683295I574252J-626686D01*
G01*
G37*
G36*
G01*
X138019203Y-94271978D02*
X138019203Y-94271978D01*
G75*
G02*
X137966769Y-95472916I-626686J-574252D01*
G01*
X137966769Y-95472916D01*
G75*
G02*
X136765831Y-95420482I-574252J626686D01*
G01*
X136765831Y-95420482D01*
G75*
G02*
X136818265Y-94219544I626686J574252D01*
G01*
X136818265Y-94219544D01*
G75*
G02*
X138019203Y-94271978I574252J-626686D01*
G01*
G37*
G36*
G01*
X139891888Y-92555979D02*
X139891888Y-92555979D01*
G75*
G02*
X139839454Y-93756917I-626686J-574252D01*
G01*
X139839454Y-93756917D01*
G75*
G02*
X138638516Y-93704483I-574252J626686D01*
G01*
X138638516Y-93704483D01*
G75*
G02*
X138690950Y-92503545I626686J574252D01*
G01*
X138690950Y-92503545D01*
G75*
G02*
X139891888Y-92555979I574252J-626686D01*
G01*
G37*
G36*
G01*
X139735202Y-96144663D02*
X139735202Y-96144663D01*
G75*
G02*
X139682768Y-97345601I-626686J-574252D01*
G01*
X139682768Y-97345601D01*
G75*
G02*
X138481830Y-97293167I-574252J626686D01*
G01*
X138481830Y-97293167D01*
G75*
G02*
X138534264Y-96092229I626686J574252D01*
G01*
X138534264Y-96092229D01*
G75*
G02*
X139735202Y-96144663I574252J-626686D01*
G01*
G37*
G36*
G01*
X141607887Y-94428664D02*
X141607887Y-94428664D01*
G75*
G02*
X141555453Y-95629602I-626686J-574252D01*
G01*
X141555453Y-95629602D01*
G75*
G02*
X140354515Y-95577168I-574252J626686D01*
G01*
X140354515Y-95577168D01*
G75*
G02*
X140406949Y-94376230I626686J574252D01*
G01*
X140406949Y-94376230D01*
G75*
G02*
X141607887Y-94428664I574252J-626686D01*
G01*
G37*
G36*
G01*
X141451202Y-98017347D02*
X141451202Y-98017347D01*
G75*
G02*
X141398768Y-99218285I-626686J-574252D01*
G01*
X141398768Y-99218285D01*
G75*
G02*
X140197830Y-99165851I-574252J626686D01*
G01*
X140197830Y-99165851D01*
G75*
G02*
X140250264Y-97964913I626686J574252D01*
G01*
X140250264Y-97964913D01*
G75*
G02*
X141451202Y-98017347I574252J-626686D01*
G01*
G37*
G36*
X142749634Y-95674663D02*
G01*
X143898137Y-96928034D01*
X142644766Y-98076537D01*
X141496263Y-96823166D01*
X142749634Y-95674663D01*
G37*
G36*
G01*
X119249848Y-146716780D02*
X119249848Y-146716780D01*
G75*
G02*
X118518067Y-147670455I-842728J-110947D01*
G01*
X118518067Y-147670455D01*
G75*
G02*
X117564392Y-146938674I-110947J842728D01*
G01*
X117564392Y-146938674D01*
G75*
G02*
X118296173Y-145984999I842728J110947D01*
G01*
X118296173Y-145984999D01*
G75*
G02*
X119249848Y-146716780I110947J-842728D01*
G01*
G37*
G36*
G01*
X121768118Y-146385243D02*
X121768118Y-146385243D01*
G75*
G02*
X121036337Y-147338918I-842728J-110947D01*
G01*
X121036337Y-147338918D01*
G75*
G02*
X120082662Y-146607137I-110947J842728D01*
G01*
X120082662Y-146607137D01*
G75*
G02*
X120814443Y-145653462I842728J110947D01*
G01*
X120814443Y-145653462D01*
G75*
G02*
X121768118Y-146385243I110947J-842728D01*
G01*
G37*
G36*
G01*
X119581385Y-149235050D02*
X119581385Y-149235050D01*
G75*
G02*
X118849604Y-150188725I-842728J-110947D01*
G01*
X118849604Y-150188725D01*
G75*
G02*
X117895929Y-149456944I-110947J842728D01*
G01*
X117895929Y-149456944D01*
G75*
G02*
X118627710Y-148503269I842728J110947D01*
G01*
X118627710Y-148503269D01*
G75*
G02*
X119581385Y-149235050I110947J-842728D01*
G01*
G37*
G36*
G01*
X122099655Y-148903513D02*
X122099655Y-148903513D01*
G75*
G02*
X121367874Y-149857188I-842728J-110947D01*
G01*
X121367874Y-149857188D01*
G75*
G02*
X120414199Y-149125407I-110947J842728D01*
G01*
X120414199Y-149125407D01*
G75*
G02*
X121145980Y-148171732I842728J110947D01*
G01*
X121145980Y-148171732D01*
G75*
G02*
X122099655Y-148903513I110947J-842728D01*
G01*
G37*
G36*
G01*
X119912922Y-151753320D02*
X119912922Y-151753320D01*
G75*
G02*
X119181141Y-152706995I-842728J-110947D01*
G01*
X119181141Y-152706995D01*
G75*
G02*
X118227466Y-151975214I-110947J842728D01*
G01*
X118227466Y-151975214D01*
G75*
G02*
X118959247Y-151021539I842728J110947D01*
G01*
X118959247Y-151021539D01*
G75*
G02*
X119912922Y-151753320I110947J-842728D01*
G01*
G37*
G36*
G01*
X122431191Y-151421783D02*
X122431191Y-151421783D01*
G75*
G02*
X121699410Y-152375458I-842728J-110947D01*
G01*
X121699410Y-152375458D01*
G75*
G02*
X120745735Y-151643677I-110947J842728D01*
G01*
X120745735Y-151643677D01*
G75*
G02*
X121477516Y-150690002I842728J110947D01*
G01*
X121477516Y-150690002D01*
G75*
G02*
X122431191Y-151421783I110947J-842728D01*
G01*
G37*
G36*
G01*
X120244458Y-154271590D02*
X120244458Y-154271590D01*
G75*
G02*
X119512677Y-155225265I-842728J-110947D01*
G01*
X119512677Y-155225265D01*
G75*
G02*
X118559002Y-154493484I-110947J842728D01*
G01*
X118559002Y-154493484D01*
G75*
G02*
X119290783Y-153539809I842728J110947D01*
G01*
X119290783Y-153539809D01*
G75*
G02*
X120244458Y-154271590I110947J-842728D01*
G01*
G37*
G36*
X122651781Y-153097325D02*
G01*
X122873675Y-154782781D01*
X121188219Y-155004675D01*
X120966325Y-153319219D01*
X122651781Y-153097325D01*
G37*
G36*
G01*
X121055365Y-124954890D02*
X121055365Y-124954890D01*
G75*
G02*
X120041539Y-125600768I-829852J183974D01*
G01*
X120041539Y-125600768D01*
G75*
G02*
X119395661Y-124586942I183974J829852D01*
G01*
X119395661Y-124586942D01*
G75*
G02*
X120409487Y-123941064I829852J-183974D01*
G01*
X120409487Y-123941064D01*
G75*
G02*
X121055365Y-124954890I-183974J-829852D01*
G01*
G37*
G36*
G01*
X123535157Y-125504646D02*
X123535157Y-125504646D01*
G75*
G02*
X122521331Y-126150524I-829852J183974D01*
G01*
X122521331Y-126150524D01*
G75*
G02*
X121875453Y-125136698I183974J829852D01*
G01*
X121875453Y-125136698D01*
G75*
G02*
X122889279Y-124490820I829852J-183974D01*
G01*
X122889279Y-124490820D01*
G75*
G02*
X123535157Y-125504646I-183974J-829852D01*
G01*
G37*
G36*
G01*
X120505608Y-127434682D02*
X120505608Y-127434682D01*
G75*
G02*
X119491782Y-128080560I-829852J183974D01*
G01*
X119491782Y-128080560D01*
G75*
G02*
X118845904Y-127066734I183974J829852D01*
G01*
X118845904Y-127066734D01*
G75*
G02*
X119859730Y-126420856I829852J-183974D01*
G01*
X119859730Y-126420856D01*
G75*
G02*
X120505608Y-127434682I-183974J-829852D01*
G01*
G37*
G36*
G01*
X122985400Y-127984438D02*
X122985400Y-127984438D01*
G75*
G02*
X121971574Y-128630316I-829852J183974D01*
G01*
X121971574Y-128630316D01*
G75*
G02*
X121325696Y-127616490I183974J829852D01*
G01*
X121325696Y-127616490D01*
G75*
G02*
X122339522Y-126970612I829852J-183974D01*
G01*
X122339522Y-126970612D01*
G75*
G02*
X122985400Y-127984438I-183974J-829852D01*
G01*
G37*
G36*
G01*
X119955852Y-129914474D02*
X119955852Y-129914474D01*
G75*
G02*
X118942026Y-130560352I-829852J183974D01*
G01*
X118942026Y-130560352D01*
G75*
G02*
X118296148Y-129546526I183974J829852D01*
G01*
X118296148Y-129546526D01*
G75*
G02*
X119309974Y-128900648I829852J-183974D01*
G01*
X119309974Y-128900648D01*
G75*
G02*
X119955852Y-129914474I-183974J-829852D01*
G01*
G37*
G36*
G01*
X122435644Y-130464230D02*
X122435644Y-130464230D01*
G75*
G02*
X121421818Y-131110108I-829852J183974D01*
G01*
X121421818Y-131110108D01*
G75*
G02*
X120775940Y-130096282I183974J829852D01*
G01*
X120775940Y-130096282D01*
G75*
G02*
X121789766Y-129450404I829852J-183974D01*
G01*
X121789766Y-129450404D01*
G75*
G02*
X122435644Y-130464230I-183974J-829852D01*
G01*
G37*
G36*
G01*
X119406095Y-132394265D02*
X119406095Y-132394265D01*
G75*
G02*
X118392269Y-133040143I-829852J183974D01*
G01*
X118392269Y-133040143D01*
G75*
G02*
X117746391Y-132026317I183974J829852D01*
G01*
X117746391Y-132026317D01*
G75*
G02*
X118760217Y-131380439I829852J-183974D01*
G01*
X118760217Y-131380439D01*
G75*
G02*
X119406095Y-132394265I-183974J-829852D01*
G01*
G37*
G36*
X122069860Y-132114170D02*
G01*
X121701913Y-133773873D01*
X120042210Y-133405926D01*
X120410157Y-131746223D01*
X122069860Y-132114170D01*
G37*
G36*
X137994626Y-171323712D02*
G01*
X138558791Y-172209273D01*
X136703330Y-173391332D01*
X136139165Y-172505771D01*
X137994626Y-171323712D01*
G37*
G36*
X138016764Y-169590359D02*
G01*
X138554063Y-170433750D01*
X137668502Y-170997915D01*
X137131203Y-170154524D01*
X138016764Y-169590359D01*
G37*
G36*
X136409592Y-168835707D02*
G01*
X136973757Y-169721268D01*
X135118296Y-170903327D01*
X134554131Y-170017766D01*
X136409592Y-168835707D01*
G37*
G36*
G01*
X124014427Y-168265333D02*
X124014427Y-168265333D01*
G75*
G02*
X123652954Y-169411778I-753959J-392486D01*
G01*
X123652954Y-169411778D01*
G75*
G02*
X122506509Y-169050305I-392486J753959D01*
G01*
X122506509Y-169050305D01*
G75*
G02*
X122867982Y-167903860I753959J392486D01*
G01*
X122867982Y-167903860D01*
G75*
G02*
X124014427Y-168265333I392486J-753959D01*
G01*
G37*
G36*
G01*
X126267435Y-167092491D02*
X126267435Y-167092491D01*
G75*
G02*
X125905962Y-168238936I-753959J-392486D01*
G01*
X125905962Y-168238936D01*
G75*
G02*
X124759517Y-167877463I-392486J753959D01*
G01*
X124759517Y-167877463D01*
G75*
G02*
X125120990Y-166731018I753959J392486D01*
G01*
X125120990Y-166731018D01*
G75*
G02*
X126267435Y-167092491I392486J-753959D01*
G01*
G37*
G36*
G01*
X125187269Y-170518340D02*
X125187269Y-170518340D01*
G75*
G02*
X124825796Y-171664785I-753959J-392486D01*
G01*
X124825796Y-171664785D01*
G75*
G02*
X123679351Y-171303312I-392486J753959D01*
G01*
X123679351Y-171303312D01*
G75*
G02*
X124040824Y-170156867I753959J392486D01*
G01*
X124040824Y-170156867D01*
G75*
G02*
X125187269Y-170518340I392486J-753959D01*
G01*
G37*
G36*
G01*
X127440276Y-169345499D02*
X127440276Y-169345499D01*
G75*
G02*
X127078803Y-170491944I-753959J-392486D01*
G01*
X127078803Y-170491944D01*
G75*
G02*
X125932358Y-170130471I-392486J753959D01*
G01*
X125932358Y-170130471D01*
G75*
G02*
X126293831Y-168984026I753959J392486D01*
G01*
X126293831Y-168984026D01*
G75*
G02*
X127440276Y-169345499I392486J-753959D01*
G01*
G37*
G36*
G01*
X126360110Y-172771348D02*
X126360110Y-172771348D01*
G75*
G02*
X125998637Y-173917793I-753959J-392486D01*
G01*
X125998637Y-173917793D01*
G75*
G02*
X124852192Y-173556320I-392486J753959D01*
G01*
X124852192Y-173556320D01*
G75*
G02*
X125213665Y-172409875I753959J392486D01*
G01*
X125213665Y-172409875D01*
G75*
G02*
X126360110Y-172771348I392486J-753959D01*
G01*
G37*
G36*
G01*
X128613118Y-171598506D02*
X128613118Y-171598506D01*
G75*
G02*
X128251645Y-172744951I-753959J-392486D01*
G01*
X128251645Y-172744951D01*
G75*
G02*
X127105200Y-172383478I-392486J753959D01*
G01*
X127105200Y-172383478D01*
G75*
G02*
X127466673Y-171237033I753959J392486D01*
G01*
X127466673Y-171237033D01*
G75*
G02*
X128613118Y-171598506I392486J-753959D01*
G01*
G37*
G36*
G01*
X127532951Y-175024355D02*
X127532951Y-175024355D01*
G75*
G02*
X127171478Y-176170800I-753959J-392486D01*
G01*
X127171478Y-176170800D01*
G75*
G02*
X126025033Y-175809327I-392486J753959D01*
G01*
X126025033Y-175809327D01*
G75*
G02*
X126386506Y-174662882I753959J392486D01*
G01*
X126386506Y-174662882D01*
G75*
G02*
X127532951Y-175024355I392486J-753959D01*
G01*
G37*
G36*
X129393473Y-173097554D02*
G01*
X130178446Y-174605473D01*
X128670527Y-175390446D01*
X127885554Y-173882527D01*
X129393473Y-173097554D01*
G37*
D46*
X212280500Y-161734500D03*
X212280500Y-160464500D03*
X213550500Y-161734500D03*
X213550500Y-160464500D03*
X214820500Y-161734500D03*
X214820500Y-160464500D03*
D47*
X216090500Y-161099500D03*
X211010500Y-160083500D03*
X211010500Y-162115500D03*
G36*
G01*
X244069079Y-138144220D02*
X244069079Y-138144220D01*
G75*
G02*
X244800860Y-137190545I842728J110947D01*
G01*
X244800860Y-137190545D01*
G75*
G02*
X245754535Y-137922326I110947J-842728D01*
G01*
X245754535Y-137922326D01*
G75*
G02*
X245022754Y-138876001I-842728J-110947D01*
G01*
X245022754Y-138876001D01*
G75*
G02*
X244069079Y-138144220I-110947J842728D01*
G01*
G37*
G36*
G01*
X241550809Y-138475757D02*
X241550809Y-138475757D01*
G75*
G02*
X242282590Y-137522082I842728J110947D01*
G01*
X242282590Y-137522082D01*
G75*
G02*
X243236265Y-138253863I110947J-842728D01*
G01*
X243236265Y-138253863D01*
G75*
G02*
X242504484Y-139207538I-842728J-110947D01*
G01*
X242504484Y-139207538D01*
G75*
G02*
X241550809Y-138475757I-110947J842728D01*
G01*
G37*
G36*
G01*
X243737542Y-135625950D02*
X243737542Y-135625950D01*
G75*
G02*
X244469323Y-134672275I842728J110947D01*
G01*
X244469323Y-134672275D01*
G75*
G02*
X245422998Y-135404056I110947J-842728D01*
G01*
X245422998Y-135404056D01*
G75*
G02*
X244691217Y-136357731I-842728J-110947D01*
G01*
X244691217Y-136357731D01*
G75*
G02*
X243737542Y-135625950I-110947J842728D01*
G01*
G37*
G36*
G01*
X241219272Y-135957487D02*
X241219272Y-135957487D01*
G75*
G02*
X241951053Y-135003812I842728J110947D01*
G01*
X241951053Y-135003812D01*
G75*
G02*
X242904728Y-135735593I110947J-842728D01*
G01*
X242904728Y-135735593D01*
G75*
G02*
X242172947Y-136689268I-842728J-110947D01*
G01*
X242172947Y-136689268D01*
G75*
G02*
X241219272Y-135957487I-110947J842728D01*
G01*
G37*
G36*
G01*
X243406005Y-133107680D02*
X243406005Y-133107680D01*
G75*
G02*
X244137786Y-132154005I842728J110947D01*
G01*
X244137786Y-132154005D01*
G75*
G02*
X245091461Y-132885786I110947J-842728D01*
G01*
X245091461Y-132885786D01*
G75*
G02*
X244359680Y-133839461I-842728J-110947D01*
G01*
X244359680Y-133839461D01*
G75*
G02*
X243406005Y-133107680I-110947J842728D01*
G01*
G37*
G36*
G01*
X240887736Y-133439217D02*
X240887736Y-133439217D01*
G75*
G02*
X241619517Y-132485542I842728J110947D01*
G01*
X241619517Y-132485542D01*
G75*
G02*
X242573192Y-133217323I110947J-842728D01*
G01*
X242573192Y-133217323D01*
G75*
G02*
X241841411Y-134170998I-842728J-110947D01*
G01*
X241841411Y-134170998D01*
G75*
G02*
X240887736Y-133439217I-110947J842728D01*
G01*
G37*
G36*
G01*
X243074469Y-130589410D02*
X243074469Y-130589410D01*
G75*
G02*
X243806250Y-129635735I842728J110947D01*
G01*
X243806250Y-129635735D01*
G75*
G02*
X244759925Y-130367516I110947J-842728D01*
G01*
X244759925Y-130367516D01*
G75*
G02*
X244028144Y-131321191I-842728J-110947D01*
G01*
X244028144Y-131321191D01*
G75*
G02*
X243074469Y-130589410I-110947J842728D01*
G01*
G37*
D22*
G36*
X240667146Y-131763675D02*
G01*
X240445252Y-130078219D01*
X242130708Y-129856325D01*
X242352602Y-131541781D01*
X240667146Y-131763675D01*
G37*
G36*
G01*
X223958270Y-173062348D02*
X224954129Y-173897973D01*
G75*
G02*
X224984943Y-174250179I-160696J-191510D01*
G01*
X224534990Y-174786412D01*
G75*
G02*
X224182784Y-174817226I-191510J160696D01*
G01*
X223186925Y-173981601D01*
G75*
G02*
X223156111Y-173629395I160696J191510D01*
G01*
X223606064Y-173093162D01*
G75*
G02*
X223958270Y-173062348I191510J-160696D01*
G01*
G37*
G36*
G01*
X227557881Y-168772499D02*
X228553740Y-169608124D01*
G75*
G02*
X228584554Y-169960330I-160696J-191510D01*
G01*
X228134601Y-170496563D01*
G75*
G02*
X227782395Y-170527377I-191510J160696D01*
G01*
X226786536Y-169691752D01*
G75*
G02*
X226755722Y-169339546I160696J191510D01*
G01*
X227205675Y-168803313D01*
G75*
G02*
X227557881Y-168772499I191510J-160696D01*
G01*
G37*
G36*
G01*
X222685947Y-170689334D02*
X223643503Y-171492819D01*
G75*
G02*
X223661992Y-171704144I-96418J-114907D01*
G01*
X223469156Y-171933957D01*
G75*
G02*
X223257831Y-171952446I-114907J96418D01*
G01*
X222300275Y-171148961D01*
G75*
G02*
X222281786Y-170937636I96418J114907D01*
G01*
X222474622Y-170707823D01*
G75*
G02*
X222685947Y-170689334I114907J-96418D01*
G01*
G37*
G36*
G01*
X223328734Y-169923290D02*
X224286290Y-170726775D01*
G75*
G02*
X224304779Y-170938100I-96418J-114907D01*
G01*
X224111943Y-171167913D01*
G75*
G02*
X223900618Y-171186402I-114907J96418D01*
G01*
X222943062Y-170382917D01*
G75*
G02*
X222924573Y-170171592I96418J114907D01*
G01*
X223117409Y-169941779D01*
G75*
G02*
X223328734Y-169923290I114907J-96418D01*
G01*
G37*
G36*
G01*
X223971522Y-169157245D02*
X224929078Y-169960730D01*
G75*
G02*
X224947567Y-170172055I-96418J-114907D01*
G01*
X224754731Y-170401868D01*
G75*
G02*
X224543406Y-170420357I-114907J96418D01*
G01*
X223585850Y-169616872D01*
G75*
G02*
X223567361Y-169405547I96418J114907D01*
G01*
X223760197Y-169175734D01*
G75*
G02*
X223971522Y-169157245I114907J-96418D01*
G01*
G37*
G36*
G01*
X224614310Y-168391201D02*
X225571866Y-169194686D01*
G75*
G02*
X225590355Y-169406011I-96418J-114907D01*
G01*
X225397519Y-169635824D01*
G75*
G02*
X225186194Y-169654313I-114907J96418D01*
G01*
X224228638Y-168850828D01*
G75*
G02*
X224210149Y-168639503I96418J114907D01*
G01*
X224402985Y-168409690D01*
G75*
G02*
X224614310Y-168391201I114907J-96418D01*
G01*
G37*
G36*
G01*
X232098230Y-178754502D02*
X232098230Y-178754502D01*
G75*
G02*
X233271818Y-178494324I716883J-456705D01*
G01*
X233271818Y-178494324D01*
G75*
G02*
X233531996Y-179667912I-456705J-716883D01*
G01*
X233531996Y-179667912D01*
G75*
G02*
X232358408Y-179928090I-716883J456705D01*
G01*
X232358408Y-179928090D01*
G75*
G02*
X232098230Y-178754502I456705J716883D01*
G01*
G37*
G36*
G01*
X229956016Y-177389761D02*
X229956016Y-177389761D01*
G75*
G02*
X231129604Y-177129583I716883J-456705D01*
G01*
X231129604Y-177129583D01*
G75*
G02*
X231389782Y-178303171I-456705J-716883D01*
G01*
X231389782Y-178303171D01*
G75*
G02*
X230216194Y-178563349I-716883J456705D01*
G01*
X230216194Y-178563349D01*
G75*
G02*
X229956016Y-177389761I456705J716883D01*
G01*
G37*
G36*
G01*
X233462971Y-176612288D02*
X233462971Y-176612288D01*
G75*
G02*
X234636559Y-176352110I716883J-456705D01*
G01*
X234636559Y-176352110D01*
G75*
G02*
X234896737Y-177525698I-456705J-716883D01*
G01*
X234896737Y-177525698D01*
G75*
G02*
X233723149Y-177785876I-716883J456705D01*
G01*
X233723149Y-177785876D01*
G75*
G02*
X233462971Y-176612288I456705J716883D01*
G01*
G37*
G36*
G01*
X231320757Y-175247547D02*
X231320757Y-175247547D01*
G75*
G02*
X232494345Y-174987369I716883J-456705D01*
G01*
X232494345Y-174987369D01*
G75*
G02*
X232754523Y-176160957I-456705J-716883D01*
G01*
X232754523Y-176160957D01*
G75*
G02*
X231580935Y-176421135I-716883J456705D01*
G01*
X231580935Y-176421135D01*
G75*
G02*
X231320757Y-175247547I456705J716883D01*
G01*
G37*
G36*
G01*
X234827712Y-174470073D02*
X234827712Y-174470073D01*
G75*
G02*
X236001300Y-174209895I716883J-456705D01*
G01*
X236001300Y-174209895D01*
G75*
G02*
X236261478Y-175383483I-456705J-716883D01*
G01*
X236261478Y-175383483D01*
G75*
G02*
X235087890Y-175643661I-716883J456705D01*
G01*
X235087890Y-175643661D01*
G75*
G02*
X234827712Y-174470073I456705J716883D01*
G01*
G37*
G36*
G01*
X232685498Y-173105332D02*
X232685498Y-173105332D01*
G75*
G02*
X233859086Y-172845154I716883J-456705D01*
G01*
X233859086Y-172845154D01*
G75*
G02*
X234119264Y-174018742I-456705J-716883D01*
G01*
X234119264Y-174018742D01*
G75*
G02*
X232945676Y-174278920I-716883J456705D01*
G01*
X232945676Y-174278920D01*
G75*
G02*
X232685498Y-173105332I456705J716883D01*
G01*
G37*
G36*
G01*
X236192453Y-172327859D02*
X236192453Y-172327859D01*
G75*
G02*
X237366041Y-172067681I716883J-456705D01*
G01*
X237366041Y-172067681D01*
G75*
G02*
X237626219Y-173241269I-456705J-716883D01*
G01*
X237626219Y-173241269D01*
G75*
G02*
X236452631Y-173501447I-716883J456705D01*
G01*
X236452631Y-173501447D01*
G75*
G02*
X236192453Y-172327859I456705J716883D01*
G01*
G37*
G36*
X233593535Y-171680001D02*
G01*
X234506944Y-170246236D01*
X235940709Y-171159645D01*
X235027300Y-172593410D01*
X233593535Y-171680001D01*
G37*
G36*
G01*
X228404146Y-164812257D02*
X228404146Y-164812257D01*
G75*
G02*
X229493602Y-164304235I798739J-290717D01*
G01*
X229493602Y-164304235D01*
G75*
G02*
X230001624Y-165393691I-290717J-798739D01*
G01*
X230001624Y-165393691D01*
G75*
G02*
X228912168Y-165901713I-798739J290717D01*
G01*
X228912168Y-165901713D01*
G75*
G02*
X228404146Y-164812257I290717J798739D01*
G01*
G37*
G36*
G01*
X229272877Y-162425438D02*
X229272877Y-162425438D01*
G75*
G02*
X230362333Y-161917416I798739J-290717D01*
G01*
X230362333Y-161917416D01*
G75*
G02*
X230870355Y-163006872I-290717J-798739D01*
G01*
X230870355Y-163006872D01*
G75*
G02*
X229780899Y-163514894I-798739J290717D01*
G01*
X229780899Y-163514894D01*
G75*
G02*
X229272877Y-162425438I290717J798739D01*
G01*
G37*
G36*
G01*
X230141609Y-160038619D02*
X230141609Y-160038619D01*
G75*
G02*
X231231065Y-159530597I798739J-290717D01*
G01*
X231231065Y-159530597D01*
G75*
G02*
X231739087Y-160620053I-290717J-798739D01*
G01*
X231739087Y-160620053D01*
G75*
G02*
X230649631Y-161128075I-798739J290717D01*
G01*
X230649631Y-161128075D01*
G75*
G02*
X230141609Y-160038619I290717J798739D01*
G01*
G37*
G36*
G01*
X231010340Y-157651800D02*
X231010340Y-157651800D01*
G75*
G02*
X232099796Y-157143778I798739J-290717D01*
G01*
X232099796Y-157143778D01*
G75*
G02*
X232607818Y-158233234I-290717J-798739D01*
G01*
X232607818Y-158233234D01*
G75*
G02*
X231518362Y-158741256I-798739J290717D01*
G01*
X231518362Y-158741256D01*
G75*
G02*
X231010340Y-157651800I290717J798739D01*
G01*
G37*
G36*
G01*
X231879071Y-155264980D02*
X231879071Y-155264980D01*
G75*
G02*
X232968527Y-154756958I798739J-290717D01*
G01*
X232968527Y-154756958D01*
G75*
G02*
X233476549Y-155846414I-290717J-798739D01*
G01*
X233476549Y-155846414D01*
G75*
G02*
X232387093Y-156354436I-798739J290717D01*
G01*
X232387093Y-156354436D01*
G75*
G02*
X231879071Y-155264980I290717J798739D01*
G01*
G37*
G36*
X232457085Y-153676900D02*
G01*
X233038519Y-152079422D01*
X234635997Y-152660856D01*
X234054563Y-154258334D01*
X232457085Y-153676900D01*
G37*
G36*
G01*
X238697573Y-116722667D02*
X238697573Y-116722667D01*
G75*
G02*
X239059046Y-115576222I753959J392486D01*
G01*
X239059046Y-115576222D01*
G75*
G02*
X240205491Y-115937695I392486J-753959D01*
G01*
X240205491Y-115937695D01*
G75*
G02*
X239844018Y-117084140I-753959J-392486D01*
G01*
X239844018Y-117084140D01*
G75*
G02*
X238697573Y-116722667I-392486J753959D01*
G01*
G37*
G36*
G01*
X236444565Y-117895509D02*
X236444565Y-117895509D01*
G75*
G02*
X236806038Y-116749064I753959J392486D01*
G01*
X236806038Y-116749064D01*
G75*
G02*
X237952483Y-117110537I392486J-753959D01*
G01*
X237952483Y-117110537D01*
G75*
G02*
X237591010Y-118256982I-753959J-392486D01*
G01*
X237591010Y-118256982D01*
G75*
G02*
X236444565Y-117895509I-392486J753959D01*
G01*
G37*
G36*
G01*
X237524731Y-114469660D02*
X237524731Y-114469660D01*
G75*
G02*
X237886204Y-113323215I753959J392486D01*
G01*
X237886204Y-113323215D01*
G75*
G02*
X239032649Y-113684688I392486J-753959D01*
G01*
X239032649Y-113684688D01*
G75*
G02*
X238671176Y-114831133I-753959J-392486D01*
G01*
X238671176Y-114831133D01*
G75*
G02*
X237524731Y-114469660I-392486J753959D01*
G01*
G37*
G36*
G01*
X235271724Y-115642501D02*
X235271724Y-115642501D01*
G75*
G02*
X235633197Y-114496056I753959J392486D01*
G01*
X235633197Y-114496056D01*
G75*
G02*
X236779642Y-114857529I392486J-753959D01*
G01*
X236779642Y-114857529D01*
G75*
G02*
X236418169Y-116003974I-753959J-392486D01*
G01*
X236418169Y-116003974D01*
G75*
G02*
X235271724Y-115642501I-392486J753959D01*
G01*
G37*
G36*
G01*
X236351890Y-112216652D02*
X236351890Y-112216652D01*
G75*
G02*
X236713363Y-111070207I753959J392486D01*
G01*
X236713363Y-111070207D01*
G75*
G02*
X237859808Y-111431680I392486J-753959D01*
G01*
X237859808Y-111431680D01*
G75*
G02*
X237498335Y-112578125I-753959J-392486D01*
G01*
X237498335Y-112578125D01*
G75*
G02*
X236351890Y-112216652I-392486J753959D01*
G01*
G37*
G36*
G01*
X234098882Y-113389494D02*
X234098882Y-113389494D01*
G75*
G02*
X234460355Y-112243049I753959J392486D01*
G01*
X234460355Y-112243049D01*
G75*
G02*
X235606800Y-112604522I392486J-753959D01*
G01*
X235606800Y-112604522D01*
G75*
G02*
X235245327Y-113750967I-753959J-392486D01*
G01*
X235245327Y-113750967D01*
G75*
G02*
X234098882Y-113389494I-392486J753959D01*
G01*
G37*
G36*
G01*
X235179049Y-109963645D02*
X235179049Y-109963645D01*
G75*
G02*
X235540522Y-108817200I753959J392486D01*
G01*
X235540522Y-108817200D01*
G75*
G02*
X236686967Y-109178673I392486J-753959D01*
G01*
X236686967Y-109178673D01*
G75*
G02*
X236325494Y-110325118I-753959J-392486D01*
G01*
X236325494Y-110325118D01*
G75*
G02*
X235179049Y-109963645I-392486J753959D01*
G01*
G37*
G36*
X233318527Y-111890446D02*
G01*
X232533554Y-110382527D01*
X234041473Y-109597554D01*
X234826446Y-111105473D01*
X233318527Y-111890446D01*
G37*
G36*
G01*
X136431569Y-186219999D02*
X136431569Y-186219999D01*
G75*
G02*
X136484003Y-187420937I-574252J-626686D01*
G01*
X136484003Y-187420937D01*
G75*
G02*
X135283065Y-187473371I-626686J574252D01*
G01*
X135283065Y-187473371D01*
G75*
G02*
X135230631Y-186272433I574252J626686D01*
G01*
X135230631Y-186272433D01*
G75*
G02*
X136431569Y-186219999I626686J-574252D01*
G01*
G37*
G36*
G01*
X138147568Y-184347315D02*
X138147568Y-184347315D01*
G75*
G02*
X138200002Y-185548253I-574252J-626686D01*
G01*
X138200002Y-185548253D01*
G75*
G02*
X136999064Y-185600687I-626686J574252D01*
G01*
X136999064Y-185600687D01*
G75*
G02*
X136946630Y-184399749I574252J626686D01*
G01*
X136946630Y-184399749D01*
G75*
G02*
X138147568Y-184347315I626686J-574252D01*
G01*
G37*
G36*
G01*
X138304253Y-187935998D02*
X138304253Y-187935998D01*
G75*
G02*
X138356687Y-189136936I-574252J-626686D01*
G01*
X138356687Y-189136936D01*
G75*
G02*
X137155749Y-189189370I-626686J574252D01*
G01*
X137155749Y-189189370D01*
G75*
G02*
X137103315Y-187988432I574252J626686D01*
G01*
X137103315Y-187988432D01*
G75*
G02*
X138304253Y-187935998I626686J-574252D01*
G01*
G37*
G36*
G01*
X140020252Y-186063314D02*
X140020252Y-186063314D01*
G75*
G02*
X140072686Y-187264252I-574252J-626686D01*
G01*
X140072686Y-187264252D01*
G75*
G02*
X138871748Y-187316686I-626686J574252D01*
G01*
X138871748Y-187316686D01*
G75*
G02*
X138819314Y-186115748I574252J626686D01*
G01*
X138819314Y-186115748D01*
G75*
G02*
X140020252Y-186063314I626686J-574252D01*
G01*
G37*
G36*
G01*
X140176937Y-189651997D02*
X140176937Y-189651997D01*
G75*
G02*
X140229371Y-190852935I-574252J-626686D01*
G01*
X140229371Y-190852935D01*
G75*
G02*
X139028433Y-190905369I-626686J574252D01*
G01*
X139028433Y-190905369D01*
G75*
G02*
X138975999Y-189704431I574252J626686D01*
G01*
X138975999Y-189704431D01*
G75*
G02*
X140176937Y-189651997I626686J-574252D01*
G01*
G37*
G36*
G01*
X141892937Y-187779313D02*
X141892937Y-187779313D01*
G75*
G02*
X141945371Y-188980251I-574252J-626686D01*
G01*
X141945371Y-188980251D01*
G75*
G02*
X140744433Y-189032685I-626686J574252D01*
G01*
X140744433Y-189032685D01*
G75*
G02*
X140691999Y-187831747I574252J626686D01*
G01*
X140691999Y-187831747D01*
G75*
G02*
X141892937Y-187779313I626686J-574252D01*
G01*
G37*
G36*
G01*
X142049622Y-191367996D02*
X142049622Y-191367996D01*
G75*
G02*
X142102056Y-192568934I-574252J-626686D01*
G01*
X142102056Y-192568934D01*
G75*
G02*
X140901118Y-192621368I-626686J574252D01*
G01*
X140901118Y-192621368D01*
G75*
G02*
X140848684Y-191420430I574252J626686D01*
G01*
X140848684Y-191420430D01*
G75*
G02*
X142049622Y-191367996I626686J-574252D01*
G01*
G37*
G36*
X143138935Y-188921061D02*
G01*
X144392306Y-190069564D01*
X143243803Y-191322935D01*
X141990432Y-190174432D01*
X143138935Y-188921061D01*
G37*
G36*
G01*
X154127973Y-198692670D02*
X154127973Y-198692670D01*
G75*
G02*
X154587990Y-199803249I-325281J-785298D01*
G01*
X154587990Y-199803249D01*
G75*
G02*
X153477411Y-200263266I-785298J325281D01*
G01*
X153477411Y-200263266D01*
G75*
G02*
X153017394Y-199152687I325281J785298D01*
G01*
X153017394Y-199152687D01*
G75*
G02*
X154127973Y-198692670I785298J-325281D01*
G01*
G37*
G36*
G01*
X155099989Y-196346016D02*
X155099989Y-196346016D01*
G75*
G02*
X155560006Y-197456595I-325281J-785298D01*
G01*
X155560006Y-197456595D01*
G75*
G02*
X154449427Y-197916612I-785298J325281D01*
G01*
X154449427Y-197916612D01*
G75*
G02*
X153989410Y-196806033I325281J785298D01*
G01*
X153989410Y-196806033D01*
G75*
G02*
X155099989Y-196346016I785298J-325281D01*
G01*
G37*
G36*
G01*
X156474627Y-199664686D02*
X156474627Y-199664686D01*
G75*
G02*
X156934644Y-200775265I-325281J-785298D01*
G01*
X156934644Y-200775265D01*
G75*
G02*
X155824065Y-201235282I-785298J325281D01*
G01*
X155824065Y-201235282D01*
G75*
G02*
X155364048Y-200124703I325281J785298D01*
G01*
X155364048Y-200124703D01*
G75*
G02*
X156474627Y-199664686I785298J-325281D01*
G01*
G37*
G36*
G01*
X157446643Y-197318032D02*
X157446643Y-197318032D01*
G75*
G02*
X157906660Y-198428611I-325281J-785298D01*
G01*
X157906660Y-198428611D01*
G75*
G02*
X156796081Y-198888628I-785298J325281D01*
G01*
X156796081Y-198888628D01*
G75*
G02*
X156336064Y-197778049I325281J785298D01*
G01*
X156336064Y-197778049D01*
G75*
G02*
X157446643Y-197318032I785298J-325281D01*
G01*
G37*
G36*
G01*
X158821281Y-200636702D02*
X158821281Y-200636702D01*
G75*
G02*
X159281298Y-201747281I-325281J-785298D01*
G01*
X159281298Y-201747281D01*
G75*
G02*
X158170719Y-202207298I-785298J325281D01*
G01*
X158170719Y-202207298D01*
G75*
G02*
X157710702Y-201096719I325281J785298D01*
G01*
X157710702Y-201096719D01*
G75*
G02*
X158821281Y-200636702I785298J-325281D01*
G01*
G37*
G36*
G01*
X159793297Y-198290048D02*
X159793297Y-198290048D01*
G75*
G02*
X160253314Y-199400627I-325281J-785298D01*
G01*
X160253314Y-199400627D01*
G75*
G02*
X159142735Y-199860644I-785298J325281D01*
G01*
X159142735Y-199860644D01*
G75*
G02*
X158682718Y-198750065I325281J785298D01*
G01*
X158682718Y-198750065D01*
G75*
G02*
X159793297Y-198290048I785298J-325281D01*
G01*
G37*
G36*
G01*
X161167935Y-201608718D02*
X161167935Y-201608718D01*
G75*
G02*
X161627952Y-202719297I-325281J-785298D01*
G01*
X161627952Y-202719297D01*
G75*
G02*
X160517373Y-203179314I-785298J325281D01*
G01*
X160517373Y-203179314D01*
G75*
G02*
X160057356Y-202068735I325281J785298D01*
G01*
X160057356Y-202068735D01*
G75*
G02*
X161167935Y-201608718I785298J-325281D01*
G01*
G37*
G36*
X161354653Y-198936783D02*
G01*
X162925249Y-199587345D01*
X162274687Y-201157941D01*
X160704091Y-200507379D01*
X161354653Y-198936783D01*
G37*
G36*
G01*
X175193535Y-204619512D02*
X175193535Y-204619512D01*
G75*
G02*
X176005650Y-205505779I-37076J-849191D01*
G01*
X176005650Y-205505779D01*
G75*
G02*
X175119383Y-206317894I-849191J37076D01*
G01*
X175119383Y-206317894D01*
G75*
G02*
X174307268Y-205431627I37076J849191D01*
G01*
X174307268Y-205431627D01*
G75*
G02*
X175193535Y-204619512I849191J-37076D01*
G01*
G37*
G36*
G01*
X175304329Y-202081929D02*
X175304329Y-202081929D01*
G75*
G02*
X176116444Y-202968196I-37076J-849191D01*
G01*
X176116444Y-202968196D01*
G75*
G02*
X175230177Y-203780311I-849191J37076D01*
G01*
X175230177Y-203780311D01*
G75*
G02*
X174418062Y-202894044I37076J849191D01*
G01*
X174418062Y-202894044D01*
G75*
G02*
X175304329Y-202081929I849191J-37076D01*
G01*
G37*
G36*
G01*
X177731118Y-204730305D02*
X177731118Y-204730305D01*
G75*
G02*
X178543233Y-205616572I-37076J-849191D01*
G01*
X178543233Y-205616572D01*
G75*
G02*
X177656966Y-206428687I-849191J37076D01*
G01*
X177656966Y-206428687D01*
G75*
G02*
X176844851Y-205542420I37076J849191D01*
G01*
X176844851Y-205542420D01*
G75*
G02*
X177731118Y-204730305I849191J-37076D01*
G01*
G37*
G36*
G01*
X177841911Y-202192723D02*
X177841911Y-202192723D01*
G75*
G02*
X178654026Y-203078990I-37076J-849191D01*
G01*
X178654026Y-203078990D01*
G75*
G02*
X177767759Y-203891105I-849191J37076D01*
G01*
X177767759Y-203891105D01*
G75*
G02*
X176955644Y-203004838I37076J849191D01*
G01*
X176955644Y-203004838D01*
G75*
G02*
X177841911Y-202192723I849191J-37076D01*
G01*
G37*
G36*
G01*
X180268700Y-204841098D02*
X180268700Y-204841098D01*
G75*
G02*
X181080815Y-205727365I-37076J-849191D01*
G01*
X181080815Y-205727365D01*
G75*
G02*
X180194548Y-206539480I-849191J37076D01*
G01*
X180194548Y-206539480D01*
G75*
G02*
X179382433Y-205653213I37076J849191D01*
G01*
X179382433Y-205653213D01*
G75*
G02*
X180268700Y-204841098I849191J-37076D01*
G01*
G37*
G36*
G01*
X180379494Y-202303516D02*
X180379494Y-202303516D01*
G75*
G02*
X181191609Y-203189783I-37076J-849191D01*
G01*
X181191609Y-203189783D01*
G75*
G02*
X180305342Y-204001898I-849191J37076D01*
G01*
X180305342Y-204001898D01*
G75*
G02*
X179493227Y-203115631I37076J849191D01*
G01*
X179493227Y-203115631D01*
G75*
G02*
X180379494Y-202303516I849191J-37076D01*
G01*
G37*
G36*
G01*
X182806283Y-204951891D02*
X182806283Y-204951891D01*
G75*
G02*
X183618398Y-205838158I-37076J-849191D01*
G01*
X183618398Y-205838158D01*
G75*
G02*
X182732131Y-206650273I-849191J37076D01*
G01*
X182732131Y-206650273D01*
G75*
G02*
X181920016Y-205764006I37076J849191D01*
G01*
X181920016Y-205764006D01*
G75*
G02*
X182806283Y-204951891I849191J-37076D01*
G01*
G37*
G36*
X182067885Y-202377233D02*
G01*
X183766267Y-202451385D01*
X183692115Y-204149767D01*
X181993733Y-204075615D01*
X182067885Y-202377233D01*
G37*
G36*
G01*
X197266370Y-203039160D02*
X197266370Y-203039160D01*
G75*
G02*
X198332629Y-203594219I255600J-810659D01*
G01*
X198332629Y-203594219D01*
G75*
G02*
X197777570Y-204660478I-810659J-255600D01*
G01*
X197777570Y-204660478D01*
G75*
G02*
X196711311Y-204105419I-255600J810659D01*
G01*
X196711311Y-204105419D01*
G75*
G02*
X197266370Y-203039160I810659J255600D01*
G01*
G37*
G36*
G01*
X196502577Y-200616719D02*
X196502577Y-200616719D01*
G75*
G02*
X197568836Y-201171778I255600J-810659D01*
G01*
X197568836Y-201171778D01*
G75*
G02*
X197013777Y-202238037I-810659J-255600D01*
G01*
X197013777Y-202238037D01*
G75*
G02*
X195947518Y-201682978I-255600J810659D01*
G01*
X195947518Y-201682978D01*
G75*
G02*
X196502577Y-200616719I810659J255600D01*
G01*
G37*
G36*
G01*
X199688811Y-202275368D02*
X199688811Y-202275368D01*
G75*
G02*
X200755070Y-202830427I255600J-810659D01*
G01*
X200755070Y-202830427D01*
G75*
G02*
X200200011Y-203896686I-810659J-255600D01*
G01*
X200200011Y-203896686D01*
G75*
G02*
X199133752Y-203341627I-255600J810659D01*
G01*
X199133752Y-203341627D01*
G75*
G02*
X199688811Y-202275368I810659J255600D01*
G01*
G37*
G36*
G01*
X198925018Y-199852926D02*
X198925018Y-199852926D01*
G75*
G02*
X199991277Y-200407985I255600J-810659D01*
G01*
X199991277Y-200407985D01*
G75*
G02*
X199436218Y-201474244I-810659J-255600D01*
G01*
X199436218Y-201474244D01*
G75*
G02*
X198369959Y-200919185I-255600J810659D01*
G01*
X198369959Y-200919185D01*
G75*
G02*
X198925018Y-199852926I810659J255600D01*
G01*
G37*
G36*
G01*
X202111252Y-201511575D02*
X202111252Y-201511575D01*
G75*
G02*
X203177511Y-202066634I255600J-810659D01*
G01*
X203177511Y-202066634D01*
G75*
G02*
X202622452Y-203132893I-810659J-255600D01*
G01*
X202622452Y-203132893D01*
G75*
G02*
X201556193Y-202577834I-255600J810659D01*
G01*
X201556193Y-202577834D01*
G75*
G02*
X202111252Y-201511575I810659J255600D01*
G01*
G37*
G36*
G01*
X201347459Y-199089134D02*
X201347459Y-199089134D01*
G75*
G02*
X202413718Y-199644193I255600J-810659D01*
G01*
X202413718Y-199644193D01*
G75*
G02*
X201858659Y-200710452I-810659J-255600D01*
G01*
X201858659Y-200710452D01*
G75*
G02*
X200792400Y-200155393I-255600J810659D01*
G01*
X200792400Y-200155393D01*
G75*
G02*
X201347459Y-199089134I810659J255600D01*
G01*
G37*
G36*
G01*
X204533693Y-200747782D02*
X204533693Y-200747782D01*
G75*
G02*
X205599952Y-201302841I255600J-810659D01*
G01*
X205599952Y-201302841D01*
G75*
G02*
X205044893Y-202369100I-810659J-255600D01*
G01*
X205044893Y-202369100D01*
G75*
G02*
X203978634Y-201814041I-255600J810659D01*
G01*
X203978634Y-201814041D01*
G75*
G02*
X204533693Y-200747782I810659J255600D01*
G01*
G37*
G36*
X202959241Y-198580941D02*
G01*
X204580559Y-198069741D01*
X205091759Y-199691059D01*
X203470441Y-200202259D01*
X202959241Y-198580941D01*
G37*
G36*
G01*
X214904836Y-99402754D02*
X214904836Y-99402754D01*
G75*
G02*
X214904836Y-100604836I-601041J-601041D01*
G01*
X214904836Y-100604836D01*
G75*
G02*
X213702754Y-100604836I-601041J601041D01*
G01*
X213702754Y-100604836D01*
G75*
G02*
X213702754Y-99402754I601041J601041D01*
G01*
X213702754Y-99402754D01*
G75*
G02*
X214904836Y-99402754I601041J-601041D01*
G01*
G37*
G36*
G01*
X216700887Y-101198805D02*
X216700887Y-101198805D01*
G75*
G02*
X216700887Y-102400887I-601041J-601041D01*
G01*
X216700887Y-102400887D01*
G75*
G02*
X215498805Y-102400887I-601041J601041D01*
G01*
X215498805Y-102400887D01*
G75*
G02*
X215498805Y-101198805I601041J601041D01*
G01*
X215498805Y-101198805D01*
G75*
G02*
X216700887Y-101198805I601041J-601041D01*
G01*
G37*
G36*
G01*
X218496939Y-102994857D02*
X218496939Y-102994857D01*
G75*
G02*
X218496939Y-104196939I-601041J-601041D01*
G01*
X218496939Y-104196939D01*
G75*
G02*
X217294857Y-104196939I-601041J601041D01*
G01*
X217294857Y-104196939D01*
G75*
G02*
X217294857Y-102994857I601041J601041D01*
G01*
X217294857Y-102994857D01*
G75*
G02*
X218496939Y-102994857I601041J-601041D01*
G01*
G37*
G36*
G01*
X220292990Y-104790908D02*
X220292990Y-104790908D01*
G75*
G02*
X220292990Y-105992990I-601041J-601041D01*
G01*
X220292990Y-105992990D01*
G75*
G02*
X219090908Y-105992990I-601041J601041D01*
G01*
X219090908Y-105992990D01*
G75*
G02*
X219090908Y-104790908I601041J601041D01*
G01*
X219090908Y-104790908D01*
G75*
G02*
X220292990Y-104790908I601041J-601041D01*
G01*
G37*
G36*
X221488000Y-105985918D02*
G01*
X222690082Y-107188000D01*
X221488000Y-108390082D01*
X220285918Y-107188000D01*
X221488000Y-105985918D01*
G37*
G36*
G01*
X190714950Y-127830400D02*
X189802450Y-127830400D01*
G75*
G02*
X189558700Y-127586650I0J243750D01*
G01*
X189558700Y-127099150D01*
G75*
G02*
X189802450Y-126855400I243750J0D01*
G01*
X190714950Y-126855400D01*
G75*
G02*
X190958700Y-127099150I0J-243750D01*
G01*
X190958700Y-127586650D01*
G75*
G02*
X190714950Y-127830400I-243750J0D01*
G01*
G37*
G36*
G01*
X190714950Y-129705400D02*
X189802450Y-129705400D01*
G75*
G02*
X189558700Y-129461650I0J243750D01*
G01*
X189558700Y-128974150D01*
G75*
G02*
X189802450Y-128730400I243750J0D01*
G01*
X190714950Y-128730400D01*
G75*
G02*
X190958700Y-128974150I0J-243750D01*
G01*
X190958700Y-129461650D01*
G75*
G02*
X190714950Y-129705400I-243750J0D01*
G01*
G37*
G36*
G01*
X193242250Y-129041500D02*
X192329750Y-129041500D01*
G75*
G02*
X192086000Y-128797750I0J243750D01*
G01*
X192086000Y-128310250D01*
G75*
G02*
X192329750Y-128066500I243750J0D01*
G01*
X193242250Y-128066500D01*
G75*
G02*
X193486000Y-128310250I0J-243750D01*
G01*
X193486000Y-128797750D01*
G75*
G02*
X193242250Y-129041500I-243750J0D01*
G01*
G37*
G36*
G01*
X193242250Y-130916500D02*
X192329750Y-130916500D01*
G75*
G02*
X192086000Y-130672750I0J243750D01*
G01*
X192086000Y-130185250D01*
G75*
G02*
X192329750Y-129941500I243750J0D01*
G01*
X193242250Y-129941500D01*
G75*
G02*
X193486000Y-130185250I0J-243750D01*
G01*
X193486000Y-130672750D01*
G75*
G02*
X193242250Y-130916500I-243750J0D01*
G01*
G37*
G36*
G01*
X195655250Y-131297500D02*
X194742750Y-131297500D01*
G75*
G02*
X194499000Y-131053750I0J243750D01*
G01*
X194499000Y-130566250D01*
G75*
G02*
X194742750Y-130322500I243750J0D01*
G01*
X195655250Y-130322500D01*
G75*
G02*
X195899000Y-130566250I0J-243750D01*
G01*
X195899000Y-131053750D01*
G75*
G02*
X195655250Y-131297500I-243750J0D01*
G01*
G37*
G36*
G01*
X195655250Y-133172500D02*
X194742750Y-133172500D01*
G75*
G02*
X194499000Y-132928750I0J243750D01*
G01*
X194499000Y-132441250D01*
G75*
G02*
X194742750Y-132197500I243750J0D01*
G01*
X195655250Y-132197500D01*
G75*
G02*
X195899000Y-132441250I0J-243750D01*
G01*
X195899000Y-132928750D01*
G75*
G02*
X195655250Y-133172500I-243750J0D01*
G01*
G37*
G36*
G01*
X137991000Y-162654000D02*
X137991000Y-161704000D01*
G75*
G02*
X138241000Y-161454000I250000J0D01*
G01*
X138741000Y-161454000D01*
G75*
G02*
X138991000Y-161704000I0J-250000D01*
G01*
X138991000Y-162654000D01*
G75*
G02*
X138741000Y-162904000I-250000J0D01*
G01*
X138241000Y-162904000D01*
G75*
G02*
X137991000Y-162654000I0J250000D01*
G01*
G37*
G36*
G01*
X136091000Y-162654000D02*
X136091000Y-161704000D01*
G75*
G02*
X136341000Y-161454000I250000J0D01*
G01*
X136841000Y-161454000D01*
G75*
G02*
X137091000Y-161704000I0J-250000D01*
G01*
X137091000Y-162654000D01*
G75*
G02*
X136841000Y-162904000I-250000J0D01*
G01*
X136341000Y-162904000D01*
G75*
G02*
X136091000Y-162654000I0J250000D01*
G01*
G37*
G36*
G01*
X207650500Y-158246000D02*
X207650500Y-158746000D01*
G75*
G02*
X207425500Y-158971000I-225000J0D01*
G01*
X206975500Y-158971000D01*
G75*
G02*
X206750500Y-158746000I0J225000D01*
G01*
X206750500Y-158246000D01*
G75*
G02*
X206975500Y-158021000I225000J0D01*
G01*
X207425500Y-158021000D01*
G75*
G02*
X207650500Y-158246000I0J-225000D01*
G01*
G37*
G36*
G01*
X209200500Y-158246000D02*
X209200500Y-158746000D01*
G75*
G02*
X208975500Y-158971000I-225000J0D01*
G01*
X208525500Y-158971000D01*
G75*
G02*
X208300500Y-158746000I0J225000D01*
G01*
X208300500Y-158246000D01*
G75*
G02*
X208525500Y-158021000I225000J0D01*
G01*
X208975500Y-158021000D01*
G75*
G02*
X209200500Y-158246000I0J-225000D01*
G01*
G37*
G36*
G01*
X138993500Y-123223000D02*
X138993500Y-124173000D01*
G75*
G02*
X138743500Y-124423000I-250000J0D01*
G01*
X138243500Y-124423000D01*
G75*
G02*
X137993500Y-124173000I0J250000D01*
G01*
X137993500Y-123223000D01*
G75*
G02*
X138243500Y-122973000I250000J0D01*
G01*
X138743500Y-122973000D01*
G75*
G02*
X138993500Y-123223000I0J-250000D01*
G01*
G37*
G36*
G01*
X140893500Y-123223000D02*
X140893500Y-124173000D01*
G75*
G02*
X140643500Y-124423000I-250000J0D01*
G01*
X140143500Y-124423000D01*
G75*
G02*
X139893500Y-124173000I0J250000D01*
G01*
X139893500Y-123223000D01*
G75*
G02*
X140143500Y-122973000I250000J0D01*
G01*
X140643500Y-122973000D01*
G75*
G02*
X140893500Y-123223000I0J-250000D01*
G01*
G37*
G36*
G01*
X142577800Y-124503600D02*
X143527800Y-124503600D01*
G75*
G02*
X143777800Y-124753600I0J-250000D01*
G01*
X143777800Y-125253600D01*
G75*
G02*
X143527800Y-125503600I-250000J0D01*
G01*
X142577800Y-125503600D01*
G75*
G02*
X142327800Y-125253600I0J250000D01*
G01*
X142327800Y-124753600D01*
G75*
G02*
X142577800Y-124503600I250000J0D01*
G01*
G37*
G36*
G01*
X142577800Y-122603600D02*
X143527800Y-122603600D01*
G75*
G02*
X143777800Y-122853600I0J-250000D01*
G01*
X143777800Y-123353600D01*
G75*
G02*
X143527800Y-123603600I-250000J0D01*
G01*
X142577800Y-123603600D01*
G75*
G02*
X142327800Y-123353600I0J250000D01*
G01*
X142327800Y-122853600D01*
G75*
G02*
X142577800Y-122603600I250000J0D01*
G01*
G37*
G36*
G01*
X145994500Y-164876500D02*
X145994500Y-163926500D01*
G75*
G02*
X146244500Y-163676500I250000J0D01*
G01*
X146744500Y-163676500D01*
G75*
G02*
X146994500Y-163926500I0J-250000D01*
G01*
X146994500Y-164876500D01*
G75*
G02*
X146744500Y-165126500I-250000J0D01*
G01*
X146244500Y-165126500D01*
G75*
G02*
X145994500Y-164876500I0J250000D01*
G01*
G37*
G36*
G01*
X144094500Y-164876500D02*
X144094500Y-163926500D01*
G75*
G02*
X144344500Y-163676500I250000J0D01*
G01*
X144844500Y-163676500D01*
G75*
G02*
X145094500Y-163926500I0J-250000D01*
G01*
X145094500Y-164876500D01*
G75*
G02*
X144844500Y-165126500I-250000J0D01*
G01*
X144344500Y-165126500D01*
G75*
G02*
X144094500Y-164876500I0J250000D01*
G01*
G37*
G36*
G01*
X151351000Y-158935000D02*
X150401000Y-158935000D01*
G75*
G02*
X150151000Y-158685000I0J250000D01*
G01*
X150151000Y-158185000D01*
G75*
G02*
X150401000Y-157935000I250000J0D01*
G01*
X151351000Y-157935000D01*
G75*
G02*
X151601000Y-158185000I0J-250000D01*
G01*
X151601000Y-158685000D01*
G75*
G02*
X151351000Y-158935000I-250000J0D01*
G01*
G37*
G36*
G01*
X151351000Y-160835000D02*
X150401000Y-160835000D01*
G75*
G02*
X150151000Y-160585000I0J250000D01*
G01*
X150151000Y-160085000D01*
G75*
G02*
X150401000Y-159835000I250000J0D01*
G01*
X151351000Y-159835000D01*
G75*
G02*
X151601000Y-160085000I0J-250000D01*
G01*
X151601000Y-160585000D01*
G75*
G02*
X151351000Y-160835000I-250000J0D01*
G01*
G37*
G36*
G01*
X149842600Y-163593800D02*
X149842600Y-162643800D01*
G75*
G02*
X150092600Y-162393800I250000J0D01*
G01*
X150592600Y-162393800D01*
G75*
G02*
X150842600Y-162643800I0J-250000D01*
G01*
X150842600Y-163593800D01*
G75*
G02*
X150592600Y-163843800I-250000J0D01*
G01*
X150092600Y-163843800D01*
G75*
G02*
X149842600Y-163593800I0J250000D01*
G01*
G37*
G36*
G01*
X147942600Y-163593800D02*
X147942600Y-162643800D01*
G75*
G02*
X148192600Y-162393800I250000J0D01*
G01*
X148692600Y-162393800D01*
G75*
G02*
X148942600Y-162643800I0J-250000D01*
G01*
X148942600Y-163593800D01*
G75*
G02*
X148692600Y-163843800I-250000J0D01*
G01*
X148192600Y-163843800D01*
G75*
G02*
X147942600Y-163593800I0J250000D01*
G01*
G37*
G36*
G01*
X218854000Y-143322500D02*
X219804000Y-143322500D01*
G75*
G02*
X220054000Y-143572500I0J-250000D01*
G01*
X220054000Y-144072500D01*
G75*
G02*
X219804000Y-144322500I-250000J0D01*
G01*
X218854000Y-144322500D01*
G75*
G02*
X218604000Y-144072500I0J250000D01*
G01*
X218604000Y-143572500D01*
G75*
G02*
X218854000Y-143322500I250000J0D01*
G01*
G37*
G36*
G01*
X218854000Y-141422500D02*
X219804000Y-141422500D01*
G75*
G02*
X220054000Y-141672500I0J-250000D01*
G01*
X220054000Y-142172500D01*
G75*
G02*
X219804000Y-142422500I-250000J0D01*
G01*
X218854000Y-142422500D01*
G75*
G02*
X218604000Y-142172500I0J250000D01*
G01*
X218604000Y-141672500D01*
G75*
G02*
X218854000Y-141422500I250000J0D01*
G01*
G37*
G36*
G01*
X220375500Y-136202000D02*
X219425500Y-136202000D01*
G75*
G02*
X219175500Y-135952000I0J250000D01*
G01*
X219175500Y-135452000D01*
G75*
G02*
X219425500Y-135202000I250000J0D01*
G01*
X220375500Y-135202000D01*
G75*
G02*
X220625500Y-135452000I0J-250000D01*
G01*
X220625500Y-135952000D01*
G75*
G02*
X220375500Y-136202000I-250000J0D01*
G01*
G37*
G36*
G01*
X220375500Y-138102000D02*
X219425500Y-138102000D01*
G75*
G02*
X219175500Y-137852000I0J250000D01*
G01*
X219175500Y-137352000D01*
G75*
G02*
X219425500Y-137102000I250000J0D01*
G01*
X220375500Y-137102000D01*
G75*
G02*
X220625500Y-137352000I0J-250000D01*
G01*
X220625500Y-137852000D01*
G75*
G02*
X220375500Y-138102000I-250000J0D01*
G01*
G37*
G36*
G01*
X222029000Y-143894000D02*
X222979000Y-143894000D01*
G75*
G02*
X223229000Y-144144000I0J-250000D01*
G01*
X223229000Y-144644000D01*
G75*
G02*
X222979000Y-144894000I-250000J0D01*
G01*
X222029000Y-144894000D01*
G75*
G02*
X221779000Y-144644000I0J250000D01*
G01*
X221779000Y-144144000D01*
G75*
G02*
X222029000Y-143894000I250000J0D01*
G01*
G37*
G36*
G01*
X222029000Y-141994000D02*
X222979000Y-141994000D01*
G75*
G02*
X223229000Y-142244000I0J-250000D01*
G01*
X223229000Y-142744000D01*
G75*
G02*
X222979000Y-142994000I-250000J0D01*
G01*
X222029000Y-142994000D01*
G75*
G02*
X221779000Y-142744000I0J250000D01*
G01*
X221779000Y-142244000D01*
G75*
G02*
X222029000Y-141994000I250000J0D01*
G01*
G37*
G36*
G01*
X142019000Y-171836500D02*
X142969000Y-171836500D01*
G75*
G02*
X143219000Y-172086500I0J-250000D01*
G01*
X143219000Y-172586500D01*
G75*
G02*
X142969000Y-172836500I-250000J0D01*
G01*
X142019000Y-172836500D01*
G75*
G02*
X141769000Y-172586500I0J250000D01*
G01*
X141769000Y-172086500D01*
G75*
G02*
X142019000Y-171836500I250000J0D01*
G01*
G37*
G36*
G01*
X142019000Y-169936500D02*
X142969000Y-169936500D01*
G75*
G02*
X143219000Y-170186500I0J-250000D01*
G01*
X143219000Y-170686500D01*
G75*
G02*
X142969000Y-170936500I-250000J0D01*
G01*
X142019000Y-170936500D01*
G75*
G02*
X141769000Y-170686500I0J250000D01*
G01*
X141769000Y-170186500D01*
G75*
G02*
X142019000Y-169936500I250000J0D01*
G01*
G37*
G36*
G01*
X139413000Y-162935500D02*
X138463000Y-162935500D01*
G75*
G02*
X138213000Y-162685500I0J250000D01*
G01*
X138213000Y-162185500D01*
G75*
G02*
X138463000Y-161935500I250000J0D01*
G01*
X139413000Y-161935500D01*
G75*
G02*
X139663000Y-162185500I0J-250000D01*
G01*
X139663000Y-162685500D01*
G75*
G02*
X139413000Y-162935500I-250000J0D01*
G01*
G37*
G36*
G01*
X139413000Y-164835500D02*
X138463000Y-164835500D01*
G75*
G02*
X138213000Y-164585500I0J250000D01*
G01*
X138213000Y-164085500D01*
G75*
G02*
X138463000Y-163835500I250000J0D01*
G01*
X139413000Y-163835500D01*
G75*
G02*
X139663000Y-164085500I0J-250000D01*
G01*
X139663000Y-164585500D01*
G75*
G02*
X139413000Y-164835500I-250000J0D01*
G01*
G37*
G36*
G01*
X140238500Y-167444000D02*
X139288500Y-167444000D01*
G75*
G02*
X139038500Y-167194000I0J250000D01*
G01*
X139038500Y-166694000D01*
G75*
G02*
X139288500Y-166444000I250000J0D01*
G01*
X140238500Y-166444000D01*
G75*
G02*
X140488500Y-166694000I0J-250000D01*
G01*
X140488500Y-167194000D01*
G75*
G02*
X140238500Y-167444000I-250000J0D01*
G01*
G37*
G36*
G01*
X140238500Y-169344000D02*
X139288500Y-169344000D01*
G75*
G02*
X139038500Y-169094000I0J250000D01*
G01*
X139038500Y-168594000D01*
G75*
G02*
X139288500Y-168344000I250000J0D01*
G01*
X140238500Y-168344000D01*
G75*
G02*
X140488500Y-168594000I0J-250000D01*
G01*
X140488500Y-169094000D01*
G75*
G02*
X140238500Y-169344000I-250000J0D01*
G01*
G37*
G36*
G01*
X212103619Y-136009400D02*
X212103619Y-135059400D01*
G75*
G02*
X212353619Y-134809400I250000J0D01*
G01*
X212853619Y-134809400D01*
G75*
G02*
X213103619Y-135059400I0J-250000D01*
G01*
X213103619Y-136009400D01*
G75*
G02*
X212853619Y-136259400I-250000J0D01*
G01*
X212353619Y-136259400D01*
G75*
G02*
X212103619Y-136009400I0J250000D01*
G01*
G37*
G36*
G01*
X210203619Y-136009400D02*
X210203619Y-135059400D01*
G75*
G02*
X210453619Y-134809400I250000J0D01*
G01*
X210953619Y-134809400D01*
G75*
G02*
X211203619Y-135059400I0J-250000D01*
G01*
X211203619Y-136009400D01*
G75*
G02*
X210953619Y-136259400I-250000J0D01*
G01*
X210453619Y-136259400D01*
G75*
G02*
X210203619Y-136009400I0J250000D01*
G01*
G37*
G36*
G01*
X215308200Y-136847200D02*
X214358200Y-136847200D01*
G75*
G02*
X214108200Y-136597200I0J250000D01*
G01*
X214108200Y-136097200D01*
G75*
G02*
X214358200Y-135847200I250000J0D01*
G01*
X215308200Y-135847200D01*
G75*
G02*
X215558200Y-136097200I0J-250000D01*
G01*
X215558200Y-136597200D01*
G75*
G02*
X215308200Y-136847200I-250000J0D01*
G01*
G37*
G36*
G01*
X215308200Y-138747200D02*
X214358200Y-138747200D01*
G75*
G02*
X214108200Y-138497200I0J250000D01*
G01*
X214108200Y-137997200D01*
G75*
G02*
X214358200Y-137747200I250000J0D01*
G01*
X215308200Y-137747200D01*
G75*
G02*
X215558200Y-137997200I0J-250000D01*
G01*
X215558200Y-138497200D01*
G75*
G02*
X215308200Y-138747200I-250000J0D01*
G01*
G37*
G36*
G01*
X212103619Y-138109718D02*
X212103619Y-137159718D01*
G75*
G02*
X212353619Y-136909718I250000J0D01*
G01*
X212853619Y-136909718D01*
G75*
G02*
X213103619Y-137159718I0J-250000D01*
G01*
X213103619Y-138109718D01*
G75*
G02*
X212853619Y-138359718I-250000J0D01*
G01*
X212353619Y-138359718D01*
G75*
G02*
X212103619Y-138109718I0J250000D01*
G01*
G37*
G36*
G01*
X210203619Y-138109718D02*
X210203619Y-137159718D01*
G75*
G02*
X210453619Y-136909718I250000J0D01*
G01*
X210953619Y-136909718D01*
G75*
G02*
X211203619Y-137159718I0J-250000D01*
G01*
X211203619Y-138109718D01*
G75*
G02*
X210953619Y-138359718I-250000J0D01*
G01*
X210453619Y-138359718D01*
G75*
G02*
X210203619Y-138109718I0J250000D01*
G01*
G37*
G36*
G01*
X157767000Y-156624400D02*
X158717000Y-156624400D01*
G75*
G02*
X158967000Y-156874400I0J-250000D01*
G01*
X158967000Y-157374400D01*
G75*
G02*
X158717000Y-157624400I-250000J0D01*
G01*
X157767000Y-157624400D01*
G75*
G02*
X157517000Y-157374400I0J250000D01*
G01*
X157517000Y-156874400D01*
G75*
G02*
X157767000Y-156624400I250000J0D01*
G01*
G37*
G36*
G01*
X157767000Y-154724400D02*
X158717000Y-154724400D01*
G75*
G02*
X158967000Y-154974400I0J-250000D01*
G01*
X158967000Y-155474400D01*
G75*
G02*
X158717000Y-155724400I-250000J0D01*
G01*
X157767000Y-155724400D01*
G75*
G02*
X157517000Y-155474400I0J250000D01*
G01*
X157517000Y-154974400D01*
G75*
G02*
X157767000Y-154724400I250000J0D01*
G01*
G37*
G36*
G01*
X169080200Y-162171000D02*
X168130200Y-162171000D01*
G75*
G02*
X167880200Y-161921000I0J250000D01*
G01*
X167880200Y-161421000D01*
G75*
G02*
X168130200Y-161171000I250000J0D01*
G01*
X169080200Y-161171000D01*
G75*
G02*
X169330200Y-161421000I0J-250000D01*
G01*
X169330200Y-161921000D01*
G75*
G02*
X169080200Y-162171000I-250000J0D01*
G01*
G37*
G36*
G01*
X169080200Y-164071000D02*
X168130200Y-164071000D01*
G75*
G02*
X167880200Y-163821000I0J250000D01*
G01*
X167880200Y-163321000D01*
G75*
G02*
X168130200Y-163071000I250000J0D01*
G01*
X169080200Y-163071000D01*
G75*
G02*
X169330200Y-163321000I0J-250000D01*
G01*
X169330200Y-163821000D01*
G75*
G02*
X169080200Y-164071000I-250000J0D01*
G01*
G37*
G36*
G01*
X149761400Y-154932400D02*
X149761400Y-153982400D01*
G75*
G02*
X150011400Y-153732400I250000J0D01*
G01*
X150511400Y-153732400D01*
G75*
G02*
X150761400Y-153982400I0J-250000D01*
G01*
X150761400Y-154932400D01*
G75*
G02*
X150511400Y-155182400I-250000J0D01*
G01*
X150011400Y-155182400D01*
G75*
G02*
X149761400Y-154932400I0J250000D01*
G01*
G37*
G36*
G01*
X147861400Y-154932400D02*
X147861400Y-153982400D01*
G75*
G02*
X148111400Y-153732400I250000J0D01*
G01*
X148611400Y-153732400D01*
G75*
G02*
X148861400Y-153982400I0J-250000D01*
G01*
X148861400Y-154932400D01*
G75*
G02*
X148611400Y-155182400I-250000J0D01*
G01*
X148111400Y-155182400D01*
G75*
G02*
X147861400Y-154932400I0J250000D01*
G01*
G37*
G36*
G01*
X163949800Y-171010600D02*
X163949800Y-170060600D01*
G75*
G02*
X164199800Y-169810600I250000J0D01*
G01*
X164699800Y-169810600D01*
G75*
G02*
X164949800Y-170060600I0J-250000D01*
G01*
X164949800Y-171010600D01*
G75*
G02*
X164699800Y-171260600I-250000J0D01*
G01*
X164199800Y-171260600D01*
G75*
G02*
X163949800Y-171010600I0J250000D01*
G01*
G37*
G36*
G01*
X162049800Y-171010600D02*
X162049800Y-170060600D01*
G75*
G02*
X162299800Y-169810600I250000J0D01*
G01*
X162799800Y-169810600D01*
G75*
G02*
X163049800Y-170060600I0J-250000D01*
G01*
X163049800Y-171010600D01*
G75*
G02*
X162799800Y-171260600I-250000J0D01*
G01*
X162299800Y-171260600D01*
G75*
G02*
X162049800Y-171010600I0J250000D01*
G01*
G37*
G36*
G01*
X163924400Y-168902400D02*
X163924400Y-167952400D01*
G75*
G02*
X164174400Y-167702400I250000J0D01*
G01*
X164674400Y-167702400D01*
G75*
G02*
X164924400Y-167952400I0J-250000D01*
G01*
X164924400Y-168902400D01*
G75*
G02*
X164674400Y-169152400I-250000J0D01*
G01*
X164174400Y-169152400D01*
G75*
G02*
X163924400Y-168902400I0J250000D01*
G01*
G37*
G36*
G01*
X162024400Y-168902400D02*
X162024400Y-167952400D01*
G75*
G02*
X162274400Y-167702400I250000J0D01*
G01*
X162774400Y-167702400D01*
G75*
G02*
X163024400Y-167952400I0J-250000D01*
G01*
X163024400Y-168902400D01*
G75*
G02*
X162774400Y-169152400I-250000J0D01*
G01*
X162274400Y-169152400D01*
G75*
G02*
X162024400Y-168902400I0J250000D01*
G01*
G37*
G36*
G01*
X161247200Y-175785800D02*
X161247200Y-174835800D01*
G75*
G02*
X161497200Y-174585800I250000J0D01*
G01*
X161997200Y-174585800D01*
G75*
G02*
X162247200Y-174835800I0J-250000D01*
G01*
X162247200Y-175785800D01*
G75*
G02*
X161997200Y-176035800I-250000J0D01*
G01*
X161497200Y-176035800D01*
G75*
G02*
X161247200Y-175785800I0J250000D01*
G01*
G37*
G36*
G01*
X159347200Y-175785800D02*
X159347200Y-174835800D01*
G75*
G02*
X159597200Y-174585800I250000J0D01*
G01*
X160097200Y-174585800D01*
G75*
G02*
X160347200Y-174835800I0J-250000D01*
G01*
X160347200Y-175785800D01*
G75*
G02*
X160097200Y-176035800I-250000J0D01*
G01*
X159597200Y-176035800D01*
G75*
G02*
X159347200Y-175785800I0J250000D01*
G01*
G37*
G36*
G01*
X158772400Y-163990000D02*
X158772400Y-164940000D01*
G75*
G02*
X158522400Y-165190000I-250000J0D01*
G01*
X158022400Y-165190000D01*
G75*
G02*
X157772400Y-164940000I0J250000D01*
G01*
X157772400Y-163990000D01*
G75*
G02*
X158022400Y-163740000I250000J0D01*
G01*
X158522400Y-163740000D01*
G75*
G02*
X158772400Y-163990000I0J-250000D01*
G01*
G37*
G36*
G01*
X160672400Y-163990000D02*
X160672400Y-164940000D01*
G75*
G02*
X160422400Y-165190000I-250000J0D01*
G01*
X159922400Y-165190000D01*
G75*
G02*
X159672400Y-164940000I0J250000D01*
G01*
X159672400Y-163990000D01*
G75*
G02*
X159922400Y-163740000I250000J0D01*
G01*
X160422400Y-163740000D01*
G75*
G02*
X160672400Y-163990000I0J-250000D01*
G01*
G37*
G36*
G01*
X209512579Y-174993517D02*
X209512579Y-175943517D01*
G75*
G02*
X209262579Y-176193517I-250000J0D01*
G01*
X208762579Y-176193517D01*
G75*
G02*
X208512579Y-175943517I0J250000D01*
G01*
X208512579Y-174993517D01*
G75*
G02*
X208762579Y-174743517I250000J0D01*
G01*
X209262579Y-174743517D01*
G75*
G02*
X209512579Y-174993517I0J-250000D01*
G01*
G37*
G36*
G01*
X211412579Y-174993517D02*
X211412579Y-175943517D01*
G75*
G02*
X211162579Y-176193517I-250000J0D01*
G01*
X210662579Y-176193517D01*
G75*
G02*
X210412579Y-175943517I0J250000D01*
G01*
X210412579Y-174993517D01*
G75*
G02*
X210662579Y-174743517I250000J0D01*
G01*
X211162579Y-174743517D01*
G75*
G02*
X211412579Y-174993517I0J-250000D01*
G01*
G37*
G36*
G01*
X214821579Y-176476517D02*
X213871579Y-176476517D01*
G75*
G02*
X213621579Y-176226517I0J250000D01*
G01*
X213621579Y-175726517D01*
G75*
G02*
X213871579Y-175476517I250000J0D01*
G01*
X214821579Y-175476517D01*
G75*
G02*
X215071579Y-175726517I0J-250000D01*
G01*
X215071579Y-176226517D01*
G75*
G02*
X214821579Y-176476517I-250000J0D01*
G01*
G37*
G36*
G01*
X214821579Y-178376517D02*
X213871579Y-178376517D01*
G75*
G02*
X213621579Y-178126517I0J250000D01*
G01*
X213621579Y-177626517D01*
G75*
G02*
X213871579Y-177376517I250000J0D01*
G01*
X214821579Y-177376517D01*
G75*
G02*
X215071579Y-177626517I0J-250000D01*
G01*
X215071579Y-178126517D01*
G75*
G02*
X214821579Y-178376517I-250000J0D01*
G01*
G37*
D20*
X204059579Y-171968517D03*
D21*
X204059579Y-175468517D03*
G36*
G01*
X210649922Y-127892629D02*
X209978171Y-127220878D01*
G75*
G02*
X209978171Y-126867324I176777J176777D01*
G01*
X210331724Y-126513771D01*
G75*
G02*
X210685278Y-126513771I176777J-176777D01*
G01*
X211357029Y-127185522D01*
G75*
G02*
X211357029Y-127539076I-176777J-176777D01*
G01*
X211003476Y-127892629D01*
G75*
G02*
X210649922Y-127892629I-176777J176777D01*
G01*
G37*
G36*
G01*
X209306420Y-129236131D02*
X208634669Y-128564380D01*
G75*
G02*
X208634669Y-128210826I176777J176777D01*
G01*
X208988222Y-127857273D01*
G75*
G02*
X209341776Y-127857273I176777J-176777D01*
G01*
X210013527Y-128529024D01*
G75*
G02*
X210013527Y-128882578I-176777J-176777D01*
G01*
X209659974Y-129236131D01*
G75*
G02*
X209306420Y-129236131I-176777J176777D01*
G01*
G37*
G36*
G01*
X213861673Y-131386478D02*
X213189922Y-130714727D01*
G75*
G02*
X213189922Y-130361173I176777J176777D01*
G01*
X213543475Y-130007620D01*
G75*
G02*
X213897029Y-130007620I176777J-176777D01*
G01*
X214568780Y-130679371D01*
G75*
G02*
X214568780Y-131032925I-176777J-176777D01*
G01*
X214215227Y-131386478D01*
G75*
G02*
X213861673Y-131386478I-176777J176777D01*
G01*
G37*
G36*
G01*
X212518171Y-132729980D02*
X211846420Y-132058229D01*
G75*
G02*
X211846420Y-131704675I176777J176777D01*
G01*
X212199973Y-131351122D01*
G75*
G02*
X212553527Y-131351122I176777J-176777D01*
G01*
X213225278Y-132022873D01*
G75*
G02*
X213225278Y-132376427I-176777J-176777D01*
G01*
X212871725Y-132729980D01*
G75*
G02*
X212518171Y-132729980I-176777J176777D01*
G01*
G37*
G36*
G01*
X193352000Y-89441000D02*
X193352000Y-90391000D01*
G75*
G02*
X193102000Y-90641000I-250000J0D01*
G01*
X192602000Y-90641000D01*
G75*
G02*
X192352000Y-90391000I0J250000D01*
G01*
X192352000Y-89441000D01*
G75*
G02*
X192602000Y-89191000I250000J0D01*
G01*
X193102000Y-89191000D01*
G75*
G02*
X193352000Y-89441000I0J-250000D01*
G01*
G37*
G36*
G01*
X195252000Y-89441000D02*
X195252000Y-90391000D01*
G75*
G02*
X195002000Y-90641000I-250000J0D01*
G01*
X194502000Y-90641000D01*
G75*
G02*
X194252000Y-90391000I0J250000D01*
G01*
X194252000Y-89441000D01*
G75*
G02*
X194502000Y-89191000I250000J0D01*
G01*
X195002000Y-89191000D01*
G75*
G02*
X195252000Y-89441000I0J-250000D01*
G01*
G37*
G36*
G01*
X178620800Y-88613000D02*
X178620800Y-87663000D01*
G75*
G02*
X178870800Y-87413000I250000J0D01*
G01*
X179370800Y-87413000D01*
G75*
G02*
X179620800Y-87663000I0J-250000D01*
G01*
X179620800Y-88613000D01*
G75*
G02*
X179370800Y-88863000I-250000J0D01*
G01*
X178870800Y-88863000D01*
G75*
G02*
X178620800Y-88613000I0J250000D01*
G01*
G37*
G36*
G01*
X176720800Y-88613000D02*
X176720800Y-87663000D01*
G75*
G02*
X176970800Y-87413000I250000J0D01*
G01*
X177470800Y-87413000D01*
G75*
G02*
X177720800Y-87663000I0J-250000D01*
G01*
X177720800Y-88613000D01*
G75*
G02*
X177470800Y-88863000I-250000J0D01*
G01*
X176970800Y-88863000D01*
G75*
G02*
X176720800Y-88613000I0J250000D01*
G01*
G37*
G36*
G01*
X199729910Y-128593848D02*
X199729910Y-128593848D01*
G75*
G02*
X202037836Y-128593848I1153963J-1153963D01*
G01*
X204579248Y-131135260D01*
G75*
G02*
X204579248Y-133443186I-1153963J-1153963D01*
G01*
X204579248Y-133443186D01*
G75*
G02*
X202271322Y-133443186I-1153963J1153963D01*
G01*
X199729910Y-130901774D01*
G75*
G02*
X199729910Y-128593848I1153963J1153963D01*
G01*
G37*
G36*
G01*
X222589910Y-133443186D02*
X222589910Y-133443186D01*
G75*
G02*
X222589910Y-131135260I1153963J1153963D01*
G01*
X225131322Y-128593848D01*
G75*
G02*
X227439248Y-128593848I1153963J-1153963D01*
G01*
X227439248Y-128593848D01*
G75*
G02*
X227439248Y-130901774I-1153963J-1153963D01*
G01*
X224897836Y-133443186D01*
G75*
G02*
X222589910Y-133443186I-1153963J1153963D01*
G01*
G37*
G36*
G01*
X199729910Y-156303186D02*
X199729910Y-156303186D01*
G75*
G02*
X199729910Y-153995260I1153963J1153963D01*
G01*
X202271322Y-151453848D01*
G75*
G02*
X204579248Y-151453848I1153963J-1153963D01*
G01*
X204579248Y-151453848D01*
G75*
G02*
X204579248Y-153761774I-1153963J-1153963D01*
G01*
X202037836Y-156303186D01*
G75*
G02*
X199729910Y-156303186I-1153963J1153963D01*
G01*
G37*
G36*
G01*
X222589910Y-151453848D02*
X222589910Y-151453848D01*
G75*
G02*
X224897836Y-151453848I1153963J-1153963D01*
G01*
X227439248Y-153995260D01*
G75*
G02*
X227439248Y-156303186I-1153963J-1153963D01*
G01*
X227439248Y-156303186D01*
G75*
G02*
X225131322Y-156303186I-1153963J1153963D01*
G01*
X222589910Y-153761774D01*
G75*
G02*
X222589910Y-151453848I1153963J1153963D01*
G01*
G37*
D48*
X214669158Y-170000000D03*
D49*
X149000000Y-170000000D03*
X181834579Y-99586017D03*
D50*
X135987579Y-153370517D03*
X135987579Y-128370517D03*
D51*
X159402579Y-136570517D03*
X163752579Y-136570517D03*
X159402579Y-136970517D03*
X163752579Y-136970517D03*
X159402579Y-137370517D03*
X163752579Y-137370517D03*
X159402579Y-137770517D03*
X163752579Y-137770517D03*
X159402579Y-138170517D03*
X163752579Y-138170517D03*
X159402579Y-138570517D03*
X163752579Y-138570517D03*
X159402579Y-138970517D03*
X163752579Y-138970517D03*
X159402579Y-139370517D03*
X163752579Y-139370517D03*
X159402579Y-139770517D03*
X163752579Y-139770517D03*
X159402579Y-140170517D03*
X163752579Y-140170517D03*
M02*
