G04 #@! TF.GenerationSoftware,KiCad,Pcbnew,(5.1.7)-1*
G04 #@! TF.CreationDate,2021-09-16T14:59:04-07:00*
G04 #@! TF.ProjectId,LCP_Controller,4c43505f-436f-46e7-9472-6f6c6c65722e,rev?*
G04 #@! TF.SameCoordinates,Original*
G04 #@! TF.FileFunction,Legend,Bot*
G04 #@! TF.FilePolarity,Positive*
%FSLAX46Y46*%
G04 Gerber Fmt 4.6, Leading zero omitted, Abs format (unit mm)*
G04 Created by KiCad (PCBNEW (5.1.7)-1) date 2021-09-16 14:59:04*
%MOMM*%
%LPD*%
G01*
G04 APERTURE LIST*
%ADD10C,0.300000*%
%ADD11C,0.203200*%
%ADD12C,0.127000*%
%ADD13C,0.120000*%
%ADD14C,0.152400*%
%ADD15C,0.150000*%
G04 APERTURE END LIST*
D10*
X196128571Y-126378571D02*
X196842857Y-126378571D01*
X196842857Y-124878571D01*
X194771428Y-126235714D02*
X194842857Y-126307142D01*
X195057142Y-126378571D01*
X195200000Y-126378571D01*
X195414285Y-126307142D01*
X195557142Y-126164285D01*
X195628571Y-126021428D01*
X195700000Y-125735714D01*
X195700000Y-125521428D01*
X195628571Y-125235714D01*
X195557142Y-125092857D01*
X195414285Y-124950000D01*
X195200000Y-124878571D01*
X195057142Y-124878571D01*
X194842857Y-124950000D01*
X194771428Y-125021428D01*
X194128571Y-126378571D02*
X194128571Y-124878571D01*
X193557142Y-124878571D01*
X193414285Y-124950000D01*
X193342857Y-125021428D01*
X193271428Y-125164285D01*
X193271428Y-125378571D01*
X193342857Y-125521428D01*
X193414285Y-125592857D01*
X193557142Y-125664285D01*
X194128571Y-125664285D01*
X190628571Y-126235714D02*
X190700000Y-126307142D01*
X190914285Y-126378571D01*
X191057142Y-126378571D01*
X191271428Y-126307142D01*
X191414285Y-126164285D01*
X191485714Y-126021428D01*
X191557142Y-125735714D01*
X191557142Y-125521428D01*
X191485714Y-125235714D01*
X191414285Y-125092857D01*
X191271428Y-124950000D01*
X191057142Y-124878571D01*
X190914285Y-124878571D01*
X190700000Y-124950000D01*
X190628571Y-125021428D01*
X189771428Y-126378571D02*
X189914285Y-126307142D01*
X189985714Y-126235714D01*
X190057142Y-126092857D01*
X190057142Y-125664285D01*
X189985714Y-125521428D01*
X189914285Y-125450000D01*
X189771428Y-125378571D01*
X189557142Y-125378571D01*
X189414285Y-125450000D01*
X189342857Y-125521428D01*
X189271428Y-125664285D01*
X189271428Y-126092857D01*
X189342857Y-126235714D01*
X189414285Y-126307142D01*
X189557142Y-126378571D01*
X189771428Y-126378571D01*
X188628571Y-125378571D02*
X188628571Y-126378571D01*
X188628571Y-125521428D02*
X188557142Y-125450000D01*
X188414285Y-125378571D01*
X188200000Y-125378571D01*
X188057142Y-125450000D01*
X187985714Y-125592857D01*
X187985714Y-126378571D01*
X187485714Y-125378571D02*
X186914285Y-125378571D01*
X187271428Y-124878571D02*
X187271428Y-126164285D01*
X187200000Y-126307142D01*
X187057142Y-126378571D01*
X186914285Y-126378571D01*
X186414285Y-126378571D02*
X186414285Y-125378571D01*
X186414285Y-125664285D02*
X186342857Y-125521428D01*
X186271428Y-125450000D01*
X186128571Y-125378571D01*
X185985714Y-125378571D01*
X185271428Y-126378571D02*
X185414285Y-126307142D01*
X185485714Y-126235714D01*
X185557142Y-126092857D01*
X185557142Y-125664285D01*
X185485714Y-125521428D01*
X185414285Y-125450000D01*
X185271428Y-125378571D01*
X185057142Y-125378571D01*
X184914285Y-125450000D01*
X184842857Y-125521428D01*
X184771428Y-125664285D01*
X184771428Y-126092857D01*
X184842857Y-126235714D01*
X184914285Y-126307142D01*
X185057142Y-126378571D01*
X185271428Y-126378571D01*
X183914285Y-126378571D02*
X184057142Y-126307142D01*
X184128571Y-126164285D01*
X184128571Y-124878571D01*
X183128571Y-126378571D02*
X183271428Y-126307142D01*
X183342857Y-126164285D01*
X183342857Y-124878571D01*
X181985714Y-126307142D02*
X182128571Y-126378571D01*
X182414285Y-126378571D01*
X182557142Y-126307142D01*
X182628571Y-126164285D01*
X182628571Y-125592857D01*
X182557142Y-125450000D01*
X182414285Y-125378571D01*
X182128571Y-125378571D01*
X181985714Y-125450000D01*
X181914285Y-125592857D01*
X181914285Y-125735714D01*
X182628571Y-125878571D01*
X181271428Y-126378571D02*
X181271428Y-125378571D01*
X181271428Y-125664285D02*
X181200000Y-125521428D01*
X181128571Y-125450000D01*
X180985714Y-125378571D01*
X180842857Y-125378571D01*
X178342857Y-126378571D02*
X178842857Y-125664285D01*
X179200000Y-126378571D02*
X179200000Y-124878571D01*
X178628571Y-124878571D01*
X178485714Y-124950000D01*
X178414285Y-125021428D01*
X178342857Y-125164285D01*
X178342857Y-125378571D01*
X178414285Y-125521428D01*
X178485714Y-125592857D01*
X178628571Y-125664285D01*
X179200000Y-125664285D01*
X177128571Y-126307142D02*
X177271428Y-126378571D01*
X177557142Y-126378571D01*
X177700000Y-126307142D01*
X177771428Y-126164285D01*
X177771428Y-125592857D01*
X177700000Y-125450000D01*
X177557142Y-125378571D01*
X177271428Y-125378571D01*
X177128571Y-125450000D01*
X177057142Y-125592857D01*
X177057142Y-125735714D01*
X177771428Y-125878571D01*
X176557142Y-125378571D02*
X176200000Y-126378571D01*
X175842857Y-125378571D01*
X174485714Y-126378571D02*
X175342857Y-126378571D01*
X174914285Y-126378571D02*
X174914285Y-124878571D01*
X175057142Y-125092857D01*
X175200000Y-125235714D01*
X175342857Y-125307142D01*
D11*
X144664000Y-159756000D02*
X142864000Y-159756000D01*
X144664000Y-158506000D02*
X142864000Y-158506000D01*
X145534000Y-158506000D02*
X145534000Y-159756000D01*
D12*
X221449579Y-138343517D02*
X237199579Y-138343517D01*
X237199579Y-138343517D02*
X237199579Y-149093517D01*
X237199579Y-149093517D02*
X221449579Y-149093517D01*
X221449579Y-149093517D02*
X221449579Y-138343517D01*
D13*
X212704416Y-132788521D02*
X214648960Y-134733064D01*
X215568198Y-117550370D02*
X217512742Y-119494913D01*
X214648960Y-117550370D02*
X206517232Y-125682098D01*
X221755383Y-123737554D02*
X223699926Y-125682098D01*
X215568198Y-134733064D02*
X223699926Y-126601336D01*
X206517232Y-126601336D02*
X208461775Y-128545880D01*
X217229899Y-118717096D02*
X215108579Y-116595775D01*
X215108579Y-116595775D02*
X212987259Y-118717096D01*
X215108579Y-117133177D02*
X206100039Y-126141717D01*
X206100039Y-126141717D02*
X209296161Y-129337840D01*
X211912456Y-131954135D02*
X215108579Y-135150257D01*
X224117119Y-126141717D02*
X215108579Y-135150257D01*
X215108579Y-117133177D02*
X218304702Y-120329299D01*
X220920997Y-122945594D02*
X224117119Y-126141717D01*
X206517232Y-125682098D02*
G75*
G03*
X206517232Y-126601336I459619J-459619D01*
G01*
X215568198Y-117550370D02*
G75*
G03*
X214648960Y-117550370I-459619J-459619D01*
G01*
X223699926Y-126601336D02*
G75*
G03*
X223699926Y-125682098I-459619J459619D01*
G01*
X214648960Y-134733064D02*
G75*
G03*
X215568198Y-134733064I459619J459619D01*
G01*
X196092000Y-121371000D02*
X195592000Y-121371000D01*
X196092000Y-123731000D02*
X195592000Y-123731000D01*
D11*
X135301779Y-138013677D02*
X132319819Y-138013677D01*
X132319819Y-138013677D02*
X132319819Y-145613357D01*
X132319819Y-145613357D02*
X135301779Y-145613357D01*
X156178039Y-138013677D02*
X156178039Y-145613357D01*
X156171104Y-145625365D02*
G75*
G02*
X135301779Y-145613357I-10432465J3824548D01*
G01*
X135304234Y-138000029D02*
G75*
G02*
X156178039Y-138013677I10434405J-3826188D01*
G01*
X144664000Y-157851000D02*
X142864000Y-157851000D01*
X144664000Y-156601000D02*
X142864000Y-156601000D01*
X145534000Y-156601000D02*
X145534000Y-157851000D01*
D13*
X144119000Y-124577000D02*
X160094000Y-124577000D01*
X160094000Y-124577000D02*
X160094000Y-129677000D01*
X160094000Y-129677000D02*
X144119000Y-129677000D01*
X220038500Y-142686000D02*
X218238500Y-142686000D01*
X218188500Y-141286000D02*
X218188500Y-140186000D01*
X220088500Y-141286000D02*
X220088500Y-140186000D01*
X145756000Y-120767500D02*
X146231000Y-120767500D01*
X146231000Y-120767500D02*
X146231000Y-120292500D01*
X139486000Y-113547500D02*
X139011000Y-113547500D01*
X139011000Y-113547500D02*
X139011000Y-114022500D01*
X145756000Y-113547500D02*
X146231000Y-113547500D01*
X146231000Y-113547500D02*
X146231000Y-114022500D01*
X139486000Y-120767500D02*
X139011000Y-120767500D01*
X212599579Y-184333517D02*
X210839579Y-184333517D01*
X210839579Y-181263517D02*
X213269579Y-181263517D01*
X219038600Y-113071000D02*
X220838600Y-113071000D01*
X220838600Y-116291000D02*
X217888600Y-116291000D01*
X185094500Y-92669000D02*
X185569500Y-92669000D01*
X185569500Y-92669000D02*
X185569500Y-92194000D01*
X182824500Y-89449000D02*
X182349500Y-89449000D01*
X182349500Y-89449000D02*
X182349500Y-89924000D01*
X185094500Y-89449000D02*
X185569500Y-89449000D01*
X185569500Y-89449000D02*
X185569500Y-89924000D01*
X182824500Y-92669000D02*
X182349500Y-92669000D01*
X155823500Y-160643000D02*
X155023500Y-160643000D01*
X155823500Y-162483000D02*
X155023500Y-162483000D01*
X148978200Y-147536600D02*
X148178200Y-147536600D01*
X148978200Y-149376600D02*
X148178200Y-149376600D01*
X200260000Y-95662000D02*
X201060000Y-95662000D01*
X200260000Y-93822000D02*
X201060000Y-93822000D01*
X207735436Y-159358000D02*
X208189564Y-159358000D01*
X207735436Y-157888000D02*
X208189564Y-157888000D01*
X232413436Y-135736000D02*
X232867564Y-135736000D01*
X232413436Y-134266000D02*
X232867564Y-134266000D01*
X228523436Y-117321000D02*
X228977564Y-117321000D01*
X228523436Y-115851000D02*
X228977564Y-115851000D01*
X225485064Y-119089500D02*
X225030936Y-119089500D01*
X225485064Y-120559500D02*
X225030936Y-120559500D01*
X225872936Y-126465000D02*
X226327064Y-126465000D01*
X225872936Y-124995000D02*
X226327064Y-124995000D01*
X229652500Y-124981064D02*
X229652500Y-124526936D01*
X228182500Y-124981064D02*
X228182500Y-124526936D01*
X134432936Y-124941000D02*
X134887064Y-124941000D01*
X134432936Y-123471000D02*
X134887064Y-123471000D01*
X223619179Y-163354253D02*
X223619179Y-163808381D01*
X225089179Y-163354253D02*
X225089179Y-163808381D01*
X168811942Y-152312900D02*
X169286458Y-152312900D01*
X168811942Y-151267900D02*
X169286458Y-151267900D01*
X142076700Y-148610858D02*
X142076700Y-148136342D01*
X141031700Y-148610858D02*
X141031700Y-148136342D01*
X167650900Y-153902142D02*
X167650900Y-154376658D01*
X168695900Y-153902142D02*
X168695900Y-154376658D01*
X169454300Y-153952942D02*
X169454300Y-154427458D01*
X170499300Y-153952942D02*
X170499300Y-154427458D01*
X143717742Y-149518900D02*
X144192258Y-149518900D01*
X143717742Y-148473900D02*
X144192258Y-148473900D01*
X143768542Y-148020300D02*
X144243058Y-148020300D01*
X143768542Y-146975300D02*
X144243058Y-146975300D01*
X204359136Y-187577400D02*
X204813264Y-187577400D01*
X204359136Y-186107400D02*
X204813264Y-186107400D01*
X200752336Y-186878900D02*
X201206464Y-186878900D01*
X200752336Y-185408900D02*
X201206464Y-185408900D01*
X206159579Y-172529453D02*
X206159579Y-176883581D01*
X209579579Y-172529453D02*
X209579579Y-176883581D01*
X212033643Y-184893517D02*
X211579515Y-184893517D01*
X212033643Y-186363517D02*
X211579515Y-186363517D01*
X218616800Y-111685041D02*
X218616800Y-111377759D01*
X217856800Y-111685041D02*
X217856800Y-111377759D01*
X215766417Y-115147110D02*
X216101950Y-114811577D01*
X215027490Y-114408183D02*
X215363023Y-114072650D01*
X229550500Y-117673000D02*
X229550500Y-118603000D01*
X229550500Y-120833000D02*
X229550500Y-119903000D01*
X229550500Y-120833000D02*
X227390500Y-120833000D01*
X229550500Y-117673000D02*
X228090500Y-117673000D01*
X224162500Y-122176000D02*
X225092500Y-122176000D01*
X227322500Y-122176000D02*
X226392500Y-122176000D01*
X227322500Y-122176000D02*
X227322500Y-124336000D01*
X224162500Y-122176000D02*
X224162500Y-123636000D01*
X133040000Y-120271000D02*
X133970000Y-120271000D01*
X136200000Y-120271000D02*
X135270000Y-120271000D01*
X136200000Y-120271000D02*
X136200000Y-122431000D01*
X133040000Y-120271000D02*
X133040000Y-121731000D01*
X228798000Y-130888200D02*
X229728000Y-130888200D01*
X231958000Y-130888200D02*
X231028000Y-130888200D01*
X231958000Y-130888200D02*
X231958000Y-133048200D01*
X228798000Y-130888200D02*
X228798000Y-132348200D01*
X208326579Y-168782517D02*
X209126579Y-168782517D01*
X206076579Y-166182517D02*
X206076579Y-168782517D01*
X206076579Y-168782517D02*
X207026579Y-168782517D01*
X137292381Y-110026733D02*
X138879087Y-111244256D01*
X138996913Y-107805344D02*
X137292381Y-110026733D01*
X140583619Y-109022867D02*
X138996913Y-107805344D01*
X138879087Y-111244256D02*
X140583619Y-109022867D01*
X174770000Y-98090000D02*
X174770000Y-97490000D01*
X171320000Y-98790000D02*
X174120000Y-98790000D01*
X170670000Y-97490000D02*
X170670000Y-98090000D01*
X174120000Y-96790000D02*
X171320000Y-96790000D01*
X174770000Y-97490000D02*
G75*
G03*
X174070000Y-96790000I-700000J0D01*
G01*
X174070000Y-98790000D02*
G75*
G03*
X174770000Y-98090000I0J700000D01*
G01*
X170670000Y-98090000D02*
G75*
G03*
X171370000Y-98790000I700000J0D01*
G01*
X171370000Y-96790000D02*
G75*
G03*
X170670000Y-97490000I0J-700000D01*
G01*
X174770000Y-94915000D02*
X174770000Y-94315000D01*
X171320000Y-95615000D02*
X174120000Y-95615000D01*
X170670000Y-94315000D02*
X170670000Y-94915000D01*
X174120000Y-93615000D02*
X171320000Y-93615000D01*
X174770000Y-94315000D02*
G75*
G03*
X174070000Y-93615000I-700000J0D01*
G01*
X174070000Y-95615000D02*
G75*
G03*
X174770000Y-94915000I0J700000D01*
G01*
X170670000Y-94915000D02*
G75*
G03*
X171370000Y-95615000I700000J0D01*
G01*
X171370000Y-93615000D02*
G75*
G03*
X170670000Y-94315000I0J-700000D01*
G01*
X160158400Y-148950800D02*
X160158400Y-148020800D01*
X160158400Y-145790800D02*
X160158400Y-146720800D01*
X160158400Y-145790800D02*
X162318400Y-145790800D01*
X160158400Y-148950800D02*
X161618400Y-148950800D01*
X138025600Y-150119200D02*
X138025600Y-149189200D01*
X138025600Y-146959200D02*
X138025600Y-147889200D01*
X138025600Y-146959200D02*
X140185600Y-146959200D01*
X138025600Y-150119200D02*
X139485600Y-150119200D01*
X234097920Y-150814500D02*
X234379080Y-150814500D01*
X234097920Y-149794500D02*
X234379080Y-149794500D01*
X137377500Y-122865248D02*
X137377500Y-123387752D01*
X138847500Y-122865248D02*
X138847500Y-123387752D01*
X135887903Y-115300151D02*
X136149155Y-114847649D01*
X134614845Y-114565151D02*
X134876097Y-114112649D01*
X146057252Y-153062000D02*
X145534748Y-153062000D01*
X146057252Y-154532000D02*
X145534748Y-154532000D01*
X150868748Y-156691000D02*
X151391252Y-156691000D01*
X150868748Y-155221000D02*
X151391252Y-155221000D01*
X217247080Y-137348500D02*
X216965920Y-137348500D01*
X217247080Y-138368500D02*
X216965920Y-138368500D01*
X216371080Y-142619000D02*
X216089920Y-142619000D01*
X216371080Y-143639000D02*
X216089920Y-143639000D01*
X225803579Y-163370865D02*
X225803579Y-163893369D01*
X227273579Y-163370865D02*
X227273579Y-163893369D01*
X164650748Y-156894200D02*
X165173252Y-156894200D01*
X164650748Y-155424200D02*
X165173252Y-155424200D01*
X157049800Y-155882748D02*
X157049800Y-156405252D01*
X158519800Y-155882748D02*
X158519800Y-156405252D01*
X166292200Y-153306452D02*
X166292200Y-152783948D01*
X164822200Y-153306452D02*
X164822200Y-152783948D01*
X161043948Y-156894200D02*
X161566452Y-156894200D01*
X161043948Y-155424200D02*
X161566452Y-155424200D01*
X156538600Y-153423252D02*
X156538600Y-152900748D01*
X155068600Y-153423252D02*
X155068600Y-152900748D01*
X164336400Y-170964452D02*
X164336400Y-170441948D01*
X162866400Y-170964452D02*
X162866400Y-170441948D01*
X162333000Y-173982748D02*
X162333000Y-174505252D01*
X163803000Y-173982748D02*
X163803000Y-174505252D01*
X201253952Y-187491700D02*
X200731448Y-187491700D01*
X201253952Y-188961700D02*
X200731448Y-188961700D01*
X213704327Y-180648517D02*
X214226831Y-180648517D01*
X213704327Y-179178517D02*
X214226831Y-179178517D01*
X206382579Y-182172265D02*
X206382579Y-183594769D01*
X209102579Y-182172265D02*
X209102579Y-183594769D01*
X219894036Y-117013400D02*
X219678364Y-117013400D01*
X219894036Y-117733400D02*
X219678364Y-117733400D01*
X220790380Y-111427800D02*
X220509220Y-111427800D01*
X220790380Y-112447800D02*
X220509220Y-112447800D01*
X224157000Y-113602380D02*
X224157000Y-113321220D01*
X223137000Y-113602380D02*
X223137000Y-113321220D01*
X228062179Y-158761119D02*
X227883472Y-159252112D01*
X229443528Y-159263888D02*
X229264821Y-159754881D01*
X189491252Y-88114200D02*
X188968748Y-88114200D01*
X189491252Y-89584200D02*
X188968748Y-89584200D01*
X177909548Y-88873000D02*
X178432052Y-88873000D01*
X177909548Y-87403000D02*
X178432052Y-87403000D01*
D14*
X141846904Y-160098619D02*
X141846904Y-159082619D01*
X141605000Y-159082619D01*
X141459857Y-159131000D01*
X141363095Y-159227761D01*
X141314714Y-159324523D01*
X141266333Y-159518047D01*
X141266333Y-159663190D01*
X141314714Y-159856714D01*
X141363095Y-159953476D01*
X141459857Y-160050238D01*
X141605000Y-160098619D01*
X141846904Y-160098619D01*
X140395476Y-159082619D02*
X140589000Y-159082619D01*
X140685761Y-159131000D01*
X140734142Y-159179380D01*
X140830904Y-159324523D01*
X140879285Y-159518047D01*
X140879285Y-159905095D01*
X140830904Y-160001857D01*
X140782523Y-160050238D01*
X140685761Y-160098619D01*
X140492238Y-160098619D01*
X140395476Y-160050238D01*
X140347095Y-160001857D01*
X140298714Y-159905095D01*
X140298714Y-159663190D01*
X140347095Y-159566428D01*
X140395476Y-159518047D01*
X140492238Y-159469666D01*
X140685761Y-159469666D01*
X140782523Y-159518047D01*
X140830904Y-159566428D01*
X140879285Y-159663190D01*
D15*
X228182714Y-136990666D02*
X227577952Y-136990666D01*
X228303666Y-137353523D02*
X227880333Y-136083523D01*
X227457000Y-137353523D01*
X227033666Y-137353523D02*
X227033666Y-136506857D01*
X227033666Y-136748761D02*
X226973190Y-136627809D01*
X226912714Y-136567333D01*
X226791761Y-136506857D01*
X226670809Y-136506857D01*
X226428904Y-136506857D02*
X225945095Y-136506857D01*
X226247476Y-136083523D02*
X226247476Y-137172095D01*
X226187000Y-137293047D01*
X226066047Y-137353523D01*
X225945095Y-137353523D01*
X225037952Y-137293047D02*
X225158904Y-137353523D01*
X225400809Y-137353523D01*
X225521761Y-137293047D01*
X225582238Y-137172095D01*
X225582238Y-136688285D01*
X225521761Y-136567333D01*
X225400809Y-136506857D01*
X225158904Y-136506857D01*
X225037952Y-136567333D01*
X224977476Y-136688285D01*
X224977476Y-136809238D01*
X225582238Y-136930190D01*
X224433190Y-137353523D02*
X224433190Y-136506857D01*
X224433190Y-136627809D02*
X224372714Y-136567333D01*
X224251761Y-136506857D01*
X224070333Y-136506857D01*
X223949380Y-136567333D01*
X223888904Y-136688285D01*
X223888904Y-137353523D01*
X223888904Y-136688285D02*
X223828428Y-136567333D01*
X223707476Y-136506857D01*
X223526047Y-136506857D01*
X223405095Y-136567333D01*
X223344619Y-136688285D01*
X223344619Y-137353523D01*
X222739857Y-137353523D02*
X222739857Y-136506857D01*
X222739857Y-136083523D02*
X222800333Y-136144000D01*
X222739857Y-136204476D01*
X222679380Y-136144000D01*
X222739857Y-136083523D01*
X222739857Y-136204476D01*
X222195571Y-137293047D02*
X222074619Y-137353523D01*
X221832714Y-137353523D01*
X221711761Y-137293047D01*
X221651285Y-137172095D01*
X221651285Y-137111619D01*
X221711761Y-136990666D01*
X221832714Y-136930190D01*
X222014142Y-136930190D01*
X222135095Y-136869714D01*
X222195571Y-136748761D01*
X222195571Y-136688285D01*
X222135095Y-136567333D01*
X222014142Y-136506857D01*
X221832714Y-136506857D01*
X221711761Y-136567333D01*
X210471104Y-121211894D02*
X210984262Y-120698737D01*
X209906631Y-119621106D01*
X209136895Y-120390842D02*
X208469790Y-121057947D01*
X209239526Y-121109262D01*
X209085579Y-121263210D01*
X209034263Y-121417157D01*
X209034263Y-121519788D01*
X209085579Y-121673736D01*
X209342158Y-121930314D01*
X209496105Y-121981630D01*
X209598737Y-121981630D01*
X209752684Y-121930314D01*
X210060578Y-121622420D01*
X210111894Y-121468473D01*
X210111894Y-121365841D01*
X196532476Y-125103380D02*
X196865809Y-124627190D01*
X197103904Y-125103380D02*
X197103904Y-124103380D01*
X196722952Y-124103380D01*
X196627714Y-124151000D01*
X196580095Y-124198619D01*
X196532476Y-124293857D01*
X196532476Y-124436714D01*
X196580095Y-124531952D01*
X196627714Y-124579571D01*
X196722952Y-124627190D01*
X197103904Y-124627190D01*
X196103904Y-125103380D02*
X196103904Y-124103380D01*
X195532476Y-125103380D01*
X195532476Y-124103380D01*
X195151523Y-124103380D02*
X194532476Y-124103380D01*
X194865809Y-124484333D01*
X194722952Y-124484333D01*
X194627714Y-124531952D01*
X194580095Y-124579571D01*
X194532476Y-124674809D01*
X194532476Y-124912904D01*
X194580095Y-125008142D01*
X194627714Y-125055761D01*
X194722952Y-125103380D01*
X195008666Y-125103380D01*
X195103904Y-125055761D01*
X195151523Y-125008142D01*
D11*
X157498142Y-141677571D02*
X157570714Y-141895285D01*
X157643285Y-141967857D01*
X157788428Y-142040428D01*
X158006142Y-142040428D01*
X158151285Y-141967857D01*
X158223857Y-141895285D01*
X158296428Y-141750142D01*
X158296428Y-141169571D01*
X156772428Y-141169571D01*
X156772428Y-141677571D01*
X156845000Y-141822714D01*
X156917571Y-141895285D01*
X157062714Y-141967857D01*
X157207857Y-141967857D01*
X157353000Y-141895285D01*
X157425571Y-141822714D01*
X157498142Y-141677571D01*
X157498142Y-141169571D01*
X156772428Y-142475857D02*
X156772428Y-143346714D01*
X158296428Y-142911285D02*
X156772428Y-142911285D01*
X158296428Y-144653000D02*
X158296428Y-143782142D01*
X158296428Y-144217571D02*
X156772428Y-144217571D01*
X156990142Y-144072428D01*
X157135285Y-143927285D01*
X157207857Y-143782142D01*
X151365857Y-141750142D02*
X151148142Y-141822714D01*
X151075571Y-141895285D01*
X151003000Y-142040428D01*
X151003000Y-142258142D01*
X151075571Y-142403285D01*
X151148142Y-142475857D01*
X151293285Y-142548428D01*
X151873857Y-142548428D01*
X151873857Y-141024428D01*
X151365857Y-141024428D01*
X151220714Y-141097000D01*
X151148142Y-141169571D01*
X151075571Y-141314714D01*
X151075571Y-141459857D01*
X151148142Y-141605000D01*
X151220714Y-141677571D01*
X151365857Y-141750142D01*
X151873857Y-141750142D01*
X149696714Y-142548428D02*
X149696714Y-141750142D01*
X149769285Y-141605000D01*
X149914428Y-141532428D01*
X150204714Y-141532428D01*
X150349857Y-141605000D01*
X149696714Y-142475857D02*
X149841857Y-142548428D01*
X150204714Y-142548428D01*
X150349857Y-142475857D01*
X150422428Y-142330714D01*
X150422428Y-142185571D01*
X150349857Y-142040428D01*
X150204714Y-141967857D01*
X149841857Y-141967857D01*
X149696714Y-141895285D01*
X149188714Y-141532428D02*
X148608142Y-141532428D01*
X148970999Y-141024428D02*
X148970999Y-142330714D01*
X148898428Y-142475857D01*
X148753285Y-142548428D01*
X148608142Y-142548428D01*
X148317857Y-141532428D02*
X147737285Y-141532428D01*
X148100142Y-141024428D02*
X148100142Y-142330714D01*
X148027571Y-142475857D01*
X147882428Y-142548428D01*
X147737285Y-142548428D01*
X146648714Y-142475857D02*
X146793857Y-142548428D01*
X147084142Y-142548428D01*
X147229285Y-142475857D01*
X147301857Y-142330714D01*
X147301857Y-141750142D01*
X147229285Y-141605000D01*
X147084142Y-141532428D01*
X146793857Y-141532428D01*
X146648714Y-141605000D01*
X146576142Y-141750142D01*
X146576142Y-141895285D01*
X147301857Y-142040428D01*
X145922999Y-142548428D02*
X145922999Y-141532428D01*
X145922999Y-141822714D02*
X145850428Y-141677571D01*
X145777857Y-141605000D01*
X145632714Y-141532428D01*
X145487571Y-141532428D01*
X145124714Y-141532428D02*
X144761857Y-142548428D01*
X144398999Y-141532428D02*
X144761857Y-142548428D01*
X144906999Y-142911285D01*
X144979571Y-142983857D01*
X145124714Y-143056428D01*
X144181285Y-142693571D02*
X143020142Y-142693571D01*
X141786428Y-142403285D02*
X141858999Y-142475857D01*
X142076714Y-142548428D01*
X142221857Y-142548428D01*
X142439571Y-142475857D01*
X142584714Y-142330714D01*
X142657285Y-142185571D01*
X142729857Y-141895285D01*
X142729857Y-141677571D01*
X142657285Y-141387285D01*
X142584714Y-141242142D01*
X142439571Y-141097000D01*
X142221857Y-141024428D01*
X142076714Y-141024428D01*
X141858999Y-141097000D01*
X141786428Y-141169571D01*
X140552714Y-142475857D02*
X140697857Y-142548428D01*
X140988142Y-142548428D01*
X141133285Y-142475857D01*
X141205857Y-142330714D01*
X141205857Y-141750142D01*
X141133285Y-141605000D01*
X140988142Y-141532428D01*
X140697857Y-141532428D01*
X140552714Y-141605000D01*
X140480142Y-141750142D01*
X140480142Y-141895285D01*
X141205857Y-142040428D01*
X139609285Y-142548428D02*
X139754428Y-142475857D01*
X139826999Y-142330714D01*
X139826999Y-141024428D01*
X138810999Y-142548428D02*
X138956142Y-142475857D01*
X139028714Y-142330714D01*
X139028714Y-141024428D01*
D14*
X141846904Y-157304619D02*
X141846904Y-156288619D01*
X141605000Y-156288619D01*
X141459857Y-156337000D01*
X141363095Y-156433761D01*
X141314714Y-156530523D01*
X141266333Y-156724047D01*
X141266333Y-156869190D01*
X141314714Y-157062714D01*
X141363095Y-157159476D01*
X141459857Y-157256238D01*
X141605000Y-157304619D01*
X141846904Y-157304619D01*
X140927666Y-156288619D02*
X140250333Y-156288619D01*
X140685761Y-157304619D01*
D15*
X150744714Y-123540714D02*
X150744714Y-124266428D01*
X151252714Y-122742428D02*
X150744714Y-123540714D01*
X150236714Y-122742428D01*
X149873857Y-122742428D02*
X148930428Y-122742428D01*
X149438428Y-123323000D01*
X149220714Y-123323000D01*
X149075571Y-123395571D01*
X149003000Y-123468142D01*
X148930428Y-123613285D01*
X148930428Y-123976142D01*
X149003000Y-124121285D01*
X149075571Y-124193857D01*
X149220714Y-124266428D01*
X149656142Y-124266428D01*
X149801285Y-124193857D01*
X149873857Y-124121285D01*
X220829190Y-140392209D02*
X221305380Y-140392209D01*
X220305380Y-140058876D02*
X220829190Y-140392209D01*
X220305380Y-140725542D01*
X221305380Y-141582685D02*
X221305380Y-141011257D01*
X221305380Y-141296971D02*
X220305380Y-141296971D01*
X220448238Y-141201733D01*
X220543476Y-141106495D01*
X220591095Y-141011257D01*
X137450580Y-117710104D02*
X138260104Y-117710104D01*
X138355342Y-117757723D01*
X138402961Y-117805342D01*
X138450580Y-117900580D01*
X138450580Y-118091057D01*
X138402961Y-118186295D01*
X138355342Y-118233914D01*
X138260104Y-118281533D01*
X137450580Y-118281533D01*
X138450580Y-119281533D02*
X138450580Y-118710104D01*
X138450580Y-118995819D02*
X137450580Y-118995819D01*
X137593438Y-118900580D01*
X137688676Y-118805342D01*
X137736295Y-118710104D01*
X137450580Y-120186295D02*
X137450580Y-119710104D01*
X137926771Y-119662485D01*
X137879152Y-119710104D01*
X137831533Y-119805342D01*
X137831533Y-120043438D01*
X137879152Y-120138676D01*
X137926771Y-120186295D01*
X138022009Y-120233914D01*
X138260104Y-120233914D01*
X138355342Y-120186295D01*
X138402961Y-120138676D01*
X138450580Y-120043438D01*
X138450580Y-119805342D01*
X138402961Y-119710104D01*
X138355342Y-119662485D01*
X215544304Y-181290980D02*
X215544304Y-182100504D01*
X215496685Y-182195742D01*
X215449066Y-182243361D01*
X215353828Y-182290980D01*
X215163352Y-182290980D01*
X215068114Y-182243361D01*
X215020495Y-182195742D01*
X214972876Y-182100504D01*
X214972876Y-181290980D01*
X214020495Y-181290980D02*
X214496685Y-181290980D01*
X214544304Y-181767171D01*
X214496685Y-181719552D01*
X214401447Y-181671933D01*
X214163352Y-181671933D01*
X214068114Y-181719552D01*
X214020495Y-181767171D01*
X213972876Y-181862409D01*
X213972876Y-182100504D01*
X214020495Y-182195742D01*
X214068114Y-182243361D01*
X214163352Y-182290980D01*
X214401447Y-182290980D01*
X214496685Y-182243361D01*
X214544304Y-182195742D01*
X218185904Y-116597180D02*
X218185904Y-117406704D01*
X218138285Y-117501942D01*
X218090666Y-117549561D01*
X217995428Y-117597180D01*
X217804952Y-117597180D01*
X217709714Y-117549561D01*
X217662095Y-117501942D01*
X217614476Y-117406704D01*
X217614476Y-116597180D01*
X217233523Y-116597180D02*
X216614476Y-116597180D01*
X216947809Y-116978133D01*
X216804952Y-116978133D01*
X216709714Y-117025752D01*
X216662095Y-117073371D01*
X216614476Y-117168609D01*
X216614476Y-117406704D01*
X216662095Y-117501942D01*
X216709714Y-117549561D01*
X216804952Y-117597180D01*
X217090666Y-117597180D01*
X217185904Y-117549561D01*
X217233523Y-117501942D01*
X184721404Y-93311380D02*
X184721404Y-94120904D01*
X184673785Y-94216142D01*
X184626166Y-94263761D01*
X184530928Y-94311380D01*
X184340452Y-94311380D01*
X184245214Y-94263761D01*
X184197595Y-94216142D01*
X184149976Y-94120904D01*
X184149976Y-93311380D01*
X183149976Y-94311380D02*
X183721404Y-94311380D01*
X183435690Y-94311380D02*
X183435690Y-93311380D01*
X183530928Y-93454238D01*
X183626166Y-93549476D01*
X183721404Y-93597095D01*
X156590166Y-163765380D02*
X156923500Y-163289190D01*
X157161595Y-163765380D02*
X157161595Y-162765380D01*
X156780642Y-162765380D01*
X156685404Y-162813000D01*
X156637785Y-162860619D01*
X156590166Y-162955857D01*
X156590166Y-163098714D01*
X156637785Y-163193952D01*
X156685404Y-163241571D01*
X156780642Y-163289190D01*
X157161595Y-163289190D01*
X156161595Y-163765380D02*
X156161595Y-162765380D01*
X155590166Y-163765380D01*
X155590166Y-162765380D01*
X154590166Y-163765380D02*
X155161595Y-163765380D01*
X154875880Y-163765380D02*
X154875880Y-162765380D01*
X154971119Y-162908238D01*
X155066357Y-163003476D01*
X155161595Y-163051095D01*
X154113976Y-163765380D02*
X153923500Y-163765380D01*
X153828261Y-163717761D01*
X153780642Y-163670142D01*
X153685404Y-163527285D01*
X153637785Y-163336809D01*
X153637785Y-162955857D01*
X153685404Y-162860619D01*
X153733023Y-162813000D01*
X153828261Y-162765380D01*
X154018738Y-162765380D01*
X154113976Y-162813000D01*
X154161595Y-162860619D01*
X154209214Y-162955857D01*
X154209214Y-163193952D01*
X154161595Y-163289190D01*
X154113976Y-163336809D01*
X154018738Y-163384428D01*
X153828261Y-163384428D01*
X153733023Y-163336809D01*
X153685404Y-163289190D01*
X153637785Y-163193952D01*
X150925066Y-147442180D02*
X151258400Y-146965990D01*
X151496495Y-147442180D02*
X151496495Y-146442180D01*
X151115542Y-146442180D01*
X151020304Y-146489800D01*
X150972685Y-146537419D01*
X150925066Y-146632657D01*
X150925066Y-146775514D01*
X150972685Y-146870752D01*
X151020304Y-146918371D01*
X151115542Y-146965990D01*
X151496495Y-146965990D01*
X150496495Y-147442180D02*
X150496495Y-146442180D01*
X149925066Y-147442180D01*
X149925066Y-146442180D01*
X148925066Y-147442180D02*
X149496495Y-147442180D01*
X149210780Y-147442180D02*
X149210780Y-146442180D01*
X149306019Y-146585038D01*
X149401257Y-146680276D01*
X149496495Y-146727895D01*
X148020304Y-146442180D02*
X148496495Y-146442180D01*
X148544114Y-146918371D01*
X148496495Y-146870752D01*
X148401257Y-146823133D01*
X148163161Y-146823133D01*
X148067923Y-146870752D01*
X148020304Y-146918371D01*
X147972685Y-147013609D01*
X147972685Y-147251704D01*
X148020304Y-147346942D01*
X148067923Y-147394561D01*
X148163161Y-147442180D01*
X148401257Y-147442180D01*
X148496495Y-147394561D01*
X148544114Y-147346942D01*
X201655276Y-93619580D02*
X201988609Y-93143390D01*
X202226704Y-93619580D02*
X202226704Y-92619580D01*
X201845752Y-92619580D01*
X201750514Y-92667200D01*
X201702895Y-92714819D01*
X201655276Y-92810057D01*
X201655276Y-92952914D01*
X201702895Y-93048152D01*
X201750514Y-93095771D01*
X201845752Y-93143390D01*
X202226704Y-93143390D01*
X201226704Y-93619580D02*
X201226704Y-92619580D01*
X200655276Y-93619580D01*
X200655276Y-92619580D01*
X199655276Y-93619580D02*
X200226704Y-93619580D01*
X199940990Y-93619580D02*
X199940990Y-92619580D01*
X200036228Y-92762438D01*
X200131466Y-92857676D01*
X200226704Y-92905295D01*
X208605357Y-160725380D02*
X208938690Y-160249190D01*
X209176785Y-160725380D02*
X209176785Y-159725380D01*
X208795833Y-159725380D01*
X208700595Y-159773000D01*
X208652976Y-159820619D01*
X208605357Y-159915857D01*
X208605357Y-160058714D01*
X208652976Y-160153952D01*
X208700595Y-160201571D01*
X208795833Y-160249190D01*
X209176785Y-160249190D01*
X208272023Y-159725380D02*
X207652976Y-159725380D01*
X207986309Y-160106333D01*
X207843452Y-160106333D01*
X207748214Y-160153952D01*
X207700595Y-160201571D01*
X207652976Y-160296809D01*
X207652976Y-160534904D01*
X207700595Y-160630142D01*
X207748214Y-160677761D01*
X207843452Y-160725380D01*
X208129166Y-160725380D01*
X208224404Y-160677761D01*
X208272023Y-160630142D01*
X207319642Y-159725380D02*
X206700595Y-159725380D01*
X207033928Y-160106333D01*
X206891071Y-160106333D01*
X206795833Y-160153952D01*
X206748214Y-160201571D01*
X206700595Y-160296809D01*
X206700595Y-160534904D01*
X206748214Y-160630142D01*
X206795833Y-160677761D01*
X206891071Y-160725380D01*
X207176785Y-160725380D01*
X207272023Y-160677761D01*
X207319642Y-160630142D01*
X233283357Y-137103380D02*
X233616690Y-136627190D01*
X233854785Y-137103380D02*
X233854785Y-136103380D01*
X233473833Y-136103380D01*
X233378595Y-136151000D01*
X233330976Y-136198619D01*
X233283357Y-136293857D01*
X233283357Y-136436714D01*
X233330976Y-136531952D01*
X233378595Y-136579571D01*
X233473833Y-136627190D01*
X233854785Y-136627190D01*
X232950023Y-136103380D02*
X232330976Y-136103380D01*
X232664309Y-136484333D01*
X232521452Y-136484333D01*
X232426214Y-136531952D01*
X232378595Y-136579571D01*
X232330976Y-136674809D01*
X232330976Y-136912904D01*
X232378595Y-137008142D01*
X232426214Y-137055761D01*
X232521452Y-137103380D01*
X232807166Y-137103380D01*
X232902404Y-137055761D01*
X232950023Y-137008142D01*
X231950023Y-136198619D02*
X231902404Y-136151000D01*
X231807166Y-136103380D01*
X231569071Y-136103380D01*
X231473833Y-136151000D01*
X231426214Y-136198619D01*
X231378595Y-136293857D01*
X231378595Y-136389095D01*
X231426214Y-136531952D01*
X231997642Y-137103380D01*
X231378595Y-137103380D01*
X226398057Y-116301780D02*
X226731390Y-115825590D01*
X226969485Y-116301780D02*
X226969485Y-115301780D01*
X226588533Y-115301780D01*
X226493295Y-115349400D01*
X226445676Y-115397019D01*
X226398057Y-115492257D01*
X226398057Y-115635114D01*
X226445676Y-115730352D01*
X226493295Y-115777971D01*
X226588533Y-115825590D01*
X226969485Y-115825590D01*
X226064723Y-115301780D02*
X225445676Y-115301780D01*
X225779009Y-115682733D01*
X225636152Y-115682733D01*
X225540914Y-115730352D01*
X225493295Y-115777971D01*
X225445676Y-115873209D01*
X225445676Y-116111304D01*
X225493295Y-116206542D01*
X225540914Y-116254161D01*
X225636152Y-116301780D01*
X225921866Y-116301780D01*
X226017104Y-116254161D01*
X226064723Y-116206542D01*
X224493295Y-116301780D02*
X225064723Y-116301780D01*
X224779009Y-116301780D02*
X224779009Y-115301780D01*
X224874247Y-115444638D01*
X224969485Y-115539876D01*
X225064723Y-115587495D01*
X225509057Y-118638580D02*
X225842390Y-118162390D01*
X226080485Y-118638580D02*
X226080485Y-117638580D01*
X225699533Y-117638580D01*
X225604295Y-117686200D01*
X225556676Y-117733819D01*
X225509057Y-117829057D01*
X225509057Y-117971914D01*
X225556676Y-118067152D01*
X225604295Y-118114771D01*
X225699533Y-118162390D01*
X226080485Y-118162390D01*
X225175723Y-117638580D02*
X224556676Y-117638580D01*
X224890009Y-118019533D01*
X224747152Y-118019533D01*
X224651914Y-118067152D01*
X224604295Y-118114771D01*
X224556676Y-118210009D01*
X224556676Y-118448104D01*
X224604295Y-118543342D01*
X224651914Y-118590961D01*
X224747152Y-118638580D01*
X225032866Y-118638580D01*
X225128104Y-118590961D01*
X225175723Y-118543342D01*
X223937628Y-117638580D02*
X223842390Y-117638580D01*
X223747152Y-117686200D01*
X223699533Y-117733819D01*
X223651914Y-117829057D01*
X223604295Y-118019533D01*
X223604295Y-118257628D01*
X223651914Y-118448104D01*
X223699533Y-118543342D01*
X223747152Y-118590961D01*
X223842390Y-118638580D01*
X223937628Y-118638580D01*
X224032866Y-118590961D01*
X224080485Y-118543342D01*
X224128104Y-118448104D01*
X224175723Y-118257628D01*
X224175723Y-118019533D01*
X224128104Y-117829057D01*
X224080485Y-117733819D01*
X224032866Y-117686200D01*
X223937628Y-117638580D01*
X226652057Y-127782580D02*
X226985390Y-127306390D01*
X227223485Y-127782580D02*
X227223485Y-126782580D01*
X226842533Y-126782580D01*
X226747295Y-126830200D01*
X226699676Y-126877819D01*
X226652057Y-126973057D01*
X226652057Y-127115914D01*
X226699676Y-127211152D01*
X226747295Y-127258771D01*
X226842533Y-127306390D01*
X227223485Y-127306390D01*
X226271104Y-126877819D02*
X226223485Y-126830200D01*
X226128247Y-126782580D01*
X225890152Y-126782580D01*
X225794914Y-126830200D01*
X225747295Y-126877819D01*
X225699676Y-126973057D01*
X225699676Y-127068295D01*
X225747295Y-127211152D01*
X226318723Y-127782580D01*
X225699676Y-127782580D01*
X225223485Y-127782580D02*
X225033009Y-127782580D01*
X224937771Y-127734961D01*
X224890152Y-127687342D01*
X224794914Y-127544485D01*
X224747295Y-127354009D01*
X224747295Y-126973057D01*
X224794914Y-126877819D01*
X224842533Y-126830200D01*
X224937771Y-126782580D01*
X225128247Y-126782580D01*
X225223485Y-126830200D01*
X225271104Y-126877819D01*
X225318723Y-126973057D01*
X225318723Y-127211152D01*
X225271104Y-127306390D01*
X225223485Y-127354009D01*
X225128247Y-127401628D01*
X224937771Y-127401628D01*
X224842533Y-127354009D01*
X224794914Y-127306390D01*
X224747295Y-127211152D01*
X231033580Y-124248942D02*
X230557390Y-123915609D01*
X231033580Y-123677514D02*
X230033580Y-123677514D01*
X230033580Y-124058466D01*
X230081200Y-124153704D01*
X230128819Y-124201323D01*
X230224057Y-124248942D01*
X230366914Y-124248942D01*
X230462152Y-124201323D01*
X230509771Y-124153704D01*
X230557390Y-124058466D01*
X230557390Y-123677514D01*
X230128819Y-124629895D02*
X230081200Y-124677514D01*
X230033580Y-124772752D01*
X230033580Y-125010847D01*
X230081200Y-125106085D01*
X230128819Y-125153704D01*
X230224057Y-125201323D01*
X230319295Y-125201323D01*
X230462152Y-125153704D01*
X231033580Y-124582276D01*
X231033580Y-125201323D01*
X230462152Y-125772752D02*
X230414533Y-125677514D01*
X230366914Y-125629895D01*
X230271676Y-125582276D01*
X230224057Y-125582276D01*
X230128819Y-125629895D01*
X230081200Y-125677514D01*
X230033580Y-125772752D01*
X230033580Y-125963228D01*
X230081200Y-126058466D01*
X230128819Y-126106085D01*
X230224057Y-126153704D01*
X230271676Y-126153704D01*
X230366914Y-126106085D01*
X230414533Y-126058466D01*
X230462152Y-125963228D01*
X230462152Y-125772752D01*
X230509771Y-125677514D01*
X230557390Y-125629895D01*
X230652628Y-125582276D01*
X230843104Y-125582276D01*
X230938342Y-125629895D01*
X230985961Y-125677514D01*
X231033580Y-125772752D01*
X231033580Y-125963228D01*
X230985961Y-126058466D01*
X230938342Y-126106085D01*
X230843104Y-126153704D01*
X230652628Y-126153704D01*
X230557390Y-126106085D01*
X230509771Y-126058466D01*
X230462152Y-125963228D01*
X133459457Y-126309380D02*
X133792790Y-125833190D01*
X134030885Y-126309380D02*
X134030885Y-125309380D01*
X133649933Y-125309380D01*
X133554695Y-125357000D01*
X133507076Y-125404619D01*
X133459457Y-125499857D01*
X133459457Y-125642714D01*
X133507076Y-125737952D01*
X133554695Y-125785571D01*
X133649933Y-125833190D01*
X134030885Y-125833190D01*
X133078504Y-125404619D02*
X133030885Y-125357000D01*
X132935647Y-125309380D01*
X132697552Y-125309380D01*
X132602314Y-125357000D01*
X132554695Y-125404619D01*
X132507076Y-125499857D01*
X132507076Y-125595095D01*
X132554695Y-125737952D01*
X133126123Y-126309380D01*
X132507076Y-126309380D01*
X132173742Y-125309380D02*
X131507076Y-125309380D01*
X131935647Y-126309380D01*
X223337380Y-162425142D02*
X222861190Y-162091809D01*
X223337380Y-161853714D02*
X222337380Y-161853714D01*
X222337380Y-162234666D01*
X222385000Y-162329904D01*
X222432619Y-162377523D01*
X222527857Y-162425142D01*
X222670714Y-162425142D01*
X222765952Y-162377523D01*
X222813571Y-162329904D01*
X222861190Y-162234666D01*
X222861190Y-161853714D01*
X222432619Y-162806095D02*
X222385000Y-162853714D01*
X222337380Y-162948952D01*
X222337380Y-163187047D01*
X222385000Y-163282285D01*
X222432619Y-163329904D01*
X222527857Y-163377523D01*
X222623095Y-163377523D01*
X222765952Y-163329904D01*
X223337380Y-162758476D01*
X223337380Y-163377523D01*
X222337380Y-163710857D02*
X222337380Y-164329904D01*
X222718333Y-163996571D01*
X222718333Y-164139428D01*
X222765952Y-164234666D01*
X222813571Y-164282285D01*
X222908809Y-164329904D01*
X223146904Y-164329904D01*
X223242142Y-164282285D01*
X223289761Y-164234666D01*
X223337380Y-164139428D01*
X223337380Y-163853714D01*
X223289761Y-163758476D01*
X223242142Y-163710857D01*
X168155857Y-150871180D02*
X168489190Y-150394990D01*
X168727285Y-150871180D02*
X168727285Y-149871180D01*
X168346333Y-149871180D01*
X168251095Y-149918800D01*
X168203476Y-149966419D01*
X168155857Y-150061657D01*
X168155857Y-150204514D01*
X168203476Y-150299752D01*
X168251095Y-150347371D01*
X168346333Y-150394990D01*
X168727285Y-150394990D01*
X167774904Y-149966419D02*
X167727285Y-149918800D01*
X167632047Y-149871180D01*
X167393952Y-149871180D01*
X167298714Y-149918800D01*
X167251095Y-149966419D01*
X167203476Y-150061657D01*
X167203476Y-150156895D01*
X167251095Y-150299752D01*
X167822523Y-150871180D01*
X167203476Y-150871180D01*
X166822523Y-149966419D02*
X166774904Y-149918800D01*
X166679666Y-149871180D01*
X166441571Y-149871180D01*
X166346333Y-149918800D01*
X166298714Y-149966419D01*
X166251095Y-150061657D01*
X166251095Y-150156895D01*
X166298714Y-150299752D01*
X166870142Y-150871180D01*
X166251095Y-150871180D01*
X142057380Y-150715742D02*
X141581190Y-150382409D01*
X142057380Y-150144314D02*
X141057380Y-150144314D01*
X141057380Y-150525266D01*
X141105000Y-150620504D01*
X141152619Y-150668123D01*
X141247857Y-150715742D01*
X141390714Y-150715742D01*
X141485952Y-150668123D01*
X141533571Y-150620504D01*
X141581190Y-150525266D01*
X141581190Y-150144314D01*
X141152619Y-151096695D02*
X141105000Y-151144314D01*
X141057380Y-151239552D01*
X141057380Y-151477647D01*
X141105000Y-151572885D01*
X141152619Y-151620504D01*
X141247857Y-151668123D01*
X141343095Y-151668123D01*
X141485952Y-151620504D01*
X142057380Y-151049076D01*
X142057380Y-151668123D01*
X142057380Y-152620504D02*
X142057380Y-152049076D01*
X142057380Y-152334790D02*
X141057380Y-152334790D01*
X141200238Y-152239552D01*
X141295476Y-152144314D01*
X141343095Y-152049076D01*
X167533580Y-153662142D02*
X167057390Y-153328809D01*
X167533580Y-153090714D02*
X166533580Y-153090714D01*
X166533580Y-153471666D01*
X166581200Y-153566904D01*
X166628819Y-153614523D01*
X166724057Y-153662142D01*
X166866914Y-153662142D01*
X166962152Y-153614523D01*
X167009771Y-153566904D01*
X167057390Y-153471666D01*
X167057390Y-153090714D01*
X166628819Y-154043095D02*
X166581200Y-154090714D01*
X166533580Y-154185952D01*
X166533580Y-154424047D01*
X166581200Y-154519285D01*
X166628819Y-154566904D01*
X166724057Y-154614523D01*
X166819295Y-154614523D01*
X166962152Y-154566904D01*
X167533580Y-153995476D01*
X167533580Y-154614523D01*
X166533580Y-155233571D02*
X166533580Y-155328809D01*
X166581200Y-155424047D01*
X166628819Y-155471666D01*
X166724057Y-155519285D01*
X166914533Y-155566904D01*
X167152628Y-155566904D01*
X167343104Y-155519285D01*
X167438342Y-155471666D01*
X167485961Y-155424047D01*
X167533580Y-155328809D01*
X167533580Y-155233571D01*
X167485961Y-155138333D01*
X167438342Y-155090714D01*
X167343104Y-155043095D01*
X167152628Y-154995476D01*
X166914533Y-154995476D01*
X166724057Y-155043095D01*
X166628819Y-155090714D01*
X166581200Y-155138333D01*
X166533580Y-155233571D01*
X171800780Y-154551142D02*
X171324590Y-154217809D01*
X171800780Y-153979714D02*
X170800780Y-153979714D01*
X170800780Y-154360666D01*
X170848400Y-154455904D01*
X170896019Y-154503523D01*
X170991257Y-154551142D01*
X171134114Y-154551142D01*
X171229352Y-154503523D01*
X171276971Y-154455904D01*
X171324590Y-154360666D01*
X171324590Y-153979714D01*
X171800780Y-155503523D02*
X171800780Y-154932095D01*
X171800780Y-155217809D02*
X170800780Y-155217809D01*
X170943638Y-155122571D01*
X171038876Y-155027333D01*
X171086495Y-154932095D01*
X171800780Y-155979714D02*
X171800780Y-156170190D01*
X171753161Y-156265428D01*
X171705542Y-156313047D01*
X171562685Y-156408285D01*
X171372209Y-156455904D01*
X170991257Y-156455904D01*
X170896019Y-156408285D01*
X170848400Y-156360666D01*
X170800780Y-156265428D01*
X170800780Y-156074952D01*
X170848400Y-155979714D01*
X170896019Y-155932095D01*
X170991257Y-155884476D01*
X171229352Y-155884476D01*
X171324590Y-155932095D01*
X171372209Y-155979714D01*
X171419828Y-156074952D01*
X171419828Y-156265428D01*
X171372209Y-156360666D01*
X171324590Y-156408285D01*
X171229352Y-156455904D01*
X144660857Y-151302980D02*
X144994190Y-150826790D01*
X145232285Y-151302980D02*
X145232285Y-150302980D01*
X144851333Y-150302980D01*
X144756095Y-150350600D01*
X144708476Y-150398219D01*
X144660857Y-150493457D01*
X144660857Y-150636314D01*
X144708476Y-150731552D01*
X144756095Y-150779171D01*
X144851333Y-150826790D01*
X145232285Y-150826790D01*
X143708476Y-151302980D02*
X144279904Y-151302980D01*
X143994190Y-151302980D02*
X143994190Y-150302980D01*
X144089428Y-150445838D01*
X144184666Y-150541076D01*
X144279904Y-150588695D01*
X143137047Y-150731552D02*
X143232285Y-150683933D01*
X143279904Y-150636314D01*
X143327523Y-150541076D01*
X143327523Y-150493457D01*
X143279904Y-150398219D01*
X143232285Y-150350600D01*
X143137047Y-150302980D01*
X142946571Y-150302980D01*
X142851333Y-150350600D01*
X142803714Y-150398219D01*
X142756095Y-150493457D01*
X142756095Y-150541076D01*
X142803714Y-150636314D01*
X142851333Y-150683933D01*
X142946571Y-150731552D01*
X143137047Y-150731552D01*
X143232285Y-150779171D01*
X143279904Y-150826790D01*
X143327523Y-150922028D01*
X143327523Y-151112504D01*
X143279904Y-151207742D01*
X143232285Y-151255361D01*
X143137047Y-151302980D01*
X142946571Y-151302980D01*
X142851333Y-151255361D01*
X142803714Y-151207742D01*
X142756095Y-151112504D01*
X142756095Y-150922028D01*
X142803714Y-150826790D01*
X142851333Y-150779171D01*
X142946571Y-150731552D01*
X144610057Y-146426180D02*
X144943390Y-145949990D01*
X145181485Y-146426180D02*
X145181485Y-145426180D01*
X144800533Y-145426180D01*
X144705295Y-145473800D01*
X144657676Y-145521419D01*
X144610057Y-145616657D01*
X144610057Y-145759514D01*
X144657676Y-145854752D01*
X144705295Y-145902371D01*
X144800533Y-145949990D01*
X145181485Y-145949990D01*
X143657676Y-146426180D02*
X144229104Y-146426180D01*
X143943390Y-146426180D02*
X143943390Y-145426180D01*
X144038628Y-145569038D01*
X144133866Y-145664276D01*
X144229104Y-145711895D01*
X143324342Y-145426180D02*
X142657676Y-145426180D01*
X143086247Y-146426180D01*
X205341457Y-188894980D02*
X205674790Y-188418790D01*
X205912885Y-188894980D02*
X205912885Y-187894980D01*
X205531933Y-187894980D01*
X205436695Y-187942600D01*
X205389076Y-187990219D01*
X205341457Y-188085457D01*
X205341457Y-188228314D01*
X205389076Y-188323552D01*
X205436695Y-188371171D01*
X205531933Y-188418790D01*
X205912885Y-188418790D01*
X204389076Y-188894980D02*
X204960504Y-188894980D01*
X204674790Y-188894980D02*
X204674790Y-187894980D01*
X204770028Y-188037838D01*
X204865266Y-188133076D01*
X204960504Y-188180695D01*
X204008123Y-187990219D02*
X203960504Y-187942600D01*
X203865266Y-187894980D01*
X203627171Y-187894980D01*
X203531933Y-187942600D01*
X203484314Y-187990219D01*
X203436695Y-188085457D01*
X203436695Y-188180695D01*
X203484314Y-188323552D01*
X204055742Y-188894980D01*
X203436695Y-188894980D01*
X201658457Y-185008780D02*
X201991790Y-184532590D01*
X202229885Y-185008780D02*
X202229885Y-184008780D01*
X201848933Y-184008780D01*
X201753695Y-184056400D01*
X201706076Y-184104019D01*
X201658457Y-184199257D01*
X201658457Y-184342114D01*
X201706076Y-184437352D01*
X201753695Y-184484971D01*
X201848933Y-184532590D01*
X202229885Y-184532590D01*
X200706076Y-185008780D02*
X201277504Y-185008780D01*
X200991790Y-185008780D02*
X200991790Y-184008780D01*
X201087028Y-184151638D01*
X201182266Y-184246876D01*
X201277504Y-184294495D01*
X199753695Y-185008780D02*
X200325123Y-185008780D01*
X200039409Y-185008780D02*
X200039409Y-184008780D01*
X200134647Y-184151638D01*
X200229885Y-184246876D01*
X200325123Y-184294495D01*
X210916780Y-172889942D02*
X210440590Y-172556609D01*
X210916780Y-172318514D02*
X209916780Y-172318514D01*
X209916780Y-172699466D01*
X209964400Y-172794704D01*
X210012019Y-172842323D01*
X210107257Y-172889942D01*
X210250114Y-172889942D01*
X210345352Y-172842323D01*
X210392971Y-172794704D01*
X210440590Y-172699466D01*
X210440590Y-172318514D01*
X210916780Y-173842323D02*
X210916780Y-173270895D01*
X210916780Y-173556609D02*
X209916780Y-173556609D01*
X210059638Y-173461371D01*
X210154876Y-173366133D01*
X210202495Y-173270895D01*
X209916780Y-174461371D02*
X209916780Y-174556609D01*
X209964400Y-174651847D01*
X210012019Y-174699466D01*
X210107257Y-174747085D01*
X210297733Y-174794704D01*
X210535828Y-174794704D01*
X210726304Y-174747085D01*
X210821542Y-174699466D01*
X210869161Y-174651847D01*
X210916780Y-174556609D01*
X210916780Y-174461371D01*
X210869161Y-174366133D01*
X210821542Y-174318514D01*
X210726304Y-174270895D01*
X210535828Y-174223276D01*
X210297733Y-174223276D01*
X210107257Y-174270895D01*
X210012019Y-174318514D01*
X209964400Y-174366133D01*
X209916780Y-174461371D01*
X212078866Y-187675780D02*
X212412200Y-187199590D01*
X212650295Y-187675780D02*
X212650295Y-186675780D01*
X212269342Y-186675780D01*
X212174104Y-186723400D01*
X212126485Y-186771019D01*
X212078866Y-186866257D01*
X212078866Y-187009114D01*
X212126485Y-187104352D01*
X212174104Y-187151971D01*
X212269342Y-187199590D01*
X212650295Y-187199590D01*
X211602676Y-187675780D02*
X211412200Y-187675780D01*
X211316961Y-187628161D01*
X211269342Y-187580542D01*
X211174104Y-187437685D01*
X211126485Y-187247209D01*
X211126485Y-186866257D01*
X211174104Y-186771019D01*
X211221723Y-186723400D01*
X211316961Y-186675780D01*
X211507438Y-186675780D01*
X211602676Y-186723400D01*
X211650295Y-186771019D01*
X211697914Y-186866257D01*
X211697914Y-187104352D01*
X211650295Y-187199590D01*
X211602676Y-187247209D01*
X211507438Y-187294828D01*
X211316961Y-187294828D01*
X211221723Y-187247209D01*
X211174104Y-187199590D01*
X211126485Y-187104352D01*
X217698580Y-110729733D02*
X217222390Y-110396400D01*
X217698580Y-110158304D02*
X216698580Y-110158304D01*
X216698580Y-110539257D01*
X216746200Y-110634495D01*
X216793819Y-110682114D01*
X216889057Y-110729733D01*
X217031914Y-110729733D01*
X217127152Y-110682114D01*
X217174771Y-110634495D01*
X217222390Y-110539257D01*
X217222390Y-110158304D01*
X217031914Y-111586876D02*
X217698580Y-111586876D01*
X216650961Y-111348780D02*
X217365247Y-111110685D01*
X217365247Y-111729733D01*
X216413932Y-112774830D02*
X216312917Y-112202410D01*
X216817993Y-112370769D02*
X216110887Y-111663662D01*
X215841512Y-111933036D01*
X215807841Y-112034051D01*
X215807841Y-112101395D01*
X215841512Y-112202410D01*
X215942528Y-112303425D01*
X216043543Y-112337097D01*
X216110887Y-112337097D01*
X216211902Y-112303425D01*
X216481276Y-112034051D01*
X215471123Y-112303425D02*
X215033390Y-112741158D01*
X215538467Y-112774830D01*
X215437451Y-112875845D01*
X215403780Y-112976861D01*
X215403780Y-113044204D01*
X215437451Y-113145219D01*
X215605810Y-113313578D01*
X215706825Y-113347250D01*
X215774169Y-113347250D01*
X215875184Y-113313578D01*
X216077215Y-113111548D01*
X216110887Y-113010532D01*
X216110887Y-112943189D01*
X229273028Y-122188219D02*
X229368266Y-122140600D01*
X229463504Y-122045361D01*
X229606361Y-121902504D01*
X229701600Y-121854885D01*
X229796838Y-121854885D01*
X229749219Y-122092980D02*
X229844457Y-122045361D01*
X229939695Y-121950123D01*
X229987314Y-121759647D01*
X229987314Y-121426314D01*
X229939695Y-121235838D01*
X229844457Y-121140600D01*
X229749219Y-121092980D01*
X229558742Y-121092980D01*
X229463504Y-121140600D01*
X229368266Y-121235838D01*
X229320647Y-121426314D01*
X229320647Y-121759647D01*
X229368266Y-121950123D01*
X229463504Y-122045361D01*
X229558742Y-122092980D01*
X229749219Y-122092980D01*
X228368266Y-122092980D02*
X228939695Y-122092980D01*
X228653980Y-122092980D02*
X228653980Y-121092980D01*
X228749219Y-121235838D01*
X228844457Y-121331076D01*
X228939695Y-121378695D01*
X228034933Y-121092980D02*
X227415885Y-121092980D01*
X227749219Y-121473933D01*
X227606361Y-121473933D01*
X227511123Y-121521552D01*
X227463504Y-121569171D01*
X227415885Y-121664409D01*
X227415885Y-121902504D01*
X227463504Y-121997742D01*
X227511123Y-122045361D01*
X227606361Y-122092980D01*
X227892076Y-122092980D01*
X227987314Y-122045361D01*
X228034933Y-121997742D01*
X223813619Y-121704171D02*
X223766000Y-121608933D01*
X223670761Y-121513695D01*
X223527904Y-121370838D01*
X223480285Y-121275600D01*
X223480285Y-121180361D01*
X223718380Y-121227980D02*
X223670761Y-121132742D01*
X223575523Y-121037504D01*
X223385047Y-120989885D01*
X223051714Y-120989885D01*
X222861238Y-121037504D01*
X222766000Y-121132742D01*
X222718380Y-121227980D01*
X222718380Y-121418457D01*
X222766000Y-121513695D01*
X222861238Y-121608933D01*
X223051714Y-121656552D01*
X223385047Y-121656552D01*
X223575523Y-121608933D01*
X223670761Y-121513695D01*
X223718380Y-121418457D01*
X223718380Y-121227980D01*
X223718380Y-122608933D02*
X223718380Y-122037504D01*
X223718380Y-122323219D02*
X222718380Y-122323219D01*
X222861238Y-122227980D01*
X222956476Y-122132742D01*
X223004095Y-122037504D01*
X222813619Y-122989885D02*
X222766000Y-123037504D01*
X222718380Y-123132742D01*
X222718380Y-123370838D01*
X222766000Y-123466076D01*
X222813619Y-123513695D01*
X222908857Y-123561314D01*
X223004095Y-123561314D01*
X223146952Y-123513695D01*
X223718380Y-122942266D01*
X223718380Y-123561314D01*
X135445428Y-119165619D02*
X135540666Y-119118000D01*
X135635904Y-119022761D01*
X135778761Y-118879904D01*
X135874000Y-118832285D01*
X135969238Y-118832285D01*
X135921619Y-119070380D02*
X136016857Y-119022761D01*
X136112095Y-118927523D01*
X136159714Y-118737047D01*
X136159714Y-118403714D01*
X136112095Y-118213238D01*
X136016857Y-118118000D01*
X135921619Y-118070380D01*
X135731142Y-118070380D01*
X135635904Y-118118000D01*
X135540666Y-118213238D01*
X135493047Y-118403714D01*
X135493047Y-118737047D01*
X135540666Y-118927523D01*
X135635904Y-119022761D01*
X135731142Y-119070380D01*
X135921619Y-119070380D01*
X134540666Y-119070380D02*
X135112095Y-119070380D01*
X134826380Y-119070380D02*
X134826380Y-118070380D01*
X134921619Y-118213238D01*
X135016857Y-118308476D01*
X135112095Y-118356095D01*
X133588285Y-119070380D02*
X134159714Y-119070380D01*
X133874000Y-119070380D02*
X133874000Y-118070380D01*
X133969238Y-118213238D01*
X134064476Y-118308476D01*
X134159714Y-118356095D01*
X228563419Y-131959361D02*
X228515800Y-131864123D01*
X228420561Y-131768885D01*
X228277704Y-131626028D01*
X228230085Y-131530790D01*
X228230085Y-131435552D01*
X228468180Y-131483171D02*
X228420561Y-131387933D01*
X228325323Y-131292695D01*
X228134847Y-131245076D01*
X227801514Y-131245076D01*
X227611038Y-131292695D01*
X227515800Y-131387933D01*
X227468180Y-131483171D01*
X227468180Y-131673647D01*
X227515800Y-131768885D01*
X227611038Y-131864123D01*
X227801514Y-131911742D01*
X228134847Y-131911742D01*
X228325323Y-131864123D01*
X228420561Y-131768885D01*
X228468180Y-131673647D01*
X228468180Y-131483171D01*
X228468180Y-132387933D02*
X228468180Y-132578409D01*
X228420561Y-132673647D01*
X228372942Y-132721266D01*
X228230085Y-132816504D01*
X228039609Y-132864123D01*
X227658657Y-132864123D01*
X227563419Y-132816504D01*
X227515800Y-132768885D01*
X227468180Y-132673647D01*
X227468180Y-132483171D01*
X227515800Y-132387933D01*
X227563419Y-132340314D01*
X227658657Y-132292695D01*
X227896752Y-132292695D01*
X227991990Y-132340314D01*
X228039609Y-132387933D01*
X228087228Y-132483171D01*
X228087228Y-132673647D01*
X228039609Y-132768885D01*
X227991990Y-132816504D01*
X227896752Y-132864123D01*
X205652619Y-167747961D02*
X205605000Y-167652723D01*
X205509761Y-167557485D01*
X205366904Y-167414628D01*
X205319285Y-167319390D01*
X205319285Y-167224152D01*
X205557380Y-167271771D02*
X205509761Y-167176533D01*
X205414523Y-167081295D01*
X205224047Y-167033676D01*
X204890714Y-167033676D01*
X204700238Y-167081295D01*
X204605000Y-167176533D01*
X204557380Y-167271771D01*
X204557380Y-167462247D01*
X204605000Y-167557485D01*
X204700238Y-167652723D01*
X204890714Y-167700342D01*
X205224047Y-167700342D01*
X205414523Y-167652723D01*
X205509761Y-167557485D01*
X205557380Y-167462247D01*
X205557380Y-167271771D01*
X204557380Y-168033676D02*
X204557380Y-168652723D01*
X204938333Y-168319390D01*
X204938333Y-168462247D01*
X204985952Y-168557485D01*
X205033571Y-168605104D01*
X205128809Y-168652723D01*
X205366904Y-168652723D01*
X205462142Y-168605104D01*
X205509761Y-168557485D01*
X205557380Y-168462247D01*
X205557380Y-168176533D01*
X205509761Y-168081295D01*
X205462142Y-168033676D01*
X140438881Y-109626073D02*
X141005562Y-110060903D01*
X141147887Y-110110090D01*
X141281422Y-110092510D01*
X141406166Y-110008162D01*
X141464144Y-109932605D01*
X140942348Y-110612622D02*
X140148995Y-110003861D01*
X139917086Y-110306091D01*
X139896887Y-110410637D01*
X139905677Y-110477404D01*
X139952246Y-110573160D01*
X140065582Y-110660126D01*
X140170128Y-110680324D01*
X140236896Y-110671534D01*
X140332652Y-110624966D01*
X140564561Y-110322736D01*
X140304598Y-111443754D02*
X140188644Y-111594869D01*
X140092888Y-111641438D01*
X140026120Y-111650228D01*
X139854807Y-111638820D01*
X139674703Y-111560644D01*
X139372473Y-111328735D01*
X139325905Y-111232979D01*
X139317114Y-111166211D01*
X139337313Y-111061665D01*
X139453268Y-110910550D01*
X139549024Y-110863981D01*
X139615791Y-110855191D01*
X139720337Y-110875390D01*
X139909231Y-111020333D01*
X139955800Y-111116089D01*
X139964590Y-111182856D01*
X139944391Y-111287403D01*
X139828436Y-111438517D01*
X139732680Y-111485086D01*
X139665913Y-111493876D01*
X139561367Y-111473678D01*
X173553333Y-99147380D02*
X173553333Y-99861666D01*
X173600952Y-100004523D01*
X173696190Y-100099761D01*
X173839047Y-100147380D01*
X173934285Y-100147380D01*
X173077142Y-100147380D02*
X173077142Y-99147380D01*
X172696190Y-99147380D01*
X172600952Y-99195000D01*
X172553333Y-99242619D01*
X172505714Y-99337857D01*
X172505714Y-99480714D01*
X172553333Y-99575952D01*
X172600952Y-99623571D01*
X172696190Y-99671190D01*
X173077142Y-99671190D01*
X172124761Y-99242619D02*
X172077142Y-99195000D01*
X171981904Y-99147380D01*
X171743809Y-99147380D01*
X171648571Y-99195000D01*
X171600952Y-99242619D01*
X171553333Y-99337857D01*
X171553333Y-99433095D01*
X171600952Y-99575952D01*
X172172380Y-100147380D01*
X171553333Y-100147380D01*
X175034285Y-98242380D02*
X175605714Y-98242380D01*
X175320000Y-98242380D02*
X175320000Y-97242380D01*
X175415238Y-97385238D01*
X175510476Y-97480476D01*
X175605714Y-97528095D01*
X170453333Y-97242380D02*
X169834285Y-97242380D01*
X170167619Y-97623333D01*
X170024761Y-97623333D01*
X169929523Y-97670952D01*
X169881904Y-97718571D01*
X169834285Y-97813809D01*
X169834285Y-98051904D01*
X169881904Y-98147142D01*
X169929523Y-98194761D01*
X170024761Y-98242380D01*
X170310476Y-98242380D01*
X170405714Y-98194761D01*
X170453333Y-98147142D01*
X173553333Y-92267380D02*
X173553333Y-92981666D01*
X173600952Y-93124523D01*
X173696190Y-93219761D01*
X173839047Y-93267380D01*
X173934285Y-93267380D01*
X173077142Y-93267380D02*
X173077142Y-92267380D01*
X172696190Y-92267380D01*
X172600952Y-92315000D01*
X172553333Y-92362619D01*
X172505714Y-92457857D01*
X172505714Y-92600714D01*
X172553333Y-92695952D01*
X172600952Y-92743571D01*
X172696190Y-92791190D01*
X173077142Y-92791190D01*
X171553333Y-93267380D02*
X172124761Y-93267380D01*
X171839047Y-93267380D02*
X171839047Y-92267380D01*
X171934285Y-92410238D01*
X172029523Y-92505476D01*
X172124761Y-92553095D01*
X175034285Y-95067380D02*
X175605714Y-95067380D01*
X175320000Y-95067380D02*
X175320000Y-94067380D01*
X175415238Y-94210238D01*
X175510476Y-94305476D01*
X175605714Y-94353095D01*
X170453333Y-94067380D02*
X169834285Y-94067380D01*
X170167619Y-94448333D01*
X170024761Y-94448333D01*
X169929523Y-94495952D01*
X169881904Y-94543571D01*
X169834285Y-94638809D01*
X169834285Y-94876904D01*
X169881904Y-94972142D01*
X169929523Y-95019761D01*
X170024761Y-95067380D01*
X170310476Y-95067380D01*
X170405714Y-95019761D01*
X170453333Y-94972142D01*
X161656495Y-145323180D02*
X161656495Y-144323180D01*
X161418400Y-144323180D01*
X161275542Y-144370800D01*
X161180304Y-144466038D01*
X161132685Y-144561276D01*
X161085066Y-144751752D01*
X161085066Y-144894609D01*
X161132685Y-145085085D01*
X161180304Y-145180323D01*
X161275542Y-145275561D01*
X161418400Y-145323180D01*
X161656495Y-145323180D01*
X160180304Y-144323180D02*
X160656495Y-144323180D01*
X160704114Y-144799371D01*
X160656495Y-144751752D01*
X160561257Y-144704133D01*
X160323161Y-144704133D01*
X160227923Y-144751752D01*
X160180304Y-144799371D01*
X160132685Y-144894609D01*
X160132685Y-145132704D01*
X160180304Y-145227942D01*
X160227923Y-145275561D01*
X160323161Y-145323180D01*
X160561257Y-145323180D01*
X160656495Y-145275561D01*
X160704114Y-145227942D01*
X139523695Y-146491580D02*
X139523695Y-145491580D01*
X139285600Y-145491580D01*
X139142742Y-145539200D01*
X139047504Y-145634438D01*
X138999885Y-145729676D01*
X138952266Y-145920152D01*
X138952266Y-146063009D01*
X138999885Y-146253485D01*
X139047504Y-146348723D01*
X139142742Y-146443961D01*
X139285600Y-146491580D01*
X139523695Y-146491580D01*
X138095123Y-145824914D02*
X138095123Y-146491580D01*
X138333219Y-145443961D02*
X138571314Y-146158247D01*
X137952266Y-146158247D01*
X235465857Y-151995142D02*
X235513476Y-152042761D01*
X235656333Y-152090380D01*
X235751571Y-152090380D01*
X235894428Y-152042761D01*
X235989666Y-151947523D01*
X236037285Y-151852285D01*
X236084904Y-151661809D01*
X236084904Y-151518952D01*
X236037285Y-151328476D01*
X235989666Y-151233238D01*
X235894428Y-151138000D01*
X235751571Y-151090380D01*
X235656333Y-151090380D01*
X235513476Y-151138000D01*
X235465857Y-151185619D01*
X234561095Y-151090380D02*
X235037285Y-151090380D01*
X235084904Y-151566571D01*
X235037285Y-151518952D01*
X234942047Y-151471333D01*
X234703952Y-151471333D01*
X234608714Y-151518952D01*
X234561095Y-151566571D01*
X234513476Y-151661809D01*
X234513476Y-151899904D01*
X234561095Y-151995142D01*
X234608714Y-152042761D01*
X234703952Y-152090380D01*
X234942047Y-152090380D01*
X235037285Y-152042761D01*
X235084904Y-151995142D01*
X233561095Y-152090380D02*
X234132523Y-152090380D01*
X233846809Y-152090380D02*
X233846809Y-151090380D01*
X233942047Y-151233238D01*
X234037285Y-151328476D01*
X234132523Y-151376095D01*
X140311142Y-123105942D02*
X140358761Y-123058323D01*
X140406380Y-122915466D01*
X140406380Y-122820228D01*
X140358761Y-122677371D01*
X140263523Y-122582133D01*
X140168285Y-122534514D01*
X139977809Y-122486895D01*
X139834952Y-122486895D01*
X139644476Y-122534514D01*
X139549238Y-122582133D01*
X139454000Y-122677371D01*
X139406380Y-122820228D01*
X139406380Y-122915466D01*
X139454000Y-123058323D01*
X139501619Y-123105942D01*
X139406380Y-124010704D02*
X139406380Y-123534514D01*
X139882571Y-123486895D01*
X139834952Y-123534514D01*
X139787333Y-123629752D01*
X139787333Y-123867847D01*
X139834952Y-123963085D01*
X139882571Y-124010704D01*
X139977809Y-124058323D01*
X140215904Y-124058323D01*
X140311142Y-124010704D01*
X140358761Y-123963085D01*
X140406380Y-123867847D01*
X140406380Y-123629752D01*
X140358761Y-123534514D01*
X140311142Y-123486895D01*
X139406380Y-124677371D02*
X139406380Y-124772609D01*
X139454000Y-124867847D01*
X139501619Y-124915466D01*
X139596857Y-124963085D01*
X139787333Y-125010704D01*
X140025428Y-125010704D01*
X140215904Y-124963085D01*
X140311142Y-124915466D01*
X140358761Y-124867847D01*
X140406380Y-124772609D01*
X140406380Y-124677371D01*
X140358761Y-124582133D01*
X140311142Y-124534514D01*
X140215904Y-124486895D01*
X140025428Y-124439276D01*
X139787333Y-124439276D01*
X139596857Y-124486895D01*
X139501619Y-124534514D01*
X139454000Y-124582133D01*
X139406380Y-124677371D01*
X137943123Y-114353640D02*
X138008172Y-114336211D01*
X138120840Y-114236302D01*
X138168459Y-114153824D01*
X138198648Y-114006296D01*
X138163788Y-113876198D01*
X138105119Y-113787340D01*
X137963972Y-113650863D01*
X137840254Y-113579434D01*
X137651487Y-113525435D01*
X137545199Y-113519056D01*
X137415101Y-113553915D01*
X137302433Y-113653824D01*
X137254814Y-113736302D01*
X137224625Y-113883830D01*
X137242055Y-113948878D01*
X137019680Y-114810234D02*
X137597030Y-115143567D01*
X136808813Y-114413561D02*
X137546450Y-114564507D01*
X137236926Y-115100618D01*
X136768825Y-115435203D02*
X136775205Y-115328915D01*
X136757775Y-115263866D01*
X136699106Y-115175008D01*
X136657867Y-115151198D01*
X136551578Y-115144818D01*
X136486530Y-115162248D01*
X136397671Y-115220917D01*
X136302433Y-115385874D01*
X136296053Y-115492162D01*
X136313483Y-115557211D01*
X136372152Y-115646070D01*
X136413392Y-115669879D01*
X136519680Y-115676259D01*
X136584729Y-115658829D01*
X136673587Y-115600160D01*
X136768825Y-115435203D01*
X136857683Y-115376534D01*
X136922732Y-115359104D01*
X137029020Y-115365484D01*
X137193978Y-115460722D01*
X137252647Y-115549580D01*
X137270076Y-115614629D01*
X137263697Y-115720917D01*
X137168459Y-115885874D01*
X137079600Y-115944543D01*
X137014551Y-115961973D01*
X136908263Y-115955593D01*
X136743306Y-115860355D01*
X136684637Y-115771497D01*
X136667207Y-115706448D01*
X136673587Y-115600160D01*
X146692857Y-155805142D02*
X146740476Y-155852761D01*
X146883333Y-155900380D01*
X146978571Y-155900380D01*
X147121428Y-155852761D01*
X147216666Y-155757523D01*
X147264285Y-155662285D01*
X147311904Y-155471809D01*
X147311904Y-155328952D01*
X147264285Y-155138476D01*
X147216666Y-155043238D01*
X147121428Y-154948000D01*
X146978571Y-154900380D01*
X146883333Y-154900380D01*
X146740476Y-154948000D01*
X146692857Y-154995619D01*
X145835714Y-155233714D02*
X145835714Y-155900380D01*
X146073809Y-154852761D02*
X146311904Y-155567047D01*
X145692857Y-155567047D01*
X144835714Y-154900380D02*
X145311904Y-154900380D01*
X145359523Y-155376571D01*
X145311904Y-155328952D01*
X145216666Y-155281333D01*
X144978571Y-155281333D01*
X144883333Y-155328952D01*
X144835714Y-155376571D01*
X144788095Y-155471809D01*
X144788095Y-155709904D01*
X144835714Y-155805142D01*
X144883333Y-155852761D01*
X144978571Y-155900380D01*
X145216666Y-155900380D01*
X145311904Y-155852761D01*
X145359523Y-155805142D01*
X151529057Y-157837142D02*
X151576676Y-157884761D01*
X151719533Y-157932380D01*
X151814771Y-157932380D01*
X151957628Y-157884761D01*
X152052866Y-157789523D01*
X152100485Y-157694285D01*
X152148104Y-157503809D01*
X152148104Y-157360952D01*
X152100485Y-157170476D01*
X152052866Y-157075238D01*
X151957628Y-156980000D01*
X151814771Y-156932380D01*
X151719533Y-156932380D01*
X151576676Y-156980000D01*
X151529057Y-157027619D01*
X150671914Y-157265714D02*
X150671914Y-157932380D01*
X150910009Y-156884761D02*
X151148104Y-157599047D01*
X150529057Y-157599047D01*
X149719533Y-157265714D02*
X149719533Y-157932380D01*
X149957628Y-156884761D02*
X150195723Y-157599047D01*
X149576676Y-157599047D01*
X217736657Y-136882142D02*
X217784276Y-136929761D01*
X217927133Y-136977380D01*
X218022371Y-136977380D01*
X218165228Y-136929761D01*
X218260466Y-136834523D01*
X218308085Y-136739285D01*
X218355704Y-136548809D01*
X218355704Y-136405952D01*
X218308085Y-136215476D01*
X218260466Y-136120238D01*
X218165228Y-136025000D01*
X218022371Y-135977380D01*
X217927133Y-135977380D01*
X217784276Y-136025000D01*
X217736657Y-136072619D01*
X216879514Y-136310714D02*
X216879514Y-136977380D01*
X217117609Y-135929761D02*
X217355704Y-136644047D01*
X216736657Y-136644047D01*
X216165228Y-135977380D02*
X216069990Y-135977380D01*
X215974752Y-136025000D01*
X215927133Y-136072619D01*
X215879514Y-136167857D01*
X215831895Y-136358333D01*
X215831895Y-136596428D01*
X215879514Y-136786904D01*
X215927133Y-136882142D01*
X215974752Y-136929761D01*
X216069990Y-136977380D01*
X216165228Y-136977380D01*
X216260466Y-136929761D01*
X216308085Y-136882142D01*
X216355704Y-136786904D01*
X216403323Y-136596428D01*
X216403323Y-136358333D01*
X216355704Y-136167857D01*
X216308085Y-136072619D01*
X216260466Y-136025000D01*
X216165228Y-135977380D01*
X215374457Y-145060942D02*
X215422076Y-145108561D01*
X215564933Y-145156180D01*
X215660171Y-145156180D01*
X215803028Y-145108561D01*
X215898266Y-145013323D01*
X215945885Y-144918085D01*
X215993504Y-144727609D01*
X215993504Y-144584752D01*
X215945885Y-144394276D01*
X215898266Y-144299038D01*
X215803028Y-144203800D01*
X215660171Y-144156180D01*
X215564933Y-144156180D01*
X215422076Y-144203800D01*
X215374457Y-144251419D01*
X215041123Y-144156180D02*
X214422076Y-144156180D01*
X214755409Y-144537133D01*
X214612552Y-144537133D01*
X214517314Y-144584752D01*
X214469695Y-144632371D01*
X214422076Y-144727609D01*
X214422076Y-144965704D01*
X214469695Y-145060942D01*
X214517314Y-145108561D01*
X214612552Y-145156180D01*
X214898266Y-145156180D01*
X214993504Y-145108561D01*
X215041123Y-145060942D01*
X213945885Y-145156180D02*
X213755409Y-145156180D01*
X213660171Y-145108561D01*
X213612552Y-145060942D01*
X213517314Y-144918085D01*
X213469695Y-144727609D01*
X213469695Y-144346657D01*
X213517314Y-144251419D01*
X213564933Y-144203800D01*
X213660171Y-144156180D01*
X213850647Y-144156180D01*
X213945885Y-144203800D01*
X213993504Y-144251419D01*
X214041123Y-144346657D01*
X214041123Y-144584752D01*
X213993504Y-144679990D01*
X213945885Y-144727609D01*
X213850647Y-144775228D01*
X213660171Y-144775228D01*
X213564933Y-144727609D01*
X213517314Y-144679990D01*
X213469695Y-144584752D01*
X228703142Y-162171142D02*
X228750761Y-162123523D01*
X228798380Y-161980666D01*
X228798380Y-161885428D01*
X228750761Y-161742571D01*
X228655523Y-161647333D01*
X228560285Y-161599714D01*
X228369809Y-161552095D01*
X228226952Y-161552095D01*
X228036476Y-161599714D01*
X227941238Y-161647333D01*
X227846000Y-161742571D01*
X227798380Y-161885428D01*
X227798380Y-161980666D01*
X227846000Y-162123523D01*
X227893619Y-162171142D01*
X227798380Y-162504476D02*
X227798380Y-163123523D01*
X228179333Y-162790190D01*
X228179333Y-162933047D01*
X228226952Y-163028285D01*
X228274571Y-163075904D01*
X228369809Y-163123523D01*
X228607904Y-163123523D01*
X228703142Y-163075904D01*
X228750761Y-163028285D01*
X228798380Y-162933047D01*
X228798380Y-162647333D01*
X228750761Y-162552095D01*
X228703142Y-162504476D01*
X227798380Y-164028285D02*
X227798380Y-163552095D01*
X228274571Y-163504476D01*
X228226952Y-163552095D01*
X228179333Y-163647333D01*
X228179333Y-163885428D01*
X228226952Y-163980666D01*
X228274571Y-164028285D01*
X228369809Y-164075904D01*
X228607904Y-164075904D01*
X228703142Y-164028285D01*
X228750761Y-163980666D01*
X228798380Y-163885428D01*
X228798380Y-163647333D01*
X228750761Y-163552095D01*
X228703142Y-163504476D01*
X165554857Y-158196342D02*
X165602476Y-158243961D01*
X165745333Y-158291580D01*
X165840571Y-158291580D01*
X165983428Y-158243961D01*
X166078666Y-158148723D01*
X166126285Y-158053485D01*
X166173904Y-157863009D01*
X166173904Y-157720152D01*
X166126285Y-157529676D01*
X166078666Y-157434438D01*
X165983428Y-157339200D01*
X165840571Y-157291580D01*
X165745333Y-157291580D01*
X165602476Y-157339200D01*
X165554857Y-157386819D01*
X165221523Y-157291580D02*
X164602476Y-157291580D01*
X164935809Y-157672533D01*
X164792952Y-157672533D01*
X164697714Y-157720152D01*
X164650095Y-157767771D01*
X164602476Y-157863009D01*
X164602476Y-158101104D01*
X164650095Y-158196342D01*
X164697714Y-158243961D01*
X164792952Y-158291580D01*
X165078666Y-158291580D01*
X165173904Y-158243961D01*
X165221523Y-158196342D01*
X163983428Y-157291580D02*
X163888190Y-157291580D01*
X163792952Y-157339200D01*
X163745333Y-157386819D01*
X163697714Y-157482057D01*
X163650095Y-157672533D01*
X163650095Y-157910628D01*
X163697714Y-158101104D01*
X163745333Y-158196342D01*
X163792952Y-158243961D01*
X163888190Y-158291580D01*
X163983428Y-158291580D01*
X164078666Y-158243961D01*
X164126285Y-158196342D01*
X164173904Y-158101104D01*
X164221523Y-157910628D01*
X164221523Y-157672533D01*
X164173904Y-157482057D01*
X164126285Y-157386819D01*
X164078666Y-157339200D01*
X163983428Y-157291580D01*
X156461942Y-155501142D02*
X156509561Y-155453523D01*
X156557180Y-155310666D01*
X156557180Y-155215428D01*
X156509561Y-155072571D01*
X156414323Y-154977333D01*
X156319085Y-154929714D01*
X156128609Y-154882095D01*
X155985752Y-154882095D01*
X155795276Y-154929714D01*
X155700038Y-154977333D01*
X155604800Y-155072571D01*
X155557180Y-155215428D01*
X155557180Y-155310666D01*
X155604800Y-155453523D01*
X155652419Y-155501142D01*
X155652419Y-155882095D02*
X155604800Y-155929714D01*
X155557180Y-156024952D01*
X155557180Y-156263047D01*
X155604800Y-156358285D01*
X155652419Y-156405904D01*
X155747657Y-156453523D01*
X155842895Y-156453523D01*
X155985752Y-156405904D01*
X156557180Y-155834476D01*
X156557180Y-156453523D01*
X156557180Y-156929714D02*
X156557180Y-157120190D01*
X156509561Y-157215428D01*
X156461942Y-157263047D01*
X156319085Y-157358285D01*
X156128609Y-157405904D01*
X155747657Y-157405904D01*
X155652419Y-157358285D01*
X155604800Y-157310666D01*
X155557180Y-157215428D01*
X155557180Y-157024952D01*
X155604800Y-156929714D01*
X155652419Y-156882095D01*
X155747657Y-156834476D01*
X155985752Y-156834476D01*
X156080990Y-156882095D01*
X156128609Y-156929714D01*
X156176228Y-157024952D01*
X156176228Y-157215428D01*
X156128609Y-157310666D01*
X156080990Y-157358285D01*
X155985752Y-157405904D01*
X164466542Y-152722342D02*
X164514161Y-152674723D01*
X164561780Y-152531866D01*
X164561780Y-152436628D01*
X164514161Y-152293771D01*
X164418923Y-152198533D01*
X164323685Y-152150914D01*
X164133209Y-152103295D01*
X163990352Y-152103295D01*
X163799876Y-152150914D01*
X163704638Y-152198533D01*
X163609400Y-152293771D01*
X163561780Y-152436628D01*
X163561780Y-152531866D01*
X163609400Y-152674723D01*
X163657019Y-152722342D01*
X163657019Y-153103295D02*
X163609400Y-153150914D01*
X163561780Y-153246152D01*
X163561780Y-153484247D01*
X163609400Y-153579485D01*
X163657019Y-153627104D01*
X163752257Y-153674723D01*
X163847495Y-153674723D01*
X163990352Y-153627104D01*
X164561780Y-153055676D01*
X164561780Y-153674723D01*
X163990352Y-154246152D02*
X163942733Y-154150914D01*
X163895114Y-154103295D01*
X163799876Y-154055676D01*
X163752257Y-154055676D01*
X163657019Y-154103295D01*
X163609400Y-154150914D01*
X163561780Y-154246152D01*
X163561780Y-154436628D01*
X163609400Y-154531866D01*
X163657019Y-154579485D01*
X163752257Y-154627104D01*
X163799876Y-154627104D01*
X163895114Y-154579485D01*
X163942733Y-154531866D01*
X163990352Y-154436628D01*
X163990352Y-154246152D01*
X164037971Y-154150914D01*
X164085590Y-154103295D01*
X164180828Y-154055676D01*
X164371304Y-154055676D01*
X164466542Y-154103295D01*
X164514161Y-154150914D01*
X164561780Y-154246152D01*
X164561780Y-154436628D01*
X164514161Y-154531866D01*
X164466542Y-154579485D01*
X164371304Y-154627104D01*
X164180828Y-154627104D01*
X164085590Y-154579485D01*
X164037971Y-154531866D01*
X163990352Y-154436628D01*
X161948057Y-158196342D02*
X161995676Y-158243961D01*
X162138533Y-158291580D01*
X162233771Y-158291580D01*
X162376628Y-158243961D01*
X162471866Y-158148723D01*
X162519485Y-158053485D01*
X162567104Y-157863009D01*
X162567104Y-157720152D01*
X162519485Y-157529676D01*
X162471866Y-157434438D01*
X162376628Y-157339200D01*
X162233771Y-157291580D01*
X162138533Y-157291580D01*
X161995676Y-157339200D01*
X161948057Y-157386819D01*
X161567104Y-157386819D02*
X161519485Y-157339200D01*
X161424247Y-157291580D01*
X161186152Y-157291580D01*
X161090914Y-157339200D01*
X161043295Y-157386819D01*
X160995676Y-157482057D01*
X160995676Y-157577295D01*
X161043295Y-157720152D01*
X161614723Y-158291580D01*
X160995676Y-158291580D01*
X160662342Y-157291580D02*
X159995676Y-157291580D01*
X160424247Y-158291580D01*
X154662142Y-152239742D02*
X154709761Y-152192123D01*
X154757380Y-152049266D01*
X154757380Y-151954028D01*
X154709761Y-151811171D01*
X154614523Y-151715933D01*
X154519285Y-151668314D01*
X154328809Y-151620695D01*
X154185952Y-151620695D01*
X153995476Y-151668314D01*
X153900238Y-151715933D01*
X153805000Y-151811171D01*
X153757380Y-151954028D01*
X153757380Y-152049266D01*
X153805000Y-152192123D01*
X153852619Y-152239742D01*
X153852619Y-152620695D02*
X153805000Y-152668314D01*
X153757380Y-152763552D01*
X153757380Y-153001647D01*
X153805000Y-153096885D01*
X153852619Y-153144504D01*
X153947857Y-153192123D01*
X154043095Y-153192123D01*
X154185952Y-153144504D01*
X154757380Y-152573076D01*
X154757380Y-153192123D01*
X153757380Y-154049266D02*
X153757380Y-153858790D01*
X153805000Y-153763552D01*
X153852619Y-153715933D01*
X153995476Y-153620695D01*
X154185952Y-153573076D01*
X154566904Y-153573076D01*
X154662142Y-153620695D01*
X154709761Y-153668314D01*
X154757380Y-153763552D01*
X154757380Y-153954028D01*
X154709761Y-154049266D01*
X154662142Y-154096885D01*
X154566904Y-154144504D01*
X154328809Y-154144504D01*
X154233571Y-154096885D01*
X154185952Y-154049266D01*
X154138333Y-153954028D01*
X154138333Y-153763552D01*
X154185952Y-153668314D01*
X154233571Y-153620695D01*
X154328809Y-153573076D01*
X162612342Y-170197542D02*
X162659961Y-170149923D01*
X162707580Y-170007066D01*
X162707580Y-169911828D01*
X162659961Y-169768971D01*
X162564723Y-169673733D01*
X162469485Y-169626114D01*
X162279009Y-169578495D01*
X162136152Y-169578495D01*
X161945676Y-169626114D01*
X161850438Y-169673733D01*
X161755200Y-169768971D01*
X161707580Y-169911828D01*
X161707580Y-170007066D01*
X161755200Y-170149923D01*
X161802819Y-170197542D01*
X162707580Y-171149923D02*
X162707580Y-170578495D01*
X162707580Y-170864209D02*
X161707580Y-170864209D01*
X161850438Y-170768971D01*
X161945676Y-170673733D01*
X161993295Y-170578495D01*
X162707580Y-171626114D02*
X162707580Y-171816590D01*
X162659961Y-171911828D01*
X162612342Y-171959447D01*
X162469485Y-172054685D01*
X162279009Y-172102304D01*
X161898057Y-172102304D01*
X161802819Y-172054685D01*
X161755200Y-172007066D01*
X161707580Y-171911828D01*
X161707580Y-171721352D01*
X161755200Y-171626114D01*
X161802819Y-171578495D01*
X161898057Y-171530876D01*
X162136152Y-171530876D01*
X162231390Y-171578495D01*
X162279009Y-171626114D01*
X162326628Y-171721352D01*
X162326628Y-171911828D01*
X162279009Y-172007066D01*
X162231390Y-172054685D01*
X162136152Y-172102304D01*
X161901142Y-173448742D02*
X161948761Y-173401123D01*
X161996380Y-173258266D01*
X161996380Y-173163028D01*
X161948761Y-173020171D01*
X161853523Y-172924933D01*
X161758285Y-172877314D01*
X161567809Y-172829695D01*
X161424952Y-172829695D01*
X161234476Y-172877314D01*
X161139238Y-172924933D01*
X161044000Y-173020171D01*
X160996380Y-173163028D01*
X160996380Y-173258266D01*
X161044000Y-173401123D01*
X161091619Y-173448742D01*
X161996380Y-174401123D02*
X161996380Y-173829695D01*
X161996380Y-174115409D02*
X160996380Y-174115409D01*
X161139238Y-174020171D01*
X161234476Y-173924933D01*
X161282095Y-173829695D01*
X161424952Y-174972552D02*
X161377333Y-174877314D01*
X161329714Y-174829695D01*
X161234476Y-174782076D01*
X161186857Y-174782076D01*
X161091619Y-174829695D01*
X161044000Y-174877314D01*
X160996380Y-174972552D01*
X160996380Y-175163028D01*
X161044000Y-175258266D01*
X161091619Y-175305885D01*
X161186857Y-175353504D01*
X161234476Y-175353504D01*
X161329714Y-175305885D01*
X161377333Y-175258266D01*
X161424952Y-175163028D01*
X161424952Y-174972552D01*
X161472571Y-174877314D01*
X161520190Y-174829695D01*
X161615428Y-174782076D01*
X161805904Y-174782076D01*
X161901142Y-174829695D01*
X161948761Y-174877314D01*
X161996380Y-174972552D01*
X161996380Y-175163028D01*
X161948761Y-175258266D01*
X161901142Y-175305885D01*
X161805904Y-175353504D01*
X161615428Y-175353504D01*
X161520190Y-175305885D01*
X161472571Y-175258266D01*
X161424952Y-175163028D01*
X201480657Y-190450742D02*
X201528276Y-190498361D01*
X201671133Y-190545980D01*
X201766371Y-190545980D01*
X201909228Y-190498361D01*
X202004466Y-190403123D01*
X202052085Y-190307885D01*
X202099704Y-190117409D01*
X202099704Y-189974552D01*
X202052085Y-189784076D01*
X202004466Y-189688838D01*
X201909228Y-189593600D01*
X201766371Y-189545980D01*
X201671133Y-189545980D01*
X201528276Y-189593600D01*
X201480657Y-189641219D01*
X200528276Y-190545980D02*
X201099704Y-190545980D01*
X200813990Y-190545980D02*
X200813990Y-189545980D01*
X200909228Y-189688838D01*
X201004466Y-189784076D01*
X201099704Y-189831695D01*
X200194942Y-189545980D02*
X199528276Y-189545980D01*
X199956847Y-190545980D01*
X214993457Y-178715942D02*
X215041076Y-178763561D01*
X215183933Y-178811180D01*
X215279171Y-178811180D01*
X215422028Y-178763561D01*
X215517266Y-178668323D01*
X215564885Y-178573085D01*
X215612504Y-178382609D01*
X215612504Y-178239752D01*
X215564885Y-178049276D01*
X215517266Y-177954038D01*
X215422028Y-177858800D01*
X215279171Y-177811180D01*
X215183933Y-177811180D01*
X215041076Y-177858800D01*
X214993457Y-177906419D01*
X214041076Y-178811180D02*
X214612504Y-178811180D01*
X214326790Y-178811180D02*
X214326790Y-177811180D01*
X214422028Y-177954038D01*
X214517266Y-178049276D01*
X214612504Y-178096895D01*
X213183933Y-177811180D02*
X213374409Y-177811180D01*
X213469647Y-177858800D01*
X213517266Y-177906419D01*
X213612504Y-178049276D01*
X213660123Y-178239752D01*
X213660123Y-178620704D01*
X213612504Y-178715942D01*
X213564885Y-178763561D01*
X213469647Y-178811180D01*
X213279171Y-178811180D01*
X213183933Y-178763561D01*
X213136314Y-178715942D01*
X213088695Y-178620704D01*
X213088695Y-178382609D01*
X213136314Y-178287371D01*
X213183933Y-178239752D01*
X213279171Y-178192133D01*
X213469647Y-178192133D01*
X213564885Y-178239752D01*
X213612504Y-178287371D01*
X213660123Y-178382609D01*
X205970142Y-181271942D02*
X206017761Y-181224323D01*
X206065380Y-181081466D01*
X206065380Y-180986228D01*
X206017761Y-180843371D01*
X205922523Y-180748133D01*
X205827285Y-180700514D01*
X205636809Y-180652895D01*
X205493952Y-180652895D01*
X205303476Y-180700514D01*
X205208238Y-180748133D01*
X205113000Y-180843371D01*
X205065380Y-180986228D01*
X205065380Y-181081466D01*
X205113000Y-181224323D01*
X205160619Y-181271942D01*
X206065380Y-182224323D02*
X206065380Y-181652895D01*
X206065380Y-181938609D02*
X205065380Y-181938609D01*
X205208238Y-181843371D01*
X205303476Y-181748133D01*
X205351095Y-181652895D01*
X205065380Y-183129085D02*
X205065380Y-182652895D01*
X205541571Y-182605276D01*
X205493952Y-182652895D01*
X205446333Y-182748133D01*
X205446333Y-182986228D01*
X205493952Y-183081466D01*
X205541571Y-183129085D01*
X205636809Y-183176704D01*
X205874904Y-183176704D01*
X205970142Y-183129085D01*
X206017761Y-183081466D01*
X206065380Y-182986228D01*
X206065380Y-182748133D01*
X206017761Y-182652895D01*
X205970142Y-182605276D01*
X222111866Y-117832142D02*
X222159485Y-117879761D01*
X222302342Y-117927380D01*
X222397580Y-117927380D01*
X222540438Y-117879761D01*
X222635676Y-117784523D01*
X222683295Y-117689285D01*
X222730914Y-117498809D01*
X222730914Y-117355952D01*
X222683295Y-117165476D01*
X222635676Y-117070238D01*
X222540438Y-116975000D01*
X222397580Y-116927380D01*
X222302342Y-116927380D01*
X222159485Y-116975000D01*
X222111866Y-117022619D01*
X221540438Y-117355952D02*
X221635676Y-117308333D01*
X221683295Y-117260714D01*
X221730914Y-117165476D01*
X221730914Y-117117857D01*
X221683295Y-117022619D01*
X221635676Y-116975000D01*
X221540438Y-116927380D01*
X221349961Y-116927380D01*
X221254723Y-116975000D01*
X221207104Y-117022619D01*
X221159485Y-117117857D01*
X221159485Y-117165476D01*
X221207104Y-117260714D01*
X221254723Y-117308333D01*
X221349961Y-117355952D01*
X221540438Y-117355952D01*
X221635676Y-117403571D01*
X221683295Y-117451190D01*
X221730914Y-117546428D01*
X221730914Y-117736904D01*
X221683295Y-117832142D01*
X221635676Y-117879761D01*
X221540438Y-117927380D01*
X221349961Y-117927380D01*
X221254723Y-117879761D01*
X221207104Y-117832142D01*
X221159485Y-117736904D01*
X221159485Y-117546428D01*
X221207104Y-117451190D01*
X221254723Y-117403571D01*
X221349961Y-117355952D01*
X221019666Y-111024942D02*
X221067285Y-111072561D01*
X221210142Y-111120180D01*
X221305380Y-111120180D01*
X221448238Y-111072561D01*
X221543476Y-110977323D01*
X221591095Y-110882085D01*
X221638714Y-110691609D01*
X221638714Y-110548752D01*
X221591095Y-110358276D01*
X221543476Y-110263038D01*
X221448238Y-110167800D01*
X221305380Y-110120180D01*
X221210142Y-110120180D01*
X221067285Y-110167800D01*
X221019666Y-110215419D01*
X220686333Y-110120180D02*
X220019666Y-110120180D01*
X220448238Y-111120180D01*
X225350342Y-113422133D02*
X225397961Y-113374514D01*
X225445580Y-113231657D01*
X225445580Y-113136419D01*
X225397961Y-112993561D01*
X225302723Y-112898323D01*
X225207485Y-112850704D01*
X225017009Y-112803085D01*
X224874152Y-112803085D01*
X224683676Y-112850704D01*
X224588438Y-112898323D01*
X224493200Y-112993561D01*
X224445580Y-113136419D01*
X224445580Y-113231657D01*
X224493200Y-113374514D01*
X224540819Y-113422133D01*
X224445580Y-114279276D02*
X224445580Y-114088800D01*
X224493200Y-113993561D01*
X224540819Y-113945942D01*
X224683676Y-113850704D01*
X224874152Y-113803085D01*
X225255104Y-113803085D01*
X225350342Y-113850704D01*
X225397961Y-113898323D01*
X225445580Y-113993561D01*
X225445580Y-114184038D01*
X225397961Y-114279276D01*
X225350342Y-114326895D01*
X225255104Y-114374514D01*
X225017009Y-114374514D01*
X224921771Y-114326895D01*
X224874152Y-114279276D01*
X224826533Y-114184038D01*
X224826533Y-113993561D01*
X224874152Y-113898323D01*
X224921771Y-113850704D01*
X225017009Y-113803085D01*
X227849606Y-158207534D02*
X227910640Y-158179074D01*
X228004248Y-158061118D01*
X228036821Y-157971624D01*
X228040934Y-157821095D01*
X227984013Y-157699027D01*
X227910805Y-157621707D01*
X227748102Y-157511813D01*
X227613860Y-157462953D01*
X227418585Y-157442553D01*
X227312803Y-157454727D01*
X227190736Y-157511649D01*
X227097128Y-157629604D01*
X227064555Y-157719098D01*
X227060442Y-157869627D01*
X227088903Y-157930661D01*
X226689961Y-158748285D02*
X226852828Y-158300813D01*
X227316588Y-158418932D01*
X227255554Y-158447393D01*
X227178233Y-158520601D01*
X227096800Y-158744337D01*
X227108974Y-158850118D01*
X227137434Y-158911152D01*
X227210642Y-158988473D01*
X227434378Y-159069906D01*
X227540160Y-159057732D01*
X227601194Y-159029272D01*
X227678514Y-158956064D01*
X227759947Y-158732327D01*
X227747774Y-158626546D01*
X227719313Y-158565512D01*
X188482266Y-90984342D02*
X188529885Y-91031961D01*
X188672742Y-91079580D01*
X188767980Y-91079580D01*
X188910838Y-91031961D01*
X189006076Y-90936723D01*
X189053695Y-90841485D01*
X189101314Y-90651009D01*
X189101314Y-90508152D01*
X189053695Y-90317676D01*
X189006076Y-90222438D01*
X188910838Y-90127200D01*
X188767980Y-90079580D01*
X188672742Y-90079580D01*
X188529885Y-90127200D01*
X188482266Y-90174819D01*
X188148933Y-90079580D02*
X187529885Y-90079580D01*
X187863219Y-90460533D01*
X187720361Y-90460533D01*
X187625123Y-90508152D01*
X187577504Y-90555771D01*
X187529885Y-90651009D01*
X187529885Y-90889104D01*
X187577504Y-90984342D01*
X187625123Y-91031961D01*
X187720361Y-91079580D01*
X188006076Y-91079580D01*
X188101314Y-91031961D01*
X188148933Y-90984342D01*
X176137866Y-89739742D02*
X176185485Y-89787361D01*
X176328342Y-89834980D01*
X176423580Y-89834980D01*
X176566438Y-89787361D01*
X176661676Y-89692123D01*
X176709295Y-89596885D01*
X176756914Y-89406409D01*
X176756914Y-89263552D01*
X176709295Y-89073076D01*
X176661676Y-88977838D01*
X176566438Y-88882600D01*
X176423580Y-88834980D01*
X176328342Y-88834980D01*
X176185485Y-88882600D01*
X176137866Y-88930219D01*
X175756914Y-88930219D02*
X175709295Y-88882600D01*
X175614057Y-88834980D01*
X175375961Y-88834980D01*
X175280723Y-88882600D01*
X175233104Y-88930219D01*
X175185485Y-89025457D01*
X175185485Y-89120695D01*
X175233104Y-89263552D01*
X175804533Y-89834980D01*
X175185485Y-89834980D01*
M02*
