G04 #@! TF.GenerationSoftware,KiCad,Pcbnew,(5.1.7)-1*
G04 #@! TF.CreationDate,2021-09-21T18:23:52-07:00*
G04 #@! TF.ProjectId,LCP_Controller,4c43505f-436f-46e7-9472-6f6c6c65722e,rev?*
G04 #@! TF.SameCoordinates,Original*
G04 #@! TF.FileFunction,Copper,L4,Bot*
G04 #@! TF.FilePolarity,Positive*
%FSLAX46Y46*%
G04 Gerber Fmt 4.6, Leading zero omitted, Abs format (unit mm)*
G04 Created by KiCad (PCBNEW (5.1.7)-1) date 2021-09-21 18:23:52*
%MOMM*%
%LPD*%
G01*
G04 APERTURE LIST*
G04 #@! TA.AperFunction,EtchedComponent*
%ADD10C,0.100000*%
G04 #@! TD*
G04 #@! TA.AperFunction,ComponentPad*
%ADD11C,2.000000*%
G04 #@! TD*
G04 #@! TA.AperFunction,ComponentPad*
%ADD12C,1.600000*%
G04 #@! TD*
G04 #@! TA.AperFunction,ComponentPad*
%ADD13R,1.600000X1.600000*%
G04 #@! TD*
G04 #@! TA.AperFunction,SMDPad,CuDef*
%ADD14R,2.450000X2.450000*%
G04 #@! TD*
G04 #@! TA.AperFunction,ComponentPad*
%ADD15C,0.100000*%
G04 #@! TD*
G04 #@! TA.AperFunction,SMDPad,CuDef*
%ADD16R,2.400000X0.640000*%
G04 #@! TD*
G04 #@! TA.AperFunction,SMDPad,CuDef*
%ADD17R,0.250000X0.700000*%
G04 #@! TD*
G04 #@! TA.AperFunction,ComponentPad*
%ADD18O,1.350000X1.350000*%
G04 #@! TD*
G04 #@! TA.AperFunction,ComponentPad*
%ADD19R,1.350000X1.350000*%
G04 #@! TD*
G04 #@! TA.AperFunction,SMDPad,CuDef*
%ADD20R,0.800000X0.900000*%
G04 #@! TD*
G04 #@! TA.AperFunction,ComponentPad*
%ADD21C,2.250000*%
G04 #@! TD*
G04 #@! TA.AperFunction,ComponentPad*
%ADD22C,2.050000*%
G04 #@! TD*
G04 #@! TA.AperFunction,SMDPad,CuDef*
%ADD23R,0.400000X0.600000*%
G04 #@! TD*
G04 #@! TA.AperFunction,SMDPad,CuDef*
%ADD24R,0.600000X0.600000*%
G04 #@! TD*
G04 #@! TA.AperFunction,SMDPad,CuDef*
%ADD25R,0.600000X0.400000*%
G04 #@! TD*
G04 #@! TA.AperFunction,SMDPad,CuDef*
%ADD26R,7.875000X2.000000*%
G04 #@! TD*
G04 #@! TA.AperFunction,SMDPad,CuDef*
%ADD27R,1.800000X1.000000*%
G04 #@! TD*
G04 #@! TA.AperFunction,SMDPad,CuDef*
%ADD28R,5.150000X5.150000*%
G04 #@! TD*
G04 #@! TA.AperFunction,SMDPad,CuDef*
%ADD29R,1.000000X1.400000*%
G04 #@! TD*
G04 #@! TA.AperFunction,SMDPad,CuDef*
%ADD30C,0.100000*%
G04 #@! TD*
G04 #@! TA.AperFunction,SMDPad,CuDef*
%ADD31R,1.000000X1.500000*%
G04 #@! TD*
G04 #@! TA.AperFunction,ViaPad*
%ADD32C,0.800000*%
G04 #@! TD*
G04 #@! TA.AperFunction,ViaPad*
%ADD33C,1.016000*%
G04 #@! TD*
G04 #@! TA.AperFunction,ViaPad*
%ADD34C,0.508000*%
G04 #@! TD*
G04 #@! TA.AperFunction,Conductor*
%ADD35C,0.203200*%
G04 #@! TD*
G04 #@! TA.AperFunction,Conductor*
%ADD36C,0.508000*%
G04 #@! TD*
G04 #@! TA.AperFunction,Conductor*
%ADD37C,0.152400*%
G04 #@! TD*
G04 #@! TA.AperFunction,Conductor*
%ADD38C,0.381000*%
G04 #@! TD*
G04 #@! TA.AperFunction,Conductor*
%ADD39C,0.250000*%
G04 #@! TD*
G04 APERTURE END LIST*
D10*
G36*
X181421200Y-122321600D02*
G01*
X181921200Y-122321600D01*
X181921200Y-121721600D01*
X181421200Y-121721600D01*
X181421200Y-122321600D01*
G37*
D11*
X198780400Y-192024000D03*
G04 #@! TA.AperFunction,SMDPad,CuDef*
G36*
G01*
X146296800Y-164051000D02*
X146296800Y-163101000D01*
G75*
G02*
X146546800Y-162851000I250000J0D01*
G01*
X147046800Y-162851000D01*
G75*
G02*
X147296800Y-163101000I0J-250000D01*
G01*
X147296800Y-164051000D01*
G75*
G02*
X147046800Y-164301000I-250000J0D01*
G01*
X146546800Y-164301000D01*
G75*
G02*
X146296800Y-164051000I0J250000D01*
G01*
G37*
G04 #@! TD.AperFunction*
G04 #@! TA.AperFunction,SMDPad,CuDef*
G36*
G01*
X144396800Y-164051000D02*
X144396800Y-163101000D01*
G75*
G02*
X144646800Y-162851000I250000J0D01*
G01*
X145146800Y-162851000D01*
G75*
G02*
X145396800Y-163101000I0J-250000D01*
G01*
X145396800Y-164051000D01*
G75*
G02*
X145146800Y-164301000I-250000J0D01*
G01*
X144646800Y-164301000D01*
G75*
G02*
X144396800Y-164051000I0J250000D01*
G01*
G37*
G04 #@! TD.AperFunction*
D12*
X188513600Y-119430800D03*
D13*
X185013600Y-119430800D03*
G04 #@! TA.AperFunction,ComponentPad*
G36*
G01*
X225332820Y-172138195D02*
X224964202Y-171880085D01*
G75*
G02*
X224816857Y-171044448I344146J491491D01*
G01*
X224816857Y-171044448D01*
G75*
G02*
X225652494Y-170897103I491491J-344146D01*
G01*
X226021112Y-171155213D01*
G75*
G02*
X226168457Y-171990850I-344146J-491491D01*
G01*
X226168457Y-171990850D01*
G75*
G02*
X225332820Y-172138195I-491491J344146D01*
G01*
G37*
G04 #@! TD.AperFunction*
G04 #@! TA.AperFunction,ComponentPad*
G36*
G01*
X224185667Y-173776499D02*
X223817049Y-173518389D01*
G75*
G02*
X223669704Y-172682752I344146J491491D01*
G01*
X223669704Y-172682752D01*
G75*
G02*
X224505341Y-172535407I491491J-344146D01*
G01*
X224873959Y-172793517D01*
G75*
G02*
X225021304Y-173629154I-344146J-491491D01*
G01*
X225021304Y-173629154D01*
G75*
G02*
X224185667Y-173776499I-491491J344146D01*
G01*
G37*
G04 #@! TD.AperFunction*
G04 #@! TA.AperFunction,ComponentPad*
G36*
G01*
X223694516Y-170991042D02*
X223325898Y-170732932D01*
G75*
G02*
X223178553Y-169897295I344146J491491D01*
G01*
X223178553Y-169897295D01*
G75*
G02*
X224014190Y-169749950I491491J-344146D01*
G01*
X224382808Y-170008060D01*
G75*
G02*
X224530153Y-170843697I-344146J-491491D01*
G01*
X224530153Y-170843697D01*
G75*
G02*
X223694516Y-170991042I-491491J344146D01*
G01*
G37*
G04 #@! TD.AperFunction*
G04 #@! TA.AperFunction,ComponentPad*
G36*
G01*
X222834067Y-172830098D02*
X221892040Y-172170484D01*
G75*
G02*
X221830647Y-171822303I143394J204787D01*
G01*
X222232152Y-171248895D01*
G75*
G02*
X222580333Y-171187502I204787J-143394D01*
G01*
X223522360Y-171847116D01*
G75*
G02*
X223583753Y-172195297I-143394J-204787D01*
G01*
X223182248Y-172768705D01*
G75*
G02*
X222834067Y-172830098I-204787J143394D01*
G01*
G37*
G04 #@! TD.AperFunction*
G04 #@! TA.AperFunction,SMDPad,CuDef*
G36*
G01*
X140875600Y-161577000D02*
X140875600Y-162527000D01*
G75*
G02*
X140625600Y-162777000I-250000J0D01*
G01*
X140125600Y-162777000D01*
G75*
G02*
X139875600Y-162527000I0J250000D01*
G01*
X139875600Y-161577000D01*
G75*
G02*
X140125600Y-161327000I250000J0D01*
G01*
X140625600Y-161327000D01*
G75*
G02*
X140875600Y-161577000I0J-250000D01*
G01*
G37*
G04 #@! TD.AperFunction*
G04 #@! TA.AperFunction,SMDPad,CuDef*
G36*
G01*
X142775600Y-161577000D02*
X142775600Y-162527000D01*
G75*
G02*
X142525600Y-162777000I-250000J0D01*
G01*
X142025600Y-162777000D01*
G75*
G02*
X141775600Y-162527000I0J250000D01*
G01*
X141775600Y-161577000D01*
G75*
G02*
X142025600Y-161327000I250000J0D01*
G01*
X142525600Y-161327000D01*
G75*
G02*
X142775600Y-161577000I0J-250000D01*
G01*
G37*
G04 #@! TD.AperFunction*
D14*
X145034000Y-122014400D03*
G04 #@! TA.AperFunction,SMDPad,CuDef*
G36*
G01*
X143659000Y-124326900D02*
X143659000Y-123676900D01*
G75*
G02*
X143721500Y-123614400I62500J0D01*
G01*
X143846500Y-123614400D01*
G75*
G02*
X143909000Y-123676900I0J-62500D01*
G01*
X143909000Y-124326900D01*
G75*
G02*
X143846500Y-124389400I-62500J0D01*
G01*
X143721500Y-124389400D01*
G75*
G02*
X143659000Y-124326900I0J62500D01*
G01*
G37*
G04 #@! TD.AperFunction*
G04 #@! TA.AperFunction,SMDPad,CuDef*
G36*
G01*
X144159000Y-124326900D02*
X144159000Y-123676900D01*
G75*
G02*
X144221500Y-123614400I62500J0D01*
G01*
X144346500Y-123614400D01*
G75*
G02*
X144409000Y-123676900I0J-62500D01*
G01*
X144409000Y-124326900D01*
G75*
G02*
X144346500Y-124389400I-62500J0D01*
G01*
X144221500Y-124389400D01*
G75*
G02*
X144159000Y-124326900I0J62500D01*
G01*
G37*
G04 #@! TD.AperFunction*
G04 #@! TA.AperFunction,SMDPad,CuDef*
G36*
G01*
X144659000Y-124326900D02*
X144659000Y-123676900D01*
G75*
G02*
X144721500Y-123614400I62500J0D01*
G01*
X144846500Y-123614400D01*
G75*
G02*
X144909000Y-123676900I0J-62500D01*
G01*
X144909000Y-124326900D01*
G75*
G02*
X144846500Y-124389400I-62500J0D01*
G01*
X144721500Y-124389400D01*
G75*
G02*
X144659000Y-124326900I0J62500D01*
G01*
G37*
G04 #@! TD.AperFunction*
G04 #@! TA.AperFunction,SMDPad,CuDef*
G36*
G01*
X145159000Y-124326900D02*
X145159000Y-123676900D01*
G75*
G02*
X145221500Y-123614400I62500J0D01*
G01*
X145346500Y-123614400D01*
G75*
G02*
X145409000Y-123676900I0J-62500D01*
G01*
X145409000Y-124326900D01*
G75*
G02*
X145346500Y-124389400I-62500J0D01*
G01*
X145221500Y-124389400D01*
G75*
G02*
X145159000Y-124326900I0J62500D01*
G01*
G37*
G04 #@! TD.AperFunction*
G04 #@! TA.AperFunction,SMDPad,CuDef*
G36*
G01*
X145659000Y-124326900D02*
X145659000Y-123676900D01*
G75*
G02*
X145721500Y-123614400I62500J0D01*
G01*
X145846500Y-123614400D01*
G75*
G02*
X145909000Y-123676900I0J-62500D01*
G01*
X145909000Y-124326900D01*
G75*
G02*
X145846500Y-124389400I-62500J0D01*
G01*
X145721500Y-124389400D01*
G75*
G02*
X145659000Y-124326900I0J62500D01*
G01*
G37*
G04 #@! TD.AperFunction*
G04 #@! TA.AperFunction,SMDPad,CuDef*
G36*
G01*
X146159000Y-124326900D02*
X146159000Y-123676900D01*
G75*
G02*
X146221500Y-123614400I62500J0D01*
G01*
X146346500Y-123614400D01*
G75*
G02*
X146409000Y-123676900I0J-62500D01*
G01*
X146409000Y-124326900D01*
G75*
G02*
X146346500Y-124389400I-62500J0D01*
G01*
X146221500Y-124389400D01*
G75*
G02*
X146159000Y-124326900I0J62500D01*
G01*
G37*
G04 #@! TD.AperFunction*
G04 #@! TA.AperFunction,SMDPad,CuDef*
G36*
G01*
X146634000Y-123326900D02*
X146634000Y-123201900D01*
G75*
G02*
X146696500Y-123139400I62500J0D01*
G01*
X147346500Y-123139400D01*
G75*
G02*
X147409000Y-123201900I0J-62500D01*
G01*
X147409000Y-123326900D01*
G75*
G02*
X147346500Y-123389400I-62500J0D01*
G01*
X146696500Y-123389400D01*
G75*
G02*
X146634000Y-123326900I0J62500D01*
G01*
G37*
G04 #@! TD.AperFunction*
G04 #@! TA.AperFunction,SMDPad,CuDef*
G36*
G01*
X146634000Y-122826900D02*
X146634000Y-122701900D01*
G75*
G02*
X146696500Y-122639400I62500J0D01*
G01*
X147346500Y-122639400D01*
G75*
G02*
X147409000Y-122701900I0J-62500D01*
G01*
X147409000Y-122826900D01*
G75*
G02*
X147346500Y-122889400I-62500J0D01*
G01*
X146696500Y-122889400D01*
G75*
G02*
X146634000Y-122826900I0J62500D01*
G01*
G37*
G04 #@! TD.AperFunction*
G04 #@! TA.AperFunction,SMDPad,CuDef*
G36*
G01*
X146634000Y-122326900D02*
X146634000Y-122201900D01*
G75*
G02*
X146696500Y-122139400I62500J0D01*
G01*
X147346500Y-122139400D01*
G75*
G02*
X147409000Y-122201900I0J-62500D01*
G01*
X147409000Y-122326900D01*
G75*
G02*
X147346500Y-122389400I-62500J0D01*
G01*
X146696500Y-122389400D01*
G75*
G02*
X146634000Y-122326900I0J62500D01*
G01*
G37*
G04 #@! TD.AperFunction*
G04 #@! TA.AperFunction,SMDPad,CuDef*
G36*
G01*
X146634000Y-121826900D02*
X146634000Y-121701900D01*
G75*
G02*
X146696500Y-121639400I62500J0D01*
G01*
X147346500Y-121639400D01*
G75*
G02*
X147409000Y-121701900I0J-62500D01*
G01*
X147409000Y-121826900D01*
G75*
G02*
X147346500Y-121889400I-62500J0D01*
G01*
X146696500Y-121889400D01*
G75*
G02*
X146634000Y-121826900I0J62500D01*
G01*
G37*
G04 #@! TD.AperFunction*
G04 #@! TA.AperFunction,SMDPad,CuDef*
G36*
G01*
X146634000Y-121326900D02*
X146634000Y-121201900D01*
G75*
G02*
X146696500Y-121139400I62500J0D01*
G01*
X147346500Y-121139400D01*
G75*
G02*
X147409000Y-121201900I0J-62500D01*
G01*
X147409000Y-121326900D01*
G75*
G02*
X147346500Y-121389400I-62500J0D01*
G01*
X146696500Y-121389400D01*
G75*
G02*
X146634000Y-121326900I0J62500D01*
G01*
G37*
G04 #@! TD.AperFunction*
G04 #@! TA.AperFunction,SMDPad,CuDef*
G36*
G01*
X146634000Y-120826900D02*
X146634000Y-120701900D01*
G75*
G02*
X146696500Y-120639400I62500J0D01*
G01*
X147346500Y-120639400D01*
G75*
G02*
X147409000Y-120701900I0J-62500D01*
G01*
X147409000Y-120826900D01*
G75*
G02*
X147346500Y-120889400I-62500J0D01*
G01*
X146696500Y-120889400D01*
G75*
G02*
X146634000Y-120826900I0J62500D01*
G01*
G37*
G04 #@! TD.AperFunction*
G04 #@! TA.AperFunction,SMDPad,CuDef*
G36*
G01*
X146159000Y-120351900D02*
X146159000Y-119701900D01*
G75*
G02*
X146221500Y-119639400I62500J0D01*
G01*
X146346500Y-119639400D01*
G75*
G02*
X146409000Y-119701900I0J-62500D01*
G01*
X146409000Y-120351900D01*
G75*
G02*
X146346500Y-120414400I-62500J0D01*
G01*
X146221500Y-120414400D01*
G75*
G02*
X146159000Y-120351900I0J62500D01*
G01*
G37*
G04 #@! TD.AperFunction*
G04 #@! TA.AperFunction,SMDPad,CuDef*
G36*
G01*
X145659000Y-120351900D02*
X145659000Y-119701900D01*
G75*
G02*
X145721500Y-119639400I62500J0D01*
G01*
X145846500Y-119639400D01*
G75*
G02*
X145909000Y-119701900I0J-62500D01*
G01*
X145909000Y-120351900D01*
G75*
G02*
X145846500Y-120414400I-62500J0D01*
G01*
X145721500Y-120414400D01*
G75*
G02*
X145659000Y-120351900I0J62500D01*
G01*
G37*
G04 #@! TD.AperFunction*
G04 #@! TA.AperFunction,SMDPad,CuDef*
G36*
G01*
X145159000Y-120351900D02*
X145159000Y-119701900D01*
G75*
G02*
X145221500Y-119639400I62500J0D01*
G01*
X145346500Y-119639400D01*
G75*
G02*
X145409000Y-119701900I0J-62500D01*
G01*
X145409000Y-120351900D01*
G75*
G02*
X145346500Y-120414400I-62500J0D01*
G01*
X145221500Y-120414400D01*
G75*
G02*
X145159000Y-120351900I0J62500D01*
G01*
G37*
G04 #@! TD.AperFunction*
G04 #@! TA.AperFunction,SMDPad,CuDef*
G36*
G01*
X144659000Y-120351900D02*
X144659000Y-119701900D01*
G75*
G02*
X144721500Y-119639400I62500J0D01*
G01*
X144846500Y-119639400D01*
G75*
G02*
X144909000Y-119701900I0J-62500D01*
G01*
X144909000Y-120351900D01*
G75*
G02*
X144846500Y-120414400I-62500J0D01*
G01*
X144721500Y-120414400D01*
G75*
G02*
X144659000Y-120351900I0J62500D01*
G01*
G37*
G04 #@! TD.AperFunction*
G04 #@! TA.AperFunction,SMDPad,CuDef*
G36*
G01*
X144159000Y-120351900D02*
X144159000Y-119701900D01*
G75*
G02*
X144221500Y-119639400I62500J0D01*
G01*
X144346500Y-119639400D01*
G75*
G02*
X144409000Y-119701900I0J-62500D01*
G01*
X144409000Y-120351900D01*
G75*
G02*
X144346500Y-120414400I-62500J0D01*
G01*
X144221500Y-120414400D01*
G75*
G02*
X144159000Y-120351900I0J62500D01*
G01*
G37*
G04 #@! TD.AperFunction*
G04 #@! TA.AperFunction,SMDPad,CuDef*
G36*
G01*
X143659000Y-120351900D02*
X143659000Y-119701900D01*
G75*
G02*
X143721500Y-119639400I62500J0D01*
G01*
X143846500Y-119639400D01*
G75*
G02*
X143909000Y-119701900I0J-62500D01*
G01*
X143909000Y-120351900D01*
G75*
G02*
X143846500Y-120414400I-62500J0D01*
G01*
X143721500Y-120414400D01*
G75*
G02*
X143659000Y-120351900I0J62500D01*
G01*
G37*
G04 #@! TD.AperFunction*
G04 #@! TA.AperFunction,SMDPad,CuDef*
G36*
G01*
X142659000Y-120826900D02*
X142659000Y-120701900D01*
G75*
G02*
X142721500Y-120639400I62500J0D01*
G01*
X143371500Y-120639400D01*
G75*
G02*
X143434000Y-120701900I0J-62500D01*
G01*
X143434000Y-120826900D01*
G75*
G02*
X143371500Y-120889400I-62500J0D01*
G01*
X142721500Y-120889400D01*
G75*
G02*
X142659000Y-120826900I0J62500D01*
G01*
G37*
G04 #@! TD.AperFunction*
G04 #@! TA.AperFunction,SMDPad,CuDef*
G36*
G01*
X142659000Y-121326900D02*
X142659000Y-121201900D01*
G75*
G02*
X142721500Y-121139400I62500J0D01*
G01*
X143371500Y-121139400D01*
G75*
G02*
X143434000Y-121201900I0J-62500D01*
G01*
X143434000Y-121326900D01*
G75*
G02*
X143371500Y-121389400I-62500J0D01*
G01*
X142721500Y-121389400D01*
G75*
G02*
X142659000Y-121326900I0J62500D01*
G01*
G37*
G04 #@! TD.AperFunction*
G04 #@! TA.AperFunction,SMDPad,CuDef*
G36*
G01*
X142659000Y-121826900D02*
X142659000Y-121701900D01*
G75*
G02*
X142721500Y-121639400I62500J0D01*
G01*
X143371500Y-121639400D01*
G75*
G02*
X143434000Y-121701900I0J-62500D01*
G01*
X143434000Y-121826900D01*
G75*
G02*
X143371500Y-121889400I-62500J0D01*
G01*
X142721500Y-121889400D01*
G75*
G02*
X142659000Y-121826900I0J62500D01*
G01*
G37*
G04 #@! TD.AperFunction*
G04 #@! TA.AperFunction,SMDPad,CuDef*
G36*
G01*
X142659000Y-122326900D02*
X142659000Y-122201900D01*
G75*
G02*
X142721500Y-122139400I62500J0D01*
G01*
X143371500Y-122139400D01*
G75*
G02*
X143434000Y-122201900I0J-62500D01*
G01*
X143434000Y-122326900D01*
G75*
G02*
X143371500Y-122389400I-62500J0D01*
G01*
X142721500Y-122389400D01*
G75*
G02*
X142659000Y-122326900I0J62500D01*
G01*
G37*
G04 #@! TD.AperFunction*
G04 #@! TA.AperFunction,SMDPad,CuDef*
G36*
G01*
X142659000Y-122826900D02*
X142659000Y-122701900D01*
G75*
G02*
X142721500Y-122639400I62500J0D01*
G01*
X143371500Y-122639400D01*
G75*
G02*
X143434000Y-122701900I0J-62500D01*
G01*
X143434000Y-122826900D01*
G75*
G02*
X143371500Y-122889400I-62500J0D01*
G01*
X142721500Y-122889400D01*
G75*
G02*
X142659000Y-122826900I0J62500D01*
G01*
G37*
G04 #@! TD.AperFunction*
G04 #@! TA.AperFunction,SMDPad,CuDef*
G36*
G01*
X142659000Y-123326900D02*
X142659000Y-123201900D01*
G75*
G02*
X142721500Y-123139400I62500J0D01*
G01*
X143371500Y-123139400D01*
G75*
G02*
X143434000Y-123201900I0J-62500D01*
G01*
X143434000Y-123326900D01*
G75*
G02*
X143371500Y-123389400I-62500J0D01*
G01*
X142721500Y-123389400D01*
G75*
G02*
X142659000Y-123326900I0J62500D01*
G01*
G37*
G04 #@! TD.AperFunction*
X141986000Y-157530800D03*
G04 #@! TA.AperFunction,SMDPad,CuDef*
G36*
G01*
X140611000Y-159843300D02*
X140611000Y-159193300D01*
G75*
G02*
X140673500Y-159130800I62500J0D01*
G01*
X140798500Y-159130800D01*
G75*
G02*
X140861000Y-159193300I0J-62500D01*
G01*
X140861000Y-159843300D01*
G75*
G02*
X140798500Y-159905800I-62500J0D01*
G01*
X140673500Y-159905800D01*
G75*
G02*
X140611000Y-159843300I0J62500D01*
G01*
G37*
G04 #@! TD.AperFunction*
G04 #@! TA.AperFunction,SMDPad,CuDef*
G36*
G01*
X141111000Y-159843300D02*
X141111000Y-159193300D01*
G75*
G02*
X141173500Y-159130800I62500J0D01*
G01*
X141298500Y-159130800D01*
G75*
G02*
X141361000Y-159193300I0J-62500D01*
G01*
X141361000Y-159843300D01*
G75*
G02*
X141298500Y-159905800I-62500J0D01*
G01*
X141173500Y-159905800D01*
G75*
G02*
X141111000Y-159843300I0J62500D01*
G01*
G37*
G04 #@! TD.AperFunction*
G04 #@! TA.AperFunction,SMDPad,CuDef*
G36*
G01*
X141611000Y-159843300D02*
X141611000Y-159193300D01*
G75*
G02*
X141673500Y-159130800I62500J0D01*
G01*
X141798500Y-159130800D01*
G75*
G02*
X141861000Y-159193300I0J-62500D01*
G01*
X141861000Y-159843300D01*
G75*
G02*
X141798500Y-159905800I-62500J0D01*
G01*
X141673500Y-159905800D01*
G75*
G02*
X141611000Y-159843300I0J62500D01*
G01*
G37*
G04 #@! TD.AperFunction*
G04 #@! TA.AperFunction,SMDPad,CuDef*
G36*
G01*
X142111000Y-159843300D02*
X142111000Y-159193300D01*
G75*
G02*
X142173500Y-159130800I62500J0D01*
G01*
X142298500Y-159130800D01*
G75*
G02*
X142361000Y-159193300I0J-62500D01*
G01*
X142361000Y-159843300D01*
G75*
G02*
X142298500Y-159905800I-62500J0D01*
G01*
X142173500Y-159905800D01*
G75*
G02*
X142111000Y-159843300I0J62500D01*
G01*
G37*
G04 #@! TD.AperFunction*
G04 #@! TA.AperFunction,SMDPad,CuDef*
G36*
G01*
X142611000Y-159843300D02*
X142611000Y-159193300D01*
G75*
G02*
X142673500Y-159130800I62500J0D01*
G01*
X142798500Y-159130800D01*
G75*
G02*
X142861000Y-159193300I0J-62500D01*
G01*
X142861000Y-159843300D01*
G75*
G02*
X142798500Y-159905800I-62500J0D01*
G01*
X142673500Y-159905800D01*
G75*
G02*
X142611000Y-159843300I0J62500D01*
G01*
G37*
G04 #@! TD.AperFunction*
G04 #@! TA.AperFunction,SMDPad,CuDef*
G36*
G01*
X143111000Y-159843300D02*
X143111000Y-159193300D01*
G75*
G02*
X143173500Y-159130800I62500J0D01*
G01*
X143298500Y-159130800D01*
G75*
G02*
X143361000Y-159193300I0J-62500D01*
G01*
X143361000Y-159843300D01*
G75*
G02*
X143298500Y-159905800I-62500J0D01*
G01*
X143173500Y-159905800D01*
G75*
G02*
X143111000Y-159843300I0J62500D01*
G01*
G37*
G04 #@! TD.AperFunction*
G04 #@! TA.AperFunction,SMDPad,CuDef*
G36*
G01*
X143586000Y-158843300D02*
X143586000Y-158718300D01*
G75*
G02*
X143648500Y-158655800I62500J0D01*
G01*
X144298500Y-158655800D01*
G75*
G02*
X144361000Y-158718300I0J-62500D01*
G01*
X144361000Y-158843300D01*
G75*
G02*
X144298500Y-158905800I-62500J0D01*
G01*
X143648500Y-158905800D01*
G75*
G02*
X143586000Y-158843300I0J62500D01*
G01*
G37*
G04 #@! TD.AperFunction*
G04 #@! TA.AperFunction,SMDPad,CuDef*
G36*
G01*
X143586000Y-158343300D02*
X143586000Y-158218300D01*
G75*
G02*
X143648500Y-158155800I62500J0D01*
G01*
X144298500Y-158155800D01*
G75*
G02*
X144361000Y-158218300I0J-62500D01*
G01*
X144361000Y-158343300D01*
G75*
G02*
X144298500Y-158405800I-62500J0D01*
G01*
X143648500Y-158405800D01*
G75*
G02*
X143586000Y-158343300I0J62500D01*
G01*
G37*
G04 #@! TD.AperFunction*
G04 #@! TA.AperFunction,SMDPad,CuDef*
G36*
G01*
X143586000Y-157843300D02*
X143586000Y-157718300D01*
G75*
G02*
X143648500Y-157655800I62500J0D01*
G01*
X144298500Y-157655800D01*
G75*
G02*
X144361000Y-157718300I0J-62500D01*
G01*
X144361000Y-157843300D01*
G75*
G02*
X144298500Y-157905800I-62500J0D01*
G01*
X143648500Y-157905800D01*
G75*
G02*
X143586000Y-157843300I0J62500D01*
G01*
G37*
G04 #@! TD.AperFunction*
G04 #@! TA.AperFunction,SMDPad,CuDef*
G36*
G01*
X143586000Y-157343300D02*
X143586000Y-157218300D01*
G75*
G02*
X143648500Y-157155800I62500J0D01*
G01*
X144298500Y-157155800D01*
G75*
G02*
X144361000Y-157218300I0J-62500D01*
G01*
X144361000Y-157343300D01*
G75*
G02*
X144298500Y-157405800I-62500J0D01*
G01*
X143648500Y-157405800D01*
G75*
G02*
X143586000Y-157343300I0J62500D01*
G01*
G37*
G04 #@! TD.AperFunction*
G04 #@! TA.AperFunction,SMDPad,CuDef*
G36*
G01*
X143586000Y-156843300D02*
X143586000Y-156718300D01*
G75*
G02*
X143648500Y-156655800I62500J0D01*
G01*
X144298500Y-156655800D01*
G75*
G02*
X144361000Y-156718300I0J-62500D01*
G01*
X144361000Y-156843300D01*
G75*
G02*
X144298500Y-156905800I-62500J0D01*
G01*
X143648500Y-156905800D01*
G75*
G02*
X143586000Y-156843300I0J62500D01*
G01*
G37*
G04 #@! TD.AperFunction*
G04 #@! TA.AperFunction,SMDPad,CuDef*
G36*
G01*
X143586000Y-156343300D02*
X143586000Y-156218300D01*
G75*
G02*
X143648500Y-156155800I62500J0D01*
G01*
X144298500Y-156155800D01*
G75*
G02*
X144361000Y-156218300I0J-62500D01*
G01*
X144361000Y-156343300D01*
G75*
G02*
X144298500Y-156405800I-62500J0D01*
G01*
X143648500Y-156405800D01*
G75*
G02*
X143586000Y-156343300I0J62500D01*
G01*
G37*
G04 #@! TD.AperFunction*
G04 #@! TA.AperFunction,SMDPad,CuDef*
G36*
G01*
X143111000Y-155868300D02*
X143111000Y-155218300D01*
G75*
G02*
X143173500Y-155155800I62500J0D01*
G01*
X143298500Y-155155800D01*
G75*
G02*
X143361000Y-155218300I0J-62500D01*
G01*
X143361000Y-155868300D01*
G75*
G02*
X143298500Y-155930800I-62500J0D01*
G01*
X143173500Y-155930800D01*
G75*
G02*
X143111000Y-155868300I0J62500D01*
G01*
G37*
G04 #@! TD.AperFunction*
G04 #@! TA.AperFunction,SMDPad,CuDef*
G36*
G01*
X142611000Y-155868300D02*
X142611000Y-155218300D01*
G75*
G02*
X142673500Y-155155800I62500J0D01*
G01*
X142798500Y-155155800D01*
G75*
G02*
X142861000Y-155218300I0J-62500D01*
G01*
X142861000Y-155868300D01*
G75*
G02*
X142798500Y-155930800I-62500J0D01*
G01*
X142673500Y-155930800D01*
G75*
G02*
X142611000Y-155868300I0J62500D01*
G01*
G37*
G04 #@! TD.AperFunction*
G04 #@! TA.AperFunction,SMDPad,CuDef*
G36*
G01*
X142111000Y-155868300D02*
X142111000Y-155218300D01*
G75*
G02*
X142173500Y-155155800I62500J0D01*
G01*
X142298500Y-155155800D01*
G75*
G02*
X142361000Y-155218300I0J-62500D01*
G01*
X142361000Y-155868300D01*
G75*
G02*
X142298500Y-155930800I-62500J0D01*
G01*
X142173500Y-155930800D01*
G75*
G02*
X142111000Y-155868300I0J62500D01*
G01*
G37*
G04 #@! TD.AperFunction*
G04 #@! TA.AperFunction,SMDPad,CuDef*
G36*
G01*
X141611000Y-155868300D02*
X141611000Y-155218300D01*
G75*
G02*
X141673500Y-155155800I62500J0D01*
G01*
X141798500Y-155155800D01*
G75*
G02*
X141861000Y-155218300I0J-62500D01*
G01*
X141861000Y-155868300D01*
G75*
G02*
X141798500Y-155930800I-62500J0D01*
G01*
X141673500Y-155930800D01*
G75*
G02*
X141611000Y-155868300I0J62500D01*
G01*
G37*
G04 #@! TD.AperFunction*
G04 #@! TA.AperFunction,SMDPad,CuDef*
G36*
G01*
X141111000Y-155868300D02*
X141111000Y-155218300D01*
G75*
G02*
X141173500Y-155155800I62500J0D01*
G01*
X141298500Y-155155800D01*
G75*
G02*
X141361000Y-155218300I0J-62500D01*
G01*
X141361000Y-155868300D01*
G75*
G02*
X141298500Y-155930800I-62500J0D01*
G01*
X141173500Y-155930800D01*
G75*
G02*
X141111000Y-155868300I0J62500D01*
G01*
G37*
G04 #@! TD.AperFunction*
G04 #@! TA.AperFunction,SMDPad,CuDef*
G36*
G01*
X140611000Y-155868300D02*
X140611000Y-155218300D01*
G75*
G02*
X140673500Y-155155800I62500J0D01*
G01*
X140798500Y-155155800D01*
G75*
G02*
X140861000Y-155218300I0J-62500D01*
G01*
X140861000Y-155868300D01*
G75*
G02*
X140798500Y-155930800I-62500J0D01*
G01*
X140673500Y-155930800D01*
G75*
G02*
X140611000Y-155868300I0J62500D01*
G01*
G37*
G04 #@! TD.AperFunction*
G04 #@! TA.AperFunction,SMDPad,CuDef*
G36*
G01*
X139611000Y-156343300D02*
X139611000Y-156218300D01*
G75*
G02*
X139673500Y-156155800I62500J0D01*
G01*
X140323500Y-156155800D01*
G75*
G02*
X140386000Y-156218300I0J-62500D01*
G01*
X140386000Y-156343300D01*
G75*
G02*
X140323500Y-156405800I-62500J0D01*
G01*
X139673500Y-156405800D01*
G75*
G02*
X139611000Y-156343300I0J62500D01*
G01*
G37*
G04 #@! TD.AperFunction*
G04 #@! TA.AperFunction,SMDPad,CuDef*
G36*
G01*
X139611000Y-156843300D02*
X139611000Y-156718300D01*
G75*
G02*
X139673500Y-156655800I62500J0D01*
G01*
X140323500Y-156655800D01*
G75*
G02*
X140386000Y-156718300I0J-62500D01*
G01*
X140386000Y-156843300D01*
G75*
G02*
X140323500Y-156905800I-62500J0D01*
G01*
X139673500Y-156905800D01*
G75*
G02*
X139611000Y-156843300I0J62500D01*
G01*
G37*
G04 #@! TD.AperFunction*
G04 #@! TA.AperFunction,SMDPad,CuDef*
G36*
G01*
X139611000Y-157343300D02*
X139611000Y-157218300D01*
G75*
G02*
X139673500Y-157155800I62500J0D01*
G01*
X140323500Y-157155800D01*
G75*
G02*
X140386000Y-157218300I0J-62500D01*
G01*
X140386000Y-157343300D01*
G75*
G02*
X140323500Y-157405800I-62500J0D01*
G01*
X139673500Y-157405800D01*
G75*
G02*
X139611000Y-157343300I0J62500D01*
G01*
G37*
G04 #@! TD.AperFunction*
G04 #@! TA.AperFunction,SMDPad,CuDef*
G36*
G01*
X139611000Y-157843300D02*
X139611000Y-157718300D01*
G75*
G02*
X139673500Y-157655800I62500J0D01*
G01*
X140323500Y-157655800D01*
G75*
G02*
X140386000Y-157718300I0J-62500D01*
G01*
X140386000Y-157843300D01*
G75*
G02*
X140323500Y-157905800I-62500J0D01*
G01*
X139673500Y-157905800D01*
G75*
G02*
X139611000Y-157843300I0J62500D01*
G01*
G37*
G04 #@! TD.AperFunction*
G04 #@! TA.AperFunction,SMDPad,CuDef*
G36*
G01*
X139611000Y-158343300D02*
X139611000Y-158218300D01*
G75*
G02*
X139673500Y-158155800I62500J0D01*
G01*
X140323500Y-158155800D01*
G75*
G02*
X140386000Y-158218300I0J-62500D01*
G01*
X140386000Y-158343300D01*
G75*
G02*
X140323500Y-158405800I-62500J0D01*
G01*
X139673500Y-158405800D01*
G75*
G02*
X139611000Y-158343300I0J62500D01*
G01*
G37*
G04 #@! TD.AperFunction*
G04 #@! TA.AperFunction,SMDPad,CuDef*
G36*
G01*
X139611000Y-158843300D02*
X139611000Y-158718300D01*
G75*
G02*
X139673500Y-158655800I62500J0D01*
G01*
X140323500Y-158655800D01*
G75*
G02*
X140386000Y-158718300I0J-62500D01*
G01*
X140386000Y-158843300D01*
G75*
G02*
X140323500Y-158905800I-62500J0D01*
G01*
X139673500Y-158905800D01*
G75*
G02*
X139611000Y-158843300I0J62500D01*
G01*
G37*
G04 #@! TD.AperFunction*
G04 #@! TA.AperFunction,ComponentPad*
G36*
G01*
X221711858Y-107409229D02*
X221711858Y-107409229D01*
G75*
G02*
X221503119Y-108593048I-696279J-487540D01*
G01*
X221503119Y-108593048D01*
G75*
G02*
X220319300Y-108384309I-487540J696279D01*
G01*
X220319300Y-108384309D01*
G75*
G02*
X220528039Y-107200490I696279J487540D01*
G01*
X220528039Y-107200490D01*
G75*
G02*
X221711858Y-107409229I487540J-696279D01*
G01*
G37*
G04 #@! TD.AperFunction*
G04 #@! TA.AperFunction,ComponentPad*
G36*
G01*
X223168742Y-109489875D02*
X223168742Y-109489875D01*
G75*
G02*
X222960003Y-110673694I-696279J-487540D01*
G01*
X222960003Y-110673694D01*
G75*
G02*
X221776184Y-110464955I-487540J696279D01*
G01*
X221776184Y-110464955D01*
G75*
G02*
X221984923Y-109281136I696279J487540D01*
G01*
X221984923Y-109281136D01*
G75*
G02*
X223168742Y-109489875I487540J-696279D01*
G01*
G37*
G04 #@! TD.AperFunction*
G04 #@! TA.AperFunction,ComponentPad*
G36*
G01*
X224625627Y-111570521D02*
X224625627Y-111570521D01*
G75*
G02*
X224416888Y-112754340I-696279J-487540D01*
G01*
X224416888Y-112754340D01*
G75*
G02*
X223233069Y-112545601I-487540J696279D01*
G01*
X223233069Y-112545601D01*
G75*
G02*
X223441808Y-111361782I696279J487540D01*
G01*
X223441808Y-111361782D01*
G75*
G02*
X224625627Y-111570521I487540J-696279D01*
G01*
G37*
G04 #@! TD.AperFunction*
G04 #@! TA.AperFunction,ComponentPad*
G36*
G01*
X226082511Y-113651168D02*
X226082511Y-113651168D01*
G75*
G02*
X225873772Y-114834987I-696279J-487540D01*
G01*
X225873772Y-114834987D01*
G75*
G02*
X224689953Y-114626248I-487540J696279D01*
G01*
X224689953Y-114626248D01*
G75*
G02*
X224898692Y-113442429I696279J487540D01*
G01*
X224898692Y-113442429D01*
G75*
G02*
X226082511Y-113651168I487540J-696279D01*
G01*
G37*
G04 #@! TD.AperFunction*
G04 #@! TA.AperFunction,ComponentPad*
G36*
G01*
X227539395Y-115731814D02*
X227539395Y-115731814D01*
G75*
G02*
X227330656Y-116915633I-696279J-487540D01*
G01*
X227330656Y-116915633D01*
G75*
G02*
X226146837Y-116706894I-487540J696279D01*
G01*
X226146837Y-116706894D01*
G75*
G02*
X226355576Y-115523075I696279J487540D01*
G01*
X226355576Y-115523075D01*
G75*
G02*
X227539395Y-115731814I487540J-696279D01*
G01*
G37*
G04 #@! TD.AperFunction*
G04 #@! TA.AperFunction,ComponentPad*
D15*
G36*
X228508739Y-117116181D02*
G01*
X229483819Y-118508739D01*
X228091261Y-119483819D01*
X227116181Y-118091261D01*
X228508739Y-117116181D01*
G37*
G04 #@! TD.AperFunction*
G04 #@! TA.AperFunction,SMDPad,CuDef*
G36*
G01*
X166224798Y-129482800D02*
X167124802Y-129482800D01*
G75*
G02*
X167374800Y-129732798I0J-249998D01*
G01*
X167374800Y-130257802D01*
G75*
G02*
X167124802Y-130507800I-249998J0D01*
G01*
X166224798Y-130507800D01*
G75*
G02*
X165974800Y-130257802I0J249998D01*
G01*
X165974800Y-129732798D01*
G75*
G02*
X166224798Y-129482800I249998J0D01*
G01*
G37*
G04 #@! TD.AperFunction*
G04 #@! TA.AperFunction,SMDPad,CuDef*
G36*
G01*
X166224798Y-127657800D02*
X167124802Y-127657800D01*
G75*
G02*
X167374800Y-127907798I0J-249998D01*
G01*
X167374800Y-128432802D01*
G75*
G02*
X167124802Y-128682800I-249998J0D01*
G01*
X166224798Y-128682800D01*
G75*
G02*
X165974800Y-128432802I0J249998D01*
G01*
X165974800Y-127907798D01*
G75*
G02*
X166224798Y-127657800I249998J0D01*
G01*
G37*
G04 #@! TD.AperFunction*
G04 #@! TA.AperFunction,SMDPad,CuDef*
G36*
G01*
X174409600Y-124513401D02*
X174409600Y-121663399D01*
G75*
G02*
X174659599Y-121413400I249999J0D01*
G01*
X175384601Y-121413400D01*
G75*
G02*
X175634600Y-121663399I0J-249999D01*
G01*
X175634600Y-124513401D01*
G75*
G02*
X175384601Y-124763400I-249999J0D01*
G01*
X174659599Y-124763400D01*
G75*
G02*
X174409600Y-124513401I0J249999D01*
G01*
G37*
G04 #@! TD.AperFunction*
G04 #@! TA.AperFunction,SMDPad,CuDef*
G36*
G01*
X168484600Y-124513401D02*
X168484600Y-121663399D01*
G75*
G02*
X168734599Y-121413400I249999J0D01*
G01*
X169459601Y-121413400D01*
G75*
G02*
X169709600Y-121663399I0J-249999D01*
G01*
X169709600Y-124513401D01*
G75*
G02*
X169459601Y-124763400I-249999J0D01*
G01*
X168734599Y-124763400D01*
G75*
G02*
X168484600Y-124513401I0J249999D01*
G01*
G37*
G04 #@! TD.AperFunction*
G04 #@! TA.AperFunction,SMDPad,CuDef*
G36*
G01*
X177523600Y-112133400D02*
X177523600Y-111183400D01*
G75*
G02*
X177773600Y-110933400I250000J0D01*
G01*
X178273600Y-110933400D01*
G75*
G02*
X178523600Y-111183400I0J-250000D01*
G01*
X178523600Y-112133400D01*
G75*
G02*
X178273600Y-112383400I-250000J0D01*
G01*
X177773600Y-112383400D01*
G75*
G02*
X177523600Y-112133400I0J250000D01*
G01*
G37*
G04 #@! TD.AperFunction*
G04 #@! TA.AperFunction,SMDPad,CuDef*
G36*
G01*
X175623600Y-112133400D02*
X175623600Y-111183400D01*
G75*
G02*
X175873600Y-110933400I250000J0D01*
G01*
X176373600Y-110933400D01*
G75*
G02*
X176623600Y-111183400I0J-250000D01*
G01*
X176623600Y-112133400D01*
G75*
G02*
X176373600Y-112383400I-250000J0D01*
G01*
X175873600Y-112383400D01*
G75*
G02*
X175623600Y-112133400I0J250000D01*
G01*
G37*
G04 #@! TD.AperFunction*
G04 #@! TA.AperFunction,SMDPad,CuDef*
G36*
G01*
X176750799Y-123783400D02*
X178950801Y-123783400D01*
G75*
G02*
X179200800Y-124033399I0J-249999D01*
G01*
X179200800Y-124683401D01*
G75*
G02*
X178950801Y-124933400I-249999J0D01*
G01*
X176750799Y-124933400D01*
G75*
G02*
X176500800Y-124683401I0J249999D01*
G01*
X176500800Y-124033399D01*
G75*
G02*
X176750799Y-123783400I249999J0D01*
G01*
G37*
G04 #@! TD.AperFunction*
G04 #@! TA.AperFunction,SMDPad,CuDef*
G36*
G01*
X176750799Y-120833400D02*
X178950801Y-120833400D01*
G75*
G02*
X179200800Y-121083399I0J-249999D01*
G01*
X179200800Y-121733401D01*
G75*
G02*
X178950801Y-121983400I-249999J0D01*
G01*
X176750799Y-121983400D01*
G75*
G02*
X176500800Y-121733401I0J249999D01*
G01*
X176500800Y-121083399D01*
G75*
G02*
X176750799Y-120833400I249999J0D01*
G01*
G37*
G04 #@! TD.AperFunction*
G04 #@! TA.AperFunction,SMDPad,CuDef*
G36*
G01*
X178568400Y-109379598D02*
X178568400Y-110279602D01*
G75*
G02*
X178318402Y-110529600I-249998J0D01*
G01*
X177793398Y-110529600D01*
G75*
G02*
X177543400Y-110279602I0J249998D01*
G01*
X177543400Y-109379598D01*
G75*
G02*
X177793398Y-109129600I249998J0D01*
G01*
X178318402Y-109129600D01*
G75*
G02*
X178568400Y-109379598I0J-249998D01*
G01*
G37*
G04 #@! TD.AperFunction*
G04 #@! TA.AperFunction,SMDPad,CuDef*
G36*
G01*
X180393400Y-109379598D02*
X180393400Y-110279602D01*
G75*
G02*
X180143402Y-110529600I-249998J0D01*
G01*
X179618398Y-110529600D01*
G75*
G02*
X179368400Y-110279602I0J249998D01*
G01*
X179368400Y-109379598D01*
G75*
G02*
X179618398Y-109129600I249998J0D01*
G01*
X180143402Y-109129600D01*
G75*
G02*
X180393400Y-109379598I0J-249998D01*
G01*
G37*
G04 #@! TD.AperFunction*
D12*
X179623600Y-119430800D03*
D13*
X176123600Y-119430800D03*
D16*
X179527200Y-114655600D03*
D17*
X178527200Y-115580600D03*
X179027200Y-115580600D03*
X179527200Y-115580600D03*
X180027200Y-115580600D03*
X180527200Y-115580600D03*
X180527200Y-113730600D03*
X180027200Y-113730600D03*
X179527200Y-113730600D03*
X179027200Y-113730600D03*
X178527200Y-113730600D03*
G04 #@! TA.AperFunction,SMDPad,CuDef*
G36*
G01*
X217950002Y-114212500D02*
X217049998Y-114212500D01*
G75*
G02*
X216800000Y-113962502I0J249998D01*
G01*
X216800000Y-113437498D01*
G75*
G02*
X217049998Y-113187500I249998J0D01*
G01*
X217950002Y-113187500D01*
G75*
G02*
X218200000Y-113437498I0J-249998D01*
G01*
X218200000Y-113962502D01*
G75*
G02*
X217950002Y-114212500I-249998J0D01*
G01*
G37*
G04 #@! TD.AperFunction*
G04 #@! TA.AperFunction,SMDPad,CuDef*
G36*
G01*
X217950002Y-112387500D02*
X217049998Y-112387500D01*
G75*
G02*
X216800000Y-112137502I0J249998D01*
G01*
X216800000Y-111612498D01*
G75*
G02*
X217049998Y-111362500I249998J0D01*
G01*
X217950002Y-111362500D01*
G75*
G02*
X218200000Y-111612498I0J-249998D01*
G01*
X218200000Y-112137502D01*
G75*
G02*
X217950002Y-112387500I-249998J0D01*
G01*
G37*
G04 #@! TD.AperFunction*
G04 #@! TA.AperFunction,SMDPad,CuDef*
G36*
G01*
X220375000Y-114300000D02*
X219425000Y-114300000D01*
G75*
G02*
X219175000Y-114050000I0J250000D01*
G01*
X219175000Y-113550000D01*
G75*
G02*
X219425000Y-113300000I250000J0D01*
G01*
X220375000Y-113300000D01*
G75*
G02*
X220625000Y-113550000I0J-250000D01*
G01*
X220625000Y-114050000D01*
G75*
G02*
X220375000Y-114300000I-250000J0D01*
G01*
G37*
G04 #@! TD.AperFunction*
G04 #@! TA.AperFunction,SMDPad,CuDef*
G36*
G01*
X220375000Y-112400000D02*
X219425000Y-112400000D01*
G75*
G02*
X219175000Y-112150000I0J250000D01*
G01*
X219175000Y-111650000D01*
G75*
G02*
X219425000Y-111400000I250000J0D01*
G01*
X220375000Y-111400000D01*
G75*
G02*
X220625000Y-111650000I0J-250000D01*
G01*
X220625000Y-112150000D01*
G75*
G02*
X220375000Y-112400000I-250000J0D01*
G01*
G37*
G04 #@! TD.AperFunction*
D18*
X184600000Y-90000000D03*
X184600000Y-92000000D03*
X182600000Y-90000000D03*
X182600000Y-92000000D03*
X180600000Y-90000000D03*
X180600000Y-92000000D03*
X178600000Y-90000000D03*
D19*
X178600000Y-92000000D03*
D11*
X219506800Y-179730400D03*
G04 #@! TA.AperFunction,ComponentPad*
G36*
G01*
X137833235Y-113574057D02*
X138212761Y-113815841D01*
G75*
G02*
X138396416Y-114644256I-322380J-506035D01*
G01*
X138396416Y-114644256D01*
G75*
G02*
X137568001Y-114827911I-506035J322380D01*
G01*
X137188475Y-114586127D01*
G75*
G02*
X137004820Y-113757712I322380J506035D01*
G01*
X137004820Y-113757712D01*
G75*
G02*
X137833235Y-113574057I506035J-322380D01*
G01*
G37*
G04 #@! TD.AperFunction*
G04 #@! TA.AperFunction,ComponentPad*
G36*
G01*
X138907834Y-111887274D02*
X139287360Y-112129058D01*
G75*
G02*
X139471015Y-112957473I-322380J-506035D01*
G01*
X139471015Y-112957473D01*
G75*
G02*
X138642600Y-113141128I-506035J322380D01*
G01*
X138263074Y-112899344D01*
G75*
G02*
X138079419Y-112070929I322380J506035D01*
G01*
X138079419Y-112070929D01*
G75*
G02*
X138907834Y-111887274I506035J-322380D01*
G01*
G37*
G04 #@! TD.AperFunction*
G04 #@! TA.AperFunction,ComponentPad*
G36*
G01*
X139520018Y-114648656D02*
X139899544Y-114890440D01*
G75*
G02*
X140083199Y-115718855I-322380J-506035D01*
G01*
X140083199Y-115718855D01*
G75*
G02*
X139254784Y-115902510I-506035J322380D01*
G01*
X138875258Y-115660726D01*
G75*
G02*
X138691603Y-114832311I322380J506035D01*
G01*
X138691603Y-114832311D01*
G75*
G02*
X139520018Y-114648656I506035J-322380D01*
G01*
G37*
G04 #@! TD.AperFunction*
G04 #@! TA.AperFunction,ComponentPad*
G36*
G01*
X140299428Y-112773817D02*
X141269330Y-113391713D01*
G75*
G02*
X141345853Y-113736884I-134324J-210847D01*
G01*
X140969743Y-114327260D01*
G75*
G02*
X140624572Y-114403783I-210847J134324D01*
G01*
X139654670Y-113785887D01*
G75*
G02*
X139578147Y-113440716I134324J210847D01*
G01*
X139954257Y-112850340D01*
G75*
G02*
X140299428Y-112773817I210847J-134324D01*
G01*
G37*
G04 #@! TD.AperFunction*
G04 #@! TA.AperFunction,ComponentPad*
G36*
G01*
X132941131Y-162127556D02*
X133348969Y-161937378D01*
G75*
G02*
X134146325Y-162227592I253571J-543785D01*
G01*
X134146325Y-162227592D01*
G75*
G02*
X133856111Y-163024948I-543785J-253571D01*
G01*
X133448273Y-163215126D01*
G75*
G02*
X132650917Y-162924912I-253571J543785D01*
G01*
X132650917Y-162924912D01*
G75*
G02*
X132941131Y-162127556I543785J253571D01*
G01*
G37*
G04 #@! TD.AperFunction*
G04 #@! TA.AperFunction,ComponentPad*
G36*
G01*
X132095894Y-160314941D02*
X132503732Y-160124763D01*
G75*
G02*
X133301088Y-160414977I253571J-543785D01*
G01*
X133301088Y-160414977D01*
G75*
G02*
X133010874Y-161212333I-543785J-253571D01*
G01*
X132603036Y-161402511D01*
G75*
G02*
X131805680Y-161112297I-253571J543785D01*
G01*
X131805680Y-161112297D01*
G75*
G02*
X132095894Y-160314941I543785J253571D01*
G01*
G37*
G04 #@! TD.AperFunction*
G04 #@! TA.AperFunction,ComponentPad*
G36*
G01*
X134753747Y-161282320D02*
X135161585Y-161092142D01*
G75*
G02*
X135958941Y-161382356I253571J-543785D01*
G01*
X135958941Y-161382356D01*
G75*
G02*
X135668727Y-162179712I-543785J-253571D01*
G01*
X135260889Y-162369890D01*
G75*
G02*
X134463533Y-162079676I-253571J543785D01*
G01*
X134463533Y-162079676D01*
G75*
G02*
X134753747Y-161282320I543785J253571D01*
G01*
G37*
G04 #@! TD.AperFunction*
G04 #@! TA.AperFunction,ComponentPad*
G36*
G01*
X133591301Y-159617621D02*
X134633557Y-159131609D01*
G75*
G02*
X134965787Y-159252531I105654J-226576D01*
G01*
X135261621Y-159886949D01*
G75*
G02*
X135140699Y-160219179I-226576J-105654D01*
G01*
X134098443Y-160705191D01*
G75*
G02*
X133766213Y-160584269I-105654J226576D01*
G01*
X133470379Y-159949851D01*
G75*
G02*
X133591301Y-159617621I226576J105654D01*
G01*
G37*
G04 #@! TD.AperFunction*
G04 #@! TA.AperFunction,ComponentPad*
G36*
G01*
X137160479Y-170227122D02*
X137550191Y-170002122D01*
G75*
G02*
X138369806Y-170221737I300000J-519615D01*
G01*
X138369806Y-170221737D01*
G75*
G02*
X138150191Y-171041352I-519615J-300000D01*
G01*
X137760479Y-171266352D01*
G75*
G02*
X136940864Y-171046737I-300000J519615D01*
G01*
X136940864Y-171046737D01*
G75*
G02*
X137160479Y-170227122I519615J300000D01*
G01*
G37*
G04 #@! TD.AperFunction*
G04 #@! TA.AperFunction,ComponentPad*
G36*
G01*
X136160479Y-168495071D02*
X136550191Y-168270071D01*
G75*
G02*
X137369806Y-168489686I300000J-519615D01*
G01*
X137369806Y-168489686D01*
G75*
G02*
X137150191Y-169309301I-519615J-300000D01*
G01*
X136760479Y-169534301D01*
G75*
G02*
X135940864Y-169314686I-300000J519615D01*
G01*
X135940864Y-169314686D01*
G75*
G02*
X136160479Y-168495071I519615J300000D01*
G01*
G37*
G04 #@! TD.AperFunction*
G04 #@! TA.AperFunction,ComponentPad*
G36*
G01*
X138892530Y-169227122D02*
X139282242Y-169002122D01*
G75*
G02*
X140101857Y-169221737I300000J-519615D01*
G01*
X140101857Y-169221737D01*
G75*
G02*
X139882242Y-170041352I-519615J-300000D01*
G01*
X139492530Y-170266352D01*
G75*
G02*
X138672915Y-170046737I-300000J519615D01*
G01*
X138672915Y-170046737D01*
G75*
G02*
X138892530Y-169227122I519615J300000D01*
G01*
G37*
G04 #@! TD.AperFunction*
G04 #@! TA.AperFunction,ComponentPad*
G36*
G01*
X137589421Y-167670072D02*
X138585352Y-167095071D01*
G75*
G02*
X138926856Y-167186576I124999J-216505D01*
G01*
X139276857Y-167792795D01*
G75*
G02*
X139185352Y-168134300I-216505J-125000D01*
G01*
X138189421Y-168709301D01*
G75*
G02*
X137847916Y-168617795I-125000J216505D01*
G01*
X137497915Y-168011576D01*
G75*
G02*
X137589421Y-167670072I216505J124999D01*
G01*
G37*
G04 #@! TD.AperFunction*
X152095200Y-163271200D03*
X174700000Y-100900000D03*
X169976800Y-161899600D03*
G04 #@! TA.AperFunction,SMDPad,CuDef*
G36*
G01*
X211249600Y-134993400D02*
X211249600Y-134043400D01*
G75*
G02*
X211499600Y-133793400I250000J0D01*
G01*
X211999600Y-133793400D01*
G75*
G02*
X212249600Y-134043400I0J-250000D01*
G01*
X212249600Y-134993400D01*
G75*
G02*
X211999600Y-135243400I-250000J0D01*
G01*
X211499600Y-135243400D01*
G75*
G02*
X211249600Y-134993400I0J250000D01*
G01*
G37*
G04 #@! TD.AperFunction*
G04 #@! TA.AperFunction,SMDPad,CuDef*
G36*
G01*
X213149600Y-134993400D02*
X213149600Y-134043400D01*
G75*
G02*
X213399600Y-133793400I250000J0D01*
G01*
X213899600Y-133793400D01*
G75*
G02*
X214149600Y-134043400I0J-250000D01*
G01*
X214149600Y-134993400D01*
G75*
G02*
X213899600Y-135243400I-250000J0D01*
G01*
X213399600Y-135243400D01*
G75*
G02*
X213149600Y-134993400I0J250000D01*
G01*
G37*
G04 #@! TD.AperFunction*
X183184800Y-112115600D03*
X183083200Y-107137200D03*
G04 #@! TA.AperFunction,ComponentPad*
G36*
G01*
X136435243Y-119507609D02*
X137477499Y-119993621D01*
G75*
G02*
X137598421Y-120325851I-105654J-226576D01*
G01*
X137302587Y-120960269D01*
G75*
G02*
X136970357Y-121081191I-226576J105654D01*
G01*
X135928101Y-120595179D01*
G75*
G02*
X135807179Y-120262949I105654J226576D01*
G01*
X136103013Y-119628531D01*
G75*
G02*
X136435243Y-119507609I226576J-105654D01*
G01*
G37*
G04 #@! TD.AperFunction*
G04 #@! TA.AperFunction,ComponentPad*
G36*
G01*
X135907215Y-121468142D02*
X136315053Y-121658320D01*
G75*
G02*
X136605267Y-122455676I-253571J-543785D01*
G01*
X136605267Y-122455676D01*
G75*
G02*
X135807911Y-122745890I-543785J253571D01*
G01*
X135400073Y-122555712D01*
G75*
G02*
X135109859Y-121758356I253571J543785D01*
G01*
X135109859Y-121758356D01*
G75*
G02*
X135907215Y-121468142I543785J-253571D01*
G01*
G37*
G04 #@! TD.AperFunction*
G04 #@! TA.AperFunction,ComponentPad*
G36*
G01*
X134939836Y-118810289D02*
X135347674Y-119000467D01*
G75*
G02*
X135637888Y-119797823I-253571J-543785D01*
G01*
X135637888Y-119797823D01*
G75*
G02*
X134840532Y-120088037I-543785J253571D01*
G01*
X134432694Y-119897859D01*
G75*
G02*
X134142480Y-119100503I253571J543785D01*
G01*
X134142480Y-119100503D01*
G75*
G02*
X134939836Y-118810289I543785J-253571D01*
G01*
G37*
G04 #@! TD.AperFunction*
G04 #@! TA.AperFunction,ComponentPad*
G36*
G01*
X134094600Y-120622905D02*
X134502438Y-120813083D01*
G75*
G02*
X134792652Y-121610439I-253571J-543785D01*
G01*
X134792652Y-121610439D01*
G75*
G02*
X133995296Y-121900653I-543785J253571D01*
G01*
X133587458Y-121710475D01*
G75*
G02*
X133297244Y-120913119I253571J543785D01*
G01*
X133297244Y-120913119D01*
G75*
G02*
X134094600Y-120622905I543785J-253571D01*
G01*
G37*
G04 #@! TD.AperFunction*
G04 #@! TA.AperFunction,ComponentPad*
G36*
G01*
X142480449Y-107135060D02*
X142825169Y-107424314D01*
G75*
G02*
X142899123Y-108269614I-385673J-459627D01*
G01*
X142899123Y-108269614D01*
G75*
G02*
X142053823Y-108343568I-459627J385673D01*
G01*
X141709103Y-108054314D01*
G75*
G02*
X141635149Y-107209014I385673J459627D01*
G01*
X141635149Y-107209014D01*
G75*
G02*
X142480449Y-107135060I459627J-385673D01*
G01*
G37*
G04 #@! TD.AperFunction*
G04 #@! TA.AperFunction,ComponentPad*
G36*
G01*
X143766024Y-105602971D02*
X144110744Y-105892225D01*
G75*
G02*
X144184698Y-106737525I-385673J-459627D01*
G01*
X144184698Y-106737525D01*
G75*
G02*
X143339398Y-106811479I-459627J385673D01*
G01*
X142994678Y-106522225D01*
G75*
G02*
X142920724Y-105676925I385673J459627D01*
G01*
X142920724Y-105676925D01*
G75*
G02*
X143766024Y-105602971I459627J-385673D01*
G01*
G37*
G04 #@! TD.AperFunction*
G04 #@! TA.AperFunction,ComponentPad*
G36*
G01*
X144012538Y-108420635D02*
X144357258Y-108709889D01*
G75*
G02*
X144431212Y-109555189I-385673J-459627D01*
G01*
X144431212Y-109555189D01*
G75*
G02*
X143585912Y-109629143I-459627J385673D01*
G01*
X143241192Y-109339889D01*
G75*
G02*
X143167238Y-108494589I385673J459627D01*
G01*
X143167238Y-108494589D01*
G75*
G02*
X144012538Y-108420635I459627J-385673D01*
G01*
G37*
G04 #@! TD.AperFunction*
G04 #@! TA.AperFunction,ComponentPad*
G36*
G01*
X145029996Y-106663570D02*
X145910949Y-107402777D01*
G75*
G02*
X145941763Y-107754983I-160696J-191510D01*
G01*
X145491810Y-108291216D01*
G75*
G02*
X145139604Y-108322030I-191510J160696D01*
G01*
X144258651Y-107582823D01*
G75*
G02*
X144227837Y-107230617I160696J191510D01*
G01*
X144677790Y-106694384D01*
G75*
G02*
X145029996Y-106663570I191510J-160696D01*
G01*
G37*
G04 #@! TD.AperFunction*
G04 #@! TA.AperFunction,SMDPad,CuDef*
G36*
G01*
X144462800Y-161866600D02*
X144462800Y-160916600D01*
G75*
G02*
X144712800Y-160666600I250000J0D01*
G01*
X145212800Y-160666600D01*
G75*
G02*
X145462800Y-160916600I0J-250000D01*
G01*
X145462800Y-161866600D01*
G75*
G02*
X145212800Y-162116600I-250000J0D01*
G01*
X144712800Y-162116600D01*
G75*
G02*
X144462800Y-161866600I0J250000D01*
G01*
G37*
G04 #@! TD.AperFunction*
G04 #@! TA.AperFunction,SMDPad,CuDef*
G36*
G01*
X146362800Y-161866600D02*
X146362800Y-160916600D01*
G75*
G02*
X146612800Y-160666600I250000J0D01*
G01*
X147112800Y-160666600D01*
G75*
G02*
X147362800Y-160916600I0J-250000D01*
G01*
X147362800Y-161866600D01*
G75*
G02*
X147112800Y-162116600I-250000J0D01*
G01*
X146612800Y-162116600D01*
G75*
G02*
X146362800Y-161866600I0J250000D01*
G01*
G37*
G04 #@! TD.AperFunction*
D20*
X223766000Y-167491600D03*
X224716000Y-165491600D03*
X222816000Y-165491600D03*
D21*
X150813072Y-184478433D03*
X146921567Y-181213072D03*
X150186928Y-177321567D03*
X154078433Y-180586928D03*
D22*
X150500000Y-180900000D03*
D23*
X232500000Y-137948517D03*
X232000000Y-138748517D03*
X231500000Y-137948517D03*
X231000000Y-138748517D03*
X230500000Y-137948517D03*
X230000000Y-138748517D03*
X229500000Y-137948517D03*
X229000000Y-138748517D03*
X228500000Y-137948517D03*
X228000000Y-138748517D03*
X227500000Y-137948517D03*
X227000000Y-138748517D03*
X226500000Y-137948517D03*
X226000000Y-138748517D03*
X225500000Y-137948517D03*
X225000000Y-138748517D03*
X224500000Y-137948517D03*
X224000000Y-138748517D03*
X223500000Y-137948517D03*
X223000000Y-138748517D03*
X222500000Y-137948517D03*
D24*
X221500000Y-137948517D03*
D25*
X221500000Y-138948517D03*
X222300000Y-139448517D03*
X221500000Y-139948517D03*
X222300000Y-140448517D03*
X221500000Y-140948517D03*
X222300000Y-141448517D03*
X221500000Y-141948517D03*
X222300000Y-142448517D03*
X221500000Y-142948517D03*
X222300000Y-143448517D03*
X221500000Y-143948517D03*
X222300000Y-144448517D03*
X221500000Y-144948517D03*
X222300000Y-145448517D03*
X221500000Y-145948517D03*
D24*
X221500000Y-146948517D03*
D23*
X222500000Y-146948517D03*
X223000000Y-146148517D03*
X223500000Y-146948517D03*
X224000000Y-146148517D03*
X224500000Y-146948517D03*
X225000000Y-146148517D03*
X225500000Y-146948517D03*
X226000000Y-146148517D03*
X226500000Y-146948517D03*
X227000000Y-146148517D03*
X227500000Y-146948517D03*
X228000000Y-146148517D03*
X228500000Y-146948517D03*
X229000000Y-146148517D03*
X229500000Y-146948517D03*
X230000000Y-146148517D03*
X230500000Y-146948517D03*
X231000000Y-146148517D03*
X231500000Y-146948517D03*
X232000000Y-146148517D03*
X232500000Y-146948517D03*
D26*
X199345300Y-125577600D03*
X211220300Y-125577600D03*
D27*
X218600000Y-141600000D03*
X218600000Y-139100000D03*
D28*
X204825600Y-132791200D03*
G04 #@! TA.AperFunction,SMDPad,CuDef*
G36*
G01*
X207700600Y-128978700D02*
X207700600Y-129728700D01*
G75*
G02*
X207638100Y-129791200I-62500J0D01*
G01*
X207513100Y-129791200D01*
G75*
G02*
X207450600Y-129728700I0J62500D01*
G01*
X207450600Y-128978700D01*
G75*
G02*
X207513100Y-128916200I62500J0D01*
G01*
X207638100Y-128916200D01*
G75*
G02*
X207700600Y-128978700I0J-62500D01*
G01*
G37*
G04 #@! TD.AperFunction*
G04 #@! TA.AperFunction,SMDPad,CuDef*
G36*
G01*
X207200600Y-128978700D02*
X207200600Y-129728700D01*
G75*
G02*
X207138100Y-129791200I-62500J0D01*
G01*
X207013100Y-129791200D01*
G75*
G02*
X206950600Y-129728700I0J62500D01*
G01*
X206950600Y-128978700D01*
G75*
G02*
X207013100Y-128916200I62500J0D01*
G01*
X207138100Y-128916200D01*
G75*
G02*
X207200600Y-128978700I0J-62500D01*
G01*
G37*
G04 #@! TD.AperFunction*
G04 #@! TA.AperFunction,SMDPad,CuDef*
G36*
G01*
X206700600Y-128978700D02*
X206700600Y-129728700D01*
G75*
G02*
X206638100Y-129791200I-62500J0D01*
G01*
X206513100Y-129791200D01*
G75*
G02*
X206450600Y-129728700I0J62500D01*
G01*
X206450600Y-128978700D01*
G75*
G02*
X206513100Y-128916200I62500J0D01*
G01*
X206638100Y-128916200D01*
G75*
G02*
X206700600Y-128978700I0J-62500D01*
G01*
G37*
G04 #@! TD.AperFunction*
G04 #@! TA.AperFunction,SMDPad,CuDef*
G36*
G01*
X206200600Y-128978700D02*
X206200600Y-129728700D01*
G75*
G02*
X206138100Y-129791200I-62500J0D01*
G01*
X206013100Y-129791200D01*
G75*
G02*
X205950600Y-129728700I0J62500D01*
G01*
X205950600Y-128978700D01*
G75*
G02*
X206013100Y-128916200I62500J0D01*
G01*
X206138100Y-128916200D01*
G75*
G02*
X206200600Y-128978700I0J-62500D01*
G01*
G37*
G04 #@! TD.AperFunction*
G04 #@! TA.AperFunction,SMDPad,CuDef*
G36*
G01*
X205700600Y-128978700D02*
X205700600Y-129728700D01*
G75*
G02*
X205638100Y-129791200I-62500J0D01*
G01*
X205513100Y-129791200D01*
G75*
G02*
X205450600Y-129728700I0J62500D01*
G01*
X205450600Y-128978700D01*
G75*
G02*
X205513100Y-128916200I62500J0D01*
G01*
X205638100Y-128916200D01*
G75*
G02*
X205700600Y-128978700I0J-62500D01*
G01*
G37*
G04 #@! TD.AperFunction*
G04 #@! TA.AperFunction,SMDPad,CuDef*
G36*
G01*
X205200600Y-128978700D02*
X205200600Y-129728700D01*
G75*
G02*
X205138100Y-129791200I-62500J0D01*
G01*
X205013100Y-129791200D01*
G75*
G02*
X204950600Y-129728700I0J62500D01*
G01*
X204950600Y-128978700D01*
G75*
G02*
X205013100Y-128916200I62500J0D01*
G01*
X205138100Y-128916200D01*
G75*
G02*
X205200600Y-128978700I0J-62500D01*
G01*
G37*
G04 #@! TD.AperFunction*
G04 #@! TA.AperFunction,SMDPad,CuDef*
G36*
G01*
X204700600Y-128978700D02*
X204700600Y-129728700D01*
G75*
G02*
X204638100Y-129791200I-62500J0D01*
G01*
X204513100Y-129791200D01*
G75*
G02*
X204450600Y-129728700I0J62500D01*
G01*
X204450600Y-128978700D01*
G75*
G02*
X204513100Y-128916200I62500J0D01*
G01*
X204638100Y-128916200D01*
G75*
G02*
X204700600Y-128978700I0J-62500D01*
G01*
G37*
G04 #@! TD.AperFunction*
G04 #@! TA.AperFunction,SMDPad,CuDef*
G36*
G01*
X204200600Y-128978700D02*
X204200600Y-129728700D01*
G75*
G02*
X204138100Y-129791200I-62500J0D01*
G01*
X204013100Y-129791200D01*
G75*
G02*
X203950600Y-129728700I0J62500D01*
G01*
X203950600Y-128978700D01*
G75*
G02*
X204013100Y-128916200I62500J0D01*
G01*
X204138100Y-128916200D01*
G75*
G02*
X204200600Y-128978700I0J-62500D01*
G01*
G37*
G04 #@! TD.AperFunction*
G04 #@! TA.AperFunction,SMDPad,CuDef*
G36*
G01*
X203700600Y-128978700D02*
X203700600Y-129728700D01*
G75*
G02*
X203638100Y-129791200I-62500J0D01*
G01*
X203513100Y-129791200D01*
G75*
G02*
X203450600Y-129728700I0J62500D01*
G01*
X203450600Y-128978700D01*
G75*
G02*
X203513100Y-128916200I62500J0D01*
G01*
X203638100Y-128916200D01*
G75*
G02*
X203700600Y-128978700I0J-62500D01*
G01*
G37*
G04 #@! TD.AperFunction*
G04 #@! TA.AperFunction,SMDPad,CuDef*
G36*
G01*
X203200600Y-128978700D02*
X203200600Y-129728700D01*
G75*
G02*
X203138100Y-129791200I-62500J0D01*
G01*
X203013100Y-129791200D01*
G75*
G02*
X202950600Y-129728700I0J62500D01*
G01*
X202950600Y-128978700D01*
G75*
G02*
X203013100Y-128916200I62500J0D01*
G01*
X203138100Y-128916200D01*
G75*
G02*
X203200600Y-128978700I0J-62500D01*
G01*
G37*
G04 #@! TD.AperFunction*
G04 #@! TA.AperFunction,SMDPad,CuDef*
G36*
G01*
X202700600Y-128978700D02*
X202700600Y-129728700D01*
G75*
G02*
X202638100Y-129791200I-62500J0D01*
G01*
X202513100Y-129791200D01*
G75*
G02*
X202450600Y-129728700I0J62500D01*
G01*
X202450600Y-128978700D01*
G75*
G02*
X202513100Y-128916200I62500J0D01*
G01*
X202638100Y-128916200D01*
G75*
G02*
X202700600Y-128978700I0J-62500D01*
G01*
G37*
G04 #@! TD.AperFunction*
G04 #@! TA.AperFunction,SMDPad,CuDef*
G36*
G01*
X202200600Y-128978700D02*
X202200600Y-129728700D01*
G75*
G02*
X202138100Y-129791200I-62500J0D01*
G01*
X202013100Y-129791200D01*
G75*
G02*
X201950600Y-129728700I0J62500D01*
G01*
X201950600Y-128978700D01*
G75*
G02*
X202013100Y-128916200I62500J0D01*
G01*
X202138100Y-128916200D01*
G75*
G02*
X202200600Y-128978700I0J-62500D01*
G01*
G37*
G04 #@! TD.AperFunction*
G04 #@! TA.AperFunction,SMDPad,CuDef*
G36*
G01*
X201825600Y-129978700D02*
X201825600Y-130103700D01*
G75*
G02*
X201763100Y-130166200I-62500J0D01*
G01*
X201013100Y-130166200D01*
G75*
G02*
X200950600Y-130103700I0J62500D01*
G01*
X200950600Y-129978700D01*
G75*
G02*
X201013100Y-129916200I62500J0D01*
G01*
X201763100Y-129916200D01*
G75*
G02*
X201825600Y-129978700I0J-62500D01*
G01*
G37*
G04 #@! TD.AperFunction*
G04 #@! TA.AperFunction,SMDPad,CuDef*
G36*
G01*
X201825600Y-130478700D02*
X201825600Y-130603700D01*
G75*
G02*
X201763100Y-130666200I-62500J0D01*
G01*
X201013100Y-130666200D01*
G75*
G02*
X200950600Y-130603700I0J62500D01*
G01*
X200950600Y-130478700D01*
G75*
G02*
X201013100Y-130416200I62500J0D01*
G01*
X201763100Y-130416200D01*
G75*
G02*
X201825600Y-130478700I0J-62500D01*
G01*
G37*
G04 #@! TD.AperFunction*
G04 #@! TA.AperFunction,SMDPad,CuDef*
G36*
G01*
X201825600Y-130978700D02*
X201825600Y-131103700D01*
G75*
G02*
X201763100Y-131166200I-62500J0D01*
G01*
X201013100Y-131166200D01*
G75*
G02*
X200950600Y-131103700I0J62500D01*
G01*
X200950600Y-130978700D01*
G75*
G02*
X201013100Y-130916200I62500J0D01*
G01*
X201763100Y-130916200D01*
G75*
G02*
X201825600Y-130978700I0J-62500D01*
G01*
G37*
G04 #@! TD.AperFunction*
G04 #@! TA.AperFunction,SMDPad,CuDef*
G36*
G01*
X201825600Y-131478700D02*
X201825600Y-131603700D01*
G75*
G02*
X201763100Y-131666200I-62500J0D01*
G01*
X201013100Y-131666200D01*
G75*
G02*
X200950600Y-131603700I0J62500D01*
G01*
X200950600Y-131478700D01*
G75*
G02*
X201013100Y-131416200I62500J0D01*
G01*
X201763100Y-131416200D01*
G75*
G02*
X201825600Y-131478700I0J-62500D01*
G01*
G37*
G04 #@! TD.AperFunction*
G04 #@! TA.AperFunction,SMDPad,CuDef*
G36*
G01*
X201825600Y-131978700D02*
X201825600Y-132103700D01*
G75*
G02*
X201763100Y-132166200I-62500J0D01*
G01*
X201013100Y-132166200D01*
G75*
G02*
X200950600Y-132103700I0J62500D01*
G01*
X200950600Y-131978700D01*
G75*
G02*
X201013100Y-131916200I62500J0D01*
G01*
X201763100Y-131916200D01*
G75*
G02*
X201825600Y-131978700I0J-62500D01*
G01*
G37*
G04 #@! TD.AperFunction*
G04 #@! TA.AperFunction,SMDPad,CuDef*
G36*
G01*
X201825600Y-132478700D02*
X201825600Y-132603700D01*
G75*
G02*
X201763100Y-132666200I-62500J0D01*
G01*
X201013100Y-132666200D01*
G75*
G02*
X200950600Y-132603700I0J62500D01*
G01*
X200950600Y-132478700D01*
G75*
G02*
X201013100Y-132416200I62500J0D01*
G01*
X201763100Y-132416200D01*
G75*
G02*
X201825600Y-132478700I0J-62500D01*
G01*
G37*
G04 #@! TD.AperFunction*
G04 #@! TA.AperFunction,SMDPad,CuDef*
G36*
G01*
X201825600Y-132978700D02*
X201825600Y-133103700D01*
G75*
G02*
X201763100Y-133166200I-62500J0D01*
G01*
X201013100Y-133166200D01*
G75*
G02*
X200950600Y-133103700I0J62500D01*
G01*
X200950600Y-132978700D01*
G75*
G02*
X201013100Y-132916200I62500J0D01*
G01*
X201763100Y-132916200D01*
G75*
G02*
X201825600Y-132978700I0J-62500D01*
G01*
G37*
G04 #@! TD.AperFunction*
G04 #@! TA.AperFunction,SMDPad,CuDef*
G36*
G01*
X201825600Y-133478700D02*
X201825600Y-133603700D01*
G75*
G02*
X201763100Y-133666200I-62500J0D01*
G01*
X201013100Y-133666200D01*
G75*
G02*
X200950600Y-133603700I0J62500D01*
G01*
X200950600Y-133478700D01*
G75*
G02*
X201013100Y-133416200I62500J0D01*
G01*
X201763100Y-133416200D01*
G75*
G02*
X201825600Y-133478700I0J-62500D01*
G01*
G37*
G04 #@! TD.AperFunction*
G04 #@! TA.AperFunction,SMDPad,CuDef*
G36*
G01*
X201825600Y-133978700D02*
X201825600Y-134103700D01*
G75*
G02*
X201763100Y-134166200I-62500J0D01*
G01*
X201013100Y-134166200D01*
G75*
G02*
X200950600Y-134103700I0J62500D01*
G01*
X200950600Y-133978700D01*
G75*
G02*
X201013100Y-133916200I62500J0D01*
G01*
X201763100Y-133916200D01*
G75*
G02*
X201825600Y-133978700I0J-62500D01*
G01*
G37*
G04 #@! TD.AperFunction*
G04 #@! TA.AperFunction,SMDPad,CuDef*
G36*
G01*
X201825600Y-134478700D02*
X201825600Y-134603700D01*
G75*
G02*
X201763100Y-134666200I-62500J0D01*
G01*
X201013100Y-134666200D01*
G75*
G02*
X200950600Y-134603700I0J62500D01*
G01*
X200950600Y-134478700D01*
G75*
G02*
X201013100Y-134416200I62500J0D01*
G01*
X201763100Y-134416200D01*
G75*
G02*
X201825600Y-134478700I0J-62500D01*
G01*
G37*
G04 #@! TD.AperFunction*
G04 #@! TA.AperFunction,SMDPad,CuDef*
G36*
G01*
X201825600Y-134978700D02*
X201825600Y-135103700D01*
G75*
G02*
X201763100Y-135166200I-62500J0D01*
G01*
X201013100Y-135166200D01*
G75*
G02*
X200950600Y-135103700I0J62500D01*
G01*
X200950600Y-134978700D01*
G75*
G02*
X201013100Y-134916200I62500J0D01*
G01*
X201763100Y-134916200D01*
G75*
G02*
X201825600Y-134978700I0J-62500D01*
G01*
G37*
G04 #@! TD.AperFunction*
G04 #@! TA.AperFunction,SMDPad,CuDef*
G36*
G01*
X201825600Y-135478700D02*
X201825600Y-135603700D01*
G75*
G02*
X201763100Y-135666200I-62500J0D01*
G01*
X201013100Y-135666200D01*
G75*
G02*
X200950600Y-135603700I0J62500D01*
G01*
X200950600Y-135478700D01*
G75*
G02*
X201013100Y-135416200I62500J0D01*
G01*
X201763100Y-135416200D01*
G75*
G02*
X201825600Y-135478700I0J-62500D01*
G01*
G37*
G04 #@! TD.AperFunction*
G04 #@! TA.AperFunction,SMDPad,CuDef*
G36*
G01*
X202200600Y-135853700D02*
X202200600Y-136603700D01*
G75*
G02*
X202138100Y-136666200I-62500J0D01*
G01*
X202013100Y-136666200D01*
G75*
G02*
X201950600Y-136603700I0J62500D01*
G01*
X201950600Y-135853700D01*
G75*
G02*
X202013100Y-135791200I62500J0D01*
G01*
X202138100Y-135791200D01*
G75*
G02*
X202200600Y-135853700I0J-62500D01*
G01*
G37*
G04 #@! TD.AperFunction*
G04 #@! TA.AperFunction,SMDPad,CuDef*
G36*
G01*
X202700600Y-135853700D02*
X202700600Y-136603700D01*
G75*
G02*
X202638100Y-136666200I-62500J0D01*
G01*
X202513100Y-136666200D01*
G75*
G02*
X202450600Y-136603700I0J62500D01*
G01*
X202450600Y-135853700D01*
G75*
G02*
X202513100Y-135791200I62500J0D01*
G01*
X202638100Y-135791200D01*
G75*
G02*
X202700600Y-135853700I0J-62500D01*
G01*
G37*
G04 #@! TD.AperFunction*
G04 #@! TA.AperFunction,SMDPad,CuDef*
G36*
G01*
X203200600Y-135853700D02*
X203200600Y-136603700D01*
G75*
G02*
X203138100Y-136666200I-62500J0D01*
G01*
X203013100Y-136666200D01*
G75*
G02*
X202950600Y-136603700I0J62500D01*
G01*
X202950600Y-135853700D01*
G75*
G02*
X203013100Y-135791200I62500J0D01*
G01*
X203138100Y-135791200D01*
G75*
G02*
X203200600Y-135853700I0J-62500D01*
G01*
G37*
G04 #@! TD.AperFunction*
G04 #@! TA.AperFunction,SMDPad,CuDef*
G36*
G01*
X203700600Y-135853700D02*
X203700600Y-136603700D01*
G75*
G02*
X203638100Y-136666200I-62500J0D01*
G01*
X203513100Y-136666200D01*
G75*
G02*
X203450600Y-136603700I0J62500D01*
G01*
X203450600Y-135853700D01*
G75*
G02*
X203513100Y-135791200I62500J0D01*
G01*
X203638100Y-135791200D01*
G75*
G02*
X203700600Y-135853700I0J-62500D01*
G01*
G37*
G04 #@! TD.AperFunction*
G04 #@! TA.AperFunction,SMDPad,CuDef*
G36*
G01*
X204200600Y-135853700D02*
X204200600Y-136603700D01*
G75*
G02*
X204138100Y-136666200I-62500J0D01*
G01*
X204013100Y-136666200D01*
G75*
G02*
X203950600Y-136603700I0J62500D01*
G01*
X203950600Y-135853700D01*
G75*
G02*
X204013100Y-135791200I62500J0D01*
G01*
X204138100Y-135791200D01*
G75*
G02*
X204200600Y-135853700I0J-62500D01*
G01*
G37*
G04 #@! TD.AperFunction*
G04 #@! TA.AperFunction,SMDPad,CuDef*
G36*
G01*
X204700600Y-135853700D02*
X204700600Y-136603700D01*
G75*
G02*
X204638100Y-136666200I-62500J0D01*
G01*
X204513100Y-136666200D01*
G75*
G02*
X204450600Y-136603700I0J62500D01*
G01*
X204450600Y-135853700D01*
G75*
G02*
X204513100Y-135791200I62500J0D01*
G01*
X204638100Y-135791200D01*
G75*
G02*
X204700600Y-135853700I0J-62500D01*
G01*
G37*
G04 #@! TD.AperFunction*
G04 #@! TA.AperFunction,SMDPad,CuDef*
G36*
G01*
X205200600Y-135853700D02*
X205200600Y-136603700D01*
G75*
G02*
X205138100Y-136666200I-62500J0D01*
G01*
X205013100Y-136666200D01*
G75*
G02*
X204950600Y-136603700I0J62500D01*
G01*
X204950600Y-135853700D01*
G75*
G02*
X205013100Y-135791200I62500J0D01*
G01*
X205138100Y-135791200D01*
G75*
G02*
X205200600Y-135853700I0J-62500D01*
G01*
G37*
G04 #@! TD.AperFunction*
G04 #@! TA.AperFunction,SMDPad,CuDef*
G36*
G01*
X205700600Y-135853700D02*
X205700600Y-136603700D01*
G75*
G02*
X205638100Y-136666200I-62500J0D01*
G01*
X205513100Y-136666200D01*
G75*
G02*
X205450600Y-136603700I0J62500D01*
G01*
X205450600Y-135853700D01*
G75*
G02*
X205513100Y-135791200I62500J0D01*
G01*
X205638100Y-135791200D01*
G75*
G02*
X205700600Y-135853700I0J-62500D01*
G01*
G37*
G04 #@! TD.AperFunction*
G04 #@! TA.AperFunction,SMDPad,CuDef*
G36*
G01*
X206200600Y-135853700D02*
X206200600Y-136603700D01*
G75*
G02*
X206138100Y-136666200I-62500J0D01*
G01*
X206013100Y-136666200D01*
G75*
G02*
X205950600Y-136603700I0J62500D01*
G01*
X205950600Y-135853700D01*
G75*
G02*
X206013100Y-135791200I62500J0D01*
G01*
X206138100Y-135791200D01*
G75*
G02*
X206200600Y-135853700I0J-62500D01*
G01*
G37*
G04 #@! TD.AperFunction*
G04 #@! TA.AperFunction,SMDPad,CuDef*
G36*
G01*
X206700600Y-135853700D02*
X206700600Y-136603700D01*
G75*
G02*
X206638100Y-136666200I-62500J0D01*
G01*
X206513100Y-136666200D01*
G75*
G02*
X206450600Y-136603700I0J62500D01*
G01*
X206450600Y-135853700D01*
G75*
G02*
X206513100Y-135791200I62500J0D01*
G01*
X206638100Y-135791200D01*
G75*
G02*
X206700600Y-135853700I0J-62500D01*
G01*
G37*
G04 #@! TD.AperFunction*
G04 #@! TA.AperFunction,SMDPad,CuDef*
G36*
G01*
X207200600Y-135853700D02*
X207200600Y-136603700D01*
G75*
G02*
X207138100Y-136666200I-62500J0D01*
G01*
X207013100Y-136666200D01*
G75*
G02*
X206950600Y-136603700I0J62500D01*
G01*
X206950600Y-135853700D01*
G75*
G02*
X207013100Y-135791200I62500J0D01*
G01*
X207138100Y-135791200D01*
G75*
G02*
X207200600Y-135853700I0J-62500D01*
G01*
G37*
G04 #@! TD.AperFunction*
G04 #@! TA.AperFunction,SMDPad,CuDef*
G36*
G01*
X207700600Y-135853700D02*
X207700600Y-136603700D01*
G75*
G02*
X207638100Y-136666200I-62500J0D01*
G01*
X207513100Y-136666200D01*
G75*
G02*
X207450600Y-136603700I0J62500D01*
G01*
X207450600Y-135853700D01*
G75*
G02*
X207513100Y-135791200I62500J0D01*
G01*
X207638100Y-135791200D01*
G75*
G02*
X207700600Y-135853700I0J-62500D01*
G01*
G37*
G04 #@! TD.AperFunction*
G04 #@! TA.AperFunction,SMDPad,CuDef*
G36*
G01*
X208700600Y-135478700D02*
X208700600Y-135603700D01*
G75*
G02*
X208638100Y-135666200I-62500J0D01*
G01*
X207888100Y-135666200D01*
G75*
G02*
X207825600Y-135603700I0J62500D01*
G01*
X207825600Y-135478700D01*
G75*
G02*
X207888100Y-135416200I62500J0D01*
G01*
X208638100Y-135416200D01*
G75*
G02*
X208700600Y-135478700I0J-62500D01*
G01*
G37*
G04 #@! TD.AperFunction*
G04 #@! TA.AperFunction,SMDPad,CuDef*
G36*
G01*
X208700600Y-134978700D02*
X208700600Y-135103700D01*
G75*
G02*
X208638100Y-135166200I-62500J0D01*
G01*
X207888100Y-135166200D01*
G75*
G02*
X207825600Y-135103700I0J62500D01*
G01*
X207825600Y-134978700D01*
G75*
G02*
X207888100Y-134916200I62500J0D01*
G01*
X208638100Y-134916200D01*
G75*
G02*
X208700600Y-134978700I0J-62500D01*
G01*
G37*
G04 #@! TD.AperFunction*
G04 #@! TA.AperFunction,SMDPad,CuDef*
G36*
G01*
X208700600Y-134478700D02*
X208700600Y-134603700D01*
G75*
G02*
X208638100Y-134666200I-62500J0D01*
G01*
X207888100Y-134666200D01*
G75*
G02*
X207825600Y-134603700I0J62500D01*
G01*
X207825600Y-134478700D01*
G75*
G02*
X207888100Y-134416200I62500J0D01*
G01*
X208638100Y-134416200D01*
G75*
G02*
X208700600Y-134478700I0J-62500D01*
G01*
G37*
G04 #@! TD.AperFunction*
G04 #@! TA.AperFunction,SMDPad,CuDef*
G36*
G01*
X208700600Y-133978700D02*
X208700600Y-134103700D01*
G75*
G02*
X208638100Y-134166200I-62500J0D01*
G01*
X207888100Y-134166200D01*
G75*
G02*
X207825600Y-134103700I0J62500D01*
G01*
X207825600Y-133978700D01*
G75*
G02*
X207888100Y-133916200I62500J0D01*
G01*
X208638100Y-133916200D01*
G75*
G02*
X208700600Y-133978700I0J-62500D01*
G01*
G37*
G04 #@! TD.AperFunction*
G04 #@! TA.AperFunction,SMDPad,CuDef*
G36*
G01*
X208700600Y-133478700D02*
X208700600Y-133603700D01*
G75*
G02*
X208638100Y-133666200I-62500J0D01*
G01*
X207888100Y-133666200D01*
G75*
G02*
X207825600Y-133603700I0J62500D01*
G01*
X207825600Y-133478700D01*
G75*
G02*
X207888100Y-133416200I62500J0D01*
G01*
X208638100Y-133416200D01*
G75*
G02*
X208700600Y-133478700I0J-62500D01*
G01*
G37*
G04 #@! TD.AperFunction*
G04 #@! TA.AperFunction,SMDPad,CuDef*
G36*
G01*
X208700600Y-132978700D02*
X208700600Y-133103700D01*
G75*
G02*
X208638100Y-133166200I-62500J0D01*
G01*
X207888100Y-133166200D01*
G75*
G02*
X207825600Y-133103700I0J62500D01*
G01*
X207825600Y-132978700D01*
G75*
G02*
X207888100Y-132916200I62500J0D01*
G01*
X208638100Y-132916200D01*
G75*
G02*
X208700600Y-132978700I0J-62500D01*
G01*
G37*
G04 #@! TD.AperFunction*
G04 #@! TA.AperFunction,SMDPad,CuDef*
G36*
G01*
X208700600Y-132478700D02*
X208700600Y-132603700D01*
G75*
G02*
X208638100Y-132666200I-62500J0D01*
G01*
X207888100Y-132666200D01*
G75*
G02*
X207825600Y-132603700I0J62500D01*
G01*
X207825600Y-132478700D01*
G75*
G02*
X207888100Y-132416200I62500J0D01*
G01*
X208638100Y-132416200D01*
G75*
G02*
X208700600Y-132478700I0J-62500D01*
G01*
G37*
G04 #@! TD.AperFunction*
G04 #@! TA.AperFunction,SMDPad,CuDef*
G36*
G01*
X208700600Y-131978700D02*
X208700600Y-132103700D01*
G75*
G02*
X208638100Y-132166200I-62500J0D01*
G01*
X207888100Y-132166200D01*
G75*
G02*
X207825600Y-132103700I0J62500D01*
G01*
X207825600Y-131978700D01*
G75*
G02*
X207888100Y-131916200I62500J0D01*
G01*
X208638100Y-131916200D01*
G75*
G02*
X208700600Y-131978700I0J-62500D01*
G01*
G37*
G04 #@! TD.AperFunction*
G04 #@! TA.AperFunction,SMDPad,CuDef*
G36*
G01*
X208700600Y-131478700D02*
X208700600Y-131603700D01*
G75*
G02*
X208638100Y-131666200I-62500J0D01*
G01*
X207888100Y-131666200D01*
G75*
G02*
X207825600Y-131603700I0J62500D01*
G01*
X207825600Y-131478700D01*
G75*
G02*
X207888100Y-131416200I62500J0D01*
G01*
X208638100Y-131416200D01*
G75*
G02*
X208700600Y-131478700I0J-62500D01*
G01*
G37*
G04 #@! TD.AperFunction*
G04 #@! TA.AperFunction,SMDPad,CuDef*
G36*
G01*
X208700600Y-130978700D02*
X208700600Y-131103700D01*
G75*
G02*
X208638100Y-131166200I-62500J0D01*
G01*
X207888100Y-131166200D01*
G75*
G02*
X207825600Y-131103700I0J62500D01*
G01*
X207825600Y-130978700D01*
G75*
G02*
X207888100Y-130916200I62500J0D01*
G01*
X208638100Y-130916200D01*
G75*
G02*
X208700600Y-130978700I0J-62500D01*
G01*
G37*
G04 #@! TD.AperFunction*
G04 #@! TA.AperFunction,SMDPad,CuDef*
G36*
G01*
X208700600Y-130478700D02*
X208700600Y-130603700D01*
G75*
G02*
X208638100Y-130666200I-62500J0D01*
G01*
X207888100Y-130666200D01*
G75*
G02*
X207825600Y-130603700I0J62500D01*
G01*
X207825600Y-130478700D01*
G75*
G02*
X207888100Y-130416200I62500J0D01*
G01*
X208638100Y-130416200D01*
G75*
G02*
X208700600Y-130478700I0J-62500D01*
G01*
G37*
G04 #@! TD.AperFunction*
G04 #@! TA.AperFunction,SMDPad,CuDef*
G36*
G01*
X208700600Y-129978700D02*
X208700600Y-130103700D01*
G75*
G02*
X208638100Y-130166200I-62500J0D01*
G01*
X207888100Y-130166200D01*
G75*
G02*
X207825600Y-130103700I0J62500D01*
G01*
X207825600Y-129978700D01*
G75*
G02*
X207888100Y-129916200I62500J0D01*
G01*
X208638100Y-129916200D01*
G75*
G02*
X208700600Y-129978700I0J-62500D01*
G01*
G37*
G04 #@! TD.AperFunction*
G04 #@! TA.AperFunction,SMDPad,CuDef*
G36*
G01*
X229571600Y-159773198D02*
X229571600Y-160673202D01*
G75*
G02*
X229321602Y-160923200I-249998J0D01*
G01*
X228796598Y-160923200D01*
G75*
G02*
X228546600Y-160673202I0J249998D01*
G01*
X228546600Y-159773198D01*
G75*
G02*
X228796598Y-159523200I249998J0D01*
G01*
X229321602Y-159523200D01*
G75*
G02*
X229571600Y-159773198I0J-249998D01*
G01*
G37*
G04 #@! TD.AperFunction*
G04 #@! TA.AperFunction,SMDPad,CuDef*
G36*
G01*
X231396600Y-159773198D02*
X231396600Y-160673202D01*
G75*
G02*
X231146602Y-160923200I-249998J0D01*
G01*
X230621598Y-160923200D01*
G75*
G02*
X230371600Y-160673202I0J249998D01*
G01*
X230371600Y-159773198D01*
G75*
G02*
X230621598Y-159523200I249998J0D01*
G01*
X231146602Y-159523200D01*
G75*
G02*
X231396600Y-159773198I0J-249998D01*
G01*
G37*
G04 #@! TD.AperFunction*
G04 #@! TA.AperFunction,SMDPad,CuDef*
G36*
G01*
X223366000Y-163141598D02*
X223366000Y-164041602D01*
G75*
G02*
X223116002Y-164291600I-249998J0D01*
G01*
X222590998Y-164291600D01*
G75*
G02*
X222341000Y-164041602I0J249998D01*
G01*
X222341000Y-163141598D01*
G75*
G02*
X222590998Y-162891600I249998J0D01*
G01*
X223116002Y-162891600D01*
G75*
G02*
X223366000Y-163141598I0J-249998D01*
G01*
G37*
G04 #@! TD.AperFunction*
G04 #@! TA.AperFunction,SMDPad,CuDef*
G36*
G01*
X225191000Y-163141598D02*
X225191000Y-164041602D01*
G75*
G02*
X224941002Y-164291600I-249998J0D01*
G01*
X224415998Y-164291600D01*
G75*
G02*
X224166000Y-164041602I0J249998D01*
G01*
X224166000Y-163141598D01*
G75*
G02*
X224415998Y-162891600I249998J0D01*
G01*
X224941002Y-162891600D01*
G75*
G02*
X225191000Y-163141598I0J-249998D01*
G01*
G37*
G04 #@! TD.AperFunction*
G04 #@! TA.AperFunction,SMDPad,CuDef*
G36*
G01*
X166224798Y-132989900D02*
X167124802Y-132989900D01*
G75*
G02*
X167374800Y-133239898I0J-249998D01*
G01*
X167374800Y-133764902D01*
G75*
G02*
X167124802Y-134014900I-249998J0D01*
G01*
X166224798Y-134014900D01*
G75*
G02*
X165974800Y-133764902I0J249998D01*
G01*
X165974800Y-133239898D01*
G75*
G02*
X166224798Y-132989900I249998J0D01*
G01*
G37*
G04 #@! TD.AperFunction*
G04 #@! TA.AperFunction,SMDPad,CuDef*
G36*
G01*
X166224798Y-131164900D02*
X167124802Y-131164900D01*
G75*
G02*
X167374800Y-131414898I0J-249998D01*
G01*
X167374800Y-131939902D01*
G75*
G02*
X167124802Y-132189900I-249998J0D01*
G01*
X166224798Y-132189900D01*
G75*
G02*
X165974800Y-131939902I0J249998D01*
G01*
X165974800Y-131414898D01*
G75*
G02*
X166224798Y-131164900I249998J0D01*
G01*
G37*
G04 #@! TD.AperFunction*
G04 #@! TA.AperFunction,SMDPad,CuDef*
G36*
G01*
X173575300Y-118814002D02*
X173575300Y-117913998D01*
G75*
G02*
X173825298Y-117664000I249998J0D01*
G01*
X174350302Y-117664000D01*
G75*
G02*
X174600300Y-117913998I0J-249998D01*
G01*
X174600300Y-118814002D01*
G75*
G02*
X174350302Y-119064000I-249998J0D01*
G01*
X173825298Y-119064000D01*
G75*
G02*
X173575300Y-118814002I0J249998D01*
G01*
G37*
G04 #@! TD.AperFunction*
G04 #@! TA.AperFunction,SMDPad,CuDef*
G36*
G01*
X171750300Y-118814002D02*
X171750300Y-117913998D01*
G75*
G02*
X172000298Y-117664000I249998J0D01*
G01*
X172525302Y-117664000D01*
G75*
G02*
X172775300Y-117913998I0J-249998D01*
G01*
X172775300Y-118814002D01*
G75*
G02*
X172525302Y-119064000I-249998J0D01*
G01*
X172000298Y-119064000D01*
G75*
G02*
X171750300Y-118814002I0J249998D01*
G01*
G37*
G04 #@! TD.AperFunction*
G04 #@! TA.AperFunction,SMDPad,CuDef*
G36*
G01*
X183748100Y-114154798D02*
X183748100Y-115054802D01*
G75*
G02*
X183498102Y-115304800I-249998J0D01*
G01*
X182973098Y-115304800D01*
G75*
G02*
X182723100Y-115054802I0J249998D01*
G01*
X182723100Y-114154798D01*
G75*
G02*
X182973098Y-113904800I249998J0D01*
G01*
X183498102Y-113904800D01*
G75*
G02*
X183748100Y-114154798I0J-249998D01*
G01*
G37*
G04 #@! TD.AperFunction*
G04 #@! TA.AperFunction,SMDPad,CuDef*
G36*
G01*
X185573100Y-114154798D02*
X185573100Y-115054802D01*
G75*
G02*
X185323102Y-115304800I-249998J0D01*
G01*
X184798098Y-115304800D01*
G75*
G02*
X184548100Y-115054802I0J249998D01*
G01*
X184548100Y-114154798D01*
G75*
G02*
X184798098Y-113904800I249998J0D01*
G01*
X185323102Y-113904800D01*
G75*
G02*
X185573100Y-114154798I0J-249998D01*
G01*
G37*
G04 #@! TD.AperFunction*
G04 #@! TA.AperFunction,SMDPad,CuDef*
G36*
G01*
X185005300Y-124605202D02*
X185005300Y-123705198D01*
G75*
G02*
X185255298Y-123455200I249998J0D01*
G01*
X185780302Y-123455200D01*
G75*
G02*
X186030300Y-123705198I0J-249998D01*
G01*
X186030300Y-124605202D01*
G75*
G02*
X185780302Y-124855200I-249998J0D01*
G01*
X185255298Y-124855200D01*
G75*
G02*
X185005300Y-124605202I0J249998D01*
G01*
G37*
G04 #@! TD.AperFunction*
G04 #@! TA.AperFunction,SMDPad,CuDef*
G36*
G01*
X183180300Y-124605202D02*
X183180300Y-123705198D01*
G75*
G02*
X183430298Y-123455200I249998J0D01*
G01*
X183955302Y-123455200D01*
G75*
G02*
X184205300Y-123705198I0J-249998D01*
G01*
X184205300Y-124605202D01*
G75*
G02*
X183955302Y-124855200I-249998J0D01*
G01*
X183430298Y-124855200D01*
G75*
G02*
X183180300Y-124605202I0J249998D01*
G01*
G37*
G04 #@! TD.AperFunction*
G04 #@! TA.AperFunction,SMDPad,CuDef*
G36*
G01*
X180805500Y-123705198D02*
X180805500Y-124605202D01*
G75*
G02*
X180555502Y-124855200I-249998J0D01*
G01*
X180030498Y-124855200D01*
G75*
G02*
X179780500Y-124605202I0J249998D01*
G01*
X179780500Y-123705198D01*
G75*
G02*
X180030498Y-123455200I249998J0D01*
G01*
X180555502Y-123455200D01*
G75*
G02*
X180805500Y-123705198I0J-249998D01*
G01*
G37*
G04 #@! TD.AperFunction*
G04 #@! TA.AperFunction,SMDPad,CuDef*
G36*
G01*
X182630500Y-123705198D02*
X182630500Y-124605202D01*
G75*
G02*
X182380502Y-124855200I-249998J0D01*
G01*
X181855498Y-124855200D01*
G75*
G02*
X181605500Y-124605202I0J249998D01*
G01*
X181605500Y-123705198D01*
G75*
G02*
X181855498Y-123455200I249998J0D01*
G01*
X182380502Y-123455200D01*
G75*
G02*
X182630500Y-123705198I0J-249998D01*
G01*
G37*
G04 #@! TD.AperFunction*
G04 #@! TA.AperFunction,SMDPad,CuDef*
G36*
G01*
X162860000Y-133200802D02*
X162860000Y-132300798D01*
G75*
G02*
X163109998Y-132050800I249998J0D01*
G01*
X163635002Y-132050800D01*
G75*
G02*
X163885000Y-132300798I0J-249998D01*
G01*
X163885000Y-133200802D01*
G75*
G02*
X163635002Y-133450800I-249998J0D01*
G01*
X163109998Y-133450800D01*
G75*
G02*
X162860000Y-133200802I0J249998D01*
G01*
G37*
G04 #@! TD.AperFunction*
G04 #@! TA.AperFunction,SMDPad,CuDef*
G36*
G01*
X161035000Y-133200802D02*
X161035000Y-132300798D01*
G75*
G02*
X161284998Y-132050800I249998J0D01*
G01*
X161810002Y-132050800D01*
G75*
G02*
X162060000Y-132300798I0J-249998D01*
G01*
X162060000Y-133200802D01*
G75*
G02*
X161810002Y-133450800I-249998J0D01*
G01*
X161284998Y-133450800D01*
G75*
G02*
X161035000Y-133200802I0J249998D01*
G01*
G37*
G04 #@! TD.AperFunction*
D29*
X165709600Y-124122000D03*
X164759600Y-126322000D03*
X166659600Y-126322000D03*
D20*
X162510000Y-128650800D03*
X161560000Y-130650800D03*
X163460000Y-130650800D03*
G04 #@! TA.AperFunction,SMDPad,CuDef*
D30*
G36*
X181571200Y-122771600D02*
G01*
X181021200Y-122771600D01*
X181021200Y-122770998D01*
X180996666Y-122770998D01*
X180947835Y-122766188D01*
X180899710Y-122756616D01*
X180852755Y-122742372D01*
X180807422Y-122723595D01*
X180764149Y-122700464D01*
X180723350Y-122673204D01*
X180685421Y-122642076D01*
X180650724Y-122607379D01*
X180619596Y-122569450D01*
X180592336Y-122528651D01*
X180569205Y-122485378D01*
X180550428Y-122440045D01*
X180536184Y-122393090D01*
X180526612Y-122344965D01*
X180521802Y-122296134D01*
X180521802Y-122271600D01*
X180521200Y-122271600D01*
X180521200Y-121771600D01*
X180521802Y-121771600D01*
X180521802Y-121747066D01*
X180526612Y-121698235D01*
X180536184Y-121650110D01*
X180550428Y-121603155D01*
X180569205Y-121557822D01*
X180592336Y-121514549D01*
X180619596Y-121473750D01*
X180650724Y-121435821D01*
X180685421Y-121401124D01*
X180723350Y-121369996D01*
X180764149Y-121342736D01*
X180807422Y-121319605D01*
X180852755Y-121300828D01*
X180899710Y-121286584D01*
X180947835Y-121277012D01*
X180996666Y-121272202D01*
X181021200Y-121272202D01*
X181021200Y-121271600D01*
X181571200Y-121271600D01*
X181571200Y-122771600D01*
G37*
G04 #@! TD.AperFunction*
D31*
X182321200Y-122021600D03*
G04 #@! TA.AperFunction,SMDPad,CuDef*
D30*
G36*
X183621200Y-121272202D02*
G01*
X183645734Y-121272202D01*
X183694565Y-121277012D01*
X183742690Y-121286584D01*
X183789645Y-121300828D01*
X183834978Y-121319605D01*
X183878251Y-121342736D01*
X183919050Y-121369996D01*
X183956979Y-121401124D01*
X183991676Y-121435821D01*
X184022804Y-121473750D01*
X184050064Y-121514549D01*
X184073195Y-121557822D01*
X184091972Y-121603155D01*
X184106216Y-121650110D01*
X184115788Y-121698235D01*
X184120598Y-121747066D01*
X184120598Y-121771600D01*
X184121200Y-121771600D01*
X184121200Y-122271600D01*
X184120598Y-122271600D01*
X184120598Y-122296134D01*
X184115788Y-122344965D01*
X184106216Y-122393090D01*
X184091972Y-122440045D01*
X184073195Y-122485378D01*
X184050064Y-122528651D01*
X184022804Y-122569450D01*
X183991676Y-122607379D01*
X183956979Y-122642076D01*
X183919050Y-122673204D01*
X183878251Y-122700464D01*
X183834978Y-122723595D01*
X183789645Y-122742372D01*
X183742690Y-122756616D01*
X183694565Y-122766188D01*
X183645734Y-122770998D01*
X183621200Y-122770998D01*
X183621200Y-122771600D01*
X183071200Y-122771600D01*
X183071200Y-121271600D01*
X183621200Y-121271600D01*
X183621200Y-121272202D01*
G37*
G04 #@! TD.AperFunction*
G04 #@! TA.AperFunction,ComponentPad*
G36*
G01*
X216410125Y-183168742D02*
X216410125Y-183168742D01*
G75*
G02*
X215226306Y-182960003I-487540J696279D01*
G01*
X215226306Y-182960003D01*
G75*
G02*
X215435045Y-181776184I696279J487540D01*
G01*
X215435045Y-181776184D01*
G75*
G02*
X216618864Y-181984923I487540J-696279D01*
G01*
X216618864Y-181984923D01*
G75*
G02*
X216410125Y-183168742I-696279J-487540D01*
G01*
G37*
G04 #@! TD.AperFunction*
G04 #@! TA.AperFunction,ComponentPad*
G36*
G01*
X214329479Y-184625627D02*
X214329479Y-184625627D01*
G75*
G02*
X213145660Y-184416888I-487540J696279D01*
G01*
X213145660Y-184416888D01*
G75*
G02*
X213354399Y-183233069I696279J487540D01*
G01*
X213354399Y-183233069D01*
G75*
G02*
X214538218Y-183441808I487540J-696279D01*
G01*
X214538218Y-183441808D01*
G75*
G02*
X214329479Y-184625627I-696279J-487540D01*
G01*
G37*
G04 #@! TD.AperFunction*
G04 #@! TA.AperFunction,ComponentPad*
G36*
G01*
X212248832Y-186082511D02*
X212248832Y-186082511D01*
G75*
G02*
X211065013Y-185873772I-487540J696279D01*
G01*
X211065013Y-185873772D01*
G75*
G02*
X211273752Y-184689953I696279J487540D01*
G01*
X211273752Y-184689953D01*
G75*
G02*
X212457571Y-184898692I487540J-696279D01*
G01*
X212457571Y-184898692D01*
G75*
G02*
X212248832Y-186082511I-696279J-487540D01*
G01*
G37*
G04 #@! TD.AperFunction*
G04 #@! TA.AperFunction,ComponentPad*
G36*
G01*
X210168186Y-187539395D02*
X210168186Y-187539395D01*
G75*
G02*
X208984367Y-187330656I-487540J696279D01*
G01*
X208984367Y-187330656D01*
G75*
G02*
X209193106Y-186146837I696279J487540D01*
G01*
X209193106Y-186146837D01*
G75*
G02*
X210376925Y-186355576I487540J-696279D01*
G01*
X210376925Y-186355576D01*
G75*
G02*
X210168186Y-187539395I-696279J-487540D01*
G01*
G37*
G04 #@! TD.AperFunction*
G04 #@! TA.AperFunction,ComponentPad*
D15*
G36*
X208783819Y-188508739D02*
G01*
X207391261Y-189483819D01*
X206416181Y-188091261D01*
X207808739Y-187116181D01*
X208783819Y-188508739D01*
G37*
G04 #@! TD.AperFunction*
G04 #@! TA.AperFunction,SMDPad,CuDef*
G36*
G01*
X227130800Y-161107000D02*
X227630800Y-161107000D01*
G75*
G02*
X227855800Y-161332000I0J-225000D01*
G01*
X227855800Y-161782000D01*
G75*
G02*
X227630800Y-162007000I-225000J0D01*
G01*
X227130800Y-162007000D01*
G75*
G02*
X226905800Y-161782000I0J225000D01*
G01*
X226905800Y-161332000D01*
G75*
G02*
X227130800Y-161107000I225000J0D01*
G01*
G37*
G04 #@! TD.AperFunction*
G04 #@! TA.AperFunction,SMDPad,CuDef*
G36*
G01*
X227130800Y-159557000D02*
X227630800Y-159557000D01*
G75*
G02*
X227855800Y-159782000I0J-225000D01*
G01*
X227855800Y-160232000D01*
G75*
G02*
X227630800Y-160457000I-225000J0D01*
G01*
X227130800Y-160457000D01*
G75*
G02*
X226905800Y-160232000I0J225000D01*
G01*
X226905800Y-159782000D01*
G75*
G02*
X227130800Y-159557000I225000J0D01*
G01*
G37*
G04 #@! TD.AperFunction*
G04 #@! TA.AperFunction,SMDPad,CuDef*
G36*
G01*
X212301200Y-129761000D02*
X212301200Y-128811000D01*
G75*
G02*
X212551200Y-128561000I250000J0D01*
G01*
X213051200Y-128561000D01*
G75*
G02*
X213301200Y-128811000I0J-250000D01*
G01*
X213301200Y-129761000D01*
G75*
G02*
X213051200Y-130011000I-250000J0D01*
G01*
X212551200Y-130011000D01*
G75*
G02*
X212301200Y-129761000I0J250000D01*
G01*
G37*
G04 #@! TD.AperFunction*
G04 #@! TA.AperFunction,SMDPad,CuDef*
G36*
G01*
X210401200Y-129761000D02*
X210401200Y-128811000D01*
G75*
G02*
X210651200Y-128561000I250000J0D01*
G01*
X211151200Y-128561000D01*
G75*
G02*
X211401200Y-128811000I0J-250000D01*
G01*
X211401200Y-129761000D01*
G75*
G02*
X211151200Y-130011000I-250000J0D01*
G01*
X210651200Y-130011000D01*
G75*
G02*
X210401200Y-129761000I0J250000D01*
G01*
G37*
G04 #@! TD.AperFunction*
G04 #@! TA.AperFunction,SMDPad,CuDef*
G36*
G01*
X215375000Y-138850000D02*
X215375000Y-139350000D01*
G75*
G02*
X215150000Y-139575000I-225000J0D01*
G01*
X214700000Y-139575000D01*
G75*
G02*
X214475000Y-139350000I0J225000D01*
G01*
X214475000Y-138850000D01*
G75*
G02*
X214700000Y-138625000I225000J0D01*
G01*
X215150000Y-138625000D01*
G75*
G02*
X215375000Y-138850000I0J-225000D01*
G01*
G37*
G04 #@! TD.AperFunction*
G04 #@! TA.AperFunction,SMDPad,CuDef*
G36*
G01*
X216925000Y-138850000D02*
X216925000Y-139350000D01*
G75*
G02*
X216700000Y-139575000I-225000J0D01*
G01*
X216250000Y-139575000D01*
G75*
G02*
X216025000Y-139350000I0J225000D01*
G01*
X216025000Y-138850000D01*
G75*
G02*
X216250000Y-138625000I225000J0D01*
G01*
X216700000Y-138625000D01*
G75*
G02*
X216925000Y-138850000I0J-225000D01*
G01*
G37*
G04 #@! TD.AperFunction*
G04 #@! TA.AperFunction,SMDPad,CuDef*
G36*
G01*
X215250000Y-141350000D02*
X215250000Y-141850000D01*
G75*
G02*
X215025000Y-142075000I-225000J0D01*
G01*
X214575000Y-142075000D01*
G75*
G02*
X214350000Y-141850000I0J225000D01*
G01*
X214350000Y-141350000D01*
G75*
G02*
X214575000Y-141125000I225000J0D01*
G01*
X215025000Y-141125000D01*
G75*
G02*
X215250000Y-141350000I0J-225000D01*
G01*
G37*
G04 #@! TD.AperFunction*
G04 #@! TA.AperFunction,SMDPad,CuDef*
G36*
G01*
X216800000Y-141350000D02*
X216800000Y-141850000D01*
G75*
G02*
X216575000Y-142075000I-225000J0D01*
G01*
X216125000Y-142075000D01*
G75*
G02*
X215900000Y-141850000I0J225000D01*
G01*
X215900000Y-141350000D01*
G75*
G02*
X216125000Y-141125000I225000J0D01*
G01*
X216575000Y-141125000D01*
G75*
G02*
X216800000Y-141350000I0J-225000D01*
G01*
G37*
G04 #@! TD.AperFunction*
G04 #@! TA.AperFunction,SMDPad,CuDef*
G36*
G01*
X213275000Y-143850000D02*
X212325000Y-143850000D01*
G75*
G02*
X212075000Y-143600000I0J250000D01*
G01*
X212075000Y-143100000D01*
G75*
G02*
X212325000Y-142850000I250000J0D01*
G01*
X213275000Y-142850000D01*
G75*
G02*
X213525000Y-143100000I0J-250000D01*
G01*
X213525000Y-143600000D01*
G75*
G02*
X213275000Y-143850000I-250000J0D01*
G01*
G37*
G04 #@! TD.AperFunction*
G04 #@! TA.AperFunction,SMDPad,CuDef*
G36*
G01*
X213275000Y-145750000D02*
X212325000Y-145750000D01*
G75*
G02*
X212075000Y-145500000I0J250000D01*
G01*
X212075000Y-145000000D01*
G75*
G02*
X212325000Y-144750000I250000J0D01*
G01*
X213275000Y-144750000D01*
G75*
G02*
X213525000Y-145000000I0J-250000D01*
G01*
X213525000Y-145500000D01*
G75*
G02*
X213275000Y-145750000I-250000J0D01*
G01*
G37*
G04 #@! TD.AperFunction*
G04 #@! TA.AperFunction,SMDPad,CuDef*
G36*
G01*
X210175000Y-143750000D02*
X209225000Y-143750000D01*
G75*
G02*
X208975000Y-143500000I0J250000D01*
G01*
X208975000Y-143000000D01*
G75*
G02*
X209225000Y-142750000I250000J0D01*
G01*
X210175000Y-142750000D01*
G75*
G02*
X210425000Y-143000000I0J-250000D01*
G01*
X210425000Y-143500000D01*
G75*
G02*
X210175000Y-143750000I-250000J0D01*
G01*
G37*
G04 #@! TD.AperFunction*
G04 #@! TA.AperFunction,SMDPad,CuDef*
G36*
G01*
X210175000Y-145650000D02*
X209225000Y-145650000D01*
G75*
G02*
X208975000Y-145400000I0J250000D01*
G01*
X208975000Y-144900000D01*
G75*
G02*
X209225000Y-144650000I250000J0D01*
G01*
X210175000Y-144650000D01*
G75*
G02*
X210425000Y-144900000I0J-250000D01*
G01*
X210425000Y-145400000D01*
G75*
G02*
X210175000Y-145650000I-250000J0D01*
G01*
G37*
G04 #@! TD.AperFunction*
G04 #@! TA.AperFunction,SMDPad,CuDef*
G36*
G01*
X143938800Y-125864600D02*
X143938800Y-126814600D01*
G75*
G02*
X143688800Y-127064600I-250000J0D01*
G01*
X143188800Y-127064600D01*
G75*
G02*
X142938800Y-126814600I0J250000D01*
G01*
X142938800Y-125864600D01*
G75*
G02*
X143188800Y-125614600I250000J0D01*
G01*
X143688800Y-125614600D01*
G75*
G02*
X143938800Y-125864600I0J-250000D01*
G01*
G37*
G04 #@! TD.AperFunction*
G04 #@! TA.AperFunction,SMDPad,CuDef*
G36*
G01*
X145838800Y-125864600D02*
X145838800Y-126814600D01*
G75*
G02*
X145588800Y-127064600I-250000J0D01*
G01*
X145088800Y-127064600D01*
G75*
G02*
X144838800Y-126814600I0J250000D01*
G01*
X144838800Y-125864600D01*
G75*
G02*
X145088800Y-125614600I250000J0D01*
G01*
X145588800Y-125614600D01*
G75*
G02*
X145838800Y-125864600I0J-250000D01*
G01*
G37*
G04 #@! TD.AperFunction*
G04 #@! TA.AperFunction,SMDPad,CuDef*
G36*
G01*
X156649400Y-139372800D02*
X157599400Y-139372800D01*
G75*
G02*
X157849400Y-139622800I0J-250000D01*
G01*
X157849400Y-140122800D01*
G75*
G02*
X157599400Y-140372800I-250000J0D01*
G01*
X156649400Y-140372800D01*
G75*
G02*
X156399400Y-140122800I0J250000D01*
G01*
X156399400Y-139622800D01*
G75*
G02*
X156649400Y-139372800I250000J0D01*
G01*
G37*
G04 #@! TD.AperFunction*
G04 #@! TA.AperFunction,SMDPad,CuDef*
G36*
G01*
X156649400Y-137472800D02*
X157599400Y-137472800D01*
G75*
G02*
X157849400Y-137722800I0J-250000D01*
G01*
X157849400Y-138222800D01*
G75*
G02*
X157599400Y-138472800I-250000J0D01*
G01*
X156649400Y-138472800D01*
G75*
G02*
X156399400Y-138222800I0J250000D01*
G01*
X156399400Y-137722800D01*
G75*
G02*
X156649400Y-137472800I250000J0D01*
G01*
G37*
G04 #@! TD.AperFunction*
G04 #@! TA.AperFunction,SMDPad,CuDef*
G36*
G01*
X166199800Y-136528000D02*
X167149800Y-136528000D01*
G75*
G02*
X167399800Y-136778000I0J-250000D01*
G01*
X167399800Y-137278000D01*
G75*
G02*
X167149800Y-137528000I-250000J0D01*
G01*
X166199800Y-137528000D01*
G75*
G02*
X165949800Y-137278000I0J250000D01*
G01*
X165949800Y-136778000D01*
G75*
G02*
X166199800Y-136528000I250000J0D01*
G01*
G37*
G04 #@! TD.AperFunction*
G04 #@! TA.AperFunction,SMDPad,CuDef*
G36*
G01*
X166199800Y-134628000D02*
X167149800Y-134628000D01*
G75*
G02*
X167399800Y-134878000I0J-250000D01*
G01*
X167399800Y-135378000D01*
G75*
G02*
X167149800Y-135628000I-250000J0D01*
G01*
X166199800Y-135628000D01*
G75*
G02*
X165949800Y-135378000I0J250000D01*
G01*
X165949800Y-134878000D01*
G75*
G02*
X166199800Y-134628000I250000J0D01*
G01*
G37*
G04 #@! TD.AperFunction*
G04 #@! TA.AperFunction,SMDPad,CuDef*
G36*
G01*
X172473200Y-119768600D02*
X172473200Y-120718600D01*
G75*
G02*
X172223200Y-120968600I-250000J0D01*
G01*
X171723200Y-120968600D01*
G75*
G02*
X171473200Y-120718600I0J250000D01*
G01*
X171473200Y-119768600D01*
G75*
G02*
X171723200Y-119518600I250000J0D01*
G01*
X172223200Y-119518600D01*
G75*
G02*
X172473200Y-119768600I0J-250000D01*
G01*
G37*
G04 #@! TD.AperFunction*
G04 #@! TA.AperFunction,SMDPad,CuDef*
G36*
G01*
X174373200Y-119768600D02*
X174373200Y-120718600D01*
G75*
G02*
X174123200Y-120968600I-250000J0D01*
G01*
X173623200Y-120968600D01*
G75*
G02*
X173373200Y-120718600I0J250000D01*
G01*
X173373200Y-119768600D01*
G75*
G02*
X173623200Y-119518600I250000J0D01*
G01*
X174123200Y-119518600D01*
G75*
G02*
X174373200Y-119768600I0J-250000D01*
G01*
G37*
G04 #@! TD.AperFunction*
G04 #@! TA.AperFunction,SMDPad,CuDef*
G36*
G01*
X223225000Y-117900000D02*
X224175000Y-117900000D01*
G75*
G02*
X224425000Y-118150000I0J-250000D01*
G01*
X224425000Y-118650000D01*
G75*
G02*
X224175000Y-118900000I-250000J0D01*
G01*
X223225000Y-118900000D01*
G75*
G02*
X222975000Y-118650000I0J250000D01*
G01*
X222975000Y-118150000D01*
G75*
G02*
X223225000Y-117900000I250000J0D01*
G01*
G37*
G04 #@! TD.AperFunction*
G04 #@! TA.AperFunction,SMDPad,CuDef*
G36*
G01*
X223225000Y-116000000D02*
X224175000Y-116000000D01*
G75*
G02*
X224425000Y-116250000I0J-250000D01*
G01*
X224425000Y-116750000D01*
G75*
G02*
X224175000Y-117000000I-250000J0D01*
G01*
X223225000Y-117000000D01*
G75*
G02*
X222975000Y-116750000I0J250000D01*
G01*
X222975000Y-116250000D01*
G75*
G02*
X223225000Y-116000000I250000J0D01*
G01*
G37*
G04 #@! TD.AperFunction*
G04 #@! TA.AperFunction,SMDPad,CuDef*
G36*
G01*
X187625000Y-93650000D02*
X188575000Y-93650000D01*
G75*
G02*
X188825000Y-93900000I0J-250000D01*
G01*
X188825000Y-94400000D01*
G75*
G02*
X188575000Y-94650000I-250000J0D01*
G01*
X187625000Y-94650000D01*
G75*
G02*
X187375000Y-94400000I0J250000D01*
G01*
X187375000Y-93900000D01*
G75*
G02*
X187625000Y-93650000I250000J0D01*
G01*
G37*
G04 #@! TD.AperFunction*
G04 #@! TA.AperFunction,SMDPad,CuDef*
G36*
G01*
X187625000Y-91750000D02*
X188575000Y-91750000D01*
G75*
G02*
X188825000Y-92000000I0J-250000D01*
G01*
X188825000Y-92500000D01*
G75*
G02*
X188575000Y-92750000I-250000J0D01*
G01*
X187625000Y-92750000D01*
G75*
G02*
X187375000Y-92500000I0J250000D01*
G01*
X187375000Y-92000000D01*
G75*
G02*
X187625000Y-91750000I250000J0D01*
G01*
G37*
G04 #@! TD.AperFunction*
G04 #@! TA.AperFunction,SMDPad,CuDef*
G36*
G01*
X185656200Y-94785600D02*
X186606200Y-94785600D01*
G75*
G02*
X186856200Y-95035600I0J-250000D01*
G01*
X186856200Y-95535600D01*
G75*
G02*
X186606200Y-95785600I-250000J0D01*
G01*
X185656200Y-95785600D01*
G75*
G02*
X185406200Y-95535600I0J250000D01*
G01*
X185406200Y-95035600D01*
G75*
G02*
X185656200Y-94785600I250000J0D01*
G01*
G37*
G04 #@! TD.AperFunction*
G04 #@! TA.AperFunction,SMDPad,CuDef*
G36*
G01*
X185656200Y-92885600D02*
X186606200Y-92885600D01*
G75*
G02*
X186856200Y-93135600I0J-250000D01*
G01*
X186856200Y-93635600D01*
G75*
G02*
X186606200Y-93885600I-250000J0D01*
G01*
X185656200Y-93885600D01*
G75*
G02*
X185406200Y-93635600I0J250000D01*
G01*
X185406200Y-93135600D01*
G75*
G02*
X185656200Y-92885600I250000J0D01*
G01*
G37*
G04 #@! TD.AperFunction*
G04 #@! TA.AperFunction,SMDPad,CuDef*
G36*
G01*
X190900000Y-91325000D02*
X190900000Y-92275000D01*
G75*
G02*
X190650000Y-92525000I-250000J0D01*
G01*
X190150000Y-92525000D01*
G75*
G02*
X189900000Y-92275000I0J250000D01*
G01*
X189900000Y-91325000D01*
G75*
G02*
X190150000Y-91075000I250000J0D01*
G01*
X190650000Y-91075000D01*
G75*
G02*
X190900000Y-91325000I0J-250000D01*
G01*
G37*
G04 #@! TD.AperFunction*
G04 #@! TA.AperFunction,SMDPad,CuDef*
G36*
G01*
X192800000Y-91325000D02*
X192800000Y-92275000D01*
G75*
G02*
X192550000Y-92525000I-250000J0D01*
G01*
X192050000Y-92525000D01*
G75*
G02*
X191800000Y-92275000I0J250000D01*
G01*
X191800000Y-91325000D01*
G75*
G02*
X192050000Y-91075000I250000J0D01*
G01*
X192550000Y-91075000D01*
G75*
G02*
X192800000Y-91325000I0J-250000D01*
G01*
G37*
G04 #@! TD.AperFunction*
D32*
X206550000Y-168700000D03*
X202650000Y-169150000D03*
D33*
X215250000Y-152050000D03*
X215400000Y-163000000D03*
D32*
X202350000Y-181650000D03*
X202650000Y-188750000D03*
X161500000Y-93200000D03*
D34*
X193700000Y-96200000D03*
D32*
X218400000Y-110700000D03*
X223700000Y-120000000D03*
X211100000Y-143600000D03*
D33*
X153400000Y-159800000D03*
X164200000Y-158400000D03*
D34*
X160528000Y-173990000D03*
X159766000Y-173228000D03*
X159004000Y-172466000D03*
X158242000Y-171704000D03*
X156210000Y-171704000D03*
X156972000Y-172466000D03*
X157734000Y-173228000D03*
X158496000Y-173990000D03*
X160020000Y-175514000D03*
X160782000Y-176276000D03*
X160782000Y-177292000D03*
X162052000Y-177292000D03*
X162052000Y-176276000D03*
X161290000Y-174752000D03*
X162052000Y-175514000D03*
X163322000Y-181102000D03*
X160528000Y-181102000D03*
X159512000Y-181102000D03*
X159512000Y-185420000D03*
X159004000Y-183134000D03*
X153670000Y-185420000D03*
X164846000Y-183896000D03*
X152654000Y-177292000D03*
X153670000Y-178054000D03*
X155829000Y-174371000D03*
X156718000Y-174371000D03*
X157734000Y-174371000D03*
X156718000Y-175641000D03*
X159258000Y-174752000D03*
X160782000Y-178308000D03*
X162052000Y-178308000D03*
X163068000Y-178308000D03*
X156337000Y-181864000D03*
X155829000Y-182626000D03*
X157226000Y-182626000D03*
D32*
X181356000Y-118160800D03*
X185064400Y-122682000D03*
X176174400Y-113131600D03*
X175260000Y-110236000D03*
D34*
X138582400Y-139954000D03*
X233273600Y-135534400D03*
X175361600Y-117652800D03*
D32*
X226526790Y-124307516D03*
D34*
X210210400Y-135074010D03*
X213715600Y-135788400D03*
X212344000Y-128016000D03*
D32*
X217881200Y-134569200D03*
D34*
X148793200Y-141325600D03*
X141325600Y-138176000D03*
X154381200Y-143103600D03*
X155752800Y-139954000D03*
D32*
X156259693Y-177015334D03*
X231698800Y-162306000D03*
X226009200Y-161544000D03*
X226833014Y-158466986D03*
D34*
X233426000Y-149250400D03*
X143459200Y-127158779D03*
X137922000Y-125018800D03*
X145237200Y-121920000D03*
D32*
X176990755Y-122984981D03*
D33*
X173024800Y-158578465D03*
X156362400Y-167995600D03*
D34*
X147320000Y-157022800D03*
X147929600Y-161798000D03*
X145237192Y-158235621D03*
D32*
X154422410Y-138420200D03*
D34*
X221700000Y-134300000D03*
X224685210Y-156201751D03*
D32*
X226580779Y-134112000D03*
D34*
X197100000Y-96192990D03*
X163931600Y-139852400D03*
X162102800Y-139801600D03*
X162204400Y-137464800D03*
X164287200Y-137871200D03*
X166573200Y-138023600D03*
X208378410Y-143214913D03*
X214907850Y-140357210D03*
D33*
X169955514Y-158548952D03*
D32*
X199347204Y-160061254D03*
D34*
X157784800Y-134772400D03*
D32*
X221157617Y-148691519D03*
D34*
X172516800Y-121920000D03*
X209651600Y-130302000D03*
X220370400Y-142595600D03*
X202184000Y-141986000D03*
X167182800Y-139395200D03*
X216255600Y-144475200D03*
X214680800Y-146913600D03*
X195478400Y-148793200D03*
X167538400Y-147726400D03*
X159410400Y-147421600D03*
X159359600Y-139954000D03*
X223936951Y-144031501D03*
X162407600Y-138582400D03*
X223012000Y-148640800D03*
X200517835Y-147158828D03*
X169703484Y-130892284D03*
X198935912Y-128501790D03*
X189452117Y-127305878D03*
X162658075Y-133759590D03*
X173177200Y-130048000D03*
X224688400Y-139954000D03*
X196088000Y-138023600D03*
X192430400Y-130505200D03*
X166624000Y-139954000D03*
X224942400Y-150164800D03*
X201320400Y-150926800D03*
D32*
X165201600Y-165404800D03*
X154228800Y-165303200D03*
X153924000Y-174396400D03*
X164258927Y-140806607D03*
X188150000Y-95700000D03*
D34*
X190400000Y-93100000D03*
X193855610Y-92297064D03*
D32*
X187698390Y-107050000D03*
X188141846Y-99275821D03*
D34*
X191000000Y-95700000D03*
X197600000Y-95300000D03*
D32*
X188100000Y-91100000D03*
X166300000Y-92700000D03*
D34*
X191400000Y-93100000D03*
D32*
X219900000Y-137600000D03*
X207700000Y-169300000D03*
D33*
X216050000Y-157450000D03*
X212900000Y-157450000D03*
X212900000Y-157450000D03*
X209550000Y-157450000D03*
D32*
X217900000Y-126100000D03*
X211200000Y-145000000D03*
X181660800Y-116281200D03*
X186182000Y-113690400D03*
X178994986Y-116866937D03*
X231800400Y-158750000D03*
X225332990Y-136050000D03*
X157937200Y-122682000D03*
X131165600Y-148285200D03*
X148894800Y-115417600D03*
D33*
X129184400Y-141122400D03*
D32*
X226009200Y-165049200D03*
D34*
X160832800Y-155448000D03*
X161239200Y-151028400D03*
X225958400Y-163576000D03*
X208378410Y-144383636D03*
D32*
X225714308Y-151776073D03*
X160875033Y-133613590D03*
X209062344Y-147700005D03*
D33*
X164688911Y-150242390D03*
D32*
X222182464Y-139097436D03*
X216814400Y-118821200D03*
D33*
X179527200Y-112217200D03*
D34*
X174802800Y-119532400D03*
X151942800Y-143002000D03*
X151711826Y-138318423D03*
X154975800Y-136674210D03*
X152402566Y-136775810D03*
X147929600Y-122428000D03*
X148183600Y-125323600D03*
X144272000Y-124968000D03*
X145034000Y-125018800D03*
X152908000Y-133197600D03*
X145948400Y-134620000D03*
X147218400Y-124053600D03*
X145338800Y-127355600D03*
X153063590Y-135219026D03*
X143118640Y-124828535D03*
X148287841Y-123212210D03*
X218700000Y-113800000D03*
X228824916Y-114175084D03*
D32*
X230501610Y-158848075D03*
D34*
X229080799Y-136023121D03*
X229549934Y-139804790D03*
D33*
X158433333Y-154633333D03*
D34*
X159766000Y-176784000D03*
D33*
X163613481Y-154181190D03*
D32*
X229800000Y-157800000D03*
X228420753Y-148195526D03*
D34*
X229870000Y-163118800D03*
X225501200Y-154889200D03*
X228259538Y-145138599D03*
X223319990Y-159198672D03*
X223149700Y-150358947D03*
X219341632Y-150991755D03*
X220405368Y-158394400D03*
X218694000Y-158648400D03*
X218301010Y-144833990D03*
X225938342Y-143994875D03*
X138277600Y-141528800D03*
X139960379Y-127643493D03*
X139960379Y-122555234D03*
X142303745Y-122390856D03*
X142036800Y-128625600D03*
X142175740Y-120984363D03*
X140922390Y-121059590D03*
X142036800Y-136550400D03*
X142290804Y-121682963D03*
X142646400Y-130048000D03*
X156921200Y-132791200D03*
X156514800Y-136042400D03*
X156221876Y-130567876D03*
X156097691Y-128273190D03*
X142951200Y-119634000D03*
X138734800Y-119684800D03*
X138582400Y-122123200D03*
X154432000Y-122174000D03*
X154839944Y-127869979D03*
X159562800Y-136398000D03*
X159617821Y-133420026D03*
X154718920Y-133200790D03*
X213817200Y-176784000D03*
X220932390Y-175700137D03*
X225499172Y-145507017D03*
X224944390Y-148003896D03*
X211756610Y-176022000D03*
X220185967Y-175594248D03*
X211226400Y-175158400D03*
X220579979Y-175006000D03*
D32*
X133705600Y-130911600D03*
X157910025Y-124838170D03*
X158060576Y-129933621D03*
D34*
X209718726Y-132071410D03*
X231184139Y-132585897D03*
X227349206Y-144440886D03*
X214834674Y-145696035D03*
X214985600Y-143880002D03*
X220549026Y-147053241D03*
X226679313Y-143131925D03*
X228644421Y-135465577D03*
X228509735Y-139804790D03*
X231422590Y-140092310D03*
X231889233Y-135495626D03*
D32*
X222500000Y-129625790D03*
X231740010Y-129625790D03*
X227068342Y-148249900D03*
D34*
X163017200Y-168351200D03*
X162661600Y-157226000D03*
X214020400Y-148031200D03*
X190042800Y-98196400D03*
X198374000Y-157327600D03*
X215900000Y-127254000D03*
X213634565Y-151482410D03*
X198444981Y-150737015D03*
X191058800Y-98298000D03*
X161899600Y-156768800D03*
X161747200Y-168300400D03*
X198929610Y-156771990D03*
X230073200Y-134874000D03*
X230479600Y-128473200D03*
X207822800Y-139801600D03*
X230233704Y-140227817D03*
X200097112Y-146505421D03*
X207386477Y-147258875D03*
D32*
X230396789Y-149682192D03*
D34*
X221437200Y-173278800D03*
X222353871Y-150323579D03*
D32*
X231200000Y-149000000D03*
D34*
X224311069Y-149189987D03*
X202641200Y-148590000D03*
X219100400Y-166624000D03*
X224942400Y-167690800D03*
X215769837Y-146891364D03*
X203375569Y-145037190D03*
D32*
X230700000Y-156100000D03*
X230845563Y-151349010D03*
X218919042Y-152390410D03*
D34*
X219142295Y-142627272D03*
X223208815Y-142732044D03*
D32*
X232000000Y-154900000D03*
X228698390Y-151752221D03*
D34*
X229454263Y-141119210D03*
X196700557Y-157791179D03*
X197411985Y-140758515D03*
X164439600Y-130810000D03*
X200050400Y-127050800D03*
X224500000Y-127878400D03*
X170033684Y-130003284D03*
X199659828Y-131498891D03*
X191756901Y-131476975D03*
X210817484Y-131533967D03*
X229805276Y-131998719D03*
X210236502Y-132569732D03*
X231611616Y-133150294D03*
X211175600Y-130556000D03*
X228468134Y-131339346D03*
X201168000Y-128320800D03*
X149171143Y-138161770D03*
X149352000Y-136194800D03*
X189798023Y-127923640D03*
X165440118Y-134870810D03*
X203067591Y-128133918D03*
X150768853Y-140748581D03*
X150723600Y-129717791D03*
X153679217Y-128286020D03*
X151107352Y-135261379D03*
X203650019Y-127731353D03*
X149258975Y-139464118D03*
X150012400Y-128892190D03*
X150825200Y-127254000D03*
X149809626Y-134208144D03*
X200152619Y-132562018D03*
X159969200Y-143814800D03*
X148640800Y-143560800D03*
X148230003Y-139453090D03*
X160230210Y-135026400D03*
X164716720Y-134870810D03*
X192331990Y-132019622D03*
X149228190Y-127475776D03*
X148923399Y-130273401D03*
X200342842Y-131261506D03*
X148459501Y-138158118D03*
X149206376Y-134578778D03*
X148651947Y-128031386D03*
X200465685Y-130563940D03*
X193250137Y-127027199D03*
X148603165Y-138851401D03*
X148499540Y-134861946D03*
X194113418Y-130516014D03*
X149247332Y-126212270D03*
X193652790Y-124796455D03*
X199644661Y-133055231D03*
X194731701Y-132498750D03*
X148808382Y-125656660D03*
X192603987Y-124494719D03*
X200290534Y-133673230D03*
X194009466Y-132562267D03*
X199593200Y-134264400D03*
X156565600Y-122326400D03*
X148227455Y-121785689D03*
X157122050Y-127708222D03*
X192122410Y-126706904D03*
X195119610Y-134221298D03*
X186900000Y-100550000D03*
X187350400Y-122580400D03*
X231038400Y-123647200D03*
X186883704Y-96496500D03*
X231952800Y-145084800D03*
X232562400Y-130454400D03*
X218287600Y-130251200D03*
X189839600Y-102209600D03*
X222190087Y-152244410D03*
D32*
X223798390Y-124247210D03*
D34*
X225294092Y-143701238D03*
D33*
X167132000Y-122326400D03*
D34*
X167140690Y-157881612D03*
X198485168Y-141347214D03*
X166119190Y-146322022D03*
X197761210Y-157791179D03*
X223126391Y-141671632D03*
X166573200Y-156308410D03*
X217667957Y-144437971D03*
X166068390Y-144424400D03*
X196342000Y-155873546D03*
X217878010Y-150771210D03*
X222865989Y-144017691D03*
X196938843Y-150207722D03*
X150327568Y-120280108D03*
X150785121Y-125637968D03*
X213249750Y-141718846D03*
X215204817Y-127119831D03*
X220463417Y-141131978D03*
X216103200Y-125018800D03*
X217229114Y-142053154D03*
X224157473Y-142114338D03*
X220238499Y-143343934D03*
X169516410Y-153225668D03*
X197274639Y-144817097D03*
X225145600Y-121716800D03*
X181254400Y-113030000D03*
X187858400Y-114503200D03*
X187756800Y-120954800D03*
X228142800Y-122275600D03*
X183235600Y-120650000D03*
X193903600Y-122475610D03*
X220754455Y-150755152D03*
X197799243Y-149250400D03*
X170942000Y-119278400D03*
X227228400Y-123494800D03*
X172069274Y-124524890D03*
D32*
X167589200Y-123748800D03*
D34*
X200863200Y-185572400D03*
X223686394Y-147707152D03*
X202417954Y-146222337D03*
X204774800Y-174498000D03*
X224993200Y-160680400D03*
X204927200Y-164033200D03*
X190504000Y-100795369D03*
X193051240Y-97107678D03*
X142215372Y-145503980D03*
X151028400Y-147370800D03*
X143764000Y-154736800D03*
X151079200Y-154689190D03*
X141680390Y-146059590D03*
X143865600Y-148132800D03*
X149453600Y-132283200D03*
X149777448Y-121313590D03*
X146710400Y-119078390D03*
X144881600Y-118567200D03*
X141325600Y-133197600D03*
X140708565Y-118393387D03*
X145694400Y-118465600D03*
X153931958Y-120899789D03*
X154232450Y-134852763D03*
X154736800Y-120954800D03*
X144322800Y-117449600D03*
X154743553Y-134362810D03*
X145542000Y-138379200D03*
X145064044Y-141555044D03*
X152654000Y-140258800D03*
X152934054Y-137243571D03*
X152006106Y-138962380D03*
X152044400Y-141935200D03*
X230900000Y-144400000D03*
X223418400Y-132740400D03*
X210822319Y-132997590D03*
X222758000Y-133248400D03*
X210464400Y-133657990D03*
X144475200Y-159613600D03*
D32*
X217017600Y-121615200D03*
X208788000Y-129286000D03*
X217017600Y-129286000D03*
D34*
X209448400Y-134112000D03*
X217017600Y-134213600D03*
D32*
X204809590Y-128072807D03*
D34*
X149893047Y-140919445D03*
X150288610Y-137711070D03*
X150330955Y-135186087D03*
X150514011Y-132537200D03*
X148539200Y-160629600D03*
X189890400Y-128676400D03*
X168436839Y-133936929D03*
D32*
X207272859Y-127912415D03*
D34*
X157226000Y-123342400D03*
X152247600Y-123342400D03*
D32*
X135432800Y-150469600D03*
D34*
X148643990Y-163982400D03*
X149018610Y-153263600D03*
X146964400Y-164846000D03*
X138379200Y-165455600D03*
X149707600Y-153520790D03*
D33*
X129794000Y-143560800D03*
D34*
X139852400Y-155645180D03*
X135483600Y-156362400D03*
X138690778Y-157551068D03*
X146862800Y-152196800D03*
X146459590Y-147472400D03*
X206502000Y-138836400D03*
X146459590Y-149659990D03*
X170078400Y-153971610D03*
X197767919Y-138917767D03*
X147167600Y-146507200D03*
X147015200Y-151434800D03*
X205204270Y-138324422D03*
X147167600Y-148897990D03*
X170897416Y-154219394D03*
X196988876Y-138138724D03*
X199999600Y-153924000D03*
X140665200Y-149910800D03*
X140614400Y-152196800D03*
X139852400Y-147574000D03*
X161966440Y-150009210D03*
X161879520Y-155114979D03*
X140665200Y-146659600D03*
X199542400Y-154940000D03*
X168424992Y-156308410D03*
X141220810Y-149047200D03*
X141224000Y-151180800D03*
X166579579Y-149025352D03*
X152908000Y-156210000D03*
X153873200Y-129946400D03*
X210870800Y-137261600D03*
X146379314Y-156604123D03*
X169991823Y-128813769D03*
X191052411Y-128802133D03*
X196052648Y-137160200D03*
X194692984Y-129489781D03*
X160528000Y-129895600D03*
X145999200Y-156006800D03*
X160490724Y-153808876D03*
X207667210Y-137804388D03*
X169316400Y-129746390D03*
X195431697Y-129187590D03*
X191963691Y-128927661D03*
X197260435Y-137484862D03*
X145288000Y-155397200D03*
X170027600Y-154990800D03*
X207111600Y-151885621D03*
X193707418Y-154838612D03*
X140055600Y-160375600D03*
X206502000Y-128371600D03*
D35*
X217500000Y-111600000D02*
X218400000Y-110700000D01*
X217500000Y-111875000D02*
X217500000Y-111600000D01*
X223700000Y-118400000D02*
X223700000Y-120000000D01*
X210750000Y-143250000D02*
X211100000Y-143600000D01*
X209700000Y-143250000D02*
X210750000Y-143250000D01*
X211350000Y-143350000D02*
X211100000Y-143600000D01*
X212800000Y-143350000D02*
X211350000Y-143350000D01*
X179527200Y-116332000D02*
X181356000Y-118160800D01*
X179527200Y-115580600D02*
X179527200Y-116332000D01*
X185517800Y-123135400D02*
X185064400Y-122682000D01*
X185517800Y-124155200D02*
X185517800Y-123135400D01*
X175666400Y-109829600D02*
X175260000Y-110236000D01*
X178055900Y-109829600D02*
X175666400Y-109829600D01*
D36*
X180089800Y-124358400D02*
X180293000Y-124155200D01*
X177850800Y-124358400D02*
X180089800Y-124358400D01*
D35*
X232500000Y-136723902D02*
X233273600Y-135950302D01*
X233273600Y-135950302D02*
X233273600Y-135534400D01*
X232500000Y-137948517D02*
X232500000Y-136723902D01*
X173852800Y-118364000D02*
X171973200Y-120243600D01*
X174087800Y-118364000D02*
X173852800Y-118364000D01*
X174650400Y-118364000D02*
X175361600Y-117652800D01*
X174087800Y-118364000D02*
X174650400Y-118364000D01*
D37*
X209625710Y-135074010D02*
X210210400Y-135074010D01*
X208263100Y-134541200D02*
X209092900Y-134541200D01*
X209092900Y-134541200D02*
X209625710Y-135074010D01*
D35*
X213649600Y-135722400D02*
X213715600Y-135788400D01*
X213649600Y-134518400D02*
X213649600Y-135722400D01*
X226009200Y-161544000D02*
X227380800Y-161557000D01*
X232500000Y-148324400D02*
X233426000Y-149250400D01*
X232500000Y-146948517D02*
X232500000Y-148324400D01*
X143438800Y-126339600D02*
X143438800Y-127138379D01*
X143438800Y-127138379D02*
X143459200Y-127158779D01*
X145784000Y-122764400D02*
X147021500Y-122764400D01*
X145237200Y-121920000D02*
X145784000Y-122764400D01*
D36*
X176990755Y-123498355D02*
X176990755Y-122984981D01*
X177850800Y-124358400D02*
X176990755Y-123498355D01*
D38*
X172974000Y-158140400D02*
X173024800Y-158191200D01*
X173024800Y-158191200D02*
X173024800Y-158578465D01*
D35*
X142736000Y-158280800D02*
X141986000Y-157530800D01*
X143973500Y-158280800D02*
X142736000Y-158280800D01*
X147523200Y-161391600D02*
X147929600Y-161798000D01*
X146862800Y-161391600D02*
X147523200Y-161391600D01*
X145192013Y-158280800D02*
X145237192Y-158235621D01*
X143973500Y-158280800D02*
X145192013Y-158280800D01*
X155834000Y-139872800D02*
X155752800Y-139954000D01*
X157124400Y-139872800D02*
X155834000Y-139872800D01*
D37*
X221500000Y-137948517D02*
X222500000Y-137948517D01*
D38*
X221500000Y-134500000D02*
X221700000Y-134300000D01*
X221500000Y-137948517D02*
X221500000Y-134500000D01*
D35*
X226500000Y-137948517D02*
X226500000Y-134192779D01*
X226500000Y-134192779D02*
X226580779Y-134112000D01*
D38*
X197092990Y-96200000D02*
X197100000Y-96192990D01*
X193700000Y-96200000D02*
X197092990Y-96200000D01*
X189059490Y-93259490D02*
X190000000Y-94200000D01*
X190000000Y-94200000D02*
X190000000Y-96200000D01*
X186300000Y-93300000D02*
X186340510Y-93259490D01*
X186340510Y-93259490D02*
X189059490Y-93259490D01*
X193446001Y-96453999D02*
X193700000Y-96200000D01*
X190000000Y-96200000D02*
X190253999Y-96453999D01*
X190253999Y-96453999D02*
X193446001Y-96453999D01*
D37*
X166674800Y-137922000D02*
X166573200Y-138023600D01*
X166674800Y-137028000D02*
X166674800Y-137922000D01*
D35*
X208413497Y-143250000D02*
X208378410Y-143214913D01*
X209700000Y-143250000D02*
X208413497Y-143250000D01*
X214800000Y-140465060D02*
X214907850Y-140357210D01*
X214925000Y-140340060D02*
X214907850Y-140357210D01*
X214925000Y-139100000D02*
X214925000Y-140340060D01*
X214800000Y-141600000D02*
X214800000Y-140465060D01*
X221500000Y-146948517D02*
X221500000Y-148349136D01*
X221500000Y-148349136D02*
X221157617Y-148691519D01*
X171973200Y-121376400D02*
X172516800Y-121920000D01*
X171973200Y-120243600D02*
X171973200Y-121376400D01*
X212801200Y-128473200D02*
X212344000Y-128016000D01*
X212801200Y-129286000D02*
X212801200Y-128473200D01*
X221500000Y-142948517D02*
X220723317Y-142948517D01*
X220723317Y-142948517D02*
X220370400Y-142595600D01*
X168960800Y-156108400D02*
X168960800Y-151497026D01*
X202184000Y-141986000D02*
X201862353Y-142307647D01*
X201862353Y-142307647D02*
X201862353Y-146489026D01*
X200797784Y-149061816D02*
X200797784Y-150627126D01*
X200764799Y-156093775D02*
X197718122Y-159140452D01*
X201896744Y-146523417D02*
X201896744Y-147962856D01*
X177499722Y-159140452D02*
X177226584Y-159413590D01*
X167135189Y-149671415D02*
X167135189Y-148145481D01*
X167182800Y-147259708D02*
X167182800Y-139395200D01*
X166982798Y-147459710D02*
X167182800Y-147259708D01*
X166982798Y-147993090D02*
X166982798Y-147459710D01*
X167135189Y-148145481D02*
X166982798Y-147993090D01*
X168960800Y-151497026D02*
X167135189Y-149671415D01*
X172265990Y-159413590D02*
X168960800Y-156108400D01*
X177226584Y-159413590D02*
X172265990Y-159413590D01*
X200764799Y-150660111D02*
X200764799Y-156093775D01*
X200797784Y-150627126D02*
X200764799Y-150660111D01*
X201896744Y-147962856D02*
X200797784Y-149061816D01*
X201862353Y-146489026D02*
X201896744Y-146523417D01*
X197718122Y-159140452D02*
X177499722Y-159140452D01*
X216255600Y-145097433D02*
X214680800Y-146672233D01*
X216255600Y-144475200D02*
X216255600Y-145097433D01*
X214680800Y-146672233D02*
X214680800Y-146913600D01*
X195478400Y-149114797D02*
X195173600Y-149419597D01*
X195478400Y-148793200D02*
X195478400Y-149114797D01*
X195173600Y-149419597D02*
X195173600Y-150876000D01*
X195173600Y-150876000D02*
X188925200Y-157124400D01*
X188925200Y-157124400D02*
X175158400Y-157124400D01*
X175158400Y-157124400D02*
X167538400Y-149504400D01*
X167538400Y-149504400D02*
X167538400Y-147726400D01*
X159410400Y-140004800D02*
X159359600Y-139954000D01*
X159410400Y-147421600D02*
X159410400Y-140004800D01*
X223000000Y-146148517D02*
X223000000Y-144968452D01*
X223000000Y-144968452D02*
X223936951Y-144031501D01*
X224388789Y-147059728D02*
X224388789Y-147793262D01*
X223541251Y-148640800D02*
X223012000Y-148640800D01*
X224388789Y-147793262D02*
X223541251Y-148640800D01*
X224500000Y-146948517D02*
X224388789Y-147059728D01*
X200517835Y-147158828D02*
X200652723Y-147023940D01*
X199847200Y-142477478D02*
X199847200Y-135585200D01*
X199847200Y-135585200D02*
X198935912Y-134673912D01*
X200652723Y-143283001D02*
X199847200Y-142477478D01*
X200652723Y-147023940D02*
X200652723Y-143283001D01*
X198935912Y-134673912D02*
X198935912Y-128501790D01*
D37*
X162407600Y-138582400D02*
X162963343Y-138026657D01*
X162963343Y-138026657D02*
X162963343Y-134064858D01*
X162963343Y-134064858D02*
X162658075Y-133759590D01*
X174068800Y-126730168D02*
X175729483Y-126730168D01*
X175821767Y-126822452D02*
X188968691Y-126822452D01*
X188968691Y-126822452D02*
X189452117Y-127305878D01*
X175729483Y-126730168D02*
X175821767Y-126822452D01*
X169906684Y-130892284D02*
X174068800Y-126730168D01*
X169703484Y-130892284D02*
X169906684Y-130892284D01*
X225000000Y-146148517D02*
X224687683Y-145836200D01*
X224687683Y-139954717D02*
X224688400Y-139954000D01*
X224687683Y-145836200D02*
X224687683Y-139954717D01*
D35*
X196088000Y-138023600D02*
X195600214Y-137535814D01*
X195600214Y-137535814D02*
X194530784Y-134688384D01*
X193143214Y-133190969D02*
X192989200Y-132999255D01*
X194530784Y-134688384D02*
X194530784Y-134578539D01*
X194530784Y-134578539D02*
X193143214Y-133190969D01*
X192989200Y-132999255D02*
X192989200Y-131317998D01*
X192989200Y-131317998D02*
X192519293Y-130848091D01*
X192519293Y-130594093D02*
X192430400Y-130505200D01*
X192519293Y-130848091D02*
X192519293Y-130594093D01*
X225500000Y-146948517D02*
X225500000Y-149353200D01*
X225500000Y-149353200D02*
X224942400Y-149910800D01*
X224942400Y-149910800D02*
X224942400Y-150164800D01*
X166023977Y-147848305D02*
X166674800Y-147197482D01*
X201320400Y-150926800D02*
X201320400Y-156108400D01*
X197885137Y-159543663D02*
X178071938Y-159543663D01*
X167792400Y-151469078D02*
X166328767Y-150005445D01*
X178071938Y-159543663D02*
X177494001Y-160121600D01*
X177494001Y-160121600D02*
X170383200Y-160121600D01*
X170383200Y-160121600D02*
X167792400Y-157530800D01*
X166328767Y-150005445D02*
X166328767Y-149596832D01*
X167792400Y-157530800D02*
X167792400Y-151469078D01*
X201320400Y-156108400D02*
X197885137Y-159543663D01*
X166328767Y-149596832D02*
X166023977Y-149292042D01*
X166674800Y-140004800D02*
X166624000Y-139954000D01*
X166023977Y-149292042D02*
X166023977Y-147848305D01*
X166674800Y-147197482D02*
X166674800Y-140004800D01*
X154228800Y-165303200D02*
X154228800Y-173177200D01*
X153924000Y-174396400D02*
X154228800Y-174091600D01*
X154228800Y-174091600D02*
X154228800Y-173177200D01*
X165201600Y-151902487D02*
X163858928Y-150559815D01*
X165201600Y-165404800D02*
X165201600Y-151902487D01*
X163858928Y-141206606D02*
X164258927Y-140806607D01*
X163858928Y-150559815D02*
X163858928Y-141206606D01*
D36*
X164008719Y-133890131D02*
X164008719Y-135210651D01*
X164008719Y-135210651D02*
X165147602Y-136349534D01*
X165147602Y-139917932D02*
X164258927Y-140806607D01*
X165147602Y-132751248D02*
X164008719Y-133890131D01*
X164759600Y-126322000D02*
X165147602Y-126710002D01*
X165147602Y-136349534D02*
X165147602Y-139917932D01*
X165147602Y-126710002D02*
X165147602Y-132751248D01*
D38*
X188150000Y-94200000D02*
X188100000Y-94150000D01*
X188150000Y-95700000D02*
X188150000Y-94200000D01*
D35*
X190400000Y-93100000D02*
X190400000Y-91800000D01*
D38*
X187650000Y-95200000D02*
X188150000Y-95700000D01*
X186300000Y-95200000D02*
X187650000Y-95200000D01*
X187698390Y-99719277D02*
X188141846Y-99275821D01*
X187698390Y-107050000D02*
X187698390Y-99719277D01*
X188150000Y-99267667D02*
X188141846Y-99275821D01*
X188150000Y-95700000D02*
X188150000Y-99267667D01*
X188100000Y-92250000D02*
X188100000Y-91100000D01*
D35*
X191400000Y-92700000D02*
X192300000Y-91800000D01*
X191400000Y-93100000D02*
X191400000Y-92700000D01*
X197600000Y-95300000D02*
X191400000Y-95300000D01*
X191400000Y-95300000D02*
X191000000Y-95700000D01*
X142236000Y-160190200D02*
X142236000Y-159518300D01*
X144896800Y-163576000D02*
X144896800Y-162851000D01*
X144896800Y-162851000D02*
X142236000Y-160190200D01*
X223700000Y-115824940D02*
X223700000Y-116500000D01*
X225386232Y-114138708D02*
X223700000Y-115824940D01*
D37*
X218664648Y-179730400D02*
X219506800Y-179730400D01*
X215922585Y-182472463D02*
X218664648Y-179730400D01*
D35*
X221248517Y-138948517D02*
X219900000Y-137600000D01*
X221500000Y-138948517D02*
X221248517Y-138948517D01*
X211350000Y-145150000D02*
X211200000Y-145000000D01*
X211050000Y-145150000D02*
X211200000Y-145000000D01*
X209700000Y-145150000D02*
X211050000Y-145150000D01*
X211450000Y-145250000D02*
X211200000Y-145000000D01*
X212800000Y-145250000D02*
X211450000Y-145250000D01*
X180960200Y-115580600D02*
X181660800Y-116281200D01*
X180527200Y-115580600D02*
X180960200Y-115580600D01*
X185267600Y-114604800D02*
X186182000Y-113690400D01*
X185060600Y-114604800D02*
X185267600Y-114604800D01*
X179027200Y-116834723D02*
X178994986Y-116866937D01*
X179027200Y-115580600D02*
X179027200Y-116834723D01*
X230884100Y-159666300D02*
X231800400Y-158750000D01*
X230884100Y-160223200D02*
X230884100Y-159666300D01*
D36*
X224716000Y-163629100D02*
X224678500Y-163591600D01*
X224716000Y-165491600D02*
X224716000Y-163629100D01*
X225566800Y-165491600D02*
X226009200Y-165049200D01*
X224716000Y-165491600D02*
X225566800Y-165491600D01*
X161560000Y-132738300D02*
X161547500Y-132750800D01*
X161560000Y-130650800D02*
X161560000Y-132738300D01*
D38*
X161239200Y-155041600D02*
X161239200Y-151028400D01*
X160832800Y-155448000D02*
X161239200Y-155041600D01*
D37*
X224694100Y-163576000D02*
X224678500Y-163591600D01*
X225958400Y-163576000D02*
X224694100Y-163576000D01*
D35*
X208933636Y-144383636D02*
X208378410Y-144383636D01*
X209700000Y-145150000D02*
X208933636Y-144383636D01*
D36*
X161547500Y-132941123D02*
X160875033Y-133613590D01*
X161547500Y-132750800D02*
X161547500Y-132941123D01*
D35*
X222300000Y-139448517D02*
X222300000Y-139214972D01*
X222300000Y-139214972D02*
X222182464Y-139097436D01*
X179527200Y-113730600D02*
X179527200Y-113131600D01*
D38*
X179527200Y-113131600D02*
X179527200Y-112217200D01*
D36*
X175022100Y-120532300D02*
X176123600Y-119430800D01*
X175022100Y-123088400D02*
X175022100Y-120532300D01*
D35*
X178527200Y-115580600D02*
X178527200Y-116214400D01*
D38*
X176123600Y-118618000D02*
X176123600Y-119430800D01*
X178527200Y-116214400D02*
X176123600Y-118618000D01*
D36*
X177850800Y-121158000D02*
X176123600Y-119430800D01*
X177850800Y-121408400D02*
X177850800Y-121158000D01*
D35*
X179027200Y-113730600D02*
X179027200Y-112987200D01*
X178023600Y-111983600D02*
X178023600Y-111658400D01*
X179027200Y-112987200D02*
X178023600Y-111983600D01*
X176123600Y-111658400D02*
X177292000Y-112826800D01*
X177292000Y-112826800D02*
X178155600Y-112826800D01*
X178527200Y-113198400D02*
X178527200Y-113730600D01*
X178155600Y-112826800D02*
X178527200Y-113198400D01*
X174091600Y-120243600D02*
X174802800Y-119532400D01*
X173873200Y-120243600D02*
X174091600Y-120243600D01*
X166674800Y-133502400D02*
X166674800Y-135128000D01*
X140375600Y-161747200D02*
X141236000Y-160886800D01*
X141236000Y-160886800D02*
X141236000Y-159518300D01*
X142275600Y-161747200D02*
X141736000Y-161207600D01*
X141736000Y-161207600D02*
X141736000Y-159518300D01*
X142736000Y-159920730D02*
X142736000Y-159518300D01*
X144206870Y-161391600D02*
X142736000Y-159920730D01*
X144962800Y-161391600D02*
X144206870Y-161391600D01*
D37*
X151457827Y-138572422D02*
X151711826Y-138318423D01*
X151457827Y-142517027D02*
X151457827Y-138572422D01*
X151942800Y-143002000D02*
X151457827Y-142517027D01*
X151711826Y-137466550D02*
X152402566Y-136775810D01*
D35*
X157124400Y-137972800D02*
X156274390Y-137972800D01*
X156274390Y-137972800D02*
X154975800Y-136674210D01*
D37*
X151711826Y-138318423D02*
X151711826Y-137466550D01*
X147021500Y-122264400D02*
X147766000Y-122264400D01*
X147766000Y-122264400D02*
X147929600Y-122428000D01*
X147878021Y-125018021D02*
X148183600Y-125323600D01*
X145431589Y-124644775D02*
X145751626Y-124964810D01*
X145284000Y-124446384D02*
X145431589Y-124593973D01*
X145882016Y-124964810D02*
X145935227Y-125018021D01*
X145431589Y-124593973D02*
X145431589Y-124644775D01*
X145751626Y-124964810D02*
X145882016Y-124964810D01*
X145935227Y-125018021D02*
X147878021Y-125018021D01*
X145284000Y-124001900D02*
X145284000Y-124446384D01*
X144272000Y-124013900D02*
X144284000Y-124001900D01*
X144272000Y-124968000D02*
X144272000Y-124013900D01*
X144784000Y-124768800D02*
X145034000Y-125018800D01*
X144784000Y-124001900D02*
X144784000Y-124768800D01*
D35*
X146284000Y-124001900D02*
X147021500Y-123264400D01*
X145338800Y-134010400D02*
X145948400Y-134620000D01*
X147166700Y-124001900D02*
X147218400Y-124053600D01*
X146284000Y-124001900D02*
X147166700Y-124001900D01*
X145338800Y-126339600D02*
X145338800Y-127355600D01*
X145338800Y-127355600D02*
X145338800Y-134010400D01*
D37*
X152908000Y-133197600D02*
X152908000Y-135063436D01*
X152908000Y-135063436D02*
X153063590Y-135219026D01*
X143784000Y-124001900D02*
X143118640Y-124667260D01*
X143118640Y-124667260D02*
X143118640Y-124828535D01*
X145784000Y-124368410D02*
X146081200Y-124665610D01*
X145784000Y-124001900D02*
X145784000Y-124368410D01*
X148287841Y-123768859D02*
X148287841Y-123212210D01*
X146081200Y-124665610D02*
X147391090Y-124665610D01*
X147391090Y-124665610D02*
X148287841Y-123768859D01*
D35*
X221015579Y-107896769D02*
X219700000Y-109212348D01*
X219700000Y-111700000D02*
X219900000Y-111900000D01*
X219700000Y-109212348D02*
X219700000Y-111700000D01*
X217600000Y-113800000D02*
X217500000Y-113700000D01*
X218700000Y-113800000D02*
X217600000Y-113800000D01*
X219900000Y-113800000D02*
X218700000Y-113800000D01*
X229500000Y-146948517D02*
X229122189Y-147326328D01*
X229122189Y-147326328D02*
X229122189Y-148179858D01*
X229122189Y-148179858D02*
X229695187Y-148752856D01*
X229695187Y-150018962D02*
X229898398Y-150222173D01*
X229695187Y-148752856D02*
X229695187Y-150018962D01*
X229898398Y-150222173D02*
X229898398Y-156860028D01*
X229898398Y-156860028D02*
X230501610Y-157463240D01*
X230501610Y-157463240D02*
X230501610Y-158848075D01*
D37*
X228824916Y-114426532D02*
X230152591Y-115754207D01*
X229144171Y-135180627D02*
X229174623Y-135211079D01*
X230152590Y-128015510D02*
X229351635Y-128816465D01*
X229174623Y-135211079D02*
X229174623Y-135929297D01*
X229351635Y-131724250D02*
X229144171Y-131931714D01*
X230152591Y-115754207D02*
X230152590Y-128015510D01*
X229144171Y-131931714D02*
X229144171Y-135180627D01*
X228824916Y-114175084D02*
X228824916Y-114426532D01*
X229174623Y-135929297D02*
X229080799Y-136023121D01*
X229351635Y-128816465D02*
X229351635Y-131724250D01*
X229549934Y-140316400D02*
X229549934Y-139804790D01*
X229984471Y-140750937D02*
X229549934Y-140316400D01*
X229984471Y-145266976D02*
X229984471Y-140750937D01*
X229500000Y-145751447D02*
X229984471Y-145266976D01*
X229500000Y-146948517D02*
X229500000Y-145751447D01*
D35*
X216350000Y-141600000D02*
X216452448Y-141497552D01*
X216452448Y-141497552D02*
X218497552Y-141497552D01*
X218497552Y-141497552D02*
X218600000Y-141600000D01*
D37*
X219950634Y-140249366D02*
X220863887Y-140249366D01*
X218600000Y-141600000D02*
X219950634Y-140249366D01*
X221063038Y-140448517D02*
X222300000Y-140448517D01*
X220863887Y-140249366D02*
X221063038Y-140448517D01*
D35*
X216475000Y-139100000D02*
X218600000Y-139100000D01*
D37*
X221500000Y-139948517D02*
X220651483Y-139100000D01*
X220651483Y-139100000D02*
X218600000Y-139100000D01*
X210901200Y-129286000D02*
X210088400Y-128473200D01*
X208456100Y-128473200D02*
X207575600Y-129353700D01*
X210088400Y-128473200D02*
X208456100Y-128473200D01*
D35*
X229800000Y-157800000D02*
X229400001Y-157400001D01*
X229400001Y-157400001D02*
X229400001Y-150294002D01*
X229400001Y-150294002D02*
X228420753Y-149314754D01*
X228420753Y-149314754D02*
X228420753Y-148195526D01*
X227380800Y-160007000D02*
X227593000Y-160007000D01*
X227597000Y-160223200D02*
X227380800Y-160007000D01*
X229059100Y-160223200D02*
X227597000Y-160223200D01*
X229870000Y-163118800D02*
X229870000Y-160985200D01*
X229108000Y-160223200D02*
X229059100Y-160223200D01*
X229870000Y-160985200D02*
X229108000Y-160223200D01*
X229800000Y-159482300D02*
X229059100Y-160223200D01*
X229800000Y-157800000D02*
X229800000Y-159482300D01*
X225501200Y-154889200D02*
X225755199Y-155143199D01*
X225542422Y-158168622D02*
X227380800Y-160007000D01*
X225542422Y-156663542D02*
X225542422Y-158168622D01*
X225755199Y-156450765D02*
X225542422Y-156663542D01*
X225755199Y-155143199D02*
X225755199Y-156450765D01*
X227877744Y-144158583D02*
X228259538Y-144540377D01*
X228000000Y-138748517D02*
X227877744Y-138870773D01*
X227877744Y-138870773D02*
X227877744Y-144158583D01*
X228259538Y-144540377D02*
X228259538Y-145138599D01*
D37*
X223319990Y-159198672D02*
X223319990Y-150529237D01*
X223319990Y-150529237D02*
X223149700Y-150358947D01*
X221047600Y-140948517D02*
X220700860Y-140601777D01*
X219840198Y-140970499D02*
X219840198Y-142957535D01*
X221500000Y-140948517D02*
X221047600Y-140948517D01*
X219506808Y-143290925D02*
X219506808Y-145970043D01*
X220700860Y-140601777D02*
X220208920Y-140601777D01*
X219840198Y-142957535D02*
X219506808Y-143290925D01*
X220208920Y-140601777D02*
X219840198Y-140970499D01*
X219506808Y-145970043D02*
X219314005Y-146162846D01*
X219314005Y-146162846D02*
X219314005Y-150964128D01*
X219314005Y-150964128D02*
X219341632Y-150991755D01*
X220224245Y-147513158D02*
X220224245Y-158213277D01*
X220224245Y-158213277D02*
X220405368Y-158394400D01*
X222300000Y-145448517D02*
X221101626Y-145448517D01*
X221101626Y-145448517D02*
X220018825Y-146531318D01*
X220018825Y-146531318D02*
X220018825Y-147307738D01*
X220018825Y-147307738D02*
X220224245Y-147513158D01*
X218408211Y-151025707D02*
X218408211Y-144941191D01*
X218242840Y-158197240D02*
X218242840Y-151191078D01*
X218408211Y-144941191D02*
X218301010Y-144833990D01*
X218694000Y-158648400D02*
X218242840Y-158197240D01*
X218242840Y-151191078D02*
X218408211Y-151025707D01*
X225824293Y-143446741D02*
X225824293Y-143880826D01*
X225000000Y-138748517D02*
X225571012Y-139319529D01*
X225824293Y-143880826D02*
X225938342Y-143994875D01*
X225571012Y-139319529D02*
X225571012Y-142608156D01*
X225464889Y-142714279D02*
X225464889Y-143087337D01*
X225571012Y-142608156D02*
X225464889Y-142714279D01*
X225464889Y-143087337D02*
X225824293Y-143446741D01*
D35*
X139960379Y-127284283D02*
X139960379Y-122555234D01*
X139960379Y-127643493D02*
X139960379Y-127284283D01*
X138277600Y-141528800D02*
X139960379Y-139846021D01*
X139960379Y-139846021D02*
X139960379Y-127643493D01*
X137439405Y-112514201D02*
X138775217Y-112514201D01*
X136457819Y-113495788D02*
X137439405Y-112514201D01*
X136457819Y-114386213D02*
X136457819Y-113495788D01*
X139960379Y-117888773D02*
X136457819Y-114386213D01*
X139960379Y-122555234D02*
X139960379Y-117888773D01*
X143046500Y-122264400D02*
X142430201Y-122264400D01*
X142430201Y-122264400D02*
X142303745Y-122390856D01*
D37*
X143046500Y-121264400D02*
X142659000Y-121264400D01*
X142378963Y-120984363D02*
X142175740Y-120984363D01*
D35*
X141277990Y-117166172D02*
X141277989Y-120381385D01*
X141277989Y-120381385D02*
X140922390Y-120736984D01*
X139387401Y-115275583D02*
X141277990Y-117166172D01*
D37*
X142659000Y-121264400D02*
X142378963Y-120984363D01*
D35*
X140922390Y-120736984D02*
X140922390Y-121059590D01*
X141782801Y-128371601D02*
X142036800Y-128625600D01*
X140922390Y-121059590D02*
X140922390Y-124387894D01*
X140922390Y-124387894D02*
X141782801Y-125248305D01*
X141782801Y-125248305D02*
X141782801Y-128371601D01*
D37*
X142036800Y-136550400D02*
X142036800Y-128625600D01*
D35*
X143046500Y-121764400D02*
X142372241Y-121764400D01*
X142372241Y-121764400D02*
X142290804Y-121682963D01*
D37*
X142113112Y-121860655D02*
X142290804Y-121682963D01*
X142049248Y-121860655D02*
X142113112Y-121860655D01*
X141427200Y-122482703D02*
X142049248Y-121860655D01*
X141427200Y-124053600D02*
X141427200Y-122482703D01*
X142646400Y-125272800D02*
X141427200Y-124053600D01*
X142646400Y-130048000D02*
X142646400Y-125272800D01*
X156514800Y-133197600D02*
X156514800Y-136042400D01*
X156921200Y-132791200D02*
X156514800Y-133197600D01*
X156921200Y-131267200D02*
X156221876Y-130567876D01*
X156921200Y-132791200D02*
X156921200Y-131267200D01*
D35*
X156221876Y-128397375D02*
X156097691Y-128273190D01*
X156221876Y-130567876D02*
X156221876Y-128397375D01*
X143046500Y-119729300D02*
X142951200Y-119634000D01*
X143046500Y-120764400D02*
X143046500Y-119729300D01*
X138582400Y-119837200D02*
X138734800Y-119684800D01*
X138582400Y-122123200D02*
X138582400Y-119837200D01*
X154432000Y-122174000D02*
X154839944Y-122581944D01*
X154839944Y-122581944D02*
X154839944Y-127869979D01*
D37*
X159562800Y-136398000D02*
X159562800Y-133475047D01*
X159562800Y-133475047D02*
X159617821Y-133420026D01*
X154839944Y-133079766D02*
X154718920Y-133200790D01*
X154839944Y-127869979D02*
X154839944Y-133079766D01*
X213841939Y-176808739D02*
X213817200Y-176784000D01*
X213841939Y-183929348D02*
X213841939Y-176808739D01*
X221307476Y-151485215D02*
X221823669Y-150969022D01*
X221823669Y-150969022D02*
X221823669Y-150096528D01*
X222126820Y-149793377D02*
X222922979Y-149793377D01*
X224712460Y-148003896D02*
X224944390Y-148003896D01*
X222922979Y-149793377D02*
X224712460Y-148003896D01*
X221823669Y-150096528D02*
X222126820Y-149793377D01*
X221307476Y-171279279D02*
X221307476Y-151485215D01*
X220906999Y-171679756D02*
X221307476Y-171279279D01*
X220906999Y-173584097D02*
X220906999Y-171679756D01*
X221186389Y-173863487D02*
X220906999Y-173584097D01*
X220932390Y-175700137D02*
X221186389Y-175446138D01*
X221186389Y-175446138D02*
X221186389Y-173863487D01*
X226176704Y-143300768D02*
X226176704Y-143448537D01*
X225499172Y-145201091D02*
X225499172Y-145507017D01*
X227000000Y-138748517D02*
X227000000Y-141815270D01*
X227000000Y-141815270D02*
X225845603Y-142969667D01*
X226468544Y-143740377D02*
X226468544Y-144231719D01*
X226468544Y-144231719D02*
X225499172Y-145201091D01*
X225845603Y-142969667D02*
X226176704Y-143300768D01*
X226176704Y-143448537D02*
X226468544Y-143740377D01*
X211778324Y-185369200D02*
X211761292Y-185386232D01*
X211761292Y-185386232D02*
X211761292Y-176026682D01*
X211761292Y-176026682D02*
X211756610Y-176022000D01*
X221500000Y-144948517D02*
X221026718Y-144948517D01*
X219666415Y-147453712D02*
X219871834Y-147659131D01*
X219666415Y-146308820D02*
X219666415Y-147453712D01*
X219871834Y-147659131D02*
X219871834Y-175280115D01*
X221026718Y-144948517D02*
X219666415Y-146308820D01*
X219871834Y-175280115D02*
X220185967Y-175594248D01*
X209680646Y-186843116D02*
X209680646Y-185390954D01*
X211226400Y-183845200D02*
X211226400Y-175158400D01*
X209680646Y-185390954D02*
X211226400Y-183845200D01*
X220325980Y-174752001D02*
X220579979Y-175006000D01*
X220325980Y-171762391D02*
X220325980Y-174752001D01*
X223500000Y-146948517D02*
X222481798Y-147966719D01*
X221284657Y-150137156D02*
X221284657Y-151001816D01*
X220955065Y-171133306D02*
X220325980Y-171762391D01*
X220955065Y-151331408D02*
X220955065Y-171133306D01*
X221284657Y-151001816D02*
X220955065Y-151331408D01*
X222481798Y-148940015D02*
X221284657Y-150137156D01*
X222481798Y-147966719D02*
X222481798Y-148940015D01*
D38*
X133705600Y-121601127D02*
X134044948Y-121261779D01*
X133705600Y-130911600D02*
X133705600Y-121601127D01*
X157910025Y-124838170D02*
X157910025Y-129783070D01*
X157910025Y-129783070D02*
X158060576Y-129933621D01*
D35*
X208263100Y-132041200D02*
X209688516Y-132041200D01*
X209688516Y-132041200D02*
X209718726Y-132071410D01*
X230981212Y-132788824D02*
X231184139Y-132585897D01*
X230981212Y-135792991D02*
X230981212Y-132788824D01*
X230500000Y-137948517D02*
X230500000Y-136274203D01*
X230500000Y-136274203D02*
X230981212Y-135792991D01*
D37*
X227000000Y-144790092D02*
X227349206Y-144440886D01*
X227000000Y-146148517D02*
X227000000Y-144790092D01*
X214834674Y-145696035D02*
X214834674Y-144030928D01*
X214834674Y-144030928D02*
X214985600Y-143880002D01*
X220549026Y-146899491D02*
X220549026Y-147053241D01*
X221500000Y-145948517D02*
X220549026Y-146899491D01*
X226820955Y-144395346D02*
X226820955Y-143273567D01*
X226820955Y-143273567D02*
X226679313Y-143131925D01*
X226500000Y-144716301D02*
X226820955Y-144395346D01*
X226500000Y-146948517D02*
X226500000Y-144716301D01*
X229800180Y-115900180D02*
X229800180Y-127869536D01*
X228999225Y-128670491D02*
X228999225Y-131578276D01*
X229800180Y-127869536D02*
X228999225Y-128670491D01*
X223877415Y-109977415D02*
X229800180Y-115900180D01*
X222472463Y-109977415D02*
X223877415Y-109977415D01*
X228644421Y-131933080D02*
X228644421Y-135465577D01*
X228999225Y-131578276D02*
X228644421Y-131933080D01*
X228789740Y-145393097D02*
X228789740Y-140084795D01*
X228789740Y-140084795D02*
X228509735Y-139804790D01*
X228500000Y-145682837D02*
X228789740Y-145393097D01*
X228500000Y-146948517D02*
X228500000Y-145682837D01*
D35*
X223929348Y-112058061D02*
X222500000Y-113487409D01*
D37*
X231435291Y-144817611D02*
X231435291Y-140105011D01*
X231435291Y-140105011D02*
X231422590Y-140092310D01*
X231422599Y-145339297D02*
X231422599Y-144830303D01*
X231500000Y-146948517D02*
X231500000Y-145416698D01*
X231422599Y-144830303D02*
X231435291Y-144817611D01*
X231500000Y-145416698D02*
X231422599Y-145339297D01*
D35*
X232167217Y-130872682D02*
X231740010Y-130445475D01*
X232167217Y-135217642D02*
X232167217Y-130872682D01*
X231889233Y-135495626D02*
X232167217Y-135217642D01*
D39*
X222500000Y-113487409D02*
X222500000Y-129625790D01*
D35*
X231740010Y-130445475D02*
X231740010Y-129625790D01*
X227500000Y-146948517D02*
X227068342Y-147380175D01*
X227068342Y-147380175D02*
X227068342Y-148249900D01*
X162661600Y-167995600D02*
X162661600Y-157226000D01*
X163017200Y-168351200D02*
X162661600Y-167995600D01*
D37*
X190042800Y-98196400D02*
X190042800Y-99212400D01*
D35*
X214020400Y-148031200D02*
X214020400Y-138887200D01*
X214020400Y-138887200D02*
X214020400Y-137922000D01*
X214020400Y-137922000D02*
X215696800Y-136245600D01*
X215696800Y-127457200D02*
X215900000Y-127254000D01*
X215696800Y-136245600D02*
X215696800Y-127457200D01*
X214020400Y-151096575D02*
X213634565Y-151482410D01*
X214020400Y-148031200D02*
X214020400Y-151096575D01*
X199846304Y-143617034D02*
X199846303Y-145957095D01*
X188468000Y-115316000D02*
X194702988Y-121550988D01*
X190042800Y-99212400D02*
X188468000Y-100787200D01*
X199040780Y-142811510D02*
X199846304Y-143617034D01*
X194702989Y-126985897D02*
X197973978Y-130256886D01*
X194702988Y-121550988D02*
X194702989Y-126985897D01*
X197973978Y-130256886D02*
X197973980Y-134852432D01*
X199180421Y-146622976D02*
X199180421Y-149261738D01*
X199180421Y-149261738D02*
X198444981Y-149997178D01*
X197973980Y-134852432D02*
X199040778Y-135919230D01*
X198374000Y-157327600D02*
X198374000Y-150807996D01*
X199846303Y-145957095D02*
X199180421Y-146622976D01*
X199040778Y-135919230D02*
X199040780Y-142811510D01*
X198444981Y-149997178D02*
X198444981Y-150737015D01*
X188468000Y-100787200D02*
X188468000Y-115316000D01*
X198374000Y-150807996D02*
X198444981Y-150737015D01*
X161899600Y-168148000D02*
X161747200Y-168300400D01*
X161899600Y-156768800D02*
X161899600Y-168148000D01*
D37*
X230073200Y-134874000D02*
X230073200Y-132515495D01*
X230073200Y-132515495D02*
X230335478Y-132253217D01*
X230335478Y-128617322D02*
X230479600Y-128473200D01*
X230335478Y-132253217D02*
X230335478Y-128617322D01*
X230336881Y-145811636D02*
X230336881Y-140330994D01*
X230000000Y-146148517D02*
X230336881Y-145811636D01*
X230336881Y-140330994D02*
X230233704Y-140227817D01*
D35*
X200249513Y-146353021D02*
X200097112Y-146505421D01*
X195106199Y-126791625D02*
X198377189Y-130062615D01*
X188925200Y-115062000D02*
X195106199Y-121242999D01*
X199443989Y-135752215D02*
X199443990Y-142644494D01*
X200249513Y-143450017D02*
X200249513Y-146353021D01*
X191058800Y-98766626D02*
X188925200Y-100900226D01*
X191058800Y-98298000D02*
X191058800Y-98766626D01*
X188925200Y-100900226D02*
X188925200Y-115062000D01*
X199443990Y-142644494D02*
X200249513Y-143450017D01*
X195106199Y-121242999D02*
X195106199Y-126791625D01*
X198377189Y-130062615D02*
X198377190Y-134685416D01*
X198377190Y-134685416D02*
X199443989Y-135752215D01*
X207822800Y-146822552D02*
X207386477Y-147258875D01*
X207822800Y-139801600D02*
X207822800Y-146822552D01*
X199015253Y-149997132D02*
X199583632Y-149428753D01*
X199583632Y-149428753D02*
X199583632Y-147018901D01*
X198929610Y-151064482D02*
X199015253Y-150978839D01*
X199015253Y-150978839D02*
X199015253Y-149997132D01*
X199583632Y-147018901D02*
X200097112Y-146505421D01*
X198929610Y-156771990D02*
X198929610Y-151064482D01*
D37*
X230500000Y-149578981D02*
X230396789Y-149682192D01*
X230500000Y-146948517D02*
X230500000Y-149578981D01*
X221659887Y-151631188D02*
X222353871Y-150937204D01*
X221437200Y-173278800D02*
X221437200Y-171647939D01*
X221437200Y-171647939D02*
X221659887Y-171425252D01*
X221659887Y-171425252D02*
X221659887Y-151631188D01*
X222353871Y-150937204D02*
X222353871Y-150323579D01*
X231000000Y-148800000D02*
X231000000Y-146148517D01*
X231200000Y-149000000D02*
X231000000Y-148800000D01*
D35*
X223854353Y-170370496D02*
X223012000Y-169528143D01*
X223012000Y-169528143D02*
X223012000Y-166852718D01*
X223667610Y-166197108D02*
X223667610Y-163109892D01*
X223667610Y-163109892D02*
X224129600Y-162647902D01*
X224129600Y-153416000D02*
X224361960Y-153183640D01*
X224361960Y-153183640D02*
X224361960Y-149240878D01*
X223012000Y-166852718D02*
X223667610Y-166197108D01*
X224129600Y-162647902D02*
X224129600Y-153416000D01*
X224361960Y-149240878D02*
X224311069Y-149189987D01*
D38*
X223965200Y-167690800D02*
X223766000Y-167491600D01*
X224942400Y-167690800D02*
X223965200Y-167690800D01*
D36*
X225492657Y-168241057D02*
X225492657Y-171517649D01*
X224942400Y-167690800D02*
X225492657Y-168241057D01*
D35*
X217322400Y-148443927D02*
X215769837Y-146891364D01*
X217322400Y-164846000D02*
X217322400Y-148443927D01*
X219100400Y-166624000D02*
X217322400Y-164846000D01*
X202641200Y-148590000D02*
X203375569Y-147855631D01*
X203375569Y-147855631D02*
X203375569Y-145037190D01*
X230700000Y-156100000D02*
X230700000Y-151494573D01*
X230700000Y-151494573D02*
X230845563Y-151349010D01*
X218888296Y-142881271D02*
X219142295Y-142627272D01*
X218786022Y-152257390D02*
X218786022Y-146156528D01*
X218786022Y-146156528D02*
X218888296Y-146054254D01*
X218888296Y-146054254D02*
X218888296Y-142881271D01*
X218919042Y-152390410D02*
X218786022Y-152257390D01*
X222925288Y-142448517D02*
X223208815Y-142732044D01*
X222300000Y-142448517D02*
X222925288Y-142448517D01*
D37*
X232000000Y-148600000D02*
X232000000Y-146148517D01*
D35*
X232000000Y-154900000D02*
X232501601Y-154398399D01*
X232501601Y-154398399D02*
X232501601Y-149101601D01*
X232501601Y-149101601D02*
X232000000Y-148600000D01*
D37*
X227744552Y-150444552D02*
X227744552Y-147870949D01*
X228100000Y-150800000D02*
X227744552Y-150444552D01*
X227744552Y-147870949D02*
X228000000Y-147615501D01*
X228000000Y-147615501D02*
X228000000Y-146148517D01*
D35*
X228698390Y-151398390D02*
X228698390Y-151752221D01*
X228100000Y-150800000D02*
X228698390Y-151398390D01*
X229454263Y-145262879D02*
X229454263Y-141119210D01*
X229000000Y-146148517D02*
X229000000Y-145717142D01*
X229000000Y-145717142D02*
X229454263Y-145262879D01*
X197494445Y-150474412D02*
X197494445Y-149941032D01*
X197205533Y-157286203D02*
X197205533Y-150763324D01*
X197494445Y-149941032D02*
X197243632Y-149690219D01*
X198636671Y-145440170D02*
X198636671Y-144118079D01*
X198636671Y-144118079D02*
X197411985Y-142893393D01*
X197411985Y-142893393D02*
X197411985Y-140758515D01*
X197243632Y-146833209D02*
X198636671Y-145440170D01*
X197205533Y-150763324D02*
X197494445Y-150474412D01*
X196700557Y-157791179D02*
X197205533Y-157286203D01*
X197243632Y-149690219D02*
X197243632Y-146833209D01*
X163372500Y-130962700D02*
X163576000Y-130759200D01*
X163372500Y-132750800D02*
X163372500Y-130962700D01*
X164280400Y-130650800D02*
X164439600Y-130810000D01*
X163460000Y-130650800D02*
X164280400Y-130650800D01*
X199793210Y-127307990D02*
X199793210Y-131180216D01*
X200050400Y-127050800D02*
X199793210Y-127307990D01*
X199659828Y-131313598D02*
X199659828Y-131498891D01*
X199793210Y-131180216D02*
X199659828Y-131313598D01*
X224500000Y-137948517D02*
X224500000Y-127878400D01*
X190357167Y-127914475D02*
X190496801Y-128054109D01*
X173684611Y-126352357D02*
X175885977Y-126352357D01*
X190496801Y-128054109D02*
X190496801Y-130216875D01*
X175885977Y-126352357D02*
X175978261Y-126444641D01*
X170033684Y-130003284D02*
X173684611Y-126352357D01*
X175978261Y-126444641D02*
X189453163Y-126444641D01*
X190496801Y-130216875D02*
X191756901Y-131476975D01*
X189453163Y-126444641D02*
X190357167Y-127348645D01*
X190357167Y-127348645D02*
X190357167Y-127914475D01*
D37*
X208263100Y-131541200D02*
X210810251Y-131541200D01*
X210810251Y-131541200D02*
X210817484Y-131533967D01*
X229500000Y-137948517D02*
X229611000Y-137837517D01*
X229516570Y-132287425D02*
X229805276Y-131998719D01*
X229516570Y-135060311D02*
X229516570Y-132287425D01*
X229611000Y-135154741D02*
X229516570Y-135060311D01*
X229611000Y-137837517D02*
X229611000Y-135154741D01*
X210204623Y-132601611D02*
X210236502Y-132569732D01*
X208263100Y-132541200D02*
X208323511Y-132601611D01*
X208323511Y-132601611D02*
X210204623Y-132601611D01*
X231000000Y-136308507D02*
X231359023Y-135949484D01*
X231359023Y-135949484D02*
X231359023Y-133402887D01*
X231000000Y-138748517D02*
X231000000Y-136308507D01*
X231359023Y-133402887D02*
X231611616Y-133150294D01*
X208263100Y-131041200D02*
X210331190Y-131041200D01*
X210331190Y-131041200D02*
X210816390Y-130556000D01*
X210816390Y-130556000D02*
X211175600Y-130556000D01*
X228114211Y-131693269D02*
X228468134Y-131339346D01*
X228114211Y-136097294D02*
X228114211Y-131693269D01*
X229000000Y-138748517D02*
X229000000Y-136983083D01*
X229000000Y-136983083D02*
X228114211Y-136097294D01*
D35*
X203075600Y-128901270D02*
X202788920Y-128614590D01*
X203075600Y-129353700D02*
X203075600Y-128901270D01*
X202788920Y-128614590D02*
X201461790Y-128614590D01*
X201461790Y-128614590D02*
X201168000Y-128320800D01*
D37*
X149171143Y-136375657D02*
X149352000Y-136194800D01*
X149171143Y-138161770D02*
X149171143Y-136375657D01*
X175583510Y-127082579D02*
X174263021Y-127082579D01*
X175675794Y-127174863D02*
X175583510Y-127082579D01*
X165440118Y-135362494D02*
X165440118Y-134870810D01*
X165981834Y-135904210D02*
X165440118Y-135362494D01*
X167367766Y-135904210D02*
X165981834Y-135904210D01*
X167676010Y-135595966D02*
X167367766Y-135904210D01*
X167676010Y-133669590D02*
X167676010Y-135595966D01*
X174263021Y-127082579D02*
X167676010Y-133669590D01*
X188185663Y-127174863D02*
X175675794Y-127174863D01*
X188934440Y-127923640D02*
X188185663Y-127174863D01*
X189798023Y-127923640D02*
X188934440Y-127923640D01*
D35*
X204075600Y-128901270D02*
X203562247Y-128387917D01*
X203321590Y-128387917D02*
X203067591Y-128133918D01*
X204075600Y-129353700D02*
X204075600Y-128901270D01*
X203562247Y-128387917D02*
X203321590Y-128387917D01*
X150723600Y-129717791D02*
X152155371Y-128286020D01*
X152155371Y-128286020D02*
X153679217Y-128286020D01*
D37*
X151099568Y-135269163D02*
X151107352Y-135261379D01*
X151099568Y-140417866D02*
X151099568Y-135269163D01*
X151107352Y-130101543D02*
X151107352Y-135261379D01*
X150768853Y-140748581D02*
X151099568Y-140417866D01*
X150723600Y-129717791D02*
X151107352Y-130101543D01*
D35*
X204575600Y-129353700D02*
X204575600Y-128831044D01*
X203650019Y-127905463D02*
X203650019Y-127731353D01*
X204575600Y-128831044D02*
X203650019Y-127905463D01*
X150012400Y-128066800D02*
X150825200Y-127254000D01*
X150012400Y-128892190D02*
X150012400Y-128066800D01*
D37*
X149258975Y-139464118D02*
X149758400Y-138964693D01*
X149983801Y-128920789D02*
X149983801Y-134033969D01*
X149758400Y-135562500D02*
X149758400Y-134259370D01*
X149758400Y-136573100D02*
X149933002Y-136398498D01*
X150012400Y-128892190D02*
X149983801Y-128920789D01*
X149933002Y-135737102D02*
X149758400Y-135562500D01*
X149933002Y-136398498D02*
X149933002Y-135737102D01*
X149758400Y-138964693D02*
X149758400Y-136573100D01*
X149983801Y-134033969D02*
X149809626Y-134208144D01*
X149758400Y-134259370D02*
X149809626Y-134208144D01*
D35*
X201388100Y-132541200D02*
X200173437Y-132541200D01*
X200173437Y-132541200D02*
X200152619Y-132562018D01*
X148230003Y-143150003D02*
X148230003Y-139453090D01*
X148640800Y-143560800D02*
X148230003Y-143150003D01*
X159969200Y-143814800D02*
X160230210Y-143553790D01*
X160230210Y-143553790D02*
X160230210Y-135026400D01*
X164716720Y-133967882D02*
X165996312Y-132688290D01*
X189954210Y-125235010D02*
X191566800Y-126847600D01*
X168154494Y-131887084D02*
X168154494Y-128720706D01*
X191566800Y-127406400D02*
X192519292Y-128358892D01*
X191874798Y-130773824D02*
X192331990Y-131231016D01*
X191874798Y-130238510D02*
X191874798Y-130773824D01*
X192331990Y-131231016D02*
X192331990Y-132019622D01*
X192519292Y-128358892D02*
X192519292Y-129594016D01*
X192519292Y-129594016D02*
X191874798Y-130238510D01*
X191566800Y-126847600D02*
X191566800Y-127406400D01*
X165996312Y-132688290D02*
X167353288Y-132688290D01*
X171732473Y-125142727D02*
X176387024Y-125142726D01*
X176387024Y-125142726D02*
X176479308Y-125235010D01*
X164716720Y-134870810D02*
X164716720Y-133967882D01*
X167353288Y-132688290D02*
X168154494Y-131887084D01*
X168154494Y-128720706D02*
X171732473Y-125142727D01*
X176479308Y-125235010D02*
X189954210Y-125235010D01*
X201388100Y-131541200D02*
X201314710Y-131467810D01*
X200794156Y-131399686D02*
X200706470Y-131399686D01*
X201314710Y-131467810D02*
X200862280Y-131467810D01*
X200706470Y-131399686D02*
X200568290Y-131261506D01*
X200862280Y-131467810D02*
X200794156Y-131399686D01*
X200568290Y-131261506D02*
X200342842Y-131261506D01*
D37*
X148459501Y-135684863D02*
X149206376Y-134937988D01*
X149228190Y-128200226D02*
X149101190Y-128327226D01*
X149206376Y-134937988D02*
X149206376Y-134578778D01*
X148459501Y-138158118D02*
X148459501Y-135684863D01*
X149101190Y-128327226D02*
X149101189Y-128479627D01*
X149101189Y-128479627D02*
X148923399Y-128657417D01*
X149228190Y-127475776D02*
X149228190Y-128200226D01*
X148923399Y-134295801D02*
X149206376Y-134578778D01*
X148923399Y-128657417D02*
X148923399Y-134295801D01*
D35*
X200862280Y-130967810D02*
X200465685Y-130571215D01*
X201388100Y-131041200D02*
X201314710Y-130967810D01*
X201314710Y-130967810D02*
X200862280Y-130967810D01*
X200465685Y-130571215D02*
X200465685Y-130563940D01*
D37*
X148110599Y-134473005D02*
X148499540Y-134861946D01*
X148243955Y-138851401D02*
X147929300Y-138536746D01*
X147929300Y-138536746D02*
X147929300Y-135432186D01*
X148603165Y-138851401D02*
X148243955Y-138851401D01*
X147929300Y-135432186D02*
X148499540Y-134861946D01*
X148110599Y-128572734D02*
X148110599Y-134473005D01*
X148651947Y-128031386D02*
X148110599Y-128572734D01*
D35*
X193792424Y-129904480D02*
X193792424Y-130195020D01*
X193792424Y-130195020D02*
X194113418Y-130516014D01*
X193250137Y-127243723D02*
X193728923Y-127722509D01*
X193728923Y-129840979D02*
X193792424Y-129904480D01*
X193728923Y-127722509D02*
X193728923Y-129840979D01*
X193250137Y-127027199D02*
X193250137Y-127243723D01*
X149501331Y-125958271D02*
X149247332Y-126212270D01*
X149501331Y-122564832D02*
X149501331Y-125958271D01*
X149186267Y-122249768D02*
X149501331Y-122564832D01*
X149186267Y-121351985D02*
X149186267Y-122249768D01*
X148598682Y-120764400D02*
X149186267Y-121351985D01*
X147021500Y-120764400D02*
X148598682Y-120764400D01*
X201388100Y-133041200D02*
X200495729Y-133041200D01*
X200495729Y-133041200D02*
X200419309Y-133117620D01*
X199707050Y-133117620D02*
X199644661Y-133055231D01*
X200419309Y-133117620D02*
X199707050Y-133117620D01*
X193652790Y-124796455D02*
X193805738Y-124949403D01*
X194132134Y-129673964D02*
X194195635Y-129737465D01*
X193805738Y-127229098D02*
X194132134Y-127555494D01*
X194132134Y-127555494D02*
X194132134Y-129673964D01*
X194380107Y-129960413D02*
X194731701Y-130312007D01*
X193805738Y-124949403D02*
X193805738Y-127229098D01*
X194731701Y-130312007D02*
X194731701Y-132498750D01*
X194195635Y-129737465D02*
X194195635Y-129862489D01*
X194293559Y-129960413D02*
X194380107Y-129960413D01*
X194195635Y-129862489D02*
X194293559Y-129960413D01*
X147423930Y-121264400D02*
X147428730Y-121259600D01*
X147021500Y-121264400D02*
X147423930Y-121264400D01*
X148494144Y-121230088D02*
X148783056Y-121519000D01*
X147458242Y-121230088D02*
X148494144Y-121230088D01*
X149062381Y-123042770D02*
X149062381Y-125402661D01*
X149062381Y-125402661D02*
X148808382Y-125656660D01*
X148783056Y-122763445D02*
X149062381Y-123042770D01*
X148783056Y-121519000D02*
X148783056Y-122763445D01*
X147423930Y-121264400D02*
X147458242Y-121230088D01*
X200422564Y-133541200D02*
X200290534Y-133673230D01*
X201388100Y-133541200D02*
X200422564Y-133541200D01*
X194009466Y-131197814D02*
X194009466Y-132562267D01*
X192678012Y-124568744D02*
X192678012Y-127377160D01*
X193389213Y-130577561D02*
X194009466Y-131197814D01*
X193325713Y-130007995D02*
X193389213Y-130071495D01*
X192603987Y-124494719D02*
X192678012Y-124568744D01*
X193389213Y-130071495D02*
X193389213Y-130577561D01*
X193325713Y-128024861D02*
X193325713Y-130007995D01*
X192678012Y-127377160D02*
X193325713Y-128024861D01*
X147021500Y-121764400D02*
X148206166Y-121764400D01*
X148206166Y-121764400D02*
X148227455Y-121785689D01*
X156565600Y-122326400D02*
X156565600Y-127151772D01*
X156565600Y-127151772D02*
X157122050Y-127708222D01*
X200495454Y-134264400D02*
X199593200Y-134264400D01*
X201388100Y-134041200D02*
X200718654Y-134041200D01*
X200718654Y-134041200D02*
X200495454Y-134264400D01*
X193392411Y-132853309D02*
X194760400Y-134221298D01*
X192986002Y-130238510D02*
X192986002Y-130744576D01*
X192922503Y-130175011D02*
X192986002Y-130238510D01*
X192122410Y-126706904D02*
X192122410Y-127391784D01*
X193392411Y-131150985D02*
X193392411Y-132853309D01*
X192922502Y-128191876D02*
X192922503Y-130175011D01*
X192122410Y-127391784D02*
X192922502Y-128191876D01*
X194760400Y-134221298D02*
X195119610Y-134221298D01*
X192986002Y-130744576D02*
X193392411Y-131150985D01*
X186900000Y-115678400D02*
X186900000Y-115700000D01*
X186900000Y-100550000D02*
X186900000Y-115678400D01*
X186900000Y-122130000D02*
X187350400Y-122580400D01*
X186900000Y-115678400D02*
X186900000Y-122130000D01*
X231038400Y-123647200D02*
X231038400Y-130606800D01*
X186900000Y-96512796D02*
X186883704Y-96496500D01*
X186900000Y-100550000D02*
X186900000Y-96512796D01*
D37*
X230000000Y-138748517D02*
X230073200Y-138821717D01*
X230603401Y-132483678D02*
X230603401Y-135636497D01*
X230603401Y-135636497D02*
X230000000Y-136239898D01*
X230687889Y-132399190D02*
X230603401Y-132483678D01*
X230687889Y-130957311D02*
X230687889Y-132399190D01*
X231038400Y-130606800D02*
X230687889Y-130957311D01*
X230000000Y-136239898D02*
X230000000Y-138748517D01*
D35*
X181021200Y-123058400D02*
X181021200Y-122021600D01*
X182118000Y-124155200D02*
X181021200Y-123058400D01*
X180027200Y-115580600D02*
X180027200Y-116133800D01*
X180027200Y-116133800D02*
X181352598Y-117459198D01*
X182321200Y-118087628D02*
X182321200Y-122021600D01*
X181352598Y-117459198D02*
X181692770Y-117459198D01*
X181692770Y-117459198D02*
X182321200Y-118087628D01*
X183621200Y-124083600D02*
X183692800Y-124155200D01*
X183621200Y-122021600D02*
X183621200Y-124083600D01*
D37*
X231952800Y-145084800D02*
X231952800Y-138795717D01*
X231952800Y-138795717D02*
X232000000Y-138748517D01*
X222853500Y-165454100D02*
X222816000Y-165491600D01*
X222853500Y-163591600D02*
X222853500Y-165454100D01*
X232000000Y-138748517D02*
X232000000Y-136655600D01*
X232000000Y-136655600D02*
X232664000Y-135991600D01*
X232664000Y-130556000D02*
X232562400Y-130454400D01*
X232664000Y-135991600D02*
X232664000Y-130556000D01*
X218287600Y-130251200D02*
X218643200Y-129895600D01*
X218643200Y-129895600D02*
X218643200Y-119227600D01*
X218643200Y-119227600D02*
X216052400Y-116636800D01*
X216052400Y-103790045D02*
X208020355Y-95758000D01*
X216052400Y-116636800D02*
X216052400Y-103790045D01*
X208020355Y-95758000D02*
X199085200Y-95758000D01*
X199085200Y-95758000D02*
X198120000Y-96723200D01*
X198120000Y-96723200D02*
X195326000Y-96723200D01*
X195326000Y-96723200D02*
X189839600Y-102209600D01*
X222341000Y-163591600D02*
X222190087Y-163440687D01*
X222853500Y-163591600D02*
X222341000Y-163591600D01*
X222190087Y-163440687D02*
X222190087Y-152244410D01*
X224000000Y-136800000D02*
X224000000Y-138748517D01*
D35*
X223798390Y-127999080D02*
X223798390Y-124247210D01*
X224000000Y-136800000D02*
X224000000Y-128200690D01*
X224000000Y-128200690D02*
X223798390Y-127999080D01*
D37*
X224000000Y-138748517D02*
X224675281Y-139423798D01*
X225218602Y-142462182D02*
X225040093Y-142640691D01*
X225040093Y-142640691D02*
X225040093Y-143447239D01*
X225040093Y-143447239D02*
X225294092Y-143701238D01*
X224942898Y-139423798D02*
X225218602Y-139699502D01*
X225218602Y-139699502D02*
X225218602Y-142462182D01*
X224675281Y-139423798D02*
X224942898Y-139423798D01*
D36*
X168335100Y-122326400D02*
X169097100Y-123088400D01*
X167132000Y-122326400D02*
X168335100Y-122326400D01*
X165709600Y-123748800D02*
X167132000Y-122326400D01*
X165709600Y-124122000D02*
X165709600Y-123748800D01*
D39*
X166674800Y-126337200D02*
X166659600Y-126322000D01*
X166674800Y-128170300D02*
X166674800Y-126337200D01*
D35*
X198485168Y-142826124D02*
X199443093Y-143784049D01*
X197761210Y-150777873D02*
X197761210Y-157791179D01*
X198354844Y-149517089D02*
X197897656Y-149974277D01*
X199443093Y-145790078D02*
X198354844Y-146878327D01*
X199443093Y-143784049D02*
X199443093Y-145790078D01*
X198354844Y-146878327D02*
X198354844Y-149517089D01*
X197897656Y-149974277D02*
X197897655Y-150641428D01*
X197897655Y-150641428D02*
X197761210Y-150777873D01*
X198485168Y-141347214D02*
X198485168Y-142826124D01*
X167140690Y-157881612D02*
X167140690Y-151387594D01*
X167140690Y-151387594D02*
X165925556Y-150172460D01*
X165925556Y-149763847D02*
X165620766Y-149459057D01*
X165925556Y-150172460D02*
X165925556Y-149763847D01*
X165620766Y-146820446D02*
X166119190Y-146322022D01*
X165620766Y-149459057D02*
X165620766Y-146820446D01*
X222300000Y-141448517D02*
X222903276Y-141448517D01*
X222903276Y-141448517D02*
X223126391Y-141671632D01*
X217725611Y-144495625D02*
X217725611Y-150618811D01*
X217725611Y-150618811D02*
X217878010Y-150771210D01*
X217667957Y-144437971D02*
X217725611Y-144495625D01*
D37*
X222300000Y-144448517D02*
X222435163Y-144448517D01*
X222435163Y-144448517D02*
X222865989Y-144017691D01*
D35*
X196342000Y-155873546D02*
X196786443Y-155429103D01*
X196786443Y-155429103D02*
X196786443Y-150360122D01*
X196786443Y-150360122D02*
X196938843Y-150207722D01*
X165217556Y-145275234D02*
X166068390Y-144424400D01*
X166573200Y-156308410D02*
X166573200Y-151390330D01*
X165217556Y-149626071D02*
X165217556Y-145275234D01*
X165522345Y-150339475D02*
X165522345Y-149930862D01*
X166573200Y-151390330D02*
X165522345Y-150339475D01*
X165522345Y-149930862D02*
X165217556Y-149626071D01*
X150327568Y-120280108D02*
X150785121Y-120737661D01*
X150785121Y-120737661D02*
X150785121Y-125637968D01*
X213249750Y-137422650D02*
X215204817Y-135467583D01*
X215204817Y-135467583D02*
X215204817Y-127119831D01*
X213249750Y-141718846D02*
X213249750Y-137422650D01*
D37*
X221500000Y-141948517D02*
X221279956Y-141948517D01*
X221279956Y-141948517D02*
X220463417Y-141131978D01*
D35*
X216103200Y-125018800D02*
X216455602Y-125371202D01*
X215598390Y-141131870D02*
X215598390Y-142068130D01*
X215676610Y-138631870D02*
X215676610Y-141053650D01*
X215676610Y-141053650D02*
X215598390Y-141131870D01*
X215598390Y-142068130D02*
X215906870Y-142376610D01*
X216455602Y-125371202D02*
X216455602Y-127520690D01*
X216103200Y-127873092D02*
X216103200Y-138205280D01*
X216455602Y-127520690D02*
X216103200Y-127873092D01*
X216103200Y-138205280D02*
X215676610Y-138631870D01*
X216905658Y-142376610D02*
X217229114Y-142053154D01*
X215906870Y-142376610D02*
X216905658Y-142376610D01*
D37*
X222300000Y-143448517D02*
X223444862Y-143448517D01*
X223444862Y-143448517D02*
X224157473Y-142735906D01*
X224157473Y-142735906D02*
X224157473Y-142114338D01*
D35*
X220843082Y-143948517D02*
X220238499Y-143343934D01*
X221500000Y-143948517D02*
X220843082Y-143948517D01*
X196034001Y-149163425D02*
X196034001Y-146057735D01*
X196034001Y-146057735D02*
X197274639Y-144817097D01*
X195576811Y-151043015D02*
X195576811Y-149620615D01*
X174991385Y-157527611D02*
X189092215Y-157527611D01*
X195576811Y-149620615D02*
X196034001Y-149163425D01*
X189092215Y-157527611D02*
X195576811Y-151043015D01*
X169516410Y-153225668D02*
X170689442Y-153225668D01*
X170689442Y-153225668D02*
X174991385Y-157527611D01*
D37*
X226009200Y-135077200D02*
X226009200Y-138739317D01*
X225145600Y-121716800D02*
X225399599Y-121970799D01*
X225399599Y-121970799D02*
X225399599Y-134467599D01*
X225399599Y-134467599D02*
X226009200Y-135077200D01*
X226009200Y-138739317D02*
X226000000Y-138748517D01*
D35*
X180336802Y-110285502D02*
X180336802Y-112867798D01*
X180027200Y-113177400D02*
X180027200Y-113730600D01*
X179880900Y-109829600D02*
X180336802Y-110285502D01*
X180336802Y-112867798D02*
X180027200Y-113177400D01*
X181092198Y-112867798D02*
X181254400Y-113030000D01*
X180336802Y-112867798D02*
X181092198Y-112867798D01*
X187411999Y-120609999D02*
X187756800Y-120954800D01*
X187411999Y-114949601D02*
X187411999Y-120609999D01*
X187858400Y-114503200D02*
X187411999Y-114949601D01*
X228142800Y-122275600D02*
X228142800Y-126898400D01*
X228142800Y-126898400D02*
X227736400Y-127304800D01*
X228500000Y-137905635D02*
X228500000Y-137948517D01*
X227736400Y-137142035D02*
X228500000Y-137905635D01*
X227736400Y-127304800D02*
X227736400Y-137142035D01*
X182361400Y-113730600D02*
X180527200Y-113730600D01*
X183235600Y-114604800D02*
X182361400Y-113730600D01*
X183235600Y-120650000D02*
X183235600Y-114604800D01*
X220754455Y-150133053D02*
X220754455Y-150755152D01*
X222103987Y-147344530D02*
X222103987Y-148783521D01*
X222500000Y-146948517D02*
X222103987Y-147344530D01*
X222103987Y-148783521D02*
X220754455Y-150133053D01*
X194208949Y-122780959D02*
X194208949Y-127062083D01*
X198621621Y-136070299D02*
X198621621Y-140388469D01*
X197799243Y-146847824D02*
X197799243Y-149250400D01*
X199039882Y-143951064D02*
X199039882Y-145607185D01*
X197929566Y-142840748D02*
X199039882Y-143951064D01*
X199039882Y-145607185D02*
X197799243Y-146847824D01*
X193903600Y-122475610D02*
X194208949Y-122780959D01*
X197929566Y-141080524D02*
X197929566Y-142840748D01*
X198621621Y-140388469D02*
X197929566Y-141080524D01*
X197316768Y-130169902D02*
X197316768Y-134765446D01*
X197316768Y-134765446D02*
X198621621Y-136070299D01*
X194208949Y-127062083D02*
X197316768Y-130169902D01*
X171856400Y-118364000D02*
X170942000Y-119278400D01*
X172262800Y-118364000D02*
X171856400Y-118364000D01*
X170942000Y-119278400D02*
X170942000Y-123397616D01*
X170942000Y-123397616D02*
X172069274Y-124524890D01*
X227500000Y-137948517D02*
X227282389Y-137730906D01*
X227282389Y-123548789D02*
X227228400Y-123494800D01*
X227282389Y-137730906D02*
X227282389Y-123548789D01*
D39*
X167699810Y-123859410D02*
X167589200Y-123748800D01*
X167699810Y-128970290D02*
X167699810Y-123859410D01*
X166674800Y-129995300D02*
X167699810Y-128970290D01*
D35*
X166674800Y-131677400D02*
X166674800Y-129995300D01*
D39*
X200863200Y-185572400D02*
X200304400Y-185013600D01*
D37*
X224000000Y-146148517D02*
X224000000Y-147393546D01*
X224000000Y-147393546D02*
X223686394Y-147707152D01*
D35*
X200304400Y-157694626D02*
X201876001Y-156123025D01*
X200304400Y-185013600D02*
X200304400Y-157694626D01*
X201876001Y-148553825D02*
X202417954Y-148011872D01*
X202417954Y-148011872D02*
X202417954Y-146222337D01*
X201876001Y-156123025D02*
X201876001Y-148553825D01*
D37*
X204927200Y-174345600D02*
X204774800Y-174498000D01*
X204927200Y-164033200D02*
X204927200Y-174345600D01*
X225215411Y-155947254D02*
X225215411Y-156456248D01*
X225215411Y-156456248D02*
X224993200Y-156678459D01*
X224993200Y-156678459D02*
X224993200Y-160680400D01*
X226000000Y-149993500D02*
X224965956Y-151027544D01*
X226000000Y-146148517D02*
X226000000Y-149993500D01*
X224965956Y-151027544D02*
X224965956Y-155697799D01*
X224965956Y-155697799D02*
X225215411Y-155947254D01*
D35*
X190504000Y-100795369D02*
X193051240Y-98248129D01*
X193051240Y-98248129D02*
X193051240Y-97107678D01*
X142236000Y-145524608D02*
X142215372Y-145503980D01*
X142236000Y-155543300D02*
X142236000Y-145524608D01*
X143764000Y-155015300D02*
X143236000Y-155543300D01*
X143764000Y-154736800D02*
X143764000Y-155015300D01*
X151028400Y-154638390D02*
X151079200Y-154689190D01*
X151028400Y-147370800D02*
X151028400Y-154638390D01*
X141736000Y-155543300D02*
X141779602Y-155499698D01*
X141779602Y-146158802D02*
X141680390Y-146059590D01*
X141779602Y-155499698D02*
X141779602Y-146158802D01*
X142736000Y-149262400D02*
X143865600Y-148132800D01*
X142736000Y-155543300D02*
X142736000Y-149262400D01*
D37*
X146284000Y-119504790D02*
X146710400Y-119078390D01*
X146284000Y-120026900D02*
X146284000Y-119504790D01*
X150031447Y-127513448D02*
X150031447Y-121567589D01*
X149453600Y-132283200D02*
X149453600Y-128473200D01*
X150031447Y-121567589D02*
X149777448Y-121313590D01*
X149634589Y-127910306D02*
X150031447Y-127513448D01*
X149634589Y-128292211D02*
X149634589Y-127910306D01*
X149453600Y-128473200D02*
X149634589Y-128292211D01*
D35*
X145284000Y-118969600D02*
X144881600Y-118567200D01*
X145284000Y-120026900D02*
X145284000Y-118969600D01*
X141325600Y-133197600D02*
X141325600Y-125361330D01*
X141325600Y-125361330D02*
X140493780Y-124529510D01*
X140493780Y-124529510D02*
X140493780Y-123831690D01*
X140493780Y-123831690D02*
X140515989Y-123809481D01*
X140366789Y-121326279D02*
X140366789Y-118735163D01*
X140515989Y-121475479D02*
X140366789Y-121326279D01*
X140366789Y-118735163D02*
X140708565Y-118393387D01*
X140515989Y-123809481D02*
X140515989Y-121475479D01*
X145784000Y-118555200D02*
X145784000Y-120026900D01*
X145694400Y-118465600D02*
X145784000Y-118555200D01*
X154022411Y-134642724D02*
X154232450Y-134852763D01*
X154255149Y-129455257D02*
X154428802Y-129628910D01*
X153931958Y-120899789D02*
X153677959Y-121153788D01*
X153677959Y-121153788D02*
X153677959Y-127455669D01*
X154255149Y-128032859D02*
X154255149Y-129455257D01*
X153677959Y-127455669D02*
X154255149Y-128032859D01*
X154428802Y-129628910D02*
X154428802Y-130213090D01*
X154428802Y-130213090D02*
X154022411Y-130619481D01*
X154022411Y-130619481D02*
X154022411Y-134642724D01*
X144784000Y-119624470D02*
X144784000Y-120026900D01*
X144322800Y-119163270D02*
X144784000Y-119624470D01*
X144322800Y-117449600D02*
X144322800Y-119163270D01*
D37*
X155370145Y-133736218D02*
X154743553Y-134362810D01*
X154736800Y-120954800D02*
X155370145Y-121588145D01*
X155370145Y-121588145D02*
X155370145Y-133736218D01*
X145064044Y-138857156D02*
X145064044Y-141555044D01*
X145542000Y-138379200D02*
X145064044Y-138857156D01*
X152654000Y-137523625D02*
X152934054Y-137243571D01*
X152654000Y-140258800D02*
X152654000Y-137523625D01*
X152044400Y-139000674D02*
X152006106Y-138962380D01*
X152044400Y-141935200D02*
X152044400Y-139000674D01*
X230900000Y-144400000D02*
X230763905Y-144263905D01*
X230763905Y-139979328D02*
X231500000Y-139243233D01*
X230763905Y-144263905D02*
X230763905Y-139979328D01*
X231500000Y-139243233D02*
X231500000Y-137948517D01*
X223418400Y-137866917D02*
X223500000Y-137948517D01*
X223418400Y-132740400D02*
X223418400Y-137866917D01*
X208263100Y-133041200D02*
X208321834Y-133099934D01*
X208321834Y-133099934D02*
X210719975Y-133099934D01*
X210719975Y-133099934D02*
X210822319Y-132997590D01*
X223011999Y-138736518D02*
X223000000Y-138748517D01*
X223011999Y-133502399D02*
X223011999Y-138736518D01*
X222758000Y-133248400D02*
X223011999Y-133502399D01*
D35*
X208263100Y-133541200D02*
X210347610Y-133541200D01*
X210347610Y-133541200D02*
X210464400Y-133657990D01*
X206075600Y-128767492D02*
X205946398Y-128638290D01*
X207079600Y-125577600D02*
X211220300Y-125577600D01*
X205946398Y-128638290D02*
X205946398Y-126710802D01*
X205946398Y-126710802D02*
X207079600Y-125577600D01*
X206075600Y-129353700D02*
X206075600Y-128767492D01*
X205543187Y-129321287D02*
X205575600Y-129353700D01*
X205543187Y-127634787D02*
X205543187Y-129321287D01*
X199345300Y-125577600D02*
X203486000Y-125577600D01*
X203486000Y-125577600D02*
X205543187Y-127634787D01*
X143236000Y-159518300D02*
X143973500Y-158780800D01*
X143973500Y-159111900D02*
X144475200Y-159613600D01*
X143973500Y-158780800D02*
X143973500Y-159111900D01*
D38*
X217017600Y-121615200D02*
X217017600Y-129286000D01*
D35*
X208263100Y-130541200D02*
X208263100Y-130041200D01*
X208263100Y-129810900D02*
X208788000Y-129286000D01*
X208263100Y-130041200D02*
X208263100Y-129810900D01*
X208263100Y-134041200D02*
X209377600Y-134041200D01*
X209377600Y-134041200D02*
X209448400Y-134112000D01*
D38*
X217017600Y-134213600D02*
X217017600Y-129286000D01*
D35*
X205075600Y-128338817D02*
X204809590Y-128072807D01*
X205075600Y-129353700D02*
X205075600Y-128338817D01*
D37*
X150288610Y-140523882D02*
X150288610Y-137711070D01*
X149893047Y-140919445D02*
X150288610Y-140523882D01*
X150288610Y-135228432D02*
X150330955Y-135186087D01*
X150288610Y-137711070D02*
X150288610Y-135228432D01*
D35*
X209854800Y-134518400D02*
X209448400Y-134112000D01*
X211749600Y-134518400D02*
X209854800Y-134518400D01*
D37*
X149893047Y-140919445D02*
X149893047Y-151249353D01*
X149893047Y-151249353D02*
X148488400Y-152654000D01*
X148488400Y-160578800D02*
X148539200Y-160629600D01*
X148488400Y-152654000D02*
X148488400Y-160578800D01*
X150514011Y-135003031D02*
X150514011Y-132537200D01*
X150330955Y-135186087D02*
X150514011Y-135003031D01*
D35*
X189890400Y-128676400D02*
X189077600Y-128676400D01*
X189077600Y-128676400D02*
X187963190Y-127561990D01*
X187963190Y-127561990D02*
X175528616Y-127561990D01*
X174913378Y-127460390D02*
X168436839Y-133936929D01*
X175427016Y-127460390D02*
X174913378Y-127460390D01*
X175528616Y-127561990D02*
X175427016Y-127460390D01*
X207075600Y-128666687D02*
X207272859Y-128469428D01*
X207075600Y-129353700D02*
X207075600Y-128666687D01*
X207272859Y-128469428D02*
X207272859Y-127912415D01*
X162510000Y-128650800D02*
X162510000Y-124156000D01*
X162510000Y-124156000D02*
X162001200Y-123647200D01*
X157530800Y-123647200D02*
X157226000Y-123342400D01*
X162001200Y-123647200D02*
X157530800Y-123647200D01*
X152247600Y-123342400D02*
X152247600Y-120294400D01*
X152247600Y-120294400D02*
X147624800Y-115671600D01*
X147624800Y-114507230D02*
X142267136Y-109149566D01*
X147624800Y-115671600D02*
X147624800Y-114507230D01*
X142267136Y-109149566D02*
X142267136Y-107739314D01*
D38*
X135432800Y-150469600D02*
X135432800Y-155244800D01*
X136486254Y-156298254D02*
X136486254Y-166942146D01*
X135432800Y-155244800D02*
X136486254Y-156298254D01*
X135397532Y-168030868D02*
X135397532Y-170043132D01*
X136486254Y-166942146D02*
X135397532Y-168030868D01*
X135988637Y-170634237D02*
X137655335Y-170634237D01*
X135397532Y-170043132D02*
X135988637Y-170634237D01*
D35*
X148643990Y-163982400D02*
X149094802Y-163531588D01*
X149094802Y-163531588D02*
X149094802Y-153339792D01*
X149094802Y-153339792D02*
X149018610Y-153263600D01*
X139611426Y-169410197D02*
X139387386Y-169634237D01*
X139801600Y-166928800D02*
X139611426Y-169410197D01*
X138189314Y-166011202D02*
X139801600Y-166928800D01*
X138112510Y-166011202D02*
X138189314Y-166011202D01*
X137823598Y-165722290D02*
X138112510Y-166011202D01*
X137823598Y-157595958D02*
X137823598Y-165722290D01*
X138638756Y-156780800D02*
X137823598Y-157595958D01*
X139998500Y-156780800D02*
X138638756Y-156780800D01*
X139998500Y-157780800D02*
X139246800Y-157780800D01*
X139246800Y-157780800D02*
X138328400Y-158699200D01*
X138328400Y-158699200D02*
X138328400Y-165404800D01*
X138328400Y-165404800D02*
X138379200Y-165455600D01*
X146964400Y-164846000D02*
X148894800Y-164846000D01*
X148894800Y-164846000D02*
X149707600Y-164033200D01*
X149707600Y-164033200D02*
X149707600Y-153520790D01*
D36*
X132494540Y-162576252D02*
X133398621Y-162576252D01*
X129794000Y-159875712D02*
X132494540Y-162576252D01*
X129794000Y-143560800D02*
X129794000Y-159875712D01*
D35*
X139998500Y-155791280D02*
X139852400Y-155645180D01*
X139998500Y-156280800D02*
X139998500Y-155791280D01*
X135737599Y-161204654D02*
X135211237Y-161731016D01*
X135737599Y-156616399D02*
X135737599Y-161204654D01*
X135483600Y-156362400D02*
X135737599Y-156616399D01*
X138961046Y-157280800D02*
X138690778Y-157551068D01*
X139998500Y-157280800D02*
X138961046Y-157280800D01*
X146862800Y-152196800D02*
X146459590Y-151793590D01*
X146459590Y-151793590D02*
X146459590Y-147472400D01*
X205575600Y-137910000D02*
X206502000Y-138836400D01*
X205575600Y-136228700D02*
X205575600Y-137910000D01*
X196840423Y-146666149D02*
X198233460Y-145273112D01*
X170078400Y-153971610D02*
X170078400Y-154222670D01*
X170630726Y-154774996D02*
X171098318Y-154774996D01*
X174657354Y-158334032D02*
X189426245Y-158334033D01*
X196383232Y-151377046D02*
X196383233Y-149968637D01*
X196840422Y-149511448D02*
X196840423Y-146666149D01*
X198233460Y-144285094D02*
X196856380Y-142908014D01*
X196856380Y-139829306D02*
X197767919Y-138917767D01*
X198233460Y-145273112D02*
X198233460Y-144285094D01*
X189426245Y-158334033D02*
X196383232Y-151377046D01*
X196856380Y-142908014D02*
X196856380Y-139829306D01*
X196383233Y-149968637D02*
X196840422Y-149511448D01*
X171098318Y-154774996D02*
X174657354Y-158334032D01*
X170078400Y-154222670D02*
X170630726Y-154774996D01*
X205075600Y-136228700D02*
X205075600Y-138195752D01*
X205075600Y-138195752D02*
X205204270Y-138324422D01*
X147015200Y-149050390D02*
X147167600Y-148897990D01*
X147167600Y-146507200D02*
X147167600Y-148897990D01*
X147015200Y-151434800D02*
X147015200Y-149050390D01*
X170897416Y-154219394D02*
X171112942Y-154219394D01*
X196453169Y-143075029D02*
X196453169Y-138674431D01*
X196437212Y-146483523D02*
X197830249Y-145090486D01*
X174824370Y-157930822D02*
X189259230Y-157930822D01*
X196453169Y-138674431D02*
X196988876Y-138138724D01*
X195980022Y-149801622D02*
X196437212Y-149344432D01*
X171112942Y-154219394D02*
X174824370Y-157930822D01*
X197830249Y-144452109D02*
X196453169Y-143075029D01*
X195980022Y-151210030D02*
X195980022Y-149801622D01*
X189259230Y-157930822D02*
X195980022Y-151210030D01*
X197830249Y-145090486D02*
X197830249Y-144452109D01*
X196437212Y-149344432D02*
X196437212Y-146483523D01*
X140665200Y-152146000D02*
X140614400Y-152196800D01*
X140665200Y-149910800D02*
X140665200Y-152146000D01*
X140665200Y-148386800D02*
X140665200Y-149910800D01*
X139852400Y-147574000D02*
X140665200Y-148386800D01*
X161966440Y-150009210D02*
X161966440Y-155028059D01*
X161966440Y-155028059D02*
X161879520Y-155114979D01*
X199999600Y-150855084D02*
X199999600Y-153924000D01*
X201459143Y-135612243D02*
X201459143Y-146656042D01*
X201493533Y-147592641D02*
X200390052Y-148696122D01*
X200390052Y-148696122D02*
X200390052Y-150464632D01*
X201459143Y-146656042D02*
X201493533Y-146690432D01*
X201388100Y-135541200D02*
X201459143Y-135612243D01*
X200390052Y-150464632D02*
X199999600Y-150855084D01*
X201493533Y-146690432D02*
X201493533Y-147592641D01*
X140665200Y-146659600D02*
X141220810Y-147215210D01*
X141220810Y-147215210D02*
X141220810Y-149047200D01*
X141220810Y-151177610D02*
X141224000Y-151180800D01*
X141220810Y-149047200D02*
X141220810Y-151177610D01*
X199986843Y-148529105D02*
X201090322Y-147425626D01*
X200833328Y-135041200D02*
X201388100Y-135041200D01*
X200637664Y-135236864D02*
X200833328Y-135041200D01*
X201090322Y-146857447D02*
X201055933Y-146823056D01*
X201055933Y-143115985D02*
X200637664Y-142697716D01*
X201055933Y-146823056D02*
X201055933Y-143115985D01*
X201090322Y-147425626D02*
X201090322Y-146857447D01*
X199986843Y-149595768D02*
X199986843Y-148529105D01*
X199443998Y-150138613D02*
X199986843Y-149595768D01*
X200637664Y-142697716D02*
X200637664Y-135236864D01*
X199443998Y-154841598D02*
X199443998Y-150138613D01*
X199542400Y-154940000D02*
X199443998Y-154841598D01*
X166731978Y-149838430D02*
X166731978Y-149177751D01*
X166731978Y-149177751D02*
X166579579Y-149025352D01*
X168424992Y-151531444D02*
X166731978Y-149838430D01*
X168424992Y-156308410D02*
X168424992Y-151531444D01*
X152908000Y-156210000D02*
X153619200Y-155498800D01*
X153619200Y-130200400D02*
X153873200Y-129946400D01*
X153619200Y-155498800D02*
X153619200Y-130200400D01*
X209150400Y-135541200D02*
X208263100Y-135541200D01*
X210870800Y-137261600D02*
X209150400Y-135541200D01*
X145706637Y-157276800D02*
X146379314Y-156604123D01*
X143977500Y-157276800D02*
X145706637Y-157276800D01*
X143973500Y-157280800D02*
X143977500Y-157276800D01*
X190760378Y-127181630D02*
X190760378Y-127747460D01*
X176145276Y-126041430D02*
X189620179Y-126041431D01*
X176052993Y-125949147D02*
X176145276Y-126041430D01*
X189620179Y-126041431D02*
X190760378Y-127181630D01*
X190760378Y-127747460D02*
X191052411Y-128039493D01*
X191052411Y-128039493D02*
X191052411Y-128802133D01*
X172856445Y-125949147D02*
X176052993Y-125949147D01*
X169991823Y-128813769D02*
X172856445Y-125949147D01*
X195675212Y-130472009D02*
X194692984Y-129489781D01*
X196052648Y-136961242D02*
X195675212Y-136583806D01*
X195675212Y-136583806D02*
X195675212Y-130472009D01*
X196052648Y-137160200D02*
X196052648Y-136961242D01*
X145225200Y-156780800D02*
X143973500Y-156780800D01*
X145999200Y-156006800D02*
X145225200Y-156780800D01*
X207575600Y-136228700D02*
X207575600Y-137712778D01*
X207575600Y-137712778D02*
X207667210Y-137804388D01*
X160490724Y-144115568D02*
X160490724Y-153808876D01*
X160785812Y-134759710D02*
X160785812Y-143820480D01*
X160785812Y-143820480D02*
X160490724Y-144115568D01*
X160528000Y-129895600D02*
X160173431Y-130250169D01*
X160173431Y-130250169D02*
X160173431Y-134147329D01*
X160173431Y-134147329D02*
X160785812Y-134759710D01*
X169316400Y-129746390D02*
X169316400Y-128574800D01*
X169316400Y-128574800D02*
X172345263Y-125545937D01*
X172345263Y-125545937D02*
X176220009Y-125545937D01*
X176220009Y-125545937D02*
X176312292Y-125638220D01*
X189787195Y-125638221D02*
X191163589Y-127014615D01*
X191163589Y-127014615D02*
X191163589Y-127580445D01*
X191163589Y-127580445D02*
X191963691Y-128380547D01*
X191963691Y-128380547D02*
X191963691Y-128927661D01*
X176312292Y-125638220D02*
X189787195Y-125638221D01*
X195431697Y-129187590D02*
X196078422Y-129834315D01*
X196078422Y-136302849D02*
X197260435Y-137484862D01*
X196078422Y-129834315D02*
X196078422Y-136302849D01*
X144404400Y-156280800D02*
X145288000Y-155397200D01*
X143973500Y-156280800D02*
X144404400Y-156280800D01*
X206830876Y-151604897D02*
X207111600Y-151885621D01*
X206830876Y-146992186D02*
X206830876Y-151604897D01*
X207075600Y-146747462D02*
X206830876Y-146992186D01*
X207075600Y-136228700D02*
X207075600Y-146747462D01*
X170027600Y-154990800D02*
X170281599Y-155244799D01*
X170997897Y-155244799D02*
X174490340Y-158737242D01*
X174490340Y-158737242D02*
X189808787Y-158737243D01*
X189808787Y-158737243D02*
X193707418Y-154838612D01*
X170281599Y-155244799D02*
X170997897Y-155244799D01*
X145792802Y-157772110D02*
X145700703Y-157680011D01*
X144461789Y-157680011D02*
X144361000Y-157780800D01*
X144361000Y-157780800D02*
X143973500Y-157780800D01*
X146796800Y-163576000D02*
X145792802Y-162572002D01*
X145700703Y-157680011D02*
X144461789Y-157680011D01*
X145792802Y-162572002D02*
X145792802Y-157772110D01*
X140055600Y-160198700D02*
X140736000Y-159518300D01*
X140055600Y-160375600D02*
X140055600Y-160198700D01*
X206575600Y-131041200D02*
X204825600Y-132791200D01*
X206575600Y-129353700D02*
X206575600Y-131041200D01*
X206575600Y-128445200D02*
X206502000Y-128371600D01*
X206575600Y-129353700D02*
X206575600Y-128445200D01*
M02*
