M48
; DRILL file {KiCad 7.0.10} date Mon Jul 22 15:52:12 2024
; FORMAT={-:-/ absolute / inch / decimal}
; #@! TF.CreationDate,2024-07-22T15:52:12-07:00
; #@! TF.GenerationSoftware,Kicad,Pcbnew,7.0.10
; #@! TF.FileFunction,Plated,1,4,PTH
FMAT,2
INCH
; #@! TA.AperFunction,Plated,PTH,ComponentDrill
T1C0.0079
; #@! TA.AperFunction,Plated,PTH,ViaDrill
T2C0.0098
; #@! TA.AperFunction,Plated,PTH,ViaDrill
T3C0.0100
; #@! TA.AperFunction,Plated,PTH,ViaDrill
T4C0.0138
; #@! TA.AperFunction,Plated,PTH,ViaDrill
T5C0.0157
; #@! TA.AperFunction,Plated,PTH,ComponentDrill
T6C0.0315
; #@! TA.AperFunction,Plated,PTH,ComponentDrill
T7C0.0394
; #@! TA.AperFunction,Plated,PTH,ComponentDrill
T8C0.0402
; #@! TA.AperFunction,Plated,PTH,ComponentDrill
T9C0.0591
; #@! TA.AperFunction,Plated,PTH,ComponentDrill
T10C0.0669
; #@! TA.AperFunction,Plated,PTH,ComponentDrill
T11C0.0984
%
G90
G05
T1
X5.5857Y-4.0657
X5.5857Y-4.109
X5.5857Y-4.1523
X5.629Y-4.0657
X5.629Y-4.109
X5.629Y-4.1523
X5.6723Y-4.0657
X5.6723Y-4.109
X5.6723Y-4.1523
X6.9547Y-4.0337
X6.9547Y-4.077
X6.9547Y-4.1203
X6.998Y-4.0337
X6.998Y-4.077
X6.998Y-4.1203
X7.0413Y-4.0337
X7.0413Y-4.077
X7.0413Y-4.1203
T2
X5.096Y-4.761
X5.235Y-4.761
X5.295Y-4.21
X5.297Y-3.902
X5.316Y-4.088
X5.35Y-4.844
X5.37Y-4.184
X5.378Y-4.571
X5.399Y-4.204
X5.399Y-4.232
X5.419Y-4.161
X5.458Y-4.451
X5.466Y-3.996
X5.481Y-4.04
X5.486Y-4.225
X5.4932Y-4.1188
X5.507Y-4.381
X5.5148Y-4.1389
X5.539Y-4.453
X5.578Y-4.766
X5.7315Y-4.1645
X5.738Y-4.355
X5.738Y-4.945
X5.744Y-4.413
X5.7565Y-4.1465
X5.786Y-4.231
X5.787Y-4.271
X5.815Y-4.482
X5.843Y-4.595
X5.85Y-4.906
X5.874Y-4.445
X5.876Y-5.04
X5.884Y-4.294
X5.904Y-4.625
X5.912Y-4.103
X5.918Y-4.455
X5.929Y-4.281
X5.934Y-4.92
X5.941Y-4.022
X5.944Y-4.048
X5.944Y-4.637
X5.951Y-4.357
X5.969Y-4.382
X5.9915Y-4.6445
X5.994Y-4.218
X6.015Y-4.908
X6.019Y-4.314
X6.024Y-4.706
X6.037Y-4.048
X6.037Y-5.031
X6.044Y-4.241
X6.05Y-4.022
X6.073Y-4.823
X6.08Y-4.237
X6.092Y-4.048
X6.093Y-4.022
X6.1Y-4.173
X6.1Y-4.578
X6.106Y-4.474
X6.109Y-4.324
X6.113Y-4.434
X6.125Y-4.099
X6.1258Y-4.3531
X6.13Y-4.577
X6.131Y-4.644
X6.142Y-4.395
X6.15Y-3.719
X6.1545Y-4.3722
X6.155Y-4.021
X6.162Y-4.22
X6.164Y-4.125
X6.177Y-4.0
X6.178Y-4.101
X6.198Y-4.221
X6.207Y-3.909
X6.213Y-4.366
X6.214Y-4.302
X6.216Y-4.34
X6.219Y-4.049
X6.226Y-4.252
X6.227Y-4.599
X6.248Y-4.723
X6.249Y-4.618
X6.262Y-4.217
X6.268Y-4.269
X6.269Y-4.432
X6.27Y-4.349
X6.271Y-4.401
X6.271Y-4.471
X6.272Y-4.312
X6.275Y-3.687
X6.283Y-4.508
X6.295Y-4.163
X6.296Y-4.627
X6.302Y-4.578
X6.303Y-4.27
X6.304Y-4.603
X6.3098Y-4.5422
X6.311Y-4.238
X6.312Y-4.023
X6.329Y-4.146
X6.331Y-4.221
X6.34Y-4.179
X6.354Y-5.034
X6.373Y-5.292
X6.382Y-4.209
X6.382Y-5.411
X6.399Y-4.18
X6.401Y-4.057
X6.403Y-4.085
X6.4085Y-4.2125
X6.4128Y-3.8518
X6.415Y-4.009
X6.435Y-5.049
X6.446Y-3.621
X6.464Y-4.167
X6.466Y-4.269
X6.466Y-5.432
X6.468Y-5.471
X6.471Y-3.997
X6.472Y-5.351
X6.475Y-4.204
X6.476Y-4.313
X6.482Y-3.812
X6.495Y-3.967
X6.501Y-4.67
X6.536Y-5.422
X6.541Y-3.641
X6.548Y-5.291
X6.556Y-3.927
X6.559Y-3.8
X6.591Y-4.0
X6.597Y-4.671
X6.597Y-5.382
X6.597Y-5.405
X6.598Y-5.431
X6.627Y-5.292
X6.641Y-5.453
X6.647Y-3.719
X6.651Y-3.776
X6.666Y-4.503
X6.667Y-4.601
X6.668Y-4.562
X6.673Y-4.394
X6.676Y-3.816
X6.702Y-4.311
X6.702Y-4.543
X6.702Y-5.457
X6.704Y-4.36
X6.71Y-4.481
X6.745Y-4.312
X6.756Y-4.737
X6.757Y-4.704
X6.776Y-3.669
X6.797Y-3.936
X6.798Y-3.795
X6.8Y-3.976
X6.833Y-4.114
X6.835Y-4.022
X6.836Y-4.048
X6.837Y-4.714
X6.838Y-4.254
X6.912Y-5.054
X6.929Y-4.445
X6.949Y-3.943
X6.955Y-4.194
X6.966Y-3.9017
X6.968Y-4.523
X6.97Y-4.5
X6.973Y-4.216
X6.976Y-4.435
X7.006Y-3.924
X7.012Y-4.852
X7.075Y-4.694
X7.092Y-4.525
X7.107Y-4.879
X7.108Y-4.063
X7.115Y-4.021
X7.132Y-4.813
X7.136Y-4.082
X7.149Y-4.882
X7.171Y-4.537
X7.175Y-4.184
X7.193Y-4.634
X7.205Y-4.206
X7.217Y-4.656
X7.23Y-4.597
X7.232Y-4.715
X7.237Y-4.118
X7.239Y-4.672
X7.256Y-4.617
X7.258Y-5.008
X7.278Y-4.635
X7.291Y-4.974
X7.292Y-4.234
X7.296Y-4.297
X7.298Y-5.455
X7.3Y-4.363
X7.302Y-4.666
X7.315Y-5.33
X7.331Y-4.845
X7.341Y-4.166
X7.357Y-5.428
X7.361Y-4.234
X7.366Y-5.31
X7.368Y-5.227
X7.371Y-4.923
X7.377Y-4.844
X7.379Y-4.534
X7.392Y-5.226
X7.398Y-4.294
X7.402Y-5.477
X7.403Y-4.641
X7.416Y-5.229
X7.426Y-5.291
X7.428Y-5.243
X7.431Y-4.845
X7.435Y-4.605
X7.436Y-4.923
X7.447Y-5.373
X7.453Y-4.37
X7.456Y-4.11
X7.459Y-4.846
X7.463Y-4.192
X7.467Y-4.439
X7.48Y-4.7
X7.481Y-5.129
X7.486Y-4.112
X7.493Y-4.285
X7.512Y-5.192
X7.529Y-5.01
X7.534Y-5.245
X7.539Y-4.916
X7.543Y-5.373
X7.549Y-5.098
X7.562Y-4.78
X7.562Y-5.153
X7.571Y-4.958
X7.58Y-5.364
X7.582Y-5.101
X7.616Y-4.575
X7.6225Y-4.9115
X7.633Y-4.649
X7.636Y-4.621
X7.647Y-4.283
X7.656Y-4.612
X7.658Y-4.967
X7.662Y-4.865
X7.672Y-5.043
X7.675Y-5.012
X7.689Y-4.371
X7.696Y-4.583
X7.705Y-4.527
X7.708Y-5.173
X7.714Y-4.979
X7.715Y-5.326
X7.723Y-4.854
X7.737Y-4.612
X7.74Y-5.044
X7.74Y-5.121
X7.743Y-5.307
X7.744Y-4.536
X7.752Y-4.488
X7.759Y-5.139
X7.761Y-4.627
X7.761Y-4.956
X7.761Y-4.992
X7.763Y-4.656
X7.78Y-5.021
X7.795Y-5.305
X7.801Y-5.128
X7.82Y-4.712
X7.82Y-5.148
X7.828Y-5.282
X7.83Y-4.58
X7.835Y-5.193
X7.839Y-4.854
X7.843Y-5.242
X7.852Y-5.322
X7.854Y-5.011
X7.856Y-5.144
X7.874Y-4.805
X7.878Y-5.058
X7.878Y-5.351
X7.884Y-4.964
X7.888Y-4.748
X7.889Y-4.662
X7.891Y-5.235
X7.892Y-4.549
X7.9178Y-4.853
X7.919Y-4.713
X7.922Y-4.532
X7.941Y-4.623
X7.962Y-4.479
X7.967Y-4.774
X7.984Y-4.873
X7.987Y-4.478
X7.991Y-4.911
X7.993Y-4.637
X7.997Y-5.341
X8.013Y-4.489
X8.016Y-5.094
X8.018Y-4.952
X8.021Y-5.431
X8.025Y-4.781
X8.041Y-5.474
X8.046Y-5.198
X8.065Y-4.972
X8.069Y-5.075
X8.072Y-5.109
X8.077Y-5.322
X8.078Y-5.277
X8.08Y-5.239
X8.106Y-5.454
X8.121Y-5.161
X8.123Y-4.48
X8.147Y-4.479
X8.17Y-4.482
X8.177Y-5.102
X8.198Y-4.876
X8.2Y-4.898
X8.206Y-4.786
X8.225Y-5.109
X8.247Y-4.793
X8.253Y-5.109
X8.268Y-4.956
X8.285Y-5.28
X8.287Y-5.248
X8.291Y-5.031
X8.349Y-5.461
X8.378Y-5.269
X8.387Y-4.71
X8.419Y-5.077
X8.472Y-5.293
X8.511Y-5.183
X8.513Y-5.065
X8.536Y-5.034
X8.547Y-5.294
X8.567Y-5.033
X8.589Y-5.18
X8.59Y-5.062
X8.593Y-5.229
X8.657Y-5.317
X8.709Y-3.561
X8.73Y-5.181
X8.745Y-5.389
X8.76Y-5.182
X8.791Y-5.182
X8.85Y-3.55
X8.978Y-3.558
X9.096Y-5.271
X9.105Y-5.197
X9.14Y-5.193
X9.174Y-5.193
X9.288Y-3.769
X9.309Y-3.768
X9.328Y-5.241
X9.369Y-5.143
X9.399Y-5.292
X9.404Y-5.143
X9.535Y-5.132
X9.733Y-5.139
X9.79Y-5.356
X9.805Y-5.146
X9.842Y-5.145
X9.867Y-3.727
X9.903Y-5.19
X9.9837Y-5.2305
X9.99Y-5.019
X10.01Y-5.195
T3
X5.0157Y-4.2323
X5.2677Y-4.248
X5.3307Y-4.2717
X5.378Y-3.9646
X5.4724Y-5.0906
X5.4961Y-4.878
X5.6457Y-3.9961
X5.7638Y-3.9235
X5.7717Y-4.0748
X5.7795Y-4.0197
X5.7795Y-5.0433
X5.8661Y-3.9252
X5.874Y-4.0197
X6.2126Y-5.2795
X6.2205Y-5.122
X6.4567Y-3.8701
X6.5039Y-5.1693
X6.5827Y-5.2165
X6.639Y-5.346
X7.1339Y-3.9488
X7.1437Y-3.9193
X7.1969Y-3.563
X7.2756Y-3.5787
X7.3465Y-3.8942
X7.3885Y-3.7178
X7.4016Y-4.1378
X7.4331Y-4.0118
X7.4961Y-3.7362
X7.5135Y-3.9276
X7.5354Y-3.7126
X7.5906Y-4.2402
X7.8268Y-4.1614
X8.3543Y-4.5472
X8.4488Y-4.5315
X8.9843Y-5.1693
X9.0Y-4.4843
X9.063Y-4.689
X9.1102Y-4.9252
X9.126Y-5.388
X9.1496Y-4.5236
X9.1611Y-4.6054
X9.189Y-4.4843
X9.2047Y-4.6969
X9.2126Y-4.815
X9.2507Y-4.8253
X9.2598Y-4.6181
X9.2598Y-5.1063
X9.2677Y-4.5866
X9.2835Y-5.1063
X9.3206Y-4.7325
X9.3307Y-4.9724
X9.3448Y-4.9409
X9.3524Y-4.8322
X9.3543Y-5.0748
X9.4567Y-4.9094
X9.4882Y-5.1063
X9.4961Y-4.6339
X9.4961Y-5.2087
X9.5276Y-4.5866
X9.5354Y-4.7283
X9.5433Y-5.0197
X9.5748Y-5.1535
X9.5838Y-4.6911
X9.6142Y-5.1535
X9.7126Y-4.7323
X9.7638Y-4.7677
X9.7795Y-5.2087
X9.8074Y-4.9567
X9.8661Y-4.248
X9.8898Y-5.0906
X9.9528Y-5.1493
X9.9685Y-5.0354
X9.9764Y-4.9724
X10.1102Y-5.2008
X10.1339Y-5.2717
X10.1417Y-4.3189
X10.1575Y-5.3898
X10.1723Y-5.3337
X10.2047Y-4.2165
X10.2126Y-4.8307
X10.2362Y-4.9252
X10.2913Y-4.3031
X10.3386Y-5.2244
X10.3465Y-4.815
X10.3476Y-4.8409
X10.378Y-4.2244
X10.3858Y-4.0984
X10.4016Y-4.8543
X10.4409Y-4.2165
X10.5354Y-3.7283
X10.5512Y-4.2795
X10.6063Y-4.8071
X10.62Y-4.1772
X10.622Y-4.4606
X10.622Y-4.5157
X10.6535Y-3.7283
X10.6693Y-4.2717
X10.6929Y-4.1535
X10.748Y-4.7047
X10.7559Y-5.2631
X10.7559Y-5.4606
X10.8189Y-4.9567
X10.8189Y-4.9803
X10.8504Y-5.1929
X10.8504Y-5.2165
X10.8583Y-3.7362
X10.9387Y-5.0972
X10.9685Y-3.7362
X10.9685Y-5.1535
X10.9685Y-5.0276
X11.0157Y-5.2874
X11.0315Y-5.4291
X11.0394Y-5.2402
X11.1732Y-5.0512
X11.2047Y-4.3346
X11.2835Y-4.1142
X11.3701Y-5.1929
X11.378Y-3.9724
X11.378Y-4.0433
X11.378Y-4.0827
X11.378Y-4.1142
X11.3858Y-5.2165
X11.4094Y-5.3661
X11.4567Y-3.9882
X11.4567Y-4.0512
X11.4567Y-4.1142
X11.5512Y-4.0354
X11.581Y-4.1299
X11.7008Y-4.8307
T4
X6.594Y-4.155
X6.596Y-4.119
X6.891Y-4.25
X6.897Y-4.161
T5
X6.079Y-3.876
X6.3Y-5.412
X6.441Y-5.246
X7.897Y-3.781
X7.902Y-3.747
X7.95Y-3.671
X7.957Y-3.709
X8.0Y-3.71
X8.133Y-3.647
X8.283Y-3.695
X8.284Y-3.973
X8.284Y-4.025
X8.284Y-4.075
X8.285Y-4.139
X8.316Y-3.702
X8.326Y-3.935
X8.399Y-3.718
X8.425Y-3.556
X8.445Y-3.719
X8.484Y-3.722
X8.515Y-3.64
X8.516Y-3.558
X8.52Y-3.714
X8.597Y-3.559
X8.611Y-3.603
X8.857Y-5.301
X9.238Y-5.3
X9.474Y-3.616
X9.547Y-3.612
X9.556Y-3.686
X9.603Y-3.765
X9.641Y-3.76
X9.653Y-3.723
X9.904Y-3.898
X9.911Y-3.86
X9.982Y-3.86
X11.7173Y-4.2102
X11.7229Y-4.4434
X11.7513Y-4.2082
X11.7554Y-4.9877
X11.7579Y-4.4464
X11.7644Y-5.1817
X11.7863Y-4.2112
X11.7919Y-4.4444
X11.8134Y-4.9827
X11.8154Y-5.1827
X11.8724Y-5.1787
X11.8734Y-4.9887
T6
X10.0157Y-4.3719
X10.0157Y-4.5097
X10.0236Y-4.7341
X10.0236Y-4.8719
T7
X5.091Y-3.838
X5.091Y-3.938
X5.091Y-4.038
X5.091Y-4.138
X5.093Y-4.322
X5.093Y-4.422
X5.093Y-4.522
X5.093Y-4.622
X5.191Y-3.838
X5.191Y-3.938
X5.191Y-4.038
X5.191Y-4.138
X5.193Y-4.322
X5.193Y-4.422
X5.193Y-4.522
X5.193Y-4.622
X5.8984Y-3.5872
X5.8984Y-3.6872
X5.9984Y-3.5872
X5.9984Y-3.6872
X6.0984Y-3.5872
X6.0984Y-3.6872
X6.1984Y-3.5872
X6.1984Y-3.6872
X6.3964Y-3.5862
X6.3964Y-3.6862
X6.4964Y-3.5862
X6.4964Y-3.6862
X6.5964Y-3.5862
X6.5964Y-3.6862
X6.6964Y-3.5862
X6.6964Y-3.6862
X7.378Y-3.5945
X7.8819Y-3.592
X8.192Y-5.411
X8.292Y-5.411
X8.392Y-5.411
X8.492Y-5.411
X9.233Y-3.583
X9.7396Y-5.3128
X9.7396Y-5.4128
X9.8396Y-5.3128
X9.8396Y-5.4128
X9.8661Y-4.0276
X9.9396Y-5.3128
X9.9396Y-5.4128
X10.0396Y-5.3128
X10.0396Y-5.4128
X10.3118Y-4.9331
X10.3118Y-5.0331
X10.3176Y-5.3198
X10.3176Y-5.4198
X10.4118Y-4.9331
X10.4118Y-5.0331
X10.4176Y-5.3198
X10.4176Y-5.4198
X10.5118Y-4.9331
X10.5118Y-5.0331
X10.5176Y-5.3198
X10.5176Y-5.4198
X10.6118Y-4.9331
X10.6118Y-5.0331
X10.6176Y-5.3198
X10.6176Y-5.4198
X11.8031Y-4.5701
X11.8031Y-4.6701
X11.8031Y-4.7701
X11.8031Y-4.8701
T8
X5.1575Y-4.9567
X5.1575Y-5.0748
X5.2756Y-4.9567
X5.2756Y-5.0748
X5.4803Y-3.6496
X5.4803Y-3.7677
X5.5591Y-5.2087
X5.5591Y-5.3268
X5.5984Y-3.6496
X5.5984Y-3.7677
X5.6772Y-5.2087
X5.6772Y-5.3268
X6.0039Y-5.2087
X6.0039Y-5.3268
X6.122Y-5.2087
X6.122Y-5.3268
X6.8425Y-5.1929
X6.8425Y-5.311
X6.9606Y-5.1929
X6.9606Y-5.311
X6.9843Y-3.6622
X6.9843Y-3.7803
X7.0787Y-5.1929
X7.0787Y-5.311
X7.1024Y-3.6622
X7.1024Y-3.7803
X7.6535Y-3.6654
X7.6535Y-3.7835
T9
X11.7819Y-3.9543
T10
X11.6819Y-3.8543
X11.6819Y-4.0543
X11.8819Y-3.8543
X11.8819Y-4.0543
T11
X5.13Y-3.63
X5.13Y-5.37
X8.673Y-3.9255
X8.673Y-4.8865
X9.634Y-3.9245
X9.634Y-4.8865
X11.868Y-5.369
X11.87Y-3.63
M30
