G04 #@! TF.GenerationSoftware,KiCad,Pcbnew,7.0.10*
G04 #@! TF.CreationDate,2024-07-22T15:51:58-07:00*
G04 #@! TF.ProjectId,LCP_Controller,4c43505f-436f-46e7-9472-6f6c6c65722e,rev?*
G04 #@! TF.SameCoordinates,Original*
G04 #@! TF.FileFunction,Copper,L1,Top*
G04 #@! TF.FilePolarity,Positive*
%FSLAX46Y46*%
G04 Gerber Fmt 4.6, Leading zero omitted, Abs format (unit mm)*
G04 Created by KiCad (PCBNEW 7.0.10) date 2024-07-22 15:51:58*
%MOMM*%
%LPD*%
G01*
G04 APERTURE LIST*
G04 Aperture macros list*
%AMRoundRect*
0 Rectangle with rounded corners*
0 $1 Rounding radius*
0 $2 $3 $4 $5 $6 $7 $8 $9 X,Y pos of 4 corners*
0 Add a 4 corners polygon primitive as box body*
4,1,4,$2,$3,$4,$5,$6,$7,$8,$9,$2,$3,0*
0 Add four circle primitives for the rounded corners*
1,1,$1+$1,$2,$3*
1,1,$1+$1,$4,$5*
1,1,$1+$1,$6,$7*
1,1,$1+$1,$8,$9*
0 Add four rect primitives between the rounded corners*
20,1,$1+$1,$2,$3,$4,$5,0*
20,1,$1+$1,$4,$5,$6,$7,0*
20,1,$1+$1,$6,$7,$8,$9,0*
20,1,$1+$1,$8,$9,$2,$3,0*%
%AMFreePoly0*
4,1,6,1.000000,0.000000,0.500000,-0.750000,-0.500000,-0.750000,-0.500000,0.750000,0.500000,0.750000,1.000000,0.000000,1.000000,0.000000,$1*%
%AMFreePoly1*
4,1,6,0.500000,-0.750000,-0.650000,-0.750000,-0.150000,0.000000,-0.650000,0.750000,0.500000,0.750000,0.500000,-0.750000,0.500000,-0.750000,$1*%
%AMFreePoly2*
4,1,19,0.550000,-0.750000,0.000000,-0.750000,0.000000,-0.744911,-0.071157,-0.744911,-0.207708,-0.704816,-0.327430,-0.627875,-0.420627,-0.520320,-0.479746,-0.390866,-0.500000,-0.250000,-0.500000,0.250000,-0.479746,0.390866,-0.420627,0.520320,-0.327430,0.627875,-0.207708,0.704816,-0.071157,0.744911,0.000000,0.744911,0.000000,0.750000,0.550000,0.750000,0.550000,-0.750000,0.550000,-0.750000,
$1*%
%AMFreePoly3*
4,1,19,0.000000,0.744911,0.071157,0.744911,0.207708,0.704816,0.327430,0.627875,0.420627,0.520320,0.479746,0.390866,0.500000,0.250000,0.500000,-0.250000,0.479746,-0.390866,0.420627,-0.520320,0.327430,-0.627875,0.207708,-0.704816,0.071157,-0.744911,0.000000,-0.744911,0.000000,-0.750000,-0.550000,-0.750000,-0.550000,0.750000,0.000000,0.750000,0.000000,0.744911,0.000000,0.744911,
$1*%
%AMFreePoly4*
4,1,19,0.500000,-0.750000,0.000000,-0.750000,0.000000,-0.744911,-0.071157,-0.744911,-0.207708,-0.704816,-0.327430,-0.627875,-0.420627,-0.520320,-0.479746,-0.390866,-0.500000,-0.250000,-0.500000,0.250000,-0.479746,0.390866,-0.420627,0.520320,-0.327430,0.627875,-0.207708,0.704816,-0.071157,0.744911,0.000000,0.744911,0.000000,0.750000,0.500000,0.750000,0.500000,-0.750000,0.500000,-0.750000,
$1*%
%AMFreePoly5*
4,1,19,0.000000,0.744911,0.071157,0.744911,0.207708,0.704816,0.327430,0.627875,0.420627,0.520320,0.479746,0.390866,0.500000,0.250000,0.500000,-0.250000,0.479746,-0.390866,0.420627,-0.520320,0.327430,-0.627875,0.207708,-0.704816,0.071157,-0.744911,0.000000,-0.744911,0.000000,-0.750000,-0.500000,-0.750000,-0.500000,0.750000,0.000000,0.750000,0.000000,0.744911,0.000000,0.744911,
$1*%
G04 Aperture macros list end*
G04 #@! TA.AperFunction,SMDPad,CuDef*
%ADD10RoundRect,0.062500X0.350000X0.062500X-0.350000X0.062500X-0.350000X-0.062500X0.350000X-0.062500X0*%
G04 #@! TD*
G04 #@! TA.AperFunction,SMDPad,CuDef*
%ADD11RoundRect,0.062500X0.062500X0.350000X-0.062500X0.350000X-0.062500X-0.350000X0.062500X-0.350000X0*%
G04 #@! TD*
G04 #@! TA.AperFunction,ComponentPad*
%ADD12C,0.500000*%
G04 #@! TD*
G04 #@! TA.AperFunction,SMDPad,CuDef*
%ADD13R,2.700000X2.700000*%
G04 #@! TD*
G04 #@! TA.AperFunction,SMDPad,CuDef*
%ADD14RoundRect,0.250000X-0.475000X0.250000X-0.475000X-0.250000X0.475000X-0.250000X0.475000X0.250000X0*%
G04 #@! TD*
G04 #@! TA.AperFunction,SMDPad,CuDef*
%ADD15R,0.500000X0.320000*%
G04 #@! TD*
G04 #@! TA.AperFunction,SMDPad,CuDef*
%ADD16R,0.375000X0.350000*%
G04 #@! TD*
G04 #@! TA.AperFunction,SMDPad,CuDef*
%ADD17R,0.350000X0.375000*%
G04 #@! TD*
G04 #@! TA.AperFunction,ComponentPad*
%ADD18RoundRect,0.250001X-0.499999X0.499999X-0.499999X-0.499999X0.499999X-0.499999X0.499999X0.499999X0*%
G04 #@! TD*
G04 #@! TA.AperFunction,ComponentPad*
%ADD19C,1.500000*%
G04 #@! TD*
G04 #@! TA.AperFunction,SMDPad,CuDef*
%ADD20RoundRect,0.250000X0.475000X-0.250000X0.475000X0.250000X-0.475000X0.250000X-0.475000X-0.250000X0*%
G04 #@! TD*
G04 #@! TA.AperFunction,SMDPad,CuDef*
%ADD21RoundRect,0.250000X-0.250000X-0.475000X0.250000X-0.475000X0.250000X0.475000X-0.250000X0.475000X0*%
G04 #@! TD*
G04 #@! TA.AperFunction,SMDPad,CuDef*
%ADD22RoundRect,0.200000X-0.275000X0.200000X-0.275000X-0.200000X0.275000X-0.200000X0.275000X0.200000X0*%
G04 #@! TD*
G04 #@! TA.AperFunction,SMDPad,CuDef*
%ADD23R,0.500000X0.400000*%
G04 #@! TD*
G04 #@! TA.AperFunction,SMDPad,CuDef*
%ADD24R,1.050000X1.000000*%
G04 #@! TD*
G04 #@! TA.AperFunction,SMDPad,CuDef*
%ADD25R,2.200000X1.050000*%
G04 #@! TD*
G04 #@! TA.AperFunction,SMDPad,CuDef*
%ADD26RoundRect,0.062500X0.062500X-0.350000X0.062500X0.350000X-0.062500X0.350000X-0.062500X-0.350000X0*%
G04 #@! TD*
G04 #@! TA.AperFunction,SMDPad,CuDef*
%ADD27RoundRect,0.062500X0.350000X-0.062500X0.350000X0.062500X-0.350000X0.062500X-0.350000X-0.062500X0*%
G04 #@! TD*
G04 #@! TA.AperFunction,SMDPad,CuDef*
%ADD28R,1.230000X1.230000*%
G04 #@! TD*
G04 #@! TA.AperFunction,ComponentPad*
%ADD29R,1.700000X1.700000*%
G04 #@! TD*
G04 #@! TA.AperFunction,ComponentPad*
%ADD30O,1.700000X1.700000*%
G04 #@! TD*
G04 #@! TA.AperFunction,SMDPad,CuDef*
%ADD31FreePoly0,180.000000*%
G04 #@! TD*
G04 #@! TA.AperFunction,SMDPad,CuDef*
%ADD32FreePoly1,180.000000*%
G04 #@! TD*
G04 #@! TA.AperFunction,SMDPad,CuDef*
%ADD33RoundRect,0.250000X-0.450000X0.262500X-0.450000X-0.262500X0.450000X-0.262500X0.450000X0.262500X0*%
G04 #@! TD*
G04 #@! TA.AperFunction,SMDPad,CuDef*
%ADD34RoundRect,0.250000X0.250000X0.475000X-0.250000X0.475000X-0.250000X-0.475000X0.250000X-0.475000X0*%
G04 #@! TD*
G04 #@! TA.AperFunction,SMDPad,CuDef*
%ADD35RoundRect,0.150000X0.587500X0.150000X-0.587500X0.150000X-0.587500X-0.150000X0.587500X-0.150000X0*%
G04 #@! TD*
G04 #@! TA.AperFunction,SMDPad,CuDef*
%ADD36R,1.000000X1.800000*%
G04 #@! TD*
G04 #@! TA.AperFunction,SMDPad,CuDef*
%ADD37RoundRect,0.150000X0.150000X0.625000X-0.150000X0.625000X-0.150000X-0.625000X0.150000X-0.625000X0*%
G04 #@! TD*
G04 #@! TA.AperFunction,SMDPad,CuDef*
%ADD38RoundRect,0.250000X0.350000X0.650000X-0.350000X0.650000X-0.350000X-0.650000X0.350000X-0.650000X0*%
G04 #@! TD*
G04 #@! TA.AperFunction,SMDPad,CuDef*
%ADD39R,0.400000X0.900000*%
G04 #@! TD*
G04 #@! TA.AperFunction,ComponentPad*
%ADD40RoundRect,0.250001X0.499999X0.499999X-0.499999X0.499999X-0.499999X-0.499999X0.499999X-0.499999X0*%
G04 #@! TD*
G04 #@! TA.AperFunction,SMDPad,CuDef*
%ADD41RoundRect,0.150000X-0.587500X-0.150000X0.587500X-0.150000X0.587500X0.150000X-0.587500X0.150000X0*%
G04 #@! TD*
G04 #@! TA.AperFunction,ComponentPad*
%ADD42C,5.000000*%
G04 #@! TD*
G04 #@! TA.AperFunction,SMDPad,CuDef*
%ADD43RoundRect,0.150000X0.150000X-0.587500X0.150000X0.587500X-0.150000X0.587500X-0.150000X-0.587500X0*%
G04 #@! TD*
G04 #@! TA.AperFunction,SMDPad,CuDef*
%ADD44RoundRect,0.135000X-0.185000X0.135000X-0.185000X-0.135000X0.185000X-0.135000X0.185000X0.135000X0*%
G04 #@! TD*
G04 #@! TA.AperFunction,SMDPad,CuDef*
%ADD45RoundRect,0.200000X0.275000X-0.200000X0.275000X0.200000X-0.275000X0.200000X-0.275000X-0.200000X0*%
G04 #@! TD*
G04 #@! TA.AperFunction,SMDPad,CuDef*
%ADD46RoundRect,0.250000X0.450000X-0.262500X0.450000X0.262500X-0.450000X0.262500X-0.450000X-0.262500X0*%
G04 #@! TD*
G04 #@! TA.AperFunction,SMDPad,CuDef*
%ADD47RoundRect,0.250000X-0.262500X-0.450000X0.262500X-0.450000X0.262500X0.450000X-0.262500X0.450000X0*%
G04 #@! TD*
G04 #@! TA.AperFunction,ComponentPad*
%ADD48C,2.000000*%
G04 #@! TD*
G04 #@! TA.AperFunction,SMDPad,CuDef*
%ADD49RoundRect,0.250000X0.262500X0.450000X-0.262500X0.450000X-0.262500X-0.450000X0.262500X-0.450000X0*%
G04 #@! TD*
G04 #@! TA.AperFunction,SMDPad,CuDef*
%ADD50R,1.560000X0.650000*%
G04 #@! TD*
G04 #@! TA.AperFunction,SMDPad,CuDef*
%ADD51R,0.300000X0.400000*%
G04 #@! TD*
G04 #@! TA.AperFunction,SMDPad,CuDef*
%ADD52O,0.650000X0.400000*%
G04 #@! TD*
G04 #@! TA.AperFunction,SMDPad,CuDef*
%ADD53R,0.650000X1.000000*%
G04 #@! TD*
G04 #@! TA.AperFunction,SMDPad,CuDef*
%ADD54R,1.650000X2.400000*%
G04 #@! TD*
G04 #@! TA.AperFunction,SMDPad,CuDef*
%ADD55R,1.000000X1.500000*%
G04 #@! TD*
G04 #@! TA.AperFunction,SMDPad,CuDef*
%ADD56R,0.600000X0.400000*%
G04 #@! TD*
G04 #@! TA.AperFunction,SMDPad,CuDef*
%ADD57R,0.600000X0.600000*%
G04 #@! TD*
G04 #@! TA.AperFunction,SMDPad,CuDef*
%ADD58R,0.400000X0.600000*%
G04 #@! TD*
G04 #@! TA.AperFunction,ComponentPad*
%ADD59R,1.600000X1.600000*%
G04 #@! TD*
G04 #@! TA.AperFunction,ComponentPad*
%ADD60C,1.600000*%
G04 #@! TD*
G04 #@! TA.AperFunction,ComponentPad*
%ADD61RoundRect,0.250001X-0.499999X-0.499999X0.499999X-0.499999X0.499999X0.499999X-0.499999X0.499999X0*%
G04 #@! TD*
G04 #@! TA.AperFunction,SMDPad,CuDef*
%ADD62RoundRect,0.150000X-0.150000X0.587500X-0.150000X-0.587500X0.150000X-0.587500X0.150000X0.587500X0*%
G04 #@! TD*
G04 #@! TA.AperFunction,SMDPad,CuDef*
%ADD63RoundRect,0.225000X0.250000X-0.225000X0.250000X0.225000X-0.250000X0.225000X-0.250000X-0.225000X0*%
G04 #@! TD*
G04 #@! TA.AperFunction,SMDPad,CuDef*
%ADD64RoundRect,0.175000X-0.725000X-0.175000X0.725000X-0.175000X0.725000X0.175000X-0.725000X0.175000X0*%
G04 #@! TD*
G04 #@! TA.AperFunction,SMDPad,CuDef*
%ADD65RoundRect,0.200000X-0.700000X-0.200000X0.700000X-0.200000X0.700000X0.200000X-0.700000X0.200000X0*%
G04 #@! TD*
G04 #@! TA.AperFunction,SMDPad,CuDef*
%ADD66R,0.900000X0.400000*%
G04 #@! TD*
G04 #@! TA.AperFunction,SMDPad,CuDef*
%ADD67R,7.875000X2.000000*%
G04 #@! TD*
G04 #@! TA.AperFunction,SMDPad,CuDef*
%ADD68RoundRect,0.150000X0.150000X-0.512500X0.150000X0.512500X-0.150000X0.512500X-0.150000X-0.512500X0*%
G04 #@! TD*
G04 #@! TA.AperFunction,SMDPad,CuDef*
%ADD69RoundRect,0.062500X-0.350000X-0.062500X0.350000X-0.062500X0.350000X0.062500X-0.350000X0.062500X0*%
G04 #@! TD*
G04 #@! TA.AperFunction,SMDPad,CuDef*
%ADD70RoundRect,0.062500X-0.062500X-0.350000X0.062500X-0.350000X0.062500X0.350000X-0.062500X0.350000X0*%
G04 #@! TD*
G04 #@! TA.AperFunction,SMDPad,CuDef*
%ADD71R,1.050000X0.650000*%
G04 #@! TD*
G04 #@! TA.AperFunction,WasherPad*
%ADD72C,5.250000*%
G04 #@! TD*
G04 #@! TA.AperFunction,SMDPad,CuDef*
%ADD73R,0.700000X0.200000*%
G04 #@! TD*
G04 #@! TA.AperFunction,SMDPad,CuDef*
%ADD74RoundRect,0.140000X-0.140000X-0.170000X0.140000X-0.170000X0.140000X0.170000X-0.140000X0.170000X0*%
G04 #@! TD*
G04 #@! TA.AperFunction,SMDPad,CuDef*
%ADD75R,2.000000X1.100000*%
G04 #@! TD*
G04 #@! TA.AperFunction,SMDPad,CuDef*
%ADD76R,0.800000X1.100000*%
G04 #@! TD*
G04 #@! TA.AperFunction,SMDPad,CuDef*
%ADD77RoundRect,0.225000X0.225000X0.250000X-0.225000X0.250000X-0.225000X-0.250000X0.225000X-0.250000X0*%
G04 #@! TD*
G04 #@! TA.AperFunction,SMDPad,CuDef*
%ADD78FreePoly2,0.000000*%
G04 #@! TD*
G04 #@! TA.AperFunction,SMDPad,CuDef*
%ADD79FreePoly3,0.000000*%
G04 #@! TD*
G04 #@! TA.AperFunction,ConnectorPad*
%ADD80C,0.787400*%
G04 #@! TD*
G04 #@! TA.AperFunction,SMDPad,CuDef*
%ADD81RoundRect,0.250000X1.100000X-0.325000X1.100000X0.325000X-1.100000X0.325000X-1.100000X-0.325000X0*%
G04 #@! TD*
G04 #@! TA.AperFunction,SMDPad,CuDef*
%ADD82R,1.100000X2.000000*%
G04 #@! TD*
G04 #@! TA.AperFunction,SMDPad,CuDef*
%ADD83R,1.100000X0.800000*%
G04 #@! TD*
G04 #@! TA.AperFunction,SMDPad,CuDef*
%ADD84RoundRect,0.250000X0.362500X1.425000X-0.362500X1.425000X-0.362500X-1.425000X0.362500X-1.425000X0*%
G04 #@! TD*
G04 #@! TA.AperFunction,SMDPad,CuDef*
%ADD85RoundRect,0.243750X-0.456250X0.243750X-0.456250X-0.243750X0.456250X-0.243750X0.456250X0.243750X0*%
G04 #@! TD*
G04 #@! TA.AperFunction,SMDPad,CuDef*
%ADD86R,2.900000X5.400000*%
G04 #@! TD*
G04 #@! TA.AperFunction,ComponentPad*
%ADD87C,2.050000*%
G04 #@! TD*
G04 #@! TA.AperFunction,ComponentPad*
%ADD88C,2.250000*%
G04 #@! TD*
G04 #@! TA.AperFunction,SMDPad,CuDef*
%ADD89FreePoly2,90.000000*%
G04 #@! TD*
G04 #@! TA.AperFunction,SMDPad,CuDef*
%ADD90R,1.500000X1.000000*%
G04 #@! TD*
G04 #@! TA.AperFunction,SMDPad,CuDef*
%ADD91FreePoly3,90.000000*%
G04 #@! TD*
G04 #@! TA.AperFunction,SMDPad,CuDef*
%ADD92RoundRect,0.200000X-0.200000X-0.275000X0.200000X-0.275000X0.200000X0.275000X-0.200000X0.275000X0*%
G04 #@! TD*
G04 #@! TA.AperFunction,SMDPad,CuDef*
%ADD93R,0.250000X0.700000*%
G04 #@! TD*
G04 #@! TA.AperFunction,SMDPad,CuDef*
%ADD94R,2.400000X0.640000*%
G04 #@! TD*
G04 #@! TA.AperFunction,SMDPad,CuDef*
%ADD95RoundRect,0.062500X0.375000X0.062500X-0.375000X0.062500X-0.375000X-0.062500X0.375000X-0.062500X0*%
G04 #@! TD*
G04 #@! TA.AperFunction,SMDPad,CuDef*
%ADD96RoundRect,0.062500X0.062500X0.375000X-0.062500X0.375000X-0.062500X-0.375000X0.062500X-0.375000X0*%
G04 #@! TD*
G04 #@! TA.AperFunction,SMDPad,CuDef*
%ADD97R,5.150000X5.150000*%
G04 #@! TD*
G04 #@! TA.AperFunction,SMDPad,CuDef*
%ADD98FreePoly4,90.000000*%
G04 #@! TD*
G04 #@! TA.AperFunction,SMDPad,CuDef*
%ADD99FreePoly5,90.000000*%
G04 #@! TD*
G04 #@! TA.AperFunction,ViaPad*
%ADD100C,0.800000*%
G04 #@! TD*
G04 #@! TA.AperFunction,ViaPad*
%ADD101C,0.406400*%
G04 #@! TD*
G04 #@! TA.AperFunction,ViaPad*
%ADD102C,0.500000*%
G04 #@! TD*
G04 #@! TA.AperFunction,ViaPad*
%ADD103C,0.600000*%
G04 #@! TD*
G04 #@! TA.AperFunction,Conductor*
%ADD104C,1.500000*%
G04 #@! TD*
G04 #@! TA.AperFunction,Conductor*
%ADD105C,0.750000*%
G04 #@! TD*
G04 #@! TA.AperFunction,Conductor*
%ADD106C,0.200000*%
G04 #@! TD*
G04 #@! TA.AperFunction,Conductor*
%ADD107C,0.300000*%
G04 #@! TD*
G04 #@! TA.AperFunction,Conductor*
%ADD108C,0.500000*%
G04 #@! TD*
G04 #@! TA.AperFunction,Conductor*
%ADD109C,0.250000*%
G04 #@! TD*
G04 #@! TA.AperFunction,Conductor*
%ADD110C,1.000000*%
G04 #@! TD*
G04 #@! TA.AperFunction,Conductor*
%ADD111C,0.400000*%
G04 #@! TD*
G04 #@! TA.AperFunction,Conductor*
%ADD112C,0.350000*%
G04 #@! TD*
G04 #@! TA.AperFunction,Conductor*
%ADD113C,0.152400*%
G04 #@! TD*
G04 APERTURE END LIST*
G04 #@! TA.AperFunction,EtchedComponent*
G36*
X170328400Y-120462600D02*
G01*
X169828400Y-120462600D01*
X169828400Y-120062600D01*
X170328400Y-120062600D01*
X170328400Y-120462600D01*
G37*
G04 #@! TD.AperFunction*
G04 #@! TA.AperFunction,EtchedComponent*
G36*
X170328400Y-119662600D02*
G01*
X169828400Y-119662600D01*
X169828400Y-119262600D01*
X170328400Y-119262600D01*
X170328400Y-119662600D01*
G37*
G04 #@! TD.AperFunction*
G04 #@! TA.AperFunction,EtchedComponent*
G36*
X272800000Y-92600000D02*
G01*
X272300000Y-92600000D01*
X272300000Y-92000000D01*
X272800000Y-92000000D01*
X272800000Y-92600000D01*
G37*
G04 #@! TD.AperFunction*
G04 #@! TA.AperFunction,EtchedComponent*
G36*
X231300000Y-116200000D02*
G01*
X230700000Y-116200000D01*
X230700000Y-115700000D01*
X231300000Y-115700000D01*
X231300000Y-116200000D01*
G37*
G04 #@! TD.AperFunction*
G04 #@! TA.AperFunction,EtchedComponent*
G36*
X231300000Y-123100000D02*
G01*
X230700000Y-123100000D01*
X230700000Y-122600000D01*
X231300000Y-122600000D01*
X231300000Y-123100000D01*
G37*
G04 #@! TD.AperFunction*
G04 #@! TA.AperFunction,EtchedComponent*
G36*
X236700000Y-112750000D02*
G01*
X236100000Y-112750000D01*
X236100000Y-112250000D01*
X236700000Y-112250000D01*
X236700000Y-112750000D01*
G37*
G04 #@! TD.AperFunction*
D10*
X179711700Y-104805800D03*
X179711700Y-104305800D03*
X179711700Y-103805800D03*
X179711700Y-103305800D03*
X179711700Y-102805800D03*
X179711700Y-102305800D03*
D11*
X178999200Y-101593300D03*
X178499200Y-101593300D03*
X177999200Y-101593300D03*
X177499200Y-101593300D03*
X176999200Y-101593300D03*
X176499200Y-101593300D03*
D10*
X175786700Y-102305800D03*
X175786700Y-102805800D03*
X175786700Y-103305800D03*
X175786700Y-103805800D03*
X175786700Y-104305800D03*
X175786700Y-104805800D03*
D11*
X176499200Y-105518300D03*
X176999200Y-105518300D03*
X177499200Y-105518300D03*
X177999200Y-105518300D03*
X178499200Y-105518300D03*
X178999200Y-105518300D03*
D12*
X178849200Y-104655800D03*
X178849200Y-103555800D03*
X178849200Y-102455800D03*
X177749200Y-104655800D03*
X177749200Y-103555800D03*
D13*
X177749200Y-103555800D03*
D12*
X177749200Y-102455800D03*
X176649200Y-104655800D03*
X176649200Y-103555800D03*
X176649200Y-102455800D03*
D14*
X148082000Y-106695200D03*
X148082000Y-108595200D03*
D15*
X235110400Y-93661800D03*
X235110400Y-94161800D03*
X235110400Y-94661800D03*
X235110400Y-95161800D03*
X236110400Y-95161800D03*
X236110400Y-94661800D03*
X236110400Y-94161800D03*
X236110400Y-93661800D03*
D16*
X165264100Y-136934000D03*
X165264100Y-137434000D03*
X165264100Y-137934000D03*
X165264100Y-138434000D03*
D17*
X165776600Y-138446500D03*
X166276600Y-138446500D03*
D16*
X166789100Y-138434000D03*
X166789100Y-137934000D03*
X166789100Y-137434000D03*
X166789100Y-136934000D03*
D17*
X166276600Y-136921500D03*
X165776600Y-136921500D03*
D18*
X134000000Y-125900000D03*
D19*
X134000000Y-128900000D03*
X131000000Y-125900000D03*
X131000000Y-128900000D03*
D20*
X190957200Y-125892600D03*
X190957200Y-123992600D03*
D21*
X161076600Y-137414000D03*
X162976600Y-137414000D03*
D22*
X141020800Y-114618000D03*
X141020800Y-116268000D03*
D23*
X170238800Y-97567000D03*
X170238800Y-98267000D03*
X171238800Y-98267000D03*
X171238800Y-97567000D03*
D24*
X300269400Y-109939600D03*
D25*
X298744400Y-111414600D03*
X298744400Y-108464600D03*
D26*
X236800000Y-124175000D03*
X237300000Y-124175000D03*
X237800000Y-124175000D03*
X238300000Y-124175000D03*
D27*
X238987500Y-123487500D03*
X238987500Y-122987500D03*
X238987500Y-122487500D03*
X238987500Y-121987500D03*
D26*
X238300000Y-121300000D03*
X237800000Y-121300000D03*
X237300000Y-121300000D03*
X236800000Y-121300000D03*
D27*
X236112500Y-121987500D03*
X236112500Y-122487500D03*
X236112500Y-122987500D03*
X236112500Y-123487500D03*
D28*
X237550000Y-122737500D03*
D29*
X131902200Y-117398800D03*
D30*
X129362200Y-117398800D03*
X131902200Y-114858800D03*
X129362200Y-114858800D03*
X131902200Y-112318800D03*
X129362200Y-112318800D03*
X131902200Y-109778800D03*
X129362200Y-109778800D03*
D31*
X220993800Y-94157800D03*
D32*
X219543800Y-94157800D03*
D31*
X225870600Y-94361000D03*
D32*
X224420600Y-94361000D03*
D24*
X298550000Y-129100000D03*
D25*
X300075000Y-127625000D03*
X300075000Y-130575000D03*
D33*
X269200000Y-92187500D03*
X269200000Y-94012500D03*
D34*
X168750000Y-131100000D03*
X166850000Y-131100000D03*
D35*
X180083700Y-116215200D03*
X180083700Y-114315200D03*
X178208700Y-115265200D03*
D14*
X238600000Y-117200000D03*
X238600000Y-119100000D03*
D36*
X196810000Y-121716800D03*
X194310000Y-121716800D03*
D33*
X187655200Y-131777100D03*
X187655200Y-133602100D03*
D20*
X183870600Y-101813400D03*
X183870600Y-99913400D03*
D37*
X233808400Y-135352400D03*
X232808400Y-135352400D03*
X231808400Y-135352400D03*
X230808400Y-135352400D03*
D38*
X235108400Y-137877400D03*
X229508400Y-137877400D03*
D29*
X149819200Y-93654800D03*
D30*
X149819200Y-91114800D03*
X152359200Y-93654800D03*
X152359200Y-91114800D03*
X154899200Y-93654800D03*
X154899200Y-91114800D03*
X157439200Y-93654800D03*
X157439200Y-91114800D03*
D39*
X238728200Y-131407800D03*
X237928200Y-131407800D03*
X237928200Y-133107800D03*
X238728200Y-133107800D03*
D14*
X136296400Y-102148600D03*
X136296400Y-104048600D03*
D40*
X194400000Y-96100000D03*
D19*
X194400000Y-93100000D03*
D41*
X222988900Y-130698200D03*
X222988900Y-132598200D03*
X224863900Y-131648200D03*
D42*
X130302000Y-136398000D03*
D43*
X186250000Y-97375000D03*
X188150000Y-97375000D03*
X187200000Y-95500000D03*
D42*
X220294200Y-124117100D03*
D44*
X209727800Y-91349600D03*
X209727800Y-92369600D03*
D39*
X217595400Y-128690000D03*
X216795400Y-128690000D03*
X216795400Y-130390000D03*
X217595400Y-130390000D03*
D35*
X138021300Y-116418400D03*
X138021300Y-114518400D03*
X136146300Y-115468400D03*
D34*
X177988000Y-108534200D03*
X176088000Y-108534200D03*
D45*
X142697200Y-114490000D03*
X142697200Y-112840000D03*
D14*
X205054200Y-122695300D03*
X205054200Y-124595300D03*
D46*
X247167400Y-131366900D03*
X247167400Y-129541900D03*
D14*
X148336000Y-115686800D03*
X148336000Y-117586800D03*
D15*
X162120200Y-102324600D03*
X162120200Y-101824600D03*
X162120200Y-101324600D03*
X162120200Y-100824600D03*
X161120200Y-100824600D03*
X161120200Y-101324600D03*
X161120200Y-101824600D03*
X161120200Y-102324600D03*
D47*
X266887500Y-114100000D03*
X268712500Y-114100000D03*
D48*
X187400000Y-91300000D03*
X234518200Y-91008200D03*
D20*
X241630200Y-94625200D03*
X241630200Y-92725200D03*
D49*
X258087500Y-99060000D03*
X256262500Y-99060000D03*
D33*
X277200000Y-92300000D03*
X277200000Y-94125000D03*
D31*
X230798200Y-94437200D03*
D32*
X229348200Y-94437200D03*
D15*
X166717600Y-98514600D03*
X166717600Y-98014600D03*
X166717600Y-97514600D03*
X166717600Y-97014600D03*
X165717600Y-97014600D03*
X165717600Y-97514600D03*
X165717600Y-98014600D03*
X165717600Y-98514600D03*
D35*
X196137500Y-101800000D03*
X196137500Y-99900000D03*
X194262500Y-100850000D03*
D50*
X207928200Y-93609200D03*
X207928200Y-92659200D03*
X207928200Y-91709200D03*
X205228200Y-91709200D03*
X205228200Y-92659200D03*
X205228200Y-93609200D03*
D48*
X200200000Y-91236800D03*
D51*
X150904000Y-104054000D03*
D52*
X151104000Y-104054000D03*
D51*
X150904000Y-104704000D03*
D52*
X151104000Y-104704000D03*
D51*
X150904000Y-105354000D03*
D52*
X151104000Y-105354000D03*
D51*
X150904000Y-106004000D03*
D52*
X151104000Y-106004000D03*
X154204000Y-106004000D03*
D51*
X154404000Y-106004000D03*
D52*
X154204000Y-105354000D03*
D51*
X154404000Y-105354000D03*
D52*
X154204000Y-104704000D03*
D51*
X154404000Y-104704000D03*
D52*
X154204000Y-104054000D03*
D51*
X154404000Y-104054000D03*
D53*
X152204000Y-104404000D03*
X152204000Y-105654000D03*
D54*
X152654000Y-105029000D03*
D53*
X153104000Y-104404000D03*
X153104000Y-105654000D03*
D21*
X172633600Y-119735600D03*
X174533600Y-119735600D03*
D42*
X130302000Y-92202000D03*
D21*
X161076600Y-134404000D03*
X162976600Y-134404000D03*
D15*
X157370400Y-109766800D03*
X157370400Y-109266800D03*
X157370400Y-108766800D03*
X157370400Y-108266800D03*
X156370400Y-108266800D03*
X156370400Y-108766800D03*
X156370400Y-109266800D03*
X156370400Y-109766800D03*
D46*
X220522800Y-132535300D03*
X220522800Y-130710300D03*
D33*
X191200000Y-100387500D03*
X191200000Y-102212500D03*
D42*
X244703600Y-124117100D03*
D49*
X254455300Y-99009200D03*
X252630300Y-99009200D03*
D55*
X170728400Y-119862600D03*
X169428400Y-119862600D03*
D35*
X162456100Y-129778800D03*
X162456100Y-127878800D03*
X160581100Y-128828800D03*
D33*
X199800000Y-99987500D03*
X199800000Y-101812500D03*
D20*
X302419400Y-109539600D03*
X302419400Y-107639600D03*
D56*
X202112000Y-135183000D03*
X201312000Y-134683000D03*
X202112000Y-134183000D03*
X201312000Y-133683000D03*
X202112000Y-133183000D03*
X201312000Y-132683000D03*
X202112000Y-132183000D03*
X201312000Y-131683000D03*
X202112000Y-131183000D03*
X201312000Y-130683000D03*
X202112000Y-130183000D03*
X201312000Y-129683000D03*
X202112000Y-129183000D03*
X201312000Y-128683000D03*
X202112000Y-128183000D03*
X201312000Y-127683000D03*
X202112000Y-127183000D03*
X201312000Y-126683000D03*
X202112000Y-126183000D03*
X201312000Y-125683000D03*
X202112000Y-125183000D03*
D57*
X202112000Y-124183000D03*
D58*
X201112000Y-124183000D03*
X200612000Y-124983000D03*
X200112000Y-124183000D03*
X199612000Y-124983000D03*
X199112000Y-124183000D03*
X198612000Y-124983000D03*
X198112000Y-124183000D03*
X197612000Y-124983000D03*
X197112000Y-124183000D03*
X196612000Y-124983000D03*
X196112000Y-124183000D03*
X195612000Y-124983000D03*
X195112000Y-124183000D03*
X194612000Y-124983000D03*
X194112000Y-124183000D03*
D57*
X193112000Y-124183000D03*
D56*
X193112000Y-125183000D03*
X193912000Y-125683000D03*
X193112000Y-126183000D03*
X193912000Y-126683000D03*
X193112000Y-127183000D03*
X193912000Y-127683000D03*
X193112000Y-128183000D03*
X193912000Y-128683000D03*
X193112000Y-129183000D03*
X193912000Y-129683000D03*
X193112000Y-130183000D03*
X193912000Y-130683000D03*
X193112000Y-131183000D03*
X193912000Y-131683000D03*
X193112000Y-132183000D03*
X193912000Y-132683000D03*
X193112000Y-133183000D03*
X193912000Y-133683000D03*
X193112000Y-134183000D03*
X193912000Y-134683000D03*
X193112000Y-135183000D03*
D59*
X254600000Y-120247349D03*
D60*
X254600000Y-123747349D03*
D15*
X166717600Y-102299200D03*
X166717600Y-101799200D03*
X166717600Y-101299200D03*
X166717600Y-100799200D03*
X165717600Y-100799200D03*
X165717600Y-101299200D03*
X165717600Y-101799200D03*
X165717600Y-102299200D03*
D46*
X209270600Y-133729100D03*
X209270600Y-131904100D03*
D48*
X250600000Y-102300000D03*
D61*
X173800000Y-131900000D03*
D19*
X176800000Y-131900000D03*
X179800000Y-131900000D03*
X173800000Y-134900000D03*
X176800000Y-134900000D03*
X179800000Y-134900000D03*
D14*
X148031200Y-102950000D03*
X148031200Y-104850000D03*
D47*
X275487500Y-124700000D03*
X277312500Y-124700000D03*
D62*
X140550000Y-126025000D03*
X138650000Y-126025000D03*
X139600000Y-127900000D03*
D41*
X197662500Y-103550000D03*
X197662500Y-105450000D03*
X199537500Y-104500000D03*
D33*
X182168800Y-114378100D03*
X182168800Y-116203100D03*
D21*
X179644000Y-108534200D03*
X181544000Y-108534200D03*
D46*
X230047800Y-132535300D03*
X230047800Y-130710300D03*
D41*
X249531900Y-129529800D03*
X249531900Y-131429800D03*
X251406900Y-130479800D03*
D45*
X149200000Y-122925000D03*
X149200000Y-121275000D03*
D63*
X217424000Y-93297000D03*
X217424000Y-91747000D03*
D14*
X243916200Y-92699800D03*
X243916200Y-94599800D03*
D61*
X152500000Y-132300000D03*
D19*
X155500000Y-132300000D03*
X152500000Y-135300000D03*
X155500000Y-135300000D03*
D33*
X164515800Y-127941700D03*
X164515800Y-129766700D03*
D64*
X282250000Y-129300000D03*
D65*
X282250000Y-130400000D03*
X282250000Y-131500000D03*
X282250000Y-132600000D03*
X282250000Y-133700000D03*
X282250000Y-134800000D03*
X282250000Y-135900000D03*
X282250000Y-137000000D03*
D64*
X282250000Y-138100000D03*
X291750000Y-138100000D03*
D65*
X291750000Y-137000000D03*
X291750000Y-135900000D03*
X291750000Y-134800000D03*
X291750000Y-133700000D03*
X291750000Y-132600000D03*
X291750000Y-131500000D03*
X291750000Y-130400000D03*
D64*
X291750000Y-129300000D03*
D14*
X236400000Y-117150000D03*
X236400000Y-119050000D03*
D29*
X255006000Y-134945200D03*
D30*
X255006000Y-137485200D03*
X252466000Y-134945200D03*
X252466000Y-137485200D03*
X249926000Y-134945200D03*
X249926000Y-137485200D03*
X247386000Y-134945200D03*
X247386000Y-137485200D03*
D47*
X206580100Y-128778000D03*
X208405100Y-128778000D03*
D29*
X269687200Y-135123000D03*
D30*
X269687200Y-137663000D03*
X267147200Y-135123000D03*
X267147200Y-137663000D03*
X264607200Y-135123000D03*
X264607200Y-137663000D03*
X262067200Y-135123000D03*
X262067200Y-137663000D03*
D40*
X180400000Y-96020000D03*
D19*
X177400000Y-96020000D03*
X180400000Y-93020000D03*
X177400000Y-93020000D03*
D29*
X131851400Y-105105200D03*
D30*
X129311400Y-105105200D03*
X131851400Y-102565200D03*
X129311400Y-102565200D03*
X131851400Y-100025200D03*
X129311400Y-100025200D03*
X131851400Y-97485200D03*
X129311400Y-97485200D03*
D59*
X254400000Y-111047349D03*
D60*
X254400000Y-114547349D03*
D61*
X141200000Y-132300000D03*
D19*
X144200000Y-132300000D03*
X141200000Y-135300000D03*
X144200000Y-135300000D03*
D20*
X215188800Y-93421200D03*
X215188800Y-91521200D03*
D66*
X152185000Y-118726000D03*
X152185000Y-119526000D03*
X153885000Y-119526000D03*
X153885000Y-118726000D03*
D67*
X159111700Y-124231400D03*
X170986700Y-124231400D03*
D68*
X252567400Y-96844700D03*
X253517400Y-96844700D03*
X254467400Y-96844700D03*
X254467400Y-94569700D03*
X253517400Y-94569700D03*
X252567400Y-94569700D03*
D69*
X141014100Y-103118600D03*
X141014100Y-103618600D03*
X141014100Y-104118600D03*
X141014100Y-104618600D03*
X141014100Y-105118600D03*
X141014100Y-105618600D03*
D70*
X141726600Y-106331100D03*
X142226600Y-106331100D03*
X142726600Y-106331100D03*
X143226600Y-106331100D03*
X143726600Y-106331100D03*
X144226600Y-106331100D03*
D69*
X144939100Y-105618600D03*
X144939100Y-105118600D03*
X144939100Y-104618600D03*
X144939100Y-104118600D03*
X144939100Y-103618600D03*
X144939100Y-103118600D03*
D70*
X144226600Y-102406100D03*
X143726600Y-102406100D03*
X143226600Y-102406100D03*
X142726600Y-102406100D03*
X142226600Y-102406100D03*
X141726600Y-102406100D03*
D12*
X141876600Y-103268600D03*
X141876600Y-104368600D03*
X141876600Y-105468600D03*
X142976600Y-103268600D03*
X142976600Y-104368600D03*
D13*
X142976600Y-104368600D03*
D12*
X142976600Y-105468600D03*
X144076600Y-103268600D03*
X144076600Y-104368600D03*
X144076600Y-105468600D03*
D42*
X244703600Y-99682300D03*
D71*
X206773600Y-116619600D03*
X202623600Y-116619600D03*
X206773600Y-114469600D03*
X202623600Y-114469600D03*
D72*
X264385000Y-92900000D03*
X264385000Y-117900000D03*
D73*
X292150000Y-104700000D03*
X287800000Y-104700000D03*
X292150000Y-104300000D03*
X287800000Y-104300000D03*
X292150000Y-103900000D03*
X287800000Y-103900000D03*
X292150000Y-103500000D03*
X287800000Y-103500000D03*
X292150000Y-103100000D03*
X287800000Y-103100000D03*
X292150000Y-102700000D03*
X287800000Y-102700000D03*
X292150000Y-102300000D03*
X287800000Y-102300000D03*
X292150000Y-101900000D03*
X287800000Y-101900000D03*
X292150000Y-101500000D03*
X287800000Y-101500000D03*
X292150000Y-101100000D03*
X287800000Y-101100000D03*
D74*
X205945800Y-95123000D03*
X206905800Y-95123000D03*
D33*
X182450400Y-123350900D03*
X182450400Y-125175900D03*
D34*
X143621800Y-100300000D03*
X141721800Y-100300000D03*
D42*
X220294200Y-99707700D03*
X301447200Y-136372600D03*
D20*
X188849000Y-125892600D03*
X188849000Y-123992600D03*
D14*
X241000000Y-118950000D03*
X241000000Y-120850000D03*
D29*
X299800000Y-123700000D03*
D30*
X299800000Y-121160000D03*
X299800000Y-118620000D03*
X299800000Y-116080000D03*
D37*
X224125000Y-135346200D03*
X223125000Y-135346200D03*
X222125000Y-135346200D03*
X221125000Y-135346200D03*
D38*
X225425000Y-137871200D03*
X219825000Y-137871200D03*
D20*
X171754800Y-116149200D03*
X171754800Y-114249200D03*
D35*
X180083700Y-125206800D03*
X180083700Y-123306800D03*
X178208700Y-124256800D03*
D29*
X215696800Y-137439400D03*
D30*
X213156800Y-137439400D03*
X210616800Y-137439400D03*
X208076800Y-137439400D03*
D43*
X256580600Y-96644700D03*
X258480600Y-96644700D03*
X257530600Y-94769700D03*
D75*
X203291200Y-95961200D03*
D76*
X201391200Y-95961200D03*
D77*
X204051200Y-118592600D03*
X202501200Y-118592600D03*
D20*
X173837600Y-116139000D03*
X173837600Y-114239000D03*
X175895000Y-116149200D03*
X175895000Y-114249200D03*
D23*
X170264200Y-99954600D03*
X170264200Y-100654600D03*
X171264200Y-100654600D03*
X171264200Y-99954600D03*
D22*
X142748000Y-116497600D03*
X142748000Y-118147600D03*
D78*
X271900000Y-92300000D03*
D55*
X273200000Y-92300000D03*
D79*
X274500000Y-92300000D03*
D80*
X211759800Y-122275600D03*
X213029800Y-122275600D03*
X211759800Y-123545600D03*
X213029800Y-123545600D03*
X211759800Y-124815600D03*
X213029800Y-124815600D03*
D81*
X261400000Y-109650000D03*
X261400000Y-106700000D03*
D82*
X278600000Y-133950000D03*
D83*
X278600000Y-132050000D03*
D34*
X276550000Y-134300000D03*
X274650000Y-134300000D03*
D20*
X186766200Y-125892600D03*
X186766200Y-123992600D03*
D62*
X277350000Y-127562500D03*
X275450000Y-127562500D03*
X276400000Y-129437500D03*
D14*
X203098400Y-91404400D03*
X203098400Y-93304400D03*
D51*
X154683400Y-114538400D03*
D52*
X154483400Y-114538400D03*
D51*
X154683400Y-113888400D03*
D52*
X154483400Y-113888400D03*
D51*
X154683400Y-113238400D03*
D52*
X154483400Y-113238400D03*
D51*
X154683400Y-112588400D03*
D52*
X154483400Y-112588400D03*
X151383400Y-112588400D03*
D51*
X151183400Y-112588400D03*
D52*
X151383400Y-113238400D03*
D51*
X151183400Y-113238400D03*
D52*
X151383400Y-113888400D03*
D51*
X151183400Y-113888400D03*
D52*
X151383400Y-114538400D03*
D51*
X151183400Y-114538400D03*
D53*
X153383400Y-114188400D03*
X153383400Y-112938400D03*
D54*
X152933400Y-113563400D03*
D53*
X152483400Y-114188400D03*
X152483400Y-112938400D03*
D66*
X255295400Y-130340000D03*
X255295400Y-129540000D03*
X253595400Y-129540000D03*
X253595400Y-130340000D03*
D29*
X162468400Y-93629400D03*
D30*
X162468400Y-91089400D03*
X165008400Y-93629400D03*
X165008400Y-91089400D03*
X167548400Y-93629400D03*
X167548400Y-91089400D03*
X170088400Y-93629400D03*
X170088400Y-91089400D03*
D15*
X162145600Y-98514600D03*
X162145600Y-98014600D03*
X162145600Y-97514600D03*
X162145600Y-97014600D03*
X161145600Y-97014600D03*
X161145600Y-97514600D03*
X161145600Y-98014600D03*
X161145600Y-98514600D03*
D40*
X142200000Y-95700000D03*
D19*
X139200000Y-95700000D03*
X142200000Y-92700000D03*
X139200000Y-92700000D03*
D63*
X194767200Y-119545400D03*
X194767200Y-117995400D03*
D33*
X269800000Y-109587500D03*
X269800000Y-111412500D03*
D84*
X254549500Y-91567000D03*
X248624500Y-91567000D03*
D85*
X222885000Y-90070700D03*
X222885000Y-91945700D03*
X226390200Y-90045300D03*
X226390200Y-91920300D03*
D21*
X266450000Y-107300000D03*
X268350000Y-107300000D03*
D86*
X203049000Y-104546400D03*
X212749000Y-104546400D03*
D49*
X195512500Y-104100000D03*
X193687500Y-104100000D03*
D20*
X183845200Y-105623400D03*
X183845200Y-103723400D03*
D35*
X149682200Y-126512400D03*
X149682200Y-124612400D03*
X147807200Y-125562400D03*
D63*
X196342000Y-119545400D03*
X196342000Y-117995400D03*
D49*
X188912500Y-100100000D03*
X187087500Y-100100000D03*
D21*
X165526600Y-134404000D03*
X167426600Y-134404000D03*
D87*
X299260000Y-100440000D03*
D88*
X296720000Y-102980000D03*
X301800000Y-102980000D03*
X296720000Y-97900000D03*
X301800000Y-97900000D03*
D41*
X232539300Y-130672800D03*
X232539300Y-132572800D03*
X234414300Y-131622800D03*
D66*
X153377000Y-99256800D03*
X153377000Y-98456800D03*
X151677000Y-98456800D03*
X151677000Y-99256800D03*
D29*
X269540000Y-125300000D03*
D30*
X269540000Y-127840000D03*
X267000000Y-125300000D03*
X267000000Y-127840000D03*
X264460000Y-125300000D03*
X264460000Y-127840000D03*
X261920000Y-125300000D03*
X261920000Y-127840000D03*
D20*
X172491400Y-104505800D03*
X172491400Y-102605800D03*
D23*
X179500000Y-99550000D03*
X179500000Y-100250000D03*
X180500000Y-100250000D03*
X180500000Y-99550000D03*
D34*
X276550000Y-138100000D03*
X274650000Y-138100000D03*
D89*
X231000000Y-116600000D03*
D90*
X231000000Y-115300000D03*
D91*
X231000000Y-114000000D03*
D21*
X146450000Y-100900000D03*
X148350000Y-100900000D03*
D92*
X138775000Y-123900000D03*
X140425000Y-123900000D03*
D89*
X231000000Y-123500000D03*
D90*
X231000000Y-122200000D03*
D91*
X231000000Y-120900000D03*
D39*
X202380800Y-120384200D03*
X201580800Y-120384200D03*
X201580800Y-122084200D03*
X202380800Y-122084200D03*
D20*
X172491400Y-108112600D03*
X172491400Y-106212600D03*
D41*
X211736700Y-131917400D03*
X211736700Y-133817400D03*
X213611700Y-132867400D03*
D42*
X301498000Y-92202000D03*
D93*
X265400000Y-111425000D03*
X265900000Y-111425000D03*
X266400000Y-111425000D03*
X266900000Y-111425000D03*
X267400000Y-111425000D03*
X267400000Y-109575000D03*
X266900000Y-109575000D03*
X266400000Y-109575000D03*
X265900000Y-109575000D03*
X265400000Y-109575000D03*
D94*
X266400000Y-110500000D03*
D85*
X229920800Y-90096100D03*
X229920800Y-91971100D03*
D45*
X211150200Y-93014800D03*
X211150200Y-91364800D03*
D15*
X157446600Y-117259800D03*
X157446600Y-116759800D03*
X157446600Y-116259800D03*
X157446600Y-115759800D03*
X156446600Y-115759800D03*
X156446600Y-116259800D03*
X156446600Y-116759800D03*
X156446600Y-117259800D03*
D23*
X166666800Y-106039400D03*
X166666800Y-105339400D03*
X165666800Y-105339400D03*
X165666800Y-106039400D03*
D14*
X261600000Y-111350000D03*
X261600000Y-113250000D03*
D33*
X239293400Y-92762700D03*
X239293400Y-94587700D03*
D95*
X168308900Y-116872200D03*
X168308900Y-116372200D03*
X168308900Y-115872200D03*
X168308900Y-115372200D03*
X168308900Y-114872200D03*
X168308900Y-114372200D03*
X168308900Y-113872200D03*
X168308900Y-113372200D03*
X168308900Y-112872200D03*
X168308900Y-112372200D03*
X168308900Y-111872200D03*
X168308900Y-111372200D03*
D96*
X167621400Y-110684700D03*
X167121400Y-110684700D03*
X166621400Y-110684700D03*
X166121400Y-110684700D03*
X165621400Y-110684700D03*
X165121400Y-110684700D03*
X164621400Y-110684700D03*
X164121400Y-110684700D03*
X163621400Y-110684700D03*
X163121400Y-110684700D03*
X162621400Y-110684700D03*
X162121400Y-110684700D03*
D95*
X161433900Y-111372200D03*
X161433900Y-111872200D03*
X161433900Y-112372200D03*
X161433900Y-112872200D03*
X161433900Y-113372200D03*
X161433900Y-113872200D03*
X161433900Y-114372200D03*
X161433900Y-114872200D03*
X161433900Y-115372200D03*
X161433900Y-115872200D03*
X161433900Y-116372200D03*
X161433900Y-116872200D03*
D96*
X162121400Y-117559700D03*
X162621400Y-117559700D03*
X163121400Y-117559700D03*
X163621400Y-117559700D03*
X164121400Y-117559700D03*
X164621400Y-117559700D03*
X165121400Y-117559700D03*
X165621400Y-117559700D03*
X166121400Y-117559700D03*
X166621400Y-117559700D03*
X167121400Y-117559700D03*
X167621400Y-117559700D03*
D97*
X164871400Y-114122200D03*
D22*
X143400000Y-124075000D03*
X143400000Y-125725000D03*
D46*
X207238600Y-124559700D03*
X207238600Y-122734700D03*
D20*
X185400000Y-133665000D03*
X185400000Y-131765000D03*
D14*
X295800000Y-131350000D03*
X295800000Y-133250000D03*
D34*
X139950000Y-100300000D03*
X138050000Y-100300000D03*
D47*
X193687500Y-106300000D03*
X195512500Y-106300000D03*
D20*
X213004400Y-93370400D03*
X213004400Y-91470400D03*
D21*
X156098200Y-100406200D03*
X157998200Y-100406200D03*
D33*
X151792700Y-124649900D03*
X151792700Y-126474900D03*
D98*
X236400000Y-113150000D03*
D99*
X236400000Y-111850000D03*
D100*
X216281000Y-92456000D03*
D101*
X286600000Y-104500000D03*
X242000000Y-116500000D03*
X233400000Y-113900000D03*
X231400000Y-125100000D03*
X241200000Y-117700000D03*
X243200000Y-130900000D03*
X237550000Y-122737500D03*
X248000000Y-121100000D03*
X228600000Y-113900000D03*
X230200000Y-119100000D03*
D102*
X251536200Y-131826000D03*
D101*
X251200000Y-129300000D03*
X233800000Y-119300000D03*
D102*
X254254000Y-131953000D03*
D100*
X200710800Y-95173800D03*
D102*
X148412200Y-116713000D03*
X202793600Y-123774200D03*
D101*
X190842800Y-99760829D03*
D102*
X188747400Y-123063000D03*
D100*
X200583800Y-96037400D03*
D101*
X278600000Y-94900000D03*
X269747708Y-106100000D03*
D100*
X301558800Y-131538400D03*
X240639600Y-91846400D03*
D102*
X194462400Y-117144800D03*
X173659800Y-119735600D03*
X154940000Y-105994200D03*
D103*
X175031400Y-107950000D03*
D102*
X136601200Y-116103400D03*
X203022200Y-117779800D03*
D101*
X235400000Y-116500000D03*
D102*
X157657800Y-99288600D03*
X207518000Y-113842800D03*
X207695800Y-129590800D03*
D101*
X149000000Y-99700000D03*
D102*
X206933800Y-113766600D03*
D100*
X297761400Y-112863400D03*
D101*
X198800000Y-105700000D03*
D102*
X173609000Y-102158800D03*
D100*
X224967800Y-134645400D03*
D101*
X269800000Y-113300000D03*
X136600000Y-100700000D03*
D102*
X197129400Y-117525800D03*
D100*
X297619400Y-106939600D03*
D102*
X153009600Y-119532400D03*
X183819800Y-104597200D03*
X171602400Y-120319800D03*
X173634400Y-102819200D03*
X203530200Y-114020600D03*
D101*
X291000000Y-102900000D03*
D102*
X192582800Y-129565400D03*
X188671200Y-133172200D03*
X202869800Y-113741200D03*
D101*
X263600000Y-107300000D03*
D100*
X242722400Y-93624400D03*
D101*
X165200000Y-131300000D03*
D100*
X300060200Y-126560000D03*
D101*
X289000000Y-103700000D03*
X289000000Y-104500000D03*
D100*
X154406600Y-98450400D03*
D102*
X176987200Y-114884200D03*
X210007200Y-125882400D03*
D100*
X203200000Y-94234000D03*
D101*
X291000000Y-104500000D03*
X235200000Y-117300000D03*
D102*
X169494200Y-111607600D03*
D101*
X267600000Y-94700000D03*
D100*
X298815600Y-131614600D03*
D102*
X186207400Y-123063000D03*
X188366400Y-132816600D03*
D100*
X299514000Y-112888800D03*
D102*
X203123800Y-135661400D03*
X146989800Y-108483400D03*
D100*
X298650400Y-112939600D03*
D102*
X196519800Y-117144800D03*
X193611500Y-124752100D03*
X167589200Y-137947400D03*
D101*
X291000000Y-101300000D03*
D102*
X189458600Y-123088400D03*
D101*
X139000000Y-129300000D03*
D102*
X149199600Y-112903000D03*
D100*
X244881400Y-95504000D03*
X218719400Y-91516200D03*
D101*
X167200000Y-132500000D03*
D100*
X202107800Y-94208600D03*
X201930000Y-93243400D03*
D102*
X162102800Y-137439400D03*
D100*
X301584200Y-126712400D03*
D101*
X289000000Y-102700000D03*
D100*
X206578200Y-92633800D03*
D102*
X206324200Y-113792000D03*
D101*
X259200000Y-107100000D03*
D102*
X187756800Y-132740400D03*
D103*
X175183800Y-105689400D03*
D100*
X242493800Y-91744800D03*
D102*
X191490600Y-124866400D03*
D101*
X270600000Y-94700000D03*
D102*
X202234800Y-113766600D03*
D101*
X275800000Y-94900000D03*
D100*
X299372000Y-106965000D03*
X298587000Y-126687000D03*
D101*
X289800000Y-136300000D03*
D102*
X208915000Y-129768600D03*
D100*
X163601400Y-133248400D03*
D102*
X171627800Y-119481600D03*
D101*
X237357200Y-125500000D03*
D100*
X245186200Y-94564200D03*
X234645200Y-134620000D03*
X251739400Y-98044000D03*
X218363800Y-90398600D03*
X251561600Y-99009200D03*
X243916200Y-95631000D03*
D101*
X269800000Y-114700000D03*
D102*
X187375800Y-123037600D03*
D101*
X289000000Y-100900000D03*
X146600000Y-103500000D03*
D102*
X193954400Y-117373400D03*
X187147200Y-132765800D03*
D100*
X253542800Y-98044000D03*
D102*
X177038000Y-114300000D03*
D101*
X283800000Y-128300000D03*
D102*
X193878200Y-118084600D03*
D100*
X216306400Y-90373200D03*
X213995000Y-90322400D03*
D101*
X273200000Y-138700000D03*
D100*
X298483000Y-106888800D03*
X300111000Y-131640000D03*
D102*
X168325800Y-134416800D03*
X192532000Y-136245600D03*
D101*
X273200000Y-133682200D03*
D102*
X197180200Y-118262400D03*
X210489800Y-133299200D03*
X212801200Y-133832600D03*
D101*
X278600000Y-130900000D03*
D102*
X218186000Y-128574800D03*
X180517800Y-123926600D03*
X237972600Y-130632200D03*
X150723600Y-124968000D03*
X223291400Y-131622800D03*
D100*
X210439000Y-105130600D03*
D101*
X265200000Y-107100000D03*
D102*
X236448600Y-95707200D03*
X167563800Y-137287000D03*
D100*
X214503000Y-94462600D03*
D102*
X216230200Y-128651000D03*
X181584600Y-124002800D03*
X210439000Y-134112000D03*
X238861600Y-130632200D03*
X249986800Y-130683000D03*
X213029800Y-119634000D03*
D101*
X188800000Y-101900000D03*
D102*
X180136800Y-114935000D03*
X167563800Y-136702800D03*
X217601800Y-127838200D03*
D100*
X160020000Y-137464800D03*
D101*
X274800000Y-126500000D03*
D102*
X231267000Y-132003800D03*
X187223400Y-125044200D03*
D100*
X210413600Y-102235000D03*
X215493600Y-94538800D03*
D102*
X194614800Y-123571000D03*
X161874200Y-134416800D03*
X232156000Y-131902200D03*
D100*
X211226400Y-94030800D03*
D102*
X235915200Y-95732600D03*
X221742000Y-131597400D03*
X201142600Y-119710200D03*
X216814400Y-127863600D03*
D100*
X210413600Y-100914200D03*
X213334600Y-94437200D03*
D101*
X271000000Y-108500000D03*
D102*
X166319200Y-134391400D03*
X249047000Y-130708400D03*
X182143400Y-115239800D03*
D100*
X211480400Y-99949000D03*
D102*
X148590000Y-124612400D03*
X152781000Y-124663200D03*
X247218200Y-130530600D03*
X163449000Y-128244600D03*
D100*
X216408000Y-94335600D03*
X210388200Y-93853000D03*
D102*
X208280000Y-124409200D03*
X188874400Y-125044200D03*
D101*
X274800000Y-125900000D03*
D100*
X210413600Y-103505000D03*
D102*
X222504000Y-131622800D03*
X208229200Y-123850400D03*
X233019600Y-131902200D03*
X161391600Y-127863600D03*
D101*
X261400000Y-109300000D03*
D102*
X250621800Y-94665800D03*
X167563800Y-118643400D03*
X169341800Y-116865400D03*
X164236400Y-108432600D03*
X164490400Y-109550200D03*
X162775900Y-106997500D03*
X158699200Y-119964200D03*
X157886400Y-110236000D03*
X170230800Y-109499400D03*
X159258000Y-110464600D03*
X165125400Y-118618000D03*
X177114200Y-107086400D03*
X173685200Y-108051600D03*
X176657000Y-106527600D03*
X173558200Y-104495600D03*
X209626200Y-129768600D03*
X198831200Y-134162800D03*
X200101200Y-135915400D03*
D101*
X280200000Y-137900000D03*
X279800000Y-134300000D03*
X277842798Y-129469800D03*
D102*
X160324800Y-102184200D03*
D101*
X146800000Y-102100000D03*
D102*
X154762200Y-102158800D03*
X162941000Y-101828600D03*
X153670000Y-102158800D03*
X156337000Y-102133400D03*
X150901400Y-102158800D03*
D101*
X149200000Y-102100000D03*
X146400000Y-99657200D03*
X143400000Y-101500000D03*
D102*
X195783200Y-131394200D03*
X203835000Y-121437400D03*
X197078600Y-130530600D03*
X199491600Y-127279400D03*
X196164200Y-123291600D03*
X228041200Y-90373200D03*
X198882000Y-116332000D03*
X198628000Y-119684800D03*
X224790000Y-90170000D03*
X199999600Y-122047000D03*
X194945000Y-127304800D03*
X221208600Y-90449400D03*
X195478400Y-116408200D03*
X196697600Y-115214400D03*
D101*
X190400000Y-94900000D03*
D102*
X195300600Y-111023400D03*
D101*
X187667518Y-94432481D03*
D102*
X201218800Y-115112800D03*
X202361800Y-121259600D03*
D101*
X188000000Y-105100000D03*
D102*
X200355200Y-120599200D03*
X196900800Y-113995200D03*
X200380600Y-118414800D03*
X194868800Y-128092200D03*
D101*
X192800000Y-107700000D03*
X191400000Y-94300000D03*
X182800000Y-90500000D03*
X184800000Y-90900000D03*
D102*
X192074800Y-121412000D03*
D101*
X158000000Y-130100000D03*
X157800000Y-134100000D03*
D102*
X183642000Y-116763800D03*
X185216800Y-107543600D03*
X180721000Y-102133400D03*
X182702200Y-117703600D03*
X172643800Y-99974400D03*
X181254400Y-103682800D03*
X183007000Y-106832400D03*
X184302400Y-117271800D03*
X183311800Y-118262400D03*
X172720000Y-100990400D03*
D101*
X146800000Y-128100000D03*
D102*
X150596600Y-108737400D03*
X149453600Y-109067600D03*
D101*
X181450000Y-99550000D03*
D102*
X182245000Y-106273600D03*
X185470800Y-118516400D03*
X183692800Y-119761000D03*
X149250400Y-128016000D03*
X180543200Y-103200200D03*
X189661800Y-112750600D03*
X181152800Y-122250200D03*
D101*
X181200000Y-100300000D03*
D102*
X185420000Y-110820200D03*
X159308800Y-109524800D03*
X162102800Y-106908600D03*
X157810200Y-110896400D03*
X155575000Y-104114600D03*
X154254200Y-122504200D03*
X178104800Y-123240800D03*
X140074807Y-105128141D03*
X138633200Y-113055400D03*
X135026400Y-103835200D03*
D101*
X139600000Y-123900000D03*
D102*
X134543800Y-99110800D03*
X135890000Y-123037600D03*
X129438400Y-120929400D03*
X132969000Y-120929400D03*
D101*
X135400000Y-108500000D03*
D102*
X137134600Y-107492800D03*
X139344400Y-107315000D03*
D101*
X127400000Y-107500000D03*
X133800000Y-107900000D03*
D102*
X164642800Y-96824800D03*
X138836400Y-101498400D03*
X139217400Y-102616000D03*
X139526200Y-104618600D03*
X155727400Y-117957600D03*
X152185000Y-117971200D03*
X164287200Y-138963400D03*
X186867800Y-137871200D03*
X198628000Y-130759200D03*
X188620400Y-134391400D03*
X183870600Y-118668800D03*
X175564800Y-128371600D03*
X195707000Y-114985800D03*
X187426600Y-115163600D03*
X201112000Y-123266200D03*
X184861200Y-117729000D03*
X164236400Y-137972800D03*
X193446400Y-116205000D03*
X164388800Y-135915400D03*
X199542400Y-130657600D03*
X170230800Y-138607800D03*
X187096400Y-134874000D03*
X168681400Y-138506200D03*
X195961000Y-135280400D03*
X188010800Y-139115800D03*
X166014400Y-137718800D03*
X200431400Y-132969000D03*
X199009000Y-131902200D03*
X185801000Y-135382000D03*
X218160600Y-131572000D03*
X216179400Y-131648200D03*
X215188800Y-134442200D03*
X217093800Y-134467600D03*
X205155800Y-135178800D03*
X205892400Y-138531600D03*
X205181200Y-134035800D03*
X212064600Y-138709400D03*
D101*
X288800000Y-131900000D03*
D102*
X219887800Y-135051800D03*
X236931200Y-133121400D03*
D101*
X235200000Y-129700000D03*
X234000000Y-122300000D03*
X275600000Y-131900000D03*
D102*
X203606400Y-129387600D03*
X231038400Y-133883400D03*
D101*
X262600000Y-132700000D03*
X289200000Y-132500000D03*
X235800000Y-129700000D03*
D102*
X238734600Y-134416800D03*
X205232000Y-133070600D03*
D101*
X231800000Y-136855200D03*
X275600000Y-132500000D03*
X234967504Y-122562255D03*
D102*
X222123000Y-136880600D03*
D101*
X258377000Y-135477000D03*
X257400000Y-133900000D03*
D102*
X253586863Y-132854000D03*
X213842600Y-128955800D03*
X204952600Y-128905000D03*
X197129400Y-125882400D03*
X210591400Y-127787400D03*
X248666000Y-136042400D03*
X205028800Y-129768600D03*
D101*
X280400000Y-133100000D03*
D102*
X242189000Y-130352800D03*
X200101200Y-128473200D03*
D101*
X294157200Y-104900000D03*
X257600000Y-109700000D03*
X250600000Y-107900000D03*
D102*
X200253600Y-126085600D03*
D101*
X273000000Y-119500000D03*
X262800000Y-122300000D03*
X264200000Y-123300000D03*
X269400000Y-122100000D03*
X212200000Y-115500000D03*
X214600000Y-115100000D03*
X259400000Y-122700000D03*
X262830009Y-122959720D03*
D102*
X204851000Y-126288800D03*
D101*
X293400000Y-102500000D03*
X260000000Y-125100000D03*
D102*
X163728400Y-91973400D03*
X190144400Y-104444800D03*
X169367200Y-115874800D03*
X186969400Y-107543600D03*
X190017400Y-130276600D03*
X171323000Y-109524800D03*
X186461400Y-105816400D03*
X191363600Y-133223000D03*
X166141400Y-92481400D03*
X189382400Y-104394000D03*
X170281600Y-110744000D03*
X169316400Y-114376200D03*
X170230800Y-115392200D03*
X179705000Y-119227600D03*
X190804800Y-131876800D03*
X185318400Y-109143800D03*
X168833800Y-94462600D03*
X170434000Y-113817400D03*
X172110400Y-93192600D03*
X187909200Y-109067600D03*
X189306200Y-110998000D03*
X188849000Y-116967000D03*
X191236600Y-127254000D03*
X189560200Y-106476800D03*
X160807400Y-107213400D03*
X162534600Y-106172000D03*
X167411400Y-101600000D03*
X158724600Y-117297200D03*
X161036000Y-106146600D03*
X160121600Y-116916200D03*
X160299400Y-107645200D03*
X156921200Y-104165400D03*
X156895800Y-101600000D03*
X166522400Y-99745800D03*
X166598600Y-96520000D03*
X159918400Y-117525800D03*
X158165800Y-116814600D03*
X150977600Y-117779800D03*
X160070800Y-116281200D03*
D101*
X164000000Y-98300000D03*
D102*
X159054800Y-107111800D03*
X162884948Y-97836542D03*
X160268600Y-115372200D03*
X159207200Y-108432600D03*
X159893000Y-105740200D03*
X157962600Y-102844600D03*
X149961600Y-117475000D03*
X158140400Y-108000800D03*
X152882600Y-109575600D03*
X137134600Y-106781600D03*
X159588200Y-114503200D03*
X155168600Y-109829600D03*
X157835600Y-109270800D03*
D103*
X167487600Y-105537000D03*
D102*
X172669200Y-96393000D03*
X156210000Y-94462600D03*
X168935400Y-95910400D03*
X176936400Y-99104000D03*
X159385000Y-93649800D03*
X169570400Y-96926400D03*
D103*
X167538400Y-104622600D03*
D102*
X134493000Y-106934000D03*
X155596302Y-110569622D03*
X159283400Y-111785400D03*
X146964400Y-107467400D03*
X159232600Y-112572800D03*
X136398000Y-106273600D03*
X156324073Y-111053124D03*
X146215100Y-105321100D03*
X137642600Y-105689400D03*
X159283400Y-113563400D03*
X145580100Y-105778300D03*
X156006800Y-111633000D03*
D101*
X256800000Y-132100000D03*
X253400000Y-126300000D03*
X243428699Y-119152698D03*
X249107200Y-125899934D03*
X246700066Y-120199934D03*
X242200000Y-120100000D03*
X252800000Y-130791800D03*
X241200000Y-132300000D03*
X240200000Y-124700000D03*
X241000000Y-129700000D03*
X248400000Y-132300000D03*
X242400000Y-127500000D03*
X244200000Y-130900000D03*
X297200000Y-122700000D03*
X268000000Y-108700000D03*
X271600000Y-105500000D03*
D102*
X204368400Y-132029200D03*
X199212200Y-133146800D03*
X206273400Y-131089400D03*
X218262200Y-132816600D03*
X196596000Y-130073400D03*
X198145400Y-130251200D03*
D101*
X263800000Y-104100000D03*
D102*
X195935600Y-126466600D03*
X192074800Y-130886200D03*
X197612000Y-127533400D03*
X153339800Y-127787400D03*
X185191400Y-126339600D03*
X184353200Y-127203200D03*
X197129400Y-126796800D03*
D101*
X186600250Y-98912250D03*
D102*
X208432400Y-121564400D03*
X199110600Y-123291600D03*
D101*
X278600004Y-127700000D03*
D102*
X253746000Y-127482600D03*
D101*
X232400000Y-114900000D03*
X232692800Y-116976366D03*
D102*
X197993000Y-134747000D03*
X199440800Y-135178800D03*
X203733400Y-137947400D03*
D101*
X258000000Y-136900000D03*
D102*
X209473800Y-121742200D03*
X202971400Y-124739400D03*
X191744600Y-129489200D03*
X188036200Y-117881400D03*
X194233800Y-108788200D03*
X190322200Y-108839000D03*
X189992000Y-119380000D03*
X196596000Y-128117600D03*
X201701400Y-117424200D03*
X200456800Y-115544600D03*
X204241400Y-139039600D03*
X196672200Y-134797800D03*
D101*
X253200000Y-127900000D03*
X236742800Y-120206000D03*
X228200000Y-131300000D03*
D102*
X145745200Y-125603000D03*
X160096200Y-108458000D03*
X156565600Y-104775000D03*
X160756600Y-105308400D03*
X141681200Y-121056400D03*
X153339800Y-102819200D03*
X150977600Y-102819200D03*
X154736800Y-102819200D03*
X140690600Y-113106200D03*
X139877800Y-111277400D03*
X147701000Y-113842800D03*
X150317200Y-113157000D03*
D101*
X237000000Y-126300000D03*
X237600000Y-128900000D03*
D102*
X177952400Y-99669600D03*
X164465000Y-106781600D03*
X164185600Y-105841800D03*
X176504600Y-100152200D03*
D101*
X168630600Y-135788400D03*
D102*
X185369200Y-138557000D03*
X189153800Y-136474200D03*
X191592200Y-136474200D03*
X192303400Y-125933200D03*
X175996600Y-112903000D03*
X177190400Y-112649000D03*
X194513200Y-126161800D03*
D101*
X284600000Y-110100000D03*
D102*
X203657200Y-125780800D03*
X154432000Y-107619800D03*
X151612600Y-111302800D03*
X153517600Y-107721400D03*
X151155400Y-110667800D03*
X145897600Y-112090200D03*
X164363400Y-101523800D03*
X162636200Y-103759000D03*
X157429200Y-107213400D03*
X162585400Y-103047800D03*
X164973000Y-100761800D03*
X145745200Y-110617000D03*
X156514800Y-107188000D03*
X152247600Y-107137200D03*
X150164800Y-104216200D03*
X154940000Y-116281200D03*
X155092400Y-113639600D03*
X155270200Y-112623600D03*
X155702000Y-116255800D03*
D104*
X254549500Y-91788600D02*
X257530600Y-94769700D01*
X254549500Y-91567000D02*
X254549500Y-91788600D01*
D105*
X203049000Y-104546400D02*
X203049000Y-96203400D01*
X203049000Y-96203400D02*
X203291200Y-95961200D01*
D106*
X212749000Y-104546400D02*
X211023200Y-104546400D01*
X211023200Y-104546400D02*
X210439000Y-105130600D01*
X210413600Y-102235000D02*
X211453600Y-102235000D01*
X211453600Y-102235000D02*
X212418800Y-103200200D01*
D105*
X212418800Y-103200200D02*
X212418800Y-93956000D01*
X216281000Y-91744800D02*
X216108200Y-91572000D01*
D107*
X216281000Y-92456000D02*
X216540000Y-92456000D01*
X216281000Y-92456000D02*
X216123600Y-92456000D01*
D105*
X216281000Y-92456000D02*
X216281000Y-91744800D01*
D107*
X216123600Y-92456000D02*
X215188800Y-91521200D01*
X216540000Y-92456000D02*
X217424000Y-91572000D01*
X213004400Y-91470400D02*
X213004400Y-91313000D01*
X213004400Y-91313000D02*
X213995000Y-90322400D01*
D106*
X212418800Y-103200200D02*
X212418800Y-100887400D01*
X293157200Y-103900000D02*
X294157200Y-104900000D01*
X292150000Y-103900000D02*
X293157200Y-103900000D01*
X286800000Y-104700000D02*
X286600000Y-104500000D01*
X287800000Y-104700000D02*
X286800000Y-104700000D01*
X285400000Y-110766600D02*
X276666600Y-119500000D01*
X285400000Y-104300000D02*
X285400000Y-110766600D01*
X276666600Y-119500000D02*
X273000000Y-119500000D01*
X287800000Y-103900000D02*
X285800000Y-103900000D01*
X285800000Y-103900000D02*
X285400000Y-104300000D01*
D104*
X259250000Y-109650000D02*
X261400000Y-109650000D01*
X257852651Y-111047349D02*
X259250000Y-109650000D01*
X254400000Y-111047349D02*
X257852651Y-111047349D01*
X254400000Y-120047349D02*
X254600000Y-120247349D01*
X254400000Y-114547349D02*
X254400000Y-120047349D01*
D108*
X244400000Y-118700000D02*
X245800000Y-120100000D01*
X245800000Y-120100000D02*
X245800000Y-120700000D01*
X242000000Y-116500000D02*
X244200000Y-118700000D01*
X244200000Y-118700000D02*
X244400000Y-118700000D01*
X241119000Y-120731000D02*
X241000000Y-120850000D01*
X246200000Y-121100000D02*
X245800000Y-120700000D01*
X245769000Y-120731000D02*
X241119000Y-120731000D01*
X248000000Y-121100000D02*
X246200000Y-121100000D01*
X245800000Y-120700000D02*
X245769000Y-120731000D01*
D106*
X232800000Y-117083566D02*
X232692800Y-116976366D01*
X232800000Y-122500000D02*
X232800000Y-117083566D01*
X233412500Y-123112500D02*
X232800000Y-122500000D01*
X235987500Y-123112500D02*
X233412500Y-123112500D01*
X236112500Y-122987500D02*
X235987500Y-123112500D01*
D108*
X231000000Y-114000000D02*
X233300000Y-114000000D01*
X233300000Y-114000000D02*
X233400000Y-113900000D01*
X230250000Y-123500000D02*
X231000000Y-123500000D01*
X229200000Y-122450000D02*
X230250000Y-123500000D01*
X229200000Y-118400000D02*
X229200000Y-122450000D01*
X231000000Y-116600000D02*
X229200000Y-118400000D01*
X237150000Y-111850000D02*
X236400000Y-111850000D01*
X238600000Y-113300000D02*
X237150000Y-111850000D01*
X238600000Y-117200000D02*
X238600000Y-113300000D01*
X236400000Y-117150000D02*
X236400000Y-113150000D01*
X235650000Y-111850000D02*
X236400000Y-111850000D01*
X234400000Y-113100000D02*
X235650000Y-111850000D01*
X234400000Y-114100000D02*
X234400000Y-113100000D01*
X238600000Y-117200000D02*
X239250000Y-117200000D01*
X239250000Y-117200000D02*
X241000000Y-118950000D01*
X252466000Y-137485200D02*
X255006000Y-137485200D01*
D106*
X237800000Y-124175000D02*
X237800000Y-122987500D01*
X237800000Y-122987500D02*
X237550000Y-122737500D01*
X238987500Y-122987500D02*
X237800000Y-122987500D01*
D108*
X231900000Y-116600000D02*
X234400000Y-114100000D01*
X249926000Y-137485200D02*
X252466000Y-137485200D01*
X247386000Y-137485200D02*
X243200000Y-133299200D01*
X231000000Y-116600000D02*
X231900000Y-116600000D01*
X231400000Y-123900000D02*
X231000000Y-123500000D01*
X241200000Y-118750000D02*
X241000000Y-118950000D01*
X231400000Y-125100000D02*
X231400000Y-123900000D01*
X241200000Y-117700000D02*
X241200000Y-118750000D01*
X243200000Y-133299200D02*
X243200000Y-130900000D01*
X247386000Y-137485200D02*
X249926000Y-137485200D01*
D106*
X247386000Y-137485200D02*
X247386000Y-137023000D01*
X251536200Y-130609100D02*
X251406900Y-130479800D01*
X237300000Y-121300000D02*
X237800000Y-121300000D01*
D108*
X251406900Y-129506900D02*
X251200000Y-129300000D01*
X255295400Y-130911600D02*
X254254000Y-131953000D01*
X251406900Y-131696700D02*
X251536200Y-131826000D01*
D106*
X237800000Y-119900000D02*
X238600000Y-119100000D01*
X237300000Y-119950000D02*
X236400000Y-119050000D01*
D108*
X231000000Y-120900000D02*
X231000000Y-119900000D01*
X255295400Y-129540000D02*
X255295400Y-130340000D01*
X231000000Y-119900000D02*
X230200000Y-119100000D01*
X251406900Y-130479800D02*
X251406900Y-129506900D01*
D106*
X238987500Y-122487500D02*
X239399999Y-122487500D01*
D108*
X255295400Y-130340000D02*
X255295400Y-130911600D01*
D106*
X239399999Y-122487500D02*
X241000000Y-120887499D01*
X241000000Y-120887499D02*
X241000000Y-120850000D01*
D108*
X228600000Y-113900000D02*
X230900000Y-113900000D01*
X236450000Y-119100000D02*
X236400000Y-119050000D01*
X238600000Y-119100000D02*
X236450000Y-119100000D01*
X251406900Y-130479800D02*
X251406900Y-131696700D01*
D106*
X237300000Y-121300000D02*
X237300000Y-119950000D01*
X237800000Y-121300000D02*
X237800000Y-119900000D01*
D108*
X234050000Y-119050000D02*
X233800000Y-119300000D01*
X236400000Y-119050000D02*
X234050000Y-119050000D01*
X230900000Y-113900000D02*
X231000000Y-114000000D01*
D109*
X242940800Y-93624400D02*
X243916200Y-94599800D01*
D108*
X300075000Y-130575000D02*
X300595400Y-130575000D01*
D106*
X288800000Y-104300000D02*
X289000000Y-104500000D01*
D107*
X186207400Y-123063000D02*
X187350400Y-123063000D01*
X252630300Y-99009200D02*
X252630300Y-98956500D01*
X176987200Y-114350800D02*
X177038000Y-114300000D01*
D105*
X218719400Y-91516200D02*
X218719400Y-90754200D01*
D106*
X174929800Y-105156000D02*
X174929800Y-104571800D01*
D109*
X242722400Y-93624400D02*
X242940800Y-93624400D01*
D106*
X139600000Y-128700000D02*
X139000000Y-129300000D01*
D108*
X300671600Y-127625000D02*
X301584200Y-126712400D01*
D109*
X240751400Y-91846400D02*
X241630200Y-92725200D01*
D105*
X200583800Y-96037400D02*
X200583800Y-95300800D01*
D108*
X298714000Y-126560000D02*
X298587000Y-126687000D01*
D106*
X259600000Y-106700000D02*
X259200000Y-107100000D01*
D107*
X187655200Y-133602100D02*
X187655200Y-133527800D01*
D109*
X196659800Y-117995400D02*
X197129400Y-117525800D01*
X196913200Y-117995400D02*
X197180200Y-118262400D01*
D106*
X287800000Y-102300000D02*
X288600000Y-102300000D01*
D107*
X171754800Y-114249200D02*
X173827400Y-114249200D01*
D105*
X213004400Y-91470400D02*
X213024800Y-91470400D01*
D106*
X139600000Y-127900000D02*
X139600000Y-128700000D01*
D107*
X187655200Y-133602100D02*
X187655200Y-132842000D01*
D106*
X173421000Y-102605800D02*
X173634400Y-102819200D01*
X171246800Y-119862600D02*
X171627800Y-119481600D01*
D109*
X193180600Y-125183000D02*
X193611500Y-124752100D01*
D107*
X203174600Y-94208600D02*
X203200000Y-94234000D01*
D108*
X301457200Y-131640000D02*
X301558800Y-131538400D01*
D105*
X217424000Y-91572000D02*
X216108200Y-91572000D01*
D109*
X207695800Y-129590800D02*
X208737200Y-129590800D01*
D107*
X187147200Y-132765800D02*
X187147200Y-133094100D01*
D106*
X173162000Y-102605800D02*
X173609000Y-102158800D01*
D109*
X202623600Y-113987400D02*
X202869800Y-113741200D01*
D105*
X213995000Y-90322400D02*
X216255600Y-90322400D01*
D109*
X206773600Y-114469600D02*
X206773600Y-114241400D01*
D106*
X236050000Y-117150000D02*
X235400000Y-116500000D01*
D109*
X224267000Y-135346200D02*
X224967800Y-134645400D01*
D106*
X170728400Y-119862600D02*
X171246800Y-119862600D01*
X288800000Y-103500000D02*
X289000000Y-103700000D01*
D108*
X298574200Y-112863400D02*
X298650400Y-112939600D01*
D107*
X187147200Y-133094100D02*
X187655200Y-133602100D01*
D108*
X300595400Y-130575000D02*
X301558800Y-131538400D01*
D106*
X153377000Y-98456800D02*
X154400200Y-98456800D01*
D108*
X299514000Y-112184200D02*
X298744400Y-111414600D01*
D109*
X291750000Y-135900000D02*
X290200000Y-135900000D01*
D105*
X217424000Y-91572000D02*
X217424000Y-91338400D01*
D106*
X287800000Y-101500000D02*
X288400000Y-101500000D01*
D105*
X291750000Y-138100000D02*
X292550000Y-138900000D01*
D108*
X200753800Y-95173800D02*
X201541200Y-95961200D01*
D105*
X215239600Y-91572000D02*
X215188800Y-91521200D01*
D106*
X137000000Y-100300000D02*
X136600000Y-100700000D01*
X175615600Y-108534200D02*
X175031400Y-107950000D01*
D107*
X189458600Y-123088400D02*
X189458600Y-123383000D01*
D105*
X200583800Y-95300800D02*
X200710800Y-95173800D01*
D108*
X297619400Y-107339600D02*
X298744400Y-108464600D01*
D109*
X202623600Y-114469600D02*
X202623600Y-113987400D01*
D107*
X252630300Y-99009200D02*
X251561600Y-99009200D01*
D106*
X168325800Y-134416800D02*
X167439400Y-134416800D01*
D107*
X188747400Y-123063000D02*
X189433200Y-123063000D01*
D106*
X198550000Y-105450000D02*
X198800000Y-105700000D01*
X291600000Y-102300000D02*
X291000000Y-102900000D01*
X261400000Y-106700000D02*
X263000000Y-106700000D01*
D109*
X208915000Y-129768600D02*
X208915000Y-129287900D01*
D106*
X171602400Y-119507000D02*
X171627800Y-119481600D01*
D109*
X274032200Y-133682200D02*
X273200000Y-133682200D01*
D107*
X188747400Y-123063000D02*
X187401200Y-123063000D01*
D106*
X292150000Y-104300000D02*
X291200000Y-104300000D01*
D108*
X301431800Y-126560000D02*
X301584200Y-126712400D01*
D105*
X215188800Y-91521200D02*
X215188800Y-91490800D01*
D109*
X211074000Y-124815600D02*
X210007200Y-125882400D01*
D108*
X298432200Y-106939600D02*
X298483000Y-106888800D01*
D109*
X193611500Y-124752100D02*
X193649600Y-124714000D01*
D107*
X203200000Y-94234000D02*
X203200000Y-93231000D01*
D106*
X288400000Y-101500000D02*
X289000000Y-100900000D01*
X174533600Y-119735600D02*
X173659800Y-119735600D01*
D109*
X193954400Y-117373400D02*
X194233800Y-117373400D01*
D105*
X215188800Y-91490800D02*
X216306400Y-90373200D01*
D109*
X208737200Y-129590800D02*
X208915000Y-129768600D01*
D107*
X188747400Y-123891000D02*
X188849000Y-123992600D01*
D106*
X162128200Y-137414000D02*
X162102800Y-137439400D01*
D107*
X186766200Y-123621800D02*
X186207400Y-123063000D01*
D109*
X187756800Y-132740400D02*
X188290200Y-132740400D01*
D107*
X252630300Y-98934900D02*
X251739400Y-98044000D01*
D106*
X171145200Y-119862600D02*
X171602400Y-120319800D01*
D107*
X187911100Y-133602100D02*
X188241300Y-133602100D01*
D109*
X203081200Y-114469600D02*
X203530200Y-114020600D01*
D106*
X183845200Y-104571800D02*
X183819800Y-104597200D01*
X292150000Y-101900000D02*
X291600000Y-101900000D01*
D109*
X243977200Y-94599800D02*
X244881400Y-95504000D01*
X193878200Y-118084600D02*
X193878200Y-117449600D01*
X188290200Y-132740400D02*
X188366400Y-132816600D01*
D106*
X236400000Y-117150000D02*
X235350000Y-117150000D01*
D108*
X299372000Y-106965000D02*
X299372000Y-107837000D01*
D107*
X202984400Y-93243400D02*
X203098400Y-93129400D01*
D106*
X266400000Y-109575000D02*
X266400000Y-108500000D01*
D107*
X167575800Y-137934000D02*
X167589200Y-137947400D01*
D105*
X209438200Y-92659200D02*
X209710000Y-92387400D01*
D109*
X194767200Y-117995400D02*
X194767200Y-117449600D01*
D107*
X218663600Y-91572000D02*
X218719400Y-91516200D01*
X187401200Y-123063000D02*
X187375800Y-123037600D01*
D109*
X188366400Y-132816600D02*
X188366400Y-132867400D01*
X188366400Y-132867400D02*
X188671200Y-133172200D01*
D106*
X146481400Y-103618600D02*
X146600000Y-103500000D01*
D107*
X186766200Y-123992600D02*
X188849000Y-123992600D01*
X201930000Y-93243400D02*
X202984400Y-93243400D01*
D109*
X243916200Y-94599800D02*
X243977200Y-94599800D01*
X194678000Y-118084600D02*
X194767200Y-117995400D01*
D106*
X157998200Y-100406200D02*
X157998200Y-99629000D01*
D108*
X299855200Y-130575000D02*
X298815600Y-131614600D01*
D109*
X197180200Y-118262400D02*
X197180200Y-117576600D01*
D107*
X176987200Y-114884200D02*
X176987200Y-114350800D01*
D106*
X146989800Y-108483400D02*
X147970200Y-108483400D01*
X287800000Y-104300000D02*
X288800000Y-104300000D01*
X171602400Y-120319800D02*
X171602400Y-119507000D01*
X193112000Y-135183000D02*
X193112000Y-135665600D01*
D109*
X245186200Y-95199200D02*
X244881400Y-95504000D01*
D106*
X269550000Y-106100000D02*
X269747708Y-106100000D01*
D107*
X217424000Y-91572000D02*
X218663600Y-91572000D01*
D106*
X191200000Y-100387500D02*
X191200000Y-100118029D01*
X154400200Y-98456800D02*
X154406600Y-98450400D01*
D109*
X211759800Y-124815600D02*
X211074000Y-124815600D01*
D106*
X277200000Y-94125000D02*
X277825000Y-94125000D01*
D108*
X300111000Y-131640000D02*
X301457200Y-131640000D01*
X299514000Y-112888800D02*
X299514000Y-112184200D01*
D107*
X202112000Y-124183000D02*
X202384800Y-124183000D01*
D106*
X168729600Y-112372200D02*
X169494200Y-111607600D01*
X269200000Y-94012500D02*
X268287500Y-94012500D01*
D109*
X202623600Y-114469600D02*
X203081200Y-114469600D01*
D107*
X190957200Y-123992600D02*
X190957200Y-124333000D01*
X206603600Y-92659200D02*
X206578200Y-92633800D01*
D109*
X193112000Y-125183000D02*
X193180600Y-125183000D01*
D107*
X176352200Y-114249200D02*
X176987200Y-114884200D01*
D106*
X166776600Y-138446500D02*
X166789100Y-138434000D01*
X237300000Y-124175000D02*
X237300000Y-125442800D01*
X288600000Y-102300000D02*
X289000000Y-102700000D01*
D109*
X206773600Y-114241400D02*
X206324200Y-113792000D01*
D107*
X207928200Y-92659200D02*
X206603600Y-92659200D01*
D106*
X268350000Y-107300000D02*
X269550000Y-106100000D01*
X148350000Y-100900000D02*
X148350000Y-100350000D01*
X269000000Y-114100000D02*
X269800000Y-113300000D01*
D109*
X197180200Y-117576600D02*
X197129400Y-117525800D01*
X245150600Y-94599800D02*
X245186200Y-94564200D01*
X242529400Y-93624400D02*
X241630200Y-92725200D01*
D107*
X188849000Y-123992600D02*
X190957200Y-123992600D01*
X175895000Y-114249200D02*
X176987200Y-114249200D01*
D109*
X194145200Y-117373400D02*
X194767200Y-117995400D01*
D106*
X170728400Y-119862600D02*
X171145200Y-119862600D01*
X202623600Y-114469600D02*
X206773600Y-114469600D01*
X193112000Y-135665600D02*
X192532000Y-136245600D01*
D107*
X188241300Y-133602100D02*
X188671200Y-133172200D01*
D106*
X148350000Y-100350000D02*
X149000000Y-99700000D01*
D109*
X202234800Y-113766600D02*
X202234800Y-114080800D01*
X233808400Y-135352400D02*
X233912800Y-135352400D01*
X196342000Y-117995400D02*
X196913200Y-117995400D01*
D108*
X297619400Y-106939600D02*
X297619400Y-107339600D01*
D106*
X269200000Y-114100000D02*
X269800000Y-114700000D01*
X162976600Y-134404000D02*
X162976600Y-133873200D01*
D107*
X187350400Y-123063000D02*
X187375800Y-123037600D01*
D108*
X298650400Y-112939600D02*
X299463200Y-112939600D01*
D106*
X151183400Y-112588400D02*
X149514200Y-112588400D01*
D108*
X200710800Y-95173800D02*
X200753800Y-95173800D01*
D107*
X154404000Y-106004000D02*
X154930200Y-106004000D01*
D109*
X243916200Y-94599800D02*
X243916200Y-95631000D01*
D105*
X218719400Y-90754200D02*
X218363800Y-90398600D01*
D107*
X252630300Y-98956500D02*
X253542800Y-98044000D01*
D109*
X206908400Y-113792000D02*
X206933800Y-113766600D01*
D108*
X298650400Y-111508600D02*
X298744400Y-111414600D01*
X300075000Y-127625000D02*
X300075000Y-126574800D01*
D109*
X193112000Y-124183000D02*
X193118600Y-124183000D01*
D107*
X202384800Y-124183000D02*
X202793600Y-123774200D01*
D106*
X276575000Y-94125000D02*
X275800000Y-94900000D01*
D108*
X297761400Y-112863400D02*
X298574200Y-112863400D01*
D106*
X173609000Y-102158800D02*
X173609000Y-102793800D01*
D109*
X224125000Y-135346200D02*
X224267000Y-135346200D01*
D105*
X216255600Y-90322400D02*
X216306400Y-90373200D01*
D109*
X193112000Y-124183000D02*
X193112000Y-124159400D01*
D106*
X166789100Y-138434000D02*
X166789100Y-137934000D01*
D109*
X203250800Y-113741200D02*
X203530200Y-114020600D01*
D105*
X215138000Y-91470400D02*
X215188800Y-91521200D01*
D106*
X144939100Y-103618600D02*
X146481400Y-103618600D01*
D109*
X202234800Y-114080800D02*
X202623600Y-114469600D01*
D108*
X200660000Y-95961200D02*
X200583800Y-96037400D01*
D106*
X263000000Y-106700000D02*
X263600000Y-107300000D01*
X292150000Y-102300000D02*
X291600000Y-102300000D01*
D108*
X299525000Y-127625000D02*
X298587000Y-126687000D01*
D106*
X175195800Y-104305800D02*
X175786700Y-104305800D01*
X157998200Y-99629000D02*
X157657800Y-99288600D01*
D109*
X194233800Y-117373400D02*
X194462400Y-117144800D01*
D106*
X287800000Y-103500000D02*
X288800000Y-103500000D01*
D108*
X300075000Y-130575000D02*
X300075000Y-131604000D01*
D109*
X190957200Y-123992600D02*
X190957200Y-124079000D01*
X193954400Y-117373400D02*
X194145200Y-117373400D01*
D107*
X202107800Y-94208600D02*
X203174600Y-94208600D01*
X251739400Y-98044000D02*
X251739400Y-98831400D01*
D105*
X216108200Y-91572000D02*
X215239600Y-91572000D01*
D109*
X282800000Y-129300000D02*
X283800000Y-128300000D01*
D108*
X299372000Y-107837000D02*
X298744400Y-108464600D01*
D106*
X166850000Y-132150000D02*
X167200000Y-132500000D01*
D107*
X175884800Y-114239000D02*
X175895000Y-114249200D01*
X154930200Y-106004000D02*
X154940000Y-105994200D01*
D106*
X174929800Y-104571800D02*
X175195800Y-104305800D01*
X266400000Y-108500000D02*
X266600000Y-108300000D01*
D108*
X300075000Y-131604000D02*
X300111000Y-131640000D01*
D106*
X237300000Y-125442800D02*
X237357200Y-125500000D01*
D107*
X190957200Y-124333000D02*
X191490600Y-124866400D01*
D106*
X291200000Y-104300000D02*
X291000000Y-104500000D01*
D108*
X299719800Y-138100000D02*
X301447200Y-136372600D01*
D109*
X202844400Y-113766600D02*
X202869800Y-113741200D01*
D107*
X252630300Y-99009200D02*
X252630300Y-98934900D01*
X186766200Y-123992600D02*
X186766200Y-123621800D01*
D109*
X242493800Y-91744800D02*
X242493800Y-91861600D01*
D107*
X192965200Y-129183000D02*
X192582800Y-129565400D01*
D106*
X172491400Y-102605800D02*
X173162000Y-102605800D01*
D108*
X297619400Y-106939600D02*
X298432200Y-106939600D01*
D107*
X202107800Y-94208600D02*
X202107800Y-94120000D01*
D109*
X196519800Y-117144800D02*
X196519800Y-117817600D01*
D106*
X173609000Y-102793800D02*
X173634400Y-102819200D01*
D109*
X242722400Y-93624400D02*
X242529400Y-93624400D01*
D106*
X277200000Y-94125000D02*
X276575000Y-94125000D01*
X153003200Y-119526000D02*
X153009600Y-119532400D01*
D105*
X215188800Y-91516200D02*
X213995000Y-90322400D01*
D106*
X148336000Y-116789200D02*
X148412200Y-116713000D01*
X202112000Y-135183000D02*
X202645400Y-135183000D01*
D107*
X187655200Y-132842000D02*
X187756800Y-132740400D01*
D105*
X213024800Y-91470400D02*
X215138000Y-91470400D01*
D107*
X192921600Y-123992600D02*
X193112000Y-124183000D01*
D109*
X243916200Y-95631000D02*
X244754400Y-95631000D01*
D106*
X165400000Y-131100000D02*
X165200000Y-131300000D01*
D109*
X202869800Y-113741200D02*
X203250800Y-113741200D01*
D106*
X236400000Y-117150000D02*
X236050000Y-117150000D01*
D109*
X206773600Y-114469600D02*
X206891200Y-114469600D01*
D107*
X186766200Y-123992600D02*
X186766200Y-123647200D01*
D106*
X267350000Y-108300000D02*
X266600000Y-108300000D01*
D107*
X187655200Y-133602100D02*
X187911100Y-133602100D01*
D109*
X233912800Y-135352400D02*
X234645200Y-134620000D01*
D108*
X297761400Y-112397600D02*
X298744400Y-111414600D01*
D106*
X291600000Y-101900000D02*
X291000000Y-101300000D01*
D109*
X196342000Y-117995400D02*
X196659800Y-117995400D01*
D106*
X202501200Y-118592600D02*
X202501200Y-118300800D01*
X202501200Y-118300800D02*
X203022200Y-117779800D01*
D109*
X273800000Y-138100000D02*
X273200000Y-138700000D01*
D107*
X173827400Y-114249200D02*
X173837600Y-114239000D01*
D106*
X261400000Y-106700000D02*
X259600000Y-106700000D01*
D109*
X206773600Y-113926800D02*
X206933800Y-113766600D01*
X242493800Y-91861600D02*
X241630200Y-92725200D01*
X240639600Y-91846400D02*
X240751400Y-91846400D01*
D108*
X300075000Y-127625000D02*
X300671600Y-127625000D01*
D107*
X251739400Y-98831400D02*
X251561600Y-99009200D01*
D108*
X297761400Y-112863400D02*
X297761400Y-112397600D01*
D109*
X274650000Y-138100000D02*
X273800000Y-138100000D01*
X206324200Y-113792000D02*
X206908400Y-113792000D01*
D107*
X190957200Y-123992600D02*
X192921600Y-123992600D01*
D106*
X136146300Y-115468400D02*
X136146300Y-115648500D01*
D109*
X193118600Y-124183000D02*
X193649600Y-124714000D01*
D106*
X277825000Y-94125000D02*
X278600000Y-94900000D01*
D109*
X243916200Y-94599800D02*
X245150600Y-94599800D01*
X206773600Y-114469600D02*
X206773600Y-113926800D01*
X187731400Y-132765800D02*
X187756800Y-132740400D01*
D106*
X167439400Y-134416800D02*
X167426600Y-134404000D01*
D108*
X300085600Y-131614600D02*
X300111000Y-131640000D01*
D106*
X175183800Y-105689400D02*
X175183800Y-105410000D01*
D105*
X215188800Y-91521200D02*
X215188800Y-91516200D01*
D109*
X196519800Y-117817600D02*
X196342000Y-117995400D01*
D106*
X269200000Y-94012500D02*
X269912500Y-94012500D01*
D108*
X201541200Y-95961200D02*
X200660000Y-95961200D01*
D106*
X268712500Y-114100000D02*
X269000000Y-114100000D01*
D107*
X186766200Y-123647200D02*
X187375800Y-123037600D01*
X201930000Y-93243400D02*
X201930000Y-94030800D01*
X187655200Y-133527800D02*
X188366400Y-132816600D01*
D109*
X290200000Y-135900000D02*
X289800000Y-136300000D01*
D107*
X203200000Y-93231000D02*
X203098400Y-93129400D01*
D109*
X245186200Y-94564200D02*
X245186200Y-95199200D01*
X208915000Y-129287900D02*
X208405100Y-128778000D01*
D106*
X268350000Y-107300000D02*
X267350000Y-108300000D01*
D109*
X206891200Y-114469600D02*
X207518000Y-113842800D01*
D105*
X299000000Y-138900000D02*
X299000000Y-138819800D01*
D106*
X166850000Y-131100000D02*
X165400000Y-131100000D01*
D107*
X253542800Y-98044000D02*
X253542800Y-96870100D01*
D106*
X166276600Y-138446500D02*
X166776600Y-138446500D01*
D107*
X176987200Y-114249200D02*
X177038000Y-114300000D01*
X189433200Y-123063000D02*
X189458600Y-123088400D01*
X189458600Y-123383000D02*
X188849000Y-123992600D01*
D108*
X300075000Y-127625000D02*
X299525000Y-127625000D01*
D106*
X183845200Y-103723400D02*
X183845200Y-104571800D01*
D109*
X194767200Y-117449600D02*
X194462400Y-117144800D01*
X206933800Y-113766600D02*
X207441800Y-113766600D01*
D106*
X162976600Y-133873200D02*
X163601400Y-133248400D01*
D109*
X207695800Y-129487300D02*
X208405100Y-128778000D01*
X282250000Y-129300000D02*
X282800000Y-129300000D01*
D108*
X298650400Y-112939600D02*
X298650400Y-111508600D01*
D105*
X299000000Y-138819800D02*
X301447200Y-136372600D01*
D109*
X301558800Y-126687000D02*
X301584200Y-126712400D01*
X196519800Y-117144800D02*
X196748400Y-117144800D01*
D108*
X298559200Y-106965000D02*
X298483000Y-106888800D01*
X299372000Y-106965000D02*
X298559200Y-106965000D01*
D109*
X187147200Y-132765800D02*
X187731400Y-132765800D01*
D108*
X298483000Y-106888800D02*
X298483000Y-108203200D01*
D107*
X193112000Y-129183000D02*
X192965200Y-129183000D01*
X188747400Y-123063000D02*
X188747400Y-123891000D01*
D108*
X299463200Y-112939600D02*
X299514000Y-112888800D01*
X300060200Y-126560000D02*
X301431800Y-126560000D01*
D106*
X168308900Y-112372200D02*
X168729600Y-112372200D01*
X166850000Y-131100000D02*
X166850000Y-132150000D01*
D107*
X173837600Y-114239000D02*
X175884800Y-114239000D01*
D106*
X147970200Y-108483400D02*
X148082000Y-108595200D01*
D109*
X207695800Y-129590800D02*
X207695800Y-129487300D01*
D106*
X268287500Y-94012500D02*
X267600000Y-94700000D01*
D109*
X244754400Y-95631000D02*
X244881400Y-95504000D01*
D106*
X268712500Y-114100000D02*
X269200000Y-114100000D01*
D105*
X292550000Y-138900000D02*
X299000000Y-138900000D01*
D109*
X193878200Y-118084600D02*
X194678000Y-118084600D01*
D105*
X218363800Y-90398600D02*
X216331800Y-90398600D01*
D108*
X300075000Y-130575000D02*
X299855200Y-130575000D01*
D107*
X201930000Y-94030800D02*
X202107800Y-94208600D01*
D106*
X138050000Y-100300000D02*
X137000000Y-100300000D01*
D109*
X193878200Y-117449600D02*
X193954400Y-117373400D01*
X202234800Y-113766600D02*
X202844400Y-113766600D01*
D106*
X197662500Y-105450000D02*
X198550000Y-105450000D01*
X191200000Y-100118029D02*
X190842800Y-99760829D01*
D105*
X209710000Y-92387400D02*
X209727800Y-92369600D01*
D106*
X152185000Y-119526000D02*
X153003200Y-119526000D01*
X235350000Y-117150000D02*
X235200000Y-117300000D01*
D109*
X196748400Y-117144800D02*
X197129400Y-117525800D01*
D106*
X175183800Y-105410000D02*
X174929800Y-105156000D01*
X136146300Y-115648500D02*
X136601200Y-116103400D01*
D105*
X207928200Y-92659200D02*
X209438200Y-92659200D01*
D106*
X269912500Y-94012500D02*
X270600000Y-94700000D01*
D109*
X207441800Y-113766600D02*
X207518000Y-113842800D01*
D106*
X148336000Y-117586800D02*
X148336000Y-116789200D01*
D108*
X298483000Y-108203200D02*
X298744400Y-108464600D01*
D105*
X216331800Y-90398600D02*
X216306400Y-90373200D01*
D107*
X166789100Y-137934000D02*
X167575800Y-137934000D01*
D108*
X300060200Y-126560000D02*
X298714000Y-126560000D01*
D107*
X253542800Y-96870100D02*
X253517400Y-96844700D01*
D108*
X298815600Y-131614600D02*
X300085600Y-131614600D01*
D106*
X176088000Y-108534200D02*
X175615600Y-108534200D01*
D109*
X274650000Y-134300000D02*
X274032200Y-133682200D01*
D106*
X172491400Y-102605800D02*
X173421000Y-102605800D01*
D105*
X217424000Y-91338400D02*
X218363800Y-90398600D01*
D108*
X300075000Y-126574800D02*
X300060200Y-126560000D01*
D107*
X251739400Y-98044000D02*
X253542800Y-98044000D01*
D106*
X162976600Y-137414000D02*
X162128200Y-137414000D01*
X149514200Y-112588400D02*
X149199600Y-112903000D01*
D107*
X202107800Y-94120000D02*
X203098400Y-93129400D01*
D106*
X202645400Y-135183000D02*
X203123800Y-135661400D01*
X168750000Y-131100000D02*
X169350000Y-130500000D01*
X169350000Y-130500000D02*
X178400000Y-130500000D01*
X178400000Y-130500000D02*
X179800000Y-131900000D01*
D110*
X198800000Y-93700000D02*
X198800000Y-92636800D01*
X198800000Y-98987500D02*
X199800000Y-99987500D01*
D105*
X202755800Y-91236800D02*
X203098400Y-91579400D01*
D110*
X202930800Y-91236800D02*
X203098400Y-91404400D01*
X200200000Y-91236800D02*
X202930800Y-91236800D01*
X196600000Y-93700000D02*
X197200000Y-93700000D01*
X198800000Y-93700000D02*
X198800000Y-98987500D01*
X196137500Y-99900000D02*
X199712500Y-99900000D01*
D105*
X203098400Y-91579400D02*
X205098400Y-91579400D01*
D110*
X194400000Y-92840000D02*
X195740000Y-92840000D01*
X195740000Y-92840000D02*
X196600000Y-93700000D01*
X197200000Y-93700000D02*
X198800000Y-93700000D01*
D105*
X205228200Y-92659200D02*
X205228200Y-91709200D01*
D110*
X198800000Y-92636800D02*
X200200000Y-91236800D01*
X199712500Y-99900000D02*
X199800000Y-99987500D01*
D105*
X199567800Y-91262200D02*
X199593200Y-91236800D01*
X205098400Y-91579400D02*
X205228200Y-91709200D01*
D106*
X185400000Y-133665000D02*
X181035000Y-133665000D01*
X181035000Y-133665000D02*
X179800000Y-134900000D01*
D105*
X207928200Y-93609200D02*
X207928200Y-94100600D01*
X207928200Y-94100600D02*
X206905800Y-95123000D01*
D106*
X163449000Y-127939800D02*
X163510000Y-127878800D01*
D105*
X216408000Y-94335600D02*
X216408000Y-93573600D01*
D106*
X222504000Y-131622800D02*
X222504000Y-132113300D01*
X201142600Y-119710200D02*
X201142600Y-119946000D01*
X211378800Y-99949000D02*
X210413600Y-100914200D01*
X180083700Y-123306800D02*
X180083700Y-123492500D01*
D107*
X166789100Y-136934000D02*
X167332600Y-136934000D01*
D105*
X210388200Y-93853000D02*
X210388200Y-93776800D01*
D106*
X165526600Y-134404000D02*
X166306600Y-134404000D01*
X213029800Y-119634000D02*
X212369400Y-119634000D01*
X238728200Y-131407800D02*
X238728200Y-130765600D01*
X181584600Y-124002800D02*
X181798500Y-124002800D01*
X211736700Y-133817400D02*
X212786000Y-133817400D01*
X151755200Y-124612400D02*
X151792700Y-124649900D01*
X163510000Y-127878800D02*
X164452900Y-127878800D01*
X235915200Y-95357000D02*
X236110400Y-95161800D01*
X207519900Y-124559700D02*
X208229200Y-123850400D01*
D105*
X214503000Y-94107000D02*
X215188800Y-93421200D01*
D106*
X266450000Y-107300000D02*
X265400000Y-107300000D01*
X210413600Y-105105200D02*
X210439000Y-105130600D01*
D105*
X213004400Y-93370400D02*
X215138000Y-93370400D01*
D106*
X210489800Y-133299200D02*
X210489800Y-133426200D01*
X210439000Y-134112000D02*
X210439000Y-133350000D01*
X231267000Y-132486400D02*
X231218100Y-132535300D01*
X187223400Y-125044200D02*
X187223400Y-125435400D01*
X236110400Y-94661800D02*
X236110400Y-94161800D01*
X265400000Y-107300000D02*
X265200000Y-107100000D01*
X210413600Y-100914200D02*
X210413600Y-102235000D01*
D109*
X221841700Y-132535300D02*
X222926000Y-132535300D01*
D105*
X216408000Y-93573600D02*
X216509600Y-93472000D01*
D106*
X236110400Y-93661800D02*
X236110400Y-94161800D01*
X148590000Y-124612400D02*
X149682200Y-124612400D01*
D105*
X211226400Y-94030800D02*
X211226400Y-93091000D01*
D107*
X161076600Y-137414000D02*
X160070800Y-137414000D01*
D106*
X210489800Y-133604000D02*
X210614900Y-133729100D01*
D111*
X278600000Y-130900000D02*
X278600000Y-132050000D01*
D106*
X222478600Y-131597400D02*
X222504000Y-131622800D01*
D105*
X211226400Y-94030800D02*
X210566000Y-94030800D01*
D106*
X232054400Y-132003800D02*
X232156000Y-131902200D01*
X218070800Y-128690000D02*
X218186000Y-128574800D01*
X267400000Y-109575000D02*
X269787500Y-109575000D01*
X231267000Y-132003800D02*
X231267000Y-132486400D01*
X210413600Y-103505000D02*
X211707600Y-103505000D01*
X233019600Y-131902200D02*
X233019600Y-132092500D01*
D105*
X212648800Y-93014800D02*
X212979000Y-93345000D01*
D106*
X220522800Y-132535300D02*
X220804100Y-132535300D01*
D105*
X213334600Y-94437200D02*
X214477600Y-94437200D01*
D106*
X151806000Y-124663200D02*
X151792700Y-124649900D01*
D105*
X216509600Y-93472000D02*
X215239600Y-93472000D01*
X211150200Y-93014800D02*
X211912200Y-93014800D01*
D107*
X190957200Y-125892600D02*
X188849000Y-125892600D01*
D109*
X275487500Y-125212500D02*
X274800000Y-125900000D01*
D106*
X247230300Y-131429800D02*
X247167400Y-131366900D01*
D105*
X217093800Y-93472000D02*
X216509600Y-93472000D01*
X215163400Y-93395800D02*
X215188800Y-93421200D01*
D106*
X211480400Y-99949000D02*
X211378800Y-99949000D01*
D105*
X216204800Y-94538800D02*
X216408000Y-94335600D01*
D109*
X209270600Y-133729100D02*
X210186900Y-133729100D01*
X211648400Y-133729100D02*
X211736700Y-133817400D01*
D106*
X211545499Y-120457901D02*
X211545499Y-122061299D01*
X231218100Y-132535300D02*
X232501800Y-132535300D01*
D107*
X194112000Y-124483000D02*
X194612000Y-124983000D01*
D106*
X237928200Y-131407800D02*
X238728200Y-131407800D01*
D109*
X216795400Y-128690000D02*
X217595400Y-128690000D01*
D106*
X216814400Y-127863600D02*
X217576400Y-127863600D01*
X265900000Y-109575000D02*
X265900000Y-107850000D01*
X265900000Y-107850000D02*
X266450000Y-107300000D01*
X217601800Y-127838200D02*
X217601800Y-128683600D01*
X232156000Y-131902200D02*
X233019600Y-131902200D01*
X180136800Y-114935000D02*
X180136800Y-114368300D01*
X249047000Y-130708400D02*
X249961400Y-130708400D01*
D105*
X214503000Y-94462600D02*
X214503000Y-94107000D01*
D106*
X236110400Y-95161800D02*
X236110400Y-94661800D01*
X249531900Y-131193300D02*
X249047000Y-130708400D01*
X235915200Y-95732600D02*
X235915200Y-95357000D01*
X210489800Y-133426200D02*
X210186900Y-133729100D01*
X217601800Y-128683600D02*
X217595400Y-128690000D01*
D105*
X217424000Y-93472000D02*
X217093800Y-93472000D01*
D106*
X188912500Y-101787500D02*
X188800000Y-101900000D01*
X162456100Y-127878800D02*
X163510000Y-127878800D01*
X237972600Y-130632200D02*
X237972600Y-131363400D01*
X210439000Y-133905000D02*
X210614900Y-133729100D01*
X180083700Y-114315200D02*
X182105900Y-114315200D01*
X236110400Y-95161800D02*
X236110400Y-95369000D01*
X249531900Y-131137900D02*
X249986800Y-130683000D01*
X210439000Y-133350000D02*
X210489800Y-133299200D01*
X222988900Y-131925300D02*
X223291400Y-131622800D01*
D105*
X212979000Y-93345000D02*
X213004400Y-93370400D01*
D109*
X210186900Y-133729100D02*
X210614900Y-133729100D01*
D105*
X215493600Y-94538800D02*
X215493600Y-93726000D01*
X213334600Y-94437200D02*
X211632800Y-94437200D01*
D106*
X188874400Y-125044200D02*
X188874400Y-125867200D01*
D109*
X275487500Y-124700000D02*
X275487500Y-125212500D01*
D106*
X161076600Y-134404000D02*
X161861400Y-134404000D01*
X269800000Y-109587500D02*
X269912500Y-109587500D01*
X182143400Y-115239800D02*
X182143400Y-114403500D01*
X249531900Y-131429800D02*
X249531900Y-131193300D01*
X247167400Y-131366900D02*
X247167400Y-130581400D01*
X210439000Y-133981200D02*
X210186900Y-133729100D01*
D105*
X211150200Y-93014800D02*
X212648800Y-93014800D01*
D106*
X188874400Y-125867200D02*
X188849000Y-125892600D01*
X181798500Y-124002800D02*
X182450400Y-123350900D01*
X210413600Y-101195000D02*
X212418800Y-103200200D01*
X217601800Y-127838200D02*
X217601800Y-127990600D01*
X222988900Y-132598200D02*
X222988900Y-131925300D01*
X211545499Y-122061299D02*
X211759800Y-122275600D01*
X152781000Y-124663200D02*
X151806000Y-124663200D01*
X234518200Y-91008200D02*
X236110400Y-92600400D01*
X150723600Y-124688600D02*
X150799800Y-124612400D01*
X249961400Y-130708400D02*
X249986800Y-130683000D01*
X221742000Y-131597400D02*
X222478600Y-131597400D01*
X217576400Y-127863600D02*
X217601800Y-127838200D01*
X210413600Y-103505000D02*
X210413600Y-105105200D01*
D107*
X167332600Y-136934000D02*
X167563800Y-136702800D01*
D106*
X221841700Y-132535300D02*
X221841700Y-131697100D01*
X269787500Y-109575000D02*
X269800000Y-109587500D01*
X187223400Y-125435400D02*
X186766200Y-125892600D01*
D105*
X215138000Y-93370400D02*
X215163400Y-93395800D01*
D106*
X210489800Y-133299200D02*
X210489800Y-133604000D01*
X216814400Y-127863600D02*
X216814400Y-128671000D01*
X207238600Y-124559700D02*
X207519900Y-124559700D01*
D109*
X222926000Y-132535300D02*
X222988900Y-132598200D01*
D106*
X201142600Y-119946000D02*
X201580800Y-120384200D01*
X166306600Y-134404000D02*
X166319200Y-134391400D01*
X222504000Y-132113300D02*
X222988900Y-132598200D01*
D105*
X215417400Y-94462600D02*
X215493600Y-94538800D01*
D106*
X210413600Y-100914200D02*
X210413600Y-101195000D01*
X212418800Y-100887400D02*
X211480400Y-99949000D01*
X162440900Y-127863600D02*
X162456100Y-127878800D01*
X161861400Y-134404000D02*
X161874200Y-134416800D01*
X235915200Y-95732600D02*
X236423200Y-95732600D01*
X149682200Y-124612400D02*
X150799800Y-124612400D01*
D107*
X194112000Y-124183000D02*
X194112000Y-124483000D01*
D106*
X236423200Y-95732600D02*
X236448600Y-95707200D01*
D105*
X215239600Y-93472000D02*
X215188800Y-93421200D01*
D106*
X208129500Y-124559700D02*
X208280000Y-124409200D01*
X216230200Y-128651000D02*
X216756400Y-128651000D01*
D105*
X211912200Y-93014800D02*
X213334600Y-94437200D01*
D109*
X180083700Y-123306800D02*
X182406300Y-123306800D01*
D106*
X230047800Y-132535300D02*
X231218100Y-132535300D01*
X217595400Y-128690000D02*
X218070800Y-128690000D01*
D105*
X215493600Y-93726000D02*
X215188800Y-93421200D01*
D107*
X167332600Y-137055800D02*
X167563800Y-137287000D01*
D106*
X166789100Y-137434000D02*
X166789100Y-136934000D01*
D109*
X275450000Y-127150000D02*
X274800000Y-126500000D01*
D106*
X269912500Y-109587500D02*
X271000000Y-108500000D01*
X216814400Y-128671000D02*
X216795400Y-128690000D01*
D105*
X210388200Y-93776800D02*
X211150200Y-93014800D01*
D106*
X208229200Y-123850400D02*
X208229200Y-124358400D01*
X163449000Y-128244600D02*
X163449000Y-127939800D01*
D107*
X160070800Y-137414000D02*
X160020000Y-137464800D01*
D106*
X182105900Y-114315200D02*
X182168800Y-114378100D01*
X232156000Y-132189500D02*
X232539300Y-132572800D01*
X188150000Y-97375000D02*
X188150000Y-99337500D01*
X220804100Y-132535300D02*
X221742000Y-131597400D01*
X232156000Y-131902200D02*
X232156000Y-132189500D01*
X216230200Y-128651000D02*
X216230200Y-128447800D01*
D109*
X275450000Y-127562500D02*
X275450000Y-127150000D01*
D105*
X215493600Y-94538800D02*
X216204800Y-94538800D01*
D106*
X182143400Y-114403500D02*
X182168800Y-114378100D01*
X238728200Y-130765600D02*
X238861600Y-130632200D01*
X194112000Y-124073800D02*
X194614800Y-123571000D01*
D107*
X186766200Y-125892600D02*
X188849000Y-125892600D01*
D109*
X220522800Y-132535300D02*
X221841700Y-132535300D01*
D106*
X216756400Y-128651000D02*
X216795400Y-128690000D01*
X216230200Y-128447800D02*
X216814400Y-127863600D01*
X210439000Y-134112000D02*
X210439000Y-133981200D01*
X180083700Y-123492500D02*
X180517800Y-123926600D01*
X231267000Y-132003800D02*
X232054400Y-132003800D01*
X164452900Y-127878800D02*
X164515800Y-127941700D01*
D105*
X214503000Y-94462600D02*
X215417400Y-94462600D01*
D109*
X274800000Y-125900000D02*
X274800000Y-126500000D01*
D106*
X180136800Y-114368300D02*
X180083700Y-114315200D01*
X150799800Y-124612400D02*
X151755200Y-124612400D01*
D105*
X212418800Y-93956000D02*
X213004400Y-93370400D01*
D106*
X222504000Y-131622800D02*
X223291400Y-131622800D01*
X211707600Y-103505000D02*
X212749000Y-104546400D01*
X150723600Y-124968000D02*
X150723600Y-124688600D01*
D109*
X201580800Y-120384200D02*
X202380800Y-120384200D01*
D106*
X208229200Y-124358400D02*
X208280000Y-124409200D01*
X233019600Y-132092500D02*
X232539300Y-132572800D01*
X232501800Y-132535300D02*
X232539300Y-132572800D01*
X247167400Y-130581400D02*
X247218200Y-130530600D01*
X188150000Y-99337500D02*
X188912500Y-100100000D01*
X210439000Y-134112000D02*
X210439000Y-133905000D01*
X212786000Y-133817400D02*
X212801200Y-133832600D01*
D109*
X210614900Y-133729100D02*
X211648400Y-133729100D01*
X182406300Y-123306800D02*
X182450400Y-123350900D01*
D106*
X217601800Y-127990600D02*
X218186000Y-128574800D01*
X236110400Y-95369000D02*
X236448600Y-95707200D01*
X237972600Y-131363400D02*
X237928200Y-131407800D01*
X236110400Y-92600400D02*
X236110400Y-93661800D01*
X249531900Y-131429800D02*
X249531900Y-131137900D01*
X188912500Y-100100000D02*
X188912500Y-101787500D01*
X249531900Y-131429800D02*
X247230300Y-131429800D01*
X221841700Y-131697100D02*
X221742000Y-131597400D01*
D105*
X210566000Y-94030800D02*
X210388200Y-93853000D01*
D106*
X212369400Y-119634000D02*
X211545499Y-120457901D01*
X210413600Y-102235000D02*
X210413600Y-103505000D01*
X207238600Y-124559700D02*
X208129500Y-124559700D01*
D105*
X214477600Y-94437200D02*
X214503000Y-94462600D01*
D106*
X211836000Y-103783000D02*
X212418800Y-103200200D01*
D107*
X167332600Y-136934000D02*
X167332600Y-137055800D01*
D105*
X211632800Y-94437200D02*
X211226400Y-94030800D01*
D106*
X194112000Y-124183000D02*
X194112000Y-124073800D01*
X161391600Y-127863600D02*
X162440900Y-127863600D01*
D107*
X261675000Y-109575000D02*
X261400000Y-109300000D01*
X265400000Y-109575000D02*
X261675000Y-109575000D01*
D105*
X248624500Y-93455900D02*
X249834400Y-94665800D01*
X249834400Y-94665800D02*
X250621800Y-94665800D01*
X250621800Y-94665800D02*
X252471300Y-94665800D01*
X248624500Y-91567000D02*
X248624500Y-93455900D01*
X252471300Y-94665800D02*
X252567400Y-94569700D01*
X203291200Y-95961200D02*
X205107600Y-95961200D01*
X205228200Y-93609200D02*
X205228200Y-94405400D01*
X205228200Y-94405400D02*
X205945800Y-95123000D01*
X205107600Y-95961200D02*
X205945800Y-95123000D01*
D112*
X239330900Y-94625200D02*
X239293400Y-94587700D01*
X241630200Y-94625200D02*
X239330900Y-94625200D01*
D106*
X261600000Y-113250000D02*
X264577400Y-113250000D01*
X265900000Y-111425000D02*
X265900000Y-111927400D01*
X265900000Y-111927400D02*
X264577400Y-113250000D01*
X261600000Y-111350000D02*
X265325000Y-111350000D01*
X265325000Y-111350000D02*
X265400000Y-111425000D01*
D107*
X266400000Y-111425000D02*
X266400000Y-112075000D01*
X254600000Y-114747349D02*
X254400000Y-114547349D01*
X263927651Y-114547349D02*
X254400000Y-114547349D01*
X266400000Y-112075000D02*
X263927651Y-114547349D01*
D106*
X250336900Y-96844700D02*
X246192000Y-92699800D01*
X252567400Y-96844700D02*
X250336900Y-96844700D01*
X246192000Y-92699800D02*
X243916200Y-92699800D01*
X170053000Y-118287800D02*
X172415200Y-118287800D01*
X172415200Y-118287800D02*
X172633600Y-118506200D01*
X172633600Y-118506200D02*
X172633600Y-119735600D01*
X167621400Y-117559700D02*
X169324900Y-117559700D01*
X169324900Y-117559700D02*
X170053000Y-118287800D01*
X167121400Y-117559700D02*
X167121400Y-118201000D01*
X177324700Y-116149200D02*
X175895000Y-116149200D01*
X166217600Y-103505000D02*
X166717600Y-103005000D01*
X177139600Y-108356400D02*
X177317400Y-108534200D01*
X157417200Y-109766800D02*
X157886400Y-110236000D01*
X165121400Y-117559700D02*
X165121400Y-118614000D01*
X173837600Y-117779800D02*
X173761400Y-117856000D01*
X167121400Y-118201000D02*
X167563800Y-118643400D01*
X157823600Y-117259800D02*
X157446600Y-117259800D01*
X162929000Y-102324600D02*
X164109400Y-103505000D01*
X166717600Y-103005000D02*
X166717600Y-102299200D01*
X164236400Y-108432600D02*
X164236400Y-109296200D01*
X165121400Y-118614000D02*
X165125400Y-118618000D01*
X175786700Y-104805800D02*
X175786700Y-105377900D01*
X162120200Y-102324600D02*
X162929000Y-102324600D01*
X175971200Y-105562400D02*
X176455100Y-105562400D01*
X169017000Y-112872200D02*
X170268900Y-111620300D01*
X163220400Y-104394000D02*
X164109400Y-103505000D01*
X170268900Y-111620300D02*
X170525400Y-111363800D01*
X168308900Y-116372200D02*
X168848600Y-116372200D01*
X175031400Y-117856000D02*
X175895000Y-116992400D01*
X170332400Y-117856000D02*
X171704000Y-117856000D01*
X159258000Y-110464600D02*
X160096200Y-110464600D01*
X168848600Y-116372200D02*
X169341800Y-116865400D01*
X160096200Y-110464600D02*
X162775900Y-107784900D01*
X177317400Y-108534200D02*
X177988000Y-108534200D01*
X163220400Y-106553000D02*
X163220400Y-104394000D01*
X175971200Y-106984800D02*
X176326800Y-107340400D01*
X173837600Y-116139000D02*
X173837600Y-117779800D01*
X177256400Y-111363800D02*
X177988000Y-110632200D01*
X175971200Y-106984800D02*
X175971200Y-105562400D01*
X164236400Y-109296200D02*
X164490400Y-109550200D01*
X158699200Y-119964200D02*
X158318200Y-119583200D01*
X169341800Y-116865400D02*
X170332400Y-117856000D01*
X162775900Y-107784900D02*
X162775900Y-106997500D01*
X176455100Y-105562400D02*
X176499200Y-105518300D01*
X178208700Y-112498900D02*
X178208700Y-115265200D01*
X175895000Y-116992400D02*
X175895000Y-116149200D01*
X171704000Y-117856000D02*
X173761400Y-117856000D01*
X157370400Y-109766800D02*
X157417200Y-109766800D01*
X170230800Y-109499400D02*
X169672000Y-110058200D01*
X175786700Y-105377900D02*
X175971200Y-105562400D01*
X158318200Y-119583200D02*
X158318200Y-117754400D01*
X177073600Y-111363800D02*
X177256400Y-111363800D01*
X176326800Y-107340400D02*
X176530000Y-107340400D01*
X175895000Y-116149200D02*
X173847800Y-116149200D01*
X158318200Y-117754400D02*
X157823600Y-117259800D01*
X164109400Y-103505000D02*
X166217600Y-103505000D01*
X177988000Y-110632200D02*
X177988000Y-108534200D01*
X173847800Y-116149200D02*
X173837600Y-116139000D01*
X168308900Y-112872200D02*
X169017000Y-112872200D01*
X173827400Y-116149200D02*
X173837600Y-116139000D01*
X162775900Y-106997500D02*
X163220400Y-106553000D01*
X173761400Y-117856000D02*
X175031400Y-117856000D01*
X169672000Y-110058200D02*
X169672000Y-111023400D01*
X178208700Y-115265200D02*
X177324700Y-116149200D01*
X170525400Y-111363800D02*
X177073600Y-111363800D01*
X171754800Y-116149200D02*
X173827400Y-116149200D01*
X178208700Y-112498900D02*
X177073600Y-111363800D01*
X169672000Y-111023400D02*
X170268900Y-111620300D01*
X168308900Y-116372200D02*
X168308900Y-116872200D01*
X171754800Y-117805200D02*
X171704000Y-117856000D01*
X171754800Y-116149200D02*
X171754800Y-117805200D01*
X177139600Y-107950000D02*
X177139600Y-108356400D01*
X176530000Y-107340400D02*
X177139600Y-107950000D01*
D105*
X295800000Y-131350000D02*
X295800000Y-129900000D01*
X295800000Y-129900000D02*
X296600000Y-129100000D01*
X296600000Y-129100000D02*
X298550000Y-129100000D01*
D108*
X298400000Y-129250000D02*
X298550000Y-129100000D01*
D106*
X172491400Y-106212600D02*
X173898600Y-106212600D01*
X173898600Y-106212600D02*
X174548800Y-105562400D01*
X174548800Y-105562400D02*
X174548800Y-104241600D01*
X174984600Y-103805800D02*
X175786700Y-103805800D01*
X174548800Y-104241600D02*
X174984600Y-103805800D01*
X173685200Y-108051600D02*
X172552400Y-108051600D01*
X172552400Y-108051600D02*
X172491400Y-108112600D01*
X177499200Y-106701400D02*
X177114200Y-107086400D01*
X177499200Y-105518300D02*
X177499200Y-106701400D01*
X173548000Y-104505800D02*
X173558200Y-104495600D01*
X176999200Y-105518300D02*
X176999200Y-106185400D01*
X176999200Y-106185400D02*
X176657000Y-106527600D01*
X172491400Y-104505800D02*
X173548000Y-104505800D01*
X179908200Y-106934000D02*
X179324000Y-106349800D01*
X178499200Y-106134600D02*
X178499200Y-105518300D01*
X179324000Y-106349800D02*
X178714400Y-106349800D01*
X180670200Y-106934000D02*
X179908200Y-106934000D01*
X181544000Y-107807800D02*
X180670200Y-106934000D01*
X178714400Y-106349800D02*
X178499200Y-106134600D01*
X181544000Y-108534200D02*
X181544000Y-107807800D01*
X178993800Y-106857800D02*
X178282600Y-106857800D01*
X179644000Y-107508000D02*
X178993800Y-106857800D01*
X179644000Y-108534200D02*
X179644000Y-107508000D01*
X178282600Y-106857800D02*
X177999200Y-106574400D01*
X177999200Y-106574400D02*
X177999200Y-105518300D01*
X178999200Y-105518300D02*
X183740100Y-105518300D01*
X183740100Y-105518300D02*
X183845200Y-105623400D01*
X179711700Y-104305800D02*
X181647400Y-104305800D01*
X183057800Y-99898200D02*
X183855400Y-99898200D01*
X183855400Y-99898200D02*
X183870600Y-99913400D01*
X181647400Y-104305800D02*
X181940200Y-104013000D01*
X181940200Y-104013000D02*
X181940200Y-101015800D01*
X181940200Y-101015800D02*
X183057800Y-99898200D01*
X179711700Y-104805800D02*
X181934800Y-104805800D01*
X182397400Y-102692200D02*
X183276200Y-101813400D01*
X182397400Y-104343200D02*
X182397400Y-102692200D01*
X183276200Y-101813400D02*
X183870600Y-101813400D01*
X181934800Y-104805800D02*
X182397400Y-104343200D01*
X277850037Y-129469800D02*
X277842798Y-129469800D01*
X199821800Y-133502400D02*
X199821800Y-132715000D01*
X199161400Y-134162800D02*
X198831200Y-134162800D01*
X199821800Y-132715000D02*
X200353800Y-132183000D01*
X200101200Y-135915400D02*
X198272400Y-135915400D01*
X280400000Y-138100000D02*
X282250000Y-138100000D01*
X197866000Y-136321800D02*
X193446400Y-136321800D01*
X208330800Y-125907800D02*
X209626200Y-127203200D01*
X209626200Y-129768600D02*
X209143600Y-130251200D01*
X279800000Y-131419763D02*
X277850037Y-129469800D01*
X187655200Y-131777100D02*
X188749300Y-131777100D01*
X199821800Y-133502400D02*
X199161400Y-134162800D01*
X279800000Y-134300000D02*
X279800000Y-131419763D01*
X192633600Y-137134600D02*
X191287400Y-137134600D01*
X185400000Y-131765000D02*
X187643100Y-131765000D01*
X205435200Y-130251200D02*
X203503400Y-132183000D01*
X187643100Y-131765000D02*
X187655200Y-131777100D01*
X209143600Y-130251200D02*
X205435200Y-130251200D01*
X189179200Y-132207000D02*
X189179200Y-135026400D01*
X191287400Y-137134600D02*
X189179200Y-135026400D01*
X203503400Y-132183000D02*
X202112000Y-132183000D01*
X205054200Y-124420300D02*
X205054200Y-124815600D01*
X205054200Y-124815600D02*
X206146400Y-125907800D01*
X206146400Y-125907800D02*
X208330800Y-125907800D01*
X209626200Y-127203200D02*
X209626200Y-129768600D01*
X193446400Y-136321800D02*
X192633600Y-137134600D01*
X188749300Y-131777100D02*
X189179200Y-132207000D01*
X198272400Y-135915400D02*
X197866000Y-136321800D01*
X280200000Y-137900000D02*
X280400000Y-138100000D01*
X200353800Y-132183000D02*
X202112000Y-132183000D01*
X144925700Y-102406100D02*
X144226600Y-102406100D01*
X144939100Y-103118600D02*
X144939100Y-102419500D01*
X165717600Y-102299200D02*
X163411600Y-102299200D01*
X160324800Y-102184200D02*
X160465200Y-102324600D01*
X144939100Y-103118600D02*
X145496600Y-103118600D01*
X148082000Y-106695200D02*
X149123400Y-105653800D01*
X149123400Y-102176600D02*
X149200000Y-102100000D01*
X160465200Y-102324600D02*
X161120200Y-102324600D01*
X156311600Y-102158800D02*
X156337000Y-102133400D01*
X150901400Y-102158800D02*
X153670000Y-102158800D01*
X154762200Y-102158800D02*
X156311600Y-102158800D01*
X144939100Y-102419500D02*
X144925700Y-102406100D01*
X146055400Y-102844600D02*
X146800000Y-102100000D01*
X145496600Y-103118600D02*
X145770600Y-102844600D01*
X145770600Y-102844600D02*
X146055400Y-102844600D01*
X149123400Y-105653800D02*
X149123400Y-102176600D01*
X163411600Y-102299200D02*
X162941000Y-101828600D01*
D108*
X302019400Y-109939600D02*
X302419400Y-109539600D01*
X300269400Y-109939600D02*
X302019400Y-109939600D01*
D106*
X144939100Y-104118600D02*
X147299800Y-104118600D01*
X147299800Y-104118600D02*
X148031200Y-104850000D01*
X145009100Y-104048600D02*
X144939100Y-104118600D01*
X147157200Y-99657200D02*
X146400000Y-99657200D01*
X147400000Y-102318800D02*
X147400000Y-99900000D01*
X148031200Y-102950000D02*
X147400000Y-102318800D01*
X143226600Y-101673400D02*
X143400000Y-101500000D01*
X147400000Y-99900000D02*
X147157200Y-99657200D01*
X143226600Y-102406100D02*
X143226600Y-101673400D01*
D105*
X294500000Y-137000000D02*
X291750000Y-137000000D01*
X295800000Y-133250000D02*
X295800000Y-135700000D01*
X295800000Y-135700000D02*
X294500000Y-137000000D01*
D106*
X143726600Y-101961400D02*
X143726600Y-102406100D01*
X144788000Y-100900000D02*
X143726600Y-101961400D01*
X146450000Y-100900000D02*
X144788000Y-100900000D01*
D108*
X302419400Y-107639600D02*
X299260000Y-104480200D01*
X299260000Y-104480200D02*
X299260000Y-100440000D01*
D109*
X196810000Y-120013400D02*
X196342000Y-119545400D01*
D106*
X196062600Y-121666000D02*
X196759200Y-121666000D01*
X195612000Y-124983000D02*
X195612000Y-122116600D01*
X196759200Y-121666000D02*
X196810000Y-121716800D01*
X195612000Y-122116600D02*
X196062600Y-121666000D01*
D109*
X196810000Y-121716800D02*
X196810000Y-120013400D01*
D106*
X195112000Y-124183000D02*
X195112000Y-121985400D01*
X194843400Y-121716800D02*
X194310000Y-121716800D01*
X195112000Y-121985400D02*
X194843400Y-121716800D01*
D109*
X194310000Y-121716800D02*
X194310000Y-120002600D01*
X194310000Y-120002600D02*
X194767200Y-119545400D01*
X276550000Y-128900000D02*
X276550000Y-134300000D01*
X278150000Y-135900000D02*
X282250000Y-135900000D01*
D107*
X276550000Y-136100000D02*
X270664200Y-136100000D01*
X270664200Y-136100000D02*
X269687200Y-135123000D01*
D109*
X277650000Y-137000000D02*
X282250000Y-137000000D01*
D107*
X276550000Y-136100000D02*
X276550000Y-138100000D01*
D109*
X282250000Y-137000000D02*
X282250000Y-135900000D01*
D107*
X276550000Y-134300000D02*
X276550000Y-136100000D01*
D109*
X276550000Y-134300000D02*
X278150000Y-135900000D01*
X276550000Y-138100000D02*
X277650000Y-137000000D01*
D106*
X142226600Y-102406100D02*
X142226600Y-100804800D01*
X142226600Y-100804800D02*
X141721800Y-100300000D01*
X207103000Y-122870300D02*
X207238600Y-122734700D01*
X193912000Y-130683000D02*
X195072000Y-130683000D01*
X203835000Y-121437400D02*
X204927200Y-121437400D01*
X207238600Y-122734700D02*
X209323300Y-122734700D01*
X204122600Y-116619600D02*
X206773600Y-116619600D01*
X195072000Y-130683000D02*
X195783200Y-131394200D01*
X202623600Y-116619600D02*
X204122600Y-116619600D01*
X205079600Y-121589800D02*
X205079600Y-122844900D01*
X199491600Y-128117600D02*
X199491600Y-127279400D01*
X204051200Y-118592600D02*
X204051200Y-116691000D01*
X205054200Y-122870300D02*
X207103000Y-122870300D01*
X197078600Y-130530600D02*
X199491600Y-128117600D01*
X204051200Y-121221200D02*
X203835000Y-121437400D01*
X204927200Y-121437400D02*
X205079600Y-121589800D01*
X204051200Y-116691000D02*
X204122600Y-116619600D01*
X210134200Y-123545600D02*
X211759800Y-123545600D01*
X209323300Y-122734700D02*
X210134200Y-123545600D01*
X204051200Y-118592600D02*
X204051200Y-121221200D01*
X205079600Y-122844900D02*
X205054200Y-122870300D01*
X142601600Y-101320200D02*
X142601600Y-102281100D01*
X142601600Y-102281100D02*
X142726600Y-102406100D01*
X143621800Y-100300000D02*
X142601600Y-101320200D01*
X228292900Y-90121500D02*
X228041200Y-90373200D01*
X198882000Y-116332000D02*
X198628000Y-116586000D01*
X196112000Y-123343800D02*
X196164200Y-123291600D01*
X229590600Y-90121500D02*
X228292900Y-90121500D01*
X198628000Y-116586000D02*
X198628000Y-119684800D01*
X196112000Y-124183000D02*
X196112000Y-123343800D01*
X139950000Y-100629500D02*
X139950000Y-100300000D01*
X141726600Y-102406100D02*
X139950000Y-100629500D01*
X226390200Y-90045300D02*
X224914700Y-90045300D01*
X224914700Y-90045300D02*
X224790000Y-90170000D01*
X200612000Y-122659400D02*
X199999600Y-122047000D01*
X200612000Y-124983000D02*
X200612000Y-122659400D01*
X136296400Y-104048600D02*
X138496000Y-104048600D01*
X138926000Y-103618600D02*
X141014100Y-103618600D01*
X138496000Y-104048600D02*
X138926000Y-103618600D01*
X222885000Y-90070700D02*
X221587300Y-90070700D01*
X195478400Y-116408200D02*
X195503800Y-116408200D01*
X195503800Y-116408200D02*
X196697600Y-115214400D01*
X221587300Y-90070700D02*
X221208600Y-90449400D01*
X193912000Y-127683000D02*
X194566800Y-127683000D01*
X194566800Y-127683000D02*
X194945000Y-127304800D01*
X136296400Y-102148600D02*
X137835600Y-102148600D01*
X138805600Y-103118600D02*
X141014100Y-103118600D01*
X137835600Y-102148600D02*
X138805600Y-103118600D01*
X198602600Y-112496600D02*
X201218800Y-115112800D01*
X202361800Y-121259600D02*
X202361800Y-122065200D01*
X202780000Y-122084200D02*
X202380800Y-122084200D01*
X195300600Y-111023400D02*
X196773800Y-112496600D01*
X188135037Y-94900000D02*
X187667518Y-94432481D01*
X196773800Y-112496600D02*
X198551800Y-112496600D01*
X203606400Y-122910600D02*
X202780000Y-122084200D01*
X202361800Y-122065200D02*
X202380800Y-122084200D01*
X203606400Y-124917200D02*
X203606400Y-122910600D01*
X190400000Y-94900000D02*
X188135037Y-94900000D01*
X202112000Y-126183000D02*
X202340600Y-126183000D01*
X198551800Y-112496600D02*
X198602600Y-112496600D01*
X202340600Y-126183000D02*
X203606400Y-124917200D01*
X181377000Y-93997000D02*
X181377000Y-95277000D01*
X180400000Y-93020000D02*
X181377000Y-93997000D01*
X200112000Y-124183000D02*
X200112000Y-123099200D01*
X197840600Y-113995200D02*
X200380600Y-116535200D01*
X200849600Y-122084200D02*
X199859900Y-121094500D01*
X201580800Y-122084200D02*
X200849600Y-122084200D01*
X181377000Y-95277000D02*
X185400000Y-99300000D01*
X199859900Y-121094500D02*
X200355200Y-120599200D01*
X196900800Y-113995200D02*
X197840600Y-113995200D01*
X199186800Y-122174000D02*
X199186800Y-121767600D01*
X200112000Y-123099200D02*
X199186800Y-122174000D01*
X185400000Y-102500000D02*
X188000000Y-105100000D01*
X200380600Y-116535200D02*
X200380600Y-118414800D01*
X199186800Y-121767600D02*
X199859900Y-121094500D01*
X185400000Y-99300000D02*
X185400000Y-102500000D01*
X192074800Y-109625200D02*
X192074800Y-121412000D01*
X177400000Y-93020000D02*
X179920000Y-90500000D01*
X184800000Y-91300000D02*
X187451481Y-93951481D01*
X184800000Y-90900000D02*
X184800000Y-91300000D01*
X195097400Y-129540000D02*
X195097400Y-128320800D01*
X187451481Y-93951481D02*
X187866755Y-93951481D01*
X188200000Y-94300000D02*
X191400000Y-94300000D01*
X193912000Y-129683000D02*
X194954400Y-129683000D01*
X187866755Y-93951481D02*
X188148518Y-94233244D01*
X192800000Y-107700000D02*
X192800000Y-108900000D01*
X179920000Y-90500000D02*
X182800000Y-90500000D01*
X188148518Y-94248518D02*
X188200000Y-94300000D01*
X188148518Y-94233244D02*
X188148518Y-94248518D01*
X194954400Y-129683000D02*
X195097400Y-129540000D01*
X195097400Y-128320800D02*
X194868800Y-128092200D01*
X192800000Y-108900000D02*
X192074800Y-109625200D01*
X159271200Y-128828800D02*
X160581100Y-128828800D01*
X156600000Y-135300000D02*
X157800000Y-134100000D01*
X160352500Y-128600200D02*
X160581100Y-128828800D01*
X155500000Y-135300000D02*
X156600000Y-135300000D01*
X158000000Y-130100000D02*
X159271200Y-128828800D01*
X155676600Y-127127000D02*
X167665400Y-127127000D01*
X167665400Y-127127000D02*
X168021000Y-126771400D01*
X175209200Y-126771400D02*
X175463200Y-126517400D01*
X180048600Y-102805800D02*
X180721000Y-102133400D01*
X179711700Y-102805800D02*
X180048600Y-102805800D01*
X186537600Y-113868200D02*
X186537600Y-108864400D01*
X175463200Y-121920000D02*
X176428400Y-120954800D01*
X183642000Y-116763800D02*
X186537600Y-113868200D01*
X179755800Y-120650000D02*
X182702200Y-117703600D01*
X179755800Y-120954800D02*
X179755800Y-120650000D01*
X168021000Y-126771400D02*
X175209200Y-126771400D01*
X153651800Y-129151800D02*
X155676600Y-127127000D01*
X176428400Y-120954800D02*
X179755800Y-120954800D01*
X153651800Y-134148200D02*
X152500000Y-135300000D01*
X175463200Y-126517400D02*
X175463200Y-121920000D01*
X171284000Y-99974400D02*
X171264200Y-99954600D01*
X172643800Y-99974400D02*
X171284000Y-99974400D01*
X153651800Y-134148200D02*
X153651800Y-129151800D01*
X186537600Y-108864400D02*
X185216800Y-107543600D01*
X183311800Y-118287800D02*
X180086000Y-121513600D01*
X158580800Y-132300000D02*
X155500000Y-132300000D01*
X185369200Y-106832400D02*
X187274200Y-108737400D01*
X187274200Y-114300000D02*
X187274200Y-108737400D01*
X175996600Y-122275600D02*
X175996600Y-126898400D01*
X172384200Y-100654600D02*
X172720000Y-100990400D01*
X168173400Y-127406400D02*
X166751000Y-128828800D01*
X183311800Y-118262400D02*
X183311800Y-118287800D01*
X162052000Y-128828800D02*
X158580800Y-132300000D01*
X185369200Y-106832400D02*
X183007000Y-106832400D01*
X176758600Y-121513600D02*
X175996600Y-122275600D01*
X179711700Y-103805800D02*
X181131400Y-103805800D01*
X180086000Y-121513600D02*
X176758600Y-121513600D01*
X181131400Y-103805800D02*
X181254400Y-103682800D01*
X166751000Y-128828800D02*
X162052000Y-128828800D01*
X171264200Y-100654600D02*
X172384200Y-100654600D01*
X175996600Y-126898400D02*
X175488600Y-127406400D01*
X175488600Y-127406400D02*
X168173400Y-127406400D01*
X184302400Y-117271800D02*
X187274200Y-114300000D01*
X146800000Y-128100000D02*
X146800000Y-126569600D01*
X146800000Y-126569600D02*
X147807200Y-125562400D01*
X181800000Y-99900000D02*
X181450000Y-99550000D01*
X179711700Y-102305800D02*
X180917500Y-101100000D01*
X149783800Y-108737400D02*
X149453600Y-109067600D01*
X149783800Y-108737400D02*
X150596600Y-108737400D01*
X180917500Y-101100000D02*
X181200000Y-101100000D01*
X181200000Y-101100000D02*
X181800000Y-100500000D01*
X181800000Y-100500000D02*
X181800000Y-99900000D01*
X181450000Y-99550000D02*
X180500000Y-99550000D01*
X183134000Y-108127800D02*
X185115200Y-108127800D01*
X181152800Y-122250200D02*
X183642000Y-119761000D01*
X182245000Y-107238800D02*
X183134000Y-108127800D01*
X185470800Y-118516400D02*
X188417200Y-118516400D01*
X180550000Y-100300000D02*
X180500000Y-100250000D01*
X180437600Y-103305800D02*
X180543200Y-103200200D01*
X185953400Y-108966000D02*
X185953400Y-109499400D01*
X149225000Y-128041400D02*
X149250400Y-128016000D01*
X148484000Y-128016000D02*
X149250400Y-128016000D01*
X182245000Y-106273600D02*
X182245000Y-107238800D01*
X189661800Y-117271800D02*
X189661800Y-112750600D01*
X185115200Y-108127800D02*
X185953400Y-108966000D01*
X144200000Y-132300000D02*
X148484000Y-128016000D01*
X185953400Y-109499400D02*
X185420000Y-110032800D01*
X181200000Y-100300000D02*
X180550000Y-100300000D01*
X185420000Y-110032800D02*
X185420000Y-110820200D01*
X183642000Y-119761000D02*
X183692800Y-119761000D01*
X188417200Y-118516400D02*
X189636400Y-117297200D01*
X189636400Y-117297200D02*
X189661800Y-117271800D01*
X179711700Y-103305800D02*
X180437600Y-103305800D01*
X159334200Y-109550200D02*
X159308800Y-109524800D01*
X155778200Y-100406200D02*
X156098200Y-100406200D01*
X157200600Y-110286800D02*
X157810200Y-110896400D01*
X162102800Y-106908600D02*
X162102800Y-107772200D01*
X156370400Y-109766800D02*
X156370400Y-109837600D01*
X155600400Y-100406200D02*
X154451000Y-99256800D01*
X156370400Y-109837600D02*
X156819600Y-110286800D01*
X156819600Y-110286800D02*
X157200600Y-110286800D01*
X162102800Y-107772200D02*
X160324800Y-109550200D01*
X154204000Y-103854000D02*
X154404000Y-104054000D01*
X155514400Y-104054000D02*
X155575000Y-104114600D01*
X154451000Y-99256800D02*
X153377000Y-99256800D01*
X154204000Y-101980400D02*
X155778200Y-100406200D01*
X156098200Y-100406200D02*
X155600400Y-100406200D01*
X154204000Y-101980400D02*
X154204000Y-103854000D01*
X154404000Y-104054000D02*
X155514400Y-104054000D01*
X160324800Y-109550200D02*
X159334200Y-109550200D01*
X154254200Y-122504200D02*
X153652000Y-121902000D01*
X132400000Y-123047800D02*
X132400000Y-127500000D01*
X178104800Y-124152900D02*
X178208700Y-124256800D01*
X178104800Y-123240800D02*
X178104800Y-124152900D01*
X153652000Y-121902000D02*
X133545800Y-121902000D01*
X132400000Y-127500000D02*
X131000000Y-128900000D01*
X133545800Y-121902000D02*
X132400000Y-123047800D01*
X149200000Y-99100000D02*
X135342000Y-99100000D01*
X140074807Y-105128141D02*
X141004559Y-105128141D01*
X138684000Y-106518948D02*
X138684000Y-113004600D01*
X140425000Y-123900000D02*
X143225000Y-123900000D01*
X150785400Y-97514600D02*
X149200000Y-99100000D01*
X140425000Y-125900000D02*
X140550000Y-126025000D01*
X139600000Y-123900000D02*
X140425000Y-123900000D01*
X143225000Y-123900000D02*
X143400000Y-124075000D01*
X140074807Y-105128141D02*
X138684000Y-106518948D01*
X141004559Y-105128141D02*
X141014100Y-105118600D01*
X140425000Y-123900000D02*
X140425000Y-125900000D01*
X135026400Y-99415600D02*
X135026400Y-103835200D01*
X135342000Y-99100000D02*
X135026400Y-99415600D01*
X138684000Y-113004600D02*
X138633200Y-113055400D01*
X161145600Y-97514600D02*
X150785400Y-97514600D01*
X134954600Y-98700000D02*
X134543800Y-99110800D01*
X135890000Y-123265000D02*
X135890000Y-123037600D01*
X135001000Y-105156000D02*
X134543800Y-104698800D01*
X141014100Y-104118600D02*
X139264200Y-104118600D01*
X138775000Y-125900000D02*
X138650000Y-126025000D01*
X134543800Y-104698800D02*
X134543800Y-99110800D01*
X138226800Y-105156000D02*
X135001000Y-105156000D01*
X161145600Y-97014600D02*
X150685400Y-97014600D01*
X139264200Y-104118600D02*
X138226800Y-105156000D01*
X132969000Y-120929400D02*
X129438400Y-120929400D01*
X134000000Y-128900000D02*
X135775000Y-128900000D01*
X139750000Y-122925000D02*
X149200000Y-122925000D01*
X135775000Y-128900000D02*
X138650000Y-126025000D01*
X138650000Y-126025000D02*
X135890000Y-123265000D01*
X149000000Y-98700000D02*
X134954600Y-98700000D01*
X150685400Y-97014600D02*
X149000000Y-98700000D01*
X138775000Y-123900000D02*
X138775000Y-125900000D01*
X138775000Y-123900000D02*
X139750000Y-122925000D01*
X139200000Y-92700000D02*
X142238000Y-89662000D01*
X187200000Y-94752963D02*
X187200000Y-95500000D01*
X187110318Y-94663281D02*
X187200000Y-94752963D01*
X182646000Y-89662000D02*
X187148000Y-94164000D01*
X187148000Y-94164000D02*
X187110318Y-94201681D01*
X187110318Y-94201681D02*
X187110318Y-94663281D01*
X142238000Y-89662000D02*
X182646000Y-89662000D01*
X138021300Y-116418400D02*
X140870400Y-116418400D01*
X136652000Y-114554000D02*
X136652000Y-109423200D01*
X127400000Y-107500000D02*
X133400000Y-107500000D01*
X139344400Y-106908600D02*
X140634400Y-105618600D01*
X165717600Y-97514600D02*
X165332600Y-97514600D01*
X136407200Y-107492800D02*
X137134600Y-107492800D01*
X135400000Y-108500000D02*
X136407200Y-107492800D01*
X139344400Y-107315000D02*
X139344400Y-106908600D01*
X165332600Y-97514600D02*
X164642800Y-96824800D01*
X138021300Y-115923300D02*
X136652000Y-114554000D01*
X136652000Y-107975400D02*
X137134600Y-107492800D01*
X140870400Y-116418400D02*
X141020800Y-116268000D01*
X133400000Y-107500000D02*
X133800000Y-107900000D01*
X140634400Y-105618600D02*
X141014100Y-105618600D01*
X142518400Y-116268000D02*
X142748000Y-116497600D01*
X138021300Y-116418400D02*
X138021300Y-115923300D01*
X141020800Y-116268000D02*
X142518400Y-116268000D01*
X136652000Y-109423200D02*
X136652000Y-107975400D01*
X138021300Y-106123500D02*
X138021300Y-114518400D01*
X139526200Y-104618600D02*
X138021300Y-106123500D01*
X143400000Y-94300000D02*
X140600000Y-94300000D01*
X141020800Y-114618000D02*
X142569200Y-114618000D01*
X138836400Y-102235000D02*
X139217400Y-102616000D01*
X165633400Y-96189800D02*
X145289800Y-96189800D01*
X138836400Y-101498400D02*
X138836400Y-102235000D01*
X165717600Y-97014600D02*
X165717600Y-96274000D01*
X142569200Y-114618000D02*
X142697200Y-114490000D01*
X140921200Y-114518400D02*
X141020800Y-114618000D01*
X140600000Y-94300000D02*
X139200000Y-95700000D01*
X141014100Y-104618600D02*
X139526200Y-104618600D01*
X145289800Y-96189800D02*
X143400000Y-94300000D01*
X138021300Y-114518400D02*
X140921200Y-114518400D01*
X165717600Y-96274000D02*
X165633400Y-96189800D01*
X149108200Y-116459000D02*
X148336000Y-115686800D01*
X150672800Y-116459000D02*
X149108200Y-116459000D01*
X152185000Y-118726000D02*
X152185000Y-117971200D01*
X156446600Y-117259800D02*
X156425200Y-117259800D01*
X148707200Y-114538400D02*
X148336000Y-114909600D01*
X156425200Y-117259800D02*
X155727400Y-117957600D01*
X152185000Y-117971200D02*
X150672800Y-116459000D01*
X151383400Y-114538400D02*
X148707200Y-114538400D01*
X148336000Y-114909600D02*
X148336000Y-115686800D01*
X164287200Y-138582400D02*
X164287200Y-138963400D01*
X188620400Y-134391400D02*
X186867800Y-136144000D01*
X200204200Y-129183000D02*
X198628000Y-130759200D01*
X165264100Y-138434000D02*
X164443600Y-138434000D01*
X164443600Y-138434000D02*
X164439600Y-138430000D01*
X202112000Y-129183000D02*
X200204200Y-129183000D01*
X186867800Y-136144000D02*
X186867800Y-137871200D01*
X164439600Y-138430000D02*
X164287200Y-138582400D01*
X195707000Y-114985800D02*
X194665600Y-114985800D01*
X177088800Y-122047000D02*
X176555400Y-122580400D01*
X201112000Y-124183000D02*
X201112000Y-123266200D01*
X164236400Y-137972800D02*
X165225300Y-137972800D01*
X165225300Y-137972800D02*
X165264100Y-137934000D01*
X176555400Y-122580400D02*
X176555400Y-127381000D01*
X194665600Y-114985800D02*
X193446400Y-116205000D01*
X177088800Y-122047000D02*
X180492400Y-122047000D01*
X187426600Y-115163600D02*
X184861200Y-117729000D01*
X176555400Y-127381000D02*
X175564800Y-128371600D01*
X183870600Y-118668800D02*
X180492400Y-122047000D01*
X187096400Y-134874000D02*
X185267600Y-136702800D01*
X164388800Y-135915400D02*
X164388800Y-136728200D01*
X201312000Y-129683000D02*
X200517000Y-129683000D01*
X164388800Y-136728200D02*
X164594600Y-136934000D01*
X184505600Y-138607800D02*
X170230800Y-138607800D01*
X164594600Y-136934000D02*
X165264100Y-136934000D01*
X185267600Y-137845800D02*
X184505600Y-138607800D01*
X185267600Y-136702800D02*
X185267600Y-137845800D01*
X200517000Y-129683000D02*
X199542400Y-130657600D01*
X168681400Y-138506200D02*
X169316400Y-138506200D01*
X195961000Y-134823200D02*
X195961000Y-135280400D01*
X193112000Y-133183000D02*
X194320800Y-133183000D01*
X169316400Y-138506200D02*
X169926000Y-139115800D01*
X194320800Y-133183000D02*
X195961000Y-134823200D01*
X165729600Y-137434000D02*
X166014400Y-137718800D01*
X169926000Y-139115800D02*
X187960000Y-139115800D01*
X187960000Y-139115800D02*
X188010800Y-139115800D01*
X165264100Y-137434000D02*
X165729600Y-137434000D01*
X202112000Y-134183000D02*
X200832600Y-134183000D01*
X200832600Y-134183000D02*
X200431400Y-133781800D01*
X200431400Y-133781800D02*
X200431400Y-132969000D01*
X199009000Y-131902200D02*
X199728200Y-131183000D01*
X185801000Y-135382000D02*
X184600000Y-136583000D01*
X177600000Y-137500000D02*
X177600000Y-135700000D01*
X177600000Y-135700000D02*
X176800000Y-134900000D01*
X199728200Y-131183000D02*
X202112000Y-131183000D01*
X184600000Y-137700000D02*
X184200000Y-138100000D01*
X178200000Y-138100000D02*
X177600000Y-137500000D01*
X184200000Y-138100000D02*
X178200000Y-138100000D01*
X184600000Y-136583000D02*
X184600000Y-137700000D01*
X246768300Y-129142800D02*
X240841900Y-129142800D01*
X195008000Y-134683000D02*
X195453000Y-135128000D01*
X205740000Y-136855200D02*
X206933800Y-135661400D01*
X209283900Y-131917400D02*
X209270600Y-131904100D01*
X203555600Y-136855200D02*
X205740000Y-136855200D01*
X216179400Y-131648200D02*
X215910200Y-131917400D01*
X207846300Y-131904100D02*
X209270600Y-131904100D01*
X195453000Y-135128000D02*
X195453000Y-135559800D01*
X198534791Y-135407400D02*
X199347591Y-134594600D01*
X236882300Y-129541900D02*
X236550200Y-129209800D01*
X240442800Y-129541900D02*
X236882300Y-129541900D01*
X202514200Y-135813800D02*
X203555600Y-136855200D01*
X201447400Y-135813800D02*
X202514200Y-135813800D01*
X197739000Y-135763000D02*
X198094600Y-135407400D01*
X195656200Y-135763000D02*
X197739000Y-135763000D01*
X206933800Y-135661400D02*
X206933800Y-132816600D01*
X218871800Y-129895600D02*
X218871800Y-131470400D01*
X219557600Y-129209800D02*
X218871800Y-129895600D01*
X198094600Y-135407400D02*
X198534791Y-135407400D01*
X218871800Y-131470400D02*
X218770200Y-131572000D01*
X199347591Y-134594600D02*
X200228200Y-134594600D01*
X249519800Y-129541900D02*
X249531900Y-129529800D01*
X195453000Y-135559800D02*
X195656200Y-135763000D01*
X247167400Y-129541900D02*
X249519800Y-129541900D01*
X215910200Y-131917400D02*
X211736700Y-131917400D01*
X200228200Y-134594600D02*
X201447400Y-135813800D01*
X247167400Y-129541900D02*
X246768300Y-129142800D01*
X211736700Y-131917400D02*
X209283900Y-131917400D01*
X206933800Y-132816600D02*
X207846300Y-131904100D01*
X240841900Y-129142800D02*
X240442800Y-129541900D01*
X218770200Y-131572000D02*
X218160600Y-131572000D01*
X193912000Y-134683000D02*
X195008000Y-134683000D01*
X236550200Y-129209800D02*
X219557600Y-129209800D01*
X208076800Y-137439400D02*
X208076800Y-136067800D01*
X212725000Y-134874000D02*
X213639400Y-133959600D01*
X213639400Y-132895100D02*
X213611700Y-132867400D01*
X208076800Y-136067800D02*
X209270600Y-134874000D01*
X213639400Y-133959600D02*
X213639400Y-132895100D01*
X209270600Y-134874000D02*
X212725000Y-134874000D01*
X211251800Y-135509000D02*
X210616800Y-136144000D01*
X209423000Y-138633200D02*
X210616800Y-137439400D01*
X217595400Y-130390000D02*
X217595400Y-133966000D01*
X213614000Y-135509000D02*
X211251800Y-135509000D01*
X205994000Y-138633200D02*
X209423000Y-138633200D01*
X201312000Y-133683000D02*
X203660000Y-133683000D01*
X203660000Y-133683000D02*
X205155800Y-135178800D01*
X205892400Y-138531600D02*
X205994000Y-138633200D01*
X210616800Y-136144000D02*
X210616800Y-137439400D01*
X214680800Y-134442200D02*
X213614000Y-135509000D01*
X215188800Y-134442200D02*
X214680800Y-134442200D01*
X217595400Y-133966000D02*
X217093800Y-134467600D01*
X213156800Y-138455400D02*
X213156800Y-137439400D01*
X204328400Y-133183000D02*
X205181200Y-134035800D01*
X212064600Y-138709400D02*
X212902800Y-138709400D01*
X216795400Y-133800800D02*
X213156800Y-137439400D01*
X212902800Y-138709400D02*
X213156800Y-138455400D01*
X202112000Y-133183000D02*
X204328400Y-133183000D01*
X216795400Y-130390000D02*
X216795400Y-133800800D01*
D109*
X230808400Y-134113400D02*
X231038400Y-133883400D01*
D106*
X236931200Y-133121400D02*
X237914600Y-133121400D01*
X291750000Y-130400000D02*
X290300000Y-130400000D01*
X236931200Y-133121400D02*
X236931200Y-132231200D01*
X290300000Y-130400000D02*
X288800000Y-131900000D01*
X236931200Y-132231200D02*
X235200000Y-130500000D01*
X235200000Y-130500000D02*
X235200000Y-129700000D01*
X262600000Y-132700000D02*
X262600000Y-133115800D01*
X202112000Y-130183000D02*
X202811000Y-130183000D01*
X234312500Y-121987500D02*
X236112500Y-121987500D01*
X237914600Y-133121400D02*
X237928200Y-133107800D01*
X202811000Y-130183000D02*
X203606400Y-129387600D01*
X220830600Y-135051800D02*
X221125000Y-135346200D01*
X219887800Y-135051800D02*
X220830600Y-135051800D01*
X267830200Y-131900000D02*
X275600000Y-131900000D01*
D109*
X230808400Y-135352400D02*
X230808400Y-134113400D01*
D106*
X234000000Y-122300000D02*
X234312500Y-121987500D01*
X262600000Y-133115800D02*
X264607200Y-135123000D01*
X264607200Y-135123000D02*
X267830200Y-131900000D01*
X259200000Y-136300000D02*
X265970200Y-136300000D01*
X267147200Y-135123000D02*
X269770200Y-132500000D01*
X238728200Y-132857800D02*
X237955200Y-132084800D01*
X237384800Y-132084800D02*
X235800000Y-130500000D01*
D109*
X231808400Y-135352400D02*
X231808400Y-136846800D01*
D106*
X236112500Y-122487500D02*
X235042259Y-122487500D01*
X290200000Y-131500000D02*
X289200000Y-132500000D01*
X253802063Y-132638800D02*
X253586863Y-132854000D01*
X291750000Y-131500000D02*
X290200000Y-131500000D01*
X238734600Y-133114200D02*
X238728200Y-133107800D01*
X201312000Y-132683000D02*
X204844400Y-132683000D01*
X238734600Y-134416800D02*
X238734600Y-133114200D01*
X222123000Y-136880600D02*
X222123000Y-135348200D01*
X204844400Y-132683000D02*
X205232000Y-133070600D01*
D109*
X231808400Y-136846800D02*
X231800000Y-136855200D01*
D106*
X258377000Y-135477000D02*
X259200000Y-136300000D01*
X257400000Y-133900000D02*
X256138800Y-132638800D01*
X256138800Y-132638800D02*
X253802063Y-132638800D01*
X235042259Y-122487500D02*
X234967504Y-122562255D01*
X231851200Y-135309600D02*
X231808400Y-135352400D01*
X237955200Y-132084800D02*
X237384800Y-132084800D01*
X238728200Y-133107800D02*
X238728200Y-132857800D01*
X235800000Y-130500000D02*
X235800000Y-129700000D01*
X222123000Y-135348200D02*
X222125000Y-135346200D01*
X265970200Y-136300000D02*
X267147200Y-135123000D01*
X269770200Y-132500000D02*
X275600000Y-132500000D01*
X224863900Y-132590300D02*
X223875600Y-133578600D01*
X224863900Y-131648200D02*
X224863900Y-132590300D01*
X223875600Y-133578600D02*
X223266000Y-133578600D01*
X223266000Y-133578600D02*
X223125000Y-133719600D01*
X223125000Y-133719600D02*
X223125000Y-135346200D01*
X216103200Y-126695200D02*
X213842600Y-128955800D01*
X203174600Y-130683000D02*
X204952600Y-128905000D01*
X216103200Y-123444000D02*
X216103200Y-126695200D01*
X214934800Y-122275600D02*
X216103200Y-123444000D01*
X213029800Y-122275600D02*
X214934800Y-122275600D01*
X201312000Y-130683000D02*
X203174600Y-130683000D01*
X205460600Y-136144000D02*
X206324200Y-135280400D01*
X201312000Y-134683000D02*
X203085200Y-134683000D01*
X214909400Y-123545600D02*
X213029800Y-123545600D01*
X203085200Y-134683000D02*
X204546200Y-136144000D01*
X208076800Y-130911600D02*
X211683600Y-130911600D01*
X206324200Y-135280400D02*
X206324200Y-132664200D01*
X212699600Y-129895600D02*
X212699600Y-129108200D01*
X212699600Y-129108200D02*
X215290400Y-126517400D01*
X215290400Y-123926600D02*
X214909400Y-123545600D01*
X211683600Y-130911600D02*
X212699600Y-129895600D01*
X206324200Y-132664200D02*
X208076800Y-130911600D01*
X204546200Y-136144000D02*
X205460600Y-136144000D01*
X215290400Y-126517400D02*
X215290400Y-123926600D01*
X212496400Y-125349000D02*
X213029800Y-124815600D01*
X197612000Y-124983000D02*
X197612000Y-125399800D01*
X197612000Y-125399800D02*
X197129400Y-125882400D01*
X211226400Y-127787400D02*
X212496400Y-126517400D01*
X212496400Y-126517400D02*
X212496400Y-125349000D01*
X210591400Y-127787400D02*
X211226400Y-127787400D01*
X248666000Y-134491420D02*
X248666000Y-136042400D01*
X201312000Y-131683000D02*
X203114400Y-131683000D01*
X242189000Y-130352800D02*
X244727380Y-130352800D01*
X203114400Y-131683000D02*
X205028800Y-129768600D01*
X244727380Y-130352800D02*
X245077000Y-130702420D01*
D109*
X281000000Y-133700000D02*
X280400000Y-133100000D01*
D106*
X245077000Y-130902420D02*
X248666000Y-134491420D01*
D109*
X282250000Y-133700000D02*
X281000000Y-133700000D01*
D106*
X245077000Y-130702420D02*
X245077000Y-130902420D01*
X202112000Y-128183000D02*
X200391400Y-128183000D01*
X200391400Y-128183000D02*
X200101200Y-128473200D01*
X263200000Y-122300000D02*
X262800000Y-122300000D01*
X264200000Y-123300000D02*
X263200000Y-122300000D01*
X201312000Y-125683000D02*
X200656200Y-125683000D01*
X255400000Y-107900000D02*
X250600000Y-107900000D01*
X257600000Y-109700000D02*
X255800000Y-107900000D01*
X255800000Y-107900000D02*
X255400000Y-107900000D01*
X267000000Y-124500000D02*
X267000000Y-125300000D01*
X200656200Y-125683000D02*
X200253600Y-126085600D01*
X269400000Y-122100000D02*
X267000000Y-124500000D01*
X214600000Y-115100000D02*
X219200000Y-115100000D01*
X269660000Y-120100000D02*
X293000000Y-120100000D01*
X247737934Y-128057200D02*
X250052334Y-125742800D01*
X219200000Y-115100000D02*
X232157200Y-128057200D01*
X256357200Y-125742800D02*
X259400000Y-122700000D01*
X293000000Y-120100000D02*
X294800000Y-118300000D01*
X201168000Y-118592600D02*
X201168000Y-116001800D01*
X250052334Y-125742800D02*
X256357200Y-125742800D01*
X264460000Y-125300000D02*
X269660000Y-120100000D01*
X294800000Y-104700000D02*
X293600000Y-103500000D01*
X201650600Y-115519200D02*
X211531200Y-115519200D01*
X293600000Y-103500000D02*
X292150000Y-103500000D01*
X212180800Y-115519200D02*
X212200000Y-115500000D01*
X211531200Y-115519200D02*
X212180800Y-115519200D01*
X198112000Y-124183000D02*
X198112000Y-121648600D01*
X198112000Y-121648600D02*
X201168000Y-118592600D01*
X201168000Y-116001800D02*
X201650600Y-115519200D01*
X232157200Y-128057200D02*
X247737934Y-128057200D01*
X294800000Y-118300000D02*
X294800000Y-104700000D01*
X260000000Y-125100000D02*
X260200000Y-125300000D01*
X202669400Y-127683000D02*
X204063600Y-126288800D01*
X293400000Y-101800000D02*
X293400000Y-102500000D01*
X292700000Y-101100000D02*
X293400000Y-101800000D01*
X201312000Y-127683000D02*
X202669400Y-127683000D01*
X261920000Y-125300000D02*
X261920000Y-123869729D01*
X204063600Y-126288800D02*
X204851000Y-126288800D01*
X261920000Y-123869729D02*
X262830009Y-122959720D01*
X260200000Y-125300000D02*
X261920000Y-125300000D01*
X292150000Y-101100000D02*
X292700000Y-101100000D01*
X169364600Y-115872200D02*
X169367200Y-115874800D01*
X191423800Y-131683000D02*
X190017400Y-130276600D01*
X190144400Y-105029000D02*
X190144400Y-104444800D01*
X187909200Y-106603800D02*
X186969400Y-107543600D01*
X193912000Y-131683000D02*
X191423800Y-131683000D01*
X162468400Y-93629400D02*
X162468400Y-93233400D01*
X188569600Y-106603800D02*
X187909200Y-106603800D01*
X162468400Y-93233400D02*
X163728400Y-91973400D01*
X168308900Y-115872200D02*
X169364600Y-115872200D01*
X188569600Y-106603800D02*
X190144400Y-105029000D01*
X171323000Y-109524800D02*
X171323000Y-109702600D01*
X169312400Y-114372200D02*
X169316400Y-114376200D01*
X165008400Y-93614400D02*
X166141400Y-92481400D01*
X189382400Y-104394000D02*
X189382400Y-104505600D01*
X171323000Y-109702600D02*
X170281600Y-110744000D01*
X189382400Y-104505600D02*
X188071600Y-105816400D01*
X165008400Y-93629400D02*
X165008400Y-93614400D01*
X193912000Y-133683000D02*
X191823600Y-133683000D01*
X168308900Y-114372200D02*
X169312400Y-114372200D01*
X191823600Y-133683000D02*
X191363600Y-133223000D01*
X188071600Y-105816400D02*
X186461400Y-105816400D01*
X170210800Y-115372200D02*
X170230800Y-115392200D01*
X179349400Y-115062000D02*
X179349400Y-114985800D01*
X178739800Y-116586000D02*
X178739800Y-116128800D01*
X178714400Y-112115600D02*
X181051200Y-109778800D01*
X184683400Y-109778800D02*
X185318400Y-109143800D01*
X168308900Y-115372200D02*
X170210800Y-115372200D01*
X191111000Y-132183000D02*
X190804800Y-131876800D01*
X179298600Y-115570000D02*
X179349400Y-115519200D01*
X178714400Y-114350800D02*
X179349400Y-114985800D01*
X178714400Y-114350800D02*
X178714400Y-112115600D01*
X193112000Y-132183000D02*
X191111000Y-132183000D01*
X178739800Y-116586000D02*
X179705000Y-117551200D01*
X181051200Y-109778800D02*
X184683400Y-109778800D01*
X178739800Y-116128800D02*
X179298600Y-115570000D01*
X168381600Y-94462600D02*
X167548400Y-93629400D01*
X179705000Y-119227600D02*
X179705000Y-117551200D01*
X168833800Y-94462600D02*
X168381600Y-94462600D01*
X179349400Y-115519200D02*
X179349400Y-115062000D01*
X193041000Y-127254000D02*
X193112000Y-127183000D01*
X170434000Y-114198400D02*
X170434000Y-113817400D01*
X171673600Y-93629400D02*
X172110400Y-93192600D01*
X188849000Y-111455200D02*
X189306200Y-110998000D01*
X169760200Y-114872200D02*
X170434000Y-114198400D01*
X191236600Y-127254000D02*
X193041000Y-127254000D01*
X168308900Y-114872200D02*
X169760200Y-114872200D01*
X188849000Y-116967000D02*
X188849000Y-111455200D01*
X187909200Y-109067600D02*
X187909200Y-108127800D01*
X187909200Y-108127800D02*
X189560200Y-106476800D01*
X170088400Y-93629400D02*
X171673600Y-93629400D01*
X158418552Y-116259800D02*
X158724600Y-116565848D01*
X160807400Y-107213400D02*
X161848800Y-106172000D01*
X158724600Y-116565848D02*
X158724600Y-117297200D01*
X164621400Y-117559700D02*
X164621400Y-118878600D01*
X167110600Y-101299200D02*
X167411400Y-101600000D01*
X167255000Y-101299200D02*
X166717600Y-101299200D01*
X166717600Y-97514600D02*
X167081600Y-97514600D01*
X167487600Y-101066600D02*
X167255000Y-101299200D01*
X164621400Y-118878600D02*
X162800000Y-120700000D01*
X160527200Y-120700000D02*
X158724600Y-118897400D01*
X162800000Y-120700000D02*
X160527200Y-120700000D01*
X167081600Y-97514600D02*
X167487600Y-97920600D01*
X157446600Y-116259800D02*
X158418552Y-116259800D01*
X158724600Y-118897400D02*
X158724600Y-117297200D01*
X167487600Y-97920600D02*
X167487600Y-101066600D01*
X166717600Y-101299200D02*
X167110600Y-101299200D01*
X161848800Y-106172000D02*
X162534600Y-106172000D01*
X164121400Y-117559700D02*
X164121400Y-118707600D01*
X166717600Y-99941000D02*
X166522400Y-99745800D01*
X159334200Y-118694200D02*
X159334200Y-116713000D01*
X156895800Y-101600000D02*
X156895800Y-104140000D01*
X160299400Y-107645200D02*
X160299400Y-106883200D01*
X160299400Y-106883200D02*
X161036000Y-106146600D01*
X164121400Y-118707600D02*
X163601400Y-119227600D01*
X160121600Y-116916200D02*
X159537400Y-116916200D01*
X158381000Y-115759800D02*
X157446600Y-115759800D01*
X166598600Y-96895600D02*
X166717600Y-97014600D01*
X166598600Y-96520000D02*
X166598600Y-96895600D01*
X163601400Y-119227600D02*
X162636200Y-120192800D01*
X166717600Y-100799200D02*
X166717600Y-99941000D01*
X162636200Y-120192800D02*
X160832800Y-120192800D01*
X159537400Y-116916200D02*
X159334200Y-116713000D01*
X160832800Y-120192800D02*
X159334200Y-118694200D01*
X159334200Y-116713000D02*
X158381000Y-115759800D01*
X156895800Y-104140000D02*
X156921200Y-104165400D01*
X161036000Y-119583200D02*
X162331400Y-119583200D01*
X157501400Y-116814600D02*
X157446600Y-116759800D01*
X163121400Y-117559700D02*
X163121400Y-118793200D01*
X158165800Y-116814600D02*
X157501400Y-116814600D01*
X162331400Y-119583200D02*
X163121400Y-118793200D01*
X159918400Y-118465600D02*
X159918400Y-117525800D01*
X159918400Y-118465600D02*
X161036000Y-119583200D01*
X229348200Y-93257200D02*
X229348200Y-94437200D01*
X229920800Y-92684600D02*
X229348200Y-93257200D01*
X229920800Y-91971100D02*
X229920800Y-92684600D01*
X162937000Y-101324600D02*
X163845103Y-100416497D01*
X133781800Y-117398800D02*
X136220200Y-119837200D01*
X162120200Y-101324600D02*
X162937000Y-101324600D01*
X162563006Y-97514600D02*
X162884948Y-97836542D01*
X149504400Y-119837200D02*
X150977600Y-118364000D01*
X136220200Y-119837200D02*
X149504400Y-119837200D01*
X150977600Y-118364000D02*
X150977600Y-117779800D01*
X160479800Y-115872200D02*
X161433900Y-115872200D01*
X158093600Y-108766800D02*
X158394400Y-109067600D01*
X163845103Y-100416497D02*
X163845103Y-98700000D01*
X160070800Y-116281200D02*
X160479800Y-115872200D01*
X163845103Y-98454897D02*
X164000000Y-98300000D01*
X158394400Y-114909600D02*
X159357000Y-115872200D01*
X162145600Y-97514600D02*
X162563006Y-97514600D01*
X159054800Y-107111800D02*
X159054800Y-107805600D01*
X157370400Y-108766800D02*
X158093600Y-108766800D01*
X131902200Y-117398800D02*
X133781800Y-117398800D01*
X159054800Y-107805600D02*
X158093600Y-108766800D01*
X159357000Y-115872200D02*
X161433900Y-115872200D01*
X163845103Y-98700000D02*
X163845103Y-98454897D01*
X158394400Y-109067600D02*
X158394400Y-114909600D01*
X158978600Y-114757200D02*
X159593600Y-115372200D01*
X157962600Y-102031800D02*
X159867600Y-100126800D01*
X163372800Y-97561400D02*
X162826000Y-97014600D01*
X163372800Y-100304600D02*
X163372800Y-97561400D01*
X149174200Y-119354600D02*
X149961600Y-118567200D01*
X157370400Y-108266800D02*
X157874400Y-108266800D01*
X162120200Y-100626800D02*
X161620200Y-100126800D01*
X161620200Y-100126800D02*
X159867600Y-100126800D01*
X162120200Y-100824600D02*
X162852800Y-100824600D01*
X157962600Y-102031800D02*
X157962600Y-102844600D01*
X162826000Y-97014600D02*
X162145600Y-97014600D01*
X158721400Y-114531800D02*
X158946800Y-114757200D01*
X157874400Y-108266800D02*
X158140400Y-108000800D01*
X131902200Y-114858800D02*
X136398000Y-119354600D01*
X157370400Y-107983400D02*
X159613600Y-105740200D01*
X162120200Y-100824600D02*
X162120200Y-100626800D01*
X136398000Y-119354600D02*
X149174200Y-119354600D01*
X157370400Y-108266800D02*
X157370400Y-107983400D01*
X159593600Y-115372200D02*
X160268600Y-115372200D01*
X158946800Y-114757200D02*
X158978600Y-114757200D01*
X160268600Y-115372200D02*
X161433900Y-115372200D01*
X158721400Y-108918400D02*
X158721400Y-114531800D01*
X159207200Y-108432600D02*
X158721400Y-108918400D01*
X159613600Y-105740200D02*
X159893000Y-105740200D01*
X149961600Y-118567200D02*
X149961600Y-117475000D01*
X162852800Y-100824600D02*
X163372800Y-100304600D01*
X157370400Y-109266800D02*
X157831600Y-109266800D01*
X135636000Y-106781600D02*
X137134600Y-106781600D01*
X153136600Y-109829600D02*
X152882600Y-109575600D01*
X157831600Y-109266800D02*
X157835600Y-109270800D01*
X131902200Y-112318800D02*
X134137400Y-110083600D01*
X134137400Y-108280200D02*
X135636000Y-106781600D01*
X155168600Y-109829600D02*
X153136600Y-109829600D01*
X161433900Y-114372200D02*
X159719200Y-114372200D01*
X159719200Y-114372200D02*
X159588200Y-114503200D01*
X134137400Y-110083600D02*
X134137400Y-108280200D01*
X225704400Y-92989400D02*
X224891600Y-92989400D01*
X226390200Y-91920300D02*
X226390200Y-92303600D01*
X224420600Y-93460400D02*
X224420600Y-94361000D01*
X224891600Y-92989400D02*
X224420600Y-93460400D01*
X226390200Y-92303600D02*
X225704400Y-92989400D01*
X164388800Y-95631000D02*
X167919400Y-95631000D01*
X149819200Y-93654800D02*
X149819200Y-94701200D01*
X168941800Y-99841000D02*
X168878200Y-99904600D01*
X165121400Y-109503400D02*
X166039800Y-108585000D01*
X164338000Y-95681800D02*
X164388800Y-95631000D01*
X150799800Y-95681800D02*
X164338000Y-95681800D01*
X170264200Y-99954600D02*
X169055400Y-99954600D01*
X168991800Y-97567000D02*
X170238800Y-97567000D01*
X168478200Y-97053400D02*
X168941800Y-97517000D01*
X168941800Y-97517000D02*
X168991800Y-97567000D01*
X168478200Y-96189800D02*
X168478200Y-97053400D01*
X149819200Y-94701200D02*
X150799800Y-95681800D01*
X165121400Y-110684700D02*
X165121400Y-109503400D01*
X168605200Y-100177600D02*
X168878200Y-99904600D01*
X167919400Y-95631000D02*
X168478200Y-96189800D01*
X169055400Y-99954600D02*
X168941800Y-99841000D01*
X166039800Y-108585000D02*
X167132000Y-108585000D01*
X167132000Y-108585000D02*
X168605200Y-107111800D01*
X168605200Y-107111800D02*
X168605200Y-100177600D01*
X168941800Y-97517000D02*
X168941800Y-99841000D01*
X165621400Y-110684700D02*
X165621400Y-109714600D01*
X170764200Y-100457000D02*
X170566600Y-100654600D01*
X170764200Y-98792400D02*
X170238800Y-98267000D01*
X152359200Y-93654800D02*
X153954400Y-95250000D01*
X170688800Y-98267000D02*
X170738800Y-98217000D01*
X167386000Y-109042200D02*
X169138600Y-107289600D01*
X170264200Y-101896800D02*
X170264200Y-100654600D01*
X169138600Y-107289600D02*
X169138600Y-103022400D01*
X166293800Y-109042200D02*
X167386000Y-109042200D01*
X169214800Y-95250000D02*
X170738800Y-96774000D01*
X170238800Y-98267000D02*
X170688800Y-98267000D01*
X170764200Y-100457000D02*
X170764200Y-98792400D01*
X153954400Y-95250000D02*
X169214800Y-95250000D01*
X165621400Y-109714600D02*
X166293800Y-109042200D01*
X169138600Y-103022400D02*
X170264200Y-101896800D01*
X170738800Y-98217000D02*
X170738800Y-96774000D01*
X170566600Y-100654600D02*
X170264200Y-100654600D01*
X172669200Y-96494600D02*
X173126400Y-96951800D01*
X163525200Y-107518200D02*
X160477200Y-110566200D01*
X160477200Y-111607600D02*
X160741800Y-111872200D01*
X175336200Y-96951800D02*
X176484400Y-98100000D01*
X155402200Y-93654800D02*
X156210000Y-94462600D01*
X172669200Y-96393000D02*
X172669200Y-96494600D01*
X160741800Y-111872200D02*
X161433900Y-111872200D01*
X167487600Y-105537000D02*
X166985200Y-106039400D01*
X179450000Y-99550000D02*
X178000000Y-98100000D01*
X166666800Y-106039400D02*
X166666800Y-107069000D01*
X176484400Y-98100000D02*
X178000000Y-98100000D01*
X166666800Y-107069000D02*
X166217600Y-107518200D01*
X166985200Y-106039400D02*
X166666800Y-106039400D01*
X173126400Y-96951800D02*
X175336200Y-96951800D01*
X179500000Y-99550000D02*
X179450000Y-99550000D01*
X166217600Y-107518200D02*
X163525200Y-107518200D01*
X154899200Y-93654800D02*
X155402200Y-93654800D01*
X160477200Y-110566200D02*
X160477200Y-111607600D01*
X169570400Y-96545400D02*
X169570400Y-96926400D01*
X168046400Y-105130600D02*
X167538400Y-104622600D01*
X166666800Y-105339400D02*
X166821600Y-105339400D01*
X161433900Y-110295300D02*
X163779200Y-107950000D01*
X157439200Y-93654800D02*
X159380000Y-93654800D01*
X168935400Y-95910400D02*
X169570400Y-96545400D01*
X179500000Y-100250000D02*
X179296000Y-100250000D01*
X159380000Y-93654800D02*
X159385000Y-93649800D01*
X167081200Y-107950000D02*
X168046400Y-106984800D01*
X179296000Y-100250000D02*
X178150000Y-99104000D01*
X163779200Y-107950000D02*
X167081200Y-107950000D01*
X178150000Y-99104000D02*
X176936400Y-99104000D01*
X161433900Y-111372200D02*
X161433900Y-110295300D01*
X168046400Y-106984800D02*
X168046400Y-105130600D01*
X166821600Y-105339400D02*
X167538400Y-104622600D01*
X147116800Y-107619800D02*
X150368000Y-107619800D01*
X145999200Y-104444800D02*
X146710400Y-104444800D01*
X151180800Y-108432600D02*
X151180800Y-109093000D01*
X151409400Y-109321600D02*
X151922648Y-109321600D01*
X133680200Y-106934000D02*
X134493000Y-106934000D01*
X131851400Y-105105200D02*
X133680200Y-106934000D01*
X146710400Y-104444800D02*
X146888200Y-104622600D01*
X151180800Y-109093000D02*
X151409400Y-109321600D01*
X144939100Y-104618600D02*
X145825400Y-104618600D01*
X160370200Y-112872200D02*
X159283400Y-111785400D01*
X150368000Y-107619800D02*
X151180800Y-108432600D01*
X155462648Y-110703276D02*
X153304324Y-110703276D01*
X145825400Y-104618600D02*
X145999200Y-104444800D01*
X146888200Y-107391200D02*
X146964400Y-107467400D01*
X151922648Y-109321600D02*
X153304324Y-110703276D01*
X146888200Y-104622600D02*
X146888200Y-107391200D01*
X146964400Y-107467400D02*
X147116800Y-107619800D01*
X161433900Y-112872200D02*
X160370200Y-112872200D01*
X155596302Y-110569622D02*
X155462648Y-110703276D01*
X160032000Y-113372200D02*
X161433900Y-113372200D01*
X153191724Y-111053124D02*
X156324073Y-111053124D01*
X144939100Y-105118600D02*
X146011200Y-105118600D01*
X146456400Y-105562400D02*
X146456400Y-108889800D01*
X146215100Y-105321100D02*
X146456400Y-105562400D01*
X147193000Y-109677200D02*
X151815800Y-109677200D01*
X133502400Y-105232200D02*
X134543800Y-106273600D01*
X146011200Y-105118600D02*
X146012600Y-105118600D01*
X134543800Y-106273600D02*
X134594600Y-106273600D01*
X153085800Y-110947200D02*
X153136600Y-110998000D01*
X131851400Y-102565200D02*
X133502400Y-104216200D01*
X134594600Y-106273600D02*
X136398000Y-106273600D01*
X146012600Y-105118600D02*
X146215100Y-105321100D01*
X159232600Y-112572800D02*
X160032000Y-113372200D01*
X151815800Y-109677200D02*
X153085800Y-110947200D01*
X146456400Y-108889800D02*
X146431000Y-108915200D01*
X133502400Y-104216200D02*
X133502400Y-105232200D01*
X146431000Y-108915200D02*
X147193000Y-109677200D01*
X153136600Y-110998000D02*
X153191724Y-111053124D01*
X145580100Y-105778300D02*
X145420400Y-105618600D01*
X145420400Y-105618600D02*
X144939100Y-105618600D01*
X159592200Y-113872200D02*
X159283400Y-113563400D01*
X145897600Y-109067600D02*
X145897600Y-106095800D01*
X134010400Y-104876600D02*
X134848600Y-105714800D01*
X133324600Y-100025200D02*
X133959600Y-100660200D01*
X152806400Y-111455200D02*
X155829000Y-111455200D01*
X146913600Y-110083600D02*
X145897600Y-109067600D01*
X151434800Y-110083600D02*
X146913600Y-110083600D01*
X134848600Y-105714800D02*
X137617200Y-105714800D01*
X155829000Y-111455200D02*
X156006800Y-111633000D01*
X161433900Y-113872200D02*
X159592200Y-113872200D01*
X134010400Y-100711000D02*
X134010400Y-104876600D01*
X133959600Y-100660200D02*
X134010400Y-100711000D01*
X145897600Y-106095800D02*
X145580100Y-105778300D01*
X152806400Y-111455200D02*
X151434800Y-110083600D01*
X137617200Y-105714800D02*
X137642600Y-105689400D01*
X131851400Y-100025200D02*
X133324600Y-100025200D01*
X219532200Y-92862400D02*
X219532200Y-94146200D01*
X219532200Y-94146200D02*
X219543800Y-94157800D01*
X220448900Y-91945700D02*
X219532200Y-92862400D01*
X222885000Y-91945700D02*
X220448900Y-91945700D01*
X175786700Y-103305800D02*
X174646400Y-103305800D01*
X168308900Y-110557700D02*
X168308900Y-111372200D01*
X174646400Y-103305800D02*
X174091600Y-103860600D01*
X170967400Y-105740200D02*
X170967400Y-107899200D01*
X173786800Y-105359200D02*
X171348400Y-105359200D01*
X171348400Y-105359200D02*
X170967400Y-105740200D01*
X174091600Y-103860600D02*
X174091600Y-105054400D01*
X174091600Y-105054400D02*
X173786800Y-105359200D01*
X170967400Y-107899200D02*
X168795700Y-110070900D01*
X168795700Y-110070900D02*
X168308900Y-110557700D01*
X173583600Y-103555800D02*
X174333600Y-102805800D01*
X167621400Y-110407000D02*
X168211500Y-109816900D01*
X168211500Y-109816900D02*
X170332400Y-107696000D01*
X170332400Y-107696000D02*
X170332400Y-104190800D01*
X170967400Y-103555800D02*
X173583600Y-103555800D01*
X167621400Y-110684700D02*
X167621400Y-110407000D01*
X174333600Y-102805800D02*
X175786700Y-102805800D01*
X170332400Y-104190800D02*
X170967400Y-103555800D01*
X171373800Y-101625400D02*
X174167800Y-101625400D01*
X169773600Y-103225600D02*
X171373800Y-101625400D01*
X167121400Y-110119600D02*
X167386000Y-109855000D01*
X174167800Y-101625400D02*
X174848200Y-102305800D01*
X167121400Y-110684700D02*
X167121400Y-110119600D01*
X167386000Y-109855000D02*
X169773600Y-107467400D01*
X174848200Y-102305800D02*
X175786700Y-102305800D01*
X169773600Y-107467400D02*
X169773600Y-103225600D01*
D111*
X279607200Y-134957200D02*
X278600000Y-133950000D01*
X282092800Y-134957200D02*
X279607200Y-134957200D01*
X282250000Y-134800000D02*
X282092800Y-134957200D01*
D106*
X243376001Y-119100000D02*
X243428699Y-119152698D01*
X238300000Y-121300000D02*
X239904000Y-119696000D01*
X241804000Y-119696000D02*
X242400000Y-119100000D01*
X256800000Y-132100000D02*
X256800000Y-129700000D01*
X242400000Y-119100000D02*
X243376001Y-119100000D01*
X239904000Y-119696000D02*
X241804000Y-119696000D01*
X256800000Y-129700000D02*
X253400000Y-126300000D01*
X249107200Y-125899934D02*
X249107200Y-121419200D01*
X246877000Y-120023000D02*
X246700066Y-120199934D01*
X247711000Y-120023000D02*
X246877000Y-120023000D01*
X240154000Y-120100000D02*
X240077000Y-120023000D01*
X252466000Y-131125800D02*
X252800000Y-130791800D01*
X249107200Y-121419200D02*
X247711000Y-120023000D01*
X242200000Y-120100000D02*
X240154000Y-120100000D01*
X238987500Y-121112500D02*
X240077000Y-120023000D01*
X238987500Y-121987500D02*
X238987500Y-121112500D01*
X252466000Y-135727600D02*
X252466000Y-134945200D01*
X252466000Y-134945200D02*
X252466000Y-131125800D01*
X249926000Y-134945200D02*
X248400000Y-133419200D01*
X240200000Y-124700000D02*
X238987500Y-123487500D01*
X241200000Y-132300000D02*
X241000000Y-132100000D01*
X248400000Y-133419200D02*
X248400000Y-132300000D01*
X241000000Y-132100000D02*
X241000000Y-129700000D01*
X238300000Y-124175000D02*
X238300000Y-124587499D01*
X238300000Y-124587499D02*
X241212501Y-127500000D01*
X241212501Y-127500000D02*
X242400000Y-127500000D01*
X244200000Y-130900000D02*
X244200000Y-131759200D01*
X244200000Y-131759200D02*
X247386000Y-134945200D01*
D109*
X299800000Y-121160000D02*
X296740000Y-121160000D01*
X296740000Y-121160000D02*
X286400000Y-131500000D01*
X286400000Y-131500000D02*
X282250000Y-131500000D01*
X286100000Y-130400000D02*
X297000000Y-119500000D01*
X297000000Y-119500000D02*
X298920000Y-119500000D01*
X298920000Y-119500000D02*
X299800000Y-118620000D01*
X282250000Y-130400000D02*
X286100000Y-130400000D01*
X291750000Y-129300000D02*
X297200000Y-123850000D01*
X297200000Y-123850000D02*
X297200000Y-122700000D01*
D106*
X234414300Y-131622800D02*
X234414300Y-132488700D01*
X234414300Y-132488700D02*
X232808400Y-134094600D01*
X232808400Y-134094600D02*
X232808400Y-135352400D01*
X277200000Y-92300000D02*
X274500000Y-92300000D01*
X271600000Y-105500000D02*
X273200000Y-103900000D01*
X273200000Y-103900000D02*
X273200000Y-92300000D01*
X267225000Y-108700000D02*
X268000000Y-108700000D01*
X266900000Y-109025000D02*
X267225000Y-108700000D01*
X266900000Y-109575000D02*
X266900000Y-109025000D01*
X271787500Y-92187500D02*
X271900000Y-92300000D01*
X269200000Y-92187500D02*
X271787500Y-92187500D01*
X198145400Y-132105400D02*
X199186800Y-133146800D01*
X220497400Y-131572000D02*
X220446600Y-131622800D01*
X219456000Y-131622800D02*
X220446600Y-131622800D01*
X219456000Y-131622800D02*
X218262200Y-132816600D01*
X199186800Y-133146800D02*
X199212200Y-133146800D01*
X230035700Y-130698200D02*
X230047800Y-130710300D01*
X220522800Y-131546600D02*
X220497400Y-131572000D01*
X232539300Y-130672800D02*
X230085300Y-130672800D01*
X222988900Y-130698200D02*
X230035700Y-130698200D01*
X195986400Y-127381000D02*
X195986400Y-129463800D01*
X195986400Y-129463800D02*
X196596000Y-130073400D01*
X198145400Y-132105400D02*
X198145400Y-130251200D01*
X220522800Y-130710300D02*
X222976800Y-130710300D01*
X193912000Y-126683000D02*
X195288400Y-126683000D01*
X222976800Y-130710300D02*
X222988900Y-130698200D01*
X220522800Y-130710300D02*
X220522800Y-131546600D01*
X205308200Y-131089400D02*
X204368400Y-132029200D01*
X230085300Y-130672800D02*
X230047800Y-130710300D01*
X206273400Y-131089400D02*
X205308200Y-131089400D01*
X195288400Y-126683000D02*
X195986400Y-127381000D01*
X231073600Y-94161800D02*
X230798200Y-94437200D01*
X235110400Y-94161800D02*
X231073600Y-94161800D01*
X292200000Y-104700000D02*
X291835000Y-104700000D01*
X291835000Y-104700000D02*
X291435000Y-105100000D01*
X258480600Y-96644700D02*
X261335900Y-99500000D01*
X288235000Y-104700000D02*
X287850000Y-104700000D01*
X261335900Y-99500000D02*
X261400000Y-99500000D01*
X261400000Y-99500000D02*
X261400000Y-101700000D01*
X291435000Y-105100000D02*
X288635000Y-105100000D01*
X288635000Y-105100000D02*
X288235000Y-104700000D01*
X261400000Y-101700000D02*
X263800000Y-104100000D01*
X227888800Y-95681800D02*
X228168200Y-95961200D01*
X228168200Y-95961200D02*
X232003600Y-95961200D01*
X233303000Y-94661800D02*
X235110400Y-94661800D01*
X232003600Y-95961200D02*
X233303000Y-94661800D01*
X227482400Y-94361000D02*
X227888800Y-94767400D01*
X227888800Y-94767400D02*
X227888800Y-95681800D01*
X225870600Y-94361000D02*
X227482400Y-94361000D01*
X164503700Y-129778800D02*
X164515800Y-129766700D01*
X186639200Y-129489200D02*
X190677800Y-129489200D01*
X166524300Y-129766700D02*
X167335200Y-128955800D01*
X162456100Y-129778800D02*
X164503700Y-129778800D01*
X186105800Y-128955800D02*
X186639200Y-129489200D01*
X196612000Y-125485400D02*
X195935600Y-126161800D01*
X164515800Y-129766700D02*
X166524300Y-129766700D01*
X196612000Y-124983000D02*
X196612000Y-125485400D01*
X190677800Y-129489200D02*
X192074800Y-130886200D01*
X167335200Y-128955800D02*
X186105800Y-128955800D01*
X195935600Y-126161800D02*
X195935600Y-126466600D01*
X153339800Y-127787400D02*
X151942800Y-127787400D01*
X197612000Y-127381000D02*
X197612000Y-127533400D01*
X151942800Y-127787400D02*
X151790400Y-127635000D01*
X199612000Y-124983000D02*
X199612000Y-125254000D01*
X149682200Y-126512400D02*
X151755200Y-126512400D01*
X151790400Y-127635000D02*
X151790400Y-126477200D01*
X197612000Y-127381000D02*
X199612000Y-125381000D01*
X151790400Y-126477200D02*
X151792700Y-126474900D01*
X199612000Y-124983000D02*
X199612000Y-125381000D01*
X151755200Y-126512400D02*
X151792700Y-126474900D01*
X197104000Y-123367800D02*
X197785000Y-122686800D01*
X186080400Y-122478800D02*
X191973200Y-122478800D01*
X185191400Y-123367800D02*
X185191400Y-126339600D01*
X191973200Y-122478800D02*
X192684400Y-121767600D01*
X197785000Y-121366000D02*
X198196200Y-120954800D01*
X196850000Y-118719600D02*
X198196200Y-120065800D01*
X197785000Y-122686800D02*
X197785000Y-121366000D01*
X184353200Y-127203200D02*
X183159400Y-127203200D01*
X183159400Y-127203200D02*
X182450400Y-126494200D01*
X197112000Y-123375800D02*
X197104000Y-123367800D01*
X182450400Y-126494200D02*
X182450400Y-125175900D01*
X186080400Y-122478800D02*
X185242200Y-123317000D01*
X196850000Y-118719600D02*
X193802000Y-118719600D01*
X193802000Y-118719600D02*
X192684400Y-119837200D01*
X197112000Y-124183000D02*
X197112000Y-123375800D01*
X198196200Y-120954800D02*
X198196200Y-120065800D01*
X182450400Y-125175900D02*
X180114600Y-125175900D01*
X180114600Y-125175900D02*
X180083700Y-125206800D01*
X192684400Y-119837200D02*
X192684400Y-121767600D01*
X185242200Y-123317000D02*
X185191400Y-123367800D01*
X198612000Y-124983000D02*
X198612000Y-125314200D01*
X186250000Y-98562000D02*
X186600250Y-98912250D01*
X186250000Y-97375000D02*
X186250000Y-98562000D01*
X187087500Y-100100000D02*
X187087500Y-99399500D01*
X198612000Y-125314200D02*
X197129400Y-126796800D01*
X187087500Y-99399500D02*
X186600250Y-98912250D01*
X230771600Y-128384200D02*
X250177400Y-128384200D01*
X212267800Y-118846600D02*
X221234000Y-118846600D01*
X208432400Y-121564400D02*
X209089200Y-122221200D01*
X250177400Y-128384200D02*
X251409200Y-127152400D01*
X210366400Y-122221200D02*
X210896200Y-121691400D01*
D109*
X277312500Y-124700000D02*
X277312500Y-127525000D01*
D106*
X210896200Y-121691400D02*
X210896200Y-120218200D01*
X251409200Y-127152400D02*
X253415800Y-127152400D01*
X221234000Y-118846600D02*
X230771600Y-128384200D01*
X253415800Y-127152400D02*
X253746000Y-127482600D01*
X277312500Y-126412496D02*
X278600004Y-127700000D01*
X199112000Y-124183000D02*
X199112000Y-123293000D01*
X210896200Y-120218200D02*
X212267800Y-118846600D01*
X209089200Y-122221200D02*
X210366400Y-122221200D01*
X277312500Y-124700000D02*
X277312500Y-126412496D01*
D109*
X277312500Y-127525000D02*
X277350000Y-127562500D01*
D106*
X199112000Y-123293000D02*
X199110600Y-123291600D01*
X186696600Y-128683000D02*
X193912000Y-128683000D01*
X182168800Y-116203100D02*
X184607200Y-118641500D01*
X184607200Y-126593600D02*
X186696600Y-128683000D01*
X182156700Y-116215200D02*
X182168800Y-116203100D01*
X184607200Y-118641500D02*
X184607200Y-126593600D01*
X180083700Y-116215200D02*
X182156700Y-116215200D01*
X233539600Y-95161800D02*
X232206800Y-96494600D01*
X223799400Y-96494600D02*
X222834200Y-95529400D01*
X222834200Y-94716600D02*
X222275400Y-94157800D01*
X232206800Y-96494600D02*
X223799400Y-96494600D01*
X222834200Y-95529400D02*
X222834200Y-94716600D01*
X235110400Y-95161800D02*
X233539600Y-95161800D01*
X222275400Y-94157800D02*
X220993800Y-94157800D01*
X231321028Y-115300000D02*
X231000000Y-115300000D01*
X232400000Y-114900000D02*
X231400000Y-114900000D01*
X231400000Y-114900000D02*
X231000000Y-115300000D01*
D107*
X266887500Y-114987500D02*
X266887500Y-114100000D01*
X262148489Y-121692800D02*
X266607200Y-121692800D01*
X267800000Y-115900000D02*
X266887500Y-114987500D01*
D106*
X203733400Y-137947400D02*
X203454000Y-137947400D01*
D107*
X257769800Y-135225489D02*
X258600000Y-134395289D01*
X258600000Y-134395289D02*
X258600000Y-125241289D01*
D106*
X201142600Y-136220200D02*
X200101200Y-135178800D01*
X200101200Y-135178800D02*
X199440800Y-135178800D01*
X266887500Y-114100000D02*
X266887500Y-111437500D01*
X194429000Y-131183000D02*
X197993000Y-134747000D01*
X266887500Y-111437500D02*
X266900000Y-111425000D01*
X202971400Y-137464800D02*
X202971400Y-136931400D01*
X202260200Y-136220200D02*
X201142600Y-136220200D01*
D107*
X257769800Y-136669800D02*
X257769800Y-135225489D01*
X258600000Y-125241289D02*
X262148489Y-121692800D01*
X267800000Y-120500000D02*
X267800000Y-115900000D01*
D106*
X203454000Y-137947400D02*
X202971400Y-137464800D01*
X193112000Y-131183000D02*
X194429000Y-131183000D01*
D107*
X266607200Y-121692800D02*
X267800000Y-120500000D01*
D106*
X202971400Y-136931400D02*
X202260200Y-136220200D01*
D107*
X258000000Y-136900000D02*
X257769800Y-136669800D01*
D106*
X267400000Y-111425000D02*
X269787500Y-111425000D01*
X271800000Y-106831763D02*
X271800000Y-109412500D01*
X271800000Y-109412500D02*
X269800000Y-111412500D01*
X209473800Y-119405400D02*
X223336400Y-105542800D01*
X270511037Y-105542800D02*
X271800000Y-106831763D01*
X269787500Y-111425000D02*
X269800000Y-111412500D01*
X209473800Y-121742200D02*
X209473800Y-119405400D01*
X202527800Y-125183000D02*
X202971400Y-124739400D01*
X202112000Y-125183000D02*
X202527800Y-125183000D01*
X223336400Y-105542800D02*
X270511037Y-105542800D01*
X194233800Y-108788200D02*
X196723000Y-108788200D01*
X188036200Y-111125000D02*
X190322200Y-108839000D01*
X252425200Y-104546400D02*
X254455300Y-102516300D01*
X221157800Y-104546400D02*
X252425200Y-104546400D01*
X193112000Y-130183000D02*
X192438400Y-130183000D01*
X196723000Y-108788200D02*
X200406000Y-112471200D01*
X200406000Y-112471200D02*
X213233000Y-112471200D01*
X192438400Y-130183000D02*
X191744600Y-129489200D01*
X188036200Y-117881400D02*
X188036200Y-111125000D01*
X254455300Y-99009200D02*
X254455300Y-96856800D01*
X254455300Y-96856800D02*
X254467400Y-96844700D01*
X254455300Y-102516300D02*
X254455300Y-99009200D01*
X213233000Y-112471200D02*
X221157800Y-104546400D01*
X231321028Y-122200000D02*
X231000000Y-122200000D01*
X232608528Y-123487500D02*
X231321028Y-122200000D01*
X236112500Y-123487500D02*
X232608528Y-123487500D01*
X166621400Y-115872200D02*
X164871400Y-114122200D01*
X166621400Y-117559700D02*
X166621400Y-118488400D01*
X166621400Y-118488400D02*
X167995600Y-119862600D01*
X167995600Y-119862600D02*
X169428400Y-119862600D01*
X166621400Y-117559700D02*
X166621400Y-115872200D01*
X194600000Y-101187500D02*
X194262500Y-100850000D01*
X195512500Y-106300000D02*
X194600000Y-105387500D01*
X194600000Y-105387500D02*
X194600000Y-101187500D01*
D110*
X199800000Y-104237500D02*
X199537500Y-104500000D01*
X196150000Y-101812500D02*
X196137500Y-101800000D01*
X199800000Y-101812500D02*
X199800000Y-104237500D01*
X199800000Y-101812500D02*
X196150000Y-101812500D01*
D106*
X195512500Y-104100000D02*
X197112500Y-104100000D01*
X197112500Y-104100000D02*
X197662500Y-103550000D01*
X199199000Y-126683000D02*
X201312000Y-126683000D01*
X198983600Y-127584200D02*
X198983600Y-126898400D01*
X198983600Y-126898400D02*
X199199000Y-126683000D01*
X191109600Y-109790400D02*
X191400000Y-109500000D01*
X198450200Y-128117600D02*
X198983600Y-127584200D01*
X191400000Y-109500000D02*
X191400000Y-106387500D01*
X191400000Y-106387500D02*
X193687500Y-104100000D01*
X193087500Y-104100000D02*
X193687500Y-104100000D01*
X196596000Y-128117600D02*
X198450200Y-128117600D01*
X191200000Y-102212500D02*
X193087500Y-104100000D01*
X189992000Y-119380000D02*
X191109600Y-118262400D01*
X191109600Y-118262400D02*
X191109600Y-109790400D01*
X203123800Y-121666000D02*
X204012800Y-122555000D01*
X201701400Y-117424200D02*
X201701400Y-119430800D01*
X205206600Y-125704600D02*
X206580100Y-127078100D01*
X204012800Y-125298200D02*
X204419200Y-125704600D01*
X204419200Y-125704600D02*
X205206600Y-125704600D01*
X197980300Y-113068100D02*
X200456800Y-115544600D01*
X206580100Y-127078100D02*
X206580100Y-128778000D01*
X203123800Y-119862600D02*
X203123800Y-121666000D01*
X201312000Y-128683000D02*
X203320400Y-128683000D01*
X204012800Y-122555000D02*
X204012800Y-125298200D01*
X203320400Y-128683000D02*
X203809600Y-128193800D01*
X195033900Y-113068100D02*
X197980300Y-113068100D01*
X193687500Y-111721700D02*
X195033900Y-113068100D01*
X201726800Y-119456200D02*
X202717400Y-119456200D01*
X202717400Y-119456200D02*
X203123800Y-119862600D01*
X203809600Y-128193800D02*
X205995900Y-128193800D01*
X201701400Y-119430800D02*
X201726800Y-119456200D01*
X193687500Y-106300000D02*
X193687500Y-111721700D01*
X205995900Y-128193800D02*
X206580100Y-128778000D01*
X204241400Y-139039600D02*
X205130400Y-139039600D01*
X194557400Y-132683000D02*
X196672200Y-134797800D01*
X222200000Y-139242800D02*
X228200000Y-133242800D01*
X193912000Y-132683000D02*
X194557400Y-132683000D01*
X205130400Y-139039600D02*
X205333600Y-139242800D01*
X236742800Y-121242800D02*
X236800000Y-121300000D01*
X228200000Y-133242800D02*
X228200000Y-131300000D01*
X236742800Y-120206000D02*
X236742800Y-121242800D01*
D113*
X236800000Y-120263200D02*
X236742800Y-120206000D01*
X253595400Y-129540000D02*
X253595400Y-128295400D01*
D106*
X205333600Y-139242800D02*
X222200000Y-139242800D01*
D113*
X253595400Y-128295400D02*
X253200000Y-127900000D01*
D105*
X254050800Y-91567000D02*
X253492000Y-92125800D01*
X253492000Y-94544300D02*
X253517400Y-94569700D01*
X254549500Y-91567000D02*
X254050800Y-91567000D01*
X253492000Y-92125800D02*
X253492000Y-94544300D01*
D106*
X257248900Y-96644700D02*
X257708400Y-97104200D01*
X257708400Y-97739200D02*
X258087500Y-98118300D01*
X256580600Y-96644700D02*
X257248900Y-96644700D01*
X258087500Y-98118300D02*
X258087500Y-99060000D01*
X257708400Y-97104200D02*
X257708400Y-97739200D01*
D105*
X211150200Y-91364800D02*
X209743000Y-91364800D01*
X207928200Y-91709200D02*
X207928200Y-91385400D01*
X207928200Y-91385400D02*
X208432400Y-90881200D01*
X209259400Y-90881200D02*
X209727800Y-91349600D01*
X208432400Y-90881200D02*
X209259400Y-90881200D01*
X209743000Y-91364800D02*
X209727800Y-91349600D01*
D106*
X254467400Y-95519200D02*
X254467400Y-94569700D01*
X255524000Y-94869000D02*
X255524000Y-97663000D01*
X255524000Y-97663000D02*
X256262500Y-98401500D01*
X249859800Y-95732600D02*
X254254000Y-95732600D01*
X239293400Y-91719400D02*
X240004600Y-91008200D01*
X254467400Y-94569700D02*
X255224700Y-94569700D01*
X255224700Y-94569700D02*
X255524000Y-94869000D01*
X256262500Y-98401500D02*
X256262500Y-99060000D01*
X240004600Y-91008200D02*
X245135400Y-91008200D01*
X254254000Y-95732600D02*
X254467400Y-95519200D01*
X245135400Y-91008200D02*
X249859800Y-95732600D01*
X239293400Y-92762700D02*
X239293400Y-91719400D01*
X143400000Y-125725000D02*
X145623200Y-125725000D01*
X155986600Y-105354000D02*
X156565600Y-104775000D01*
X159816800Y-108178600D02*
X160096200Y-108458000D01*
X154204000Y-105354000D02*
X155986600Y-105354000D01*
X160756600Y-105308400D02*
X160756600Y-105689400D01*
X159816800Y-106629200D02*
X159816800Y-108178600D01*
X160756600Y-105689400D02*
X159816800Y-106629200D01*
X145623200Y-125725000D02*
X145745200Y-125603000D01*
X156159200Y-102819200D02*
X154736800Y-102819200D01*
X156387800Y-103047800D02*
X156159200Y-102819200D01*
X149200000Y-121275000D02*
X141899800Y-121275000D01*
X156387800Y-104216200D02*
X156387800Y-103047800D01*
X139877800Y-111277400D02*
X140690600Y-112090200D01*
X153339800Y-102819200D02*
X150977600Y-102819200D01*
X141899800Y-121275000D02*
X141681200Y-121056400D01*
X140690600Y-112090200D02*
X140690600Y-113106200D01*
X155900000Y-104704000D02*
X156387800Y-104216200D01*
X154204000Y-104704000D02*
X155900000Y-104704000D01*
X147040600Y-114503200D02*
X147701000Y-113842800D01*
X147040600Y-114528600D02*
X147040600Y-114503200D01*
X146114000Y-118147600D02*
X147040600Y-117221000D01*
X147040600Y-117221000D02*
X147040600Y-114528600D01*
X142748000Y-118147600D02*
X146114000Y-118147600D01*
X151302000Y-113157000D02*
X151383400Y-113238400D01*
X150317200Y-113157000D02*
X151302000Y-113157000D01*
X146393400Y-112840000D02*
X146888200Y-113334800D01*
X142697200Y-112840000D02*
X146393400Y-112840000D01*
X148209000Y-113334800D02*
X148762600Y-113888400D01*
X148762600Y-113888400D02*
X151383400Y-113888400D01*
X146888200Y-113334800D02*
X148209000Y-113334800D01*
X239410496Y-128802400D02*
X239301696Y-128911200D01*
X253345400Y-130340000D02*
X251807800Y-128802400D01*
X251807800Y-128802400D02*
X239410496Y-128802400D01*
X237000000Y-126300000D02*
X236800000Y-126100000D01*
X253595400Y-130340000D02*
X253345400Y-130340000D01*
X239301696Y-128911200D02*
X237611200Y-128911200D01*
X237611200Y-128911200D02*
X237600000Y-128900000D01*
X236800000Y-126100000D02*
X236800000Y-124175000D01*
X174545215Y-97567000D02*
X171238800Y-97567000D01*
X176686215Y-99708000D02*
X174545215Y-97567000D01*
X176949400Y-99708000D02*
X176686215Y-99708000D01*
X177499200Y-100257800D02*
X176949400Y-99708000D01*
X177499200Y-101593300D02*
X177499200Y-100257800D01*
X176499200Y-101593300D02*
X176499200Y-101112000D01*
X176499200Y-101112000D02*
X173654200Y-98267000D01*
X173654200Y-98267000D02*
X171238800Y-98267000D01*
X177999200Y-99716400D02*
X177952400Y-99669600D01*
X177999200Y-101593300D02*
X177999200Y-99716400D01*
X164851600Y-106039400D02*
X164465000Y-106426000D01*
X165666800Y-106039400D02*
X164851600Y-106039400D01*
X164465000Y-106426000D02*
X164465000Y-106781600D01*
X176999200Y-101593300D02*
X176999200Y-100646800D01*
X176999200Y-100646800D02*
X176504600Y-100152200D01*
X164185600Y-105841800D02*
X164688000Y-105339400D01*
X164688000Y-105339400D02*
X165666800Y-105339400D01*
X165776600Y-136204000D02*
X166192200Y-135788400D01*
X166192200Y-135788400D02*
X168630600Y-135788400D01*
X191592200Y-136474200D02*
X191592200Y-134543800D01*
X187807600Y-138557000D02*
X189153800Y-137210800D01*
X165776600Y-136921500D02*
X165776600Y-136204000D01*
X191953000Y-134183000D02*
X193112000Y-134183000D01*
X191592200Y-134543800D02*
X191953000Y-134183000D01*
X185369200Y-138557000D02*
X187807600Y-138557000D01*
X189153800Y-137210800D02*
X189153800Y-136474200D01*
X171196000Y-112268000D02*
X175488600Y-112268000D01*
X169591800Y-113872200D02*
X171196000Y-112268000D01*
X175488600Y-112268000D02*
X175996600Y-112776000D01*
X175996600Y-112776000D02*
X175996600Y-112903000D01*
X192553200Y-126183000D02*
X192303400Y-125933200D01*
X168308900Y-113872200D02*
X169591800Y-113872200D01*
X193112000Y-126183000D02*
X192553200Y-126183000D01*
X193912000Y-125683000D02*
X194034400Y-125683000D01*
X176758600Y-111785400D02*
X177190400Y-112217200D01*
X169228200Y-113372200D02*
X170815000Y-111785400D01*
X177190400Y-112217200D02*
X177190400Y-112649000D01*
X194034400Y-125683000D02*
X194513200Y-126161800D01*
X170815000Y-111785400D02*
X176758600Y-111785400D01*
X168308900Y-113372200D02*
X169228200Y-113372200D01*
X202112000Y-127183000D02*
X202255000Y-127183000D01*
X202112000Y-127183000D02*
X202280400Y-127183000D01*
X284600000Y-103500000D02*
X285400000Y-102700000D01*
X285400000Y-102700000D02*
X287800000Y-102700000D01*
X284600000Y-110100000D02*
X284600000Y-103500000D01*
X202255000Y-127183000D02*
X203657200Y-125780800D01*
X142798800Y-107492800D02*
X143226600Y-107065000D01*
X159131000Y-102158800D02*
X159080200Y-102209600D01*
X145491200Y-111302800D02*
X142798800Y-108610400D01*
X155244800Y-107619800D02*
X154432000Y-107619800D01*
X161120200Y-101324600D02*
X159965200Y-101324600D01*
X159965200Y-101324600D02*
X159131000Y-102158800D01*
X143226600Y-107065000D02*
X143226600Y-106331100D01*
X159080200Y-102209600D02*
X159080200Y-103784400D01*
X159080200Y-103784400D02*
X155244800Y-107619800D01*
X151612600Y-111302800D02*
X145491200Y-111302800D01*
X142798800Y-108610400D02*
X142798800Y-107492800D01*
X159677800Y-100824600D02*
X161120200Y-100824600D01*
X155016200Y-107111800D02*
X158623000Y-103505000D01*
X144226600Y-108158600D02*
X146735800Y-110667800D01*
X158623000Y-101879400D02*
X159677800Y-100824600D01*
X158623000Y-103505000D02*
X158623000Y-101879400D01*
X153517600Y-107721400D02*
X154127200Y-107111800D01*
X146735800Y-110667800D02*
X151155400Y-110667800D01*
X154127200Y-107111800D02*
X155016200Y-107111800D01*
X144226600Y-106331100D02*
X144226600Y-108158600D01*
X142138400Y-107594400D02*
X142138400Y-108991400D01*
X160883600Y-103759000D02*
X157429200Y-107213400D01*
X142138400Y-108991400D02*
X145237200Y-112090200D01*
X142726600Y-106331100D02*
X142726600Y-107006200D01*
X164588000Y-101299200D02*
X164363400Y-101523800D01*
X142726600Y-107006200D02*
X142138400Y-107594400D01*
X162636200Y-103759000D02*
X160883600Y-103759000D01*
X145237200Y-112090200D02*
X145897600Y-112090200D01*
X165717600Y-101299200D02*
X164588000Y-101299200D01*
X164973000Y-100761800D02*
X165680200Y-100761800D01*
X165680200Y-100761800D02*
X165717600Y-100799200D01*
X143726600Y-106331100D02*
X143726600Y-108598400D01*
X156514800Y-107188000D02*
X160655000Y-103047800D01*
X160655000Y-103047800D02*
X162585400Y-103047800D01*
X143726600Y-108598400D02*
X145745200Y-110617000D01*
X150327000Y-104054000D02*
X150164800Y-104216200D01*
X153377200Y-108266800D02*
X156370400Y-108266800D01*
X150139400Y-99898200D02*
X150139400Y-104190800D01*
X150139400Y-104190800D02*
X150164800Y-104216200D01*
X151677000Y-99256800D02*
X150780800Y-99256800D01*
X152247600Y-107137200D02*
X153377200Y-108266800D01*
X151104000Y-104054000D02*
X150327000Y-104054000D01*
X150780800Y-99256800D02*
X150139400Y-99898200D01*
X151104000Y-105354000D02*
X150195400Y-105354000D01*
X152704800Y-108940600D02*
X150195400Y-106431200D01*
X156370400Y-109266800D02*
X155469400Y-109266800D01*
X149757200Y-102330800D02*
X149757200Y-99518400D01*
X149656800Y-102431200D02*
X149757200Y-102330800D01*
X155469400Y-109266800D02*
X155143200Y-108940600D01*
X150195400Y-106431200D02*
X150195400Y-105354000D01*
X150195400Y-105354000D02*
X149656800Y-104815400D01*
X155143200Y-108940600D02*
X152704800Y-108940600D01*
X149757200Y-99518400D02*
X150818800Y-98456800D01*
X151104000Y-104704000D02*
X151104000Y-105354000D01*
X149656800Y-104815400D02*
X149656800Y-102431200D01*
X150818800Y-98456800D02*
X151677000Y-98456800D01*
X152993000Y-108593800D02*
X151104000Y-106704800D01*
X156370400Y-108766800D02*
X155604400Y-108766800D01*
X151104000Y-106704800D02*
X151104000Y-106004000D01*
X155431400Y-108593800D02*
X152993000Y-108593800D01*
X155604400Y-108766800D02*
X155431400Y-108593800D01*
X153885000Y-116167800D02*
X154483400Y-115569400D01*
X156446600Y-115247800D02*
X155737200Y-114538400D01*
X155737200Y-114538400D02*
X154683400Y-114538400D01*
X153885000Y-118726000D02*
X153885000Y-116167800D01*
X154483400Y-115569400D02*
X154483400Y-114538400D01*
X156446600Y-115759800D02*
X156446600Y-115247800D01*
X155092400Y-113639600D02*
X154731600Y-113639600D01*
X154731600Y-113639600D02*
X154683400Y-113591400D01*
X154768600Y-119526000D02*
X154990800Y-119303800D01*
X154683400Y-113238400D02*
X154683400Y-113591400D01*
X156036200Y-116759800D02*
X156446600Y-116759800D01*
X154990800Y-117805200D02*
X156036200Y-116759800D01*
X156446600Y-116759800D02*
X155418600Y-116759800D01*
X155418600Y-116759800D02*
X154940000Y-116281200D01*
X154990800Y-119303800D02*
X154990800Y-117805200D01*
X153885000Y-119526000D02*
X154768600Y-119526000D01*
X154683400Y-113591400D02*
X154683400Y-113888400D01*
X156446600Y-116259800D02*
X155706000Y-116259800D01*
X155706000Y-116259800D02*
X155702000Y-116255800D01*
X155270200Y-112623600D02*
X154718600Y-112623600D01*
X154718600Y-112623600D02*
X154683400Y-112588400D01*
X166121400Y-120122000D02*
X170230800Y-124231400D01*
X166121400Y-117559700D02*
X166121400Y-120122000D01*
X170230800Y-124231400D02*
X170986700Y-124231400D01*
X165621400Y-120128600D02*
X165621400Y-117559700D01*
X161518600Y-124231400D02*
X165621400Y-120128600D01*
X159111700Y-124231400D02*
X161518600Y-124231400D01*
M02*
