G04 #@! TF.GenerationSoftware,KiCad,Pcbnew,7.0.10*
G04 #@! TF.CreationDate,2024-07-22T15:51:58-07:00*
G04 #@! TF.ProjectId,LCP_Controller,4c43505f-436f-46e7-9472-6f6c6c65722e,rev?*
G04 #@! TF.SameCoordinates,Original*
G04 #@! TF.FileFunction,Copper,L4,Bot*
G04 #@! TF.FilePolarity,Positive*
%FSLAX46Y46*%
G04 Gerber Fmt 4.6, Leading zero omitted, Abs format (unit mm)*
G04 Created by KiCad (PCBNEW 7.0.10) date 2024-07-22 15:51:58*
%MOMM*%
%LPD*%
G01*
G04 APERTURE LIST*
G04 Aperture macros list*
%AMRoundRect*
0 Rectangle with rounded corners*
0 $1 Rounding radius*
0 $2 $3 $4 $5 $6 $7 $8 $9 X,Y pos of 4 corners*
0 Add a 4 corners polygon primitive as box body*
4,1,4,$2,$3,$4,$5,$6,$7,$8,$9,$2,$3,0*
0 Add four circle primitives for the rounded corners*
1,1,$1+$1,$2,$3*
1,1,$1+$1,$4,$5*
1,1,$1+$1,$6,$7*
1,1,$1+$1,$8,$9*
0 Add four rect primitives between the rounded corners*
20,1,$1+$1,$2,$3,$4,$5,0*
20,1,$1+$1,$4,$5,$6,$7,0*
20,1,$1+$1,$6,$7,$8,$9,0*
20,1,$1+$1,$8,$9,$2,$3,0*%
G04 Aperture macros list end*
G04 #@! TA.AperFunction,ComponentPad*
%ADD10C,0.500000*%
G04 #@! TD*
G04 #@! TA.AperFunction,SMDPad,CuDef*
%ADD11R,2.700000X2.700000*%
G04 #@! TD*
G04 #@! TA.AperFunction,ComponentPad*
%ADD12RoundRect,0.250001X-0.499999X0.499999X-0.499999X-0.499999X0.499999X-0.499999X0.499999X0.499999X0*%
G04 #@! TD*
G04 #@! TA.AperFunction,ComponentPad*
%ADD13C,1.500000*%
G04 #@! TD*
G04 #@! TA.AperFunction,ComponentPad*
%ADD14R,1.700000X1.700000*%
G04 #@! TD*
G04 #@! TA.AperFunction,ComponentPad*
%ADD15O,1.700000X1.700000*%
G04 #@! TD*
G04 #@! TA.AperFunction,ComponentPad*
%ADD16RoundRect,0.250001X0.499999X0.499999X-0.499999X0.499999X-0.499999X-0.499999X0.499999X-0.499999X0*%
G04 #@! TD*
G04 #@! TA.AperFunction,ComponentPad*
%ADD17C,5.000000*%
G04 #@! TD*
G04 #@! TA.AperFunction,ComponentPad*
%ADD18C,2.000000*%
G04 #@! TD*
G04 #@! TA.AperFunction,ComponentPad*
%ADD19R,1.600000X1.600000*%
G04 #@! TD*
G04 #@! TA.AperFunction,ComponentPad*
%ADD20C,1.600000*%
G04 #@! TD*
G04 #@! TA.AperFunction,ComponentPad*
%ADD21RoundRect,0.250001X-0.499999X-0.499999X0.499999X-0.499999X0.499999X0.499999X-0.499999X0.499999X0*%
G04 #@! TD*
G04 #@! TA.AperFunction,WasherPad*
%ADD22C,5.250000*%
G04 #@! TD*
G04 #@! TA.AperFunction,ComponentPad*
%ADD23C,2.050000*%
G04 #@! TD*
G04 #@! TA.AperFunction,ComponentPad*
%ADD24C,2.250000*%
G04 #@! TD*
G04 #@! TA.AperFunction,ViaPad*
%ADD25C,0.800000*%
G04 #@! TD*
G04 #@! TA.AperFunction,ViaPad*
%ADD26C,0.406400*%
G04 #@! TD*
G04 #@! TA.AperFunction,ViaPad*
%ADD27C,0.500000*%
G04 #@! TD*
G04 #@! TA.AperFunction,ViaPad*
%ADD28C,0.600000*%
G04 #@! TD*
G04 #@! TA.AperFunction,Conductor*
%ADD29C,0.200000*%
G04 #@! TD*
G04 #@! TA.AperFunction,Conductor*
%ADD30C,0.500000*%
G04 #@! TD*
G04 #@! TA.AperFunction,Conductor*
%ADD31C,0.300000*%
G04 #@! TD*
G04 #@! TA.AperFunction,Conductor*
%ADD32C,0.250000*%
G04 #@! TD*
G04 #@! TA.AperFunction,Conductor*
%ADD33C,0.152400*%
G04 #@! TD*
G04 APERTURE END LIST*
D10*
X178849200Y-104655800D03*
X178849200Y-103555800D03*
X178849200Y-102455800D03*
X177749200Y-104655800D03*
X177749200Y-103555800D03*
D11*
X177749200Y-103555800D03*
D10*
X177749200Y-102455800D03*
X176649200Y-104655800D03*
X176649200Y-103555800D03*
X176649200Y-102455800D03*
D12*
X134000000Y-125900000D03*
D13*
X134000000Y-128900000D03*
X131000000Y-125900000D03*
X131000000Y-128900000D03*
D14*
X131902200Y-117398800D03*
D15*
X129362200Y-117398800D03*
X131902200Y-114858800D03*
X129362200Y-114858800D03*
X131902200Y-112318800D03*
X129362200Y-112318800D03*
X131902200Y-109778800D03*
X129362200Y-109778800D03*
D14*
X149819200Y-93654800D03*
D15*
X149819200Y-91114800D03*
X152359200Y-93654800D03*
X152359200Y-91114800D03*
X154899200Y-93654800D03*
X154899200Y-91114800D03*
X157439200Y-93654800D03*
X157439200Y-91114800D03*
D16*
X194400000Y-96100000D03*
D13*
X194400000Y-93100000D03*
D17*
X130302000Y-136398000D03*
X220294200Y-124117100D03*
D18*
X187400000Y-91300000D03*
X234518200Y-91008200D03*
X200200000Y-91236800D03*
D17*
X130302000Y-92202000D03*
X244703600Y-124117100D03*
D19*
X254600000Y-120247349D03*
D20*
X254600000Y-123747349D03*
D18*
X250600000Y-102300000D03*
D21*
X173800000Y-131900000D03*
D13*
X176800000Y-131900000D03*
X179800000Y-131900000D03*
X173800000Y-134900000D03*
X176800000Y-134900000D03*
X179800000Y-134900000D03*
D21*
X152500000Y-132300000D03*
D13*
X155500000Y-132300000D03*
X152500000Y-135300000D03*
X155500000Y-135300000D03*
D14*
X255006000Y-134945200D03*
D15*
X255006000Y-137485200D03*
X252466000Y-134945200D03*
X252466000Y-137485200D03*
X249926000Y-134945200D03*
X249926000Y-137485200D03*
X247386000Y-134945200D03*
X247386000Y-137485200D03*
D14*
X269687200Y-135123000D03*
D15*
X269687200Y-137663000D03*
X267147200Y-135123000D03*
X267147200Y-137663000D03*
X264607200Y-135123000D03*
X264607200Y-137663000D03*
X262067200Y-135123000D03*
X262067200Y-137663000D03*
D16*
X180400000Y-96020000D03*
D13*
X177400000Y-96020000D03*
X180400000Y-93020000D03*
X177400000Y-93020000D03*
D14*
X131851400Y-105105200D03*
D15*
X129311400Y-105105200D03*
X131851400Y-102565200D03*
X129311400Y-102565200D03*
X131851400Y-100025200D03*
X129311400Y-100025200D03*
X131851400Y-97485200D03*
X129311400Y-97485200D03*
D19*
X254400000Y-111047349D03*
D20*
X254400000Y-114547349D03*
D21*
X141200000Y-132300000D03*
D13*
X144200000Y-132300000D03*
X141200000Y-135300000D03*
X144200000Y-135300000D03*
D10*
X141876600Y-103268600D03*
X141876600Y-104368600D03*
X141876600Y-105468600D03*
X142976600Y-103268600D03*
X142976600Y-104368600D03*
D11*
X142976600Y-104368600D03*
D10*
X142976600Y-105468600D03*
X144076600Y-103268600D03*
X144076600Y-104368600D03*
X144076600Y-105468600D03*
D17*
X244703600Y-99682300D03*
D22*
X264385000Y-92900000D03*
X264385000Y-117900000D03*
D17*
X220294200Y-99707700D03*
X301447200Y-136372600D03*
D14*
X299800000Y-123700000D03*
D15*
X299800000Y-121160000D03*
X299800000Y-118620000D03*
X299800000Y-116080000D03*
D14*
X215696800Y-137439400D03*
D15*
X213156800Y-137439400D03*
X210616800Y-137439400D03*
X208076800Y-137439400D03*
D14*
X162468400Y-93629400D03*
D15*
X162468400Y-91089400D03*
X165008400Y-93629400D03*
X165008400Y-91089400D03*
X167548400Y-93629400D03*
X167548400Y-91089400D03*
X170088400Y-93629400D03*
X170088400Y-91089400D03*
D16*
X142200000Y-95700000D03*
D13*
X139200000Y-95700000D03*
X142200000Y-92700000D03*
X139200000Y-92700000D03*
D23*
X299260000Y-100440000D03*
D24*
X296720000Y-102980000D03*
X301800000Y-102980000D03*
X296720000Y-97900000D03*
X301800000Y-97900000D03*
D14*
X269540000Y-125300000D03*
D15*
X269540000Y-127840000D03*
X267000000Y-125300000D03*
X267000000Y-127840000D03*
X264460000Y-125300000D03*
X264460000Y-127840000D03*
X261920000Y-125300000D03*
X261920000Y-127840000D03*
D17*
X301498000Y-92202000D03*
D25*
X216281000Y-92456000D03*
D26*
X286600000Y-104500000D03*
X242000000Y-116500000D03*
X233400000Y-113900000D03*
X231400000Y-125100000D03*
X241200000Y-117700000D03*
X243200000Y-130900000D03*
X237550000Y-122737500D03*
X248000000Y-121100000D03*
X228600000Y-113900000D03*
X230200000Y-119100000D03*
D27*
X251536200Y-131826000D03*
D26*
X251200000Y-129300000D03*
X233800000Y-119300000D03*
D27*
X254254000Y-131953000D03*
D25*
X200710800Y-95173800D03*
D27*
X148412200Y-116713000D03*
X202793600Y-123774200D03*
D26*
X190842800Y-99760829D03*
D27*
X188747400Y-123063000D03*
D25*
X200583800Y-96037400D03*
D26*
X278600000Y-94900000D03*
X269747708Y-106100000D03*
D25*
X301558800Y-131538400D03*
X240639600Y-91846400D03*
D27*
X194462400Y-117144800D03*
X173659800Y-119735600D03*
X154940000Y-105994200D03*
D28*
X175031400Y-107950000D03*
D27*
X136601200Y-116103400D03*
X203022200Y-117779800D03*
D26*
X235400000Y-116500000D03*
D27*
X157657800Y-99288600D03*
X207518000Y-113842800D03*
X207695800Y-129590800D03*
D26*
X149000000Y-99700000D03*
D27*
X206933800Y-113766600D03*
D25*
X297761400Y-112863400D03*
D26*
X198800000Y-105700000D03*
D27*
X173609000Y-102158800D03*
D25*
X224967800Y-134645400D03*
D26*
X269800000Y-113300000D03*
X136600000Y-100700000D03*
D27*
X197129400Y-117525800D03*
D25*
X297619400Y-106939600D03*
D27*
X153009600Y-119532400D03*
X183819800Y-104597200D03*
X171602400Y-120319800D03*
X173634400Y-102819200D03*
X203530200Y-114020600D03*
D26*
X291000000Y-102900000D03*
D27*
X192582800Y-129565400D03*
X188671200Y-133172200D03*
X202869800Y-113741200D03*
D26*
X263600000Y-107300000D03*
D25*
X242722400Y-93624400D03*
D26*
X165200000Y-131300000D03*
D25*
X300060200Y-126560000D03*
D26*
X289000000Y-103700000D03*
X289000000Y-104500000D03*
D25*
X154406600Y-98450400D03*
D27*
X176987200Y-114884200D03*
X210007200Y-125882400D03*
D25*
X203200000Y-94234000D03*
D26*
X291000000Y-104500000D03*
X235200000Y-117300000D03*
D27*
X169494200Y-111607600D03*
D26*
X267600000Y-94700000D03*
D25*
X298815600Y-131614600D03*
D27*
X186207400Y-123063000D03*
X188366400Y-132816600D03*
D25*
X299514000Y-112888800D03*
D27*
X203123800Y-135661400D03*
X146989800Y-108483400D03*
D25*
X298650400Y-112939600D03*
D27*
X196519800Y-117144800D03*
X193611500Y-124752100D03*
X167589200Y-137947400D03*
D26*
X291000000Y-101300000D03*
D27*
X189458600Y-123088400D03*
D26*
X139000000Y-129300000D03*
D27*
X149199600Y-112903000D03*
D25*
X244881400Y-95504000D03*
X218719400Y-91516200D03*
D26*
X167200000Y-132500000D03*
D25*
X202107800Y-94208600D03*
X201930000Y-93243400D03*
D27*
X162102800Y-137439400D03*
D25*
X301584200Y-126712400D03*
D26*
X289000000Y-102700000D03*
D25*
X206578200Y-92633800D03*
D27*
X206324200Y-113792000D03*
D26*
X259200000Y-107100000D03*
D27*
X187756800Y-132740400D03*
D28*
X175183800Y-105689400D03*
D25*
X242493800Y-91744800D03*
D27*
X191490600Y-124866400D03*
D26*
X270600000Y-94700000D03*
D27*
X202234800Y-113766600D03*
D26*
X275800000Y-94900000D03*
D25*
X299372000Y-106965000D03*
X298587000Y-126687000D03*
D26*
X289800000Y-136300000D03*
D27*
X208915000Y-129768600D03*
D25*
X163601400Y-133248400D03*
D27*
X171627800Y-119481600D03*
D26*
X237357200Y-125500000D03*
D25*
X245186200Y-94564200D03*
X234645200Y-134620000D03*
X251739400Y-98044000D03*
X218363800Y-90398600D03*
X251561600Y-99009200D03*
X243916200Y-95631000D03*
D26*
X269800000Y-114700000D03*
D27*
X187375800Y-123037600D03*
D26*
X289000000Y-100900000D03*
X146600000Y-103500000D03*
D27*
X193954400Y-117373400D03*
X187147200Y-132765800D03*
D25*
X253542800Y-98044000D03*
D27*
X177038000Y-114300000D03*
D26*
X283800000Y-128300000D03*
D27*
X193878200Y-118084600D03*
D25*
X216306400Y-90373200D03*
X213995000Y-90322400D03*
D26*
X273200000Y-138700000D03*
D25*
X298483000Y-106888800D03*
X300111000Y-131640000D03*
D27*
X168325800Y-134416800D03*
X192532000Y-136245600D03*
D26*
X273200000Y-133682200D03*
D27*
X197180200Y-118262400D03*
X210489800Y-133299200D03*
X212801200Y-133832600D03*
D26*
X278600000Y-130900000D03*
D27*
X218186000Y-128574800D03*
X180517800Y-123926600D03*
X237972600Y-130632200D03*
X150723600Y-124968000D03*
X223291400Y-131622800D03*
D25*
X210439000Y-105130600D03*
D26*
X265200000Y-107100000D03*
D27*
X236448600Y-95707200D03*
X167563800Y-137287000D03*
D25*
X214503000Y-94462600D03*
D27*
X216230200Y-128651000D03*
X181584600Y-124002800D03*
X210439000Y-134112000D03*
X238861600Y-130632200D03*
X249986800Y-130683000D03*
X213029800Y-119634000D03*
D26*
X188800000Y-101900000D03*
D27*
X180136800Y-114935000D03*
X167563800Y-136702800D03*
X217601800Y-127838200D03*
D25*
X160020000Y-137464800D03*
D26*
X274800000Y-126500000D03*
D27*
X231267000Y-132003800D03*
X187223400Y-125044200D03*
D25*
X210413600Y-102235000D03*
X215493600Y-94538800D03*
D27*
X194614800Y-123571000D03*
X161874200Y-134416800D03*
X232156000Y-131902200D03*
D25*
X211226400Y-94030800D03*
D27*
X235915200Y-95732600D03*
X221742000Y-131597400D03*
X201142600Y-119710200D03*
X216814400Y-127863600D03*
D25*
X210413600Y-100914200D03*
X213334600Y-94437200D03*
D26*
X271000000Y-108500000D03*
D27*
X166319200Y-134391400D03*
X249047000Y-130708400D03*
X182143400Y-115239800D03*
D25*
X211480400Y-99949000D03*
D27*
X148590000Y-124612400D03*
X152781000Y-124663200D03*
X247218200Y-130530600D03*
X163449000Y-128244600D03*
D25*
X216408000Y-94335600D03*
X210388200Y-93853000D03*
D27*
X208280000Y-124409200D03*
X188874400Y-125044200D03*
D26*
X274800000Y-125900000D03*
D25*
X210413600Y-103505000D03*
D27*
X222504000Y-131622800D03*
X208229200Y-123850400D03*
X233019600Y-131902200D03*
X161391600Y-127863600D03*
D26*
X261400000Y-109300000D03*
D27*
X250621800Y-94665800D03*
X167563800Y-118643400D03*
X169341800Y-116865400D03*
X164236400Y-108432600D03*
X164490400Y-109550200D03*
X162775900Y-106997500D03*
X158699200Y-119964200D03*
X157886400Y-110236000D03*
X170230800Y-109499400D03*
X159258000Y-110464600D03*
X165125400Y-118618000D03*
X177114200Y-107086400D03*
X173685200Y-108051600D03*
X176657000Y-106527600D03*
X173558200Y-104495600D03*
X209626200Y-129768600D03*
X198831200Y-134162800D03*
X200101200Y-135915400D03*
D26*
X280200000Y-137900000D03*
X279800000Y-134300000D03*
X277842798Y-129469800D03*
D27*
X160324800Y-102184200D03*
D26*
X146800000Y-102100000D03*
D27*
X154762200Y-102158800D03*
X162941000Y-101828600D03*
X153670000Y-102158800D03*
X156337000Y-102133400D03*
X150901400Y-102158800D03*
D26*
X149200000Y-102100000D03*
X146400000Y-99657200D03*
X143400000Y-101500000D03*
D27*
X195783200Y-131394200D03*
X203835000Y-121437400D03*
X197078600Y-130530600D03*
X199491600Y-127279400D03*
X196164200Y-123291600D03*
X228041200Y-90373200D03*
X198882000Y-116332000D03*
X198628000Y-119684800D03*
X224790000Y-90170000D03*
X199999600Y-122047000D03*
X194945000Y-127304800D03*
X221208600Y-90449400D03*
X195478400Y-116408200D03*
X196697600Y-115214400D03*
D26*
X190400000Y-94900000D03*
D27*
X195300600Y-111023400D03*
D26*
X187667518Y-94432481D03*
D27*
X201218800Y-115112800D03*
X202361800Y-121259600D03*
D26*
X188000000Y-105100000D03*
D27*
X200355200Y-120599200D03*
X196900800Y-113995200D03*
X200380600Y-118414800D03*
X194868800Y-128092200D03*
D26*
X192800000Y-107700000D03*
X191400000Y-94300000D03*
X182800000Y-90500000D03*
X184800000Y-90900000D03*
D27*
X192074800Y-121412000D03*
D26*
X158000000Y-130100000D03*
X157800000Y-134100000D03*
D27*
X183642000Y-116763800D03*
X185216800Y-107543600D03*
X180721000Y-102133400D03*
X182702200Y-117703600D03*
X172643800Y-99974400D03*
X181254400Y-103682800D03*
X183007000Y-106832400D03*
X184302400Y-117271800D03*
X183311800Y-118262400D03*
X172720000Y-100990400D03*
D26*
X146800000Y-128100000D03*
D27*
X150596600Y-108737400D03*
X149453600Y-109067600D03*
D26*
X181450000Y-99550000D03*
D27*
X182245000Y-106273600D03*
X185470800Y-118516400D03*
X183692800Y-119761000D03*
X149250400Y-128016000D03*
X180543200Y-103200200D03*
X189661800Y-112750600D03*
X181152800Y-122250200D03*
D26*
X181200000Y-100300000D03*
D27*
X185420000Y-110820200D03*
X159308800Y-109524800D03*
X162102800Y-106908600D03*
X157810200Y-110896400D03*
X155575000Y-104114600D03*
X154254200Y-122504200D03*
X178104800Y-123240800D03*
X140074807Y-105128141D03*
X138633200Y-113055400D03*
X135026400Y-103835200D03*
D26*
X139600000Y-123900000D03*
D27*
X134543800Y-99110800D03*
X135890000Y-123037600D03*
X129438400Y-120929400D03*
X132969000Y-120929400D03*
D26*
X135400000Y-108500000D03*
D27*
X137134600Y-107492800D03*
X139344400Y-107315000D03*
D26*
X127400000Y-107500000D03*
X133800000Y-107900000D03*
D27*
X164642800Y-96824800D03*
X138836400Y-101498400D03*
X139217400Y-102616000D03*
X139526200Y-104618600D03*
X155727400Y-117957600D03*
X152185000Y-117971200D03*
X164287200Y-138963400D03*
X186867800Y-137871200D03*
X198628000Y-130759200D03*
X188620400Y-134391400D03*
X183870600Y-118668800D03*
X175564800Y-128371600D03*
X195707000Y-114985800D03*
X187426600Y-115163600D03*
X201112000Y-123266200D03*
X184861200Y-117729000D03*
X164236400Y-137972800D03*
X193446400Y-116205000D03*
X164388800Y-135915400D03*
X199542400Y-130657600D03*
X170230800Y-138607800D03*
X187096400Y-134874000D03*
X168681400Y-138506200D03*
X195961000Y-135280400D03*
X188010800Y-139115800D03*
X166014400Y-137718800D03*
X200431400Y-132969000D03*
X199009000Y-131902200D03*
X185801000Y-135382000D03*
X218160600Y-131572000D03*
X216179400Y-131648200D03*
X215188800Y-134442200D03*
X217093800Y-134467600D03*
X205155800Y-135178800D03*
X205892400Y-138531600D03*
X205181200Y-134035800D03*
X212064600Y-138709400D03*
D26*
X288800000Y-131900000D03*
D27*
X219887800Y-135051800D03*
X236931200Y-133121400D03*
D26*
X235200000Y-129700000D03*
X234000000Y-122300000D03*
X275600000Y-131900000D03*
D27*
X203606400Y-129387600D03*
X231038400Y-133883400D03*
D26*
X262600000Y-132700000D03*
X289200000Y-132500000D03*
X235800000Y-129700000D03*
D27*
X238734600Y-134416800D03*
X205232000Y-133070600D03*
D26*
X231800000Y-136855200D03*
X275600000Y-132500000D03*
X234967504Y-122562255D03*
D27*
X222123000Y-136880600D03*
D26*
X258377000Y-135477000D03*
X257400000Y-133900000D03*
D27*
X253586863Y-132854000D03*
X213842600Y-128955800D03*
X204952600Y-128905000D03*
X197129400Y-125882400D03*
X210591400Y-127787400D03*
X248666000Y-136042400D03*
X205028800Y-129768600D03*
D26*
X280400000Y-133100000D03*
D27*
X242189000Y-130352800D03*
X200101200Y-128473200D03*
D26*
X294157200Y-104900000D03*
X257600000Y-109700000D03*
X250600000Y-107900000D03*
D27*
X200253600Y-126085600D03*
D26*
X273000000Y-119500000D03*
X262800000Y-122300000D03*
X264200000Y-123300000D03*
X269400000Y-122100000D03*
X212200000Y-115500000D03*
X214600000Y-115100000D03*
X259400000Y-122700000D03*
X262830009Y-122959720D03*
D27*
X204851000Y-126288800D03*
D26*
X293400000Y-102500000D03*
X260000000Y-125100000D03*
D27*
X163728400Y-91973400D03*
X190144400Y-104444800D03*
X169367200Y-115874800D03*
X186969400Y-107543600D03*
X190017400Y-130276600D03*
X171323000Y-109524800D03*
X186461400Y-105816400D03*
X191363600Y-133223000D03*
X166141400Y-92481400D03*
X189382400Y-104394000D03*
X170281600Y-110744000D03*
X169316400Y-114376200D03*
X170230800Y-115392200D03*
X179705000Y-119227600D03*
X190804800Y-131876800D03*
X185318400Y-109143800D03*
X168833800Y-94462600D03*
X170434000Y-113817400D03*
X172110400Y-93192600D03*
X187909200Y-109067600D03*
X189306200Y-110998000D03*
X188849000Y-116967000D03*
X191236600Y-127254000D03*
X189560200Y-106476800D03*
X160807400Y-107213400D03*
X162534600Y-106172000D03*
X167411400Y-101600000D03*
X158724600Y-117297200D03*
X161036000Y-106146600D03*
X160121600Y-116916200D03*
X160299400Y-107645200D03*
X156921200Y-104165400D03*
X156895800Y-101600000D03*
X166522400Y-99745800D03*
X166598600Y-96520000D03*
X159918400Y-117525800D03*
X158165800Y-116814600D03*
X150977600Y-117779800D03*
X160070800Y-116281200D03*
D26*
X164000000Y-98300000D03*
D27*
X159054800Y-107111800D03*
X162884948Y-97836542D03*
X160268600Y-115372200D03*
X159207200Y-108432600D03*
X159893000Y-105740200D03*
X157962600Y-102844600D03*
X149961600Y-117475000D03*
X158140400Y-108000800D03*
X152882600Y-109575600D03*
X137134600Y-106781600D03*
X159588200Y-114503200D03*
X155168600Y-109829600D03*
X157835600Y-109270800D03*
D28*
X167487600Y-105537000D03*
D27*
X172669200Y-96393000D03*
X156210000Y-94462600D03*
X168935400Y-95910400D03*
X176936400Y-99104000D03*
X159385000Y-93649800D03*
X169570400Y-96926400D03*
D28*
X167538400Y-104622600D03*
D27*
X134493000Y-106934000D03*
X155596302Y-110569622D03*
X159283400Y-111785400D03*
X146964400Y-107467400D03*
X159232600Y-112572800D03*
X136398000Y-106273600D03*
X156324073Y-111053124D03*
X146215100Y-105321100D03*
X137642600Y-105689400D03*
X159283400Y-113563400D03*
X145580100Y-105778300D03*
X156006800Y-111633000D03*
D26*
X256800000Y-132100000D03*
X253400000Y-126300000D03*
X243428699Y-119152698D03*
X249107200Y-125899934D03*
X246700066Y-120199934D03*
X242200000Y-120100000D03*
X252800000Y-130791800D03*
X241200000Y-132300000D03*
X240200000Y-124700000D03*
X241000000Y-129700000D03*
X248400000Y-132300000D03*
X242400000Y-127500000D03*
X244200000Y-130900000D03*
X297200000Y-122700000D03*
X268000000Y-108700000D03*
X271600000Y-105500000D03*
D27*
X204368400Y-132029200D03*
X199212200Y-133146800D03*
X206273400Y-131089400D03*
X218262200Y-132816600D03*
X196596000Y-130073400D03*
X198145400Y-130251200D03*
D26*
X263800000Y-104100000D03*
D27*
X195935600Y-126466600D03*
X192074800Y-130886200D03*
X197612000Y-127533400D03*
X153339800Y-127787400D03*
X185191400Y-126339600D03*
X184353200Y-127203200D03*
X197129400Y-126796800D03*
D26*
X186600250Y-98912250D03*
D27*
X208432400Y-121564400D03*
X199110600Y-123291600D03*
D26*
X278600004Y-127700000D03*
D27*
X253746000Y-127482600D03*
D26*
X232400000Y-114900000D03*
X232692800Y-116976366D03*
D27*
X197993000Y-134747000D03*
X199440800Y-135178800D03*
X203733400Y-137947400D03*
D26*
X258000000Y-136900000D03*
D27*
X209473800Y-121742200D03*
X202971400Y-124739400D03*
X191744600Y-129489200D03*
X188036200Y-117881400D03*
X194233800Y-108788200D03*
X190322200Y-108839000D03*
X189992000Y-119380000D03*
X196596000Y-128117600D03*
X201701400Y-117424200D03*
X200456800Y-115544600D03*
X204241400Y-139039600D03*
X196672200Y-134797800D03*
D26*
X253200000Y-127900000D03*
X236742800Y-120206000D03*
X228200000Y-131300000D03*
D27*
X145745200Y-125603000D03*
X160096200Y-108458000D03*
X156565600Y-104775000D03*
X160756600Y-105308400D03*
X141681200Y-121056400D03*
X153339800Y-102819200D03*
X150977600Y-102819200D03*
X154736800Y-102819200D03*
X140690600Y-113106200D03*
X139877800Y-111277400D03*
X147701000Y-113842800D03*
X150317200Y-113157000D03*
D26*
X237000000Y-126300000D03*
X237600000Y-128900000D03*
D27*
X177952400Y-99669600D03*
X164465000Y-106781600D03*
X164185600Y-105841800D03*
X176504600Y-100152200D03*
D26*
X168630600Y-135788400D03*
D27*
X185369200Y-138557000D03*
X189153800Y-136474200D03*
X191592200Y-136474200D03*
X192303400Y-125933200D03*
X175996600Y-112903000D03*
X177190400Y-112649000D03*
X194513200Y-126161800D03*
D26*
X284600000Y-110100000D03*
D27*
X203657200Y-125780800D03*
X154432000Y-107619800D03*
X151612600Y-111302800D03*
X153517600Y-107721400D03*
X151155400Y-110667800D03*
X145897600Y-112090200D03*
X164363400Y-101523800D03*
X162636200Y-103759000D03*
X157429200Y-107213400D03*
X162585400Y-103047800D03*
X164973000Y-100761800D03*
X145745200Y-110617000D03*
X156514800Y-107188000D03*
X152247600Y-107137200D03*
X150164800Y-104216200D03*
X154940000Y-116281200D03*
X155092400Y-113639600D03*
X155270200Y-112623600D03*
X155702000Y-116255800D03*
D29*
X293600000Y-102700000D02*
X293400000Y-102500000D01*
X293600000Y-109900000D02*
X293600000Y-102700000D01*
X280727783Y-122772217D02*
X293600000Y-109900000D01*
X263017512Y-122772217D02*
X280727783Y-122772217D01*
X262830009Y-122959720D02*
X263017512Y-122772217D01*
X294400000Y-110700000D02*
X294400000Y-105142800D01*
X269540000Y-125300000D02*
X279800000Y-125300000D01*
X279800000Y-125300000D02*
X294400000Y-110700000D01*
X294400000Y-105142800D02*
X294157200Y-104900000D01*
X286400000Y-104500000D02*
X286000000Y-104100000D01*
X286600000Y-104500000D02*
X286400000Y-104500000D01*
X259569800Y-129469800D02*
X277842798Y-129469800D01*
X256400000Y-126300000D02*
X259569800Y-129469800D01*
X256400000Y-118700000D02*
X256400000Y-126300000D01*
X255927000Y-118227000D02*
X256400000Y-118700000D01*
X254264552Y-118227000D02*
X255927000Y-118227000D01*
X216611200Y-120497600D02*
X225273352Y-111835448D01*
X229000000Y-108100000D02*
X244137552Y-108100000D01*
X216611200Y-127177800D02*
X216611200Y-120497600D01*
X214020400Y-129768600D02*
X216611200Y-127177800D01*
X244137552Y-108100000D02*
X254264552Y-118227000D01*
X209626200Y-129768600D02*
X214020400Y-129768600D01*
X225273352Y-111835448D02*
X225273352Y-111826648D01*
X225273352Y-111826648D02*
X229000000Y-108100000D01*
D30*
X237400000Y-116500000D02*
X242000000Y-116500000D01*
X236400000Y-115500000D02*
X237400000Y-116500000D01*
X234800000Y-113900000D02*
X236400000Y-115500000D01*
X233400000Y-113900000D02*
X234800000Y-113900000D01*
X233400000Y-118900000D02*
X233800000Y-119300000D01*
D29*
X232400000Y-114900000D02*
X232400000Y-116683566D01*
D30*
X233400000Y-113900000D02*
X233400000Y-118900000D01*
D29*
X232400000Y-116683566D02*
X232692800Y-116976366D01*
D30*
X241200000Y-120775132D02*
X241200000Y-117700000D01*
X237550000Y-122737500D02*
X236481500Y-121669000D01*
X236481500Y-121669000D02*
X233631000Y-121669000D01*
X240907200Y-126992932D02*
X240907200Y-124407068D01*
X239237632Y-122737500D02*
X237550000Y-122737500D01*
X231400000Y-123900000D02*
X231400000Y-125100000D01*
X243200000Y-129285732D02*
X240907200Y-126992932D01*
X233631000Y-121669000D02*
X231400000Y-123900000D01*
X240907200Y-124407068D02*
X239237632Y-122737500D01*
X239237632Y-122737500D02*
X241200000Y-120775132D01*
X243200000Y-130900000D02*
X243200000Y-129285732D01*
X233800000Y-119300000D02*
X230400000Y-119300000D01*
X254254000Y-131953000D02*
X251663200Y-131953000D01*
X227800000Y-114700000D02*
X228600000Y-113900000D01*
X230400000Y-119300000D02*
X230200000Y-119100000D01*
X251663200Y-131953000D02*
X251536200Y-131826000D01*
X227800000Y-116500000D02*
X227800000Y-114700000D01*
X230200000Y-119100000D02*
X227800000Y-116700000D01*
X251200000Y-129300000D02*
X248400000Y-126500000D01*
X248400000Y-126500000D02*
X248400000Y-121500000D01*
X248400000Y-121500000D02*
X248000000Y-121100000D01*
D29*
X254254000Y-131953000D02*
X254222800Y-131984200D01*
D30*
X227800000Y-116700000D02*
X227800000Y-116500000D01*
D31*
X260341289Y-109300000D02*
X253341289Y-102300000D01*
X261400000Y-109300000D02*
X260341289Y-109300000D01*
X250600000Y-99208800D02*
X250600000Y-102300000D01*
X250621800Y-99187000D02*
X250600000Y-99208800D01*
X253341289Y-102300000D02*
X250600000Y-102300000D01*
X250621800Y-99187000D02*
X250621800Y-94665800D01*
D29*
X164211000Y-108432600D02*
X164236400Y-108432600D01*
X163093400Y-119405400D02*
X163093400Y-118973600D01*
X162534600Y-119964200D02*
X163093400Y-119405400D01*
X162775900Y-106997500D02*
X164211000Y-108432600D01*
X157886400Y-110236000D02*
X159029400Y-110236000D01*
X164490400Y-109550200D02*
X164747600Y-109293000D01*
X170024400Y-109293000D02*
X170230800Y-109499400D01*
X167563800Y-118643400D02*
X169341800Y-116865400D01*
X167538400Y-118618000D02*
X167563800Y-118643400D01*
X159029400Y-110236000D02*
X159258000Y-110464600D01*
X158699200Y-119964200D02*
X162534600Y-119964200D01*
X163449000Y-118618000D02*
X165125400Y-118618000D01*
X165125400Y-118618000D02*
X167538400Y-118618000D01*
X163093400Y-118973600D02*
X163449000Y-118618000D01*
X164747600Y-109293000D02*
X170024400Y-109293000D01*
X174371000Y-107365800D02*
X173685200Y-108051600D01*
X174371000Y-107365800D02*
X176834800Y-107365800D01*
X177114200Y-107086400D02*
X176834800Y-107365800D01*
X174091600Y-105638600D02*
X174980600Y-106527600D01*
X173558200Y-104495600D02*
X174091600Y-105029000D01*
X174980600Y-106527600D02*
X176657000Y-106527600D01*
X174091600Y-105029000D02*
X174091600Y-105638600D01*
X198831200Y-134162800D02*
X199974200Y-134162800D01*
X200101200Y-134289800D02*
X200101200Y-135915400D01*
X279800000Y-134300000D02*
X279800000Y-137500000D01*
X199974200Y-134162800D02*
X200101200Y-134289800D01*
X279800000Y-137500000D02*
X280200000Y-137900000D01*
X149936200Y-102184200D02*
X150876000Y-102184200D01*
X149200000Y-102100000D02*
X149852000Y-102100000D01*
X160274000Y-102133400D02*
X160324800Y-102184200D01*
X150876000Y-102184200D02*
X150901400Y-102158800D01*
X156337000Y-102133400D02*
X160274000Y-102133400D01*
X160680400Y-101828600D02*
X160324800Y-102184200D01*
X149852000Y-102100000D02*
X149936200Y-102184200D01*
X153670000Y-102158800D02*
X154762200Y-102158800D01*
X146800000Y-102100000D02*
X149200000Y-102100000D01*
X162941000Y-101828600D02*
X160680400Y-101828600D01*
X143400000Y-101500000D02*
X145242800Y-99657200D01*
X145242800Y-99657200D02*
X146400000Y-99657200D01*
X196189600Y-131394200D02*
X197027800Y-130556000D01*
X195783200Y-131394200D02*
X196189600Y-131394200D01*
X197027800Y-130556000D02*
X197053200Y-130556000D01*
X203835000Y-122377200D02*
X203835000Y-121437400D01*
X199517000Y-125755400D02*
X202031600Y-123240800D01*
X202971400Y-123240800D02*
X203835000Y-122377200D01*
X199491600Y-127279400D02*
X199491600Y-125780800D01*
X199491600Y-125780800D02*
X199517000Y-125755400D01*
X202031600Y-123240800D02*
X202971400Y-123240800D01*
X197053200Y-130556000D02*
X197078600Y-130530600D01*
X216509600Y-110540800D02*
X214020400Y-113030000D01*
X228041200Y-90373200D02*
X226542600Y-91871800D01*
X198882000Y-116281200D02*
X202133200Y-113030000D01*
X196164200Y-123291600D02*
X197154800Y-122301000D01*
X198628000Y-122275600D02*
X198602600Y-122301000D01*
X216509600Y-97713800D02*
X216509600Y-110540800D01*
X197154800Y-122301000D02*
X198602600Y-122301000D01*
X216509600Y-97713800D02*
X222351600Y-91871800D01*
X202133200Y-113030000D02*
X214020400Y-113030000D01*
X198882000Y-116281200D02*
X198882000Y-116332000D01*
X226542600Y-91871800D02*
X222351600Y-91871800D01*
X198628000Y-119684800D02*
X198628000Y-122275600D01*
X213563200Y-112115600D02*
X201879200Y-112115600D01*
X199669400Y-118160800D02*
X199669400Y-121716800D01*
X201879200Y-112115600D02*
X199669400Y-114325400D01*
X197815200Y-116306600D02*
X199669400Y-118160800D01*
X221767400Y-91033600D02*
X215646000Y-97155000D01*
X198831200Y-114325400D02*
X197815200Y-115341400D01*
X224790000Y-90170000D02*
X223926400Y-91033600D01*
X199669400Y-114325400D02*
X198831200Y-114325400D01*
X215646000Y-110032800D02*
X213563200Y-112115600D01*
X199669400Y-121716800D02*
X199999600Y-122047000D01*
X223926400Y-91033600D02*
X221767400Y-91033600D01*
X215646000Y-97155000D02*
X215646000Y-110032800D01*
X197815200Y-115341400D02*
X197815200Y-116306600D01*
X214807800Y-109575600D02*
X214807800Y-96850200D01*
X195199000Y-116687600D02*
X195478400Y-116408200D01*
X213182200Y-111201200D02*
X214807800Y-109575600D01*
X194945000Y-127304800D02*
X195199000Y-127050800D01*
X214807800Y-96850200D02*
X221208600Y-90449400D01*
X200710800Y-111201200D02*
X213182200Y-111201200D01*
X196697600Y-115214400D02*
X200710800Y-111201200D01*
X195199000Y-127050800D02*
X195199000Y-116687600D01*
X195300600Y-109127000D02*
X194430800Y-108257200D01*
X191073000Y-106761000D02*
X191073000Y-104635448D01*
X195300600Y-111023400D02*
X195300600Y-109127000D01*
X178987519Y-94432481D02*
X187667518Y-94432481D01*
X190285600Y-103848048D02*
X190285600Y-95014400D01*
X194430800Y-108257200D02*
X192569200Y-108257200D01*
X190285600Y-95014400D02*
X190400000Y-94900000D01*
X202361800Y-116255800D02*
X202361800Y-121259600D01*
X201218800Y-115112800D02*
X202361800Y-116255800D01*
X192569200Y-108257200D02*
X191073000Y-106761000D01*
X177400000Y-96020000D02*
X178987519Y-94432481D01*
X191073000Y-104635448D02*
X190285600Y-103848048D01*
X200380600Y-120573800D02*
X200355200Y-120599200D01*
X200380600Y-118414800D02*
X200380600Y-120573800D01*
X194695200Y-113995200D02*
X196900800Y-113995200D01*
X188000000Y-105100000D02*
X188000000Y-107300000D01*
X188000000Y-107300000D02*
X194695200Y-113995200D01*
X184400000Y-90500000D02*
X184800000Y-90900000D01*
X191400000Y-94300000D02*
X191400000Y-106300000D01*
X191400000Y-106300000D02*
X192800000Y-107700000D01*
X182800000Y-90500000D02*
X184400000Y-90500000D01*
X194868800Y-128092200D02*
X194233800Y-128092200D01*
X192074800Y-122199400D02*
X192074800Y-121412000D01*
X193040000Y-126898400D02*
X193040000Y-123164600D01*
X192074800Y-122199400D02*
X193040000Y-123164600D01*
X193040000Y-126898400D02*
X194233800Y-128092200D01*
X157800000Y-134100000D02*
X157800000Y-130300000D01*
X157800000Y-130300000D02*
X158000000Y-130100000D01*
X173329600Y-100660200D02*
X172643800Y-99974400D01*
X173329600Y-100660200D02*
X178841400Y-100660200D01*
X178841400Y-99658600D02*
X178841400Y-100660200D01*
X185216800Y-101379248D02*
X182864552Y-99027000D01*
X182702200Y-117703600D02*
X183642000Y-116763800D01*
X182864552Y-99027000D02*
X179473000Y-99027000D01*
X179473000Y-99027000D02*
X178841400Y-99658600D01*
X179908200Y-100660200D02*
X180721000Y-101473000D01*
X179908200Y-100660200D02*
X178841400Y-100660200D01*
X180721000Y-102133400D02*
X180721000Y-101473000D01*
X185216800Y-107543600D02*
X185216800Y-101379248D01*
X182880000Y-106959400D02*
X183007000Y-106832400D01*
X179857400Y-101676200D02*
X179857400Y-103276400D01*
X180263800Y-103682800D02*
X181254400Y-103682800D01*
X181254400Y-106527600D02*
X181686200Y-106959400D01*
X179857400Y-103276400D02*
X180263800Y-103682800D01*
X172720000Y-100990400D02*
X172872400Y-101142800D01*
X172872400Y-101142800D02*
X179324000Y-101142800D01*
X183311800Y-118262400D02*
X184302400Y-117271800D01*
X181254400Y-103682800D02*
X181254400Y-106527600D01*
X181686200Y-106959400D02*
X182880000Y-106959400D01*
X179324000Y-101142800D02*
X179857400Y-101676200D01*
X144200000Y-135300000D02*
X146800000Y-132700000D01*
X146800000Y-132700000D02*
X146800000Y-128100000D01*
X135813800Y-113842800D02*
X135813800Y-117144800D01*
X145719800Y-109753400D02*
X143103600Y-112369600D01*
X182735800Y-99500000D02*
X181500000Y-99500000D01*
X128400000Y-129500000D02*
X129600000Y-130700000D01*
X150596600Y-108737400D02*
X152171400Y-108737400D01*
X158750000Y-107823000D02*
X159283400Y-107823000D01*
X184505600Y-101269800D02*
X182735800Y-99500000D01*
X152171400Y-108737400D02*
X153009600Y-107899200D01*
X129600000Y-130700000D02*
X136600000Y-130700000D01*
X132080000Y-119176800D02*
X129196000Y-122060800D01*
X153009600Y-107518200D02*
X153818800Y-106709000D01*
X149453600Y-109067600D02*
X148767800Y-109753400D01*
X159283400Y-107823000D02*
X160372000Y-106734400D01*
X183261000Y-108966000D02*
X184505600Y-107721400D01*
X143103600Y-112369600D02*
X137287000Y-112369600D01*
X181500000Y-99500000D02*
X181450000Y-99550000D01*
X133781800Y-119176800D02*
X132080000Y-119176800D01*
X153818800Y-106709000D02*
X157636000Y-106709000D01*
X161065000Y-106709000D02*
X163322000Y-108966000D01*
X163322000Y-108966000D02*
X183261000Y-108966000D01*
X184505600Y-107721400D02*
X184505600Y-101269800D01*
X136600000Y-130700000D02*
X141200000Y-135300000D01*
X129196000Y-122104000D02*
X128400000Y-122900000D01*
X148767800Y-109753400D02*
X145719800Y-109753400D01*
X129196000Y-122060800D02*
X129196000Y-122104000D01*
X137287000Y-112369600D02*
X135813800Y-113842800D01*
X157636000Y-106709000D02*
X158750000Y-107823000D01*
X135813800Y-117144800D02*
X133781800Y-119176800D01*
X153009600Y-107899200D02*
X153009600Y-107518200D01*
X160372000Y-106734400D02*
X161039600Y-106734400D01*
X128400000Y-122900000D02*
X128400000Y-129500000D01*
X161039600Y-106734400D02*
X161065000Y-106709000D01*
X181432200Y-102311200D02*
X181432200Y-100532200D01*
X183692800Y-119761000D02*
X184226200Y-119761000D01*
X189661800Y-112750600D02*
X188391800Y-111480600D01*
X182245000Y-103936800D02*
X182245000Y-106273600D01*
X180543200Y-103200200D02*
X181508400Y-103200200D01*
X152298400Y-128016000D02*
X154381200Y-125933200D01*
X181432200Y-100532200D02*
X181200000Y-100300000D01*
X181432200Y-102311200D02*
X180543200Y-103200200D01*
X154381200Y-125933200D02*
X177469800Y-125933200D01*
X177469800Y-125933200D02*
X181152800Y-122250200D01*
X181508400Y-103200200D02*
X182219600Y-103911400D01*
X149250400Y-128016000D02*
X152298400Y-128016000D01*
X182219600Y-103911400D02*
X182245000Y-103936800D01*
X185420000Y-110972600D02*
X185420000Y-110820200D01*
X184226200Y-119761000D02*
X185470800Y-118516400D01*
X185928000Y-111480600D02*
X185420000Y-110972600D01*
X188391800Y-111480600D02*
X185928000Y-111480600D01*
X162055600Y-104016600D02*
X162055600Y-106861400D01*
X159816800Y-111048800D02*
X159715200Y-111150400D01*
X159131000Y-110947200D02*
X157861000Y-110947200D01*
X155575000Y-104114600D02*
X155981400Y-104114600D01*
X159715200Y-111150400D02*
X159334200Y-111150400D01*
X162055600Y-106861400D02*
X162102800Y-106908600D01*
X157861000Y-110947200D02*
X157810200Y-110896400D01*
X159308800Y-109524800D02*
X159816800Y-110032800D01*
X156489400Y-103606600D02*
X161645600Y-103606600D01*
X159334200Y-111150400D02*
X159131000Y-110947200D01*
X161645600Y-103606600D02*
X162055600Y-104016600D01*
X155981400Y-104114600D02*
X156489400Y-103606600D01*
X159816800Y-110032800D02*
X159816800Y-111048800D01*
X178104800Y-123240800D02*
X177368200Y-122504200D01*
X177368200Y-122504200D02*
X154254200Y-122504200D01*
X137160000Y-114528600D02*
X137160000Y-117754400D01*
X139400000Y-123900000D02*
X139600000Y-123900000D01*
X135963741Y-105128141D02*
X140074807Y-105128141D01*
X131000000Y-125900000D02*
X131000000Y-121196600D01*
X138633200Y-113055400D02*
X137160000Y-114528600D01*
X132461000Y-119735600D02*
X132148300Y-120048300D01*
X131000000Y-125900000D02*
X132400000Y-127300000D01*
X135026400Y-103835200D02*
X135026400Y-104190800D01*
X131000000Y-121196600D02*
X132148300Y-120048300D01*
X135178800Y-119735600D02*
X132461000Y-119735600D01*
X139000000Y-124300000D02*
X139400000Y-123900000D01*
X132148300Y-120048300D02*
X131876800Y-120319800D01*
X137160000Y-117754400D02*
X135178800Y-119735600D01*
X135026400Y-104190800D02*
X135963741Y-105128141D01*
X136000000Y-127300000D02*
X139000000Y-124300000D01*
X132400000Y-127300000D02*
X136000000Y-127300000D01*
X129438400Y-120929400D02*
X128016000Y-119507000D01*
X133781800Y-120929400D02*
X132969000Y-120929400D01*
X128447800Y-101346000D02*
X132308600Y-101346000D01*
X128016000Y-101777800D02*
X128447800Y-101346000D01*
X128016000Y-119507000D02*
X128016000Y-101777800D01*
X135890000Y-123037600D02*
X133781800Y-120929400D01*
X132308600Y-101346000D02*
X134543800Y-99110800D01*
X133800000Y-107900000D02*
X134400000Y-108500000D01*
X140818313Y-92700000D02*
X137818313Y-95700000D01*
X134400000Y-108500000D02*
X135400000Y-108500000D01*
X145766000Y-96266000D02*
X142200000Y-92700000D01*
X137818313Y-95700000D02*
X128400000Y-95700000D01*
X137134600Y-107492800D02*
X139166600Y-107492800D01*
X164642800Y-96824800D02*
X164084000Y-96266000D01*
X128400000Y-95700000D02*
X127400000Y-96700000D01*
X139166600Y-107492800D02*
X139344400Y-107315000D01*
X142200000Y-92700000D02*
X140818313Y-92700000D01*
X127400000Y-96700000D02*
X127400000Y-107500000D01*
X164084000Y-96266000D02*
X145766000Y-96266000D01*
X138455400Y-96644600D02*
X139200000Y-95900000D01*
X139526200Y-102924800D02*
X139526200Y-104618600D01*
X139200000Y-95900000D02*
X139200000Y-95700000D01*
X138455400Y-101117400D02*
X138455400Y-96644600D01*
X139217400Y-102616000D02*
X139526200Y-102924800D01*
X138836400Y-101498400D02*
X138455400Y-101117400D01*
X155727400Y-117957600D02*
X152198600Y-117957600D01*
X152198600Y-117957600D02*
X152185000Y-117971200D01*
X194970400Y-132689600D02*
X196697600Y-132689600D01*
X196697600Y-132689600D02*
X198628000Y-130759200D01*
X194970400Y-132689600D02*
X193319400Y-134340600D01*
X186867800Y-137871200D02*
X186867800Y-138379200D01*
X186029600Y-139217400D02*
X164541200Y-139217400D01*
X193319400Y-134340600D02*
X188671200Y-134340600D01*
X164541200Y-139217400D02*
X164287200Y-138963400D01*
X188671200Y-134340600D02*
X188620400Y-134391400D01*
X186867800Y-138379200D02*
X186029600Y-139217400D01*
X195707000Y-115011200D02*
X195707000Y-114985800D01*
X200329800Y-123266200D02*
X199542400Y-124053600D01*
X164846000Y-132969000D02*
X164236400Y-133578600D01*
X184861200Y-117729000D02*
X184810400Y-117729000D01*
X201112000Y-123266200D02*
X200329800Y-123266200D01*
X198882000Y-124053600D02*
X198450200Y-123621800D01*
X164236400Y-133578600D02*
X164236400Y-135356600D01*
X175564800Y-128371600D02*
X168452800Y-128371600D01*
X189534800Y-115163600D02*
X187426600Y-115163600D01*
X198450200Y-123621800D02*
X198450200Y-123215400D01*
X198450200Y-123215400D02*
X199161400Y-122504200D01*
X164236400Y-135356600D02*
X163728400Y-135864600D01*
X163728400Y-137464800D02*
X164236400Y-137972800D01*
X195707000Y-115011200D02*
X199161400Y-118465600D01*
X167919400Y-128905000D02*
X167919400Y-130505200D01*
X167919400Y-128905000D02*
X168452800Y-128371600D01*
X163728400Y-135864600D02*
X163728400Y-137464800D01*
X165455600Y-132969000D02*
X164846000Y-132969000D01*
X193446400Y-116205000D02*
X190576200Y-116205000D01*
X167919400Y-130505200D02*
X165455600Y-132969000D01*
X184810400Y-117729000D02*
X183870600Y-118668800D01*
X199161400Y-122504200D02*
X199161400Y-118465600D01*
X189534800Y-115163600D02*
X190576200Y-116205000D01*
X199542400Y-124053600D02*
X198882000Y-124053600D01*
X193519000Y-134903000D02*
X187125400Y-134903000D01*
X193522600Y-134899400D02*
X193519000Y-134903000D01*
X195326000Y-133096000D02*
X197104000Y-133096000D01*
X199542400Y-130657600D02*
X197104000Y-133096000D01*
X167538400Y-135915400D02*
X164388800Y-135915400D01*
X170230800Y-138607800D02*
X167538400Y-135915400D01*
X195326000Y-133096000D02*
X193522600Y-134899400D01*
X187125400Y-134903000D02*
X187096400Y-134874000D01*
X193598800Y-136423400D02*
X194818000Y-136423400D01*
X166014400Y-137718800D02*
X166801800Y-138506200D01*
X194818000Y-136423400D02*
X195961000Y-135280400D01*
X192709800Y-137312400D02*
X193598800Y-136423400D01*
X189814200Y-137312400D02*
X192709800Y-137312400D01*
X188010800Y-139115800D02*
X189814200Y-137312400D01*
X166801800Y-138506200D02*
X168681400Y-138506200D01*
X198459048Y-133625800D02*
X199774600Y-133625800D01*
X194211600Y-136064600D02*
X195961000Y-134315200D01*
X195961000Y-134315200D02*
X197769648Y-134315200D01*
X173800000Y-136300000D02*
X173800000Y-134900000D01*
X183885400Y-137900000D02*
X175400000Y-137900000D01*
X184832200Y-136953200D02*
X183885400Y-137900000D01*
X197769648Y-134315200D02*
X198459048Y-133625800D01*
X199774600Y-133625800D02*
X200431400Y-132969000D01*
X193398800Y-136064600D02*
X194211600Y-136064600D01*
X192510200Y-136953200D02*
X193398800Y-136064600D01*
X175400000Y-137900000D02*
X173800000Y-136300000D01*
X184832200Y-136953200D02*
X192510200Y-136953200D01*
X195707000Y-133578600D02*
X195630800Y-133578600D01*
X195707000Y-133578600D02*
X197535800Y-133578600D01*
X197535800Y-133578600D02*
X198932800Y-132181600D01*
X195630800Y-133578600D02*
X193852800Y-135356600D01*
X199009000Y-132105400D02*
X199009000Y-131902200D01*
X193827400Y-135382000D02*
X185801000Y-135382000D01*
X198932800Y-132181600D02*
X199009000Y-132105400D01*
X193852800Y-135356600D02*
X193827400Y-135382000D01*
X218160600Y-131572000D02*
X216255600Y-131572000D01*
X216255600Y-131572000D02*
X216179400Y-131648200D01*
X205155800Y-135178800D02*
X205155800Y-137718800D01*
X217093800Y-134467600D02*
X215214200Y-134467600D01*
X205155800Y-137795000D02*
X205892400Y-138531600D01*
X205155800Y-137718800D02*
X205155800Y-137795000D01*
X215214200Y-134467600D02*
X215188800Y-134442200D01*
X206146400Y-135001000D02*
X206146400Y-137566400D01*
X205181200Y-134035800D02*
X206146400Y-135001000D01*
X207289400Y-138709400D02*
X212064600Y-138709400D01*
X206146400Y-137566400D02*
X207289400Y-138709400D01*
X252261000Y-131349000D02*
X254324580Y-131349000D01*
X252242800Y-131330800D02*
X252261000Y-131349000D01*
X244557200Y-131330800D02*
X252242800Y-131330800D01*
X236169200Y-133883400D02*
X236931200Y-133121400D01*
X261357200Y-131457200D02*
X262600000Y-132700000D01*
X235200000Y-129700000D02*
X235200000Y-123500000D01*
X254324580Y-131349000D02*
X254432780Y-131457200D01*
X207543400Y-134747000D02*
X207848200Y-135051800D01*
X240969200Y-131742800D02*
X244145200Y-131742800D01*
X244145200Y-131742800D02*
X244557200Y-131330800D01*
X219887800Y-135051800D02*
X221056200Y-133883400D01*
X235200000Y-123500000D02*
X234000000Y-122300000D01*
X254432780Y-131457200D02*
X261357200Y-131457200D01*
X221056200Y-133883400D02*
X231038400Y-133883400D01*
X207848200Y-135051800D02*
X219887800Y-135051800D01*
X240739000Y-131973000D02*
X240969200Y-131742800D01*
X238079600Y-131973000D02*
X240739000Y-131973000D01*
X275600000Y-131900000D02*
X288800000Y-131900000D01*
X231038400Y-133883400D02*
X236169200Y-133883400D01*
X236931200Y-133121400D02*
X238079600Y-131973000D01*
X203606400Y-129387600D02*
X207543400Y-133324600D01*
X207543400Y-133324600D02*
X207543400Y-134747000D01*
X275600000Y-132500000D02*
X289200000Y-132500000D01*
X253583663Y-132857200D02*
X253586863Y-132854000D01*
X238734600Y-134823200D02*
X238734600Y-134416800D01*
X207264000Y-135890000D02*
X219887800Y-135890000D01*
X234086400Y-136855200D02*
X235559600Y-135382000D01*
X257400000Y-133900000D02*
X257400000Y-134500000D01*
X219887800Y-135890000D02*
X220878400Y-136880600D01*
X235200000Y-122794751D02*
X234967504Y-122562255D01*
D32*
X231774600Y-136880600D02*
X231800000Y-136855200D01*
D29*
X257400000Y-134500000D02*
X258377000Y-135477000D01*
X222123000Y-136880600D02*
X224332800Y-136880600D01*
X206781400Y-134620000D02*
X206781400Y-135407400D01*
X205232000Y-133070600D02*
X206781400Y-134620000D01*
X230682800Y-136855200D02*
X231800000Y-136855200D01*
X240294200Y-132857200D02*
X253583663Y-132857200D01*
X235200000Y-123037552D02*
X235200000Y-122794751D01*
X235800000Y-129700000D02*
X235800000Y-123637552D01*
X231800000Y-136855200D02*
X234086400Y-136855200D01*
X206781400Y-135407400D02*
X207264000Y-135890000D01*
X220878400Y-136880600D02*
X222123000Y-136880600D01*
X235559600Y-135382000D02*
X238175800Y-135382000D01*
X238734600Y-134416800D02*
X240294200Y-132857200D01*
X238175800Y-135382000D02*
X238734600Y-134823200D01*
D32*
X224332800Y-136880600D02*
X231774600Y-136880600D01*
D29*
X235800000Y-123637552D02*
X235200000Y-123037552D01*
X213842600Y-128955800D02*
X205003400Y-128955800D01*
X205003400Y-128955800D02*
X204952600Y-128905000D01*
X197129400Y-125882400D02*
X198628000Y-125882400D01*
X198628000Y-125882400D02*
X198856600Y-126111000D01*
X198856600Y-127609600D02*
X199034400Y-127787400D01*
X199034400Y-127787400D02*
X210591400Y-127787400D01*
X198856600Y-126111000D02*
X198856600Y-127609600D01*
X241421780Y-130352800D02*
X242189000Y-130352800D01*
X205028800Y-129768600D02*
X206248000Y-129768600D01*
D32*
X280400000Y-133100000D02*
X264090200Y-133100000D01*
X264090200Y-133100000D02*
X262067200Y-135123000D01*
D29*
X206248000Y-129768600D02*
X208606600Y-132127200D01*
X224256600Y-133172200D02*
X235635800Y-133172200D01*
X240151780Y-131622800D02*
X241421780Y-130352800D01*
X237185200Y-131622800D02*
X240151780Y-131622800D01*
X248666000Y-136042400D02*
X248920000Y-136296400D01*
X235635800Y-133172200D02*
X237185200Y-131622800D01*
X258902200Y-136296400D02*
X260075600Y-135123000D01*
X260075600Y-135123000D02*
X262067200Y-135123000D01*
X223211600Y-132127200D02*
X224256600Y-133172200D01*
X248920000Y-136296400D02*
X258902200Y-136296400D01*
X208606600Y-132127200D02*
X223211600Y-132127200D01*
X256200000Y-117900000D02*
X254400000Y-117900000D01*
X269540000Y-125300000D02*
X268140000Y-126700000D01*
X268140000Y-126700000D02*
X259800000Y-126700000D01*
X254400000Y-117900000D02*
X244127000Y-107627000D01*
X213588600Y-128320800D02*
X204520800Y-128320800D01*
X200406000Y-128778000D02*
X200101200Y-128473200D01*
X256800000Y-123700000D02*
X256800000Y-118500000D01*
X259800000Y-126700000D02*
X256800000Y-123700000D01*
X215417400Y-119557800D02*
X215417400Y-126492000D01*
X204520800Y-128320800D02*
X204063600Y-128778000D01*
X227348200Y-107627000D02*
X215417400Y-119557800D01*
X256800000Y-118500000D02*
X256200000Y-117900000D01*
X204063600Y-128778000D02*
X200406000Y-128778000D01*
X244127000Y-107627000D02*
X227348200Y-107627000D01*
X215417400Y-126492000D02*
X213588600Y-128320800D01*
X270400000Y-122100000D02*
X269400000Y-122100000D01*
X265000000Y-123300000D02*
X264200000Y-123300000D01*
X262800000Y-122300000D02*
X257600000Y-117100000D01*
X267000000Y-125300000D02*
X265000000Y-123300000D01*
X213741000Y-127127000D02*
X209194400Y-127127000D01*
X250600000Y-107900000D02*
X248600000Y-107900000D01*
X208838800Y-126771400D02*
X200939400Y-126771400D01*
X214260101Y-119013299D02*
X214260101Y-126607899D01*
X200939400Y-126771400D02*
X200253600Y-126085600D01*
X248600000Y-107900000D02*
X247800000Y-107100000D01*
X257600000Y-117100000D02*
X257600000Y-109700000D01*
X247800000Y-107100000D02*
X226173400Y-107100000D01*
X209194400Y-127127000D02*
X208838800Y-126771400D01*
X214260101Y-126607899D02*
X213741000Y-127127000D01*
X273000000Y-119500000D02*
X270400000Y-122100000D01*
X226173400Y-107100000D02*
X214260101Y-119013299D01*
X212200000Y-115500000D02*
X214200000Y-115500000D01*
X214200000Y-115500000D02*
X214600000Y-115100000D01*
X261860000Y-122700000D02*
X264460000Y-125300000D01*
X259400000Y-122700000D02*
X261860000Y-122700000D01*
X211404200Y-120345200D02*
X225049400Y-106700000D01*
X225049400Y-106700000D02*
X252600000Y-106700000D01*
X204851000Y-126288800D02*
X208889600Y-126288800D01*
X257200000Y-122300000D02*
X260000000Y-125100000D01*
X211404200Y-123774200D02*
X211404200Y-120345200D01*
X208889600Y-126288800D02*
X211404200Y-123774200D01*
X257200000Y-111300000D02*
X257200000Y-122300000D01*
X252600000Y-106700000D02*
X257200000Y-111300000D01*
X185928000Y-110134400D02*
X170078400Y-110134400D01*
X163728400Y-90601800D02*
X164896800Y-89433400D01*
X175615600Y-115874800D02*
X190017400Y-130276600D01*
X189800000Y-104100400D02*
X190144400Y-104444800D01*
X166928800Y-115392200D02*
X167411400Y-115874800D01*
X186969400Y-107543600D02*
X186969400Y-109093000D01*
X169367200Y-115874800D02*
X175615600Y-115874800D01*
X189800000Y-91100000D02*
X189800000Y-104100400D01*
X163728400Y-91973400D02*
X163728400Y-90601800D01*
X188133400Y-89433400D02*
X189800000Y-91100000D01*
X186969400Y-109093000D02*
X185928000Y-110134400D01*
X166928800Y-113284000D02*
X166928800Y-115392200D01*
X164896800Y-89433400D02*
X188133400Y-89433400D01*
X167411400Y-115874800D02*
X169367200Y-115874800D01*
X170078400Y-110134400D02*
X166928800Y-113284000D01*
X176276000Y-114909600D02*
X191363600Y-129997200D01*
X188800000Y-93300000D02*
X186600000Y-93300000D01*
X186600000Y-93300000D02*
X185400000Y-92100000D01*
X191363600Y-129997200D02*
X191363600Y-133223000D01*
X189382400Y-93882400D02*
X188800000Y-93300000D01*
X184600000Y-89865200D02*
X166903400Y-89865200D01*
X189382400Y-104394000D02*
X189382400Y-93882400D01*
X170256200Y-114376200D02*
X170789600Y-114909600D01*
X185400000Y-92100000D02*
X185400000Y-90700000D01*
X170789600Y-114909600D02*
X176276000Y-114909600D01*
X170180000Y-114376200D02*
X170256200Y-114376200D01*
X169900600Y-114096800D02*
X169900600Y-112522000D01*
X170535600Y-111887000D02*
X170535600Y-110998000D01*
X185826400Y-107797600D02*
X184099200Y-109524800D01*
X166293800Y-90474800D02*
X166293800Y-92329000D01*
X170180000Y-114376200D02*
X169900600Y-114096800D01*
X170535600Y-110998000D02*
X170281600Y-110744000D01*
X186461400Y-105816400D02*
X185826400Y-106451400D01*
X185826400Y-106451400D02*
X185826400Y-107797600D01*
X185400000Y-90700000D02*
X184600000Y-89900000D01*
X184600000Y-89900000D02*
X184600000Y-89865200D01*
X166293800Y-92329000D02*
X166141400Y-92481400D01*
X169316400Y-114376200D02*
X170180000Y-114376200D01*
X169900600Y-112522000D02*
X170535600Y-111887000D01*
X166903400Y-89865200D02*
X166293800Y-90474800D01*
X184099200Y-109524800D02*
X171323000Y-109524800D01*
X190804800Y-130327400D02*
X190804800Y-131876800D01*
X175600000Y-98300000D02*
X173200000Y-95900000D01*
X170230800Y-115392200D02*
X175869600Y-115392200D01*
X173200000Y-95900000D02*
X170271200Y-95900000D01*
X179705000Y-119227600D02*
X190804800Y-130327400D01*
X186359800Y-106959400D02*
X186969400Y-106349800D01*
X170271200Y-95900000D02*
X168833800Y-94462600D01*
X186359800Y-108102400D02*
X186359800Y-106959400D01*
X186969400Y-100069400D02*
X185200000Y-98300000D01*
X185318400Y-109143800D02*
X186359800Y-108102400D01*
X185200000Y-98300000D02*
X175600000Y-98300000D01*
X186969400Y-106349800D02*
X186969400Y-100069400D01*
X175869600Y-115392200D02*
X179705000Y-119227600D01*
X190728600Y-126746000D02*
X191236600Y-127254000D01*
X189560200Y-105638600D02*
X188264800Y-104343200D01*
X188264800Y-99164800D02*
X187073000Y-97973000D01*
X190728600Y-118795800D02*
X190728600Y-126746000D01*
X188849000Y-116967000D02*
X188874400Y-116941600D01*
X175031400Y-113106200D02*
X175742600Y-113817400D01*
X175742600Y-113817400D02*
X183311800Y-113817400D01*
X189306200Y-110998000D02*
X187909200Y-109601000D01*
X177522157Y-97973000D02*
X172741757Y-93192600D01*
X171145200Y-113106200D02*
X175031400Y-113106200D01*
X172741757Y-93192600D02*
X172110400Y-93192600D01*
X183311800Y-113817400D02*
X183362600Y-113817400D01*
X188874400Y-116941600D02*
X190728600Y-118795800D01*
X186512200Y-116967000D02*
X188849000Y-116967000D01*
X189560200Y-106476800D02*
X189560200Y-105638600D01*
X187909200Y-109601000D02*
X187909200Y-109067600D01*
X188264800Y-104343200D02*
X188264800Y-99164800D01*
X170434000Y-113817400D02*
X171145200Y-113106200D01*
X187073000Y-97973000D02*
X177522157Y-97973000D01*
X183362600Y-113817400D02*
X186512200Y-116967000D01*
X161569400Y-117398800D02*
X161569400Y-107975400D01*
X160858200Y-118110000D02*
X161569400Y-117398800D01*
X163804600Y-105054400D02*
X164465000Y-105054400D01*
X162687000Y-106172000D02*
X163804600Y-105054400D01*
X167411400Y-102108000D02*
X167411400Y-101600000D01*
X158724600Y-117297200D02*
X159537400Y-118110000D01*
X159537400Y-118110000D02*
X160858200Y-118110000D01*
X164465000Y-105054400D02*
X167411400Y-102108000D01*
X162534600Y-106172000D02*
X162687000Y-106172000D01*
X161569400Y-107975400D02*
X160807400Y-107213400D01*
X166217600Y-99441000D02*
X166217600Y-96901000D01*
X161493200Y-104368600D02*
X161493200Y-105689400D01*
X161010600Y-108356400D02*
X161010600Y-116382800D01*
X161290000Y-104165400D02*
X161493200Y-104368600D01*
X161010600Y-116382800D02*
X160477200Y-116916200D01*
X156921200Y-104165400D02*
X161290000Y-104165400D01*
X166522400Y-99745800D02*
X166217600Y-99441000D01*
X158750000Y-99745800D02*
X156895800Y-101600000D01*
X166217600Y-96901000D02*
X166598600Y-96520000D01*
X161493200Y-105689400D02*
X161036000Y-106146600D01*
X166522400Y-99745800D02*
X158750000Y-99745800D01*
X160477200Y-116916200D02*
X160121600Y-116916200D01*
X160299400Y-107645200D02*
X161010600Y-108356400D01*
X159207200Y-116814600D02*
X158165800Y-116814600D01*
X159918400Y-117525800D02*
X159207200Y-116814600D01*
X152860800Y-100882912D02*
X152860800Y-103017609D01*
X164000000Y-98300000D02*
X163348406Y-98300000D01*
X162862802Y-97188906D02*
X156554806Y-97188906D01*
X152860800Y-103017609D02*
X155837391Y-105994200D01*
X162884948Y-97211052D02*
X162884948Y-97836542D01*
X159054800Y-106908600D02*
X159054800Y-107111800D01*
X156554806Y-97188906D02*
X152860800Y-100882912D01*
X156819600Y-117271800D02*
X157810200Y-116281200D01*
X151485600Y-117271800D02*
X156819600Y-117271800D01*
X158140400Y-105994200D02*
X159054800Y-106908600D01*
X150977600Y-117779800D02*
X151485600Y-117271800D01*
X157810200Y-116281200D02*
X160070800Y-116281200D01*
X163348406Y-98300000D02*
X162884948Y-97836542D01*
X162884948Y-97211052D02*
X162862802Y-97188906D01*
X155837391Y-105994200D02*
X158140400Y-105994200D01*
X155092400Y-103784400D02*
X155092400Y-104597200D01*
X159461200Y-105308400D02*
X159893000Y-105740200D01*
X155803600Y-105308400D02*
X159461200Y-105308400D01*
X155092400Y-104597200D02*
X155803600Y-105308400D01*
X149961600Y-117475000D02*
X149961600Y-117398800D01*
X155778200Y-103098600D02*
X155092400Y-103784400D01*
X150520400Y-116840000D02*
X156641800Y-116840000D01*
X158109600Y-115372200D02*
X160268600Y-115372200D01*
X156641800Y-116840000D02*
X158109600Y-115372200D01*
X157708600Y-103098600D02*
X155778200Y-103098600D01*
X158572200Y-108432600D02*
X159207200Y-108432600D01*
X149961600Y-117398800D02*
X150520400Y-116840000D01*
X157962600Y-102844600D02*
X157708600Y-103098600D01*
X158140400Y-108000800D02*
X158572200Y-108432600D01*
X157835600Y-109270800D02*
X158699200Y-109270800D01*
X157276800Y-109829600D02*
X155168600Y-109829600D01*
X159924800Y-114198400D02*
X159893000Y-114198400D01*
X147878800Y-106781600D02*
X137134600Y-106781600D01*
X157835600Y-109270800D02*
X157276800Y-109829600D01*
X152628600Y-109321600D02*
X150418800Y-109321600D01*
X152882600Y-109575600D02*
X152628600Y-109321600D01*
X159969200Y-108991400D02*
X160356600Y-109378800D01*
X150418800Y-109321600D02*
X147878800Y-106781600D01*
X160356600Y-113766600D02*
X159924800Y-114198400D01*
X160356600Y-109378800D02*
X160356600Y-113766600D01*
X159893000Y-114198400D02*
X159588200Y-114503200D01*
X158699200Y-109270800D02*
X158978600Y-108991400D01*
X158978600Y-108991400D02*
X159969200Y-108991400D01*
X168643300Y-96939100D02*
X168643300Y-97320100D01*
X167995600Y-97967800D02*
X167995600Y-102235000D01*
X167563800Y-95859600D02*
X168643300Y-96939100D01*
X167995600Y-102235000D02*
X166827200Y-103403400D01*
X156210000Y-94462600D02*
X157607000Y-95859600D01*
X168643300Y-97320100D02*
X167995600Y-97967800D01*
X166827200Y-104876600D02*
X167487600Y-105537000D01*
X166827200Y-103403400D02*
X166827200Y-104876600D01*
X169189400Y-96393000D02*
X172669200Y-96393000D01*
X168643300Y-96939100D02*
X169189400Y-96393000D01*
X157607000Y-95859600D02*
X167563800Y-95859600D01*
X168325800Y-95300800D02*
X168935400Y-95910400D01*
X168351200Y-103809800D02*
X168351200Y-98145600D01*
X167538400Y-104622600D02*
X168351200Y-103809800D01*
X168351200Y-98145600D02*
X169545000Y-96951800D01*
X174364200Y-99104000D02*
X176936400Y-99104000D01*
X172212000Y-96951800D02*
X174364200Y-99104000D01*
X161036000Y-95300800D02*
X168325800Y-95300800D01*
X169545000Y-96951800D02*
X172212000Y-96951800D01*
X159385000Y-93649800D02*
X161036000Y-95300800D01*
X139954000Y-107467400D02*
X146964400Y-107467400D01*
X155596302Y-110569622D02*
X156721422Y-110569622D01*
X134493000Y-106934000D02*
X135610600Y-106934000D01*
X137007600Y-108331000D02*
X139090400Y-108331000D01*
X158902400Y-111404400D02*
X159283400Y-111785400D01*
X157556200Y-111404400D02*
X158902400Y-111404400D01*
X135610600Y-106934000D02*
X137007600Y-108331000D01*
X139090400Y-108331000D02*
X139954000Y-107467400D01*
X156721422Y-110569622D02*
X157556200Y-111404400D01*
X145923000Y-106400600D02*
X146278600Y-106045000D01*
X140081000Y-106400600D02*
X145923000Y-106400600D01*
X146278600Y-105384600D02*
X146215100Y-105321100D01*
X156324073Y-111053124D02*
X156468324Y-111053124D01*
X136398000Y-106273600D02*
X139954000Y-106273600D01*
X158470600Y-111810800D02*
X159232600Y-112572800D01*
X157226000Y-111810800D02*
X158470600Y-111810800D01*
X146278600Y-106045000D02*
X146278600Y-105384600D01*
X156468324Y-111053124D02*
X157226000Y-111810800D01*
X139954000Y-106273600D02*
X140081000Y-106400600D01*
X145338800Y-106019600D02*
X145580100Y-105778300D01*
X157010087Y-112636287D02*
X158356287Y-112636287D01*
X156006800Y-111633000D02*
X157010087Y-112636287D01*
X140004800Y-105689400D02*
X140335000Y-106019600D01*
X137642600Y-105689400D02*
X140004800Y-105689400D01*
X140335000Y-106019600D02*
X145338800Y-106019600D01*
X158356287Y-112636287D02*
X159283400Y-113563400D01*
X255006000Y-133894000D02*
X256800000Y-132100000D01*
X255006000Y-134945200D02*
X255006000Y-133894000D01*
X247309741Y-119226609D02*
X243502610Y-119226609D01*
X243502610Y-119226609D02*
X243428699Y-119152698D01*
X253400000Y-126300000D02*
X253400000Y-125316868D01*
X253400000Y-125316868D02*
X247309741Y-119226609D01*
X242200000Y-120100000D02*
X242400000Y-120300000D01*
X242400000Y-120300000D02*
X246600000Y-120300000D01*
X249107200Y-126207068D02*
X252800000Y-129899868D01*
X252800000Y-129899868D02*
X252800000Y-130791800D01*
X246600000Y-120300000D02*
X246700066Y-120199934D01*
X249107200Y-125899934D02*
X249107200Y-126207068D01*
X248400000Y-132300000D02*
X241200000Y-132300000D01*
X240200000Y-128900000D02*
X240200000Y-124700000D01*
X241000000Y-129700000D02*
X240200000Y-128900000D01*
X244200000Y-129300000D02*
X244200000Y-130900000D01*
X242400000Y-127500000D02*
X244200000Y-129300000D01*
D32*
X297200000Y-118680000D02*
X299800000Y-116080000D01*
X297200000Y-122700000D02*
X297200000Y-118680000D01*
D29*
X271200000Y-105900000D02*
X271600000Y-105500000D01*
X268000000Y-108700000D02*
X269200000Y-108700000D01*
X269200000Y-108700000D02*
X271200000Y-106700000D01*
X271200000Y-106700000D02*
X271200000Y-105900000D01*
X200329800Y-132029200D02*
X199212200Y-133146800D01*
X197104000Y-129565400D02*
X196596000Y-130073400D01*
X198145400Y-130251200D02*
X197459600Y-129565400D01*
X197459600Y-129565400D02*
X197104000Y-129565400D01*
X218262200Y-132816600D02*
X208000600Y-132816600D01*
X204368400Y-132029200D02*
X200329800Y-132029200D01*
X208000600Y-132816600D02*
X206273400Y-131089400D01*
X263800000Y-104100000D02*
X286000000Y-104100000D01*
X197129400Y-128524000D02*
X197129400Y-127812800D01*
X192074800Y-130886200D02*
X192252600Y-131064000D01*
X194564000Y-131064000D02*
X194589400Y-131064000D01*
X192252600Y-131064000D02*
X194564000Y-131064000D01*
X195935600Y-126619000D02*
X195935600Y-126466600D01*
X197129400Y-127812800D02*
X197104000Y-127787400D01*
X194589400Y-131064000D02*
X197129400Y-128524000D01*
X197104000Y-127787400D02*
X195935600Y-126619000D01*
X186893200Y-135737600D02*
X186664600Y-135966200D01*
X164922200Y-132435600D02*
X167259000Y-130098800D01*
X197612000Y-127990600D02*
X200021400Y-130400000D01*
X183235600Y-129057400D02*
X183972200Y-129794000D01*
X153339800Y-127787400D02*
X158445200Y-127787400D01*
X167919400Y-127863600D02*
X180111400Y-127863600D01*
X181305200Y-129057400D02*
X183235600Y-129057400D01*
X184988200Y-135966200D02*
X183972200Y-134950200D01*
X200021400Y-130400000D02*
X200021400Y-131601000D01*
X180111400Y-127863600D02*
X181305200Y-129057400D01*
X183972200Y-129794000D02*
X183972200Y-134950200D01*
X194005200Y-135737600D02*
X186893200Y-135737600D01*
X160502600Y-132435600D02*
X164922200Y-132435600D01*
X197612000Y-127533400D02*
X197612000Y-127990600D01*
X195808600Y-133934200D02*
X194005200Y-135737600D01*
X158800800Y-128143000D02*
X158800800Y-130733800D01*
X158800800Y-130733800D02*
X160502600Y-132435600D01*
X167259000Y-130098800D02*
X167259000Y-128524000D01*
X200021400Y-131601000D02*
X197688200Y-133934200D01*
X186664600Y-135966200D02*
X184988200Y-135966200D01*
X158445200Y-127787400D02*
X158800800Y-128143000D01*
X167259000Y-128524000D02*
X167919400Y-127863600D01*
X197688200Y-133934200D02*
X195808600Y-133934200D01*
X185191400Y-126339600D02*
X185191400Y-126365000D01*
X185191400Y-126365000D02*
X184353200Y-127203200D01*
X197129400Y-126796800D02*
X195630800Y-125298200D01*
X196138800Y-116179600D02*
X187502800Y-107543600D01*
X187502800Y-107543600D02*
X187502800Y-100076000D01*
X195630800Y-125298200D02*
X195630800Y-117322600D01*
X187502800Y-100076000D02*
X186600250Y-99173450D01*
X186600250Y-99173450D02*
X186600250Y-98912250D01*
X195630800Y-117322600D02*
X196138800Y-116814600D01*
X196138800Y-116814600D02*
X196138800Y-116179600D01*
X202463400Y-122529600D02*
X203149200Y-121843800D01*
X256290400Y-130027000D02*
X278261000Y-130027000D01*
X203149200Y-121107200D02*
X203631800Y-120624600D01*
X253746000Y-127482600D02*
X256290400Y-130027000D01*
X203631800Y-120624600D02*
X207492600Y-120624600D01*
X199110600Y-123291600D02*
X199872600Y-122529600D01*
X207492600Y-120624600D02*
X208432400Y-121564400D01*
X199872600Y-122529600D02*
X202463400Y-122529600D01*
X203149200Y-121843800D02*
X203149200Y-121107200D01*
X278600004Y-129687996D02*
X278600004Y-127700000D01*
X278261000Y-130027000D02*
X278600004Y-129687996D01*
X197993000Y-134747000D02*
X199009000Y-134747000D01*
X205609400Y-139264600D02*
X255000000Y-139264600D01*
X203733400Y-137947400D02*
X204292200Y-137947400D01*
D31*
X255000000Y-139264600D02*
X256435400Y-139264600D01*
X256435400Y-139264600D02*
X257600000Y-138100000D01*
X257600000Y-138100000D02*
X258000000Y-137700000D01*
D29*
X199009000Y-134747000D02*
X199440800Y-135178800D01*
X204292200Y-137947400D02*
X205609400Y-139264600D01*
D31*
X258000000Y-137700000D02*
X258000000Y-136900000D01*
D29*
X206476600Y-124739400D02*
X209473800Y-121742200D01*
X202971400Y-124739400D02*
X206476600Y-124739400D01*
X190322200Y-108839000D02*
X194183000Y-108839000D01*
X194183000Y-108839000D02*
X194233800Y-108788200D01*
X191744600Y-129489200D02*
X188036200Y-125780800D01*
X188036200Y-125780800D02*
X188036200Y-117881400D01*
X195707000Y-129006600D02*
X192252600Y-129006600D01*
X196596000Y-128117600D02*
X195707000Y-129006600D01*
X189992000Y-126746000D02*
X192252600Y-129006600D01*
X189992000Y-126746000D02*
X189992000Y-119380000D01*
X201701400Y-117424200D02*
X201701400Y-116789200D01*
X201701400Y-116789200D02*
X200456800Y-115544600D01*
D33*
X242483400Y-118229058D02*
X241420942Y-117166600D01*
D29*
X196672200Y-134797800D02*
X197332600Y-135458200D01*
D33*
X247333400Y-119679058D02*
X242483400Y-119679058D01*
X249000000Y-121459078D02*
X248733400Y-121192478D01*
D29*
X201930000Y-136753600D02*
X202438000Y-137261600D01*
X202438000Y-137261600D02*
X202438000Y-137896600D01*
X197332600Y-135458200D02*
X198602600Y-135458200D01*
X198602600Y-135458200D02*
X199898000Y-136753600D01*
X228200000Y-126425420D02*
X233042800Y-121582620D01*
X228200000Y-131300000D02*
X228200000Y-126425420D01*
X203581000Y-139039600D02*
X204241400Y-139039600D01*
D33*
X242483400Y-119679058D02*
X242483400Y-118229058D01*
X239782200Y-117166600D02*
X236742800Y-120206000D01*
X253200000Y-127900000D02*
X249000000Y-123700000D01*
D29*
X233042800Y-120669200D02*
X233506000Y-120206000D01*
X202438000Y-137896600D02*
X203581000Y-139039600D01*
D33*
X249000000Y-123700000D02*
X249000000Y-121459078D01*
X241420942Y-117166600D02*
X239782200Y-117166600D01*
X248733400Y-121079058D02*
X247333400Y-119679058D01*
D29*
X233506000Y-120206000D02*
X236742800Y-120206000D01*
D33*
X248733400Y-121192478D02*
X248733400Y-121079058D01*
D29*
X199898000Y-136753600D02*
X201930000Y-136753600D01*
X233042800Y-121582620D02*
X233042800Y-120669200D01*
X155676600Y-111988600D02*
X154152600Y-111988600D01*
X147599400Y-115239800D02*
X147599400Y-118160800D01*
X148793200Y-114046000D02*
X147599400Y-115239800D01*
X154152600Y-111988600D02*
X152095200Y-114046000D01*
X147599400Y-118160800D02*
X145745200Y-120015000D01*
X160756600Y-104825800D02*
X160655000Y-104724200D01*
X160683600Y-114169800D02*
X159842200Y-115011200D01*
X152095200Y-114046000D02*
X148793200Y-114046000D01*
X156616400Y-104724200D02*
X160655000Y-104724200D01*
X159842200Y-115011200D02*
X158699200Y-115011200D01*
X160756600Y-105308400D02*
X160756600Y-104825800D01*
X158699200Y-115011200D02*
X155676600Y-111988600D01*
X156565600Y-104775000D02*
X156616400Y-104724200D01*
X160683600Y-108994600D02*
X160683600Y-114169800D01*
X160147000Y-108458000D02*
X160096200Y-108458000D01*
X160683600Y-108994600D02*
X160147000Y-108458000D01*
X145745200Y-120015000D02*
X145745200Y-125603000D01*
X133629400Y-107035600D02*
X134289800Y-107696000D01*
X137795000Y-102133400D02*
X146024600Y-102133400D01*
X137795000Y-102133400D02*
X136779000Y-103149400D01*
X134340600Y-107746800D02*
X135509000Y-107746800D01*
X140690600Y-120065800D02*
X141681200Y-121056400D01*
X135509000Y-107746800D02*
X139039600Y-111277400D01*
X140690600Y-113106200D02*
X140690600Y-120065800D01*
X134467600Y-103200200D02*
X133629400Y-104038400D01*
X150977600Y-102819200D02*
X150241000Y-102819200D01*
X139039600Y-111277400D02*
X139877800Y-111277400D01*
X149402800Y-103657400D02*
X150241000Y-102819200D01*
X147548600Y-103657400D02*
X149402800Y-103657400D01*
X154736800Y-102819200D02*
X153339800Y-102819200D01*
X134289800Y-107696000D02*
X134340600Y-107746800D01*
X136779000Y-103149400D02*
X136728200Y-103200200D01*
X136728200Y-103200200D02*
X134467600Y-103200200D01*
X146024600Y-102133400D02*
X147548600Y-103657400D01*
X133629400Y-104038400D02*
X133629400Y-107035600D01*
X148742400Y-113487200D02*
X149987000Y-113487200D01*
X149987000Y-113487200D02*
X150317200Y-113157000D01*
X147701000Y-113842800D02*
X148386800Y-113842800D01*
X148386800Y-113842800D02*
X148742400Y-113487200D01*
X237600000Y-126900000D02*
X237000000Y-126300000D01*
X237600000Y-128900000D02*
X237600000Y-126900000D01*
X167132000Y-106781600D02*
X164465000Y-106781600D01*
X168986200Y-98729800D02*
X168986200Y-104927400D01*
X167132000Y-106781600D02*
X168986200Y-104927400D01*
X170053000Y-97663000D02*
X168986200Y-98729800D01*
X172085000Y-97663000D02*
X174091600Y-99669600D01*
X177952400Y-99669600D02*
X174091600Y-99669600D01*
X172085000Y-97663000D02*
X170053000Y-97663000D01*
X173786800Y-100152200D02*
X173761400Y-100126800D01*
X163677600Y-107162600D02*
X163677600Y-106349800D01*
X167411400Y-107492800D02*
X164007800Y-107492800D01*
X163677600Y-106349800D02*
X164185600Y-105841800D01*
X171831000Y-98196400D02*
X170408600Y-98196400D01*
X169545000Y-99060000D02*
X169545000Y-105359200D01*
X173761400Y-100126800D02*
X171831000Y-98196400D01*
X164007800Y-107492800D02*
X163677600Y-107162600D01*
X167411400Y-107492800D02*
X169545000Y-105359200D01*
X176504600Y-100152200D02*
X173786800Y-100152200D01*
X170408600Y-98196400D02*
X169545000Y-99060000D01*
X168630600Y-136330600D02*
X168630600Y-135788400D01*
X170857000Y-138557000D02*
X168630600Y-136330600D01*
X185369200Y-138557000D02*
X170857000Y-138557000D01*
X189153800Y-136474200D02*
X191592200Y-136474200D01*
X186893200Y-116408200D02*
X189204600Y-116408200D01*
X191363600Y-118567200D02*
X191363600Y-122555000D01*
X189204600Y-116408200D02*
X191363600Y-118567200D01*
X191363600Y-122555000D02*
X192303400Y-123494800D01*
X192303400Y-123494800D02*
X192303400Y-125933200D01*
X183769000Y-113284000D02*
X186893200Y-116408200D01*
X175996600Y-112903000D02*
X176377600Y-113284000D01*
X176377600Y-113284000D02*
X183769000Y-113284000D01*
X177190400Y-112649000D02*
X183989209Y-112649000D01*
X192887600Y-121996200D02*
X194132200Y-123240800D01*
X194132200Y-123240800D02*
X194132200Y-125780800D01*
X183989209Y-112649000D02*
X187215009Y-115874800D01*
X189331600Y-115874800D02*
X192887600Y-119430800D01*
X192887600Y-119430800D02*
X192887600Y-121996200D01*
X194132200Y-125780800D02*
X194513200Y-126161800D01*
X187215009Y-115874800D02*
X189331600Y-115874800D01*
X224231200Y-106273600D02*
X256173600Y-106273600D01*
X210413600Y-120091200D02*
X224231200Y-106273600D01*
X203657200Y-125780800D02*
X208076800Y-125780800D01*
X208076800Y-125780800D02*
X210413600Y-123444000D01*
X262000000Y-112100000D02*
X282387400Y-112100000D01*
X256173600Y-106273600D02*
X262000000Y-112100000D01*
X282387400Y-112100000D02*
X284387400Y-110100000D01*
X210413600Y-123444000D02*
X210413600Y-120091200D01*
X284387400Y-110100000D02*
X284600000Y-110100000D01*
X153898600Y-108153200D02*
X154432000Y-107619800D01*
X151612600Y-111302800D02*
X152349200Y-111302800D01*
X152349200Y-111302800D02*
X153898600Y-109753400D01*
X153898600Y-109753400D02*
X153898600Y-108153200D01*
X153517600Y-109626400D02*
X153517600Y-107924600D01*
X152476200Y-110667800D02*
X153517600Y-109626400D01*
X153517600Y-107924600D02*
X153517600Y-107721400D01*
X151155400Y-110667800D02*
X152476200Y-110667800D01*
X164033200Y-102362000D02*
X162636200Y-103759000D01*
X152425400Y-112242600D02*
X154584400Y-110083600D01*
X155092400Y-108280200D02*
X156362400Y-108280200D01*
X164033200Y-101854000D02*
X164033200Y-102336600D01*
X164033200Y-102336600D02*
X164033200Y-102362000D01*
X156362400Y-108280200D02*
X156387800Y-108254800D01*
X145897600Y-112090200D02*
X146685000Y-112090200D01*
X146685000Y-112090200D02*
X146837400Y-112242600D01*
X154584400Y-110083600D02*
X154584400Y-108788200D01*
X157429200Y-107213400D02*
X156387800Y-108254800D01*
X154584400Y-108788200D02*
X155092400Y-108280200D01*
X164363400Y-101523800D02*
X164033200Y-101854000D01*
X146837400Y-112242600D02*
X152425400Y-112242600D01*
X152298400Y-111861600D02*
X146989800Y-111861600D01*
X154889200Y-107924600D02*
X154228800Y-108585000D01*
X163550600Y-101473000D02*
X164261800Y-100761800D01*
X163550600Y-102082600D02*
X163550600Y-101473000D01*
X162585400Y-103047800D02*
X163550600Y-102082600D01*
X146989800Y-111861600D02*
X145745200Y-110617000D01*
X154228800Y-109931200D02*
X152298400Y-111861600D01*
X156514800Y-107188000D02*
X155778200Y-107924600D01*
X164261800Y-100761800D02*
X164973000Y-100761800D01*
X155778200Y-107924600D02*
X154889200Y-107924600D01*
X154228800Y-108585000D02*
X154228800Y-109931200D01*
X150164800Y-106375200D02*
X150698200Y-106908600D01*
X150698200Y-106908600D02*
X152019000Y-106908600D01*
X152019000Y-106908600D02*
X152247600Y-107137200D01*
X150164800Y-104216200D02*
X150164800Y-106375200D01*
X154940000Y-116281200D02*
X155092400Y-116128800D01*
X155092400Y-116128800D02*
X155092400Y-113639600D01*
X155702000Y-113055400D02*
X155270200Y-112623600D01*
X155702000Y-116255800D02*
X155702000Y-113055400D01*
M02*
